/* XPM */
/* This file is a part of the NsCDE - Not so Common Desktop Environment */
static char * Qt5_RadioButtonUnselected_xpm[] = {
"16 16 4 1",
"       c None",
".	c NSCDE_BS_COLOR_6",
"+	c NSCDE_BG_COLOR_6",
"#	c NSCDE_TS_COLOR_6",
"    +######+    ",
"   ###++++###   ",
"  ##++++++++#+  ",
" ##++++++++++.. ",
"+#++++++++++++. ",
"##++++++++++++..",
"#++++++++++++++.",
"#++++++++++++++.",
"#++++++++++++++.",
"#++++++++++++++.",
"##++++++++++++..",
"+#++++++++++++. ",
" ##++++++++++.. ",
"  +.++++++++..  ",
"   ...++++...   ",
"     ......     "};
