/* XPM */
/* This file is a part of the NsCDE - Not so Common Desktop Environment */
static char *_6x16_media_record[] = {
/* columns rows colors chars-per-pixel */
"16 16 4 1 ",
"@ c red",
". s bottomShadowColor m black c NSCDE_BS_COLOR_5",
"X s background m black c NSCDE_BG_COLOR_5",
"o s topShadowColor m white c NSCDE_TS_COLOR_5",
/* pixels */
"oooooooooooooooo",
"oXXXXXXXXXXXXXX.",
"oXXXXooooooXXXX.",
"oXXXoo@@@@ooXXX.",
"oXXoo@@@@@@ooXX.",
"oXoo@@@@@@@@ooX.",
"oXo@@@@@@@@@@oX.",
"oXo@@@@@@@@@@oX.",
"oXo@@@@@@@@@@oX.",
"oXo@@@@@@@@@@oX.",
"oXoo@@@@@@@@ooX.",
"oXXoo@@@@@@ooXX.",
"oXXXoo@@@@ooXXX.",
"oXXXXooooooXXXX.",
"oXXXXXXXXXXXXXX.",
"o..............."
};
