/* XPM */
/* This file is a part of the NsCDE - Not so Common Desktop Environment */
static char *format_indent_more[] = {
/* columns rows colors chars-per-pixel */
"16 16 4 1 ",
"@ s foreground m white c NSCDE_FG_COLOR_5",
". s bottomShadowColor m black c NSCDE_BS_COLOR_5",
"X s None m None s None",
"o s topShadowColor m white c NSCDE_TS_COLOR_5",
/* pixels */
"ooooooooooooooo.",
"oXXXXXXXXXXXXXX.",
"oXXXXXXXXXXXXXX.",
"oX@X@@@@@@@@@@X.",
"oX@@XXXXXXXXXXX.",
"oXX@@XXXXXXXXXX.",
"oXXX@@XX@@@@@@X.",
"oXXXX@@XXXXXXXX.",
"oXXX@@XXXXXXXXX.",
"oXX@@XXX@@@@@@X.",
"oX@@XXXXXXXXXXX.",
"oX@XXXXXXXXXXXX.",
"oXXX@@@@@@@@@@X.",
"oXXXXXXXXXXXXXX.",
"oXXXXXXXXXXXXXX.",
"................"
};
