/* XPM */
/* This file is a part of the NsCDE - Not so Common Desktop Environment */
static char *_6x16_media_playback_start[] = {
/* columns rows colors chars-per-pixel */
"16 16 4 1 ",
"@ s foreground m white c NSCDE_FG_COLOR_5",
". s bottomShadowColor m black c NSCDE_BS_COLOR_5",
"X s None m None s None",
"o s topShadowColor m white c NSCDE_TS_COLOR_5",
/* pixels */
"oooooooooooooooo",
"oXXXXXXXXXXXXXX.",
"oXXXXXXXXXXXXXX.",
"oXXXXXXXXXXXXXX.",
"oXXX@@XXXXXXXXX.",
"oXXX@@@@XXXXXXX.",
"oXXX@@@@@@XXXXX.",
"oXXX@@@@@@@@XXX.",
"oXXX@@@@@@@@XXX.",
"oXXX@@@@@@XXXXX.",
"oXXX@@@@XXXXXXX.",
"oXXX@@XXXXXXXXX.",
"oXXXXXXXXXXXXXX.",
"oXXXXXXXXXXXXXX.",
"oXXXXXXXXXXXXXX.",
"o..............."
};
