/* XPM */
/* This file is a part of the NsCDE - Not so Common Desktop Environment */
static char *_2x22_media_playback_pause[] = {
/* columns rows colors chars-per-pixel */
"22 22 4 1 ",
"@ s foreground m white c NSCDE_FG_COLOR_5",
". s bottomShadowColor m black c NSCDE_BS_COLOR_5",
"X s background m black c NSCDE_BG_COLOR_5",
"o s topShadowColor m white c NSCDE_TS_COLOR_5",
/* pixels */
"oooooooooooooooooooooo",
"oXXXXXXXXXXXXXXXXXXXX.",
"oXXXXXXXXXXXXXXXXXXXX.",
"oXXXXXXXXXXXXXXXXXXXX.",
"oXXXXXXXXXXXXXXXXXXXX.",
"oXXXXXXXXXXXXXXXXXXXX.",
"oXXXXX@@@XXX@@@XXXXXX.",
"oXXXXX@@@XXX@@@XXXXXX.",
"oXXXXX@@@XXX@@@XXXXXX.",
"oXXXXX@@@XXX@@@XXXXXX.",
"oXXXXX@@@XXX@@@XXXXXX.",
"oXXXXX@@@XXX@@@XXXXXX.",
"oXXXXX@@@XXX@@@XXXXXX.",
"oXXXXX@@@XXX@@@XXXXXX.",
"oXXXXX@@@XXX@@@XXXXXX.",
"oXXXXX@@@XXX@@@XXXXXX.",
"oXXXXXXXXXXXXXXXXXXXX.",
"oXXXXXXXXXXXXXXXXXXXX.",
"oXXXXXXXXXXXXXXXXXXXX.",
"oXXXXXXXXXXXXXXXXXXXX.",
"oXXXXXXXXXXXXXXXXXXXX.",
"o....................."
};
