/* XPM */
/* This file is a part of the NsCDE - Not so Common Desktop Environment */
static char *view_refresh_22x22[] = {
/* columns rows colors chars-per-pixel */
"22 22 4 1 ",
"X      s None m None c None",
".      s bottomShadowColor m black c NSCDE_BS_COLOR_5",
"o      s topShadowColor m black c NSCDE_TS_COLOR_5",
"@      s foreground m black c NSCDE_FG_COLOR_5",
/* pixels */
"ooooooooooooooooooooo.",
"oXXXXXXXXXXXXXXXXXXXX.",
"oXXXXXXXX@@@@@XXXXXXX.",
"oXXXXXX@@@@X@@@@XXXXX.",
"oXXXXXX@@@XXX@@@@XXXX.",
"oXXXXX@@@@XXX@@@@XXXX.",
"oXXXXX@@@XXXXX@@@@XXX.",
"oXXXXX@@@XXXXX@@@@XXX.",
"oXX@@@@@@@@@XX@@@@XXX.",
"oXXX@@@@@@@XXX.XXXXXX.",
"oXXXX@@@@@XXX@@@XXXXX.",
"oXXXXX@@@XXX@@@@@XXXX.",
"oXXXXXX.XXX@@@@@@@XXX.",
"oXXX@@@@XX@@@@@@@@@XX.",
"oXXX@@@@XXXXX@@@XXXXX.",
"oXXX@@@@XXXXX@@@XXXXX.",
"oXXXX@@@@XXX@@@@XXXXX.",
"oXXXX@@@@XXX@@@XXXXXX.",
"oXXXXX@@@@X@@@@XXXXXX.",
"oXXXXXXX@@@@@XXXXXXXX.",
"oXXXXXXXXXXXXXXXXXXXX.",
"o....................."
};
