/* XPM */
/* This file is a part of the NsCDE - Not so Common Desktop Environment */
static char *_2x22_media_eject[] = {
/* columns rows colors chars-per-pixel */
"22 22 4 1 ",
"@ s foreground m white c NSCDE_FG_COLOR_5",
". s bottomShadowColor m black c NSCDE_BS_COLOR_5",
"X s None m None s None",
"o s topShadowColor m white c NSCDE_TS_COLOR_5",
/* pixels */
"oooooooooooooooooooooo",
"oXXXXXXXXXXXXXXXXXXXX.",
"oXXXXXXXXXXXXXXXXXXXX.",
"oXXXXXXXXXXXXXXXXXXXX.",
"oXXXXXXXXXXXXXXXXXXXX.",
"oXXXXXXXXXXXXXXXXXXXX.",
"oXXXXXXXXXXXXXXXXXXXX.",
"oXXXXXXXXX@@XXXXXXXXX.",
"oXXXXXXXX@@@@XXXXXXXX.",
"oXXXXXXX@@@@@@XXXXXXX.",
"oXXXXXX@@@@@@@@XXXXXX.",
"oXXXXX@@@@@@@@@@XXXXX.",
"oXXXXXXXXXXXXXXXXXXXX.",
"oXXXXXXXXXXXXXXXXXXXX.",
"oXXXXX@@@@@@@@@@XXXXX.",
"oXXXXX@@@@@@@@@@XXXXX.",
"oXXXXXXXXXXXXXXXXXXXX.",
"oXXXXXXXXXXXXXXXXXXXX.",
"oXXXXXXXXXXXXXXXXXXXX.",
"oXXXXXXXXXXXXXXXXXXXX.",
"oXXXXXXXXXXXXXXXXXXXX.",
"o....................."
};
