/* XPM */
/* This file is a part of the NsCDE - Not so Common Desktop Environment */
static char *_2x22_format_justify_center[] = {
/* columns rows colors chars-per-pixel */
"22 22 4 1 ",
"@ s foreground m white c NSCDE_FG_COLOR_5",
". s bottomShadowColor m black c NSCDE_BS_COLOR_5",
"X s None m None s None",
"o s topShadowColor m white c NSCDE_TS_COLOR_5",
/* pixels */
"ooooooooooooooooooooo.",
"oXXXXXXXXXXXXXXXXXXXX.",
"oXXXXX@@@@@@@@@@XXXXX.",
"oXXXXX@@@@@@@@@@XXXXX.",
"oXXXXXXXXXXXXXXXXXXXX.",
"oXXXXXXXXXXXXXXXXXXXX.",
"oXX@@@@@@@@@@@@@@@@XX.",
"oXX@@@@@@@@@@@@@@@@XX.",
"oXXXXXXXXXXXXXXXXXXXX.",
"oXXXXXXXXXXXXXXXXXXXX.",
"oXXXXX@@@@@@@@@@XXXXX.",
"oXXXXX@@@@@@@@@@XXXXX.",
"oXXXXXXXXXXXXXXXXXXXX.",
"oXXXXXXXXXXXXXXXXXXXX.",
"oXX@@@@@@@@@@@@@@@@XX.",
"oXX@@@@@@@@@@@@@@@@XX.",
"oXXXXXXXXXXXXXXXXXXXX.",
"oXXXXXXXXXXXXXXXXXXXX.",
"oXXX@@@@@@@@@@@@@@XXX.",
"oXXX@@@@@@@@@@@@@@XXX.",
"oXXXXXXXXXXXXXXXXXXXX.",
"......................"
};
