/* XPM */
/* This file is a part of the NsCDE - Not so Common Desktop Environment */
static char *window_close[] = {
/* columns rows colors chars-per-pixel */
"22 22 3 1 ",
".      s None m None c None",
"@      s bottomShadowColor m black c NSCDE_BS_COLOR_5",
"X      s topShadowColor m black c NSCDE_TS_COLOR_5",
/* pixels */
"XXXXXXXXXXXXXXXXXXXXX@",
"X....................@",
"X....................@",
"X..XX@..........XX@..@",
"X..XXX@........XXX@..@",
"X...XXX@......XXX@...@",
"X....XXX@....XXX@....@",
"X.....XXX@..XXX@.....@",
"X......XXX@XXX@......@",
"X.......XXXXX@.......@",
"X........XXX@........@",
"X.......XXXXX@.......@",
"X......XXX@XXX@......@",
"X.....XXX@..XXX@.....@",
"X....XXX@....XXX@....@",
"X...XXX@......XXX@...@",
"X..XXX@........XXX@..@",
"X..XX@..........XX@..@",
"X....................@",
"X....................@",
"X....................@",
"X@@@@@@@@@@@@@@@@@@@@@"
};
