/* XPM */
/* This file is a part of the NsCDE - Not so Common Desktop Environment */
static char *_4x24_media_seek_forward[] = {
/* columns rows colors chars-per-pixel */
"24 24 4 1 ",
"@ s foreground m white c NSCDE_FG_COLOR_5",
". s bottomShadowColor m black c NSCDE_BS_COLOR_5",
"X s None m None s None",
"o s topShadowColor m white c NSCDE_TS_COLOR_5",
/* pixels */
"oooooooooooooooooooooooo",
"ooooooooooooooooooooooo.",
"ooXXXXXXXXXXXXXXXXXXXX..",
"ooXXXXXXXXXXXXXXXXXXXX..",
"ooXXXXXXXXXXXXXXXXXXXX..",
"ooXXXXXXXXXXXXXXXXXXXX..",
"ooXXX@XXXXXX@XXXXXXXXX..",
"ooXXX@@XXXXX@@XXXXXXXX..",
"ooXXX@@@XXXX@@@XXXXXXX..",
"ooXXX@@@@XXX@@@@XXXXXX..",
"ooXXX@@@@@XX@@@@@XXXXX..",
"ooXXX@@@@@@X@@@@@@XXXX..",
"ooXXX@@@@@@@@@@@@@@XXX..",
"ooXXX@@@@@@X@@@@@@XXXX..",
"ooXXX@@@@@XX@@@@@XXXXX..",
"ooXXX@@@@XXX@@@@XXXXXX..",
"ooXXX@@@XXXX@@@XXXXXXX..",
"ooXXX@@XXXXX@@XXXXXXXX..",
"ooXXX@XXXXXX@XXXXXXXXX..",
"ooXXXXXXXXXXXXXXXXXXXX..",
"ooXXXXXXXXXXXXXXXXXXXX..",
"ooXXXXXXXXXXXXXXXXXXXX..",
"oo......................",
"o......................."
};
