/* XPM */
/* This file is a part of the NsCDE - Not so Common Desktop Environment */
static char *_4x24_media_playback_start_rtl[] = {
/* columns rows colors chars-per-pixel */
"24 24 4 1 ",
"@ s foreground m white c NSCDE_FG_COLOR_5",
". s bottomShadowColor m black c NSCDE_BS_COLOR_5",
"X s None m None s None",
"o s topShadowColor m white c NSCDE_TS_COLOR_5",
/* pixels */
"oooooooooooooooooooooooo",
"ooooooooooooooooooooooo.",
"ooXXXXXXXXXXXXXXXXXXXX..",
"ooXXXXXXXXXXXXXXXXXXXX..",
"ooXXXXXXXXXXXXXXXXXXXX..",
"ooXXXXXXXXXXXXXXXXXXXX..",
"ooXXXXXXXXXXXXXXXXXXXX..",
"ooXXXXXXXXXXXXXXXXXXXX..",
"ooXXXXXXXXXXXXX@@XXXXX..",
"ooXXXXXXXXXXX@@@@XXXXX..",
"ooXXXXXXXXX@@@@@@XXXXX..",
"ooXXXXXXX@@@@@@@@XXXXX..",
"ooXXXXX@@@@@@@@@@XXXXX..",
"ooXXXXXXX@@@@@@@@XXXXX..",
"ooXXXXXXXXX@@@@@@XXXXX..",
"ooXXXXXXXXXXX@@@@XXXXX..",
"ooXXXXXXXXXXXXX@@XXXXX..",
"ooXXXXXXXXXXXXXXXXXXXX..",
"ooXXXXXXXXXXXXXXXXXXXX..",
"ooXXXXXXXXXXXXXXXXXXXX..",
"ooXXXXXXXXXXXXXXXXXXXX..",
"ooXXXXXXXXXXXXXXXXXXXX..",
"oo......................",
"o......................."
};
