/* XPM */
/* This file is a part of the NsCDE - Not so Common Desktop Environment */
static char *format_indent_more[] = {
/* columns rows colors chars-per-pixel */
"24 24 4 1 ",
"@ s foreground m white c NSCDE_FG_COLOR_5",
". s bottomShadowColor m black c NSCDE_BS_COLOR_5",
"X s background m black c NSCDE_BG_COLOR_5",
"o s topShadowColor m white c NSCDE_TS_COLOR_5",
/* pixels */
"ooooooooooooooooooooooo.",
"oXXXXXXXXXXXXXXXXXXXXXX.",
"oXXXXXXXXXXXXXXXXXXXXXX.",
"oXX@@@@@@@@@@@@@@@@@@XX.",
"oXX@@@@@@@@@@@@@@@@@@XX.",
"oXXXXXXXXXXXXXXXXXXXXXX.",
"oXX@XXXXXXXXXXXXXXXXXXX.",
"oXX@@@XXXXX@@@@@@@@@@XX.",
"oXXXX@@@XXX@@@@@@@@@@XX.",
"oXXXXXX@@@XXXXXXXXXXXXX.",
"oXXXXXX@@@XXXXXXXXXXXXX.",
"oXXXX@@@XXX@@@@@@@@@@XX.",
"oXX@@@XXXXX@@@@@@@@@@XX.",
"oXX@XXXXXXXXXXXXXXXXXXX.",
"oXXXXXXXXXXXXXXXXXXXXXX.",
"oXX@@@@@@@@@@@@@@@@@@XX.",
"oXX@@@@@@@@@@@@@@@@@@XX.",
"oXXXXXXXXXXXXXXXXXXXXXX.",
"oXXXXXXXXXXXXXXXXXXXXXX.",
"oXX@@@@@@@@@@@@@@@@@@XX.",
"oXX@@@@@@@@@@@@@@@@@@XX.",
"oXXXXXXXXXXXXXXXXXXXXXX.",
"oXXXXXXXXXXXXXXXXXXXXXX.",
"........................"
};
