/* XPM */
/* This file is a part of the NsCDE - Not so Common Desktop Environment */
static char *window_close_24x24[] = {
/* columns rows colors chars-per-pixel */
"24 24 3 1 ",
".      s None m None c None",
"@      s bottomShadowColor m black c NSCDE_BS_COLOR_5",
"X      s topShadowColor m black c NSCDE_TS_COLOR_5",
/* pixels */
"XXXXXXXXXXXXXXXXXXXXXXX@",
"X......................@",
"X......................@",
"X..XX@............XX@..@",
"X..XXX@..........XXX@..@",
"X...XXX@........XXX@...@",
"X....XXX@......XXX@....@",
"X.....XXX@....XXX@.....@",
"X......XXX@..XXX@......@",
"X.......XXX@XXX@.......@",
"X........XXXXX@........@",
"X.........XXX@.........@",
"X........XXXXX@........@",
"X.......XXX@XXX@.......@",
"X......XXX@..XXX@......@",
"X.....XXX@....XXX@.....@",
"X....XXX@......XXX@....@",
"X...XXX@........XXX@...@",
"X..XXX@..........XXX@..@",
"X..XX@............XX@..@",
"X......................@",
"X......................@",
"X......................@",
"X@@@@@@@@@@@@@@@@@@@@@@@"
};
