/* XPM */
/* This file is a part of the NsCDE - Not so Common Desktop Environment */
static char *_2x32_media_record[] = {
/* columns rows colors chars-per-pixel */
"32 32 4 1 ",
"@ c red",
". s bottomShadowColor m black c NSCDE_BS_COLOR_5",
"X s None m None s None",
"o s topShadowColor m white c NSCDE_TS_COLOR_5",
/* pixels */
"oooooooooooooooooooooooooooooooo",
"ooooooooooooooooooooooooooooooo.",
"ooXXXXXXXXXXXXXXXXXXXXXXXXXXXX..",
"ooXXXXXXXXXXXXXXXXXXXXXXXXXXXX..",
"ooXXXXXXXXXXXXXXXXXXXXXXXXXXXX..",
"ooXXXXXXXXXXooooooooXXXXXXXXXX..",
"ooXXXXXXXXooooooooooooXXXXXXXX..",
"ooXXXXXXXoooo@@@@@@ooooXXXXXXX..",
"ooXXXXXXooo@@@@@@@@@@oooXXXXXX..",
"ooXXXXXooo@@@@@@@@@@@@oooXXXXX..",
"ooXXXXooo@@@@@@@@@@@@@@oooXXXX..",
"ooXXXXoo@@@@@@@@@@@@@@@@ooXXXX..",
"ooXXXooo@@@@@@@@@@@@@@@@oooXXX..",
"ooXXXoo@@@@@@@@@@@@@@@@@@ooXXX..",
"ooXXXoo@@@@@@@@@@@@@@@@@@ooXXX..",
"ooXXXoo@@@@@@@@@@@@@@@@@@ooXXX..",
"ooXXXoo@@@@@@@@@@@@@@@@@@ooXXX..",
"ooXXXoo@@@@@@@@@@@@@@@@@@ooXXX..",
"ooXXXoo@@@@@@@@@@@@@@@@@@ooXXX..",
"ooXXXooo@@@@@@@@@@@@@@@@oooXXX..",
"ooXXXXoo@@@@@@@@@@@@@@@@ooXXXX..",
"ooXXXXooo@@@@@@@@@@@@@@oooXXXX..",
"ooXXXXXooo@@@@@@@@@@@@oooXXXXX..",
"ooXXXXXXooo@@@@@@@@@@oooXXXXXX..",
"ooXXXXXXXoooo@@@@@@ooooXXXXXXX..",
"ooXXXXXXXXooooooooooooXXXXXXXX..",
"ooXXXXXXXXXXooooooooXXXXXXXXXX..",
"ooXXXXXXXXXXXXXXXXXXXXXXXXXXXX..",
"ooXXXXXXXXXXXXXXXXXXXXXXXXXXXX..",
"ooXXXXXXXXXXXXXXXXXXXXXXXXXXXX..",
"oo..............................",
"o..............................."
};
