/* XPM */
/* This file is a part of the NsCDE - Not so Common Desktop Environment */
static char *_2x32_media_skip_backward[] = {
/* columns rows colors chars-per-pixel */
"32 32 4 1 ",
"@ s foreground m white c NSCDE_FG_COLOR_5",
". s bottomShadowColor m black c NSCDE_BS_COLOR_5",
"X s None m None s None",
"o s topShadowColor m white c NSCDE_TS_COLOR_5",
/* pixels */
"oooooooooooooooooooooooooooooooo",
"ooooooooooooooooooooooooooooooo.",
"ooXXXXXXXXXXXXXXXXXXXXXXXXXXXX..",
"ooXXXXXXXXXXXXXXXXXXXXXXXXXXXX..",
"ooXXXXXXXXXXXXXXXXXXXXXXXXXXXX..",
"ooXXXXXXXXXXXXXXXXXXXXXXXXXXXX..",
"ooXXXXXXXXXXXXXXXXXXXXXXXXXXXX..",
"ooXXXXXXXXXXXXXXXXXXXXXXXXXXXX..",
"ooXXXXXXXXXXXXXXXXXXXXXXXXXXXX..",
"ooXX@@@XXXXXXXXXXXXXXXXXXXXXXX..",
"ooXX@@@XXXXXXXXX@@XXXXXXXX@@XX..",
"ooXX@@@XXXXXXX@@@@XXXXXX@@@@XX..",
"ooXX@@@XXXXX@@@@@@XXXX@@@@@@XX..",
"ooXX@@@XXX@@@@@@@@XX@@@@@@@@XX..",
"ooXX@@@X@@@@@@@@@@@@@@@@@@@@XX..",
"ooXX@@@@@@@@@@@@@@@@@@@@@@@@XX..",
"ooXX@@@X@@@@@@@@@@@@@@@@@@@@XX..",
"ooXX@@@XXX@@@@@@@@XX@@@@@@@@XX..",
"ooXX@@@XXXXX@@@@@@XXXX@@@@@@XX..",
"ooXX@@@XXXXXXX@@@@XXXXXX@@@@XX..",
"ooXX@@@XXXXXXXXX@@XXXXXXXX@@XX..",
"ooXX@@@XXXXXXXXXXXXXXXXXXXXXXX..",
"ooXXXXXXXXXXXXXXXXXXXXXXXXXXXX..",
"ooXXXXXXXXXXXXXXXXXXXXXXXXXXXX..",
"ooXXXXXXXXXXXXXXXXXXXXXXXXXXXX..",
"ooXXXXXXXXXXXXXXXXXXXXXXXXXXXX..",
"ooXXXXXXXXXXXXXXXXXXXXXXXXXXXX..",
"ooXXXXXXXXXXXXXXXXXXXXXXXXXXXX..",
"ooXXXXXXXXXXXXXXXXXXXXXXXXXXXX..",
"ooXXXXXXXXXXXXXXXXXXXXXXXXXXXX..",
"oo..............................",
"o..............................."
};
