/* XPM */
/* This file is a part of the NsCDE - Not so Common Desktop Environment */
static char *format_indent_less[] = {
/* columns rows colors chars-per-pixel */
"32 32 4 1 ",
"@ s foreground m white c NSCDE_FG_COLOR_5",
". s bottomShadowColor m black c NSCDE_BS_COLOR_5",
"X s background m black c NSCDE_BG_COLOR_5",
"o s topShadowColor m white c NSCDE_TS_COLOR_5",
/* pixels */
"ooooooooooooooooooooooooooooooo.",
"oooooooooooooooooooooooooooooo..",
"ooXXXXXXXXXXXXXXXXXXXXXXXXXXXX..",
"ooXXXXXXXXXXXXXXXXXXXXXXXXXXXX..",
"ooXXXXXXXXXXXXXXXXXXXXXXXXXXXX..",
"ooXXX@@@@@@@@@@@@@@@@@@@@@@XXX..",
"ooXXX@@@@@@@@@@@@@@@@@@@@@@XXX..",
"ooXXXXXXXXXXXXXXXXXXXXXXXXXXXX..",
"ooXXXXXXXXXXXXXXXXXXXXXXX@@XXX..",
"ooXXX@@@@@@@@@@@@XXXXXX@@@@XXX..",
"ooXXX@@@@@@@@@@@@XXXX@@@@XXXXX..",
"ooXXXXXXXXXXXXXXXXX@@@@XXXXXXX..",
"ooXXXXXXXXXXXXXXXXXXX@@@@XXXXX..",
"ooXXX@@@@@@@@@@@@XXXXXX@@@@XXX..",
"ooXXX@@@@@@@@@@@@XXXXXXXX@@XXX..",
"ooXXXXXXXXXXXXXXXXXXXXXXXXXXXX..",
"ooXXXXXXXXXXXXXXXXXXXXXXXXXXXX..",
"ooXXX@@@@@@@@@@@@@@@@@@@@@@XXX..",
"ooXXX@@@@@@@@@@@@@@@@@@@@@@XXX..",
"ooXXXXXXXXXXXXXXXXXXXXXXXXXXXX..",
"ooXXXXXXXXXXXXXXXXXXXXXXXXXXXX..",
"ooXXX@@@@@@@@@@@@@@@@@@@@@@XXX..",
"ooXXX@@@@@@@@@@@@@@@@@@@@@@XXX..",
"ooXXXXXXXXXXXXXXXXXXXXXXXXXXXX..",
"ooXXXXXXXXXXXXXXXXXXXXXXXXXXXX..",
"ooXXX@@@@@@@@@@@@@@@@@@@@@@XXX..",
"ooXXX@@@@@@@@@@@@@@@@@@@@@@XXX..",
"ooXXXXXXXXXXXXXXXXXXXXXXXXXXXX..",
"ooXXXXXXXXXXXXXXXXXXXXXXXXXXXX..",
"ooXXXXXXXXXXXXXXXXXXXXXXXXXXXX..",
"o...............................",
"................................"
};
