/* XPM */
/* This file is a part of the NsCDE - Not so Common Desktop Environment */
static char *format_text_underline[] = {
/* columns rows colors chars-per-pixel */
"48 48 4 1 ",
"@ s foreground m white c NSCDE_FG_COLOR_5",
". s bottomShadowColor m black c NSCDE_BS_COLOR_5",
"X s background m black c NSCDE_BG_COLOR_5",
"o s topShadowColor m white c NSCDE_TS_COLOR_5",
/* pixels */
"oooooooooooooooooooooooooooooooooooooooooooooooo",
"ooooooooooooooooooooooooooooooooooooooooooooooo.",
"ooXXXXXXXXXXXXXXXXXXXXXXXXXXXXXXXXXXXXXXXXXXXX..",
"ooXXXXXXXXXXXXXXXXXXXXXXXXXXXXXXXXXXXXXXXXXXXX..",
"ooXXXXXXXXXXXXXXXXXXXXXXXXXXXXXXXXXXXXXXXXXXXX..",
"ooXXXXXXXXXXXXXXXXXXXXXXXXXXXXXXXXXXXXXXXXXXXX..",
"ooXXXXXXXXXXXXXXXXXXXXXXXXXXXXXXXXXXXXXXXXXXXX..",
"ooXXXXXXXXXXX@@@@XXXXXXXXXXXXXX@@@@XXXXXXXXXXX..",
"ooXXXXXXXXXXX@@@@XXXXXXXXXXXXXX@@@@XXXXXXXXXXX..",
"ooXXXXXXXXXXX@@@@XXXXXXXXXXXXXX@@@@XXXXXXXXXXX..",
"ooXXXXXXXXXXX@@@@XXXXXXXXXXXXXX@@@@XXXXXXXXXXX..",
"ooXXXXXXXXXXX@@@@XXXXXXXXXXXXXX@@@@XXXXXXXXXXX..",
"ooXXXXXXXXXXX@@@@XXXXXXXXXXXXXX@@@@XXXXXXXXXXX..",
"ooXXXXXXXXXXX@@@@XXXXXXXXXXXXXX@@@@XXXXXXXXXXX..",
"ooXXXXXXXXXXX@@@@XXXXXXXXXXXXXX@@@@XXXXXXXXXXX..",
"ooXXXXXXXXXXX@@@@XXXXXXXXXXXXXX@@@@XXXXXXXXXXX..",
"ooXXXXXXXXXXX@@@@XXXXXXXXXXXXXX@@@@XXXXXXXXXXX..",
"ooXXXXXXXXXXX@@@@XXXXXXXXXXXXXX@@@@XXXXXXXXXXX..",
"ooXXXXXXXXXXX@@@@XXXXXXXXXXXXXX@@@@XXXXXXXXXXX..",
"ooXXXXXXXXXXX@@@@XXXXXXXXXXXXXX@@@@XXXXXXXXXXX..",
"ooXXXXXXXXXXX@@@@XXXXXXXXXXXXXX@@@@XXXXXXXXXXX..",
"ooXXXXXXXXXXX@@@@XXXXXXXXXXXXXX@@@@XXXXXXXXXXX..",
"ooXXXXXXXXXXX@@@@XXXXXXXXXXXXXX@@@@XXXXXXXXXXX..",
"ooXXXXXXXXXXX@@@@XXXXXXXXXXXXXX@@@@XXXXXXXXXXX..",
"ooXXXXXXXXXXX@@@@XXXXXXXXXXXXXX@@@@XXXXXXXXXXX..",
"ooXXXXXXXXXXX@@@@XXXXXXXXXXXXXX@@@@XXXXXXXXXXX..",
"ooXXXXXXXXXXX@@@@XXXXXXXXXXXXXX@@@@XXXXXXXXXXX..",
"ooXXXXXXXXXXX@@@@XXXXXXXXXXXXXX@@@@XXXXXXXXXXX..",
"ooXXXXXXXXXXX@@@@XXXXXXXXXXXXXX@@@@XXXXXXXXXXX..",
"ooXXXXXXXXXXX@@@@XXXXXXXXXXXXXX@@@@XXXXXXXXXXX..",
"ooXXXXXXXXXXXX@@@@XXXXXXXXXXXX@@@@XXXXXXXXXXXX..",
"ooXXXXXXXXXXXX@@@@XXXXXXXXXXXX@@@@XXXXXXXXXXXX..",
"ooXXXXXXXXXXXX@@@@@XXXXXXXXXX@@@@@XXXXXXXXXXXX..",
"ooXXXXXXXXXXXXX@@@@@XXXXXXXX@@@@@XXXXXXXXXXXXX..",
"ooXXXXXXXXXXXXXX@@@@@@@@@@@@@@@@XXXXXXXXXXXXXX..",
"ooXXXXXXXXXXXXXXX@@@@@@@@@@@@@@XXXXXXXXXXXXXXX..",
"ooXXXXXXXXXXXXXXXXX@@@@@@@@@@XXXXXXXXXXXXXXXXX..",
"ooXXXXXXXXXXXXXXXXXXXXXXXXXXXXXXXXXXXXXXXXXXXX..",
"ooXXXXXXXXXXXXXXXXXXXXXXXXXXXXXXXXXXXXXXXXXXXX..",
"ooXXXXXXXXXXXXXXXXXXXXXXXXXXXXXXXXXXXXXXXXXXXX..",
"ooXXXXXXXXXX@@@@@@@@@@@@@@@@@@@@@@@@XXXXXXXXXX..",
"ooXXXXXXXXXX@@@@@@@@@@@@@@@@@@@@@@@@XXXXXXXXXX..",
"ooXXXXXXXXXXXXXXXXXXXXXXXXXXXXXXXXXXXXXXXXXXXX..",
"ooXXXXXXXXXXXXXXXXXXXXXXXXXXXXXXXXXXXXXXXXXXXX..",
"ooXXXXXXXXXXXXXXXXXXXXXXXXXXXXXXXXXXXXXXXXXXXX..",
"ooXXXXXXXXXXXXXXXXXXXXXXXXXXXXXXXXXXXXXXXXXXXX..",
"o...............................................",
"................................................"
};
