/* XPM */
/* This file is a part of the NsCDE - Not so Common Desktop Environment */
static char *_8x48_media_record[] = {
/* columns rows colors chars-per-pixel */
"48 48 4 1 ",
"@ c red",
". s bottomShadowColor m black c NSCDE_BS_COLOR_5",
"X s None m None s None",
"o s topShadowColor m white c NSCDE_TS_COLOR_5",
/* pixels */
"oooooooooooooooooooooooooooooooooooooooooooooooo",
"ooooooooooooooooooooooooooooooooooooooooooooooo.",
"oooooooooooooooooooooooooooooooooooooooooooooo..",
"oooXXXXXXXXXXXXXXXXXXXXXXXXXXXXXXXXXXXXXXXXXX...",
"oooXXXXXXXXXXXXXXXXXXXXXXXXXXXXXXXXXXXXXXXXXX...",
"oooXXXXXXXXXXXXXXXXXXXXXXXXXXXXXXXXXXXXXXXXXX...",
"oooXXXXXXXXXXXXXXXXXXXXXXXXXXXXXXXXXXXXXXXXXX...",
"oooXXXXXXXXXXXXXXXXXXXXXXXXXXXXXXXXXXXXXXXXXX...",
"oooXXXXXXXXXXXXXXXXXXXXXXXXXXXXXXXXXXXXXXXXXX...",
"oooXXXXXXXXXXXXXXXXXXXXXXXXXXXXXXXXXXXXXXXXXX...",
"oooXXXXXXXXXXXXXXXXooooooooooXXXXXXXXXXXXXXXX...",
"oooXXXXXXXXXXXXXXXXooooooooooXXXXXXXXXXXXXXXX...",
"oooXXXXXXXXXXXXXXoooooooooooooooXXXXXXXXXXXXX...",
"oooXXXXXXXXXXXXooooo@@@@@@@@oooooXXXXXXXXXXXX...",
"oooXXXXXXXXXXXoooo@@@@@@@@@@@@ooooXXXXXXXXXXX...",
"oooXXXXXXXXXXoooo@@@@@@@@@@@@@@@oooXXXXXXXXXX...",
"oooXXXXXXXXXXoooo@@@@@@@@@@@@@@@oooXXXXXXXXXX...",
"oooXXXXXXXXXooo@@@@@@@@@@@@@@@@@@ooooXXXXXXXX...",
"oooXXXXXXXXXoo@@@@@@@@@@@@@@@@@@@@oooXXXXXXXX...",
"oooXXXXXXXoooo@@@@@@@@@@@@@@@@@@@@ooooXXXXXXX...",
"oooXXXXXXXooo@@@@@@@@@@@@@@@@@@@@@@oooXXXXXXX...",
"oooXXXXXXXooo@@@@@@@@@@@@@@@@@@@@@@oooXXXXXXX...",
"oooXXXXXXXooo@@@@@@@@@@@@@@@@@@@@@@oooXXXXXXX...",
"oooXXXXXXXooo@@@@@@@@@@@@@@@@@@@@@@oooXXXXXXX...",
"oooXXXXXXXooo@@@@@@@@@@@@@@@@@@@@@@oooXXXXXXX...",
"oooXXXXXXXooo@@@@@@@@@@@@@@@@@@@@@@oooXXXXXXX...",
"oooXXXXXXXooo@@@@@@@@@@@@@@@@@@@@@@oooXXXXXXX...",
"oooXXXXXXXooo@@@@@@@@@@@@@@@@@@@@@@oooXXXXXXX...",
"oooXXXXXXXoooo@@@@@@@@@@@@@@@@@@@@ooooXXXXXXX...",
"oooXXXXXXXXXoo@@@@@@@@@@@@@@@@@@@@oooXXXXXXXX...",
"oooXXXXXXXXXooo@@@@@@@@@@@@@@@@@@ooooXXXXXXXX...",
"oooXXXXXXXXXooo@@@@@@@@@@@@@@@@@@ooooXXXXXXXX...",
"oooXXXXXXXXXXoooo@@@@@@@@@@@@@@@oooXXXXXXXXXX...",
"oooXXXXXXXXXXXoooo@@@@@@@@@@@@ooooXXXXXXXXXXX...",
"oooXXXXXXXXXXXXooooo@@@@@@@@oooooXXXXXXXXXXXX...",
"oooXXXXXXXXXXXXXXoooooooooooooooXXXXXXXXXXXXX...",
"oooXXXXXXXXXXXXXXoooooooooooooooXXXXXXXXXXXXX...",
"oooXXXXXXXXXXXXXXXXooooooooooXXXXXXXXXXXXXXXX...",
"oooXXXXXXXXXXXXXXXXXXXXXXXXXXXXXXXXXXXXXXXXXX...",
"oooXXXXXXXXXXXXXXXXXXXXXXXXXXXXXXXXXXXXXXXXXX...",
"oooXXXXXXXXXXXXXXXXXXXXXXXXXXXXXXXXXXXXXXXXXX...",
"oooXXXXXXXXXXXXXXXXXXXXXXXXXXXXXXXXXXXXXXXXXX...",
"oooXXXXXXXXXXXXXXXXXXXXXXXXXXXXXXXXXXXXXXXXXX...",
"oooXXXXXXXXXXXXXXXXXXXXXXXXXXXXXXXXXXXXXXXXXX...",
"oooXXXXXXXXXXXXXXXXXXXXXXXXXXXXXXXXXXXXXXXXXX...",
"ooo.............................................",
"oo..............................................",
"o..............................................."
};
