/* XPM */
/* This file is a part of the NsCDE - Not so Common Desktop Environment */
static char *window_close_48x48[] = {
/* columns rows colors chars-per-pixel */
"48 48 3 1 ",
".      s None m None c None",
"@      s bottomShadowColor m black c NSCDE_BS_COLOR_5",
"X      s topShadowColor m black c NSCDE_TS_COLOR_5",
/* pixels */
"XXXXXXXXXXXXXXXXXXXXXXXXXXXXXXXXXXXXXXXXXXXXXX@@",
"XXXXXXXXXXXXXXXXXXXXXXXXXXXXXXXXXXXXXXXXXXXXXX@@",
"XX............................................@@",
"XX............................................@@",
"XX............................................@@",
"XX............................................@@",
"XX............................................@@",
"XX.......@@..........................XX@......@@",
"XX......XX@@........................XXX@......@@",
"XX.....XXXX@@......................XXXX@......@@",
"XX......XXXX@@....................XXXX@@......@@",
"XX.......XXXX@@..................XXXX@@.......@@",
"XX........XXXX@@................XXXX@@........@@",
"XX.........XXXX@@..............XXXX@@.........@@",
"XX..........XXXX@@............XXXX@@..........@@",
"XX...........XXXX@@..........XXXX@@...........@@",
"XX............XXXX@@........XXXX@@............@@",
"XX.............XXXX@@......XXXX@@.............@@",
"XX..............XXXX@@....XXXX@@..............@@",
"XX...............XXXX@@..XXXX@@...............@@",
"XX................XXXX@@XXXX@@................@@",
"XX.................XXXXXXXX@@.................@@",
"XX..................XXXXXX@@..................@@",
"XX...................XXXX@@...................@@",
"XX..................XXXXXX@@..................@@",
"XX.................XXXXXXXX@@.................@@",
"XX................XXXX@@XXXX@@................@@",
"XX...............XXXX@@..XXXX@@...............@@",
"XX..............XXXX@@....XXXX@@..............@@",
"XX.............XXXX@@......XXXX@@.............@@",
"XX............XXXX@@........XXXX@@............@@",
"XX...........XXXX@@..........XXXX@@...........@@",
"XX..........XXXX@@............XXXX@@..........@@",
"XX.........XXXX@@..............XXXX@@.........@@",
"XX........XXXX@@................XXXX@@........@@",
"XX.......XXXX@@..................XXXX@@.......@@",
"XX......XXXX@@....................XXXX@@......@@",
"XX.....XXXX@@......................XXXX@......@@",
"XX......XX@@........................XXX@......@@",
"XX.......@@..........................XX@......@@",
"XX............................................@@",
"XX............................................@@",
"XX............................................@@",
"XX............................................@@",
"XX............................................@@",
"XX............................................@@",
"XX@@@@@@@@@@@@@@@@@@@@@@@@@@@@@@@@@@@@@@@@@@@@@@",
"XX@@@@@@@@@@@@@@@@@@@@@@@@@@@@@@@@@@@@@@@@@@@@@@"
};
