/* XPM */
/* $XConsortium: detached.xpm /main/2 1996/07/24 16:08:03 drk $ */
static char *noname[] = {
/* width height ncolors chars_per_pixel */
"84 109 2 1",
/* colors */
"a c black              s c0 ",
"` c white              s c1 ",
/* pixels */
"aaaaaaaaaaaaaaaaaaaaaaaaaaaaaaaaaaaaaaaaaaaaaaaaaaaaaaaaaaaaaaaaaaaaaaaaaaaaaaaaaaaa",
"aaaaaaaaaaaaaaaaaaaaaaaaaaaaaaaaaaaaaaaaaaaaaaaaaaaaaaaaaaaaaaaaaaaaaaaaaaaaaaaaaaaa",
"aaaaaaaaaaaaaaaaaaaaaaaaaaaaaaaaaaaaaaaaaaaaaaaaaaaaaaaaaaaaaaaaaaaaaaaaaaaaaaaaaaaa",
"aaaaaaaaaaa```````aaaaaaaaaaaaaaaaaaaaaaaaaaaaaa```aaaaaaaaaaaaaaaa```aaaaaaaaaaaaaa",
"aaaaaaaaaaaa``aa```aaaaaaaaaa``aaaaaaaaaaaaaaaaaa``aaaaaaaaaaaaaaaaa``aaaaaaaaaaaaaa",
"aaaaaaaaaaaa``aaa```aaaaaaaaa``aaaaaaaaaaaaaaaaaa``aaaaaaaaaaaaaaaaa``aaaaaaaaaaaaaa",
"aaaaaaaaaaaa``aaaa``aa````aa`````aa````aaa`````aa`````aaaa````aaa`````aaaaaaaaaaaaaa",
"aaaaaaaaaaaa``aaaa``a``aa``aa``aaa``aa``a```a``aa``````aa``aa``a``aa``aaaaaaaaaaaaaa",
"aaaaaaaaaaaa``aaaa``a``````aa``aaaa`````a``aaaaaa``aa``aa``````a``aa``aaaaaaaaaaaaaa",
"aaaaaaaaaaaa``aaa```a``aaaaaa``aaa``aa``a``aaaaaa``aa``aa``aaaaa``aa``aaaaaaaaaaaaaa",
"aaaaaaaaaaaa``aa```aa```a``aa``a````````a```a``aa``aa``aa```a``a``a```aaaaaaaaaaaaaa",
"aaaaaaaaaaa```````aaaa````aaaa```aa``a```a````aa```a````aa````aaa``a```aaaaaaaaaaaaa",
"aaaaaaaaaaaaaaaaaaaaaaaaaaaaaaaaaaaaaaaaaaaaaaaaaaaaaaaaaaaaaaaaaaaaaaaaaaaaaaaaaaaa",
"aaaaaaaaaaaaaaaaaaaaaaaaaaaaaaaaaaaaaaaaaaaaaaaaaaaaaaaaaaaaaaaaaaaaaaaaaaaaaaaaaaaa",
"aaaaaaaaaaaaaaaaaaaaaaaaaaaaaaaaaaaaaaaaaaaaaaaaaaaaaaaaaaaaaaaaaaaaaaaaaaaaaaaaaaaa",
"aaaaaaaaaaaaaaaaaaaaaaaaaaaaaaaaaaaaaaaaaaaaaaaaaaaaaaaaaaaaaaaaaaaaaaaaaaaaaaaaaaaa",
"aaaaaaaaaaaaaaaaaaaaaaaaaaaaaaaaaaaaaaaaaaaaaaaaaaaaaaaaaaaaaaaaaaaaaaaaaaaaaaaaaaaa",
"aaaaaa`a`a`a`a`a`a`a`a`a`a`a`a`a`a`a`a`a`a`a`a`a`a`a`a`a`a`a`a`a`a`a`a`a`a`a`a`aaaaa",
"aaaaa`a`a`a`a`a`a`a`a`a`a`a`a`a`a`a`a`a`a`a`a`a`a`a`a`a`a`a`a`a`a`a`a`a`a`a`a`aaaaaa",
"aaaaaa`a`a`a`a`a`a`a`a`a`a`a`a`a`a`a`a`a`a`a`a`a`a`a`a`a`a`a`a`a`a`a`a`a`a`a`a`aaaaa",
"aaaaa`a`a`a`a`a`a`a`a`a`a`a`a`a`a`a`a`a`a`a`a`a`a`a`a`a`a`a`a`a`a`a`a`a`a`a`a`aaaaaa",
"aaaaaa`a`a`a`a`a`a`a`a`a`a`a`a`a`a`a`a`a`a`a`a`a`a`a`a`a`a`a`a`a`a`a`a`a`a`a`a`aaaaa",
"aaaaa`a`a`a`a`a`a`a`a`a`a`a`a`a`a`a`a`a`a`a`a`a`a`a`a`a`a`a`a`a`a`a`a`a`a`a`a`aaaaaa",
"aaaaaa`a`a`a`a`a`a`a`a`a`a`a`a`a`a`a`a`a`a`a`a`a`a`a`a`a`a`a`a`a`a`a`a`a`a`a`a`aaaaa",
"aaaaa`a`a`a`````aaaaaaaaaaaaaaaaaaaaaaaaaaaaaaaaaaaaaaaaaaaaaaa`a`a`a`a`a`a`a`aaaaaa",
"aaaaaa`a`a`a`````````aaaaaaaaaaaaaaaaaaaaaaaaaaaaaaaaaaaaaaaaaaa`a`a`a`a`a`a`a`aaaaa",
"aaaaa`a`a`a``````````aaaaaaaaaaaaaaaaaaaaaaaaaaaaaaaaaaaaaaaaaa`a`a`a`a`a`a`a`aaaaaa",
"aaaaaa`a`a`aa```````aaaaaaaaaaaaaaaaaaaaaaaaaaaaaaaaaaaaaaaaaaaa`a`a`a`a`a`a`a`aaaaa",
"aaaaa`a`a`a`a``````aaaaaaaaaaaaaaaaaaaaaaaaaaaaaaaaaaaaaaaaaaaa`a`a`a`a`a`a`a`aaaaaa",
"aaaaaa`a`a`aa```````aaaaaaaaaaaaaaaaaaaaaaaaaaaaaaaaaaaaaaaaaaaa`a`a`a`a`a`a`a`aaaaa",
"aaaaa`a`a`a`aa```````aaaaaaaaaaaaaaaaaaaaaaaaaaaaaaaaaaaaaaaaaa`a`a`a`a`a`a`a`aaaaaa",
"aaaaaa`a`a`aaa``aaa```aaaaaaaaaaaaaaaaaaaaaaaaaaaaaaaaaaaaaaaaaa`a`a`a`a`a`a`a`aaaaa",
"aaaaa`a`a`a`aa`aaaaa```aaaaaaaaaaaaaaaaaaaaaaaaaaaaaaaaaaaaaaaa`a`a`a`a`a`a`a`aaaaaa",
"aaaaaa`a`a`aaaaaaaaaa````````````````````````````````````````````````````a`a`a`aaaaa",
"aaaaa`a`a`a`aaaaaaaaaa````````````````````````````````````````````````````a`a`aaaaaa",
"aaaaaa`a`a`aaaaaaaaaaa```````````````````````````````````````````````````a`a`a`aaaaa",
"aaaaa`a`a`a`aaaaaaaaaa````````````````````````````````````````````````````a`a`aaaaaa",
"aaaaaa`a`a`aaaaaaaaaaa```````````````````````````````````````````````````a`a`a`aaaaa",
"aaaaa`a`a`a`aaaaaaaaaa````````````````````````````````````````````````````a`a`aaaaaa",
"aaaaaa`a`a`aaaaaaaaaaa```````````````````````````````````````````````````a`a`a`aaaaa",
"aaaaa`a`a`a`aaaaaaaaaa````````````````````````````````````````````````````a`a`aaaaaa",
"aaaaaa`a`a`aaaaaaaaaaa`````````````````aaaaaaaaaaaaaaaaaaaaaaaaaa````````a`a`a`aaaaa",
"aaaaa`a`a`a`aaaaaaaaaa````````````````aa```````````````````````aa`````````a`a`aaaaaa",
"aaaaaa`a`a`aaaaaaaaaaa```````````````a`a``````````````````````a`a````````a`a`a`aaaaa",
"aaaaa`a`a`a`aaaaaaaaaa``````````````a``a`````````````````````a``a`````````a`a`aaaaaa",
"aaaaaa`a`a`aaaaaaaaaaa`````````````a```a````````````````````a```a````````a`a`a`aaaaa",
"aaaaa`a`a`a`aaaaaaaaaa````````````a````a```````````````````a````a`````````a`a`aaaaaa",
"aaaaaa`a`a`aaaaaaaaaaa```````````a`````a``````````````````a`````a````````a`a`a`aaaaa",
"aaaaa`a`a`a`aaaaaaaaaa``````````a``````a`````````````````a``````a`````````a`a`aaaaaa",
"aaaaaa`a`a`aaaaaaaaaaa`````````a```````a````````````````a```````a````````a`a`a`aaaaa",
"aaaaa`a`a`a`aaaaaaaaaa````````a````````a```````````````a````````a`````````a`a`aaaaaa",
"aaaaaa`a`a`aaaaaaaaaaa```````aaaaaaaaaaaaaaaaaaaaaaaaaa`````````a````````a`a`a`aaaaa",
"aaaaa`a`a`a`aaaaaaaaaa```````a`````````a``````````````a`````````a`````````a`a`aaaaaa",
"aaaaaa`a`a`aaaaaaaaaaa```````a`````````a``````````````a`````````a````````a`a`a`aaaaa",
"aaaaa`a`a`a`aaaaaaaaaa```````a`````````a``````````````a`````````a`````````a`a`aaaaaa",
"aaaaaa`a`a`aaaaaaaaaaa```````a`````````a``````````````a`````````a````````a`a`a`aaaaa",
"aaaaa`a`a`a`aaaaaaaaaa```````a`````````a``````````````a`````````a`````````a`a`aaaaaa",
"aaaaaa`a`a`aaaaaaaaaaa```````a`````````a``````````````a`````````a````````a`a`a`aaaaa",
"aaaaa`a`a`a`aaaaaaaaaa```````a`````````a``````````````a`````````a`````````a`a`aaaaaa",
"aaaaaa`a`a`aaaaaaaaaaa```````a`````````a``````````````a`````````a````````a`a`a`aaaaa",
"aaaaa`a`a`a`aaaaaaaaaa```````a`````````a``````````````a`````````a`````````a`a`aaaaaa",
"aaaaaa`a`a`aaaaaaaaaaa```````a`````````a``````````````a`````````a````````a`a`a`aaaaa",
"aaaaa`a`a`a`aaaaaaaaaa```````a`````````a``````````````a`````````a`````````a`a`aaaaaa",
"aaaaaa`a`a`aaaaaaaaaaa```````a`````````a``````````````a`````````a````````a`a`a`aaaaa",
"aaaaa`a`a`a`aaaaaaaaaa```````a`````````a``````````````a`````````a`````````a`a`aaaaaa",
"aaaaaa`a`a`aaaaaaaaaaa```````a`````````a``````````````a`````````a````````a`a`a`aaaaa",
"aaaaa`a`a`a`aaaaaaaaaa```````a`````````aaaaaaaaaaaaaaaaaaaaaaaaaa`````````a`a`aaaaaa",
"aaaaaa`a`a`aaaaaaaaaaa```````a`````````a``````````````a````````a`````````a`a`a`aaaaa",
"aaaaa`a`a`a`aaaaaaaaaa```````a````````a```````````````a```````a```````````a`a`aaaaaa",
"aaaaaa`a`a`aaaaaaaaaaa```````a```````a````````````````a``````a```````````a`a`a`aaaaa",
"aaaaa`a`a`a`aaaaaaaaaa```````a``````a`````````````````a`````a`````````````a`a`aaaaaa",
"aaaaaa`a`a`aaaaaaaaaaa```````a`````a``````````````````a````a`````````````a`a`a`aaaaa",
"aaaaa`a`a`a`aaaaaaaaaa```````a````a```````````````````a```a```````````````a`a`aaaaaa",
"aaaaaa`a`a`aaaaaaaaaaa```````a```a````````````````````a``a```````````````a`a`a`aaaaa",
"aaaaa`a`a`a`aaaaaaaaaa```````a``a`````````````````````a`a`````````````````a`a`aaaaaa",
"aaaaaa`a`a`a`a`a`a`a`a```````a`a``````````````````````aa`````````````````a`a`a`aaaaa",
"aaaaa`a`a`a`a`a`a`a`a````````aaaaaaaaaaaaaaaaaaaaaaaaaa```````````````````a`a`aaaaaa",
"aaaaaa`a`a`a`a`a`a`a`a```````````````````````````````````````````````````a`a`a`aaaaa",
"aaaaa`a`a`a`a`a`a`a`a`````````````````````````````````````````````````````a`a`aaaaaa",
"aaaaaa`a`a`a`a`a`a`a`a```````````````````````````````````````````````````a`a`a`aaaaa",
"aaaaa`a`a`a`a`a`a`a`a`````````````````````````````````````````````````````a`a`aaaaaa",
"aaaaaa`a`a`a`a`a`a`a`a```````````````````````````````````````````````````a`a`a`aaaaa",
"aaaaa`a`a`a`a`a`a`a`a`````````````````````````````````````````````````````a`a`aaaaaa",
"aaaaaa`a`a`a`a`a`a`a`a```````````````````````````````````````````````````a`a`a`aaaaa",
"aaaaa`a`a`a`a`a`a`a`a`a`a`a`a`a`a`a`a`a`a`a`a`a`a`a`a`a`a`a`a`a`a`a`a`a`a`a`a`aaaaaa",
"aaaaaa`a`a`a`a`a`a`a`a`a`a`a`a`a`a`a`a`a`a`a`a`a`a`a`a`a`a`a`a`a`a`a`a`a`a`a`a`aaaaa",
"aaaaa`a`a`a`a`a`a`a`a`a`a`a`a`a`a`a`a`a`a`a`a`a`a`a`a`a`a`a`a`a`a`a`a`a`a`a`a`aaaaaa",
"aaaaaa`a`a`a`a`a`a`a`a`a`a`a`a`a`a`a`a`a`a`a`a`a`a`a`a`a`a`a`a`a`a`a`a`a`a`a`a`aaaaa",
"aaaaa`a`a`a`a`a`a`a`a`a`a`a`a`a`a`a`a`a`a`a`a`a`a`a`a`a`a`a`a`a`a`a`a`a`a`a`a`aaaaaa",
"aaaaaa`a`a`a`a`a`a`a`a`a`a`a`a`a`a`a`a`a`a`a`a`a`a`a`a`a`a`a`a`a`a`a`a`a`a`a`a`aaaaa",
"aaaaa`a`a`a`a`a`a`a`a`a`a`a`a`a`a`a`a`a`a`a`a`a`a`a`a`a`a`a`a`a`a`a`a`a`a`a`a`aaaaaa",
"aaaaaaaaaaaaaaaaaaaaaaaaaaaaaaaaaaaaaaaaaaaaaaaaaaaaaaaaaaaaaaaaaaaaaaaaaaaaaaaaaaaa",
"aaaaaaaaaaaaaaaaaaaaaaaaaaaaaaaaaaaaaaaaaaaaaaaaaaaaaaaaaaaaaaaaaaaaaaaaaaaaaaaaaaaa",
"aaaaaaaaaaaaaaaaaaaaaaaaaaaaaaaaaaaaaaaaaaaaaaaaaaaaaaaaaaaaaaaaaaaaaaaaaaaaaaaaaaaa",
"aaaaaaaaaaaaaaaaaa`````a`aaaaaaaaaaaaaaaaaaaaaa```aaaaaa``aaaaaaaaaaaaaaaaaaaaaaaaaa",
"aaaaaaaaaaaaaaaaa``aaaa``aaaaaaaaaaaaaaaaaaaaaaa``aaaaaa``aaaaaaaaaaaaaaaaaaaaaaaaaa",
"aaaaaaaaaaaaaaaa```aaaaa`aaaaaaaaaaaaaaaaaaaaaaa``aaaaaaaaaaaaaaaaaaaaaaaaaaaaaaaaaa",
"aaaaaaaaaaaaaaaa``aaaaaaaa```a``a````aa```a``aaa`````aa```aaa`````aaaaaaaaaaaaaaaaaa",
"aaaaaaaaaaaaaaaa``aaaaaaaaa```````aa``aa```a``aa``````aa``aa```a``aaaaaaaaaaaaaaaaaa",
"aaaaaaaaaaaaaaaa``aaaa````a``aaaa`````aa``aa``aa``aa``aa``aa``aaaaaaaaaaaaaaaaaaaaaa",
"aaaaaaaaaaaaaaaa```aaaa``aa``aaa``aa``aa``aa``aa``aa``aa``aa``aaaaaaaaaaaaaaaaaaaaaa",
"aaaaaaaaaaaaaaaaa```aa```aa``aaa``````aa``aa``aa``aa``aa``aa```a``aaaaaaaaaaaaaaaaaa",
"aaaaaaaaaaaaaaaaaa`````a`a````aaa``a```a`````aa```a````````aa````aaaaaaaaaaaaaaaaaaa",
"aaaaaaaaaaaaaaaaaaaaaaaaaaaaaaaaaaaaaaaa``aaaaaaaaaaaaaaaaaaaaaaaaaaaaaaaaaaaaaaaaaa",
"aaaaaaaaaaaaaaaaaaaaaaaaaaaaaaaaaaaaaaaa``aaaaaaaaaaaaaaaaaaaaaaaaaaaaaaaaaaaaaaaaaa",
"aaaaaaaaaaaaaaaaaaaaaaaaaaaaaaaaaaaaaaa````aaaaaaaaaaaaaaaaaaaaaaaaaaaaaaaaaaaaaaaaa",
"aaaaaaaaaaaaaaaaaaaaaaaaaaaaaaaaaaaaaaaaaaaaaaaaaaaaaaaaaaaaaaaaaaaaaaaaaaaaaaaaaaaa",
"aaaaaaaaaaaaaaaaaaaaaaaaaaaaaaaaaaaaaaaaaaaaaaaaaaaaaaaaaaaaaaaaaaaaaaaaaaaaaaaaaaaa",
"aaaaaaaaaaaaaaaaaaaaaaaaaaaaaaaaaaaaaaaaaaaaaaaaaaaaaaaaaaaaaaaaaaaaaaaaaaaaaaaaaaaa"
};
