/* XPM */
static char * DtFpSubMenu_l_xpm[] = {
/* width height ncolors cpp [x_hot y_hot] */
"48 48 9 1 0 0",
/* colors */
" 	s none	m none	c none",
".	s iconColor2	m white	c white",
"X	s iconColor5	m black	c blue",
"o	s iconGray8	m black	c #212121212121",
"O	s iconGray5	m black	c #737373737373",
"+	s iconGray2	m white	c #bdbdbdbdbdbd",
"@	s iconGray6	m black	c #636363636363",
"#	s iconGray1	m white	c #dededededede",
"$	s iconGray4	m white	c #949494949494",
/* pixels */
"                                                ",
"                          ................      ",
"                          ................      ",
"                         ...XXXXXXXXXXXXooo     ",
"     .....................XXXXXXXXXXXXXXXXooo   ",
"     .....................XXXXXXXXXXXXXXXXooo   ",
"     ..OOOOOOOOOOOOOOOOOOOOOOOOOOOOOOOOOOOOOOo  ",
"  ........................................oOOo  ",
"  .++++++++++++++++++++++++++++++++++++++OOoOo  ",
"  .++++++++++++++++++++++++++++++++++++++OOoOo  ",
"  .++++++++++++++++++++++++++++++++++++++OOoOo  ",
"  .++++++++++++++++++++++++++++++++++++++OOoOo  ",
"  .++++................................o+OOoOo  ",
"  .++++.+++++++o.++++++++++++++++++++++o+OOoOo  ",
"  .++++.++.++++o.+@@@@@@@@@@@@@@@@@@@#+o+OOoOo  ",
"  .++++.++..+++o.+@$$$$$$$$$$$$$$$$$$#+o+OOoOo  ",
"  .++++.++...++o.+@$#$$$$+$#$$+$#$$$$#+o+OOoOo  ",
"  .++++.++....+o.+@$..#$.#$#.##$.#$$$#+o+OOoOo  ",
"  .++++.++...o+o.+@$$$$$$$$$$$$$$$$$$#+o+OOoOo  ",
"  .++++.++..o++o.+####################+o+OOoOo  ",
"  .++++.++.o+++o.++++++++++++++++++++++o+OOoOo  ",
"  .++++.++o++++o.++++++++++++++++++++++o+OOoOo  ",
"  .++++.+++++++o.+++$+++++$++++++++++++o+OOoOo  ",
"  .++++.oooooooo.+++ooOo+$oOo+oo+++++++o+OOoOo  ",
"  .+++++++++++++.++++++++++++++++++++++o+OOoOo  ",
"  .+++++++++++++.++++++++++++++++++++++o+OOoOo  ",
"  .+++++++++++++.+++$++++++++$+++++++++o+OOoOo  ",
"  .+++++++++++++.+++oo+ooo+oOoo++++++++o+OOoOo  ",
"  .+++++++++++++.++++++++++++++++++++++o+OOoOo  ",
"  .+++++++++++++.++++++++++++++++++++++o+OOoOo  ",
"  .+++++++++++++.+++$+++$+++++++$++++++o+OOoOo  ",
"  .+++++++++++++.+++oOo+oo+ooo+oo++++++o+OOoOo  ",
"  .+++++++++++++.++++++++++++++++++++++o+OOoOo  ",
"  .+++++++++++++.++++++++++++++++++++++o+OOoOo  ",
"  .OOOOOOOOOOOOO.++++++$+$+++$+++++++++oOOOooo  ",
"   ooooooooooooo.+++oo+oOooo+oOoo++++++oooooo   ",
"                .++++++++++++++++++++++o        ",
"                .++++++++++++++++++++++o        ",
"                .+++$++++++++$+++++++++o        ",
"                .+++oOOo+ooo+ooo+++++++o        ",
"                .++++++++++++++++++++++o        ",
"                .++++++++++++++++++++++o        ",
"                .++++++++++++++++++++++o        ",
"                .++++++++++++++++++++++o        ",
"                .++++++++++++++++++++++o        ",
"                .ooooooooooooooooooooooo        ",
"                                                ",
"                                                "};
