/* XPM */
/*********************************************************************
*  (c) Copyright 1997 Sun Microsystems, Inc.
*  All Rights Reserved
**********************************************************************/
static char * DtFpSubMenu_t_xpm[] = {
/* width height ncolors cpp [x_hot y_hot] */
"16 16 9 1 0 0",
/* colors */
" 	s none	m none	c none",
".	s iconColor2	m white	c white",
"X	s iconColor5	m black	c blue",
"o	s iconGray1	m white	c #dededededede",
"O	s iconGray4	m white	c #949494949494",
"+	s iconGray7	m black	c #424242424242",
"@	s iconGray2	m white	c #bdbdbdbdbdbd",
"#	s iconGray5	m black	c #737373737373",
"$	s iconGray8	m black	c #212121212121",
/* pixels */
"         ...... ",
"        .XXXXXXo",
" ooooooooXOXOXO+",
".............+O+",
".@@@@@@@@@@@@+O+",
".@OOOOOOOOOOO+O+",
".@O.OOO.........",
".@O..OO.######@$",
".@O...O.#....#@$",
".@O..+O.######@$",
".@O.+OO.ooooooo$",
".@O+OOO.o+o+#oo$",
" ++++++.ooooooo$",
"       .o+#o+oo$",
"       .ooooooo$",
"       .$$$$$$$$"};
