/* XPM */
/* This file is a part of the NsCDE - Not so Common Desktop Environment */
static char * IconBgI_xpm[] = {
"68 68 6 1",
"%      s topShadowColor  m white c #d2aad2b6d31a",
".      s bottomShadowColor  m black c #4f864f94500a",
"$      s topShadowColor  m white c #e720dee6da78",
"+      s bottomShadowColor  m black c #6b6160fb5b61",
"#      s background m black c #c600b2d2a87e",
"@      s background m black c #9900991b99fe",
"%%%%%%%%%%%%%%%%%%%%%%%%%%%%%%%%%%%%%%%%%%%%%%%%%%%%%%%%%%%%%%%%%%%%",
"%%%%%%%%%%%%%%%%%%%%%%%%%%%%%%%%%%%%%%%%%%%%%%%%%%%%%%%%%%%%%%%%%%%.",
"%%@@@@@@@@@@@@@@@@@@@@@@@@@@@@@@@@@@@@@@@@@@@@@@@@@@@@@@@@@@@@@@@@..",
"%%@@@@@@@@@@@@@@@@@@@@@@@@@@@@@@@@@@@@@@@@@@@@@@@@@@@@@@@@@@@@@@@@..",
"%%@@............................................................@@..",
"%%@@.$$$$$$$$$$$$$$$$$$$$$$$$$$$$$$$$$$$$$$$$$$$$$$$$$$$$$$$$$$%@@..",
"%%@@.$########################################################+%@@..",
"%%@@.$########################################################+%@@..",
"%%@@.$########################################################+%@@..",
"%%@@.$########################################################+%@@..",
"%%@@.$########################################################+%@@..",
"%%@@.$########################################################+%@@..",
"%%@@.$########################################################+%@@..",
"%%@@.$########################################################+%@@..",
"%%@@.$########################################################+%@@..",
"%%@@.$########################################################+%@@..",
"%%@@.$########################################################+%@@..",
"%%@@.$########################################################+%@@..",
"%%@@.$########################################################+%@@..",
"%%@@.$########################################################+%@@..",
"%%@@.$########################################################+%@@..",
"%%@@.$########################################################+%@@..",
"%%@@.$########################################################+%@@..",
"%%@@.$########################################################+%@@..",
"%%@@.$########################################################+%@@..",
"%%@@.$########################################################+%@@..",
"%%@@.$########################################################+%@@..",
"%%@@.$########################################################+%@@..",
"%%@@.$########################################################+%@@..",
"%%@@.$########################################################+%@@..",
"%%@@.$########################################################+%@@..",
"%%@@.$########################################################+%@@..",
"%%@@.$########################################################+%@@..",
"%%@@.$########################################################+%@@..",
"%%@@.$########################################################+%@@..",
"%%@@.$########################################################+%@@..",
"%%@@.$########################################################+%@@..",
"%%@@.$########################################################+%@@..",
"%%@@.$########################################################+%@@..",
"%%@@.$########################################################+%@@..",
"%%@@.$########################################################+%@@..",
"%%@@.$########################################################+%@@..",
"%%@@.$########################################################+%@@..",
"%%@@.$########################################################+%@@..",
"%%@@.$########################################################+%@@..",
"%%@@.$########################################################+%@@..",
"%%@@.$########################################################+%@@..",
"%%@@.$########################################################+%@@..",
"%%@@.$########################################################+%@@..",
"%%@@.$########################################################+%@@..",
"%%@@.$########################################################+%@@..",
"%%@@.$########################################################+%@@..",
"%%@@.$########################################################+%@@..",
"%%@@.$########################################################+%@@..",
"%%@@.$########################################################+%@@..",
"%%@@.$########################################################+%@@..",
"%%@@.$########################################################+%@@..",
"%%@@.$########################################################+%@@..",
"%%@@.$########################################################+%@@..",
"%%@@.$########################################################+%@@..",
"%%@@.$########################################################+%@@..",
"%%@@.$########################################################+%@@..",
"%%@@.$########################################################+%@@..",
"%%@@.$+++++++++++++++++++++++++++++++++++++++++++++++++++++++++%@@..",
"%%@@.%%%%%%%%%%%%%%%%%%%%%%%%%%%%%%%%%%%%%%%%%%%%%%%%%%%%%%%%%%%@@..",
"%%@@@@@@@@@@@@@@@@@@@@@@@@@@@@@@@@@@@@@@@@@@@@@@@@@@@@@@@@@@@@@@@@..",
"%%@@@@@@@@@@@@@@@@@@@@@@@@@@@@@@@@@@@@@@@@@@@@@@@@@@@@@@@@@@@@@@@@..",
"%..................................................................."};
