/* XPM */
/* This file is a part of the NsCDE - Not so Common Desktop Environment */
static char *NewMail_s[] = {
/* width height num_colors chars_per_pixel */
"    48    48       15            1",
/* colors */
". c None",
"# c #949494",
"a c #ffffff",
"b c #dedede",
"c c #636363",
"d c #3cf834",
"e c #adadad",
"f c #f81440",
"g c #bdbdbd",
"h c #636363",
"i c #737373",
"j c #000000",
"k c #bdbdbd",
"l c #424242",
"m c #212121",
/* pixels */
"...........................#abbc................",
"..........................cabdbbc...............",
".........................#abe#ebbc..............",
"........................cabd#d#dbbc.............",
".......................#abfbe#ebbbbc............",
"......................cabfbb#dbbbbbbc...........",
".....................#abfbbfbbbbbbbbbc..........",
"....................cabbbbfbbbbbbbbbbbc.........",
"...................#abbbbfbbbbbbbbbbbbbc........",
".....########c#ccccabbbbbbbbbbbbbbbbbbbbc.......",
".....#bbbbbbbbbbbbabbbbbbbbbbbbbbbbbbbbbbc......",
"....##b##########abbbbbbbbbbbbbbbbbbbbbbbbc.....",
"....#bbbbbbbbbbbabbbbbbbbbbbbbbbbbbbbbbbbbbc....",
"...##beeeeeeeeeabbbbbbbbbbbbbbbbbbbbbbbbbbgcc...",
"...#abbbbbbbbbabbbbbbbbbbbbbbbbbbbbbbbbbbgec....",
"...#aggggggggabbbbbbbbbbbbbbbbbbbbbbbbbbgece....",
"...#ag#g###gabbbbbbbbbbbbbbbbebbbbbbbbbgehc.....",
"...#aggggggabbbbbbbbbbbbbbbbeibbbbbbbbgehic.....",
"...#ag##ggabbbbbbbbbbbbbbbbeibbebbbbbgehi#c.....",
"...caggggabbbbbbbbbbbbbbbbeibbeibbbbgehig#c.....",
"...#agggabbbbbbbbbbbbbbbbbibbeibbbbgehige#c.....",
"...caggabbibibbbbbbbbbbbebbbeibbbbgehigeg#c.....",
"...#ababbibbbbbbbbbbbbbeibbbibbbbgehigege#c.....",
"..#cb#bbibibbbbbbbbbbbeibbbbbbbbgehigegeg#c.....",
".#c#be#bbibbbbbbbbbbbbibbebbbbbgehigegegehic....",
"ccaibge#bbbbbbbbbbbbbbbbeibbbbgehigegegegh#gc...",
"caihbgge#bbbbbbbbbbbbbbbibbbbgehigegegegehj#gc..",
"ag#ee######ggbbbbbbbbbbbbbbbgehigegeiiiiiiiiigk.",
"agbbbbbbbbbbegbbbbbbbbbbbbbgehigegebbbbbbbbbblk.",
"agge########hggbbbbbbbbbbbgehigegegb######ihhlk.",
"ageee#######hgggbbbbbbbbbgehigegegeb#####iiihlk.",
"agge########h#ggbbbbbbbbgehigegegeeb######ihhlk.",
"ageee#######hm#gggggggggehigegegegeb#####iiihlk.",
"agge#########hm#eeeeeegehhhhhiiiiib#######ihhlk.",
"ageee#########hhhhhhhhhhhhhhhhhhhb#######iiihlk.",
"agge##########bbbbbbbbbbbbbbbbbbb#########ihhlk.",
"ageee####################################iiihlk.",
"agge######################################ihhlk.",
"ageee####################################iiihlk.",
"ggg#iiiiiiiiiiiiiiiiiiiiiiiiiiiiiiiiiiiiiiihhlk.",
"hhhhhhhhhhhhhhhhhhhhhhhhhhhhhhhhhhhhhhhhhhhhhhk.",
"kkkkkkkkkkkkkkkkkkkkkkkkkkkkkkkkkkkkkkkkkkkkkk..",
"................................................",
"................................................",
"................................................",
"................................................",
"................................................",
"................................................"
};
