/* XPM */
/* This file is a part of the NsCDE - Not so Common Desktop Environment */
static char * Noicon_l_xpm[] = {
"48 48 7 1",
" 	c None",
".	c #BBBDBA",
"+	c #404240",
"@	c #626461",
"#	c #9FA19E",
"$	c #212D3B",
"%	c #172331",
"................................................",
"...............................................+",
"..@@@@@@@@@@@@@@@@@@@@@@@@@@@@@@@@@@@@@@@@@@@@++",
"..@@@@@@@@@@@@@@@@@@@@@@@@@@@@@@@@@@@@@@@@@@@@++",
"..@@++++++++++++++++++++++++++++++++++++++++@@++",
"..@@+.......................................@@++",
"..@@+.....................................+.@@++",
"..@@+.....................................+.@@++",
"..@@+...##############+...##############+.+.@@++",
"..@@+...#############++...#############++.+.@@++",
"..@@+...##++++++++++#++...##.$.$.$.$.$#++.+.@@++",
"..@@+...##++++++++++#++...##%.%.$.$.%.#++.+.@@++",
"..@@+...##++++++++++#++...##.%.%.$.%.%#++.+.@@++",
"..@@+...##++++++++++#++...##$.$.%.$.$.#++.+.@@++",
"..@@+...##++++++++++#++...##.%.%.$.$.$#++.+.@@++",
"..@@+...##++++++++++#++...##$.$.$.%.%.#++.+.@@++",
"..@@+...##++++++++++#++...##.$.%.$.%.$#++.+.@@++",
"..@@+...##++++++++++#++...##$.%.%.$.$.#++.+.@@++",
"..@@+...##++++++++++#++...##.%.%.$.%.$#++.+.@@++",
"..@@+...##++++++++++#++...##$.%.%.$.$.#++.+.@@++",
"..@@+...##############+...##############+.+.@@++",
"..@@+...##+++++++++++##...##+++++++++++##.+.@@++",
"..@@+...#+++++++++++++#...#+++++++++++++#.+.@@++",
"..@@+.....................................+.@@++",
"..@@+.....................................+.@@++",
"..@@+.....................................+.@@++",
"..@@+...##############+...##############+.+.@@++",
"..@@+...#############++...#############++.+.@@++",
"..@@+...##.%.%.$.%.%#++...##++++++++++#++.+.@@++",
"..@@+...##%.%.$.%.%.#++...##++++++++++#++.+.@@++",
"..@@+...##.$.$.$.$.$#++...##++++++++++#++.+.@@++",
"..@@+...##$.%.$.%.%.#++...##++++++++++#++.+.@@++",
"..@@+...##.%.$.$.$.$#++...##++++++++++#++.+.@@++",
"..@@+...##+.$.%.$.%.#++...##++++++++++#++.+.@@++",
"..@@+...##.$.$.$.%.$#++...##++++++++++#++.+.@@++",
"..@@+...##$.%.$.%.$.#++...##++++++++++#++.+.@@++",
"..@@+...##.%.$.$.%.$#++...##++++++++++#++.+.@@++",
"..@@+...##$.%.%.%.$.#++...##++++++++++#++.+.@@++",
"..@@+...##############+...##############+.+.@@++",
"..@@+...##+++++++++++##...##+++++++++++##.+.@@++",
"..@@+...#+++++++++++++#...#+++++++++++++#.+.@@++",
"..@@+.....................................+.@@++",
"..@@+.+++++++++++++++++++++++++++++++++++++.@@++",
"..@@+.......................................@@++",
"..@@@@@@@@@@@@@@@@@@@@@@@@@@@@@@@@@@@@@@@@@@@@++",
"..@@@@@@@@@@@@@@@@@@@@@@@@@@@@@@@@@@@@@@@@@@@@++",
".+++++++++++++++++++++++++++++++++++++++++++++++",
"++++++++++++++++++++++++++++++++++++++++++++++++"};
