/* XPM */
/* This file is a part of the NsCDE - Not so Common Desktop Environment */
static char * Saturation_xpm[] = {
"20 15 2 1",
".	c None",
"%      c #ffffffffffff",
"....................",
".%.%.%.%.%.%%%%%%%%.",
"........%.%%.%.%%%%.",
"...%.%.%.%.%%%%%%%%.",
"........%.%%.%.%%%%.",
".%.%.%.%.%.%%%%%%%%.",
"........%.%%.%.%%%%.",
"...%.%.%.%.%%%%%%%%.",
"........%.%%.%.%%%%.",
".%.%.%.%.%.%%%%%%%%.",
"........%.%%.%.%%%%.",
"...%.%.%.%.%%%%%%%%.",
"........%.%%.%.%%%%.",
".%.%.%.%.%.%%%%%%%%.",
"...................."};
