/* XPM */
/* This file is a part of the NsCDE - Not so Common Desktop Environment */
static char * WSM8BackBtn3_xpm[] = {
"62 28 3 1",
"       s background   m black   c #49009200a700",
".      s topShadowColor   m white   c #ada7ce80d7f3",
"#      s bottomShadowColor   m white   c #248149035383",
"##############################################################",
"#                                                            .",
"#                                                            .",
"#                                                            .",
"#                                                            .",
"#                                                            .",
"#                                                            .",
"#                                                            .",
"#                                                            .",
"#                                                            .",
"#                                                            .",
"#                                                            .",
"#                                                            .",
"#                                                            .",
"#                                                            .",
"#                                                            .",
"#                                                            .",
"#                                                            .",
"#                                                            .",
"#                                                            .",
"#                                                            .",
"#                                                            .",
"#                                                            .",
"#                                                            .",
"#                                                            .",
"#                                                            .",
"#                                                            .",
"#............................................................."};
