/* XPM */
/* This file is a part of the NsCDE - Not so Common Desktop Environment */
static char * Wsm_3x1_00_xpm[] = {
"29 11 7 1",
" 	c None",
".	c #636363",
"+	c #DEDEDE",
"@	c #BDBDBD",
"#	c #212121",
"$	c #737373",
"%	c #424242",
"............................+",
".@@@@@@@@@+++++++++++++++++#+",
".@$$$$$$$%+@@@@@@@%+@@@@@@@#+",
".@$$$$$$$%+@@@@@@@%+@@@@@@@#+",
".@$$$$$$$%+@@@@@@@%+@@@@@@@#+",
".@$$$$$$$%+@@@@@@@%+@@@@@@@#+",
".@$$$$$$$%+@@@@@@@%+@@@@@@@#+",
".@$$$$$$$%+@@@@@@@%+@@@@@@@#+",
".@$$$$$$$%+@@@@@@@%+@@@@@@@#+",
".@#######%%#######%%########+",
".++++++++++++++++++++++++++++"};
