/* XPM */
static char * Wsm_4x2_10_xpm[] = {
"15 27 7 1",
" 	c None",
".	c #636363",
"+	c #DEDEDE",
"@	c #BDBDBD",
"#	c #424242",
"$	c #737373",
"%	c #212121",
"...............",
".+@@@@@#@$$$$$#",
".+@@@@@#@$$$$$#",
".+@@@@@#@$$$$$#",
".+@@@@@#@$$$$$#",
".+@@@@@#@$$$$$#",
".+%%%%%##%%%%%%",
".+++++++++++++%",
".+@@@@@#+@@@@@%",
".+@@@@@#+@@@@@%",
".+@@@@@#+@@@@@%",
".+@@@@@#+@@@@@%",
".+@@@@@#+@@@@@%",
".+%%%%%##%%%%%%",
".+++++++++++++%",
".+@@@@@#+@@@@@%",
".+@@@@@#+@@@@@%",
".+@@@@@#+@@@@@%",
".+@@@@@#+@@@@@%",
".+@@@@@#+@@@@@%",
".+%%%%%##%%%%%%",
".+++++++++++++%",
".+@@@@@#+@@@@@%",
".+@@@@@#+@@@@@%",
".+@@@@@#+@@@@@%",
".+@@@@@#+@@@@@%",
".+%%%%%##%%%%%%"};
