/* XPM */
/* This file is a part of the NsCDE - Not so Common Desktop Environment */
static char * Wsm_3x3_20_xpm[] = {
"29 28 7 1",
" 	c None",
".	c #636363",
"+	c #DEDEDE",
"@	c #BDBDBD",
"#	c #212121",
"$	c #424242",
"%	c #737373",
"............................+",
".++++++++++++++++++@@@@@@@@#+",
".+@@@@@@@$+@@@@@@@$@%%%%%%%#+",
".+@@@@@@@$+@@@@@@@$@%%%%%%%#+",
".+@@@@@@@$+@@@@@@@$@%%%%%%%#+",
".+@@@@@@@$+@@@@@@@$@%%%%%%%#+",
".+@@@@@@@$+@@@@@@@$@%%%%%%%#+",
".+@@@@@@@$+@@@@@@@$@%%%%%%%#+",
".+@@@@@@@$+@@@@@@@$@%%%%%%%#+",
".+#######$$#######$$########+",
".++++++++++++++++++++++++++#+",
".+@@@@@@@$+@@@@@@@$+@@@@@@@#+",
".+@@@@@@@$+@@@@@@@$+@@@@@@@#+",
".+@@@@@@@$+@@@@@@@$+@@@@@@@#+",
".+@@@@@@@$+@@@@@@@$+@@@@@@@#+",
".+@@@@@@@$+@@@@@@@$+@@@@@@@#+",
".+@@@@@@@$+@@@@@@@$+@@@@@@@#+",
".+@@@@@@@$+@@@@@@@$+@@@@@@@#+",
".+#######$$#######$$########+",
".++++++++++++++++++++++++++#+",
".+@@@@@@@$+@@@@@@@$+@@@@@@@#+",
".+@@@@@@@$+@@@@@@@$+@@@@@@@#+",
".+@@@@@@@$+@@@@@@@$+@@@@@@@#+",
".+@@@@@@@$+@@@@@@@$+@@@@@@@#+",
".+@@@@@@@$+@@@@@@@$+@@@@@@@#+",
".+@@@@@@@$+@@@@@@@$+@@@@@@@#+",
".+#######$$#######$$########+",
".++++++++++++++++++++++++++++"};
