/* XPM */
static char * Wsm_4x1_02_xpm[] = {
"15 27 7 1",
" 	c None",
".	c #636363",
"+	c #DEDEDE",
"@	c #212121",
"#	c #BDBDBD",
"$	c #424242",
"%	c #737373",
"...............",
".+++++++++++++@",
".+############@",
".+############@",
".+############@",
".+############@",
".+############@",
".+@@@@@@@@@@@@@",
".+++++++++++++@",
".+############@",
".+############@",
".+############@",
".+############@",
".+@@@@@@@@@@@@@",
".+++++++++++++$",
".#%%%%%%%%%%%%$",
".#%%%%%%%%%%%%$",
".#%%%%%%%%%%%%$",
".#%%%%%%%%%%%%$",
".#%%%%%%%%%%%%$",
".#@@@@@@@@@@@@@",
".+++++++++++++@",
".+############@",
".+############@",
".+############@",
".+############@",
".+@@@@@@@@@@@@@"};
