/* XPM */
/* This file is a part of the NsCDE - Not so Common Desktop Environment */
static char * Wsm_3x2_10_xpm[] = {
"20 28 7 1",
" 	c None",
".	c #636363",
"+	c #DEDEDE",
"@	c #BDBDBD",
"#	c #424242",
"$	c #737373",
"%	c #212121",
"....................",
".+++++++++@@@@@@@@@+",
".+@@@@@@@#@$$$$$$$#+",
".+@@@@@@@#@$$$$$$$#+",
".+@@@@@@@#@$$$$$$$#+",
".+@@@@@@@#@$$$$$$$#+",
".+@@@@@@@#@$$$$$$$#+",
".+@@@@@@@#@$$$$$$$#+",
".+@@@@@@@#@$$$$$$$#+",
".+%%%%%%%##%%%%%%%#+",
".+++++++++++++++++#+",
".+@@@@@@@#+@@@@@@@#+",
".+@@@@@@@#+@@@@@@@#+",
".+@@@@@@@#+@@@@@@@#+",
".+@@@@@@@#+@@@@@@@#+",
".+@@@@@@@#+@@@@@@@#+",
".+@@@@@@@#+@@@@@@@#+",
".+@@@@@@@#+@@@@@@@#+",
".+%%%%%%%##%%%%%%%#+",
".+++++++++++++++++#+",
".+@@@@@@@#+@@@@@@@#+",
".+@@@@@@@#+@@@@@@@#+",
".+@@@@@@@#+@@@@@@@#+",
".+@@@@@@@#+@@@@@@@#+",
".+@@@@@@@#+@@@@@@@#+",
".+@@@@@@@#+@@@@@@@#+",
".+%%%%%%%##%%%%%%%#+",
".+++++++++++++++++++"};
