/* XPM */
static char * ugly_yellow_xpm[] = {
"64 64 42 1",
" 	c None",
".	c #0E0E0C",
"+	c #8A8A0C",
"@	c #C6C60C",
"#	c #E6E60C",
"$	c #AAAA0C",
"%	c #5E5E0C",
"&	c #76760C",
"*	c #D6D60C",
"=	c #9A9A0C",
"-	c #F6F60C",
";	c #BABA0C",
">	c #6E6E0C",
",	c #CECE0C",
"'	c #EEEE0C",
")	c #B2B20C",
"!	c #86860C",
"~	c #DEDE0C",
"{	c #A2A20C",
"]	c #32320C",
"^	c #92920C",
"/	c #66660C",
"(	c #7E7E0C",
"_	c #FEFE0C",
":	c #C2C20C",
"<	c #16160C",
"[	c #8E8E0C",
"}	c #CACA0C",
"|	c #EAEA0C",
"1	c #AEAE0C",
"2	c #62620C",
"3	c #7A7A0C",
"4	c #DADA0C",
"5	c #9E9E0C",
"6	c #FAFA0C",
"7	c #BEBE0C",
"8	c #72720C",
"9	c #D2D20C",
"0	c #F2F20C",
"a	c #B6B60C",
"b	c #E2E20C",
"c	c #A6A60C",
"                                                                ",
"                                                                ",
"                                                            }0  ",
"                                                       @0__60!  ",
"                                                  a#__6600'#:   ",
"                                              *___6-0'||##~})   ",
"                                         @___6-0'||##bb~44,:$   ",
"                                    a#__6-00'|##bb~~44****,7!   ",
"                               $*___6-0'||##b~~44********9};    ",
"                           }___6-0'||##bb~44*************9@a    ",
"                      @0__6-00'|##bb~~44*****************,@$    ",
"                 a#__6600'||#bb~~44**********************,7[    ",
"             *___6-0'||##b~~44**************************9}72    ",
"            9-0'||##bb~444*****::***********************9}a     ",
"            6|#bb~~44**********$.***********************,@1     ",
"            6|b4***************$<'**********************,:^     ",
"            -#~****************a]'**********************}7>     ",
"           )0#~*****************%'*********************9}a      ",
"           ~'b4****************4|'*********************9@1      ",
"           6|b4*****************4**********************,:5      ",
"           6|b*****************************************}7&      ",
"           -#~****************************************9};       ",
"          :0#~****************************************9@)       ",
"          ''b4****************************************,:c       ",
"          6|b4****************************************}73       ",
"          -|~****************************************9};        ",
"          0#~****************************************9@)        ",
"         @0#4****************************************,:$        ",
"         6'b4****************************************,7!        ",
"         6|b4***************************************9};         ",
"         -|~****************************************9@a         ",
"        c0#~****************************************,@1         ",
"        9'#4****************************************,:^         ",
"        6|b4****************************************};/         ",
"        6|b4***************************************9}a          ",
"        -#~****************************************9@1          ",
"       a0#~****************************************,:=          ",
"       b'b4****************************************}7>          ",
"       6|b4***************************************9}a           ",
"       -|~****************************************9@)           ",
"       0#~****************************************,:c           ",
"      @0#~****************************************}73           ",
"      6'b4***************************************9};            ",
"      6|b4***************************************9@)            ",
"      -|~****************************************,:$            ",
"      0#~****************************************}7!            ",
"     9'#4***************************************9};             ",
"     6'b4***************************************9@)             ",
"     6|b4*************************************9,,@$             ",
"     -#~**********************************9,,}@:7;!             ",
"    )0#~*****************************99,}}@:7;)1{(              ",
"    b'#4*************************99,}}@:7;)$53                  ",
"    6|b4*********************99,}}@:7a)$=8                      ",
"    -|~******************9,,}@:7;a1c^/                          ",
"    -#~*************99,,}@:7;a1{!%                              ",
"   :0#~*********99,}}@:7;)$5(                                   ",
"   ''b4*****99,}}@:7;)$58                                       ",
"   6|b4*99,}@@:;a)$^>                                           ",
"   -|~,}@@7;a1c+/                                               ",
"   0b@7;a1{!%                                                   ",
"  @|;$53                                                        ",
"  |(                                                            ",
"                                                                ",
"                                                                "};
