<?xml version="1.0" encoding="UTF-8" standalone="no"?>
<!-- Created with Sodipodi ("http://www.sodipodi.com/") -->

<svg
   xmlns:dc="http://purl.org/dc/elements/1.1/"
   xmlns:cc="http://creativecommons.org/ns#"
   xmlns:rdf="http://www.w3.org/1999/02/22-rdf-syntax-ns#"
   xmlns:svg="http://www.w3.org/2000/svg"
   xmlns="http://www.w3.org/2000/svg"
   xmlns:xlink="http://www.w3.org/1999/xlink"
   xmlns:sodipodi="http://sodipodi.sourceforge.net/DTD/sodipodi-0.dtd"
   xmlns:inkscape="http://www.inkscape.org/namespaces/inkscape"
   width="640"
   height="480"
   id="svg548"
   sodipodi:version="0.33pre"
   sodipodi:docname="al.svg"
   version="1.1"
   inkscape:version="0.48.1 r9760">
  <sodipodi:namedview
     id="base"
     showgrid="false"
     inkscape:zoom="0.98242188"
     inkscape:cx="256"
     inkscape:cy="256"
     inkscape:window-width="1280"
     inkscape:window-height="746"
     inkscape:window-x="0"
     inkscape:window-y="24"
     inkscape:window-maximized="1"
     inkscape:current-layer="svg548" />
  <metadata
     id="metadata4578">
    <rdf:RDF>
      <cc:Work
         rdf:about="">
        <dc:format>image/svg+xml</dc:format>
        <dc:type
           rdf:resource="http://purl.org/dc/dcmitype/StillImage" />
      </cc:Work>
    </rdf:RDF>
  </metadata>
  <defs
     id="defs1065">
    <linearGradient
       id="linearGradient1070">
      <stop
         id="stop1071"
         offset="0"
         style="stop-color:#000;stop-opacity:1;" />
      <stop
         id="stop1072"
         offset="1"
         style="stop-color:#fff;stop-opacity:1;" />
    </linearGradient>
    <linearGradient
       id="linearGradient1073"
       xlink:href="#linearGradient1070" />
    <radialGradient
       fy="0.5"
       fx="0.5"
       r="0.5"
       cy="0.5"
       cx="0.5"
       id="radialGradient1074"
       xlink:href="#linearGradient1070" />
  </defs>
  <g
     id="flag"
     inkscape:label="#g3024">
    <rect
       style="font-size:12px;fill:#de2110;fill-opacity:1;fill-rule:evenodd;stroke-width:1pt"
       id="rect1066"
       height="480"
       x="0"
       y="0"
       width="640" />
    <path
       style="fill:#000000;stroke:none"
       d="m 229.27468,120.14516 c 7.43086,-0.72541 8.94019,-0.62837 14.39651,0.78413 -7.00775,3.20621 -15.29327,1.60406 -20.43172,-2.95087 -7.76557,-7.05049 -26.25978,-19.242367 -19.64652,-8.85389 34.31248,38.02306 63.86331,12.31502 81.83421,34.2087 6.12152,7.45676 11.52731,17.46736 8.30657,27.29926 -1.10095,3.36515 -5.07952,11.28207 -9.88958,9.26964 -6.29834,-2.63469 1.19358,-23.33144 -3.39124,-30.06532 -10.40953,-15.28863 -29.27087,-11.19934 -44.74727,-12.85118 -4.49009,12.17567 -15.30589,10.34111 -25.2502,4.19875 -12.69499,-7.83945 -12.31251,-27.12011 -23.65835,-33.48771 -11.82286,-6.63557 -9.89589,15.58839 -7.99144,20.86873 8.25289,22.88136 32.55286,31.43359 54.79493,27.36577 -16.46158,25.4887 -42.55232,-16.49967 -55.4755,-6.21603 -8.20047,6.52526 6.28382,18.39654 11.30165,21.12028 13.88203,7.53591 30.56252,3.7508 44.17385,-2.27388 -7.77188,8.44107 -22.07155,13.62079 -33.68097,11.90748 -5.99562,-0.88476 -18.00731,-8.41919 -23.46911,-3.39799 -8.43244,7.7523 12.15421,16.94679 17.15394,18.03447 16.8531,3.66638 28.7888,-5.22645 42.1012,-13.9136 -8.35919,8.35456 -17.28255,19.79387 -29.47085,22.29469 -7.60137,1.55963 -24.37722,-6.19794 -29.28896,1.85498 -5.87333,9.62959 9.6997,15.72206 16.65861,15.12043 16.48683,-1.42534 31.79482,-14.69122 44.20626,-24.53469 -8.5297,12.1001 -21.69475,24.9035 -35.78603,30.37075 -7.39612,2.86941 -20.11152,-1.57078 -25.67985,4.8728 -8.5781,9.92662 10.30829,15.78522 17.25962,14.09485 20.29067,-4.93573 31.11488,-27.13843 50.52144,-34.60297 -13.16294,12.12409 -27.10686,30.90649 -42.29066,39.89299 -7.54411,4.46695 -19.84735,-1.00621 -25.81351,5.58262 -13.48628,14.8933 20.3014,18.07615 29.84681,10.18639 15.98792,-13.21347 23.65246,-32.15543 42.46748,-43.03164 -12.54826,17.06572 -28.44147,42.54958 -44.40204,56.32509 -7.59843,6.55726 -24.28145,0.80413 -29.09319,8.09606 -9.66665,14.64491 21.50908,17.16045 29.28054,11.98411 25.51334,-16.98783 26.90689,-56.36299 58.9501,-65.87996 -9.07912,19.44655 -18.1393,45.77032 -39.99613,52.6265 3.27968,9.87904 14.87435,10.74213 22.32626,3.54072 12.78825,-12.35461 10.1485,-40.48032 32.4053,-41.43181 l -16.05109,22.49889 c 0.85256,9.19069 17.32465,-3.13654 22.36627,-11.97358 l 2.10506,0 c -8.76968,20.92008 -24.25029,32.60107 -44.20626,42.1012 0.39154,12.47248 -7.95292,18.89713 -18.94554,23.15567 -5.91523,-10.87475 -21.67792,-18.96449 -29.47084,-6.31518 6.18466,0.8336 11.71044,1.99559 12.63035,8.42024 -9.80705,-3.54072 -17.54693,-5.21845 -21.05059,6.31518 11.49025,-1.88614 15.41535,-1.46723 17.36674,3.55334 -7.85356,9.04545 -6.57305,22.80411 7.89397,24.14083 -4.03539,-2.91551 -6.75513,-4.84585 -4.53851,-8.74864 3.20812,-4.26064 7.00565,0.0505 8.86652,-2.48818 3.47335,-5.06898 0.34522,-3.29863 4.77428,-1.25882 3.62912,2.59765 9.53171,-8.27289 17.93511,10.06219 10.10639,-7.27088 0.38312,-18.7624 -3.88173,-27.36578 l 31.5759,-6.31518 35.78602,-33.68097 2.10506,2.10506 c -11.5673,18.20035 -28.21411,33.82622 -50.52145,35.78603 7.46666,13.54185 22.11577,6.55936 33.68097,2.10506 -5.02899,9.81168 -18.08456,9.86641 -22.4673,17.98563 -8.98651,16.65314 28.55934,-0.51364 30.88754,-1.14516 -2.99971,10.56741 -14.82593,12.6851 -17.89932,21.64213 -2.38714,6.95512 7.35717,7.64347 11.49573,5.62472 7.9866,-3.89857 13.20715,-14.48071 19.03395,-20.95167 -2.72815,12.63037 2.43977,22.6294 -11.47047,37.23432 l 21.33899,26.24588 24.35976,-26.27746 c -13.44713,-11.63468 -5.18897,-25.24179 -7.78241,-37.85952 5.69629,6.67936 7.63506,17.64252 15.72901,21.60845 3.77437,1.84825 11.56521,1.90718 10.61793,-4.30906 -1.34093,-8.80125 -14.27231,-13.32293 -17.00678,-22.95779 2.69447,0.89045 39.09097,17.96038 30.71914,1.14516 -3.96804,-7.96766 -17.39622,-8.42024 -22.2989,-17.98563 11.69781,4.50482 23.70718,10.18428 33.68096,0 -18.53926,-6.44149 -46.11555,-17.41307 -48.41638,-39.99615 l 36.38596,31.32961 30.97596,10.7716 0,2.10506 c -7.54874,7.8645 -11.91886,13.35028 -5.6584,22.95778 l 7.6982,2.30505 c -4.93425,-5.43948 -3.2881,-8.24763 0,-10.3969 5.56999,-2.65448 8.92124,2.4987 11.07683,-2.81868 0.97885,-2.5808 1.32198,-3.79542 1.81877,-0.64414 0.54942,5.58051 8.28131,1.28829 10.98421,2.01664 4.22906,4.16592 -2.06296,8.33183 -2.76395,11.84097 11.96096,-4.19118 14.22179,-11.52941 10.5253,-23.15566 0.78941,-4.408 3.55334,-6.51305 6.31518,-6.31518 3.13655,0.3726 5.6142,1.40407 8.42024,2.10506 -4.10697,-10.72739 -11.35469,-10.32112 -21.0506,-6.31518 0.87781,-6.42465 4.05646,-9.56118 10.5253,-8.42024 -4.86058,-14.58597 -22.43783,-2.87762 -27.36579,6.31518 -11.4473,-3.79754 -22.40625,-9.99905 -18.94553,-23.15567 -19.3434,-9.20753 -37.34797,-20.61275 -44.20626,-42.1012 l 2.10506,0 c 5.04161,8.83704 21.18533,14.91435 20.06333,6.71094 l -13.74816,-17.23625 c 29.60557,1.27146 17.81303,55.08943 54.73156,44.20627 l 0,-4.21012 c -21.24426,-11.83254 -29.97183,-33.26206 -39.99613,-54.73156 31.51064,9.3612 32.55265,48.44375 57.03239,65.51158 7.82872,5.45842 40.77923,3.9954 31.09174,-11.61573 -4.35747,-7.02247 -21.73475,-1.95349 -29.09825,-8.09606 -15.99003,-13.33766 -32.07269,-39.27263 -44.29046,-56.32509 19.33709,12.28891 28.59303,37.04063 48.41848,46.9681 8.37183,4.19328 28.21623,3.56807 25.36809,-10.87895 -2.02506,-10.28112 -18.514,-4.54905 -25.33862,-7.47507 -15.3143,-6.56569 -31.96323,-29.49653 -44.23783,-41.24444 18.37928,8.07226 29.27718,28.63492 48.41638,34.41141 7.04353,2.12612 25.23336,-1.04201 20.19384,-12.44953 -3.5807,-8.10448 -19.61074,-3.73521 -26.50902,-6.21941 -15.16696,-5.46157 -26.82267,-19.41054 -37.89108,-30.4779 14.85542,8.54465 28.29201,22.99883 46.31132,24.53469 6.95723,0.593 25.00811,-7.66325 15.52903,-16.46852 -6.16572,-5.72724 -18.63189,0.66416 -26.05433,-0.17871 -11.95673,-1.35777 -22.01051,-11.90138 -29.47084,-20.51782 17.38779,10.68192 71.35733,15.23222 61.90141,-7.10458 -6.56358,-5.46115 -13.73553,4.05056 -26.64586,4.40906 -13.52713,0.0311 -26.94266,-3.17759 -38.01738,-11.71109 14.1039,4.76186 30.2897,9.81506 44.83146,3.00266 5.17003,-2.42145 23.67771,-17.75555 11.71676,-23.01925 -9.32541,-4.1036 -18.93712,9.11028 -26.42061,12.45333 -9.27489,4.14339 -20.09701,1.12346 -29.47084,-1.18579 l 0,-2.10506 c 19.22552,-1.02053 38.3163,-2.11348 50.96561,-19.02996 4.15329,-5.55566 14.97961,-28.308 2.88605,-32.01438 -4.82691,-1.47922 -8.56761,3.33947 -10.57794,6.96143 -5.90679,10.6474 -32.24741,52.93279 -43.27372,23.03231 -15.50797,1.6552 -34.29354,-2.42524 -44.74937,12.85118 -4.63955,6.77935 2.52607,27.58197 -3.73437,30.06532 -17.69093,7.01658 -5.87522,-31.6418 -1.58722,-36.5689 19.06342,-21.91388 70.61003,-3.0475 79.5418,-33.71338 0.97044,-8.13206 -10.62003,6.42022 -16.07635,9.94768 -5.911,3.64216 -13.41555,3.87983 -19.70967,2.68269 6.67725,-3.49757 12.03884,-2.3903 16.24896,-3.09192 -3.9512,-6.9427 -13.01348,-6.06173 -15.32905,-9.90726 -3.02287,-5.45842 -15.07855,-7.04942 -21.92841,-5.96784 -13.02822,2.87888 -18.04037,6.76481 -42.1433,0.0215 l 10.5253,12.63037 -15.08487,6.30338 6.66463,4.22191 -12.63036,8.42024 c 2.10506,0.70163 7.1172,0.70562 6.7804,2.68648 l -10.17587,17.3057 c -2.11137,-3.62766 -9.05597,-13.12632 -10.03482,-16.77081 -0.49048,-1.62637 2.44608,-2.38567 6.41833,-3.10496 l -11.93359,-8.53665 7.71295,-4.50608 -16.13319,-6.01921 8.42024,-12.63037 c -13.42397,8.95492 -24.94706,-3.561552 -40.48872,0.0989 -6.62673,1.50637 -11.9778,8.88503 -18.2172,7.65379 -5.26265,-0.90013 -11.3968,2.22862 -15.08696,9.08775 z"
       id="path552"
       sodipodi:nodetypes="ccscccccccccccccccccccccccccccccccccccccccccccccccsscccccccccccccccccccccccccccccsscccccccccccccccccccccccccccccccccsccccccccccccccsccsscccccccscccccssc"
       inkscape:connector-curvature="0" />
    <path
       style="fill:#de2110;fill-opacity:1;fill-rule:evenodd;stroke:#de2110;stroke-width:0;stroke-linecap:butt;stroke-linejoin:miter;stroke-opacity:1;stroke-dasharray:none"
       d="m 132.344,331.2967 c 0.651,0.3125 1.848,0.1562 2.03,0.8593 -1.224,0.4428 -2.682,0.4949 -3.906,0.3908 0.573,-1.3021 1.225,-0.8074 1.876,-1.2501 z"
       id="path1069"
       sodipodi:nodetypes="cccc"
       inkscape:connector-curvature="0" />
    <path
       style="fill:#de2110;fill-opacity:1;fill-rule:evenodd;stroke:#de2110;stroke-width:0;stroke-linecap:butt;stroke-linejoin:miter;stroke-opacity:1;stroke-dasharray:none"
       d="m 188.202,331.5309 c -0.65,0.3125 -1.847,0.1562 -2.029,0.8593 1.224,0.4428 2.682,0.4949 3.905,0.3908 -0.572,-1.3021 -1.225,-0.8074 -1.876,-1.2501 z"
       id="path1075"
       sodipodi:nodetypes="cccc"
       inkscape:connector-curvature="0" />
  </g>
</svg>
