<?xml version="1.0" encoding="UTF-8" standalone="no"?>
<!-- Created with Sodipodi ("http://www.sodipodi.com/") -->

<svg
   xmlns:dc="http://purl.org/dc/elements/1.1/"
   xmlns:cc="http://creativecommons.org/ns#"
   xmlns:rdf="http://www.w3.org/1999/02/22-rdf-syntax-ns#"
   xmlns:svg="http://www.w3.org/2000/svg"
   xmlns="http://www.w3.org/2000/svg"
   xmlns:sodipodi="http://sodipodi.sourceforge.net/DTD/sodipodi-0.dtd"
   xmlns:inkscape="http://www.inkscape.org/namespaces/inkscape"
   id="svg820"
   sodipodi:version="0.33pre"
   width="640"
   height="480"
   sodipodi:docname="ao.svg"
   version="1.1"
   inkscape:version="0.48.1 r9760">
  <sodipodi:namedview
     id="base"
     showgrid="true"
     snaptogrid="false"
     inkscape:zoom="0.44080424"
     inkscape:cx="372.04724"
     inkscape:cy="248.03149"
     inkscape:window-width="1280"
     inkscape:window-height="746"
     inkscape:window-x="0"
     inkscape:window-y="24"
     inkscape:window-maximized="1"
     inkscape:current-layer="svg820" />
  <metadata
     id="metadata3028">
    <rdf:RDF>
      <cc:Work
         rdf:about="">
        <dc:format>image/svg+xml</dc:format>
        <dc:type
           rdf:resource="http://purl.org/dc/dcmitype/StillImage" />
      </cc:Work>
    </rdf:RDF>
  </metadata>
  <defs
     id="defs822" />
  <g
     id="flag"
     inkscape:label="#g3273">
    <g
       id="g3332"
       transform="matrix(0.86010583,0,0,0.95320738,0,-15.191277)">
      <rect
         y="15.937012"
         x="0"
         height="255.53154"
         width="744.09448"
         id="rect918"
         style="font-size:12px;fill:#ff0000;fill-opacity:1;fill-rule:evenodd;stroke-width:1pt" />
      <rect
         y="263.96851"
         x="0"
         height="255.53154"
         width="744.09448"
         id="rect919"
         style="font-size:12px;fill:#000000;fill-opacity:1;fill-rule:evenodd;stroke-width:1pt" />
    </g>
    <g
       id="g3311"
       transform="translate(-113.16046,4.862689)">
      <path
         transform="translate(0,279.063)"
         sodipodi:nodetypes="cccscc"
         id="path824"
         d="m 341.828,-135.754 c 165.216,43.3044 58.989,255.64 -71.216,167.263 -2.939,4.5148 -5.877,9.0297 -8.817,13.5446 76.628,54.6583 152.572,10.6596 173.899,-46.35792 22.297,-58.78848 -7.521,-141.47668 -92.511,-150.02568 -0.451,5.192 -0.904,10.384 -1.355,15.576 z"
         style="font-size:12px;fill:#ffec00;fill-rule:evenodd;stroke-width:1pt"
         inkscape:connector-curvature="0" />
      <rect
         transform="matrix(0.906416,0.422387,-0.423454,0.905918,0,279.063)"
         y="-77.070213"
         x="276.34018"
         height="23.948845"
         width="23.972401"
         id="rect825"
         style="font-size:12px;fill:#ffec00;fill-rule:evenodd;stroke-width:1pt" />
      <rect
         transform="translate(0,279.063)"
         y="-52.575722"
         x="432.10184"
         height="23.942251"
         width="23.978977"
         id="rect826"
         style="font-size:12px;fill:#ffec00;fill-rule:evenodd;stroke-width:1pt" />
      <rect
         transform="matrix(0.931934,-0.362628,0.363597,0.931556,0,279.063)"
         y="67.213852"
         x="424.89584"
         height="23.947086"
         width="23.974121"
         id="rect827"
         style="font-size:12px;fill:#ffec00;fill-rule:evenodd;stroke-width:1pt" />
      <rect
         transform="matrix(0.710943,-0.703249,0.704342,0.709861,0,279.063)"
         y="191.67343"
         x="365.03714"
         height="23.960503"
         width="23.960726"
         id="rect828"
         style="font-size:12px;fill:#ffec00;fill-rule:evenodd;stroke-width:1pt" />
      <rect
         transform="matrix(0.935747,0.352671,-0.35362,0.935389,0,279.063)"
         y="-280.0014"
         x="287.7103"
         height="23.946857"
         width="23.974401"
         id="rect829"
         style="font-size:12px;fill:#ffec00;fill-rule:evenodd;stroke-width:1pt" />
      <rect
         transform="matrix(0.928739,0.370734,-0.371718,0.928346,0,279.063)"
         y="-172.06224"
         x="393.32678"
         height="23.947323"
         width="23.973907"
         id="rect830"
         style="font-size:12px;fill:#ffec00;fill-rule:evenodd;stroke-width:1pt" />
      <rect
         transform="matrix(0.920124,-0.391628,0.392648,0.919689,0,279.063)"
         y="192.40338"
         x="308.48309"
         height="23.947889"
         width="23.973291"
         id="rect831"
         style="font-size:12px;fill:#ffec00;fill-rule:evenodd;stroke-width:1pt" />
      <rect
         transform="translate(0,279.063)"
         y="58.906097"
         x="319.88007"
         height="23.942251"
         width="23.978977"
         id="rect832"
         style="font-size:12px;fill:#ffec00;fill-rule:evenodd;stroke-width:1pt" />
      <path
         transform="translate(0,279.063)"
         sodipodi:nodetypes="ccccccccccc"
         id="path739"
         d="m 361.167,-57.0298 -20.351,-15.006 -20.244,14.4686 8.034,-22.9179 -20.347,-14.9571 24.447,-0.171 8.568,-22.5508 7.782,22.703 24.702,-0.2416 -19.587,15.2316 6.996,23.4412 z"
         style="font-size:12px;fill:#ffec00;fill-rule:evenodd;stroke-width:1pt"
         inkscape:connector-curvature="0" />
      <path
         transform="translate(0,279.063)"
         sodipodi:nodetypes="cccccccc"
         id="path878"
         d="m 449.188,62.4528 c -1.211,0.4184 -6.229,12.3893 -9.675,18.2483 1.797,0.5092 2.559,0.5965 3.625,1.0254 13.655,4.8007 20.384,9.1807 26.186,17.5054 2.888,2.7911 7.032,2.9311 10.198,0.6972 0,0 2.795,-1.1156 6.429,-5.0223 2.969,-4.5195 2.195,-8.1095 -1.383,-11.1603 -10.944,-7.9507 -22.9,-13.9007 -35.38,-21.2937 z"
         style="font-size:12px;fill:#ffee00;fill-rule:evenodd;stroke-width:1pt"
         inkscape:connector-curvature="0" />
      <path
         transform="matrix(2.289521,0,0,2.286005,21.37732,13.67169)"
         sodipodi:ry="1.8918231"
         sodipodi:rx="1.8918231"
         sodipodi:cy="154.98663"
         sodipodi:cx="197.72543"
         d="m 199.61726,154.98663 c 0,1.04483 -0.847,1.89183 -1.89183,1.89183 -1.04482,0 -1.89182,-0.847 -1.89182,-1.89183 0,-1.04482 0.847,-1.89182 1.89182,-1.89182 1.04483,0 1.89183,0.847 1.89183,1.89182 z"
         id="path879"
         style="font-size:12px;fill-rule:evenodd;stroke-width:1pt"
         sodipodi:type="arc" />
      <path
         transform="scale(2.289521,2.286005)"
         sodipodi:ry="1.8918231"
         sodipodi:rx="1.8918231"
         sodipodi:cy="154.98663"
         sodipodi:cx="197.72543"
         d="m 199.61726,154.98663 c 0,1.04483 -0.847,1.89183 -1.89183,1.89183 -1.04482,0 -1.89182,-0.847 -1.89182,-1.89183 0,-1.04482 0.847,-1.89182 1.89182,-1.89182 1.04483,0 1.89183,0.847 1.89183,1.89182 z"
         id="path880"
         style="font-size:12px;fill-rule:evenodd;stroke-width:1pt"
         sodipodi:type="arc" />
      <path
         transform="matrix(2.289521,0,0,2.286005,10.89825,6.975403)"
         sodipodi:ry="1.8918231"
         sodipodi:rx="1.8918231"
         sodipodi:cy="154.98663"
         sodipodi:cx="197.72543"
         d="m 199.61726,154.98663 c 0,1.04483 -0.847,1.89183 -1.89183,1.89183 -1.04482,0 -1.89182,-0.847 -1.89182,-1.89183 0,-1.04482 0.847,-1.89182 1.89182,-1.89182 1.04483,0 1.89183,0.847 1.89183,1.89182 z"
         id="path881"
         style="font-size:12px;fill-rule:evenodd;stroke-width:1pt"
         sodipodi:type="arc" />
      <path
         transform="translate(0,279.063)"
         sodipodi:nodetypes="ccccccc"
         id="path882"
         d="M 437.626,79.7437 C 395.057,55.4709 350.315,29.223 307.748,4.9479 c -18.751,-11.63577 -19.683,-33.3848 -7.17,-49.8761 1.302,-2.3363 2.836,-1.7579 3.514,-0.5234 1.463,8.0284 5.969,16.3243 11.37,21.4953 44.693,28.38299 87.732,55.8036 131.714,85.6131 -3.448,5.7676 -6.104,12.3216 -9.55,18.0869 z"
         style="font-size:12px;fill:#ffee00;fill-rule:evenodd;stroke-width:1pt"
         inkscape:connector-curvature="0" />
      <rect
         transform="matrix(0.744952,0.667118,-0.668256,0.743931,0,279.063)"
         y="-257.70178"
         x="319.64951"
         height="23.958675"
         width="23.962568"
         id="rect892"
         style="font-size:12px;fill:#ffec00;fill-rule:evenodd;stroke-width:1pt" />
      <path
         transform="translate(0,279.063)"
         sodipodi:nodetypes="cc"
         id="path893"
         d="M 444.701,64.8984 319.739,-10.6244"
         style="font-size:12px;fill:none;stroke:#000000;stroke-width:2.28777008pt"
         inkscape:connector-curvature="0" />
      <path
         transform="translate(0,279.063)"
         id="path894"
         d="M 429.272,47.4699 387.028,20.191"
         style="font-size:12px;fill:none;stroke:#000000;stroke-width:2.28777008pt"
         inkscape:connector-curvature="0" />
      <path
         transform="translate(0,279.063)"
         sodipodi:nodetypes="cc"
         id="path895"
         d="M 405.238,62.8775 362.488,38.1224"
         style="font-size:12px;fill:none;stroke:#000000;stroke-width:2.28777008pt"
         inkscape:connector-curvature="0" />
    </g>
  </g>
</svg>
