<?xml version="1.0" encoding="UTF-8" standalone="no"?>
<!-- Created with Sodipodi ("http://www.sodipodi.com/") -->

<svg
   xmlns:dc="http://purl.org/dc/elements/1.1/"
   xmlns:cc="http://creativecommons.org/ns#"
   xmlns:rdf="http://www.w3.org/1999/02/22-rdf-syntax-ns#"
   xmlns:svg="http://www.w3.org/2000/svg"
   xmlns="http://www.w3.org/2000/svg"
   xmlns:sodipodi="http://sodipodi.sourceforge.net/DTD/sodipodi-0.dtd"
   xmlns:inkscape="http://www.inkscape.org/namespaces/inkscape"
   id="svg562"
   sodipodi:version="0.33pre"
   width="640"
   height="480"
   sodipodi:docname="aq.svg"
   version="1.1"
   inkscape:version="0.48.1 r9760"
   viewBox="0 0 512 512">
  <sodipodi:namedview
     id="base"
     showgrid="false"
     inkscape:zoom="1.0273438"
     inkscape:cx="256"
     inkscape:cy="256"
     inkscape:window-width="1280"
     inkscape:window-height="746"
     inkscape:window-x="0"
     inkscape:window-y="24"
     inkscape:window-maximized="1"
     inkscape:current-layer="svg562" />
  <metadata
     id="metadata3039">
    <rdf:RDF>
      <cc:Work
         rdf:about="">
        <dc:format>image/svg+xml</dc:format>
        <dc:type
           rdf:resource="http://purl.org/dc/dcmitype/StillImage" />
      </cc:Work>
    </rdf:RDF>
  </metadata>
  <defs
     id="defs564" />
  <g
     id="flag"
     inkscape:label="#g3185">
    <rect
       style="font-size:12px;fill:#3a7dce;fill-opacity:1;fill-rule:evenodd;stroke-width:1pt"
       id="rect561"
       width="682.66669"
       height="512"
       x="-85.333336"
       y="0" />
    <path
       id="selection_to_path"
       d="m 111.81521,240.35035 c -3.07934,-6.29856 -3.07934,-6.29856 -3.07934,-12.59634 -1.54004,0 -1.82875,0.29598 -2.7192,0.0482 -0.89045,-0.24548 -1.22702,5.8076 -4.1149,4.62604 -0.48093,-0.59039 2.06961,-4.96863 -0.69746,-6.78874 -0.89045,-0.59273 0.21653,-4.18402 -0.16867,-5.75866 0,0 -3.512403,1.86906 -6.159433,-4.72314 -1.29996,-1.72302 -3.08009,1.57386 -3.08009,1.57386 0,0 0.76964,2.01744 -0.62529,2.50995 -1.97312,-1.47676 -3.41743,-0.70226 -5.91934,-2.73135 -2.50268,-2.02986 0.52955,-4.35415 -4.23494,-6.07638 3.08009,-7.87242 3.08009,-6.29856 10.77957,-9.44706 -4.62015,-3.14928 -4.62015,-3.14928 -7.69948,-7.8732 -4.62014,-1.57464 -6.160189,-3.1485 -10.78033,-6.29778 -6.159429,-7.87321 -9.239523,-23.61806 -9.239523,-34.63975 3.898363,-3.69074 9.239523,12.59634 16.939763,17.31948 0,0 10.77957,4.72391 10.77957,4.72391 6.15942,3.14929 7.69947,6.29778 12.319613,9.44706 0,0 13.85967,4.72392 13.85967,4.72392 6.15942,4.72314 9.23952,11.0217 13.85966,12.59634 5.00458,0 5.96873,-2.9473 7.57335,-3.13063 9.05339,-0.47465 13.67353,-1.66709 15.47798,-4.44737 1.82799,-2.21397 6.20729,1.27945 18.52691,-3.44369 0,0 -1.53929,-6.29857 -1.53929,-6.29857 0,0 3.27231,-2.75542 7.69947,-1.57463 -0.12004,-2.87817 -0.40951,-10.55406 3.95155,-14.01717 -2.64855,-2.84088 -0.87145,-4.87696 -0.87145,-4.87696 0,0 2.45481,-2.41128 2.74275,-3.69073 -1.29844,-6.93789 1.12674,-7.04509 1.67074,-9.08661 0.54323,-2.04074 -2.09468,-1.34159 -1.35087,-4.15527 0.74229,-2.81447 5.20364,-3.48254 5.80082,-5.80061 0.59945,-2.31807 -1.27185,-3.48099 -1.16397,-4.0341 0.96263,-2.21396 0.14512,-7.43001 0,-9.44744 8.27766,-2.26346 10.97255,-9.15202 13.85967,-6.29818 1.54005,-9.44729 3.0801,-12.59641 12.31962,-12.59641 1.29996,-2.90294 -3.36956,-5.36333 -1.54005,-6.29817 3.0801,-0.39362 5.43765,-0.19677 9.04882,4.57617 1.13965,1.51249 1.34631,-2.21429 2.50115,-2.60799 1.15485,-0.39362 3.91888,-0.39975 4.32991,-2.26338 0.43459,-1.919082 1.05987,-4.428406 2.59992,-7.577453 1.29921,-2.558653 2.30969,0.984092 3.46454,6.002896 6.49753,0.245947 21.1747,1.722237 27.33413,3.444317 4.62014,1.2302 7.70024,-1.23019 12.12739,-1.72223 3.27232,3.34589 6.35242,0.83657 8.08469,7.97115 2.44568,3.84975 6.44813,0.34453 7.31503,1.47614 5.1497,14.51542 22.8591,4.72361 24.20616,4.9697 2.26107,0 5.02358,6.49013 6.80372,6.32886 2.89319,-0.49819 2.07416,-2.51546 4.60114,-1.7036 -0.67467,5.46161 4.95748,11.75993 4.95748,15.84351 0,0 1.37062,0.68905 2.64095,-0.52281 1.26881,-1.21108 2.43581,-4.32346 3.56635,-4.24982 2.69489,0.39369 3.78667,0.74747 6.8926,1.30252 8.34984,2.917 12.60301,3.57498 15.84645,5.0696 1.5089,2.82302 2.97069,4.2687 6.02875,3.74123 2.52699,1.73545 0.68379,4.00845 2.17597,4.15605 3.0801,-1.57463 4.09059,-3.29688 7.16992,-1.72223 3.08009,1.57463 6.16019,4.72391 7.70024,7.8732 0,1.57386 -1.54005,7.87242 0,17.31948 0.76964,3.14927 1.14269,5.64601 4.45147,11.04655 -0.87905,5.54814 4.16276,14.88412 4.16276,17.24646 0,3.14851 -2.45481,4.77287 -3.99485,7.92136 6.16019,4.72392 0,12.59634 -3.07934,17.32026 23.09919,4.72392 12.31962,14.17098 30.79867,9.44706 -4.62015,11.0217 -2.98437,10.13689 1.63578,21.15859 -9.24029,6.29856 -0.19147,8.21655 -6.35089,16.08898 -0.38521,0.49251 3.65599,6.84001 9.33525,6.84001 -1.54005,12.59634 -6.16019,7.87242 -4.62014,26.76732 -12.1274,-0.24548 -7.2193,14.12204 -15.39972,12.59634 0.48093,9.00426 4.66801,9.79197 3.0801,18.89411 -6.15943,1.57465 -6.15943,1.57465 -9.23952,6.29857 0,0 -4.62015,-1.57464 -4.62015,-1.57464 -1.54004,7.87241 -4.61938,9.44706 0,17.32026 0,0 -5.9672,0.19654 -7.69947,0 -0.14511,2.70648 2.64703,3.44447 3.08009,6.29778 -0.24084,1.13184 -8.75934,6.10124 -15.39971,6.29856 -1.73226,3.88727 4.61939,8.02079 4.23494,9.98851 -7.2193,1.42626 -10.39512,10.48024 -10.39512,10.48024 0,0 3.70538,1.52571 3.08009,3.14928 -1.97235,-1.47675 -3.08009,-1.57463 -6.15943,-1.57463 -1.54005,0.39385 -5.29329,-0.0963 -8.89231,6.11366 -3.95003,1.33227 -5.81449,0.85064 -8.81101,4.90182 -1.32656,-3.85931 -3.23433,0.0365 -5.56758,1.53346 -2.33096,1.49929 -5.47108,5.22576 -5.89274,5.06728 0.0965,-1.08367 1.44431,-5.01988 1.44431,-5.01988 0,0 -7.70024,1.57463 -7.70024,1.57463 0,0 -0.3434,0.0342 -0.94818,0.0971 -0.60554,0.0614 -0.44371,-4.59574 -1.90322,-4.42717 -1.45875,0.17012 -5.63367,5.85731 -7.05671,6.03521 -1.42077,0.1779 -1.87055,-1.80924 -3.09529,-1.63601 -1.22398,0.17324 -3.61117,5.9987 -4.47807,6.15329 -0.86689,0.1546 -4.30559,-3.5408 -7.25273,-3.02498 -15.15962,5.46268 -17.56657,-10.77467 -19.92412,-1.62281 -3.17583,-1.72301 -2.62576,-0.72323 -5.85324,0.14139 -2.05897,0.543 -2.24664,-2.78339 -4.07767,-2.73212 -3.6636,0.10565 -3.47138,3.64878 -5.46881,2.59073 -1.63501,-7.38146 -11.50211,-6.05307 -12.46397,-9.20158 -0.78255,-3.28445 4.27445,-3.26891 5.91023,-5.49376 1.25057,-3.21065 -1.30604,-4.4295 3.76844,-7.52673 6.61377,-4.57399 2.8119,-6.29933 3.9713,-9.73682 2.07417,-4.96318 2.08632,-6.17504 0.35405,-10.55405 0,0 -5.1497,-14.17097 -6.16019,-14.17097 -3.07933,-0.88482 -3.07933,5.21487 -7.60374,6.88895 -9.23952,3.1485 -25.55248,-7.97185 -28.39248,-7.97185 -2.59764,0.0498 -14.63235,2.91389 -14.17801,-3.22153 -1.79912,5.9653 -8.41594,1.4014 -8.82393,1.4014 -6.16019,0 -3.80263,4.87152 -7.94184,4.6742 -1.87738,-0.63933 -20.83736,-1.77117 -20.83736,-1.77117 0,0 0,3.14928 0,3.14928 0,0 -12.31962,-6.29857 -12.31962,-6.29857 0,0 -10.77957,-3.14849 -10.77957,-3.14849 -9.23952,-3.14928 -4.61938,-11.02248 -20.01909,-6.29856 0,0 0,-9.44706 0,-9.44706 0,0 -7.69948,0 -7.69948,0 3.07933,-18.8949 0,-9.44706 -1.54005,-26.76732 0,0 -6.16019,1.57464 -6.16019,1.57464 -6.15943,-8.51253 8.56561,-6.88896 -4.61938,-12.59634 0,0 0.24009,-9.3989 -3.08009,-6.29856 -0.67392,0.39386 1.54004,4.72392 1.54004,4.72392 -12.319613,-1.57464 -15.399713,-4.72392 -15.399713,-17.32026 0,0 10.154293,1.47676 9.239533,0 -1.44356,-2.36157 -3.320183,-17.71333 -2.983613,-18.74653 -0.14435,-2.06714 9.432513,-7.28202 7.579443,-12.25297 1.17915,-0.4428 4.64369,-0.49096 4.64369,-0.49096"
       style="fill:#ffffff;fill-opacity:1;stroke:none"
       sodipodi:nodetypes="cccccccccsccccccccccscccccccccccccccsssccccccccccscccccccccccccccccccccccccccccccscccsssssccssccccccccccccccccccccccccccccc"
       inkscape:connector-curvature="0" />
    <path
       style="font-size:12px;fill:none;stroke:#ffffff;stroke-width:1.68640003pt;stroke-linecap:round;stroke-linejoin:round"
       d="m 527.55222,303.2571 c -0.49256,1.10825 -0.4052,2.21483 0.104,3.00525 0.91438,-1.37116 0.14227,-2.0035 -0.104,-3.00525 z"
       id="path556"
       sodipodi:nodetypes="ccc"
       inkscape:connector-curvature="0" />
    <path
       style="font-size:12px;fill:none;stroke:#ffffff;stroke-width:2.10800004;stroke-linejoin:round"
       d="m 131.51182,178.93869 c 0,0 -2.58259,-0.31617 -2.00267,1.95025 0.84367,-1.73975 1.95025,-1.84458 2.00267,-1.95025 z"
       id="path557"
       sodipodi:nodetypes="ccc"
       inkscape:connector-curvature="0" />
    <path
       style="font-size:12px;fill:none;stroke:#ffffff;stroke-width:2.10800004;stroke-linejoin:round"
       d="m 132.09173,173.66869 c -1.42275,0.0532 -3.1625,-0.2105 -2.58258,2.05508 0.84367,-1.73891 2.53017,-1.94941 2.58258,-2.05508 z"
       id="path558"
       sodipodi:nodetypes="ccc"
       inkscape:connector-curvature="0" />
    <path
       style="font-size:12px;fill:none;stroke:#ffffff;stroke-width:2.10800004;stroke-linejoin:round"
       d="m 141.80887,203.86594 c 0,0 2.214,-0.15808 1.63408,2.10833 -0.84367,-1.73975 -1.58083,-2.00266 -1.63408,-2.10833 z"
       id="path559"
       sodipodi:nodetypes="ccc"
       inkscape:connector-curvature="0" />
  </g>
</svg>
