<?xml version="1.0" encoding="UTF-8" standalone="no"?>
<!-- Created with Sodipodi ("http://www.sodipodi.com/") -->

<svg
   xmlns:dc="http://purl.org/dc/elements/1.1/"
   xmlns:cc="http://creativecommons.org/ns#"
   xmlns:rdf="http://www.w3.org/1999/02/22-rdf-syntax-ns#"
   xmlns:svg="http://www.w3.org/2000/svg"
   xmlns="http://www.w3.org/2000/svg"
   xmlns:sodipodi="http://sodipodi.sourceforge.net/DTD/sodipodi-0.dtd"
   xmlns:inkscape="http://www.inkscape.org/namespaces/inkscape"
   id="svg378"
   height="480"
   width="640"
   version="1"
   y="0"
   x="0"
   sodipodi:docname="az.svg"
   inkscape:version="0.92.0 r">
  <defs
     id="defs10" />
  <sodipodi:namedview
     pagecolor="#ffffff"
     bordercolor="#666666"
     borderopacity="1"
     objecttolerance="10"
     gridtolerance="10"
     guidetolerance="10"
     inkscape:pageopacity="0"
     inkscape:pageshadow="2"
     inkscape:window-width="1020"
     inkscape:window-height="1035"
     id="namedview8"
     showgrid="false"
     inkscape:zoom="5.5625733"
     inkscape:cx="642.97565"
     inkscape:cy="217.17176"
     inkscape:window-x="848"
     inkscape:window-y="34"
     inkscape:window-maximized="0"
     inkscape:current-layer="svg378" />
  <metadata
     id="metadata4346">
    <rdf:RDF>
      <cc:Work
         rdf:about="">
        <dc:format>image/svg+xml</dc:format>
        <dc:type
           rdf:resource="http://purl.org/dc/dcmitype/StillImage" />
        <dc:title></dc:title>
      </cc:Work>
    </rdf:RDF>
  </metadata>
  <g
     style="stroke-width:1.00000003pt"
     id="flag"
     transform="scale(0.9997191,1)">
    <g
       style="fill-rule:evenodd"
       id="g646"
       transform="scale(5.3333,8)">
      <rect
         style="fill:#cc3333"
         id="rect622"
         height="20"
         width="120"
         y="20"
         x="0" />
      <rect
         style="fill:#0099cc"
         id="rect621"
         height="20"
         width="120"
         y="0"
         x="0" />
      <rect
         style="fill:#009933"
         id="rect623"
         height="20"
         width="120"
         y="40"
         x="0" />
    </g>
    <g
       id="g575"
       transform="matrix(14.068,0,0,14.068,-494.02,-182.71)">
      <g
         id="g638">
        <path
           style="fill:#ffffff"
           inkscape:connector-curvature="0"
           id="path637"
           d="m 66,30 c 0.004,4.968 -4.0248,9 -8.9928,9 -4.968,0.008 -9.003,-4.018 -9.007,-8.986 -0.012,-4.968 4.01,-9.006 8.978,-9.014 4.968,-0.0158 9.0096,4.0033 9.0215,8.9713 V 30 Z" />
        <path
           style="fill:#cc3333"
           inkscape:connector-curvature="0"
           id="path636"
           d="m 66.5,30 c 0.0033,4.0848 -3.3093,7.4 -7.3941,7.4 -4.0848,0.0065 -7.4026,-3.3034 -7.4059,-7.3882 -0.0098,-4.0848 3.2975,-7.4053 7.3823,-7.4118 4.0848,-0.013 7.4079,3.2916 7.4177,7.3764 z" />
      </g>
      <polygon
         style="fill:#ffffff;fill-rule:evenodd"
         id="polygon574"
         points="69.31,30.957 70.536,33.536 67.957,32.31 67,35 66.043,32.31 63.464,33.536 64.69,30.957 62,30 64.69,29.043 63.464,26.464 66.043,27.69 67,25 67.957,27.69 70.536,26.464 69.31,29.043 72,30 " />
    </g>
  </g>
</svg>
