<?xml version="1.0" encoding="UTF-8" standalone="no"?>
<!-- Created with Sodipodi ("http://www.sodipodi.com/") -->

<svg
   xmlns:dc="http://purl.org/dc/elements/1.1/"
   xmlns:cc="http://creativecommons.org/ns#"
   xmlns:rdf="http://www.w3.org/1999/02/22-rdf-syntax-ns#"
   xmlns:svg="http://www.w3.org/2000/svg"
   xmlns="http://www.w3.org/2000/svg"
   xmlns:sodipodi="http://sodipodi.sourceforge.net/DTD/sodipodi-0.dtd"
   xmlns:inkscape="http://www.inkscape.org/namespaces/inkscape"
   id="svg378"
   height="480"
   width="640"
   version="1"
   y="0"
   x="0"
   sodipodi:docname="ba.svg"
   inkscape:version="0.92.0 r">
  <defs
     id="defs10">
    <clipPath
       id="clipPath3133"
       clipPathUnits="userSpaceOnUse">
      <rect
         style="fill-opacity:0.67000002"
         id="rect3135"
         height="512"
         width="682.66998"
         y="7.1053998e-15"
         x="-85.333" />
    </clipPath>
  </defs>
  <sodipodi:namedview
     pagecolor="#ffffff"
     bordercolor="#666666"
     borderopacity="1"
     objecttolerance="10"
     gridtolerance="10"
     guidetolerance="10"
     inkscape:pageopacity="0"
     inkscape:pageshadow="2"
     inkscape:window-width="1020"
     inkscape:window-height="1035"
     id="namedview8"
     showgrid="false"
     inkscape:zoom="0.69532167"
     inkscape:cx="295.85831"
     inkscape:cy="217.17176"
     inkscape:window-x="848"
     inkscape:window-y="34"
     inkscape:window-maximized="0"
     inkscape:current-layer="svg378" />
  <metadata
     id="metadata4346">
    <rdf:RDF>
      <cc:Work
         rdf:about="">
        <dc:format>image/svg+xml</dc:format>
        <dc:type
           rdf:resource="http://purl.org/dc/dcmitype/StillImage" />
        <dc:title></dc:title>
      </cc:Work>
    </rdf:RDF>
  </metadata>
  <g
     transform="matrix(0.9375,0,0,0.9375,80,0)"
     style="fill-rule:evenodd"
     id="flag"
     clip-path="url(#clipPath3133)">
    <rect
       style="fill:#000099"
       id="rect614"
       height="512"
       width="682.66998"
       y="0"
       x="-85.333" />
    <path
       style="fill:#ffcc00"
       inkscape:connector-curvature="0"
       id="path615"
       d="m -85.333,0 682.67,512 V 0 Z" />
    <polygon
       style="fill:#ffffff"
       id="polygon621"
       transform="matrix(0.43691,0,0,0.43691,-188.29,47.624)"
       points="235.65,-43.357 304.67,-43.357 326,-109 326,-109 347.33,-43.357 416.35,-43.357 360.51,-2.7868 381.84,62.857 326,22.287 270.16,62.857 291.49,-2.7868 " />
    <polygon
       style="fill:#ffffff"
       id="polygon622"
       transform="matrix(0.43691,0,0,0.43691,-112.34,102.24)"
       points="304.67,-43.357 326,-109 326,-109 347.33,-43.357 416.35,-43.357 360.51,-2.7868 381.84,62.857 326,22.287 270.16,62.857 291.49,-2.7868 235.65,-43.357 " />
    <polygon
       style="fill:#ffffff"
       id="polygon616"
       transform="matrix(0.43691,0,0,0.43691,-36.397,156.85)"
       points="326,-109 326,-109 347.33,-43.357 416.35,-43.357 360.51,-2.7868 381.84,62.857 326,22.287 270.16,62.857 291.49,-2.7868 235.65,-43.357 304.67,-43.357 " />
    <polygon
       style="fill:#ffffff"
       id="polygon623"
       transform="matrix(0.43691,0,0,0.43691,39.551,211.47)"
       points="326,-109 347.33,-43.357 416.35,-43.357 360.51,-2.7868 381.84,62.857 326,22.287 270.16,62.857 291.49,-2.7868 235.65,-43.357 304.67,-43.357 326,-109 " />
    <polygon
       style="fill:#ffffff"
       id="polygon624"
       transform="matrix(0.43691,0,0,0.43691,115.5,266.08)"
       points="347.33,-43.357 416.35,-43.357 360.51,-2.7868 381.84,62.857 326,22.287 270.16,62.857 291.49,-2.7868 235.65,-43.357 304.67,-43.357 326,-109 " />
    <polygon
       style="fill:#ffffff"
       id="polygon625"
       transform="matrix(0.43691,0,0,0.43691,191.45,320.69)"
       points="416.35,-43.357 360.51,-2.7868 381.84,62.857 326,22.287 270.16,62.857 291.49,-2.7868 235.65,-43.357 304.67,-43.357 326,-109 347.33,-43.357 " />
    <polygon
       style="fill:#ffffff"
       id="polygon626"
       transform="matrix(0.43691,0,0,0.43691,267.39,375.31)"
       points="360.51,-2.7868 381.84,62.857 326,22.287 270.16,62.857 291.49,-2.7868 235.65,-43.357 304.67,-43.357 326,-109 347.33,-43.357 416.35,-43.357 " />
    <polygon
       style="fill:#ffffff"
       id="polygon627"
       transform="matrix(0.43691,0,0,0.43691,343.34,429.92)"
       points="381.84,62.857 326,22.287 270.16,62.857 291.49,-2.7868 235.65,-43.357 304.67,-43.357 326,-109 347.33,-43.357 416.35,-43.357 360.51,-2.7868 " />
    <polygon
       style="fill:#ffffff"
       id="polygon628"
       transform="matrix(0.43691,0,0,0.43691,419.29,484.54)"
       points="326,22.287 270.16,62.857 291.49,-2.7868 235.65,-43.357 304.67,-43.357 326,-109 326,-109 347.33,-43.357 416.35,-43.357 360.51,-2.7868 381.84,62.857 " />
  </g>
</svg>
