<?xml version="1.0" encoding="UTF-8" standalone="no"?>
<!-- Created with Sodipodi ("http://www.sodipodi.com/") -->

<svg
   xmlns:dc="http://purl.org/dc/elements/1.1/"
   xmlns:cc="http://creativecommons.org/ns#"
   xmlns:rdf="http://www.w3.org/1999/02/22-rdf-syntax-ns#"
   xmlns:svg="http://www.w3.org/2000/svg"
   xmlns="http://www.w3.org/2000/svg"
   xmlns:sodipodi="http://sodipodi.sourceforge.net/DTD/sodipodi-0.dtd"
   xmlns:inkscape="http://www.inkscape.org/namespaces/inkscape"
   id="svg548"
   sodipodi:version="0.33pre"
   width="640"
   height="480"
   sodipodi:docname="bi.svg"
   version="1.1"
   inkscape:version="0.48.1 r9760">
  <sodipodi:namedview
     id="base"
     showgrid="false"
     inkscape:zoom="0.98242188"
     inkscape:cx="256"
     inkscape:cy="256"
     inkscape:window-width="1280"
     inkscape:window-height="746"
     inkscape:window-x="0"
     inkscape:window-y="24"
     inkscape:window-maximized="1"
     inkscape:current-layer="svg548" />
  <metadata
     id="metadata3031">
    <rdf:RDF>
      <cc:Work
         rdf:about="">
        <dc:format>image/svg+xml</dc:format>
        <dc:type
           rdf:resource="http://purl.org/dc/dcmitype/StillImage" />
      </cc:Work>
    </rdf:RDF>
  </metadata>
  <defs
     id="defs550">
    <clipPath
       clipPathUnits="userSpaceOnUse"
       id="clipPath3072">
      <rect
         style="fill:#808080;fill-opacity:1;stroke:none"
         id="rect3074"
         width="175.00002"
         height="175.00002"
         x="60.839863"
         y="337" />
    </clipPath>
    <clipPath
       clipPathUnits="userSpaceOnUse"
       id="clipPath3172">
      <rect
         id="rect3174"
         height="512"
         x="-90.533424"
         style="fill:#000000;fill-opacity:0.67000002;stroke:none"
         width="682.66669"
         y="3.8538667e-05" />
    </clipPath>
  </defs>
  <g
     transform="matrix(0.93749998,0,0,0.93749998,84.87508,-3.6129999e-5)"
     id="flag"
     clip-path="url(#clipPath3172)"
     inkscape:label="#g3125">
    <path
       inkscape:connector-curvature="0"
       id="path551"
       d="m -177.99998,3.8e-5 428.7999,256.000002 -428.7999,256.00001 z"
       style="font-size:12px;fill:#00cf00;fill-opacity:1;fill-rule:evenodd;stroke-width:1pt" />
    <path
       inkscape:connector-curvature="0"
       id="path552"
       d="M 679.59982,3.8e-5 250.79992,256.00004 679.59982,512.00005 z"
       style="font-size:12px;fill:#00cf00;fill-opacity:1;fill-rule:evenodd;stroke-width:1pt" />
    <path
       inkscape:connector-curvature="0"
       id="path556"
       d="M -177.99998,3.8e-5 250.79992,256.00004 679.59982,3.8e-5 z"
       style="font-size:12px;fill:#ff0000;fill-opacity:1;fill-rule:evenodd;stroke-width:1pt" />
    <path
       inkscape:connector-curvature="0"
       id="path557"
       d="m -177.99998,512.00005 428.7999,-256.00001 428.7999,256.00001 z"
       style="font-size:12px;fill:#ff0000;fill-opacity:1;fill-rule:evenodd;stroke-width:1pt" />
    <path
       inkscape:connector-curvature="0"
       id="path558"
       d="m 679.59982,3.8e-5 -79.90216,0 -777.69764,464.297232 0,47.70278 79.90214,0 777.69766,-464.29724 z"
       style="font-size:12px;fill:#ffffff;fill-opacity:1;fill-rule:evenodd;stroke-width:1pt" />
    <path
       transform="matrix(2.925714,0,0,2.925714,-177.04086,-1.8602187)"
       sodipodi:ry="50.604351"
       sodipodi:rx="50.604351"
       sodipodi:cy="88.135818"
       sodipodi:cx="146.23465"
       d="m 196.839,88.135818 c 0,27.948012 -22.65634,50.604352 -50.60435,50.604352 -27.94801,0 -50.604351,-22.65634 -50.604351,-50.604352 0,-27.948011 22.656341,-50.604351 50.604351,-50.604351 27.94801,0 50.60435,22.65634 50.60435,50.604351 z"
       id="path571"
       style="fill:#ffffff;fill-opacity:1;fill-rule:evenodd;stroke:none"
       sodipodi:type="arc" />
    <path
       inkscape:connector-curvature="0"
       id="path566"
       d="m -177.99998,3.8e-5 0,47.702772 777.69764,464.29724 79.90216,0 0,-47.70278 L -98.09784,3.8e-5 z"
       style="font-size:12px;fill:#ffffff;fill-opacity:1;fill-rule:evenodd;stroke-width:1pt" />
    <polygon
       d="m 134.28087,105.86726 -6.57603,0.1131 -3.40832,5.62497 -3.38596,-5.63845 -6.57553,-0.13921 3.19007,-5.75156 -3.16721,-5.764175 6.57603,-0.1131 3.40832,-5.624968 3.38596,5.638455 6.57553,0.139209 -3.19007,5.751559 z"
       inkscape:randomized="0"
       inkscape:rounded="0"
       inkscape:flatsided="false"
       transform="matrix(2.925714,0,0,2.925714,-112.92303,-109.58317)"
       points="134.281,105.867 127.705,105.98 124.297,111.605 120.911,105.967 114.335,105.828 117.525,100.076 114.358,94.3119 120.934,94.1988 124.342,88.5739 127.728,94.2123 134.304,94.3515 131.114,100.103 134.281,105.867 "
       sodipodi:arg2="1.0491827"
       sodipodi:arg1="0.52558392"
       sodipodi:r2="6.7942958"
       sodipodi:r1="11.515756"
       sodipodi:cy="100.0896"
       sodipodi:cx="124.31938"
       sodipodi:sides="6"
       id="polygon576"
       style="font-size:12px;fill:#ff0000;fill-opacity:1;fill-rule:evenodd;stroke:#00de00;stroke-width:1pt;stroke-opacity:1"
       sodipodi:type="star" />
    <polygon
       d="m 134.28087,105.86726 -6.57603,0.1131 -3.40832,5.62497 -3.38596,-5.63845 -6.57553,-0.13921 3.19007,-5.75156 -3.16721,-5.764175 6.57603,-0.1131 3.40832,-5.624968 3.38596,5.638455 6.57553,0.139209 -3.19007,5.751559 z"
       inkscape:randomized="0"
       inkscape:rounded="0"
       inkscape:flatsided="false"
       transform="matrix(2.925714,0,0,2.925714,-177.41713,2.0401676)"
       points="134.281,105.867 127.705,105.98 124.297,111.605 120.911,105.967 114.335,105.828 117.525,100.076 114.358,94.3119 120.934,94.1988 124.342,88.5739 127.728,94.2123 134.304,94.3515 131.114,100.103 134.281,105.867 "
       sodipodi:arg2="1.0491827"
       sodipodi:arg1="0.52558392"
       sodipodi:r2="6.7942958"
       sodipodi:r1="11.515756"
       sodipodi:cy="100.0896"
       sodipodi:cx="124.31938"
       sodipodi:sides="6"
       id="polygon577"
       style="font-size:12px;fill:#ff0000;fill-opacity:1;fill-rule:evenodd;stroke:#00de00;stroke-width:1pt;stroke-opacity:1"
       sodipodi:type="star" />
    <polygon
       d="m 134.28087,105.86726 -6.57603,0.1131 -3.40832,5.62497 -3.38596,-5.63845 -6.57553,-0.13921 3.19007,-5.75156 -3.16721,-5.764175 6.57603,-0.1131 3.40832,-5.624968 3.38596,5.638455 6.57553,0.139209 -3.19007,5.751559 z"
       inkscape:randomized="0"
       inkscape:rounded="0"
       inkscape:flatsided="false"
       transform="matrix(2.925714,0,0,2.925714,-46.849936,2.0401676)"
       points="134.281,105.867 127.705,105.98 124.297,111.605 120.911,105.967 114.335,105.828 117.525,100.076 114.358,94.3119 120.934,94.1988 124.342,88.5739 127.728,94.2123 134.304,94.3515 131.114,100.103 134.281,105.867 "
       sodipodi:arg2="1.0491827"
       sodipodi:arg1="0.52558392"
       sodipodi:r2="6.7942958"
       sodipodi:r1="11.515756"
       sodipodi:cy="100.0896"
       sodipodi:cx="124.31938"
       sodipodi:sides="6"
       id="polygon578"
       style="font-size:12px;fill:#ff0000;fill-opacity:1;fill-rule:evenodd;stroke:#00de00;stroke-width:1pt;stroke-opacity:1"
       sodipodi:type="star" />
  </g>
</svg>
