<?xml version="1.0" encoding="UTF-8" standalone="no"?>
<!-- Created with Sodipodi ("http://www.sodipodi.com/") -->

<svg
   xmlns:dc="http://purl.org/dc/elements/1.1/"
   xmlns:cc="http://creativecommons.org/ns#"
   xmlns:rdf="http://www.w3.org/1999/02/22-rdf-syntax-ns#"
   xmlns:svg="http://www.w3.org/2000/svg"
   xmlns="http://www.w3.org/2000/svg"
   xmlns:xlink="http://www.w3.org/1999/xlink"
   xmlns:sodipodi="http://sodipodi.sourceforge.net/DTD/sodipodi-0.dtd"
   xmlns:inkscape="http://www.inkscape.org/namespaces/inkscape"
   id="svg1"
   sodipodi:version="0.32"
   width="640"
   height="480"
   sodipodi:docname="ck.svg"
   version="1.1"
   inkscape:version="0.48.1 r9760">
  <sodipodi:namedview
     id="base"
     showgrid="false"
     inkscape:zoom="0.33060318"
     inkscape:cx="111.91665"
     inkscape:cy="248.03149"
     inkscape:window-width="1280"
     inkscape:window-height="746"
     inkscape:window-x="0"
     inkscape:window-y="24"
     inkscape:window-maximized="1"
     inkscape:current-layer="svg1" />
  <metadata
     id="metadata3075">
    <rdf:RDF>
      <cc:Work
         rdf:about="">
        <dc:format>image/svg+xml</dc:format>
        <dc:type
           rdf:resource="http://purl.org/dc/dcmitype/StillImage" />
      </cc:Work>
    </rdf:RDF>
  </metadata>
  <defs
     id="defs3">
    <linearGradient
       id="linearGradient1108">
      <stop
         id="stop1109"
         offset="0"
         style="stop-color:#000;stop-opacity:1;" />
      <stop
         id="stop1110"
         offset="1"
         style="stop-color:#fff;stop-opacity:1;" />
    </linearGradient>
    <linearGradient
       id="linearGradient1111"
       xlink:href="#linearGradient1108" />
    <linearGradient
       id="linearGradient1112"
       xlink:href="#linearGradient1108" />
    <linearGradient
       id="linearGradient1113"
       xlink:href="#linearGradient1108" />
    <linearGradient
       id="linearGradient1114"
       xlink:href="#linearGradient1108" />
    <linearGradient
       id="linearGradient1115"
       xlink:href="#linearGradient1108" />
    <linearGradient
       id="linearGradient1116"
       xlink:href="#linearGradient1108" />
    <linearGradient
       id="linearGradient1117"
       xlink:href="#linearGradient1108" />
    <linearGradient
       id="linearGradient1118"
       xlink:href="#linearGradient1108" />
    <linearGradient
       id="linearGradient1119"
       xlink:href="#linearGradient1108" />
    <linearGradient
       id="linearGradient1120"
       xlink:href="#linearGradient1108" />
    <linearGradient
       id="linearGradient1121"
       xlink:href="#linearGradient1108" />
    <linearGradient
       id="linearGradient1122"
       xlink:href="#linearGradient1108" />
    <linearGradient
       id="linearGradient1123"
       xlink:href="#linearGradient1108" />
    <linearGradient
       id="linearGradient1124"
       xlink:href="#linearGradient1108" />
    <linearGradient
       id="linearGradient1125"
       xlink:href="#linearGradient1108" />
    <linearGradient
       id="linearGradient1126"
       xlink:href="#linearGradient1108" />
    <linearGradient
       id="linearGradient1127"
       xlink:href="#linearGradient1108" />
    <linearGradient
       id="linearGradient1128"
       xlink:href="#linearGradient1108" />
    <linearGradient
       id="linearGradient1129"
       xlink:href="#linearGradient1108" />
    <linearGradient
       id="linearGradient1130"
       xlink:href="#linearGradient1108" />
    <linearGradient
       id="linearGradient1131"
       xlink:href="#linearGradient1108" />
    <linearGradient
       id="linearGradient1132"
       xlink:href="#linearGradient1108" />
    <linearGradient
       id="linearGradient1133"
       xlink:href="#linearGradient1108" />
    <linearGradient
       id="linearGradient1134"
       xlink:href="#linearGradient1108" />
    <linearGradient
       id="linearGradient1135"
       xlink:href="#linearGradient1108" />
    <linearGradient
       id="linearGradient1136"
       xlink:href="#linearGradient1108" />
    <linearGradient
       id="linearGradient1137"
       xlink:href="#linearGradient1108" />
    <linearGradient
       id="linearGradient1138"
       xlink:href="#linearGradient1108" />
    <linearGradient
       id="linearGradient1139"
       xlink:href="#linearGradient1108" />
    <linearGradient
       id="linearGradient1140"
       xlink:href="#linearGradient1108" />
    <linearGradient
       id="linearGradient1141"
       xlink:href="#linearGradient1108" />
    <linearGradient
       id="linearGradient1142"
       xlink:href="#linearGradient1108" />
    <linearGradient
       id="linearGradient1143"
       xlink:href="#linearGradient1108" />
    <linearGradient
       id="linearGradient1144"
       xlink:href="#linearGradient1108" />
    <linearGradient
       id="linearGradient1145"
       xlink:href="#linearGradient1108" />
    <linearGradient
       id="linearGradient1146"
       xlink:href="#linearGradient1108" />
    <linearGradient
       id="linearGradient1147"
       xlink:href="#linearGradient1108" />
    <linearGradient
       id="linearGradient1148"
       xlink:href="#linearGradient1108" />
    <linearGradient
       id="linearGradient1149"
       xlink:href="#linearGradient1108" />
    <linearGradient
       id="linearGradient1150"
       xlink:href="#linearGradient1108" />
    <linearGradient
       id="linearGradient1151"
       xlink:href="#linearGradient1108" />
    <linearGradient
       id="linearGradient1152"
       xlink:href="#linearGradient1108" />
    <linearGradient
       id="linearGradient1153"
       xlink:href="#linearGradient1108" />
    <linearGradient
       id="linearGradient1154"
       xlink:href="#linearGradient1108" />
    <linearGradient
       id="linearGradient1155"
       xlink:href="#linearGradient1108" />
    <linearGradient
       id="linearGradient1156"
       xlink:href="#linearGradient1108" />
    <linearGradient
       id="linearGradient1157"
       xlink:href="#linearGradient1108" />
    <linearGradient
       id="linearGradient1158"
       xlink:href="#linearGradient1108" />
    <linearGradient
       id="linearGradient1159"
       xlink:href="#linearGradient1108" />
    <linearGradient
       id="linearGradient1160"
       xlink:href="#linearGradient1108" />
    <linearGradient
       id="linearGradient1161"
       xlink:href="#linearGradient1108" />
    <linearGradient
       id="linearGradient1162"
       xlink:href="#linearGradient1108" />
    <linearGradient
       id="linearGradient1163"
       xlink:href="#linearGradient1108" />
    <linearGradient
       id="linearGradient1164"
       xlink:href="#linearGradient1108" />
    <linearGradient
       id="linearGradient1165"
       xlink:href="#linearGradient1108" />
    <linearGradient
       id="linearGradient1166"
       xlink:href="#linearGradient1108" />
    <linearGradient
       id="linearGradient1167"
       xlink:href="#linearGradient1108" />
    <linearGradient
       id="linearGradient1168"
       xlink:href="#linearGradient1108" />
    <linearGradient
       id="linearGradient1169"
       xlink:href="#linearGradient1108" />
    <linearGradient
       id="linearGradient1170"
       xlink:href="#linearGradient1108" />
    <linearGradient
       id="linearGradient1171"
       xlink:href="#linearGradient1108" />
    <linearGradient
       id="linearGradient1172"
       xlink:href="#linearGradient1108" />
  </defs>
  <g
     id="flag"
     inkscape:label="#g3110">
    <rect
       inkscape:label="#rect124"
       style="font-size:12px;fill:#000066;stroke-width:1pt"
       id="rect124"
       x="0"
       y="0"
       width="640"
       height="480" />
    <g
       id="g3104"
       transform="matrix(0.81518597,0,0,0.81518597,0,-1.8658123e-5)">
      <path
         inkscape:connector-curvature="0"
         style="font-size:12px;fill:#ffffff;stroke-width:1pt"
         d="M 0,2.288818e-5 0,30.436208 392.24277,272.22969 l 49.37425,0 0,-30.43618 L 49.374255,2.288818e-5 0,2.288818e-5 z m 441.61702,0 0,30.43573111182 L 49.374255,272.22969 0,272.22969 0,241.7926 392.24277,2.288818e-5 l 49.37425,0 z"
         id="path146" />
      <path
         inkscape:connector-curvature="0"
         style="font-size:12px;fill:#ffffff;stroke-width:1pt"
         d="m 184.00709,2.288818e-5 0,272.22966711182 73.60284,0 0,-272.22966711182 -73.60284,0 z M 0,90.743247 l 0,90.743223 441.61702,0 0,-90.743223 -441.61702,0 z"
         id="path136" />
      <path
         inkscape:connector-curvature="0"
         style="font-size:12px;fill:#cc0000;stroke-width:1pt"
         d="m 0,108.89189 0,54.44594 441.61702,0 0,-54.44594 -441.61702,0 z M 198.72766,2.288818e-5 l 0,272.22966711182 44.1617,0 0,-272.22966711182 -44.1617,0 z"
         id="path141" />
      <path
         inkscape:connector-curvature="0"
         style="font-size:12px;fill:#cc0000;stroke-width:1pt"
         d="m 0,272.22969 147.20567,-90.74322 32.91593,0 L 32.916219,272.22969 0,272.22969 z M 0,2.288818e-5 147.20567,90.743247 l -32.91592,0 L 0,20.290843 0,2.288818e-5 z M 261.49542,90.743247 408.7011,2.288818e-5 l 32.91592,0 L 294.41135,90.743247 l -32.91593,0 z m 180.1216,181.486443 -147.20567,-90.74322 32.91592,0 114.28975,70.45213 0,20.29109 z"
         id="path150" />
    </g>
    <g
       id="g3087"
       transform="matrix(0.85924932,0,0,0.85924932,87.546376,62.775502)">
      <polygon
         inkscape:randomized="0"
         inkscape:rounded="0"
         inkscape:flatsided="false"
         sodipodi:type="star"
         style="font-size:12px;fill:#ffffff;fill-opacity:1;fill-rule:evenodd;stroke:none"
         id="polygon791"
         sodipodi:sides="5"
         sodipodi:cx="683.58209"
         sodipodi:cy="150.74628"
         sodipodi:r1="43.051365"
         sodipodi:r2="17.220547"
         sodipodi:arg1="2.1587994"
         sodipodi:arg2="2.787118"
         points="659.701,186.567 667.432,156.723 642.135,139.104 672.907,137.234 681.847,107.73 693.134,136.418 723.957,135.803 700.161,155.403 710.27,184.527 684.276,167.953 659.701,186.567 "
         transform="matrix(0.66592034,0.03149661,-0.03024956,0.65802852,13.301753,31.285387)"
         d="m 659.70147,186.56717 7.73069,-29.84368 -25.29727,-17.61977 30.77193,-1.86988 8.94011,-29.50395 11.28741,28.68803 30.82257,-0.61468 -23.79593,19.60006 10.10929,29.12406 -25.99411,-16.57453 z" />
      <polygon
         inkscape:randomized="0"
         inkscape:rounded="0"
         inkscape:flatsided="false"
         sodipodi:type="star"
         style="font-size:12px;fill:#ffffff;fill-opacity:1;fill-rule:evenodd;stroke:none"
         id="polygon794"
         sodipodi:sides="5"
         sodipodi:cx="683.58209"
         sodipodi:cy="150.74628"
         sodipodi:r1="43.051365"
         sodipodi:r2="17.220547"
         sodipodi:arg1="2.1587994"
         sodipodi:arg2="2.787118"
         points="659.701,186.567 667.432,156.723 642.135,139.104 672.907,137.234 681.847,107.73 693.134,136.418 723.957,135.803 700.161,155.403 710.27,184.527 684.276,167.953 659.701,186.567 "
         transform="matrix(0.61693109,0.25622899,-0.24608416,0.60961968,134.29748,-104.12631)"
         d="m 659.70147,186.56717 7.73069,-29.84368 -25.29727,-17.61977 30.77193,-1.86988 8.94011,-29.50395 11.28741,28.68803 30.82257,-0.61468 -23.79593,19.60006 10.10929,29.12406 -25.99411,-16.57453 z" />
      <polygon
         inkscape:randomized="0"
         inkscape:rounded="0"
         inkscape:flatsided="false"
         sodipodi:type="star"
         style="font-size:12px;fill:#ffffff;fill-opacity:1;fill-rule:evenodd;stroke:none"
         id="polygon795"
         sodipodi:sides="5"
         sodipodi:cx="683.58209"
         sodipodi:cy="150.74628"
         sodipodi:r1="43.051365"
         sodipodi:r2="17.220547"
         sodipodi:arg1="2.1587994"
         sodipodi:arg2="2.787118"
         points="659.701,186.567 667.432,156.723 642.135,139.104 672.907,137.234 681.847,107.73 693.134,136.418 723.957,135.803 700.161,155.403 710.27,184.527 684.276,167.953 659.701,186.567 "
         transform="matrix(0.63685864,-0.199866,0.19195279,0.62931076,-55.338671,205.45924)"
         d="m 659.70147,186.56717 7.73069,-29.84368 -25.29727,-17.61977 30.77193,-1.86988 8.94011,-29.50395 11.28741,28.68803 30.82257,-0.61468 -23.79593,19.60006 10.10929,29.12406 -25.99411,-16.57453 z" />
      <polygon
         inkscape:randomized="0"
         inkscape:rounded="0"
         inkscape:flatsided="false"
         sodipodi:type="star"
         style="font-size:12px;fill:#ffffff;fill-opacity:1;fill-rule:evenodd;stroke:none"
         id="polygon796"
         sodipodi:sides="5"
         sodipodi:cx="683.58209"
         sodipodi:cy="150.74628"
         sodipodi:r1="43.051365"
         sodipodi:r2="17.220547"
         sodipodi:arg1="2.1587994"
         sodipodi:arg2="2.787118"
         points="659.701,186.567 667.432,156.723 642.135,139.104 672.907,137.234 681.847,107.73 693.134,136.418 723.957,135.803 700.161,155.403 710.27,184.527 684.276,167.953 659.701,186.567 "
         transform="matrix(0.51020886,-0.43522247,0.41799064,0.50416143,-48.070645,415.00354)"
         d="m 659.70147,186.56717 7.73069,-29.84368 -25.29727,-17.61977 30.77193,-1.86988 8.94011,-29.50395 11.28741,28.68803 30.82257,-0.61468 -23.79593,19.60006 10.10929,29.12406 -25.99411,-16.57453 z" />
      <polygon
         inkscape:randomized="0"
         inkscape:rounded="0"
         inkscape:flatsided="false"
         sodipodi:type="star"
         style="font-size:12px;fill:#ffffff;fill-opacity:1;fill-rule:evenodd;stroke:none"
         id="polygon797"
         sodipodi:sides="5"
         sodipodi:cx="683.58209"
         sodipodi:cy="150.74628"
         sodipodi:r1="43.051365"
         sodipodi:r2="17.220547"
         sodipodi:arg1="2.1587994"
         sodipodi:arg2="2.787118"
         points="659.701,186.567 667.432,156.723 642.135,139.104 672.907,137.234 681.847,107.73 693.134,136.418 723.957,135.803 700.161,155.403 710.27,184.527 684.276,167.953 659.701,186.567 "
         transform="matrix(0.27702149,-0.61505583,0.59070317,0.27373785,57.96461,621.23047)"
         d="m 659.70147,186.56717 7.73069,-29.84368 -25.29727,-17.61977 30.77193,-1.86988 8.94011,-29.50395 11.28741,28.68803 30.82257,-0.61468 -23.79593,19.60006 10.10929,29.12406 -25.99411,-16.57453 z" />
      <polygon
         inkscape:randomized="0"
         inkscape:rounded="0"
         inkscape:flatsided="false"
         sodipodi:type="star"
         style="font-size:12px;fill:#ffffff;fill-opacity:1;fill-rule:evenodd;stroke:none"
         id="polygon798"
         sodipodi:sides="5"
         sodipodi:cx="683.58209"
         sodipodi:cy="150.74628"
         sodipodi:r1="43.051365"
         sodipodi:r2="17.220547"
         sodipodi:arg1="2.1587994"
         sodipodi:arg2="2.787118"
         points="659.701,186.567 667.432,156.723 642.135,139.104 672.907,137.234 681.847,107.73 693.134,136.418 723.957,135.803 700.161,155.403 710.27,184.527 684.276,167.953 659.701,186.567 "
         transform="matrix(0.01288666,-0.67607695,0.64930808,0.01273358,220.90499,760.27574)"
         d="m 659.70147,186.56717 7.73069,-29.84368 -25.29727,-17.61977 30.77193,-1.86988 8.94011,-29.50395 11.28741,28.68803 30.82257,-0.61468 -23.79593,19.60006 10.10929,29.12406 -25.99411,-16.57453 z" />
      <polygon
         inkscape:randomized="0"
         inkscape:rounded="0"
         inkscape:flatsided="false"
         sodipodi:type="star"
         style="font-size:12px;fill:#ffffff;fill-opacity:1;fill-rule:evenodd;stroke:none"
         id="polygon799"
         sodipodi:sides="5"
         sodipodi:cx="683.58209"
         sodipodi:cy="150.74628"
         sodipodi:r1="43.051365"
         sodipodi:r2="17.220547"
         sodipodi:arg1="2.1587994"
         sodipodi:arg2="2.787118"
         points="659.701,186.567 667.432,156.723 642.135,139.104 672.907,137.234 681.847,107.73 693.134,136.418 723.957,135.803 700.161,155.403 710.27,184.527 684.276,167.953 659.701,186.567 "
         transform="matrix(-0.25789185,-0.62355615,0.59886615,-0.2548355,431.52673,817.87958)"
         d="m 659.70147,186.56717 7.73069,-29.84368 -25.29727,-17.61977 30.77193,-1.86988 8.94011,-29.50395 11.28741,28.68803 30.82257,-0.61468 -23.79593,19.60006 10.10929,29.12406 -25.99411,-16.57453 z" />
      <polygon
         inkscape:randomized="0"
         inkscape:rounded="0"
         inkscape:flatsided="false"
         sodipodi:type="star"
         style="font-size:12px;fill:#ffffff;fill-opacity:1;fill-rule:evenodd;stroke:none"
         id="polygon800"
         sodipodi:sides="5"
         sodipodi:cx="683.58209"
         sodipodi:cy="150.74628"
         sodipodi:r1="43.051365"
         sodipodi:r2="17.220547"
         sodipodi:arg1="2.1587994"
         sodipodi:arg2="2.787118"
         points="659.701,186.567 667.432,156.723 642.135,139.104 672.907,137.234 681.847,107.73 693.134,136.418 723.957,135.803 700.161,155.403 710.27,184.527 684.276,167.953 659.701,186.567 "
         transform="matrix(-0.45427913,-0.49489466,0.47529904,-0.44889492,619.07097,802.79326)"
         d="m 659.70147,186.56717 7.73069,-29.84368 -25.29727,-17.61977 30.77193,-1.86988 8.94011,-29.50395 11.28741,28.68803 30.82257,-0.61468 -23.79593,19.60006 10.10929,29.12406 -25.99411,-16.57453 z" />
      <polygon
         inkscape:randomized="0"
         inkscape:rounded="0"
         inkscape:flatsided="false"
         sodipodi:type="star"
         style="font-size:12px;fill:#ffffff;fill-opacity:1;fill-rule:evenodd;stroke:none"
         id="polygon801"
         sodipodi:sides="5"
         sodipodi:cx="683.58209"
         sodipodi:cy="150.74628"
         sodipodi:r1="43.051365"
         sodipodi:r2="17.220547"
         sodipodi:arg1="2.1587994"
         sodipodi:arg2="2.787118"
         points="659.701,186.567 667.432,156.723 642.135,139.104 672.907,137.234 681.847,107.73 693.134,136.418 723.957,135.803 700.161,155.403 710.27,184.527 684.276,167.953 659.701,186.567 "
         transform="matrix(-0.64712825,-0.16241773,0.1559864,-0.63945867,848.5009,625.63779)"
         d="m 659.70147,186.56717 7.73069,-29.84368 -25.29727,-17.61977 30.77193,-1.86988 8.94011,-29.50395 11.28741,28.68803 30.82257,-0.61468 -23.79593,19.60006 10.10929,29.12406 -25.99411,-16.57453 z" />
      <polygon
         inkscape:randomized="0"
         inkscape:rounded="0"
         inkscape:flatsided="false"
         sodipodi:type="star"
         style="font-size:12px;fill:#ffffff;fill-opacity:1;fill-rule:evenodd;stroke:none"
         id="polygon802"
         sodipodi:sides="5"
         sodipodi:cx="683.58209"
         sodipodi:cy="150.74628"
         sodipodi:r1="43.051365"
         sodipodi:r2="17.220547"
         sodipodi:arg1="2.1587994"
         sodipodi:arg2="2.787118"
         points="659.701,186.567 667.432,156.723 642.135,139.104 672.907,137.234 681.847,107.73 693.134,136.418 723.957,135.803 700.161,155.403 710.27,184.527 684.276,167.953 659.701,186.567 "
         transform="matrix(-0.64911531,0.15404364,-0.14794461,-0.64142225,954.42521,409.88082)"
         d="m 659.70147,186.56717 7.73069,-29.84368 -25.29727,-17.61977 30.77193,-1.86988 8.94011,-29.50395 11.28741,28.68803 30.82257,-0.61468 -23.79593,19.60006 10.10929,29.12406 -25.99411,-16.57453 z" />
      <polygon
         inkscape:randomized="0"
         inkscape:rounded="0"
         inkscape:flatsided="false"
         sodipodi:type="star"
         style="font-size:12px;fill:#ffffff;fill-opacity:1;fill-rule:evenodd;stroke:none"
         id="polygon803"
         sodipodi:sides="5"
         sodipodi:cx="683.58209"
         sodipodi:cy="150.74628"
         sodipodi:r1="43.051365"
         sodipodi:r2="17.220547"
         sodipodi:arg1="2.1587994"
         sodipodi:arg2="2.787118"
         points="659.701,186.567 667.432,156.723 642.135,139.104 672.907,137.234 681.847,107.73 693.134,136.418 723.957,135.803 700.161,155.403 710.27,184.527 684.276,167.953 659.701,186.567 "
         transform="matrix(-0.34579352,0.57812156,-0.55523212,-0.3416942,880.42485,-146.58295)"
         d="m 659.70147,186.56717 7.73069,-29.84368 -25.29727,-17.61977 30.77193,-1.86988 8.94011,-29.50395 11.28741,28.68803 30.82257,-0.61468 -23.79593,19.60006 10.10929,29.12406 -25.99411,-16.57453 z" />
      <polygon
         inkscape:randomized="0"
         inkscape:rounded="0"
         inkscape:flatsided="false"
         sodipodi:type="star"
         style="font-size:12px;fill:#ffffff;fill-opacity:1;fill-rule:evenodd;stroke:none"
         id="polygon804"
         sodipodi:sides="5"
         sodipodi:cx="683.58209"
         sodipodi:cy="150.74628"
         sodipodi:r1="43.051365"
         sodipodi:r2="17.220547"
         sodipodi:arg1="2.1587994"
         sodipodi:arg2="2.787118"
         points="659.701,186.567 667.432,156.723 642.135,139.104 672.907,137.234 681.847,107.73 693.134,136.418 723.957,135.803 700.161,155.403 710.27,184.527 684.276,167.953 659.701,186.567 "
         transform="matrix(-0.55769989,0.37045652,-0.35578983,-0.55108934,1024.6898,74.614155)"
         d="m 659.70147,186.56717 7.73069,-29.84368 -25.29727,-17.61977 30.77193,-1.86988 8.94011,-29.50395 11.28741,28.68803 30.82257,-0.61468 -23.79593,19.60006 10.10929,29.12406 -25.99411,-16.57453 z" />
      <polygon
         inkscape:randomized="0"
         inkscape:rounded="0"
         inkscape:flatsided="false"
         sodipodi:type="star"
         style="font-size:12px;fill:#ffffff;fill-opacity:1;fill-rule:evenodd;stroke:none"
         id="polygon805"
         sodipodi:sides="5"
         sodipodi:cx="683.58209"
         sodipodi:cy="150.74628"
         sodipodi:r1="43.051365"
         sodipodi:r2="17.220547"
         sodipodi:arg1="2.1587994"
         sodipodi:arg2="2.787118"
         points="659.701,186.567 667.432,156.723 642.135,139.104 672.907,137.234 681.847,107.73 693.134,136.418 723.957,135.803 700.161,155.403 710.27,184.527 684.276,167.953 659.701,186.567 "
         transform="matrix(-0.65982414,0.09647694,-0.09265825,-0.6520033,1058.5813,332.19799)"
         d="m 659.70147,186.56717 7.73069,-29.84368 -25.29727,-17.61977 30.77193,-1.86988 8.94011,-29.50395 11.28741,28.68803 30.82257,-0.61468 -23.79593,19.60006 10.10929,29.12406 -25.99411,-16.57453 z" />
      <polygon
         inkscape:randomized="0"
         inkscape:rounded="0"
         inkscape:flatsided="false"
         sodipodi:type="star"
         style="font-size:12px;fill:#ffffff;fill-opacity:1;fill-rule:evenodd;stroke:none"
         id="polygon806"
         sodipodi:sides="5"
         sodipodi:cx="683.58209"
         sodipodi:cy="150.74628"
         sodipodi:r1="43.051365"
         sodipodi:r2="17.220547"
         sodipodi:arg1="2.1587994"
         sodipodi:arg2="2.787118"
         points="659.701,186.567 667.432,156.723 642.135,139.104 672.907,137.234 681.847,107.73 693.134,136.418 723.957,135.803 700.161,155.403 710.27,184.527 684.276,167.953 659.701,186.567 "
         transform="matrix(-0.65231836,-0.13943148,0.13390911,-0.64458708,1000.3448,547.27018)"
         d="m 659.70147,186.56717 7.73069,-29.84368 -25.29727,-17.61977 30.77193,-1.86988 8.94011,-29.50395 11.28741,28.68803 30.82257,-0.61468 -23.79593,19.60006 10.10929,29.12406 -25.99411,-16.57453 z" />
      <polygon
         inkscape:randomized="0"
         inkscape:rounded="0"
         inkscape:flatsided="false"
         sodipodi:type="star"
         style="font-size:12px;fill:#ffffff;fill-opacity:1;fill-rule:evenodd;stroke:none"
         id="polygon807"
         sodipodi:sides="5"
         sodipodi:cx="683.58209"
         sodipodi:cy="150.74628"
         sodipodi:r1="43.051365"
         sodipodi:r2="17.220547"
         sodipodi:arg1="2.1587994"
         sodipodi:arg2="2.787118"
         points="659.701,186.567 667.432,156.723 642.135,139.104 672.907,137.234 681.847,107.73 693.134,136.418 723.957,135.803 700.161,155.403 710.27,184.527 684.276,167.953 659.701,186.567 "
         transform="matrix(-0.48373775,-0.46528503,0.4468612,-0.4780054,800.7252,785.2538)"
         d="m 659.70147,186.56717 7.73069,-29.84368 -25.29727,-17.61977 30.77193,-1.86988 8.94011,-29.50395 11.28741,28.68803 30.82257,-0.61468 -23.79593,19.60006 10.10929,29.12406 -25.99411,-16.57453 z" />
    </g>
  </g>
</svg>
