<?xml version="1.0" encoding="UTF-8" standalone="no"?>
<!-- Created with Sodipodi ("http://www.sodipodi.com/") -->

<svg
   xmlns:dc="http://purl.org/dc/elements/1.1/"
   xmlns:cc="http://creativecommons.org/ns#"
   xmlns:rdf="http://www.w3.org/1999/02/22-rdf-syntax-ns#"
   xmlns:svg="http://www.w3.org/2000/svg"
   xmlns="http://www.w3.org/2000/svg"
   xmlns:sodipodi="http://sodipodi.sourceforge.net/DTD/sodipodi-0.dtd"
   xmlns:inkscape="http://www.inkscape.org/namespaces/inkscape"
   id="svg697"
   sodipodi:version="0.33pre"
   width="640"
   height="480"
   sodipodi:docname="cx.svg"
   version="1.1"
   inkscape:version="0.48.1 r9760">
  <sodipodi:namedview
     id="base"
     showgrid="true"
     snaptogrid="false"
     inkscape:zoom="0.33060318"
     inkscape:cx="111.91665"
     inkscape:cy="248.03149"
     inkscape:window-width="1280"
     inkscape:window-height="746"
     inkscape:window-x="0"
     inkscape:window-y="24"
     inkscape:window-maximized="1"
     inkscape:current-layer="svg697" />
  <metadata
     id="metadata3022">
    <rdf:RDF>
      <cc:Work
         rdf:about="">
        <dc:format>image/svg+xml</dc:format>
        <dc:type
           rdf:resource="http://purl.org/dc/dcmitype/StillImage" />
      </cc:Work>
    </rdf:RDF>
  </metadata>
  <defs
     id="defs699">
    <clipPath
       clipPathUnits="userSpaceOnUse"
       id="clipPath3489">
      <rect
         id="rect3491"
         height="480"
         x="0"
         style="fill:#000000;fill-opacity:0.67000002;stroke:none"
         width="640"
         y="0" />
    </clipPath>
  </defs>
  <g
     id="flag"
     clip-path="url(#clipPath3489)"
     inkscape:label="#g3443">
    <rect
       inkscape:label="#rect3447"
       style="font-size:12px;fill:#0021ad;fill-opacity:1;fill-rule:evenodd;stroke-width:1pt"
       id="rect3447"
       width="640"
       height="480"
       x="0"
       y="5.2633959e-06" />
    <path
       inkscape:connector-curvature="0"
       style="font-size:12px;fill:#1c8a42;fill-opacity:1;fill-rule:evenodd;stroke:none"
       d="M 2.6362305e-5,-1.4339604e-7 640.00002,480 639.63365,0.35560771 2.6362305e-5,-1.4339604e-7 z"
       id="path3446"
       sodipodi:nodetypes="cccc" />
    <path
       sodipodi:type="arc"
       style="fill:#ffc639;fill-opacity:1;fill-rule:evenodd;stroke:none"
       id="path733"
       d="m 227.50007,97.283752 a 34.921883,34.921875 0 1 1 -69.84377,0 34.921883,34.921875 0 1 1 69.84377,0 z"
       sodipodi:cx="192.57819"
       sodipodi:cy="97.283752"
       sodipodi:rx="34.921883"
       sodipodi:ry="34.921875"
       transform="matrix(3.1466885,0,0,3.1466872,-287.54445,-51.027085)" />
    <path
       inkscape:connector-curvature="0"
       style="fill:#1c8a42;fill-opacity:1;fill-rule:evenodd;stroke:none"
       d="m 250.12307,206.06135 c 7.51708,10.32277 18.90304,27.60589 28.06821,23.09812 7.14306,0.0233 10.83783,0.52975 11.80659,5.28033 16.86374,2.8744 45.20786,-4.24168 62.83189,-27.20246 0,0 1.48991,0.19253 0.9712,-8.53733 0.0981,-3.80757 5.20063,-3.03871 5.32327,-1.8112 0.71369,1.89092 0.58493,3.30971 1.54143,3.35631 2.18031,-0.72963 5.14544,-5.59427 7.63111,-8.68203 0.68058,-1.3624 0.31024,-2.80327 0.46844,-4.51146 1.30966,-3.23001 4.58136,-2.52491 5.27421,-0.83754 0.61926,1.08893 0.62908,1.92892 1.24834,3.01785 3.32075,2.2122 9.32093,0.14716 9.78936,0.14716 0.58861,-2.70517 2.32992,-2.45133 2.32992,-2.45133 2.21221,-0.48928 1.3489,-0.29185 2.79713,0.46598 -1.28145,14.60494 2.87318,15.24874 2.52981,22.74742 0.14838,8.35706 -2.52981,10.73357 -2.52981,13.93416 0.84981,3.88852 13.18492,4.02341 8.84267,7.32208 -3.81493,2.0393 0.0209,5.85547 -5.72793,7.33313 -16.69329,8.47847 -19.89386,15.75028 -19.89386,15.75028 0,0 -4.19385,7.92418 -4.65984,7.92418 -2.80326,5.28648 -6.34721,2.39738 -8.31292,4.97746 -0.98471,3.2386 -2.0908,10.40863 -0.12268,14.13773 0.98224,5.12339 -0.12268,7.91805 -1.35381,13.04513 -1.10611,10.69066 -5.34288,12.31057 -5.83217,16.07033 -1.96817,4.00747 0.41326,22.83692 -1.44945,22.83692 -12.43566,0.24525 -21.96627,-2.37898 -26.88364,-3.36 4.79475,-20.65293 2.93816,-38.81161 2.93816,-40.67433 -1.23118,-14.77415 -22.1404,-11.17749 -25.33362,-13.1432 -2.65611,-0.5641 -4.32384,-2.72479 -5.25827,-3.65799 -2.95286,-0.31025 -4.05897,-0.99083 -7.01183,-1.29862 -1.47643,0.73577 -0.58617,1.50095 -3.87627,2.51142 -8.33376,1.00553 -12.02117,-7.26569 -12.02117,-7.26569 0.40712,-2.78855 -18.74117,0.56776 -29.15102,-1.848 -4.26866,2.37897 -6.13137,9.41412 -9.63116,10.25289 -0.0994,2.18032 -5.74633,-1.79159 -6.88554,-3.93757 -0.24402,-6.24297 5.44099,-9.00943 5.44099,-9.00943 4.50656,-3.16872 7.1872,-3.68987 9.35892,-5.87633 1.08894,-5.4373 0.53834,-9.45704 2.856,-13.54421 1.96082,-3.11842 4.85237,-1.65547 6.8132,-3.05588 2.11409,-1.39672 3.0019,-10.54106 1.06071,-13.04756 0,0 -8.43922,-7.61393 -8.90398,-8.07871 -2.74808,-7.87636 3.20795,-12.94824 4.91736,-12.37801 z"
       id="path732"
       sodipodi:nodetypes="cccccccccccccccccccccccccccccccccccccccccc" />
    <path
       inkscape:connector-curvature="0"
       style="fill:#ffc639;fill-opacity:1;fill-rule:evenodd;stroke:none"
       d="m 579.5074,72.57392 c -2.83989,-11.235311 -28.25209,-35.433371 -47.34953,-50.831602 -4.56229,-3.106192 -7.53365,-1.256098 -6.93995,3.172557 2.37976,3.965852 4.16159,8.326326 6.54275,12.292108 0.66084,2.64325 1.9161,4.493342 2.57696,7.136591 0,0 0.1972,4.559636 0.5965,4.956145 5.94624,6.544835 6.73925,12.094554 6.73925,12.094554 3.43639,6.609173 6.4756,11.432799 12.49106,16.851535 6.74063,4.22942 1.78184,17.38134 1.98115,24.387712 0,4.42803 -3.17067,3.89935 -5.94694,3.36928 -21.87438,-20.090463 -43.55157,-20.1555 -62.65251,-25.970957 -7.46583,-0.793714 -7.5987,2.775557 -5.15321,4.756702 13.34912,14.275705 25.90731,23.990515 42.42918,32.119285 2.77557,1.7189 5.54973,3.4371 8.32599,5.15601 3.17276,2.64268 6.34343,5.28607 9.5162,7.92947 7.33575,4.75878 7.93156,9.12108 7.93156,9.51548 0.19652,8.9225 -4.5616,15.86105 -5.94972,18.6373 -2.50492,9.46235 -7.53226,11.10294 -7.53226,11.10294 -40.84175,27.55907 -62.256,34.69553 -128.475,26.17026 -0.99093,-0.52869 -7.33646,0.52866 0,3.17276 16.85406,5.61686 58.25175,14.62254 98.3026,-4.34412 9.61621,-6.74202 16.04986,-4.53012 23.01568,-8.56584 11.43651,-7.05323 27.77514,-15.83726 30.74862,-16.82817 8.92178,-4.7588 33.90181,-10.11202 39.65224,-14.87081 6.60846,-0.52939 13.4547,-1.39583 13.91765,-7.07912 2.17345,-1.40141 5.34342,-0.37901 7.70358,-5.00495 5.23293,-0.9112 4.3518,-2.78674 4.3518,-2.78674 -1.32098,-3.69935 -6.21266,-5.22036 -9.71338,-7.92877 -5.15602,-1.71961 -8.7232,-2.24759 -12.49178,-0.39792 -1.18952,0.53007 -2.37905,1.05806 -3.56857,1.58674 0,0 -5.55112,-0.79232 -5.55112,-1.18882 -12.33652,-0.67693 -11.1358,-41.558561 -15.4988,-58.60961 z"
       id="path3443"
       sodipodi:nodetypes="cccccccccccccccccccccscccccccccc" />
    <path
       sodipodi:type="arc"
       style="fill:#1c8a42;fill-opacity:1;fill-rule:evenodd;stroke:none"
       id="path3445"
       d="m 354.375,73.88562 a 2.070312,1.367188 0 1 1 -4.14062,0 2.070312,1.367188 0 1 1 4.14062,0 z"
       sodipodi:cx="352.30469"
       sodipodi:cy="73.88562"
       sodipodi:rx="2.070312"
       sodipodi:ry="1.367188"
       transform="matrix(1.4308424,0.4493648,-0.48050484,1.3381124,117.09725,-185.57486)" />
    <polygon
       d="m 73.826341,356.02127 -13.802536,-12.92086 -13.96742,12.74244 1.496193,-18.84728 -18.670985,-2.97538 15.668257,-10.58132 -9.314917,-16.45269 18.041805,5.6526 7.055472,-17.54078 6.829506,17.62999 18.112948,-5.42031 -9.525551,16.33164 15.531004,10.78177 -18.707674,2.73523 z"
       inkscape:randomized="0"
       inkscape:rounded="0"
       inkscape:flatsided="false"
       sodipodi:type="star"
       style="font-size:12px;fill:#ffffff;fill-opacity:1;fill-rule:evenodd;stroke-width:1pt"
       id="polygon3449"
       sodipodi:sides="7"
       sodipodi:cx="60.126606"
       sodipodi:cy="327.09961"
       sodipodi:r1="32.00227"
       sodipodi:r2="16.001135"
       sodipodi:arg1="1.1284221"
       sodipodi:arg2="1.577221"
       points="73.8263,356.021 60.0238,343.1 46.0564,355.843 47.5526,336.996 28.8816,334.02 44.5499,323.439 35.2349,306.986 53.2767,312.639 60.3322,295.098 67.1617,312.728 85.2747,307.308 75.7491,323.639 91.2801,334.421 72.5724,337.156 73.8263,356.021 "
       transform="matrix(1.0127594,0,0,1.0127594,6.0635663,53.132549)" />
    <polygon
       d="m 73.826341,356.02127 -13.802536,-12.92086 -13.96742,12.74244 1.496193,-18.84728 -18.670985,-2.97538 15.668257,-10.58132 -9.314917,-16.45269 18.041805,5.6526 7.055472,-17.54078 6.829506,17.62999 18.112948,-5.42031 -9.525551,16.33164 15.531004,10.78177 -18.707674,2.73523 z"
       inkscape:randomized="0"
       inkscape:rounded="0"
       inkscape:flatsided="false"
       sodipodi:type="star"
       style="font-size:12px;fill:#ffffff;fill-opacity:1;fill-rule:evenodd;stroke-width:1pt"
       id="polygon3451"
       sodipodi:sides="7"
       sodipodi:cx="60.126606"
       sodipodi:cy="327.09961"
       sodipodi:r1="32.00227"
       sodipodi:r2="16.001135"
       sodipodi:arg1="1.1284221"
       sodipodi:arg2="1.577221"
       points="73.8263,356.021 60.0238,343.1 46.0564,355.843 47.5526,336.996 28.8816,334.02 44.5499,323.439 35.2349,306.986 53.2767,312.639 60.3322,295.098 67.1617,312.728 85.2747,307.308 75.7491,323.639 91.2801,334.421 72.5724,337.156 73.8263,356.021 "
       transform="matrix(0.7976746,0,0,0.79767358,116.49323,18.325823)" />
    <polygon
       d="m 240.50642,428.32541 -23.60735,-11.90224 -9.43503,24.69717 -8.27677,-25.10907 -24.13511,10.79197 11.90224,-23.60735 -24.69718,-9.43504 25.10907,-8.27676 -10.79196,-24.13512 23.60735,11.90224 9.43503,-24.69718 8.27677,25.10908 24.13511,-10.79197 -11.90224,23.60735 24.69718,9.43504 -25.10907,8.27676 z"
       inkscape:randomized="0"
       inkscape:rounded="0"
       inkscape:flatsided="false"
       sodipodi:type="star"
       style="font-size:12px;fill:#ffffff;fill-opacity:1;fill-rule:evenodd;stroke-width:1pt"
       id="polygon3452"
       sodipodi:sides="8"
       sodipodi:cx="208.54037"
       sodipodi:cy="394.83719"
       sodipodi:r1="46.29567"
       sodipodi:r2="23.147835"
       sodipodi:arg1="0.80864948"
       sodipodi:arg2="1.2013485"
       points="240.506,428.325 216.899,416.423 207.464,441.12 199.187,416.011 175.052,426.803 186.954,403.196 162.257,393.761 187.366,385.484 176.574,361.349 200.182,373.251 209.617,348.554 217.893,373.663 242.029,362.871 230.126,386.478 254.824,395.914 229.714,404.19 240.506,428.325 "
       transform="matrix(0.77960089,0,0,0.77960089,2.2716138,204.54432)" />
    <polygon
       d="m 269.57019,243.43115 -13.75475,-0.61336 -6.8041,11.9697 -6.34619,-12.21864 -13.76811,0.0923 7.40856,-11.60528 -6.96402,-11.87737 13.75476,0.61336 6.80409,-11.9697 6.34619,12.21864 13.76811,-0.0923 -7.40856,11.60528 z"
       inkscape:randomized="0"
       inkscape:rounded="0"
       inkscape:flatsided="false"
       sodipodi:type="star"
       style="font-size:12px;fill:#ffffff;fill-opacity:1;fill-rule:evenodd;stroke-width:1pt"
       id="polygon3455"
       sodipodi:sides="6"
       sodipodi:cx="249.45589"
       sodipodi:cy="231.30484"
       sodipodi:r1="23.486862"
       sodipodi:r2="13.152642"
       sodipodi:arg1="0.5425272"
       sodipodi:arg2="1.066126"
       points="269.57,243.431 255.815,242.818 249.011,254.787 242.665,242.569 228.897,242.661 236.306,231.056 229.342,219.179 243.096,219.792 249.9,207.822 256.247,220.041 270.015,219.949 262.606,231.554 269.57,243.431 "
       transform="matrix(1.01265,-0.01487075,0.01487075,1.01265,-2.7427296,157.47303)" />
    <polygon
       d="m 159.75957,320.13498 -12.93016,-8.8571 -12.58938,9.33513 4.42796,-15.03431 -12.76857,-9.0885 15.66679,-0.43461 4.69798,-14.95213 5.25464,14.7657 15.67208,-0.15243 -12.41924,9.56032 z"
       inkscape:randomized="0"
       inkscape:rounded="0"
       inkscape:flatsided="false"
       sodipodi:type="star"
       style="font-size:12px;fill:#ffffff;fill-opacity:1;fill-rule:evenodd;stroke-width:1pt"
       id="polygon3461"
       sodipodi:sides="5"
       sodipodi:cx="146.67082"
       sodipodi:cy="302.81168"
       sodipodi:r1="21.712027"
       sodipodi:r2="8.4676905"
       sodipodi:arg1="0.92374814"
       sodipodi:arg2="1.5520667"
       points="159.76,320.135 146.829,311.278 134.24,320.613 138.668,305.579 125.899,296.49 141.566,296.056 146.264,281.103 151.519,295.869 167.191,295.717 154.772,305.277 159.76,320.135 "
       transform="matrix(0.9183388,0,0,0.89434451,38.974461,151.63636)" />
  </g>
</svg>
