<?xml version="1.0" encoding="UTF-8" standalone="no"?>
<!-- Created with Sodipodi ("http://www.sodipodi.com/") -->

<svg
   xmlns:dc="http://purl.org/dc/elements/1.1/"
   xmlns:cc="http://creativecommons.org/ns#"
   xmlns:rdf="http://www.w3.org/1999/02/22-rdf-syntax-ns#"
   xmlns:svg="http://www.w3.org/2000/svg"
   xmlns="http://www.w3.org/2000/svg"
   xmlns:sodipodi="http://sodipodi.sourceforge.net/DTD/sodipodi-0.dtd"
   xmlns:inkscape="http://www.inkscape.org/namespaces/inkscape"
   id="svg559"
   sodipodi:version="0.32"
   width="640"
   height="480"
   sodipodi:docname="cy.svg"
   version="1.1"
   inkscape:version="0.48.1 r9760">
  <sodipodi:namedview
     id="base"
     showgrid="false"
     inkscape:zoom="0.47939383"
     inkscape:cx="62.040824"
     inkscape:cy="-22.140139"
     inkscape:window-width="1280"
     inkscape:window-height="746"
     inkscape:window-x="0"
     inkscape:window-y="24"
     inkscape:window-maximized="1"
     inkscape:current-layer="svg559" />
  <metadata
     id="metadata3056">
    <rdf:RDF>
      <cc:Work
         rdf:about="">
        <dc:format>image/svg+xml</dc:format>
        <dc:type
           rdf:resource="http://purl.org/dc/dcmitype/StillImage" />
      </cc:Work>
    </rdf:RDF>
  </metadata>
  <defs
     id="defs561" />
  <g
     id="flag"
     inkscape:label="#g3345">
    <rect
       id="rect4964"
       height="480"
       x="0"
       style="fill:#ffffff;fill-opacity:1;stroke:none"
       width="640"
       y="0"
       inkscape:label="#rect4964" />
    <polygon
       transform="matrix(0.56175758,0,0,0.56175758,-93.75218,-60.109241)"
       sodipodi:type="star"
       style="font-size:12px;fill:#808080;fill-rule:evenodd;stroke-width:1pt"
       id="polygon565"
       sodipodi:sides="5"
       sodipodi:cx="706.05774"
       sodipodi:cy="494.78372"
       sodipodi:r1="7.5180688"
       sodipodi:r2="3.7590344"
       sodipodi:arg1="2.6779451"
       sodipodi:arg2="3.3062637"
       points="699.333,498.146 702.35,494.168 700.782,489.427 705.498,491.067 709.522,488.111 709.42,493.103 713.474,496.016 708.695,497.462 707.177,502.218 704.326,498.12 699.333,498.146 "
       d="m 699.33337,498.1459 3.01619,-3.97839 -1.56739,-4.74007 4.71573,1.63917 4.02372,-2.95543 -0.1017,4.99145 4.05419,2.91351 -4.77859,1.44572 -1.5181,4.75608 -2.85162,-4.09795 z"
       inkscape:flatsided="false"
       inkscape:rounded="0"
       inkscape:randomized="0" />
    <path
       style="fill:#ffce00;fill-opacity:1;fill-rule:evenodd;stroke:none"
       d="m 164.83803,244.11366 c 0.10272,0 0.20551,0 0.30828,0 -0.82281,0 -0.39051,-0.0627 0.92556,0.94204 1.07605,0.43778 2.02291,0.62828 3.70156,0.62828 1.47168,0.10678 2.74517,0.31376 4.31887,0.31376 1.44745,0.62155 2.27174,1.18931 3.39329,1.56956 0.49471,0.76275 1.57369,2.47126 2.15944,3.13989 1.08631,0.81353 2.39724,1.31033 3.39329,2.19783 1.24119,0.3444 2.03098,0.88152 3.39329,1.88333 1.02538,0.49454 1.995,0.90168 3.39327,1.57029 1.34249,0.47214 2.80976,1.10416 4.00985,1.56958 1.05696,0.25326 2.46991,0.6858 3.39329,1.2558 1.31092,0.28986 2.41119,0.6619 4.01056,0.94205 1.63317,0.19796 2.45745,0.63723 4.00986,0.94202 1.39387,0.71793 2.4802,1.25355 4.01058,1.88408 0.62097,0.92933 1.15459,1.76529 2.46772,2.19708 0.67453,0.83148 1.79316,1.05261 2.46771,1.88408 0.99382,0.47885 2.08823,0.79637 3.39327,1.2558 1.57297,0.1143 2.70774,0.56926 4.31887,0.62827 1.43938,0 2.87947,0 4.31886,0 1.43938,0 2.87948,0 4.31886,0 1.37699,0.16661 2.91913,0.38623 4.00984,0.62754 1.50984,0 2.98152,0.0261 4.31887,-0.31376 1.72637,-0.0208 2.53156,-0.51249 4.01059,-0.62829 1.65002,0.2667 2.76938,0.11947 3.39329,1.57032 1.02245,1.04064 1.64416,2.05963 1.8504,3.45364 0.32517,0.99283 0.30902,2.63412 0.30902,4.08116 0,1.36412 0.007,2.85001 0.30828,3.76815 0.9821,0.96444 1.74765,1.24906 3.085,1.56956 0.99164,0.33618 2.81856,0.62978 3.70157,1.2558 0.72886,0.77844 1.08559,2.01482 2.15943,2.8261 0.93878,0.73362 2.50882,0.88677 4.00985,0.9413 1.44011,0 2.87948,0 4.31886,0 1.34836,0 3.13787,0.13069 4.01058,-0.31377 1.33588,-0.49455 1.68674,-1.41417 3.39329,-1.56955 1.60747,0.24651 1.57442,1.02121 2.77598,1.56955 0.76484,1.12209 1.49003,1.58527 2.46772,2.19785 0.63418,0.92261 1.4636,1.63903 2.77673,1.88407 1.60745,-0.16584 3.06151,-0.64546 4.31885,-0.94203 0.43968,-1.12058 0.97842,-1.89379 1.54214,-2.82612 0.41838,-0.72017 0.61656,-0.90542 0.61656,-2.19784 0.46169,-0.9383 0.40444,-2.84702 0,-4.08116 -0.058,-1.59794 -0.42499,-2.44212 -0.61656,-4.08191 0,-1.52176 0.0713,-2.97029 0.30828,-4.08116 0.63418,-0.74482 1.04669,-1.96328 1.54287,-2.82612 0.84118,-1.0272 1.62067,-1.41342 2.77599,-1.88333 0.97621,-0.33094 2.58809,-0.31451 4.01059,-0.31451 0.75455,-0.23008 2.00748,-0.15392 1.54213,-0.62752 -0.40003,0.40714 -1.93483,0.53563 -0.30828,0.62752 0.8852,-0.61109 2.5,-0.89198 3.39329,-1.2558 1.31753,-0.2017 2.10731,-0.6574 3.39328,-0.94128 0.96155,-0.573 2.03758,-0.84717 3.39328,-1.25656 1.11716,-0.43254 2.37376,-0.85538 3.70157,-1.25578 1.4203,-0.67908 2.29595,-1.06233 3.70158,-1.25582 0.96741,-0.5192 2.18218,-0.62753 3.70229,-0.62753 1.42543,0.93009 2.17338,1.65923 3.39328,2.82537 0.58281,0.87331 1.10467,1.39849 1.54214,2.5116 0.98724,0.68355 1.51498,1.18781 3.39329,1.2558 1.48562,0 2.07502,0.25849 2.46771,-0.94128 0.81181,-0.7366 1.23238,-2.03947 2.15944,-2.82612 0.92043,-0.92036 2.0574,-1.38802 3.08501,-1.88332 1.15823,-0.32197 2.09409,-0.74781 3.70155,-0.94205 1.07018,-0.39817 2.1763,-0.48259 3.39329,0.31377 0.90575,1.28717 1.92821,2.60125 3.08501,4.08192 0.78463,0.51696 1.74546,0.62752 3.08427,0.62752 0.94173,-0.47886 2.88462,-0.31376 4.31885,-0.31376 1.26323,0.36979 1.81519,1.21695 3.08501,1.56956 0.70979,0.0725 1.0922,0.31376 1.85115,0.31376 2.25633,0.29807 3.19511,0.0717 4.93543,-0.31376 1.43937,0 2.87948,0 4.31887,0 1.5157,0.0575 2.33264,0.31376 4.00984,0.31376 0.93732,0.57897 2.54404,0.84791 3.70229,1.25656 1.45993,0.34961 1.73885,0.91365 3.08428,1.56956 0.87272,0.44375 2.66222,0.31376 4.01059,0.31376 1.61039,-0.19498 2.68056,-0.47363 4.00984,-0.94204 1.17072,-0.2906 1.66618,-0.59167 2.15942,-1.56955 0.76704,-0.53042 1.82547,-1.37981 2.46845,-2.19785 0.84704,-0.58643 1.5825,-1.33499 2.1587,-2.19784 0.83089,-0.55806 2.22769,-1.97969 2.77673,-2.82537 0.78831,-0.64246 1.63094,-1.98792 2.15942,-2.8261 0.67675,-1.02347 1.53113,-1.61662 2.15943,-3.13914 0.48078,-1.46796 0.5439,-2.61842 0.92558,-4.0819 0.31782,-1.18633 0.90135,-2.19037 1.23386,-3.7674 0.62683,-1.37459 1.12888,-2.71555 1.54214,-3.76815 0.75748,-0.86433 1.25954,-1.90948 2.15942,-2.82535 0.51601,-0.81206 1.20376,-1.22519 1.85115,-1.88408 0.73473,-0.7127 1.84308,-1.24012 3.08428,-1.56957 1.27422,-0.35336 1.82545,-0.92186 2.4677,-1.88407 1.16634,-0.3952 1.85409,-0.90694 3.39329,-1.25581 1.3535,-0.40789 2.46184,-0.66711 3.70231,-0.94204 1.43937,0 2.87874,0 4.31885,0 1.55535,0 2.89489,0.14191 4.31813,0.31452 1.40635,0.40863 2.72608,0.76498 4.01058,0.94204 0.88301,0.42508 2.35175,1.202 3.08501,1.88332 0.92117,0.61931 1.92748,1.61887 2.46772,2.51161 0.40295,1.2319 1.05841,1.77574 1.85039,2.8261 0.82429,1.09144 1.51792,1.78173 3.08501,2.5116 1.24854,0.29435 2.27102,0.82998 3.70158,0.94204 1.63901,0 2.63066,0.2062 4.01058,0.31376 1.50911,0 2.98151,0.0261 4.31887,-0.31376 1.34687,-0.79187 1.82985,-1.0033 2.77597,-2.19784 1.24413,-0.62304 2.14769,-1.11759 3.70231,-1.2558 1.02172,-0.22635 2.28789,-0.31376 3.70157,-0.31376 0.80079,0.55881 1.65077,0.76947 2.15943,1.56956 0.81254,0.58569 0.86613,0.90318 2.15944,0.94204 0.88226,0.52518 2.18143,0.77545 3.39329,0.94204 1.43937,0 2.87874,0 4.31811,0 l -4.31811,0 c 1.43937,0 2.87874,0 4.31811,0 1.18248,-1.01078 1.54287,-0.89572 1.54287,-2.19785 0.95494,-0.77842 1.42836,-1.8706 2.46771,-3.13987 0.56371,-0.93157 1.10247,-1.70552 1.54214,-2.82611 0.3369,-1.02869 0.75601,-2.60646 0.92558,-3.7674 0.38975,-1.0414 0.75748,-2.64234 0.92558,-4.08116 0.37359,-1.45078 0.61729,-2.74766 0.61729,-4.39569 0,-1.46496 0,-2.93068 0,-4.39566 -0.0184,-1.55238 -0.24737,-2.63786 -0.61729,-3.7674 -0.48886,-1.38728 -1.30654,-2.40104 -1.85116,-3.45364 -0.9131,-0.73436 -2.04053,-1.7638 -2.77599,-2.5116 -1.40268,-0.86061 -2.4655,-1.48738 -3.70157,-2.19784 -1.3513,-0.85164 -2.649,-1.59049 -3.70231,-2.19785 -0.61875,-0.70446 -1.62434,-1.6719 -2.15869,-2.19781 -0.42278,-0.85988 -0.42278,-2.90831 0,-3.7674 0.036,-1.30737 0.17248,-2.0604 0.92483,-2.82613 1.40563,-0.51323 2.34295,-1.18932 3.39329,-1.88406 0.68189,-0.97118 1.7506,-1.15795 3.08501,-2.1971 1.33515,-0.59614 2.09191,-0.90917 3.08501,-1.88407 1.44305,-0.49008 2.78993,-1.48814 4.00986,-1.88407 0.66059,-0.8128 1.89738,-1.48516 3.39328,-1.88335 1.07016,-0.7418 2.35101,-1.53071 3.39328,-1.88405 1.45259,-0.78367 2.53157,-1.05934 4.01058,-1.88409 1.50837,-0.38322 2.85527,-1.07352 4.31887,-1.56955 0.37507,-0.46692 0.82281,-0.8128 1.54214,-0.94205 1.92013,-0.11577 3.521,-0.32571 4.62712,-1.2558 1.24046,-0.44748 1.36893,-1.35366 2.15944,-2.19784 0.56738,-1.03841 1.18689,-1.49859 1.54214,-2.82536 0.98135,-1.07277 0.43892,-1.38728 -1.23386,-1.5703 -0.52628,-0.53565 -1.00117,0.005 -1.23386,-0.9413 -1.10686,-0.50576 -1.39605,-1.38355 -2.15942,-2.19784 -0.46608,-1.29763 -0.45508,-1.88109 0.92556,-2.51234 0.86026,-0.59465 2.08457,-0.79488 2.77673,-1.56957 1.28523,-0.19722 2.26146,-0.76199 3.39329,-1.2558 1.67646,-0.12181 2.56827,-0.50725 4.00986,-0.94203 1.22723,-0.66712 2.02437,-1.05858 3.085,-1.56957 1.26834,-0.5588 2.78039,-1.34769 4.00985,-1.88407 1.10613,-0.75004 2.51102,-1.48365 4.01057,-1.88333 1.10467,-0.5715 2.46331,-1.02048 3.70156,-1.57032 1.05697,-0.25324 2.46992,-0.68504 3.3933,-1.25579 1.42176,-0.27566 2.96096,-0.79785 4.01057,-1.25579 1.03202,-0.47439 2.24752,-1.07129 3.08429,-1.56958 1.27787,-0.56253 2.19025,-1.23563 3.39401,-1.5703 0.72886,-0.70747 1.71095,-1.20873 2.776,-1.56957 0.86831,-0.82026 2.71506,-1.95355 3.70156,-2.5116 0.93585,-0.45123 2.02951,-0.91066 2.77673,-1.57031 0.71785,-0.0808 0.51527,-0.23233 1.23384,-0.31376 2.24826,-0.68879 3.39622,-0.94503 4.62715,-2.19785 0.95641,-0.46093 1.93998,-0.96144 2.776,-1.56955 1.02905,-0.83147 1.84893,-1.5845 2.4677,-2.51161 1.12302,-0.40565 1.73811,-1.19752 2.77673,-1.88407 1.07603,-0.43777 2.02364,-0.62827 3.70157,-0.62827 1.34909,0 3.13784,0.13069 4.01058,-0.31376 1.93554,-0.0233 2.43909,-0.49605 3.70156,-1.25581 0.41764,-1.19828 1.30945,-1.79742 2.46771,-2.51159 0.68261,-0.63426 2.40826,-1.58377 3.08501,-2.19784 1.33515,-0.65069 1.91206,-1.48067 3.08501,-2.51161 0.90576,-0.9921 2.04052,-1.90948 3.08428,-2.5116 1.29697,-0.57522 2.22622,-0.8337 3.39327,-1.2558 1.46067,-0.2652 2.92867,-0.53787 4.31592,-0.94203 1.5781,-0.12327 2.13594,-0.59318 3.39843,-0.94205 0.87347,-0.84791 1.40194,-1.27521 2.46624,-2.51158 0.52114,-1.44257 1.29184,-1.97074 2.77453,-2.19784 1.49003,-0.79264 2.68645,-0.88676 3.7067,-1.88409 1.04228,-1.06306 1.76161,-2.25909 2.77454,-3.45363 0.5725,-1.35292 1.10833,-2.16646 1.23311,-3.7674 -0.0219,-1.92665 -0.43306,-2.20382 -1.23311,-3.45364 -0.77073,-1.12507 -1.25516,-1.84074 -1.8497,-2.82611 -0.96153,-0.55282 -2.32678,-1.1019 -3.39842,-1.56957 -1.46801,0.11504 -2.37082,0.45048 -3.39108,0.94205 -1.04962,0.86358 -1.77628,1.57329 -2.46625,2.82535 -0.46976,1.01152 -0.78538,2.12539 -1.23312,3.45365 -0.58721,0.85388 -1.98914,1.66444 -3.09016,2.19782 -1.29183,0.57524 -2.21667,0.83373 -3.39107,1.25581 -1.46065,0.51398 -2.14181,0.95848 -3.70083,1.57031 -0.91237,0.43927 -2.17484,1.11461 -3.085,1.56957 -1.34176,0.8128 -2.62699,1.44629 -3.70157,1.88407 -1.36819,0.79038 -2.1499,1.22442 -3.39329,1.56957 -1.40268,0.84939 -2.76057,1.49335 -4.01059,2.19784 -1.03713,0.51845 -2.04932,1.19154 -3.39328,1.88406 -1.09071,0.2413 -2.63358,0.46093 -4.00984,0.62752 -1.54287,0 -3.08501,0 -4.62788,0 -1.31827,-0.30927 -2.88682,-0.57896 -4.31812,-1.25578 -1.53626,-0.80982 -2.28789,-1.3223 -3.39329,-2.19785 -0.67602,-1.33947 -0.90429,-1.9797 -0.92558,-3.7674 -0.95861,-0.48783 -2.28494,-0.61035 -3.70156,-0.62827 -1.56489,0 -3.01602,-0.0591 -4.01059,0.62827 -1.34322,0.20321 -2.47211,0.75602 -3.39329,1.56956 -1.42028,0.68729 -2.34806,1.51578 -3.39328,2.19784 -1.08706,0.66712 -2.4934,1.66594 -3.70157,2.19785 -1.1355,0.49529 -2.91105,1.03764 -4.31886,1.56955 -1.81152,0.52967 -3.1217,1.11387 -4.93541,1.25655 -1.54874,0.71269 -2.76278,0.92485 -4.31887,1.56956 -1.57957,0.59765 -2.69524,1.03841 -4.31887,1.56957 -1.0709,0.55431 -3.005,1.48067 -4.01056,2.19784 -1.84235,0.93755 -3.19072,1.73391 -4.62715,2.51159 -1.44378,0.61708 -2.48973,1.20276 -4.00985,1.88408 -0.74721,0.67757 -2.22768,1.20874 -3.08501,1.88409 -1.37625,0.35035 -2.95728,0.92783 -3.70155,1.56955 -1.21699,0.1487 -1.893,0.47512 -2.46772,1.25581 -1.09953,1.34246 -0.61877,1.2558 -1.85115,1.2558 -1.05403,0.65143 -2.69305,0.62826 -4.31887,0.62826 -1.64563,-0.0448 -2.94114,-0.3145 -4.62712,-0.3145 -1.44745,-0.26296 -2.77013,-0.57151 -4.31887,-0.62754 -1.43937,0 -2.87876,0 -4.31887,0 -1.43937,0 -2.87874,0 -4.31813,0 -1.44011,0 -2.87948,0 -4.31886,0 -1.64563,0 -3.29053,0 -4.93615,0 -1.43937,0 -2.87876,0 -4.31813,0 -1.44011,0 -2.87948,0 -4.31887,0 -1.63902,0 -2.63065,0.20618 -4.01056,0.31378 -1.53481,0.11208 -2.73123,0.45196 -4.00986,0.62826 -1.3902,0.21291 -2.02584,0.74481 -3.08501,1.25581 -0.97402,0.46989 -1.95611,0.94277 -3.08501,1.25579 -1.51423,0.81504 -3.25675,1.24235 -4.9354,1.56956 -1.2669,0.59841 -3.06593,0.91814 -4.01059,1.57032 -1.44599,0.11282 -2.39211,0.51023 -4.00985,0.62752 -1.37405,0.63276 -2.50588,0.96969 -3.70231,1.25581 -1.10906,0.37651 -2.1763,0.60959 -3.70156,0.62827 -1.42689,0.19648 -2.21374,0.60512 -3.70156,0.94204 -0.52922,0.45345 -1.37405,0.77619 -2.15943,0.94128 -1.81225,0.87406 -2.40605,0.94205 -4.31887,0.94205 -1.43937,0 -2.87875,0 -4.31886,0 -2.05741,-0.20321 -4.09939,-0.46467 -6.16927,-0.94205 -2.11172,-0.10309 -4.12582,-0.37427 -6.17002,-0.62752 -1.54213,0 -3.08427,0 -4.62714,0 -1.54214,0 -3.08427,0 -4.62715,0 -1.43937,0 -2.87874,0 -4.31885,0 -1.63022,-0.059 -3.07767,-0.37651 -4.62714,-0.62827 -1.45039,-0.26372 -2.98299,-0.39147 -4.31813,-0.94129 -1.91868,-0.10308 -3.85938,-0.36756 -5.55273,-0.94204 -1.54286,-0.28014 -3.02187,-0.80757 -4.62712,-0.94204 -0.89108,-0.55058 -2.63873,-0.73361 -3.39329,-1.25579 -1.41075,-0.11061 -2.58295,-0.55656 -3.39329,-1.25581 -1.44305,-0.21814 -2.27908,-0.86584 -3.70231,-1.2558 -1.28156,-0.78964 -2.82883,-1.05409 -4.62713,-1.88408 -1.53186,-0.33392 -3.06519,-0.88524 -4.62714,-1.2558 -1.23019,-0.43329 -2.72976,-0.84565 -3.70158,-1.56957 -1.36377,-0.37874 -2.14621,-0.78738 -3.70157,-1.25653 -0.72664,-0.65815 -2.15648,-1.34769 -3.08499,-1.88334 -0.67455,-0.61183 -2.44717,-1.66293 -3.39329,-2.19782 -1.00485,-1.18408 -2.01851,-2.35175 -3.39329,-3.7674 -0.9542,-1.05934 -2.04344,-1.91098 -3.08501,-2.51237 -1.33734,-0.567 -2.85232,-1.37757 -3.70155,-1.88332 -1.16854,-0.32422 -2.11173,-1.04736 -2.77673,-1.88408 -1.05181,-0.6066 -1.73811,-1.14746 -2.77599,-1.88332 -1.61188,0.62156 -1.78143,0.31376 -3.39329,0.31376 -1.83867,-0.15392 -3.19143,-0.21142 -4.93542,0 -1.50837,0.1808 -2.98371,0.31378 -4.62787,0.31378 -1.43937,0 -2.87876,0 -4.31813,0 -1.95171,0.0239 -2.26733,0.28089 -2.77673,1.88407 -0.89768,1.00478 -1.27275,2.1814 -2.15944,2.82535 -0.76114,0.9824 -1.85921,1.65101 -3.085,2.19784 -1.52305,1.07202 -1.98253,1.45975 -2.77598,2.82612 -1.00999,0.90096 -1.85189,2.18961 -2.46772,3.13913 -0.56003,0.97489 -0.93584,1.8781 -1.23385,3.45363 0,1.50234 0.12107,3.08309 -0.30828,4.39568 0,1.50232 0.12107,3.0831 -0.30902,4.39567 0,1.46498 0,2.92995 0,4.39569 0,1.46496 0,2.92994 0,4.39566 0.64298,0.96221 1.50911,1.33126 1.85115,2.82536 0.45728,1.24087 -0.38975,0.79637 -1.23385,1.56956 -1.43938,0 -2.87949,0 -4.31887,0 -1.43937,0 -2.87948,0 -4.31886,0 -1.57295,0 -2.84645,-0.20693 -4.31885,-0.31376 -1.24635,-0.22635 -3.07107,-0.30927 -4.00985,-0.62752 -1.44011,0 -2.87949,0 -4.31886,0 -1.5348,-0.11208 -2.73122,-0.45198 -4.01059,-0.62828 -1.78656,-0.34662 -3.02262,-0.87255 -4.62715,-1.88406 -1.64269,-0.35785 -2.89709,-0.98761 -4.31885,-1.88334 -1.53187,-0.40863 -2.74589,-1.2274 -4.31812,-1.5703 -1.05844,-0.5095 -1.81519,-1.0033 -3.08501,-1.56956 -0.74648,-1.03991 -1.46654,-1.61962 -3.085,-1.88408 -1.24121,-0.64845 -2.29303,-0.62753 -4.00987,-0.62753 -1.60745,0.19424 -2.5433,0.62005 -3.70228,0.94204 -1.28524,0.59167 -2.96096,1.09519 -4.00985,1.56957 -1.04889,0.42731 -2.00162,1.00105 -3.08501,1.56956 -0.82942,1.08621 -1.31459,1.73541 -1.85116,2.8261 -0.41102,0 -0.30828,-0.10457 -0.30828,0.31377 -1.66177,0.0605 -3.40942,0 -5.24368,0 -0.87054,0.44301 -2.56389,0.53864 -3.70231,0.62827 -0.90356,0.7112 -1.97225,1.32752 -2.77599,1.88334 -0.53215,1.08322 -0.9043,1.37159 -0.92558,3.13986 0.066,1.87587 0.72812,2.42122 1.23386,3.7674 -0.37141,1.71226 -1.03128,1.85421 -2.46772,2.19785 -1.09146,0.24129 -2.51468,0.31376 -4.01057,0.31376 -1.54213,0 -3.08427,0 -4.62714,0 -1.54214,0 -3.08428,0 -4.62715,0 -1.77701,0 -2.61232,0.0202 -3.39329,-0.94129 -0.53655,-1.06455 -0.5872,-2.42121 -0.92558,-3.45363 -0.91895,-1.27226 -1.32926,-2.12613 -2.77599,-3.13988 -0.31854,-0.97267 -1.08265,-2.40029 -1.54213,-3.45365 -0.49472,-1.06157 -0.87638,-1.99911 -1.85114,-2.82611 -1.02541,-0.96893 -2.18733,-1.59794 -3.08501,-2.51159 -1.03202,-0.67384 -1.86069,-1.2334 -3.70157,-1.25581 -1.49515,0 -2.91912,0.0726 -4.01059,0.31376 -0.75161,0.66414 -2.00894,1.3731 -3.08425,2.19785 -0.85293,1.15717 -1.60895,2.00137 -2.77673,3.13987 -1.31607,1.22815 -2.62553,1.97372 -3.70157,2.51161 -0.98577,0.50202 -1.99135,1.12132 -2.77673,2.19783 -0.91603,0.4064 -1.36083,1.08846 -1.85042,2.19783 -0.80519,0.73062 -1.26688,1.94757 -1.54287,3.13988 -0.50279,1.53669 -0.57178,3.30198 -0.61655,5.02321 0,1.46496 0,2.93069 0,4.39566 -0.48812,0.59019 -0.75163,1.21771 -1.54214,1.88408 -0.75529,0.6843 -1.89079,1.43284 -2.77672,1.88333 -0.85952,1.12507 -1.39533,1.78546 -1.54214,3.45364 0,1.37234 -0.12769,3.19365 0.30828,4.08191 0.6239,0.88899 1.88271,1.50307 3.085,2.19783 1.15532,0.41686 1.755,1.32827 2.46772,2.51161 1.3212,0.60361 1.15824,1.16242 2.77598,1.25579 0.9799,0.78366 2.48313,1.02945 3.70231,1.56956 1.23459,0.3429 1.84968,0.91366 3.08427,1.25582 0.79932,1.05931 1.68012,1.74661 2.15943,3.45363 0.12988,1.09741 0.55637,2.19709 0,3.13987 -1.25661,0.76125 -2.94262,1.24609 -3.70157,1.88409 -0.99825,0.0531 -0.92411,0.2891 -1.54213,0.62752 -0.0127,2.09847 -0.28774,3.16825 -0.6173,4.70943 -0.10568,1.40446 -0.30828,2.41374 -0.30828,4.08192 0,1.46497 0,2.93069 0,4.39567 0.65619,1.39475 1.52305,1.65472 2.46771,2.5116 0.94026,0.68355 1.23313,1.48889 1.54214,2.82537 0.52921,1.22816 1.09292,2.25235 1.54286,3.45364 0.56225,1.20276 0.92558,2.2942 0.92558,4.0819 -0.15407,1.71897 -0.86025,2.01482 -2.15942,2.82536 -0.68997,0.85016 -0.46316,2.35472 -0.92558,3.76814 0,1.44706 -0.0169,3.08835 0.30828,4.08119 0.52847,0.71717 0.40002,1.01748 0.6173,2.19782 z"
       id="path568"
       inkscape:connector-curvature="0" />
    <g
       transform="translate(25.619705,0)"
       id="g3317">
      <g
         style="fill:#009a00;fill-opacity:1;stroke:none"
         transform="matrix(0.73400089,0,0,0.74705557,-160.21124,-163.25361)"
         id="g588">
        <path
           inkscape:connector-curvature="0"
           id="path569"
           d="m 460.164,634.917 c -0.228,-0.228 -0.455,-0.455 -0.683,-0.683 1.55,1.549 0.802,0.981 -0.683,-2.731 -0.145,-3.936 -1.098,-4.57 -3.413,-6.145 -2.715,-0.904 -3.875,-2.064 -4.779,-4.779 -1.736,-1.433 -3.042,-3.351 -4.097,-5.462 -1.876,-1.275 -3.503,-2.903 -4.779,-4.779 -1.876,-1.276 -3.503,-2.903 -4.779,-4.779 -2.594,-0.906 -4.306,-2.751 -7.51,-4.096 -1.803,-1.719 -3.497,-2.567 -6.145,-4.097 -2.963,-1.419 -3.132,-2.446 -6.827,-2.731 -1.13,1.244 -2.92,0.755 -3.414,2.731 0.15,4.046 0.955,4.894 2.731,8.193 0.138,3.729 1.14,5.484 2.731,8.193 1.939,1.357 3.431,3.769 5.462,5.462 2.168,1.474 3.03,3.04 6.145,4.779 1.627,2.035 4.347,3.126 6.827,4.779 3.054,1.178 5.559,2.087 7.51,3.414 2.74,0.644 4.611,1.681 6.827,2.731 3.277,0.307 4.611,0.673 8.876,0 z"
           style="fill:#009a00;fill-opacity:1;fill-rule:evenodd;stroke:none" />
        <path
           inkscape:connector-curvature="0"
           id="path570"
           d="m 474.501,654.033 c -0.227,-0.227 -0.455,-0.455 -0.682,-0.682 1.621,1.621 0.848,0.958 -1.366,-2.731 -2.524,-2.39 -3.07,-4.221 -6.827,-4.78 -2.006,-0.802 -5.262,-1.298 -7.51,-2.048 -3.887,0 -5.668,-0.415 -8.876,-1.365 -2.293,-0.626 -5.194,-1.738 -7.51,-2.731 -2.746,-0.408 -5.589,-1.482 -8.193,-2.048 -3.186,0 -6.372,0 -9.558,0 -3.067,0.721 -4.793,0.753 -5.462,4.096 1.4,1.695 3.248,3.173 4.779,4.779 0.863,2.999 2.946,3.714 4.779,5.462 3.161,1.094 3.803,1.911 7.51,2.048 3.143,1.048 5.428,1.324 8.876,1.366 3.657,0 6.287,0.742 9.558,1.365 2.724,0.368 5.396,0.683 8.876,0.683 2.966,0 6.197,-0.017 8.193,-0.683 4.302,-3.441 3.413,-4.188 3.413,0.683 0.456,0.455 0.911,0.91 1.366,1.365"
           style="fill:#009a00;fill-opacity:1;fill-rule:evenodd;stroke:none" />
        <path
           inkscape:connector-curvature="0"
           id="path571"
           d="m 497.714,664.274 c -0.227,0 -0.455,0 -0.682,0 1.843,0 0.907,0.045 -2.731,-0.682 -3.405,-0.973 -5.339,-1.918 -8.876,-2.049 -2.101,-1.228 -4.68,-1.365 -8.193,-1.365 -3.186,0 -6.372,0 -9.558,0 -3.38,0.26 -4.813,1.105 -8.193,1.365 -1.794,1.05 -5.358,1.912 -7.51,2.731 -1.92,1.306 -3.559,2.929 -6.145,4.097 0.596,3.391 2.479,4.668 4.78,6.144 2.31,0.925 4.685,1.798 8.192,2.049 3.355,0.124 5.163,0.682 8.876,0.682 3.479,0 6.152,-0.314 8.876,-0.682 2.266,-1.074 4.194,-2.199 7.51,-2.731 1.653,-1.433 4.073,-2.433 6.144,-3.414 1.834,-0.868 4.329,-1.669 6.145,-2.731 l -6.145,2.731 c 1.834,-0.868 4.329,-1.669 7.51,-6.145 z"
           style="fill:#009a00;fill-opacity:1;fill-rule:evenodd;stroke:none" />
        <path
           inkscape:connector-curvature="0"
           transform="matrix(1,0,0,0.851573,1.188736,101.0965)"
           id="path573"
           d="m 529.803,679.977 c 0,-0.227 0,-0.455 0,-0.682 0,1.908 0.085,0.894 -1.365,-2.731 -2.527,-1.332 -5.559,-2.273 -7.511,-3.414 -2.984,0 -6.944,-0.283 -8.875,0.683 -3.448,0.041 -5.733,0.318 -8.876,1.365 -2.996,0.452 -4.723,1.5 -6.827,2.731 -2.378,1.283 -5.824,2.934 -8.876,4.096 -2.698,1.881 -3.612,2.984 -6.827,4.78 -2.025,2.219 -4.098,3.552 -5.462,5.462 -0.606,2.304 0.039,5.022 2.731,6.144 1.702,1.406 4.316,2.14 6.827,2.731 3.187,-0.118 6.001,-0.56 8.193,-2.048 3.383,-0.448 5.393,-1.44 8.193,-2.048 2.396,-0.851 4.69,-1.667 7.51,-2.049 1.953,-1.324 5.416,-2.467 7.51,-3.413 3.43,-1.389 5.621,-3.221 8.193,-4.779 1.226,-1.419 2.862,-2.951 4.779,-3.414 l -4.779,3.414 c 1.226,-1.419 2.862,-2.951 5.462,-6.828 z"
           style="fill:#009a00;fill-opacity:1;fill-rule:evenodd;stroke:none" />
        <path
           inkscape:connector-curvature="0"
           transform="matrix(1,0,0,0.888389,0,76.96011)"
           id="path574"
           d="m 557.112,693.632 c -0.127,-0.032 -3.176,-1.365 -5.461,-1.365 -2.024,-1.184 -5.299,-1.422 -8.193,-2.731 -3.731,0 -6.271,0.418 -8.193,2.048 -2.838,0.383 -5.375,1.217 -7.51,2.731 -2.658,0.625 -5.07,1.21 -7.51,2.731 -3.294,1.382 -4.744,2.679 -6.828,4.096 -1.405,1.701 -4.441,2.652 -6.144,4.097 -1.529,1.851 -1.526,4.299 -0.683,6.827 1.748,1.076 4.736,2.144 6.827,3.414 3.052,0.545 6.162,0.682 9.559,0.682 3.031,-0.233 5.588,-0.741 7.51,-2.048 3.434,-1.654 4.348,-2.876 6.827,-4.779 1.434,-1.736 3.833,-3.133 6.145,-4.096 1.742,-1.51 3.856,-2.614 6.827,-3.414 1.663,-1.585 3.194,-3.117 4.779,-4.779 1.909,0 0.598,0.211 2.048,-3.414 z"
           style="fill:#009a00;fill-opacity:1;fill-rule:evenodd;stroke:none" />
        <path
           inkscape:connector-curvature="0"
           transform="matrix(1,0,0,0.866411,-0.594368,95.81036)"
           id="path575"
           d="m 587.153,696.363 c -0.164,-0.025 -3.855,-0.683 -6.145,-0.683 -1.931,-0.965 -5.891,-0.683 -8.875,-0.683 -3.762,0.14 -4.925,0.917 -6.828,2.731 -1.935,1.191 -4.271,2.261 -6.144,4.097 -2.394,1.467 -4.551,3.489 -6.828,4.779 -2.505,1.073 -4.664,2.302 -7.51,2.731 -1.372,1.661 -3.778,3.096 -5.462,4.779 -1.874,1.406 -2.669,2.082 -2.731,5.462 -1.39,1.121 -2.329,3.322 -2.048,4.096 2.763,1.419 5.047,2.003 8.876,2.049 3.647,0.043 6.208,0.837 9.558,0 3.414,-1.012 4.778,-1.72 8.193,-2.731 1.743,-2.271 3.052,-3.791 5.462,-5.462 1.302,-1.915 2.862,-3.677 5.462,-4.779 1.948,-1.772 4.83,-3.729 6.827,-4.78 1.221,-1.709 3.602,-3.527 5.462,-4.779 1.368,-2.315 1.757,-2.7 2.731,-6.827 z"
           style="fill:#009a00;fill-opacity:1;fill-rule:evenodd;stroke:none" />
        <path
           inkscape:connector-curvature="0"
           id="path577"
           d="m 589.884,693.632 c 0,-1.532 0,-7.319 0,-10.924 0,-3.186 0,-6.372 0,-9.558 -3.17,-1.875 -3.645,-2.997 -4.779,-6.827 -1.683,-2.73 -2.969,-4.447 -4.097,-6.828 -1.581,-1.659 -2.884,-3.812 -3.414,-6.827 -1.304,-2.528 -2.113,-5.07 -4.779,-6.145 -2.415,-0.525 -5.565,-0.683 -8.875,-0.683 -4.522,0.168 -4.097,0.965 -4.097,5.462 0.318,3.497 1.433,4.412 2.731,7.51 1.003,2.118 2.092,4.294 3.414,6.145 1.021,2.262 2.623,5.174 4.096,6.827 1.196,2.511 2.915,4.786 3.414,7.511 1.871,2.374 3.164,4.451 4.779,6.144 1.337,2.791 2.343,4.37 4.779,5.462 1.393,2.088 3.748,2.26 6.828,2.731 z"
           style="fill:#009a00;fill-opacity:1;fill-rule:evenodd;stroke:none" />
        <path
           inkscape:connector-curvature="0"
           id="path578"
           d="m 557.112,682.708 c 0.228,0 0.456,0 0.683,0 -1.908,0 -0.894,0.085 2.731,-1.365 0.966,-1.932 0.683,-5.891 0.683,-8.876 0,-3.887 -0.643,-5.542 -1.366,-8.193 -1.242,-2.965 -2.255,-4.355 -2.731,-7.51 -1.021,-2.156 -2.049,-4.329 -2.731,-6.827 -1.227,-1.806 -2.104,-4.529 -2.73,-6.827 -2.305,-1.306 -4.433,-2.616 -6.828,-3.414 -2.171,-1.028 -4.193,-2.561 -6.827,-3.414 -3.425,0.627 -3.812,1.756 -4.097,5.462 -0.787,2.754 0.293,5.244 1.366,7.51 1.128,2.694 1.801,5.426 3.414,7.51 0.984,3.063 1.986,4.131 2.048,7.51 1.175,2.01 1.666,4.969 2.731,7.51 1.371,3.171 2.647,4.538 4.779,6.828 2.915,1.982 3.916,2.814 8.875,4.096 z"
           style="fill:#009a00;fill-opacity:1;fill-rule:evenodd;stroke:none" />
        <path
           inkscape:connector-curvature="0"
           id="path579"
           d="m 529.803,673.833 c 0,-0.327 2.168,-1.67 3.414,-3.414 1.02,-2.041 0.894,-6.191 0,-8.876 -1.295,-3.199 -2.706,-5.597 -3.414,-8.192 -0.72,-2.16 -0.683,-5.728 -0.683,-8.876 -0.623,-2.868 -1.649,-4.988 -2.731,-8.193 -0.882,-2.206 -2.602,-4.966 -3.413,-7.51 -1.065,-1.006 -2.269,-3.071 -3.414,-4.096 -1.335,-1.092 -1.382,-1.366 -4.096,-1.366 -3.629,0.135 -5.455,0.47 -7.511,2.731 -0.719,2.16 -0.682,5.728 -0.682,8.876 0.045,3.762 0.395,5.541 2.048,8.193 1.206,2.869 3.736,5.663 5.462,8.192 1.415,2.396 2.316,4.675 4.096,6.145 0.464,3.076 1.621,4.484 2.731,6.827 0.464,3.076 1.621,4.484 2.731,6.828 1.786,0.198 0.952,0.634 2.048,1.365 l -2.048,-1.365 c 1.786,0.198 0.952,0.634 5.462,2.731 z"
           style="fill:#009a00;fill-opacity:1;fill-rule:evenodd;stroke:none" />
        <path
           inkscape:connector-curvature="0"
           id="path581"
           d="m 502.494,653.351 c 0.417,-0.939 2.951,-4.593 3.413,-6.828 -0.046,-3.872 -0.497,-6.515 -2.731,-8.875 -0.554,-2.389 -1.894,-5.998 -2.731,-8.193 0,-3.148 0.038,-6.716 -0.682,-8.876 0,-3.587 -0.496,-5.742 -1.366,-8.193 -1.542,-2.267 -3.203,-2.931 -6.827,-4.096 -2.937,-0.979 -4.967,-0.273 -8.193,0.683 0,3.186 0,6.372 0,9.558 0.043,3.613 0.688,6.193 2.048,8.193 1.11,2.342 2.182,4.016 3.414,6.827 0.132,3.711 1.116,5.629 1.365,8.876 0.269,3.491 0.597,5.298 2.731,7.51 2.907,1.374 3.794,2.703 6.145,3.414 l -6.145,-3.414 c 2.907,1.374 3.794,2.703 9.559,3.414 z"
           style="fill:#009a00;fill-opacity:1;fill-rule:evenodd;stroke:none" />
        <path
           inkscape:connector-curvature="0"
           id="path582"
           d="m 477.915,638.33 c 0,-0.227 0,-0.455 0,-0.682 0,1.908 -0.084,0.894 1.366,-2.731 0.739,-2.96 0.682,-6.218 0.682,-9.559 -0.211,-2.751 -0.61,-5.928 -1.365,-8.192 -0.624,-3.495 -1.339,-5.682 -2.048,-8.876 -0.488,-2.773 -2.366,-5.834 -3.414,-8.193 -0.67,-2.01 -1.353,-6.2 -2.048,-8.193 -0.489,-2.552 -1.715,-3.355 -4.097,-4.096 -1.869,-0.935 -6.323,-0.935 -8.193,0 -2.009,0.696 -2.006,2.284 -2.73,4.096 -0.253,3.533 -0.854,6.143 0,9.559 1.155,1.975 2.377,4.071 3.413,6.144 1.342,2.423 2.687,6.059 4.097,8.193 1.027,3.467 1.407,5.068 3.413,8.193 0.738,2.213 1.902,4.873 3.414,6.827 0.972,2.43 2.39,4.152 3.414,6.828 1.842,0 0.461,-0.045 4.096,0.682 z"
           style="fill:#009a00;fill-opacity:1;fill-rule:evenodd;stroke:none" />
        <path
           inkscape:connector-curvature="0"
           id="path583"
           d="m 618.131,711.133 c -0.198,0 -0.396,0 -0.594,0 0.792,0 -1.585,0 -2.378,0 -2.774,0 -5.547,0 -8.321,0 -1.735,1.648 -2.339,2.595 -5.349,2.972 -1.52,1.317 -2.96,2.534 -5.349,2.971 -2.103,0.458 -4.845,0.595 -7.727,0.595 -3.523,-0.043 -4.733,0.109 -5.349,-2.972 0.056,-3.063 0.2,-3.234 2.972,-3.566 1.484,-1.226 3.971,-1.807 6.538,-2.377 1.962,-0.697 4.365,-1.311 6.538,-1.784 2.107,-0.748 4.118,-1.512 5.943,-2.377 -0.454,-1.815 -1.921,-1.417 -3.566,-0.594 -2.135,0 -4.682,0.162 -5.944,-0.595 -1.483,-2.204 -2.286,-2.927 -5.943,-2.971 -3.47,-0.042 -4.062,-0.953 -7.132,-1.189 -2.94,-0.036 -4.995,-0.476 -7.133,-1.189 -3.138,-0.224 -5.246,-0.702 -7.726,-1.783 -0.797,-0.797 1.094,-0.962 2.377,-1.189 1.758,-1.195 3.617,-1.675 6.538,-1.783 2.774,0 5.547,0 8.321,0 3.049,0 5.395,0.49 8.321,0.595 2.385,0.825 4.891,1.257 6.538,2.377 2.151,0.717 3.505,1.978 4.755,3.566 2.091,0.571 4.195,1.274 6.538,1.783 2.74,0 5.846,-0.032 7.726,0.595 1.361,2.268 0.285,5.986 -0.594,8.915 z"
           style="fill:#009a00;fill-opacity:1;fill-rule:evenodd;stroke:none" />
      </g>
      <g
         style="fill:#009a00;fill-opacity:1;stroke:none"
         transform="matrix(-0.73400089,0,0,0.74705557,748.97183,-162.80959)"
         id="g601">
        <path
           inkscape:connector-curvature="0"
           id="path602"
           d="m 460.164,634.917 c -0.228,-0.228 -0.455,-0.455 -0.683,-0.683 1.55,1.549 0.802,0.981 -0.683,-2.731 -0.145,-3.936 -1.098,-4.57 -3.413,-6.145 -2.715,-0.904 -3.875,-2.064 -4.779,-4.779 -1.736,-1.433 -3.042,-3.351 -4.097,-5.462 -1.876,-1.275 -3.503,-2.903 -4.779,-4.779 -1.876,-1.276 -3.503,-2.903 -4.779,-4.779 -2.594,-0.906 -4.306,-2.751 -7.51,-4.096 -1.803,-1.719 -3.497,-2.567 -6.145,-4.097 -2.963,-1.419 -3.132,-2.446 -6.827,-2.731 -1.13,1.244 -2.92,0.755 -3.414,2.731 0.15,4.046 0.955,4.894 2.731,8.193 0.138,3.729 1.14,5.484 2.731,8.193 1.939,1.357 3.431,3.769 5.462,5.462 2.168,1.474 3.03,3.04 6.145,4.779 1.627,2.035 4.347,3.126 6.827,4.779 3.054,1.178 5.559,2.087 7.51,3.414 2.74,0.644 4.611,1.681 6.827,2.731 3.277,0.307 4.611,0.673 8.876,0 z"
           style="fill:#009a00;fill-opacity:1;fill-rule:evenodd;stroke:none" />
        <path
           inkscape:connector-curvature="0"
           id="path603"
           d="m 474.501,654.033 c -0.227,-0.227 -0.455,-0.455 -0.682,-0.682 1.621,1.621 0.848,0.958 -1.366,-2.731 -2.524,-2.39 -3.07,-4.221 -6.827,-4.78 -2.006,-0.802 -5.262,-1.298 -7.51,-2.048 -3.887,0 -5.668,-0.415 -8.876,-1.365 -2.293,-0.626 -5.194,-1.738 -7.51,-2.731 -2.746,-0.408 -5.589,-1.482 -8.193,-2.048 -3.186,0 -6.372,0 -9.558,0 -3.067,0.721 -4.793,0.753 -5.462,4.096 1.4,1.695 3.248,3.173 4.779,4.779 0.863,2.999 2.946,3.714 4.779,5.462 3.161,1.094 3.803,1.911 7.51,2.048 3.143,1.048 5.428,1.324 8.876,1.366 3.657,0 6.287,0.742 9.558,1.365 2.724,0.368 5.396,0.683 8.876,0.683 2.966,0 6.197,-0.017 8.193,-0.683 4.302,-3.441 3.413,-4.188 3.413,0.683 0.456,0.455 0.911,0.91 1.366,1.365"
           style="fill:#009a00;fill-opacity:1;fill-rule:evenodd;stroke:none" />
        <path
           inkscape:connector-curvature="0"
           id="path604"
           d="m 497.714,664.274 c -0.227,0 -0.455,0 -0.682,0 1.843,0 0.907,0.045 -2.731,-0.682 -3.405,-0.973 -5.339,-1.918 -8.876,-2.049 -2.101,-1.228 -4.68,-1.365 -8.193,-1.365 -3.186,0 -6.372,0 -9.558,0 -3.38,0.26 -4.813,1.105 -8.193,1.365 -1.794,1.05 -5.358,1.912 -7.51,2.731 -1.92,1.306 -3.559,2.929 -6.145,4.097 0.596,3.391 2.479,4.668 4.78,6.144 2.31,0.925 4.685,1.798 8.192,2.049 3.355,0.124 5.163,0.682 8.876,0.682 3.479,0 6.152,-0.314 8.876,-0.682 2.266,-1.074 4.194,-2.199 7.51,-2.731 1.653,-1.433 4.073,-2.433 6.144,-3.414 1.834,-0.868 4.329,-1.669 6.145,-2.731 l -6.145,2.731 c 1.834,-0.868 4.329,-1.669 7.51,-6.145 z"
           style="fill:#009a00;fill-opacity:1;fill-rule:evenodd;stroke:none" />
        <path
           inkscape:connector-curvature="0"
           transform="matrix(1,0,0,0.851573,1.188736,101.0965)"
           id="path605"
           d="m 529.803,679.977 c 0,-0.227 0,-0.455 0,-0.682 0,1.908 0.085,0.894 -1.365,-2.731 -2.527,-1.332 -5.559,-2.273 -7.511,-3.414 -2.984,0 -6.944,-0.283 -8.875,0.683 -3.448,0.041 -5.733,0.318 -8.876,1.365 -2.996,0.452 -4.723,1.5 -6.827,2.731 -2.378,1.283 -5.824,2.934 -8.876,4.096 -2.698,1.881 -3.612,2.984 -6.827,4.78 -2.025,2.219 -4.098,3.552 -5.462,5.462 -0.606,2.304 0.039,5.022 2.731,6.144 1.702,1.406 4.316,2.14 6.827,2.731 3.187,-0.118 6.001,-0.56 8.193,-2.048 3.383,-0.448 5.393,-1.44 8.193,-2.048 2.396,-0.851 4.69,-1.667 7.51,-2.049 1.953,-1.324 5.416,-2.467 7.51,-3.413 3.43,-1.389 5.621,-3.221 8.193,-4.779 1.226,-1.419 2.862,-2.951 4.779,-3.414 l -4.779,3.414 c 1.226,-1.419 2.862,-2.951 5.462,-6.828 z"
           style="fill:#009a00;fill-opacity:1;fill-rule:evenodd;stroke:none" />
        <path
           inkscape:connector-curvature="0"
           transform="matrix(1,0,0,0.888389,0,76.96011)"
           id="path606"
           d="m 557.112,693.632 c -0.127,-0.032 -3.176,-1.365 -5.461,-1.365 -2.024,-1.184 -5.299,-1.422 -8.193,-2.731 -3.731,0 -6.271,0.418 -8.193,2.048 -2.838,0.383 -5.375,1.217 -7.51,2.731 -2.658,0.625 -5.07,1.21 -7.51,2.731 -3.294,1.382 -4.744,2.679 -6.828,4.096 -1.405,1.701 -4.441,2.652 -6.144,4.097 -1.529,1.851 -1.526,4.299 -0.683,6.827 1.748,1.076 4.736,2.144 6.827,3.414 3.052,0.545 6.162,0.682 9.559,0.682 3.031,-0.233 5.588,-0.741 7.51,-2.048 3.434,-1.654 4.348,-2.876 6.827,-4.779 1.434,-1.736 3.833,-3.133 6.145,-4.096 1.742,-1.51 3.856,-2.614 6.827,-3.414 1.663,-1.585 3.194,-3.117 4.779,-4.779 1.909,0 0.598,0.211 2.048,-3.414 z"
           style="fill:#009a00;fill-opacity:1;fill-rule:evenodd;stroke:none" />
        <path
           inkscape:connector-curvature="0"
           transform="matrix(1,0,0,0.866411,-0.594368,95.81036)"
           id="path607"
           d="m 587.153,696.363 c -0.164,-0.025 -3.855,-0.683 -6.145,-0.683 -1.931,-0.965 -5.891,-0.683 -8.875,-0.683 -3.762,0.14 -4.925,0.917 -6.828,2.731 -1.935,1.191 -4.271,2.261 -6.144,4.097 -2.394,1.467 -4.551,3.489 -6.828,4.779 -2.505,1.073 -4.664,2.302 -7.51,2.731 -1.372,1.661 -3.778,3.096 -5.462,4.779 -1.874,1.406 -2.669,2.082 -2.731,5.462 -1.39,1.121 -2.329,3.322 -2.048,4.096 2.763,1.419 5.047,2.003 8.876,2.049 3.647,0.043 6.208,0.837 9.558,0 3.414,-1.012 4.778,-1.72 8.193,-2.731 1.743,-2.271 3.052,-3.791 5.462,-5.462 1.302,-1.915 2.862,-3.677 5.462,-4.779 1.948,-1.772 4.83,-3.729 6.827,-4.78 1.221,-1.709 3.602,-3.527 5.462,-4.779 1.368,-2.315 1.757,-2.7 2.731,-6.827 z"
           style="fill:#009a00;fill-opacity:1;fill-rule:evenodd;stroke:none" />
        <path
           inkscape:connector-curvature="0"
           id="path608"
           d="m 589.884,693.632 c 0,-1.532 0,-7.319 0,-10.924 0,-3.186 0,-6.372 0,-9.558 -3.17,-1.875 -3.645,-2.997 -4.779,-6.827 -1.683,-2.73 -2.969,-4.447 -4.097,-6.828 -1.581,-1.659 -2.884,-3.812 -3.414,-6.827 -1.304,-2.528 -2.113,-5.07 -4.779,-6.145 -2.415,-0.525 -5.565,-0.683 -8.875,-0.683 -4.522,0.168 -4.097,0.965 -4.097,5.462 0.318,3.497 1.433,4.412 2.731,7.51 1.003,2.118 2.092,4.294 3.414,6.145 1.021,2.262 2.623,5.174 4.096,6.827 1.196,2.511 2.915,4.786 3.414,7.511 1.871,2.374 3.164,4.451 4.779,6.144 1.337,2.791 2.343,4.37 4.779,5.462 1.393,2.088 3.748,2.26 6.828,2.731 z"
           style="fill:#009a00;fill-opacity:1;fill-rule:evenodd;stroke:none" />
        <path
           inkscape:connector-curvature="0"
           id="path609"
           d="m 557.112,682.708 c 0.228,0 0.456,0 0.683,0 -1.908,0 -0.894,0.085 2.731,-1.365 0.966,-1.932 0.683,-5.891 0.683,-8.876 0,-3.887 -0.643,-5.542 -1.366,-8.193 -1.242,-2.965 -2.255,-4.355 -2.731,-7.51 -1.021,-2.156 -2.049,-4.329 -2.731,-6.827 -1.227,-1.806 -2.104,-4.529 -2.73,-6.827 -2.305,-1.306 -4.433,-2.616 -6.828,-3.414 -2.171,-1.028 -4.193,-2.561 -6.827,-3.414 -3.425,0.627 -3.812,1.756 -4.097,5.462 -0.787,2.754 0.293,5.244 1.366,7.51 1.128,2.694 1.801,5.426 3.414,7.51 0.984,3.063 1.986,4.131 2.048,7.51 1.175,2.01 1.666,4.969 2.731,7.51 1.371,3.171 2.647,4.538 4.779,6.828 2.915,1.982 3.916,2.814 8.875,4.096 z"
           style="fill:#009a00;fill-opacity:1;fill-rule:evenodd;stroke:none" />
        <path
           inkscape:connector-curvature="0"
           id="path610"
           d="m 529.803,673.833 c 0,-0.327 2.168,-1.67 3.414,-3.414 1.02,-2.041 0.894,-6.191 0,-8.876 -1.295,-3.199 -2.706,-5.597 -3.414,-8.192 -0.72,-2.16 -0.683,-5.728 -0.683,-8.876 -0.623,-2.868 -1.649,-4.988 -2.731,-8.193 -0.882,-2.206 -2.602,-4.966 -3.413,-7.51 -1.065,-1.006 -2.269,-3.071 -3.414,-4.096 -1.335,-1.092 -1.382,-1.366 -4.096,-1.366 -3.629,0.135 -5.455,0.47 -7.511,2.731 -0.719,2.16 -0.682,5.728 -0.682,8.876 0.045,3.762 0.395,5.541 2.048,8.193 1.206,2.869 3.736,5.663 5.462,8.192 1.415,2.396 2.316,4.675 4.096,6.145 0.464,3.076 1.621,4.484 2.731,6.827 0.464,3.076 1.621,4.484 2.731,6.828 1.786,0.198 0.952,0.634 2.048,1.365 l -2.048,-1.365 c 1.786,0.198 0.952,0.634 5.462,2.731 z"
           style="fill:#009a00;fill-opacity:1;fill-rule:evenodd;stroke:none" />
        <path
           inkscape:connector-curvature="0"
           id="path611"
           d="m 502.494,653.351 c 0.417,-0.939 2.951,-4.593 3.413,-6.828 -0.046,-3.872 -0.497,-6.515 -2.731,-8.875 -0.554,-2.389 -1.894,-5.998 -2.731,-8.193 0,-3.148 0.038,-6.716 -0.682,-8.876 0,-3.587 -0.496,-5.742 -1.366,-8.193 -1.542,-2.267 -3.203,-2.931 -6.827,-4.096 -2.937,-0.979 -4.967,-0.273 -8.193,0.683 0,3.186 0,6.372 0,9.558 0.043,3.613 0.688,6.193 2.048,8.193 1.11,2.342 2.182,4.016 3.414,6.827 0.132,3.711 1.116,5.629 1.365,8.876 0.269,3.491 0.597,5.298 2.731,7.51 2.907,1.374 3.794,2.703 6.145,3.414 l -6.145,-3.414 c 2.907,1.374 3.794,2.703 9.559,3.414 z"
           style="fill:#009a00;fill-opacity:1;fill-rule:evenodd;stroke:none" />
        <path
           inkscape:connector-curvature="0"
           id="path612"
           d="m 477.915,638.33 c 0,-0.227 0,-0.455 0,-0.682 0,1.908 -0.084,0.894 1.366,-2.731 0.739,-2.96 0.682,-6.218 0.682,-9.559 -0.211,-2.751 -0.61,-5.928 -1.365,-8.192 -0.624,-3.495 -1.339,-5.682 -2.048,-8.876 -0.488,-2.773 -2.366,-5.834 -3.414,-8.193 -0.67,-2.01 -1.353,-6.2 -2.048,-8.193 -0.489,-2.552 -1.715,-3.355 -4.097,-4.096 -1.869,-0.935 -6.323,-0.935 -8.193,0 -2.009,0.696 -2.006,2.284 -2.73,4.096 -0.253,3.533 -0.854,6.143 0,9.559 1.155,1.975 2.377,4.071 3.413,6.144 1.342,2.423 2.687,6.059 4.097,8.193 1.027,3.467 1.407,5.068 3.413,8.193 0.738,2.213 1.902,4.873 3.414,6.827 0.972,2.43 2.39,4.152 3.414,6.828 1.842,0 0.461,-0.045 4.096,0.682 z"
           style="fill:#009a00;fill-opacity:1;fill-rule:evenodd;stroke:none" />
        <path
           inkscape:connector-curvature="0"
           id="path613"
           d="m 618.131,711.133 c -0.198,0 -0.396,0 -0.594,0 0.792,0 -1.585,0 -2.378,0 -2.774,0 -5.547,0 -8.321,0 -1.735,1.648 -2.339,2.595 -5.349,2.972 -1.52,1.317 -2.96,2.534 -5.349,2.971 -2.103,0.458 -4.845,0.595 -7.727,0.595 -3.523,-0.043 -4.733,0.109 -5.349,-2.972 0.056,-3.063 0.2,-3.234 2.972,-3.566 1.484,-1.226 3.971,-1.807 6.538,-2.377 1.962,-0.697 4.365,-1.311 6.538,-1.784 2.107,-0.748 4.118,-1.512 5.943,-2.377 -0.454,-1.815 -1.921,-1.417 -3.566,-0.594 -2.135,0 -4.682,0.162 -5.944,-0.595 -1.483,-2.204 -2.286,-2.927 -5.943,-2.971 -3.47,-0.042 -4.062,-0.953 -7.132,-1.189 -2.94,-0.036 -4.995,-0.476 -7.133,-1.189 -3.138,-0.224 -5.246,-0.702 -7.726,-1.783 -0.797,-0.797 1.094,-0.962 2.377,-1.189 1.758,-1.195 3.617,-1.675 6.538,-1.783 2.774,0 5.547,0 8.321,0 3.049,0 5.395,0.49 8.321,0.595 2.385,0.825 4.891,1.257 6.538,2.377 2.151,0.717 3.505,1.978 4.755,3.566 2.091,0.571 4.195,1.274 6.538,1.783 2.74,0 5.846,-0.032 7.726,0.595 1.361,2.268 0.285,5.986 -0.594,8.915 z"
           style="fill:#009a00;fill-opacity:1;fill-rule:evenodd;stroke:none" />
      </g>
    </g>
  </g>
</svg>
