<?xml version="1.0" encoding="UTF-8" standalone="no"?>
<!-- Created with Sodipodi ("http://www.sodipodi.com/") -->

<!--

<rdf:RDF xmlns="http://web.resource.org/cc/"
    xmlns:dc="http://purl.org/dc/elements/1.1/"
    xmlns:rdf="http://www.w3.org/1999/02/22-rdf-syntax-ns#">
<Work rdf:about="">
   <dc:title>SVG graphic of Eritrea's Flag</dc:title>
   <dc:rights><Agent>
      <dc:title>Andrew Duhan</dc:title>
   </Agent></dc:rights>
   <license rdf:resource="http://web.resource.org/cc/PublicDomain" />
</Work>

<License rdf:about="http://web.resource.org/cc/PublicDomain">
   <permits rdf:resource="http://web.resource.org/cc/Reproduction" />
   <permits rdf:resource="http://web.resource.org/cc/Distribution" />
   <permits rdf:resource="http://web.resource.org/cc/DerivativeWorks" />
</License>

</rdf:RDF>

-->

<svg
   xmlns:dc="http://purl.org/dc/elements/1.1/"
   xmlns:cc="http://creativecommons.org/ns#"
   xmlns:rdf="http://www.w3.org/1999/02/22-rdf-syntax-ns#"
   xmlns:svg="http://www.w3.org/2000/svg"
   xmlns="http://www.w3.org/2000/svg"
   xmlns:sodipodi="http://sodipodi.sourceforge.net/DTD/sodipodi-0.dtd"
   xmlns:inkscape="http://www.inkscape.org/namespaces/inkscape"
   id="svg678"
   sodipodi:version="0.32"
   width="640"
   height="480"
   sodipodi:docname="er.svg"
   version="1.1"
   inkscape:version="0.48.1 r9760">
  <sodipodi:namedview
     id="base"
     showgrid="false"
     inkscape:zoom="0.5248"
     inkscape:cx="70.503049"
     inkscape:cy="156.25"
     inkscape:window-width="1280"
     inkscape:window-height="746"
     inkscape:window-x="0"
     inkscape:window-y="24"
     inkscape:window-maximized="1"
     inkscape:current-layer="svg678" />
  <metadata
     id="metadata3062">
    <rdf:RDF>
      <cc:Work
         rdf:about="">
        <dc:format>image/svg+xml</dc:format>
        <dc:type
           rdf:resource="http://purl.org/dc/dcmitype/StillImage" />
      </cc:Work>
    </rdf:RDF>
  </metadata>
  <defs
     id="defs680">
    <clipPath
       id="clipPath5277"
       clipPathUnits="userSpaceOnUse">
      <rect
         y="0"
         width="512"
         style="fill:#000000;fill-opacity:0.67000002;stroke:none"
         x="0"
         height="512"
         id="rect5279" />
    </clipPath>
  </defs>
  <g
     id="flag"
     inkscape:label="#g8520">
    <g
       transform="matrix(1.0820786,0,0,0.9375,97.38707,0)"
       id="g5244">
      <rect
         y="0"
         x="-90"
         height="512"
         width="591.45428"
         id="rect686"
         style="font-size:12px;fill:#be0027;fill-opacity:1;fill-rule:evenodd;stroke-width:1pt" />
      <path
         inkscape:connector-curvature="0"
         id="path684"
         d="M -90,511.99988 501.45403,511.67917 501.41712,255.99771 -90,511.99988 z"
         style="fill:#b4d7f4;fill-opacity:1;fill-rule:evenodd;stroke:none" />
      <path
         inkscape:connector-curvature="0"
         id="path685"
         d="M -90,4.142434e-4 501.45403,0.32112749 501.41712,256.0003 -90,4.142434e-4 z"
         style="fill:#239e46;fill-opacity:1;fill-rule:evenodd;stroke:none" />
    </g>
    <path
       style="fill:#f3e295;fill-opacity:1;fill-rule:evenodd;stroke:none"
       d="m 186.22562,360.40082 c -10.71274,2.95796 -16.85447,11.26925 -16.69719,19.11075 l 52.73093,-0.21171 c 0.47384,-8.42623 -6.45828,-16.21932 -17.01174,-19.28818 51.62802,-1.06663 96.47916,-20.4052 104.62915,-32.81367 -8.0653,-3.50034 -17.39081,2.13326 -24.03864,0.83677 15.7838,-7.29507 63.07267,-37.90289 55.38442,-70.71657 -5.97638,18.22558 -24.08097,33.30566 -31.79139,37.35445 17.66502,-26.82316 41.78632,-54.74927 20.85888,-76.37436 1.05656,12.53347 -7.96448,26.32715 -11.94874,27.36354 10.24696,-28.34146 20.02412,-63.92557 -2.17763,-87.3835 2.91561,8.47865 1.73807,32.3963 -2.27643,33.471 -1.23601,-19.27203 -4.52463,-59.80824 -24.82097,-59.23158 6.4462,5.73847 9.26704,21.40127 9.41019,37.22138 -4.62544,-10.83775 -9.882,-18.99783 -21.12504,-27.00062 -9.09564,-17.44322 -25.27866,-31.89625 -41.46371,-42.25008 1.81671,12.69681 3.32089,22.71391 21.04842,35.88253 -9.24284,-0.57466 -18.48365,-18.09652 -28.36164,-18.58246 -7.85761,-0.37907 -14.02354,7.11964 -26.8635,2.80471 1.42151,4.23831 7.41202,6.11551 8.67626,9.25091 -2.75027,1.89937 -9.27914,-0.29641 -14.70708,-3.1233 7.46645,10.17034 19.03612,16.15077 28.85765,14.13243 11.68057,-2.24619 24.20396,-1.05857 36.14867,5.73846 -3.0507,1.56668 -14.92483,1.5566 -22.54453,0.60288 6.92608,7.01278 11.57169,11.66042 23.6152,11.58379 10.7571,-0.0705 16.39676,-5.73846 19.15913,-2.22805 6.74663,7.99474 11.28738,15.98544 16.93107,25.39764 -12.46693,1.37716 -8.70851,-14.10016 -22.59292,-22.01625 -7.80116,16.14673 8.97265,35.28771 20.3911,43.24413 0.15324,12.13625 1.92761,22.29046 7.07529,31.53129 3.47009,6.51474 7.95641,13.18272 6.26473,27.88577 -6.83535,-4.9783 -13.51544,-21.76825 -11.05754,-35.09615 -8.55526,2.33289 -11.90035,17.37669 -7.8677,24.95 3.01239,5.76467 5.02267,16.79801 1.54853,21.72995 -3.3854,4.5952 -3.74028,4.08104 -3.69591,13.94288 0.12097,5.90179 -3.17571,12.88028 -8.54519,17.74568 1.12108,-4.15766 2.39942,-11.31158 1.15737,-15.7838 -4.24436,7.20031 -14.89258,14.65062 -18.24573,22.3913 -3.29266,7.75882 -4.12742,21.19763 -20.06243,24.29672 -20.49998,4.06894 -27.57527,7.62171 -40.76607,13.01941 -1.46385,-10.01912 2.91762,-30.91229 11.29545,-29.72064 8.18023,1.45578 32.98103,-8.54518 24.1092,-29.43835 -1.75219,6.58532 -7.59751,13.01135 -13.91667,13.29565 6.82728,-8.85771 19.01193,-18.02997 13.07789,-32.87215 -3.29871,6.3091 -8.48672,13.88039 -16.35442,18.14088 8.43428,-16.16287 0.97994,-20.99801 -9.03515,-7.68623 -3.78263,5.13558 -6.06713,15.42691 -8.47058,28.49672 -3.93386,-10.63006 -3.67375,-24.62337 -8.3355,-35.98535 -4.86942,-12.28749 6.46232,-15.53176 11.79551,-14.54578 13.05772,3.48624 34.8804,3.48422 33.25928,-18.08844 -5.63966,7.29708 -15.52974,9.55133 -26.21021,6.92405 11.99512,-8.75892 21.46579,-25.2343 8.09958,-33.83595 -0.44561,9.12185 -7.50476,19.34866 -16.92907,24.05879 -2.20586,-7.69631 -2.20586,-15.86445 -0.31455,-24.81895 -5.2626,5.53885 -9.10572,17.06416 -12.16248,30.16625 -0.22985,-12.95087 2.21998,-22.28241 4.03669,-29.24882 2.75431,-10.1764 9.59972,-3.55478 20.07857,-2.80471 10.09171,0.57264 23.98621,-5.00452 21.3307,-18.68932 -3.44589,5.41384 -10.51916,7.52089 -17.74568,6.94826 8.70045,-5.27068 23.85918,-14.63651 15.54588,-29.04314 -3.49228,5.45617 -4.62343,10.12396 -14.73127,11.7975 2.64743,-6.08929 3.08699,-14.699 10.93251,-18.11063 -13.99531,-2.78655 -22.00819,6.39781 -26.08117,20.78227 -1.65137,-9.97274 -3.61729,-13.64447 -4.00845,-20.93954 7.56525,-8.40202 8.35767,-24.83911 -8.02095,-28.51487 -0.97186,8.47865 -0.68353,10.49901 1.17956,17.40291 -7.68825,-4.56699 -18.52398,-7.08739 -25.7384,-0.6291 4.88757,5.27471 12.45283,9.91831 24.11324,4.16573 -2.75431,9.01096 -9.91831,7.46846 -19.76201,4.03265 6.01671,11.3015 13.6102,13.30976 21.99005,12.00721 4.38752,11.56766 4.58108,20.35683 -8.24072,37.20322 0.5928,-10.46876 -0.15123,-18.2679 -8.46857,-26.73244 -7.12772,-6.98052 -12.92062,0.29842 -1.78244,15.81807 -6.75671,-4.97629 -14.40463,-15.07605 -16.70727,-25.17381 -2.22803,12.475 -0.22179,27.17804 6.68413,35.42078 -3.26645,3.49026 -6.98052,-0.371 -12.47501,-8.91014 2.07883,27.32726 13.73723,32.59994 29.40609,26.50863 0.44561,14.99944 0.44561,28.88789 1.33682,47.0066 -9.13597,-13.14242 -20.71774,-22.9458 -27.18006,-25.39562 -2.00423,7.35151 5.5711,16.92905 9.80337,22.27635 -6.4603,-1.33682 -20.49595,-12.02939 -20.49595,-12.02939 -1.41143,12.1786 14.33406,23.466 24.50642,28.51487 -11.9548,-0.52021 -17.2295,-5.04887 -24.95202,-12.475 0.1492,33.78756 36.6084,27.92005 43.44173,22.72197 0.89121,16.63468 2.16149,35.86437 3.05271,52.49906 -10.30746,-1.79856 -9.49689,-4.89766 -18.3163,-5.71427 -24.47819,-0.95372 -43.8954,-29.38391 -50.32546,-50.29724 -1.84494,3.44187 -0.38109,7.04304 -2.06875,11.27126 -3.97418,-10.2651 -9.05129,-23.52244 -15.86042,-29.6924 1.73404,5.98445 1.91753,12.06569 1.31465,23.25024 -2.33692,-7.24667 -4.51052,-9.46865 -4.6678,-17.97553 0.14921,-6.53088 6.30102,-11.3499 5.96026,-20.53628 -0.25204,-6.7063 -6.36957,-21.24198 -7.26885,-32.49509 -2.96198,11.58177 -4.82103,23.79062 -9.35777,30.96067 2.25426,-12.36815 1.5316,-20.90324 5.34528,-29.22664 4.40567,-8.76294 8.152,-16.58629 5.21825,-25.42989 -2.81277,3.41565 -1.84494,6.51878 -8.91195,14.81797 -1.53503,-9.02507 9.13778,-23.47002 19.49564,-29.27703 7.30515,-3.84917 16.51371,-17.61665 10.51514,-27.05305 -6.86962,4.93395 -9.9546,11.59993 -19.65917,22.99015 6.92204,-27.05909 24.90766,-34.13841 46.44,-34.23116 4.76458,-0.0222 14.37035,-1.74211 17.06619,-8.04715 -6.06915,2.34297 -13.24525,2.64138 -19.63096,1.36304 4.64763,-6.82325 14.43488,-5.93607 23.55472,-5.9764 7.15391,-0.0343 18.32234,-1.00412 22.8369,-11.19262 -8.72666,3.78061 -22.33686,4.56698 -30.90624,1.8893 13.62835,-7.06118 34.97518,-7.82133 45.92383,-17.08836 -12.47903,-9.31341 -43.70587,2.16957 -63.42956,15.6971 5.51263,-5.04081 14.22518,-13.98322 19.03209,-21.20167 -10.78734,-5.17188 -38.06822,25.05083 -47.46631,43.00822 -8.92627,5.04081 -12.49718,12.94279 -15.96325,18.45744 4.75651,-16.07212 5.26059,-27.73455 9.22872,-40.9697 -30.598541,10.53328 -17.87996,67.06901 -24.53565,80.59453 0.78334,-14.93291 0.14901,-34.11623 -5.998973,-44.00832 -9.424708,7.19022 -10.185266,49.50886 -1.336824,84.74011 -3.195271,-9.42834 -9.2261,-18.2296 -11.160966,-29.70451 -13.948534,25.43997 8.176805,55.45298 26.678003,79.16094 -13.92837,-7.25475 -27.699876,-22.85909 -36.745917,-35.941 2.496814,45.53265 50.045597,54.99325 57.427367,66.18386 -10.01912,-4.66376 -29.17341,-13.89249 -37.301215,-4.22219 13.231525,3.05473 23.785785,6.58532 32.290645,12.16046 12.33991,15.40674 35.7071,22.14529 76.4026,23.84707 z"
       id="path687"
       sodipodi:nodetypes="cccccccccccccccccscccsccsccccsccscsccsscsccccscsscccccccsccccccccccccccccccccccccccccscccccsccsccsccsccscccccccccccccccccc"
       inkscape:connector-curvature="0" />
  </g>
</svg>
