<?xml version="1.0" encoding="UTF-8" standalone="no"?>
<!-- Created with Sodipodi ("http://www.sodipodi.com/") -->

<svg
   xmlns:dc="http://purl.org/dc/elements/1.1/"
   xmlns:cc="http://creativecommons.org/ns#"
   xmlns:rdf="http://www.w3.org/1999/02/22-rdf-syntax-ns#"
   xmlns:svg="http://www.w3.org/2000/svg"
   xmlns="http://www.w3.org/2000/svg"
   xmlns:sodipodi="http://sodipodi.sourceforge.net/DTD/sodipodi-0.dtd"
   xmlns:inkscape="http://www.inkscape.org/namespaces/inkscape"
   version="1"
   x="0"
   y="0"
   width="640"
   height="480"
   id="svg378"
   sodipodi:version="0.32"
   sodipodi:docname="et.svg"
   inkscape:version="0.48.1 r9760">
  <sodipodi:namedview
     id="base"
     showgrid="true"
     inkscape:zoom="0.33060318"
     inkscape:cx="111.91665"
     inkscape:cy="248.03149"
     inkscape:window-width="1280"
     inkscape:window-height="746"
     inkscape:window-x="0"
     inkscape:window-y="24"
     inkscape:window-maximized="1"
     inkscape:current-layer="svg378">
    <inkscape:grid
       empspacing="5"
       empopacity="0.4"
       opacity="0.2"
       empcolor="#0000ff"
       color="#0000ff"
       spacingy="15mm"
       spacingx="15mm"
       originy="-9mm"
       originx="0px"
       type="xygrid"
       id="GridFromPre046Settings"
       units="mm"
       visible="true"
       enabled="false"
       snapvisiblegridlinesonly="true" />
  </sodipodi:namedview>
  <metadata
     id="metadata3768">
    <rdf:RDF>
      <cc:Work
         rdf:about="">
        <dc:format>image/svg+xml</dc:format>
        <dc:type
           rdf:resource="http://purl.org/dc/dcmitype/StillImage" />
      </cc:Work>
    </rdf:RDF>
  </metadata>
  <defs
     id="defs380">
    <clipPath
       clipPathUnits="userSpaceOnUse"
       id="clipPath3804">
      <rect
         id="rect3806"
         height="489.26254"
         x="229.34183"
         style="fill:#000000;fill-opacity:0.67000002;stroke:none"
         width="489.26254"
         y="6.346138" />
    </clipPath>
    <clipPath
       clipPathUnits="userSpaceOnUse"
       id="clipPath4680">
      <rect
         id="rect4682"
         height="512"
         x="-61.312313"
         style="fill:#000000;fill-opacity:0.67000002;stroke:none"
         width="682.66669"
         y="1.4384443e-05" />
    </clipPath>
  </defs>
  <g
     id="flag"
     transform="matrix(0.9375,0,0,0.9375,57.480295,-1.3485415e-5)"
     clip-path="url(#clipPath4680)"
     inkscape:label="#g4619">
    <rect
       width="1037.929"
       height="498.00464"
       x="-237.98753"
       y="3.4988265"
       style="font-size:12px;fill:#ffc621;fill-opacity:1;fill-rule:evenodd;stroke-width:1pt"
       id="rect171" />
    <rect
       width="1039.3378"
       height="169.50002"
       x="-240"
       y="342.5"
       style="font-size:12px;fill:#ef2118;fill-opacity:1;fill-rule:evenodd;stroke-width:1pt"
       id="rect289" />
    <rect
       width="1038.0295"
       height="179.99658"
       x="-237.9875"
       y="1.3510095e-05"
       style="font-size:12px;fill:#298c08;fill-opacity:1;fill-rule:evenodd;stroke-width:1pt"
       id="rect288" />
    <ellipse
       d="m 733.8736,352.9678 c 0,110.26463 -89.38716,199.65177 -199.6518,199.65177 -110.26464,0 -199.65179,-89.38714 -199.65179,-199.65177 0,-110.26462 89.38715,-199.65176 199.65179,-199.65176 110.26464,0 199.6518,89.38714 199.6518,199.65176 z"
       sodipodi:ry="199.65176"
       sodipodi:rx="199.65179"
       sodipodi:cy="352.9678"
       sodipodi:cx="534.2218"
       cx="534.2218"
       cy="352.9678"
       rx="199.65179"
       ry="199.65176"
       style="font-size:12px;fill:#006bc6;fill-opacity:1;fill-rule:evenodd;stroke-width:1pt"
       id="path316"
       transform="matrix(0.53920353,0,0,0.53920249,-25.807404,73.951155)" />
    <path
       inkscape:connector-curvature="0"
       d="m 214.2514,188.20277 -6.43216,4.52175 23.49418,33.02076 6.26662,-3.99603 -23.32864,-33.54648 z m 29.41032,77.94226 -9.66091,-6.73626 3.99226,-12.67611 -48.1223,0.67185 -13.9287,-10.66435 65.69116,-0.70797 12.18277,-36.90841 6.54431,14.92351 -16.69859,52.09774 z m 76.52161,-70.67866 -6.25423,-4.76494 -24.37793,32.37372 5.70316,4.76601 24.929,-32.37479 z m -65.4124,51.58712 3.50266,-11.24507 13.28975,-0.0243 -15.18181,-45.66992 5.95766,-16.50013 20.52424,62.40676 38.86417,0.46047 -12.248,10.74793 -54.70867,-0.17578 z m 90.67192,51.16546 2.6146,-7.41511 -38.29477,-13.26169 -2.78499,6.89047 38.46516,13.78633 z m -69.17873,-46.41563 11.77728,-0.11916 4.10388,12.64052 38.80324,-28.46935 17.53221,0.60391 -53.0916,38.69263 11.49312,37.1284 -13.98909,-8.3571 -16.62904,-52.11985 z m -19.74941,102.07912 7.86159,0.11485 0.36342,-40.5243 -7.4189,-0.44323 -0.80611,40.85268 z m 21.94397,-80.36489 3.86663,11.12536 -10.673,7.91819 39.35269,27.70476 5.01621,16.81018 -53.59737,-37.98897 -31.52831,22.72846 3.46223,-15.92319 44.10092,-32.37479 z m -103.26664,12.98561 2.32504,7.51109 38.6458,-12.20323 -1.87643,-7.19188 -39.09441,11.88402 z m 83.20988,-4.01976 -9.38052,7.12125 -10.83476,-7.69604 -14.15678,45.99721 -14.43071,9.97471 19.5251,-62.72651 -31.37464,-22.94036 16.21278,-1.63864 44.43953,31.90838 z"
       style="font-size:12px;fill:#ffc621;fill-opacity:1;fill-rule:evenodd;stroke-width:1pt"
       id="path322" />
  </g>
</svg>
