<?xml version="1.0" encoding="UTF-8" standalone="no"?>
<!-- Created with Sodipodi ("http://www.sodipodi.com/") -->

<svg
   xmlns:dc="http://purl.org/dc/elements/1.1/"
   xmlns:cc="http://creativecommons.org/ns#"
   xmlns:rdf="http://www.w3.org/1999/02/22-rdf-syntax-ns#"
   xmlns:svg="http://www.w3.org/2000/svg"
   xmlns="http://www.w3.org/2000/svg"
   xmlns:sodipodi="http://sodipodi.sourceforge.net/DTD/sodipodi-0.dtd"
   xmlns:inkscape="http://www.inkscape.org/namespaces/inkscape"
   version="1"
   x="0"
   y="0"
   width="640"
   height="480"
   id="svg378"
   sodipodi:version="0.32"
   sodipodi:docname="hn.svg"
   inkscape:version="0.48.1 r9760"
   viewBox="0 0 512 512">
  <sodipodi:namedview
     id="base"
     showgrid="true"
     inkscape:zoom="0.34158262"
     inkscape:cx="480.1181"
     inkscape:cy="248.03149"
     inkscape:window-width="1280"
     inkscape:window-height="746"
     inkscape:window-x="0"
     inkscape:window-y="24"
     inkscape:window-maximized="1"
     inkscape:current-layer="svg378">
    <inkscape:grid
       snapvisiblegridlinesonly="true"
       enabled="false"
       visible="true"
       units="mm"
       id="GridFromPre046Settings"
       type="xygrid"
       originx="0px"
       originy="-8mm"
       spacingx="1mm"
       spacingy="1mm"
       color="#0000ff"
       empcolor="#0000ff"
       opacity="0.2"
       empopacity="0.4"
       empspacing="5" />
  </sodipodi:namedview>
  <metadata
     id="metadata3649">
    <rdf:RDF>
      <cc:Work
         rdf:about="">
        <dc:format>image/svg+xml</dc:format>
        <dc:type
           rdf:resource="http://purl.org/dc/dcmitype/StillImage" />
      </cc:Work>
    </rdf:RDF>
  </metadata>
  <defs
     id="defs380">
    <clipPath
       id="clipPath9847"
       clipPathUnits="userSpaceOnUse">
      <rect
         y="2.6033297"
         width="494.60599"
         style="fill:#000000;fill-opacity:0.67000002;stroke:none"
         x="218.91881"
         height="494.60599"
         id="rect9849" />
    </clipPath>
    <clipPath
       clipPathUnits="userSpaceOnUse"
       id="clipPath4393">
      <rect
         id="rect4395"
         height="512"
         x="-85.333336"
         style="fill:#000000;fill-opacity:0.67000002;stroke:none"
         width="682.66669"
         y="0" />
    </clipPath>
  </defs>
  <g
     id="flag"
     clip-path="url(#clipPath4393)"
     inkscape:label="#g4284">
    <rect
       y="139.082"
       x="-226.61761"
       height="216.28004"
       width="993.5365"
       id="rect649"
       style="font-size:12px;fill:#ffffff;fill-opacity:1;fill-rule:evenodd;stroke-width:1pt" />
    <rect
       transform="scale(-1,-1)"
       id="rect148"
       style="font-size:12px;fill:#087bce;fill-opacity:1;fill-rule:evenodd;stroke-width:1pt"
       y="-512"
       x="-765.1059"
       height="172.86804"
       width="989.67255" />
    <rect
       transform="scale(-1,-1)"
       id="rect585"
       style="font-size:12px;fill:#087bce;fill-opacity:1;fill-rule:evenodd;stroke-width:1pt"
       y="-168.09543"
       x="-767.52759"
       height="168.09543"
       width="994.14594" />
    <polygon
       transform="matrix(0.3450979,-0.00167946,-0.0037575,0.32717501,88.665602,141.87101)"
       id="polygon671"
       style="font-size:12px;fill:#087bce;fill-opacity:1;fill-rule:evenodd;stroke-width:1pt"
       points="498.449,365.806 441.115,324.214 511.946,324.278 533.785,256.897 555.613,324.281 626.445,324.23 569.104,365.812 591.041,433.161 591.041,433.161 533.774,391.476 476.501,433.151 " />
    <polygon
       transform="matrix(0.3450979,-0.00167946,-0.0037575,0.32717501,231.6127,178.66934)"
       id="polygon637"
       style="font-size:12px;fill:#087bce;fill-opacity:1;fill-rule:evenodd;stroke-width:1pt"
       points="498.449,365.806 441.115,324.214 511.946,324.278 533.785,256.897 555.613,324.281 626.445,324.23 569.104,365.812 591.041,433.161 591.041,433.161 533.774,391.476 476.501,433.151 " />
    <polygon
       transform="matrix(0.3450979,-0.00167946,-0.0037575,0.32717501,231.6127,102.24221)"
       id="polygon638"
       style="font-size:12px;fill:#087bce;fill-opacity:1;fill-rule:evenodd;stroke-width:1pt"
       points="498.449,365.806 441.115,324.214 511.946,324.278 533.785,256.897 555.613,324.281 626.445,324.23 569.104,365.812 591.041,433.161 591.041,433.161 533.774,391.476 476.501,433.151 " />
    <polygon
       transform="matrix(0.3450979,-0.00167946,-0.0037575,0.32717501,-84.003011,178.66934)"
       id="polygon639"
       style="font-size:12px;fill:#087bce;fill-opacity:1;fill-rule:evenodd;stroke-width:1pt"
       points="498.449,365.806 441.115,324.214 511.946,324.278 533.785,256.897 555.613,324.281 626.445,324.23 569.104,365.812 591.041,433.161 591.041,433.161 533.774,391.476 476.501,433.151 " />
    <polygon
       transform="matrix(0.3450979,-0.00167946,-0.0037575,0.32717501,-84.003115,102.24221)"
       id="polygon640"
       style="font-size:12px;fill:#087bce;fill-opacity:1;fill-rule:evenodd;stroke-width:1pt"
       points="498.449,365.806 441.115,324.214 511.946,324.278 533.785,256.897 555.613,324.281 626.445,324.23 569.104,365.812 591.041,433.161 591.041,433.161 533.774,391.476 476.501,433.151 " />
  </g>
</svg>
