<?xml version="1.0" encoding="UTF-8" standalone="no"?>
<!-- Created with Sodipodi ("http://www.sodipodi.com/") -->

<svg
   xmlns:dc="http://purl.org/dc/elements/1.1/"
   xmlns:cc="http://creativecommons.org/ns#"
   xmlns:rdf="http://www.w3.org/1999/02/22-rdf-syntax-ns#"
   xmlns:svg="http://www.w3.org/2000/svg"
   xmlns="http://www.w3.org/2000/svg"
   xmlns:sodipodi="http://sodipodi.sourceforge.net/DTD/sodipodi-0.dtd"
   xmlns:inkscape="http://www.inkscape.org/namespaces/inkscape"
   version="1"
   x="0.00000000"
   y="0.00000000"
   width="640"
   height="480"
   id="svg378"
   inkscape:version="0.48.1 r9760"
   sodipodi:docname="im.svg">
  <sodipodi:namedview
     pagecolor="#ffffff"
     bordercolor="#666666"
     borderopacity="1"
     objecttolerance="10"
     gridtolerance="10"
     guidetolerance="10"
     inkscape:pageopacity="0"
     inkscape:pageshadow="2"
     inkscape:window-width="1280"
     inkscape:window-height="746"
     id="namedview3889"
     showgrid="false"
     inkscape:zoom="0.38301588"
     inkscape:cx="199.91532"
     inkscape:cy="404.68296"
     inkscape:window-x="0"
     inkscape:window-y="24"
     inkscape:window-maximized="1"
     inkscape:current-layer="svg378" />
  <metadata
     id="metadata3891">
    <rdf:RDF>
      <cc:Work
         rdf:about="">
        <dc:format>image/svg+xml</dc:format>
        <dc:type
           rdf:resource="http://purl.org/dc/dcmitype/StillImage" />
      </cc:Work>
    </rdf:RDF>
  </metadata>
  <defs
     id="defs380">
    <clipPath
       clipPathUnits="userSpaceOnUse"
       id="clipPath9267">
      <rect
         id="rect9269"
         height="744.09448"
         x="148.23758"
         style="fill:#000000;fill-opacity:0.67000002;stroke:none"
         width="744.09448"
         y="-1.5330501e-06" />
    </clipPath>
    <clipPath
       clipPathUnits="userSpaceOnUse"
       id="clipPath8588">
      <rect
         id="rect8590"
         height="512"
         x="-77.619774"
         style="fill:#000000;fill-opacity:0.67000002;stroke:none"
         width="682.66669"
         y="0" />
    </clipPath>
  </defs>
  <g
     transform="matrix(0.9375,0,0,0.9375,72.768536,0)"
     id="flag"
     clip-path="url(#clipPath8588)"
     inkscape:label="#g8418">
    <rect
       width="731.42712"
       height="512"
       x="-629.42712"
       y="-512"
       transform="scale(-1,-1)"
       style="font-size:12px;fill:#ba0000;fill-rule:evenodd;stroke-width:1pt"
       id="rect148" />
    <path
       inkscape:connector-curvature="0"
       d="m 281.01662,376.01378 c 0.20002,-0.60503 0.60338,-6.8438 0.4017,-6.8438 -0.20168,0 -9.45899,-10.86742 -9.25731,-10.86742 0.20167,0 11.87416,2.61684 11.87416,2.21349 0,-0.4017 4.62865,-11.47081 4.62865,-11.67248 0,-0.20003 5.63539,13.48427 5.63539,13.48427 l 11.4708,5.03201 -8.05055,6.64047 c 0,0 1.81179,12.88089 1.81179,13.08256 0,0.20003 -8.05056,-7.64885 -8.05056,-7.64885 l -8.85561,1.00673 c 0,0 -1.20676,-4.02528 -1.60846,-4.42698 z"
       style="font-size:12px;fill:#ffef00;fill-opacity:0.98823499;fill-rule:evenodd;stroke:#000000;stroke-width:1.65309162pt"
       id="path747" />
    <path
       inkscape:connector-curvature="0"
       d="m 218.66035,206.88928 c -7.6472,3.93766 -36.99619,37.4855 -41.02147,42.71754 -3.37231,7.59596 -9.96815,17.20538 -16.76235,23.39125 -7.25212,5.48661 -11.28235,12.98173 -10.28389,20.07845 -0.081,8.83081 4.87001,14.84311 8.81429,21.05708 2.33416,2.83836 5.47504,4.67329 8.81428,4.89646 6.85042,0.90424 7.45875,3.01358 10.88727,4.31953 13.50575,18.38899 33.65364,31.9493 48.16448,42.69109 9.24904,4.87497 15.68122,9.74994 17.88479,12.41141 4.24845,8.11172 3.46654,16.02177 2.88465,19.90819 -3.59052,13.54874 -7.18268,27.09748 -10.7732,40.64621 -1.81179,11.06911 7.80755,8.57955 8.32497,6.36606 4.34102,-5.63539 10.81949,-1.67789 20.0768,-34.28016 4.24349,-5.71309 8.48863,-11.42617 12.73211,-17.13926 0,0 4.89811,-1.95891 4.89811,-2.44823 7.44718,-8.94157 1.77708,-14.05954 -2.44988,-15.66965 -3.1012,-1.14229 -6.2024,-2.28623 -9.3036,-3.42851 0,0 -10.7732,-10.7732 -11.26251,-10.7732 -5.11963,-14.89271 -30.24828,-46.68662 -36.08534,-51.1136 -4.04016,-4.21042 -5.9627,-6.00403 -9.79788,-8.34646 -5.89657,-2.82017 -7.79928,-3.73764 -11.41129,-5.17913 -3.00697,-1.20676 -0.86622,-4.50798 1.04641,-6.01726 19.90322,-10.83436 35.68033,-22.87548 54.7785,-35.11828 0.97863,-0.65297 1.95891,-1.30594 2.93754,-1.95891 -2.28457,-13.05777 -4.5708,-26.1172 -6.85537,-39.17497 -10.60954,-3.75417 -21.22074,-7.50999 -31.83028,-11.26417 -1.66962,1.14229 -2.93754,2.28623 -4.40714,3.42852 z"
       style="font-size:12px;fill:#ffffff;fill-rule:evenodd;stroke:#000000;stroke-width:2.63583827"
       id="path724" />
    <path
       inkscape:connector-curvature="0"
       d="m 245.29331,413.14553 c 0.10084,-0.4017 19.92306,-4.02528 19.92306,-4.02528 0,0 -2.31433,7.34634 -2.41517,7.34634 l -19.72138,5.93625 2.21349,-9.25731 z"
       style="font-size:12px;fill:#ffec00;fill-rule:evenodd;stroke-width:1pt"
       id="path745" />
    <path
       inkscape:connector-curvature="0"
       d="m 193.6375,338.50844 c 3.8236,-10.16321 14.4381,-18.21046 21.56789,-20.43056"
       style="font-size:12px;fill:none;stroke:#000000;stroke-width:1.65309162pt"
       id="path725" />
    <path
       inkscape:connector-curvature="0"
       d="m 244.58083,413.32406 c 1.27949,-0.36037 6.96116,-2.01842 8.61591,-2.2763 1.7655,-0.41328 3.52274,-0.87614 5.22046,-1.42332 1.95892,-0.40005 3.18551,-0.76868 5.22047,-1.13898 1.59358,-0.60833 3.16897,-1.02491 4.87331,-1.42331 m -27.51902,18.51793 c 0.16531,-0.22151 1.51589,-1.41504 2.48625,-1.99197 1.14229,-0.36038 5.04855,-2.01843 6.52641,-2.27631 1.57705,-0.41327 3.14583,-0.87614 4.66172,-1.42331 1.75062,-0.40005 2.84497,-0.76869 4.66337,-1.13898 1.42331,-0.60834 2.83009,-1.02492 4.35094,-1.42331"
       style="font-size:12px;fill:none;stroke:#000000;stroke-width:1.82798882pt"
       id="path744" />
    <path
       inkscape:connector-curvature="0"
       d="m 249.04087,341.38482 c -0.0959,0 -0.19011,0 -0.28433,0 0.89101,0 0.34384,-0.0744 -0.85465,1.42331 -0.4265,1.15055 -4.07983,3.69962 -6.83058,3.69962 -1.32743,0.14216 -3.36735,0.28433 -4.69643,0.28433 -0.37856,0 -0.90094,-0.28433 -1.28115,-0.28433"
       style="font-size:12px;fill:none;stroke:#000000;stroke-width:1.65309162pt"
       id="path726" />
    <path
       inkscape:connector-curvature="0"
       d="m 248.75654,400.01667 c 0.0942,0 0.18845,0 0.28433,0 -0.38021,0 0.75877,0 1.13732,0 1.47621,0 2.95739,0.26285 4.26994,0.28434 1.42331,0 2.84662,0.40335 4.26994,0.40335 1.43653,0.20333 3.16732,0.13721 4.65345,0.3488 1.66632,0.0562 3.00367,0.38517 4.73776,0.38517 1.39852,0.0529 2.15233,0.28599 3.70127,0.28599 l -3.70127,-0.28599 c 1.39852,0.0529 2.15233,0.28599 3.70127,0.28599"
       style="font-size:12px;fill:none;stroke:#000000;stroke-width:1.65309162pt"
       id="path728" />
    <path
       inkscape:connector-curvature="0"
       d="m 239.07934,434.73821 c 0.15208,-0.22151 1.38859,-1.41504 2.2763,-1.99197 1.04641,-0.36038 4.6237,-2.01843 5.97758,-2.27631 1.44315,-0.41327 2.87969,-0.87614 4.26829,-1.42331 1.60349,-0.40005 2.60527,-0.76869 4.26993,-1.13898 1.30429,-0.60834 2.59205,-1.02492 3.98395,-1.42331"
       style="font-size:12px;fill:none;stroke:#000000;stroke-width:1.65309162pt"
       id="path727" />
    <path
       inkscape:connector-curvature="0"
       d="m 265.73213,385.26779 c -0.80505,2.33747 0.23805,2.92432 0.66951,3.93271 0.7505,0.97697 2.66643,2.46641 5.69324,3.41528 1.16709,0.31409 2.06472,0.62157 3.41529,1.13898 0.89432,0.0827 1.33405,0.30582 1.99198,0.56867"
       style="font-size:12px;fill:none;stroke:#000000;stroke-width:1.65309162pt"
       id="path729" />
    <path
       inkscape:connector-curvature="0"
       d="m 153.12518,299.54672 c 0.0942,0 0.19011,0 0.28433,0 -0.89267,0 -0.35707,0.0579 1.13898,-1.13898 0.92408,-1.03318 1.69607,-1.50101 2.56064,-2.56064"
       style="font-size:12px;fill:none;stroke:#000000;stroke-width:1.65309162pt"
       id="path730" />
    <path
       inkscape:connector-curvature="0"
       d="m 171.55385,319.82189 c 0.1901,0 16.55736,-8.24893 18.30468,-10.01112 1.23817,-0.89763 2.17547,-1.84485 3.68144,-2.86481 0.9654,-0.50419 1.65805,-1.15055 2.56229,-1.70765 0.75216,-1.08938 1.73409,-1.74731 2.27631,-2.74413 1.00508,-0.87118 0.57362,-1.81509 1.38859,-2.86481 0.38517,-1.07451 1.10592,-2.88464 1.34066,-3.86823"
       style="font-size:12px;fill:none;stroke:#000000;stroke-width:1.65309162pt"
       id="path731" />
    <path
       inkscape:connector-curvature="0"
       d="m 221.95331,308.00228 c 0.0893,0.5885 -0.26119,2.40195 -0.2364,3.78228 -0.0562,1.60019 -2.1143,6.54293 -4.6022,8.01915"
       style="font-size:12px;fill:none;stroke:#000000;stroke-width:1.65309162pt"
       id="path733" />
    <path
       inkscape:connector-curvature="0"
       d="m 192.54811,307.81879 c 0.0959,0 2.58709,0.81002 6.75123,2.09116 5.01217,1.80187 15.43657,8.37126 16.4714,9.2755 1.05633,0.8315 2.94581,1.57374 3.66987,2.56064 1.13236,0.97863 1.96222,2.10769 2.84662,3.13095 1.0398,1.26793 1.92585,2.34078 2.56064,3.41529 3.16567,2.56725 11.68075,20.34295 11.95351,21.34637 0.47774,0.93896 1.06955,2.24656 1.42331,3.13096 0.63148,0.72736 1.05963,1.75558 1.70764,2.84662 0.59511,1.41505 1.26131,2.05976 1.99363,3.13096 0.94226,0.65462 2.21184,1.89775 3.41529,2.56064 1.2828,1.09765 2.48625,1.54399 3.41529,2.27796 1.34231,0.57032 16.34246,10.05245 17.03841,10.52689 1.37041,1.10096 5.55439,5.43702 2.61685,8.59111 -1.24644,1.06625 -2.36888,2.47799 -3.43348,3.08137 -1.08442,1.08608 -2.5937,1.57209 -3.84013,2.13414 -6.75784,1.99693 -10.19957,1.28115 -11.52866,1.28115 -0.47444,0 -0.94887,0 -1.42331,0"
       style="font-size:12px;fill:none;stroke:#000000;stroke-width:1.65309162pt"
       id="path734" />
    <path
       inkscape:connector-curvature="0"
       d="m 159.4185,274.28583 c 1.92089,0.75215 1.14559,0.19671 2.87473,0.98359 1.16212,0.50915 1.9275,0.52237 3.06979,0.93895 1.21171,0.38848 4.59725,0.99847 6.22389,2.63172 1.19353,1.07782 2.10438,1.98867 3.41529,2.77554 1.5506,1.06955 2.66974,1.54564 4.59228,2.34739 1.62169,0.60669 3.43513,1.2795 5.075,1.33736 1.70433,0.0992 2.11265,0.0149 3.74755,0.0149 1.32909,0 2.65652,0 3.98561,0 l -3.98561,0 c 1.32909,0 2.65652,0 3.98561,0"
       style="font-size:12px;fill:none;stroke:#000000;stroke-width:1.65309162pt"
       id="path735" />
    <path
       inkscape:connector-curvature="0"
       d="m 158.96059,293.28481 c 4.26829,-0.28433 11.38319,0.99681 11.52536,0.99681 0.002,0 9.39287,-0.14216 9.39287,-0.14216 4.93448,-0.47609 6.02386,-2.37219 6.83057,-3.70128 1.84981,-2.84497 3.13096,-3.84178 4.55427,-5.97592 2.27631,-1.70765 5.40891,2.27631 5.55108,2.27631 7.9679,7.54305 1.56383,16.7921 1.13733,17.07643 -3.98395,3.65334 -4.8386,3.88973 -7.25707,1.56548 -2.42013,-2.84662 -3.13096,-4.12612 -5.12294,-5.12293 -3.84178,-1.84981 -11.81134,-0.4265 -11.95516,-0.4265 -0.14216,0 -4.12611,1.56548 -4.12611,1.56548 -1.94569,0.71083 -3.1789,2.42013 -6.54625,2.98714 -3.41528,0.23804 -4.55426,-0.0942 -6.26191,-2.84497 -2.2763,-3.55746 -1.13898,-7.82739 2.27796,-8.25389 z"
       style="font-size:12px;fill:#ffe606;fill-rule:evenodd;stroke:#000000;stroke-width:1.65309162pt"
       id="path738" />
    <path
       inkscape:connector-curvature="0"
       d="m 381.79628,120.66205 c -0.62542,0.12216 -6.26127,2.8281 -6.16243,3.00389 0.0988,0.1758 -4.83714,13.57114 -4.93598,13.39534 -0.0988,-0.17579 -3.53832,-11.63288 -3.88991,-11.4352 -0.35015,0.19687 -12.26724,1.587 -12.44304,1.68584 -0.17436,0.098 8.99206,-11.52068 8.99206,-11.52068 l -1.2354,-12.46493 9.73379,3.76307 c 0,0 10.34,-7.892035 10.5158,-7.990874 0.17436,-0.09803 -2.72184,10.766064 -2.72184,10.766064 l 5.21755,7.22582 c 0,0 -2.91732,3.02464 -3.0706,3.57166 z"
       style="font-size:12px;fill:#ffef00;fill-opacity:0.98823499;fill-rule:evenodd;stroke:#000000;stroke-width:1.653092pt"
       id="path770" />
    <path
       inkscape:connector-curvature="0"
       d="m 264.93476,257.90197 c 7.18014,4.73608 50.80646,13.87752 57.33982,14.82211 8.27392,-0.78312 19.88273,0.25686 28.60454,3.14759 8.3367,3.63257 16.84516,3.47237 22.54185,-0.87597 7.73729,-4.25725 10.55164,-11.51946 14.03516,-18.00297 1.33018,-3.42567 1.39035,-7.06276 -0.0516,-10.08287 -2.56909,-6.41449 -1.02857,-7.97852 -1.57048,-11.60709 9.41023,-20.78481 11.35621,-44.99293 13.60799,-62.90606 -0.28344,-10.45131 0.81362,-18.44723 2.05362,-21.67238 4.98867,-7.67871 12.26686,-10.87373 15.93972,-12.2712 13.56975,-3.51028 27.14031,-7.01913 40.71006,-10.52942 10.53658,-3.84552 3.65219,-11.01036 1.46917,-10.37657 -7.0397,-1.02214 -6.76505,-8.60877 -39.72049,-0.70021 -7.05962,-0.89904 -14.12005,-1.79952 -21.17967,-2.69855 0,0 -4.10803,-3.30952 -4.53456,-3.06972 -11.44389,-2.10937 -13.12626,5.34136 -12.45818,9.81498 0.52416,3.26306 1.04687,6.52692 1.57102,9.78998 0,0 -4.11092,14.67051 -3.87112,15.09704 -10.47253,11.76135 -26.06186,49.52874 -27.06008,56.78636 -0.47251,6.81982 -3.04813,5.58823 -2.35753,12.21684 0.0259,5.17984 -0.5768,1.94577 1.15253,12.61772 0.42178,3.21252 -3.50496,2.96436 -5.75791,2.03685 -19.19833,-12.03937 -37.4264,-19.89069 -57.45787,-30.53805 -1.04879,-0.53304 -2.09839,-1.06751 -3.14719,-1.60055 -10.26248,8.39084 -20.5256,16.78392 -30.78808,25.17476 1.92717,11.08793 3.85372,22.17812 5.78089,33.26606 1.81396,0.89554 3.43249,1.44013 5.14843,2.16132 z"
       style="font-size:12px;fill:#ffffff;fill-rule:evenodd;stroke:#000000;stroke-width:2.63583899"
       id="path771" />
    <path
       inkscape:connector-curvature="0"
       d="m 431.67056,133.6034 c -0.39958,0.10897 -13.27275,-15.39369 -13.27275,-15.39369 0,0 7.53784,-1.583 7.58726,-1.4951 l 14.83965,14.28135 -9.15416,2.60744 z"
       style="font-size:12px;fill:#ffec00;fill-rule:evenodd;stroke-width:1pt"
       id="path772" />
    <path
       inkscape:connector-curvature="0"
       d="m 391.92712,215.20905 c -10.7329,1.64791 -22.94949,-3.66064 -28.37891,-8.78745"
       style="font-size:12px;fill:none;stroke:#000000;stroke-width:1.653092pt"
       id="path773" />
    <path
       inkscape:connector-curvature="0"
       d="m 432.17536,134.13696 c -0.94119,-0.93869 -5.17098,-5.07867 -6.20674,-6.39469 -1.22549,-1.3364 -2.49015,-2.6413 -3.79914,-3.853 -1.30875,-1.51148 -2.23122,-2.4 -3.55129,-3.99235 -1.31127,-1.09094 -2.44647,-2.26002 -3.62901,-3.5504 m 29.62829,14.91225 c -0.27411,-0.0355 -1.97638,-0.62786 -2.95483,-1.19096 -0.87395,-0.81909 -4.23363,-3.41148 -5.1827,-4.57331 -1.13313,-1.17214 -2.30544,-2.31276 -3.52531,-3.36596 -1.20667,-1.32992 -2.06432,-2.10317 -3.27827,-3.50675 -1.22782,-0.94252 -2.28038,-1.96462 -3.373,-3.09505"
       style="font-size:12px;fill:none;stroke:#000000;stroke-width:1.8279892pt"
       id="path774" />
    <path
       inkscape:connector-curvature="0"
       d="m 367.28197,165.50567 c 0.047,0.0836 0.0932,0.16571 0.13935,0.24784 -0.43667,-0.77667 -0.23335,-0.26326 1.65952,0.0474 1.21192,-0.1921 5.22433,1.74316 6.57243,4.14091 0.77448,1.08742 1.89813,2.79588 2.5495,3.95441 0.18553,0.32998 0.19369,0.92467 0.38003,1.25609"
       style="font-size:12px;fill:none;stroke:#000000;stroke-width:1.653092pt"
       id="path775" />
    <path
       inkscape:connector-curvature="0"
       d="m 418.52919,137.01886 c -0.0462,-0.0821 -0.0924,-0.16427 -0.13934,-0.24784 0.18633,0.33142 -0.37186,-0.6614 -0.55739,-0.99138 -0.72347,-1.28678 -1.22026,-2.70669 -1.84479,-3.86134 -0.69755,-1.24067 -1.0435,-2.67901 -1.74104,-3.91968 -0.52679,-1.35184 -1.43266,-2.82811 -1.97655,-4.22724 -0.76765,-1.48003 -1.13632,-2.80698 -1.98617,-4.31855 -0.63928,-1.24497 -0.80554,-2.01628 -1.56466,-3.36646 l 1.56466,3.36646 c -0.63928,-1.24497 -0.80554,-2.01628 -1.56466,-3.36646"
       style="font-size:12px;fill:none;stroke:#000000;stroke-width:1.653092pt"
       id="path776" />
    <path
       inkscape:connector-curvature="0"
       d="m 453.53772,128.43769 c -0.26762,-0.024 -1.91399,-0.51691 -2.85194,-1.00796 -0.82696,-0.73551 -4.02542,-3.04116 -4.91372,-4.09492 -1.06751,-1.05541 -2.17501,-2.08076 -3.33249,-3.023 -1.13457,-1.20168 -1.94686,-1.89423 -3.08546,-3.1638 -1.16949,-0.83878 -2.16372,-1.75713 -3.19314,-2.77516"
       style="font-size:12px;fill:none;stroke:#000000;stroke-width:1.653092pt"
       id="path777" />
    <path
       inkscape:connector-curvature="0"
       d="m 397.35347,129.44989 c 2.43206,-0.44382 2.43239,-1.64067 3.09992,-2.51096 0.4838,-1.13299 0.84313,-3.53302 0.18684,-6.63644 -0.29819,-1.17125 -0.47008,-2.10438 -0.68096,-3.53522 -0.36625,-0.82006 -0.38722,-1.31273 -0.48055,-2.01505"
       style="font-size:12px;fill:none;stroke:#000000;stroke-width:1.653092pt"
       id="path778" />
    <path
       inkscape:connector-curvature="0"
       d="m 377.81972,269.6172 c -0.0462,-0.0821 -0.0932,-0.16571 -0.13935,-0.24785 0.43749,0.77812 0.22543,0.2829 -1.55102,-0.43462 -1.35347,-0.29915 -2.13961,-0.7428 -3.48697,-0.97711"
       style="font-size:12px;fill:none;stroke:#000000;stroke-width:1.653092pt"
       id="path779" />
    <path
       inkscape:connector-curvature="0"
       d="m 386.46143,243.61682 c -0.0932,-0.16571 -15.30491,-10.38995 -17.69731,-11.04941 -1.38924,-0.63937 -2.67427,-0.99217 -4.3014,-1.80502 -0.91262,-0.59442 -1.81549,-0.88141 -2.74425,-1.39659 -1.31821,-0.12174 -2.37294,-0.65523 -3.50757,-0.63934 -1.25196,-0.44915 -1.8633,0.38954 -3.17771,0.1936 -1.12539,0.19086 -3.05647,0.44972 -4.02888,0.72715"
       style="font-size:12px;fill:none;stroke:#000000;stroke-width:1.653092pt"
       id="path780" />
    <path
       inkscape:connector-curvature="0"
       d="m 351.45852,205.47752 c 0.46923,-0.36623 2.22171,-0.94949 3.41276,-1.64758 1.42239,-0.73524 6.7395,-1.36362 9.24556,0.0815"
       style="font-size:12px;fill:none;stroke:#000000;stroke-width:1.653092pt"
       id="path781" />
    <path
       inkscape:connector-curvature="0"
       d="m 365.70964,231.19921 c -0.047,-0.0836 -0.56182,-2.65208 -1.48587,-6.90972 -0.88575,-5.25206 -0.26824,-17.55831 0.0128,-18.9035 0.20711,-1.32828 -0.0719,-3.33906 0.43349,-4.45386 0.29809,-1.46667 0.87557,-2.74337 1.33409,-4.01577 0.59562,-1.52775 1.09656,-2.8259 1.72208,-3.90583 0.68636,-4.01761 12.00785,-20.1516 12.74884,-20.88112 0.58433,-0.87661 1.43409,-2.03331 2.03162,-2.77511 0.32455,-0.90691 1.01099,-1.78404 1.64444,-2.8836 0.9418,-1.21223 1.17728,-2.1089 1.75212,-3.27223 0.10883,-1.14217 0.57023,-2.85806 0.55826,-4.23195 0.32812,-1.65613 0.12738,-2.92389 0.31186,-4.09342 -0.16072,-1.44956 0.75325,-19.17187 0.82573,-20.01103 0.28805,-1.73412 2.01718,-7.50623 6.20617,-6.49142 1.54028,0.56393 3.32095,0.85046 4.36864,1.48273 1.47817,0.413 2.64149,1.49041 3.74227,2.30144 5.0526,4.91196 6.11541,8.26284 6.76678,9.42137 0.23252,0.41355 0.46503,0.82711 0.69755,1.24066"
       style="font-size:12px;fill:none;stroke:#000000;stroke-width:1.653092pt"
       id="path782" />
    <path
       inkscape:connector-curvature="0"
       d="m 352.64021,275.93785 c -0.0462,-0.0821 -0.0932,-0.16571 -0.13935,-0.24784 0.37672,0.67004 0.16805,0.336 -0.31035,-1.13217 -0.12573,-1.26252 -0.51512,-2.97039 -0.71182,-4.17026 -0.25522,-1.24661 -0.83936,-2.66672 -0.68096,-3.53521 -0.44639,-1.26619 -0.16559,-2.31161 -0.0459,-3.56607 0.35457,-1.56859 0.51482,-2.70364 0.55826,-4.23195 0.17237,-1.87579 0.0338,-3.20504 0.14084,-4.97774 -0.49425,-1.45927 -0.59504,-2.68081 -1.34829,-4.1386 -0.67023,-1.39446 -1.18289,-2.68407 -1.98414,-4.10918 -0.65136,-1.15853 -1.30192,-2.31562 -1.95328,-3.47415 l 1.95328,3.47415 c -0.65136,-1.15853 -1.30192,-2.31562 -1.95328,-3.47415"
       style="font-size:12px;fill:none;stroke:#000000;stroke-width:1.653092pt"
       id="path783" />
    <path
       inkscape:connector-curvature="0"
       d="m 369.50152,267.59949 c -2.33967,-3.5812 -4.70985,-10.41096 -4.77952,-10.53488 -8.1e-4,-0.001 -4.72723,-8.11785 -4.72723,-8.11785 -2.83332,-4.06794 -5.01999,-4.08828 -6.57388,-4.1401 -3.38645,-0.21815 -4.88322,-0.84637 -7.44104,-1.04112 -2.60409,-1.14731 -0.66664,-5.8304 -0.73631,-5.95432 2.67013,-10.64217 13.87084,-9.59273 14.3277,-9.36031 5.137,1.68227 5.7619,2.31139 4.92118,5.55859 -1.29526,3.50465 -2.06219,4.75133 -1.95485,6.97621 0.27037,4.25535 5.4168,10.50466 5.48729,10.63003 0.0697,0.12392 3.38674,2.82941 3.38674,2.82941 1.57316,1.34764 3.66749,1.58489 5.81203,4.24224 1.88128,2.86036 2.14985,4.01602 0.58899,6.85263 -1.98536,3.72765 -6.26474,4.82891 -8.3111,2.05947 z"
       style="font-size:12px;fill:#ffe606;fill-rule:evenodd;stroke:#000000;stroke-width:1.653092pt"
       id="path785" />
    <g
       transform="matrix(-0.76171591,1.4671403,-1.4671403,-0.7617166,616.55098,-10.754514)"
       style="font-size:12px"
       id="g786">
      <path
         inkscape:connector-curvature="0"
         d="m 238.862,224.504 c 0.121,-0.366 0.365,-4.14 0.243,-4.14 -0.122,0 -5.722,-6.574 -5.6,-6.574 0.122,0 7.183,1.583 7.183,1.339 0,-0.243 2.8,-6.939 2.8,-7.061 0,-0.121 3.409,8.157 3.409,8.157 l 6.939,3.044 -4.87,4.017 c 0,0 1.096,7.792 1.096,7.914 0,0.121 -4.87,-4.627 -4.87,-4.627 l -5.357,0.609 c 0,0 -0.73,-2.435 -0.973,-2.678 z"
         style="fill:#ffef00;fill-opacity:0.98823499;fill-rule:evenodd;stroke:#000000;stroke-width:1pt"
         id="path787" />
      <path
         inkscape:connector-curvature="0"
         d="m 201.141,122.196 c -4.626,2.382 -22.38,22.676 -24.815,25.841 -2.04,4.595 -6.03,10.408 -10.14,14.15 -4.387,3.319 -6.825,7.853 -6.221,12.146 -0.049,5.342 2.946,8.979 5.332,12.738 1.412,1.717 3.312,2.827 5.332,2.962 4.144,0.547 4.512,1.823 6.586,2.613 8.17,11.124 20.358,19.327 29.136,25.825 5.595,2.949 9.486,5.898 10.819,7.508 2.57,4.907 2.097,9.692 1.745,12.043 -2.172,8.196 -4.345,16.392 -6.517,24.588 -1.096,6.696 4.723,5.19 5.036,3.851 2.626,-3.409 6.545,-1.015 12.145,-20.737 2.567,-3.456 5.135,-6.912 7.702,-10.368 0,0 2.963,-1.185 2.963,-1.481 4.505,-5.409 1.075,-8.505 -1.482,-9.479 -1.876,-0.691 -3.752,-1.383 -5.628,-2.074 0,0 -6.517,-6.517 -6.813,-6.517 -3.097,-9.009 -18.39,-28.426 -21.921,-31.104 -3.456,-2.271 -2.043,-3.264 -5.743,-4.865 -2.739,-1.522 -0.855,-0.881 -6.995,-3.133 -1.819,-0.73 -0.524,-2.727 0.633,-3.64 12.04,-6.554 21.584,-13.838 33.137,-21.244 0.592,-0.395 1.185,-0.79 1.777,-1.185 -1.382,-7.899 -2.765,-15.799 -4.147,-23.698 -6.418,-2.271 -12.837,-4.543 -19.255,-6.814 -1.01,0.691 -1.777,1.383 -2.666,2.074 z"
         style="fill:#ffffff;fill-rule:evenodd;stroke:#000000;stroke-width:1.59449005"
         id="path788" />
      <path
         inkscape:connector-curvature="0"
         d="m 217.252,246.966 c 0.061,-0.243 12.052,-2.435 12.052,-2.435 0,0 -1.4,4.444 -1.461,4.444 l -11.93,3.591 1.339,-5.6 z"
         style="fill:#ffec00;fill-rule:evenodd;stroke-width:1pt"
         id="path789" />
      <path
         inkscape:connector-curvature="0"
         d="m 186.004,201.816 c 2.313,-6.148 8.734,-11.016 13.047,-12.359"
         style="fill:none;stroke:#000000;stroke-width:1pt"
         id="path790" />
      <path
         inkscape:connector-curvature="0"
         d="m 216.821,247.074 c 0.774,-0.218 4.211,-1.221 5.212,-1.377 1.068,-0.25 2.131,-0.53 3.158,-0.861 1.185,-0.242 1.927,-0.465 3.158,-0.689 0.964,-0.368 1.917,-0.62 2.948,-0.861 m -16.647,11.202 c 0.1,-0.134 0.917,-0.856 1.504,-1.205 0.691,-0.218 3.054,-1.221 3.948,-1.377 0.954,-0.25 1.903,-0.53 2.82,-0.861 1.059,-0.242 1.721,-0.465 2.821,-0.689 0.861,-0.368 1.712,-0.62 2.632,-0.861"
         style="fill:none;stroke:#000000;stroke-width:1.10579996pt"
         id="path791" />
      <path
         inkscape:connector-curvature="0"
         d="m 219.519,203.556 c -0.058,0 -0.115,0 -0.172,0 0.539,0 0.208,-0.045 -0.517,0.861 -0.258,0.696 -2.468,2.238 -4.132,2.238 -0.803,0.086 -2.037,0.172 -2.841,0.172 -0.229,0 -0.545,-0.172 -0.775,-0.172"
         style="fill:none;stroke:#000000;stroke-width:1pt"
         id="path792" />
      <path
         inkscape:connector-curvature="0"
         d="m 219.347,239.024 c 0.057,0 0.114,0 0.172,0 -0.23,0 0.459,0 0.688,0 0.893,0 1.789,0.159 2.583,0.172 0.861,0 1.722,0.244 2.583,0.244 0.869,0.123 1.916,0.083 2.815,0.211 1.008,0.034 1.817,0.233 2.866,0.233 0.846,0.032 1.302,0.173 2.239,0.173 l -2.239,-0.173 c 0.846,0.032 1.302,0.173 2.239,0.173"
         style="fill:none;stroke:#000000;stroke-width:1pt"
         id="path793" />
      <path
         inkscape:connector-curvature="0"
         d="m 213.493,260.028 c 0.092,-0.134 0.84,-0.856 1.377,-1.205 0.633,-0.218 2.797,-1.221 3.616,-1.377 0.873,-0.25 1.742,-0.53 2.582,-0.861 0.97,-0.242 1.576,-0.465 2.583,-0.689 0.789,-0.368 1.568,-0.62 2.41,-0.861"
         style="fill:none;stroke:#000000;stroke-width:1pt"
         id="path794" />
      <path
         inkscape:connector-curvature="0"
         d="m 229.616,230.102 c -0.487,1.414 0.144,1.769 0.405,2.379 0.454,0.591 1.613,1.492 3.444,2.066 0.706,0.19 1.249,0.376 2.066,0.689 0.541,0.05 0.807,0.185 1.205,0.344"
         style="fill:none;stroke:#000000;stroke-width:1pt"
         id="path795" />
      <path
         inkscape:connector-curvature="0"
         d="m 161.497,178.247 c 0.057,0 0.115,0 0.172,0 -0.54,0 -0.216,0.035 0.689,-0.689 0.559,-0.625 1.026,-0.908 1.549,-1.549"
         style="fill:none;stroke:#000000;stroke-width:1pt"
         id="path796" />
      <path
         inkscape:connector-curvature="0"
         d="m 172.645,190.512 c 0.115,0 10.016,-4.99 11.073,-6.056 0.749,-0.543 1.316,-1.116 2.227,-1.733 0.584,-0.305 1.003,-0.696 1.55,-1.033 0.455,-0.659 1.049,-1.057 1.377,-1.66 0.608,-0.527 0.347,-1.098 0.84,-1.733 0.233,-0.65 0.669,-1.745 0.811,-2.34"
         style="fill:none;stroke:#000000;stroke-width:1pt"
         id="path797" />
      <path
         inkscape:connector-curvature="0"
         d="m 203.133,183.362 c 0.054,0.356 -0.158,1.453 -0.143,2.288 -0.034,0.968 -1.279,3.958 -2.784,4.851"
         style="fill:none;stroke:#000000;stroke-width:1pt"
         id="path798" />
      <path
         inkscape:connector-curvature="0"
         d="m 185.345,183.251 c 0.058,0 1.565,0.49 4.084,1.265 3.032,1.09 9.338,5.064 9.964,5.611 0.639,0.503 1.782,0.952 2.22,1.549 0.685,0.592 1.187,1.275 1.722,1.894 0.629,0.767 1.165,1.416 1.549,2.066 1.915,1.553 7.066,12.306 7.231,12.913 0.289,0.568 0.647,1.359 0.861,1.894 0.382,0.44 0.641,1.062 1.033,1.722 0.36,0.856 0.763,1.246 1.206,1.894 0.57,0.396 1.338,1.148 2.066,1.549 0.776,0.664 1.504,0.934 2.066,1.378 0.812,0.345 9.886,6.081 10.307,6.368 0.829,0.666 3.36,3.289 1.583,5.197 -0.754,0.645 -1.433,1.499 -2.077,1.864 -0.656,0.657 -1.569,0.951 -2.323,1.291 -4.088,1.208 -6.17,0.775 -6.974,0.775 -0.287,0 -0.574,0 -0.861,0"
         style="fill:none;stroke:#000000;stroke-width:1pt"
         id="path799" />
      <path
         inkscape:connector-curvature="0"
         d="m 165.629,163.096 c 0.057,0 0.115,0 0.172,0 -0.465,0 -0.227,-0.011 0.689,0.172 0.703,0.308 1.719,0.609 2.41,0.861 0.733,0.235 1.655,0.348 2.066,0.689 0.8,0.14 1.268,0.598 1.894,1.033 0.722,0.652 1.273,1.073 2.066,1.549 0.938,0.647 1.68,0.968 2.583,1.55 0.916,0.172 1.59,0.481 2.582,0.516 0.934,0.06 1.766,0.172 2.755,0.172 0.804,0 1.607,0 2.411,0 l -2.411,0 c 0.804,0 1.607,0 2.411,0"
         style="fill:none;stroke:#000000;stroke-width:1pt"
         id="path800" />
      <path
         inkscape:connector-curvature="0"
         d="m 221.241,142.952 c -0.115,0 -0.23,0 -0.345,0 0.637,0 0.458,-0.023 -0.516,0.172 -1.017,0.525 -2.371,0.922 -3.272,1.377 -1.028,0.34 -2.133,0.717 -3.099,1.206 -1.094,0.641 -2.102,1.162 -3.099,1.893 -0.991,0.531 -1.965,1.185 -2.927,1.722 -0.959,0.521 -1.751,1.024 -2.582,1.722 -0.694,0.385 -1.637,0.93 -2.411,1.549 -0.727,0.261 -1.252,0.779 -1.721,1.206 -0.911,0.807 -1.469,1.226 -2.411,2.066 -0.495,0.468 -1.153,1.018 -1.894,1.721 -0.778,0.519 -1.62,1.517 -2.238,2.066 -0.396,0.517 -0.976,1.132 -1.549,1.55 -0.441,0.555 -0.952,1.285 -1.55,1.722 -0.355,0.528 -0.976,1.216 -1.55,1.894 -0.465,0.569 -1.105,1.142 -1.549,1.721 -0.598,0.662 -1.056,1.329 -1.722,1.894 -0.119,0.398 -0.369,0.604 -0.516,0.861"
         style="fill:none;stroke:#000000;stroke-width:1pt"
         id="path801" />
      <path
         inkscape:connector-curvature="0"
         d="m 165.027,174.459 c 2.582,-0.172 6.886,0.603 6.972,0.603 0.001,0 5.682,-0.086 5.682,-0.086 2.985,-0.288 3.644,-1.435 4.132,-2.239 1.119,-1.721 1.894,-2.324 2.755,-3.615 1.377,-1.033 3.272,1.377 3.358,1.377 4.82,4.563 0.946,10.158 0.688,10.33 -2.41,2.21 -2.927,2.353 -4.39,0.947 -1.464,-1.722 -1.894,-2.496 -3.099,-3.099 -2.324,-1.119 -7.145,-0.258 -7.232,-0.258 -0.086,0 -2.496,0.947 -2.496,0.947 -1.177,0.43 -1.923,1.464 -3.96,1.807 -2.066,0.144 -2.755,-0.057 -3.788,-1.721 -1.377,-2.152 -0.689,-4.735 1.378,-4.993 z"
         style="fill:#ffe606;fill-rule:evenodd;stroke:#000000;stroke-width:1pt"
         id="path802" />
    </g>
    <path
       inkscape:connector-curvature="0"
       d="m 221.29038,199.64639 c -1.56608,-1.42227 29.4576,11.24124 33.72579,11.38505 5.83564,-2.13444 29.88558,-22.48386 29.88558,-22.48386 0.23739,1.99201 1.08992,7.16228 3.41359,8.25427 -9.29603,7.54278 -17.7402,14.79932 -27.03692,22.34073 0.66469,11.95409 -1.51722,24.61967 4.55375,37.99672 0,0 -7.25654,0.14106 -7.25654,0 -6.40401,-6.404 -8.68225,-37.28386 -8.68225,-37.28386 -10.19811,-4.55444 -20.39759,-8.96506 -30.59569,-13.51949 1.47113,-0.94956 2.6567,-3.88906 1.99269,-6.68956 z"
       style="font-size:12px;fill:#ffef00;fill-opacity:0.98742095;fill-rule:evenodd;stroke:#000000;stroke-width:1.65308895pt"
       id="path746" />
    <path
       inkscape:connector-curvature="0"
       d="m 250.80715,231.30172 c 0.49611,-0.35986 -5.59619,2.8301 -7.16089,3.63103 -28.18464,15.03465 -42.68878,36.90473 -43.59292,37.73112 -0.48716,0.93167 -1.38374,2.17435 -2.20462,3.39157 -0.66056,1.02043 -1.60875,2.07664 -2.23353,3.10876 -0.86354,1.1959 -2.67871,3.5574 -3.67024,4.60604 -0.12386,0.6757 0.46996,-0.23119 0.27592,0.21813"
       style="font-size:12px;fill:none;stroke:#000000;stroke-width:1.65308895pt"
       id="path920" />
    <path
       inkscape:connector-curvature="0"
       d="m 270.06527,213.43354 c -0.54703,-0.27661 5.07668,3.68194 6.50446,4.7065 26.26144,18.18677 52.34398,21.08154 53.49239,21.50746 1.05139,0.007 2.56656,0.23602 4.02392,0.40941 1.21034,0.12042 2.58238,0.48029 3.78653,0.56423 1.45805,0.22019 4.3886,0.75414 5.77509,1.15667 0.65644,-0.19954 -0.42042,-0.3117 0.0674,-0.34542"
       style="font-size:12px;fill:none;stroke:#000000;stroke-width:1.65308895pt"
       id="path923" />
  </g>
</svg>
