<?xml version="1.0" encoding="UTF-8" standalone="no"?>
<!-- Created with Sodipodi ("http://www.sodipodi.com/") -->

<svg
   xmlns:dc="http://purl.org/dc/elements/1.1/"
   xmlns:cc="http://creativecommons.org/ns#"
   xmlns:rdf="http://www.w3.org/1999/02/22-rdf-syntax-ns#"
   xmlns:svg="http://www.w3.org/2000/svg"
   xmlns="http://www.w3.org/2000/svg"
   xmlns:sodipodi="http://sodipodi.sourceforge.net/DTD/sodipodi-0.dtd"
   xmlns:inkscape="http://www.inkscape.org/namespaces/inkscape"
   id="svg548"
   sodipodi:version="0.32"
   width="640"
   height="480"
   sodipodi:docname="io.svg"
   version="1.1"
   inkscape:version="0.48.1 r9760">
  <sodipodi:namedview
     id="base"
     snaptogrid="false"
     showgrid="false"
     inkscape:zoom="0.98242188"
     inkscape:cx="256"
     inkscape:cy="256"
     inkscape:window-width="1280"
     inkscape:window-height="746"
     inkscape:window-x="0"
     inkscape:window-y="24"
     inkscape:window-maximized="1"
     inkscape:current-layer="svg548" />
  <metadata
     id="metadata4088">
    <rdf:RDF>
      <cc:Work
         rdf:about="">
        <dc:format>image/svg+xml</dc:format>
        <dc:type
           rdf:resource="http://purl.org/dc/dcmitype/StillImage" />
      </cc:Work>
    </rdf:RDF>
  </metadata>
  <defs
     id="defs550">
    <clipPath
       id="clipPath8993"
       clipPathUnits="userSpaceOnUse">
      <rect
         y="0"
         width="512"
         style="fill:#000000;fill-opacity:0.67000002;stroke:none"
         x="0"
         height="512"
         id="rect8995" />
    </clipPath>
    <clipPath
       clipPathUnits="userSpaceOnUse"
       id="clipPath7813">
      <rect
         id="rect7815"
         height="512"
         x="0"
         style="fill:#000000;fill-opacity:0.67000002;stroke:none"
         width="512"
         y="0" />
    </clipPath>
    <clipPath
       clipPathUnits="userSpaceOnUse"
       id="clipPath8040">
      <rect
         id="rect8042"
         height="511.99997"
         x="0"
         style="fill:#000000;fill-opacity:0.67000002;stroke:none"
         width="682.66663"
         y="1.5802756e-05" />
    </clipPath>
  </defs>
  <g
     transform="matrix(0.93750003,0,0,0.93750003,0,-1.4815085e-5)"
     id="flag"
     clip-path="url(#clipPath8040)"
     inkscape:label="#g7554">
    <rect
       style="font-size:12px;fill:#ffffff;fill-rule:evenodd;stroke:none"
       id="rect576"
       width="1023.9997"
       height="511.99982"
       x="3.8757316e-05"
       y="1.5221513e-05" />
    <path
       inkscape:connector-curvature="0"
       style="font-size:12px;fill:#000063;fill-opacity:1;fill-rule:evenodd;stroke:none"
       d="m 1023.9998,445.23758 c -11.4742,6.90266 -21.332,23.03537 -51.81382,23.03537 -60.94708,0 -76.1885,-33.96497 -121.90345,-33.96497 -30.47354,0 -45.71186,33.96497 -76.18747,33.96497 -60.95224,0 -76.19056,-33.96497 -121.90448,-33.96497 -30.47664,0 -45.71496,33.96497 -76.19056,33.96497 -60.95224,0 -76.19056,-33.96497 -121.90449,-33.96497 -30.47663,0 -45.71495,33.96497 -76.19056,33.96497 -60.95224,0 -76.19056,-33.96497 -121.90448,-33.96497 -30.47767,0 -45.71496,33.96497 -76.19056,33.96497 -60.95224,0 -76.1916,-33.96497 -121.905209,-33.96497 -30.476122,0 -39.61901,24.20291 -57.904682242683,24.20291 l 0,43.72704 C 18.285711,502.23793 27.428496,478.03502 57.904721,478.03502 103.61833,478.03502 118.85769,512 179.80993,512 c 30.4756,0 45.71289,-33.96498 76.19056,-33.96498 45.71289,0 60.95224,33.96498 121.90448,33.96498 30.47561,0 45.71393,-33.96498 76.19056,-33.96498 45.71393,0 60.95225,33.96498 121.90449,33.96498 30.4756,0 45.71392,-33.96498 76.19056,-33.96498 45.71392,0 60.95224,33.96498 121.90448,33.96498 30.47561,0 45.71393,-33.96498 76.18747,-33.96498 45.71495,0 60.95637,33.96498 121.90345,33.96498 30.48182,0 40.33962,-9.62499 51.81382,-16.52765 l 0,-50.23477 z"
       id="path570"
       sodipodi:nodetypes="ccccccccccccccccccccccccc" />
    <path
       inkscape:connector-curvature="0"
       style="font-size:12px;fill:#000063;fill-opacity:1;fill-rule:evenodd;stroke:none"
       d="m 1023.9998,360.32493 c -11.4742,6.90265 -21.332,23.03537 -51.81382,23.03537 -60.94708,0 -76.1885,-33.96498 -121.90345,-33.96498 -30.47354,0 -45.71186,33.96498 -76.18747,33.96498 -60.95224,0 -76.19056,-33.96498 -121.90448,-33.96498 -30.47664,0 -45.71496,33.96498 -76.19056,33.96498 -60.95224,0 -76.19056,-33.96498 -121.90449,-33.96498 -30.47663,0 -45.71495,33.96498 -76.19056,33.96498 -60.95224,0 -76.19056,-33.96498 -121.90448,-33.96498 -30.47767,0 -45.71496,33.96498 -76.19056,33.96498 -60.95224,0 -76.1916,-33.96498 -121.905209,-33.96498 -30.476122,0 -39.61901,24.20291 -57.904682242683,24.20291 l 0,43.72705 C 18.285711,417.32528 27.428496,393.12237 57.904721,393.12237 c 45.713609,0 60.952969,33.96498 121.905209,33.96498 30.4756,0 45.71289,-33.96498 76.19056,-33.96498 45.71289,0 60.95224,33.96498 121.90448,33.96498 30.47561,0 45.71393,-33.96498 76.19056,-33.96498 45.71393,0 60.95225,33.96498 121.90449,33.96498 30.4756,0 45.71392,-33.96498 76.19056,-33.96498 45.71392,0 60.95224,33.96498 121.90448,33.96498 30.47561,0 45.71393,-33.96498 76.18747,-33.96498 45.71495,0 60.95637,33.96498 121.90345,33.96498 30.48182,0 40.33962,-9.62499 51.81382,-16.52765 l 0,-50.23477 z"
       id="path571"
       sodipodi:nodetypes="ccccccccccccccccccccccccc" />
    <path
       inkscape:connector-curvature="0"
       style="font-size:12px;fill:#000063;fill-opacity:1;fill-rule:evenodd;stroke:none"
       d="m 1023.9998,275.41236 c -11.4742,6.90266 -21.332,23.03537 -51.81382,23.03537 -60.94708,0 -76.1885,-33.96498 -121.90345,-33.96498 -30.47354,0 -45.71186,33.96498 -76.18747,33.96498 -60.95224,0 -76.19056,-33.96498 -121.90448,-33.96498 -30.47664,0 -45.71496,33.96498 -76.19056,33.96498 -60.95224,0 -76.19056,-33.96498 -121.90449,-33.96498 -30.47663,0 -45.71495,33.96498 -76.19056,33.96498 -60.95224,0 -76.19056,-33.96498 -121.90448,-33.96498 -30.47767,0 -45.71496,33.96498 -76.19056,33.96498 -60.95224,0 -76.1916,-33.96498 -121.905209,-33.96498 -30.476122,0 -39.61901,24.20292 -57.904682242683,24.20292 l 0,43.72704 C 18.285711,332.41271 27.428496,308.2098 57.904721,308.2098 c 45.713609,0 60.952969,33.96498 121.905209,33.96498 30.4756,0 45.71289,-33.96498 76.19056,-33.96498 45.71289,0 60.95224,33.96498 121.90448,33.96498 30.47561,0 45.71393,-33.96498 76.19056,-33.96498 45.71393,0 60.95225,33.96498 121.90449,33.96498 30.4756,0 45.71392,-33.96498 76.19056,-33.96498 45.71392,0 60.95224,33.96498 121.90448,33.96498 30.47561,0 45.71393,-33.96498 76.18747,-33.96498 45.71495,0 60.95637,33.96498 121.90345,33.96498 30.48182,0 40.33962,-9.62499 51.81382,-16.52765 l 0,-50.23477 z"
       id="path572"
       sodipodi:nodetypes="ccccccccccccccccccccccccc" />
    <path
       inkscape:connector-curvature="0"
       style="font-size:12px;fill:#000063;fill-opacity:1;fill-rule:evenodd;stroke:none"
       d="m 1023.9998,190.49983 c -11.4742,6.90266 -21.332,23.03537 -51.81382,23.03537 -60.94708,0 -76.1885,-33.96497 -121.90345,-33.96497 -30.47354,0 -45.71186,33.96497 -76.18747,33.96497 -60.95224,0 -76.19056,-33.96497 -121.90448,-33.96497 -30.47664,0 -45.71496,33.96497 -76.19056,33.96497 -60.95224,0 -76.19056,-33.96497 -121.90449,-33.96497 -30.47663,0 -45.71495,33.96497 -76.19056,33.96497 -60.95224,0 -76.19056,-33.96497 -121.90448,-33.96497 -30.47767,0 -45.71496,33.96497 -76.19056,33.96497 -60.95224,0 -76.1916,-33.96497 -121.905209,-33.96497 -30.476122,0 -39.61901,24.20291 -57.904682242683,24.20291 l 0,43.72704 C 18.285711,247.50018 27.428496,223.29727 57.904721,223.29727 c 45.713609,0 60.952969,33.96498 121.905209,33.96498 30.4756,0 45.71289,-33.96498 76.19056,-33.96498 45.71289,0 60.95224,33.96498 121.90448,33.96498 30.47561,0 45.71393,-33.96498 76.19056,-33.96498 45.71393,0 60.95225,33.96498 121.90449,33.96498 30.4756,0 45.71392,-33.96498 76.19056,-33.96498 45.71392,0 60.95224,33.96498 121.90448,33.96498 30.47561,0 45.71393,-33.96498 76.18747,-33.96498 45.71495,0 60.95637,33.96498 121.90345,33.96498 30.48182,0 40.33962,-9.62499 51.81382,-16.52765 l 0,-50.23477 z"
       id="path573"
       sodipodi:nodetypes="ccccccccccccccccccccccccc" />
    <path
       inkscape:connector-curvature="0"
       style="font-size:12px;fill:#000063;fill-opacity:1;fill-rule:evenodd;stroke:none"
       d="m 1023.9997,105.58718 c -11.4741,6.90266 -21.332,23.03537 -51.81376,23.03537 -60.94708,0 -76.18849,-33.964974 -121.90345,-33.964974 -30.47354,0 -45.71186,33.964974 -76.18747,33.964974 -60.95224,0 -76.19056,-33.964974 -121.90448,-33.964974 -30.47664,0 -45.71496,33.964974 -76.19056,33.964974 -60.95224,0 -76.19056,-33.964974 -121.90448,-33.964974 -30.47664,0 -45.71496,33.964974 -76.19057,33.964974 -60.95224,0 -76.19056,-33.964974 -121.90448,-33.964974 -30.47767,0 -45.71496,33.964974 -76.19056,33.964974 -60.95224,0 -76.19159,-33.964974 -121.905208,-33.964974 C 27.428561,94.657576 18.285673,118.86049 0,118.86049 l 0,43.72704 c 18.285673,0 27.428457,-24.20291 57.904682,-24.20291 45.713618,0 60.952968,33.96498 121.905208,33.96498 30.4756,0 45.71289,-33.96498 76.19056,-33.96498 45.71289,0 60.95224,33.96498 121.90448,33.96498 30.47561,0 45.71393,-33.96498 76.19057,-33.96498 45.71392,0 60.95224,33.96498 121.90448,33.96498 30.4756,0 45.71392,-33.96498 76.19056,-33.96498 45.71392,0 60.95224,33.96498 121.90448,33.96498 30.47561,0 45.71393,-33.96498 76.18747,-33.96498 45.71496,0 60.95637,33.96498 121.90345,33.96498 30.48176,0 40.33966,-9.62499 51.81376,-16.52765 l 0,-50.23477 z"
       id="path574"
       sodipodi:nodetypes="ccccccccccccccccccccccccc" />
    <path
       inkscape:connector-curvature="0"
       style="font-size:12px;fill:#000063;fill-opacity:1;fill-rule:evenodd;stroke:none"
       d="m 1023.9997,20.67453 c -11.4741,6.902656 -21.332,23.035374 -51.81376,23.035374 -60.94708,0 -76.18849,-33.9649783 -121.90345,-33.9649783 -30.47354,0 -45.71186,33.9649783 -76.18747,33.9649783 -60.95224,0 -76.19056,-33.9649783 -121.90448,-33.9649783 -30.47664,0 -45.71496,33.9649783 -76.19056,33.9649783 -60.95224,0 -76.19056,-33.9649783 -121.90448,-33.9649783 -30.47664,0 -45.71496,33.9649783 -76.19057,33.9649783 -60.95224,0 -76.19056,-33.9649783 -121.90448,-33.9649783 -30.47767,0 -45.71496,33.9649783 -76.19056,33.9649783 -60.95224,0 -76.19159,-33.9649783 -121.905208,-33.9649783 C 27.428561,9.7449257 18.285673,33.947837 0,33.947837 l 0,43.727046 c 18.285673,0 27.428457,-24.202911 57.904682,-24.202911 45.713618,0 60.952968,33.964978 121.905208,33.964978 30.4756,0 45.71289,-33.964978 76.19056,-33.964978 45.71289,0 60.95224,33.964978 121.90448,33.964978 30.47561,0 45.71393,-33.964978 76.19057,-33.964978 45.71392,0 60.95224,33.964978 121.90448,33.964978 30.4756,0 45.71392,-33.964978 76.19056,-33.964978 45.71392,0 60.95224,33.964978 121.90448,33.964978 30.47561,0 45.71393,-33.964978 76.18747,-33.964978 45.71496,0 60.95637,33.964978 121.90345,33.964978 30.48176,0 40.33966,-9.624992 51.81376,-16.527648 l 0,-50.234772 z"
       id="path575"
       sodipodi:nodetypes="ccccccccccccccccccccccccc" />
    <rect
       style="font-size:12px;fill:#000063;fill-opacity:1;fill-rule:evenodd;stroke-width:1pt"
       id="rect683"
       width="261.31387"
       height="157.90544"
       x="0"
       y="0.063090712" />
    <g
       id="g584"
       transform="matrix(4.3552307,0,0,5.263514,0,0.06313457)"
       style="font-size:12px">
      <path
         inkscape:connector-curvature="0"
         style="font-size:12px;fill:#ffffff;stroke-width:1pt"
         d="M 0,0 0,3.3541 53.2918,30 60,30 60,26.6459 6.7082,0 0,0 z M 60,0 60,3.35405 6.7082,30 0,30 0,26.6458 53.2918,0 60,0 z"
         id="path146" />
      <path
         inkscape:connector-curvature="0"
         style="font-size:12px;fill:#ffffff;stroke-width:1pt"
         d="M 25,0 25,30 35,30 35,0 25,0 z M 0,10 0,20 60,20 60,10 0,10 z"
         id="path136" />
      <path
         inkscape:connector-curvature="0"
         style="font-size:12px;fill:#cc0000;stroke-width:1pt"
         d="m 0,12 0,6 60,0 0,-6 -60,0 z m 27,-12 0,30 6,0 0,-30 -6,0 z"
         id="path141" />
      <path
         inkscape:connector-curvature="0"
         style="font-size:12px;fill:#cc0000;stroke-width:1pt"
         d="M 0,30 20,20 24.4721,20 4.47214,30 0,30 z M 0,0 20,10 15.5279,10 0,2.23607 0,0 z m 35.5279,10 20,-10 L 60,0 40,10 35.5279,10 z M 60,30 40,20 44.4721,20 60,27.7639 60,30 z"
         id="path150" />
    </g>
    <g
       id="g1127"
       transform="matrix(1.0321267,0,0,1.0321267,-382,-15.936862)">
      <path
         transform="matrix(0.200004,0,0,0.475,575.1662,274.5648)"
         sodipodi:nodetypes="ccccc"
         id="path861"
         d="M 814.961,-301.181 797.244,407.48 c 0,37.298 80.097,37.298 88.583,0 l -17.717,-708.661 -53.149,0 z"
         style="fill:#a24300;fill-opacity:1;fill-rule:evenodd;stroke:#ffffff;stroke-width:6.93489981;stroke-linecap:butt;stroke-linejoin:miter;stroke-opacity:1;stroke-dasharray:none"
         inkscape:connector-curvature="0" />
      <g
         transform="matrix(0.725195,0,0,0.6231,202.0636,41.43416)"
         id="g862">
        <g
           transform="matrix(-0.314512,0.10485,-0.138292,-0.303235,1046.472,373.319)"
           id="g852">
          <path
             transform="translate(177.1655,-224.0517)"
             sodipodi:nodetypes="ccccccccccccccccccccccccccccccc"
             id="path853"
             d="m 496.063,549.213 17.717,70.866 35.433,-53.15 -17.717,88.583 35.433,-35.433 -35.433,88.582 35.433,-35.433 -35.433,88.583 35.433,-35.433 -35.433,106.299 35.433,-35.433 -35.433,106.299 35.433,-35.433 -35.433,106.299 -17.716,53.151 -17.717,17.72 -17.717,-17.72 -17.716,-53.151 -35.433,-106.299 35.433,35.433 -35.433,-106.299 35.433,35.433 -35.433,-106.299 35.433,35.433 -35.433,-88.583 35.433,35.433 -35.433,-88.582 35.433,35.433 -17.717,-88.583 35.433,53.15 17.717,-70.866 z"
             style="font-size:12px;fill:#006d00;fill-rule:evenodd;stroke:#ffffff;stroke-width:8.25;stroke-dasharray:none"
             inkscape:connector-curvature="0" />
          <path
             transform="translate(177.1655,-224.0517)"
             sodipodi:nodetypes="cc"
             id="path854"
             d="m 496.063,549.213 0,496.067"
             style="font-size:12px;fill:none;stroke:#000000;stroke-width:1pt"
             inkscape:connector-curvature="0" />
          <path
             transform="translate(177.1655,-224.0517)"
             sodipodi:nodetypes="ccc"
             id="path855"
             d="M 425.197,868.11 496.063,974.409 566.929,868.11"
             style="font-size:12px;fill:none;stroke:#000000;stroke-width:1pt"
             inkscape:connector-curvature="0" />
          <path
             transform="translate(177.1655,-224.0517)"
             sodipodi:nodetypes="ccc"
             id="path856"
             d="m 425.197,797.244 70.866,106.299 70.866,-106.299"
             style="font-size:12px;fill:none;stroke:#000000;stroke-width:1pt"
             inkscape:connector-curvature="0" />
          <path
             transform="translate(177.1655,-224.0517)"
             sodipodi:nodetypes="ccc"
             id="path857"
             d="m 425.197,726.378 70.866,106.299 70.866,-106.299"
             style="font-size:12px;fill:none;stroke:#000000;stroke-width:1pt"
             inkscape:connector-curvature="0" />
          <path
             transform="translate(177.1655,-224.0517)"
             sodipodi:nodetypes="ccc"
             id="path858"
             d="m 425.197,673.228 70.866,88.583 70.866,-88.583"
             style="font-size:12px;fill:none;stroke:#000000;stroke-width:1pt"
             inkscape:connector-curvature="0" />
          <path
             transform="translate(177.1655,-224.0517)"
             sodipodi:nodetypes="ccc"
             id="path859"
             d="m 425.197,620.079 70.866,88.582 70.866,-88.582"
             style="font-size:12px;fill:none;stroke:#000000;stroke-width:1pt"
             inkscape:connector-curvature="0" />
          <path
             transform="translate(177.1655,-224.0517)"
             sodipodi:nodetypes="ccc"
             id="path860"
             d="m 442.913,566.929 53.15,106.299 53.15,-106.299"
             style="font-size:12px;fill:none;stroke:#000000;stroke-width:1pt"
             inkscape:connector-curvature="0" />
        </g>
        <g
           transform="matrix(0.236516,-0.281856,0.294964,0.227618,354.5673,204.654)"
           id="g738">
          <path
             transform="translate(177.1655,-224.0517)"
             sodipodi:nodetypes="ccccccccccccccccccccccccccccccc"
             id="path739"
             d="m 496.063,549.213 17.717,70.866 35.433,-53.15 -17.717,88.583 35.433,-35.433 -35.433,88.582 35.433,-35.433 -35.433,88.583 35.433,-35.433 -35.433,106.299 35.433,-35.433 -35.433,106.299 35.433,-35.433 -35.433,106.299 -17.716,53.151 -17.717,17.72 -17.717,-17.72 -17.716,-53.151 -35.433,-106.299 35.433,35.433 -35.433,-106.299 35.433,35.433 -35.433,-106.299 35.433,35.433 -35.433,-88.583 35.433,35.433 -35.433,-88.582 35.433,35.433 -17.717,-88.583 35.433,53.15 17.717,-70.866 z"
             style="font-size:12px;fill:#006d00;fill-rule:evenodd;stroke:#ffffff;stroke-width:8.25;stroke-dasharray:none"
             inkscape:connector-curvature="0" />
          <path
             transform="translate(177.1655,-224.0517)"
             sodipodi:nodetypes="cc"
             id="path740"
             d="m 496.063,549.213 0,496.067"
             style="font-size:12px;fill:none;stroke:#000000;stroke-width:1pt"
             inkscape:connector-curvature="0" />
          <path
             transform="translate(177.1655,-224.0517)"
             sodipodi:nodetypes="ccc"
             id="path741"
             d="M 425.197,868.11 496.063,974.409 566.929,868.11"
             style="font-size:12px;fill:none;stroke:#000000;stroke-width:1pt"
             inkscape:connector-curvature="0" />
          <path
             transform="translate(177.1655,-224.0517)"
             sodipodi:nodetypes="ccc"
             id="path742"
             d="m 425.197,797.244 70.866,106.299 70.866,-106.299"
             style="font-size:12px;fill:none;stroke:#000000;stroke-width:1pt"
             inkscape:connector-curvature="0" />
          <path
             transform="translate(177.1655,-224.0517)"
             sodipodi:nodetypes="ccc"
             id="path743"
             d="m 425.197,726.378 70.866,106.299 70.866,-106.299"
             style="font-size:12px;fill:none;stroke:#000000;stroke-width:1pt"
             inkscape:connector-curvature="0" />
          <path
             transform="translate(177.1655,-224.0517)"
             sodipodi:nodetypes="ccc"
             id="path744"
             d="m 425.197,673.228 70.866,88.583 70.866,-88.583"
             style="font-size:12px;fill:none;stroke:#000000;stroke-width:1pt"
             inkscape:connector-curvature="0" />
          <path
             transform="translate(177.1655,-224.0517)"
             sodipodi:nodetypes="ccc"
             id="path745"
             d="m 425.197,620.079 70.866,88.582 70.866,-88.582"
             style="font-size:12px;fill:none;stroke:#000000;stroke-width:1pt"
             inkscape:connector-curvature="0" />
          <path
             transform="translate(177.1655,-224.0517)"
             sodipodi:nodetypes="ccc"
             id="path746"
             d="m 442.913,566.929 53.15,106.299 53.15,-106.299"
             style="font-size:12px;fill:none;stroke:#000000;stroke-width:1pt"
             inkscape:connector-curvature="0" />
        </g>
        <g
           transform="matrix(0.15164,0.335243,-0.332899,0.167308,907.5388,-153.4696)"
           id="g747">
          <path
             transform="translate(177.1655,-224.0517)"
             sodipodi:nodetypes="ccccccccccccccccccccccccccccccc"
             id="path748"
             d="m 496.063,549.213 17.717,70.866 35.433,-53.15 -17.717,88.583 35.433,-35.433 -35.433,88.582 35.433,-35.433 -35.433,88.583 35.433,-35.433 -35.433,106.299 35.433,-35.433 -35.433,106.299 35.433,-35.433 -35.433,106.299 -17.716,53.151 -17.717,17.72 -17.717,-17.72 -17.716,-53.151 -35.433,-106.299 35.433,35.433 -35.433,-106.299 35.433,35.433 -35.433,-106.299 35.433,35.433 -35.433,-88.583 35.433,35.433 -35.433,-88.582 35.433,35.433 -17.717,-88.583 35.433,53.15 17.717,-70.866 z"
             style="font-size:12px;fill:#006d00;fill-rule:evenodd;stroke:#ffffff;stroke-width:8.25;stroke-dasharray:none"
             inkscape:connector-curvature="0" />
          <path
             transform="translate(177.1655,-224.0517)"
             sodipodi:nodetypes="cc"
             id="path749"
             d="m 496.063,549.213 0,496.067"
             style="font-size:12px;fill:none;stroke:#000000;stroke-width:1pt"
             inkscape:connector-curvature="0" />
          <path
             transform="translate(177.1655,-224.0517)"
             sodipodi:nodetypes="ccc"
             id="path750"
             d="M 425.197,868.11 496.063,974.409 566.929,868.11"
             style="font-size:12px;fill:none;stroke:#000000;stroke-width:1pt"
             inkscape:connector-curvature="0" />
          <path
             transform="translate(177.1655,-224.0517)"
             sodipodi:nodetypes="ccc"
             id="path751"
             d="m 425.197,797.244 70.866,106.299 70.866,-106.299"
             style="font-size:12px;fill:none;stroke:#000000;stroke-width:1pt"
             inkscape:connector-curvature="0" />
          <path
             transform="translate(177.1655,-224.0517)"
             sodipodi:nodetypes="ccc"
             id="path752"
             d="m 425.197,726.378 70.866,106.299 70.866,-106.299"
             style="font-size:12px;fill:none;stroke:#000000;stroke-width:1pt"
             inkscape:connector-curvature="0" />
          <path
             transform="translate(177.1655,-224.0517)"
             sodipodi:nodetypes="ccc"
             id="path753"
             d="m 425.197,673.228 70.866,88.583 70.866,-88.583"
             style="font-size:12px;fill:none;stroke:#000000;stroke-width:1pt"
             inkscape:connector-curvature="0" />
          <path
             transform="translate(177.1655,-224.0517)"
             sodipodi:nodetypes="ccc"
             id="path754"
             d="m 425.197,620.079 70.866,88.582 70.866,-88.582"
             style="font-size:12px;fill:none;stroke:#000000;stroke-width:1pt"
             inkscape:connector-curvature="0" />
          <path
             transform="translate(177.1655,-224.0517)"
             sodipodi:nodetypes="ccc"
             id="path755"
             d="m 442.913,566.929 53.15,106.299 53.15,-106.299"
             style="font-size:12px;fill:none;stroke:#000000;stroke-width:1pt"
             inkscape:connector-curvature="0" />
        </g>
        <g
           transform="matrix(-0.209517,0.302465,-0.314697,-0.199448,1141.363,167.5798)"
           id="g756">
          <path
             transform="translate(177.1655,-224.0517)"
             sodipodi:nodetypes="ccccccccccccccccccccccccccccccc"
             id="path757"
             d="m 496.063,549.213 17.717,70.866 35.433,-53.15 -17.717,88.583 35.433,-35.433 -35.433,88.582 35.433,-35.433 -35.433,88.583 35.433,-35.433 -35.433,106.299 35.433,-35.433 -35.433,106.299 35.433,-35.433 -35.433,106.299 -17.716,53.151 -17.717,17.72 -17.717,-17.72 -17.716,-53.151 -35.433,-106.299 35.433,35.433 -35.433,-106.299 35.433,35.433 -35.433,-106.299 35.433,35.433 -35.433,-88.583 35.433,35.433 -35.433,-88.582 35.433,35.433 -17.717,-88.583 35.433,53.15 17.717,-70.866 z"
             style="font-size:12px;fill:#006d00;fill-rule:evenodd;stroke:#ffffff;stroke-width:8.25;stroke-dasharray:none"
             inkscape:connector-curvature="0" />
          <path
             transform="translate(177.1655,-224.0517)"
             sodipodi:nodetypes="cc"
             id="path758"
             d="m 496.063,549.213 0,496.067"
             style="font-size:12px;fill:none;stroke:#000000;stroke-width:1pt"
             inkscape:connector-curvature="0" />
          <path
             transform="translate(177.1655,-224.0517)"
             sodipodi:nodetypes="ccc"
             id="path759"
             d="M 425.197,868.11 496.063,974.409 566.929,868.11"
             style="font-size:12px;fill:none;stroke:#000000;stroke-width:1pt"
             inkscape:connector-curvature="0" />
          <path
             transform="translate(177.1655,-224.0517)"
             sodipodi:nodetypes="ccc"
             id="path760"
             d="m 425.197,797.244 70.866,106.299 70.866,-106.299"
             style="font-size:12px;fill:none;stroke:#000000;stroke-width:1pt"
             inkscape:connector-curvature="0" />
          <path
             transform="translate(177.1655,-224.0517)"
             sodipodi:nodetypes="ccc"
             id="path761"
             d="m 425.197,726.378 70.866,106.299 70.866,-106.299"
             style="font-size:12px;fill:none;stroke:#000000;stroke-width:1pt"
             inkscape:connector-curvature="0" />
          <path
             transform="translate(177.1655,-224.0517)"
             sodipodi:nodetypes="ccc"
             id="path762"
             d="m 425.197,673.228 70.866,88.583 70.866,-88.583"
             style="font-size:12px;fill:none;stroke:#000000;stroke-width:1pt"
             inkscape:connector-curvature="0" />
          <path
             transform="translate(177.1655,-224.0517)"
             sodipodi:nodetypes="ccc"
             id="path763"
             d="m 425.197,620.079 70.866,88.582 70.866,-88.582"
             style="font-size:12px;fill:none;stroke:#000000;stroke-width:1pt"
             inkscape:connector-curvature="0" />
          <path
             transform="translate(177.1655,-224.0517)"
             sodipodi:nodetypes="ccc"
             id="path764"
             d="m 442.913,566.929 53.15,106.299 53.15,-106.299"
             style="font-size:12px;fill:none;stroke:#000000;stroke-width:1pt"
             inkscape:connector-curvature="0" />
        </g>
        <g
           transform="matrix(-0.207724,-0.258384,0.236176,-0.235153,689.9856,567.2772)"
           id="g765">
          <path
             transform="translate(177.1655,-224.0517)"
             sodipodi:nodetypes="ccccccccccccccccccccccccccccccc"
             id="path766"
             d="m 496.063,549.213 17.717,70.866 35.433,-53.15 -17.717,88.583 35.433,-35.433 -35.433,88.582 35.433,-35.433 -35.433,88.583 35.433,-35.433 -35.433,106.299 35.433,-35.433 -35.433,106.299 35.433,-35.433 -35.433,106.299 -17.716,53.151 -17.717,17.72 -17.717,-17.72 -17.716,-53.151 -35.433,-106.299 35.433,35.433 -35.433,-106.299 35.433,35.433 -35.433,-106.299 35.433,35.433 -35.433,-88.583 35.433,35.433 -35.433,-88.582 35.433,35.433 -17.717,-88.583 35.433,53.15 17.717,-70.866 z"
             style="font-size:12px;fill:#006d00;fill-rule:evenodd;stroke:#ffffff;stroke-width:8.25;stroke-dasharray:none"
             inkscape:connector-curvature="0" />
          <path
             transform="translate(177.1655,-224.0517)"
             sodipodi:nodetypes="cc"
             id="path767"
             d="m 496.063,549.213 0,496.067"
             style="font-size:12px;fill:none;stroke:#000000;stroke-width:1pt"
             inkscape:connector-curvature="0" />
          <path
             transform="translate(177.1655,-224.0517)"
             sodipodi:nodetypes="ccc"
             id="path768"
             d="M 425.197,868.11 496.063,974.409 566.929,868.11"
             style="font-size:12px;fill:none;stroke:#000000;stroke-width:1pt"
             inkscape:connector-curvature="0" />
          <path
             transform="translate(177.1655,-224.0517)"
             sodipodi:nodetypes="ccc"
             id="path769"
             d="m 425.197,797.244 70.866,106.299 70.866,-106.299"
             style="font-size:12px;fill:none;stroke:#000000;stroke-width:1pt"
             inkscape:connector-curvature="0" />
          <path
             transform="translate(177.1655,-224.0517)"
             sodipodi:nodetypes="ccc"
             id="path770"
             d="m 425.197,726.378 70.866,106.299 70.866,-106.299"
             style="font-size:12px;fill:none;stroke:#000000;stroke-width:1pt"
             inkscape:connector-curvature="0" />
          <path
             transform="translate(177.1655,-224.0517)"
             sodipodi:nodetypes="ccc"
             id="path771"
             d="m 425.197,673.228 70.866,88.583 70.866,-88.583"
             style="font-size:12px;fill:none;stroke:#000000;stroke-width:1pt"
             inkscape:connector-curvature="0" />
          <path
             transform="translate(177.1655,-224.0517)"
             sodipodi:nodetypes="ccc"
             id="path772"
             d="m 425.197,620.079 70.866,88.582 70.866,-88.582"
             style="font-size:12px;fill:none;stroke:#000000;stroke-width:1pt"
             inkscape:connector-curvature="0" />
          <path
             transform="translate(177.1655,-224.0517)"
             sodipodi:nodetypes="ccc"
             id="path773"
             d="m 442.913,566.929 53.15,106.299 53.15,-106.299"
             style="font-size:12px;fill:none;stroke:#000000;stroke-width:1pt"
             inkscape:connector-curvature="0" />
        </g>
        <g
           transform="matrix(-0.362184,-0.09947167,-0.209809,0.317733,1222.415,-24.22945)"
           id="g791">
          <path
             transform="translate(283.4647,-124.0162)"
             sodipodi:nodetypes="ccccccccccccccccccccccccccccccc"
             id="path775"
             d="m 460.63,549.213 28.643,70.866 42.223,-53.15 -10.184,88.583 27.9,-35.433 -17.716,88.582 25.249,-35.433 -25.249,88.583 35.433,-35.433 -35.433,106.299 35.433,-35.433 -35.433,106.299 35.433,-35.433 -35.433,106.299 -17.716,53.151 -17.717,17.72 -17.717,-17.72 -17.716,-53.151 -35.433,-106.299 35.433,35.433 -35.433,-106.299 35.433,35.433 -35.433,-106.299 35.433,35.433 -45.617,-88.583 45.617,35.433 -53.15,-88.582 42.966,35.433 -25.25,-88.583 35.433,53.15 10e-4,-70.866 z"
             style="font-size:12px;fill:#006d00;fill-rule:evenodd;stroke:#ffffff;stroke-width:8.25"
             inkscape:connector-curvature="0" />
          <path
             transform="translate(283.4647,-124.0162)"
             sodipodi:nodetypes="ccc"
             id="path776"
             d="m 467.208,584.646 28.855,124.016 0,336.618"
             style="font-size:12px;fill:none;stroke:#000000;stroke-width:1pt"
             inkscape:connector-curvature="0" />
          <path
             transform="translate(283.4647,-124.0162)"
             sodipodi:nodetypes="ccc"
             id="path777"
             d="m 436.23,885.827 59.833,88.582 60.682,-88.582"
             style="font-size:12px;fill:none;stroke:#000000;stroke-width:1pt"
             inkscape:connector-curvature="0" />
          <path
             transform="translate(283.4647,-124.0162)"
             sodipodi:nodetypes="ccc"
             id="path778"
             d="m 434.533,814.961 61.53,88.582 60.682,-88.582"
             style="font-size:12px;fill:none;stroke:#000000;stroke-width:1pt"
             inkscape:connector-curvature="0" />
          <path
             transform="translate(283.4647,-124.0162)"
             sodipodi:nodetypes="ccc"
             id="path779"
             d="m 435.381,744.095 60.682,88.582 59.833,-88.582"
             style="font-size:12px;fill:none;stroke:#000000;stroke-width:1pt"
             inkscape:connector-curvature="0" />
          <path
             transform="translate(283.4647,-124.0162)"
             sodipodi:nodetypes="ccc"
             id="path780"
             d="m 432.835,690.945 63.228,70.866 53.149,-70.866"
             style="font-size:12px;fill:none;stroke:#000000;stroke-width:1pt"
             inkscape:connector-curvature="0" />
          <path
             transform="translate(283.4647,-124.0162)"
             sodipodi:nodetypes="ccc"
             id="path781"
             d="m 425.197,637.796 70.866,70.865 45.406,-70.865"
             style="font-size:12px;fill:none;stroke:#000000;stroke-width:1pt"
             inkscape:connector-curvature="0" />
          <path
             transform="translate(283.4647,-124.0162)"
             sodipodi:nodetypes="ccc"
             id="path782"
             d="m 436.124,593.238 53.15,86.886 35.327,-95.478"
             style="font-size:12px;fill:none;stroke:#000000;stroke-width:1pt"
             inkscape:connector-curvature="0" />
        </g>
        <g
           transform="matrix(0.360878,0.10411,0.01321056,0.380525,452.7614,-239.2657)"
           id="g800">
          <path
             transform="translate(283.4647,-124.0162)"
             sodipodi:nodetypes="ccccccccccccccccccccccccccccccc"
             id="path801"
             d="m 460.63,549.213 28.643,70.866 42.223,-53.15 -10.184,88.583 27.9,-35.433 -17.716,88.582 25.249,-35.433 -25.249,88.583 35.433,-35.433 -35.433,106.299 35.433,-35.433 -35.433,106.299 35.433,-35.433 -35.433,106.299 -17.716,53.151 -17.717,17.72 -17.717,-17.72 -17.716,-53.151 -35.433,-106.299 35.433,35.433 -35.433,-106.299 35.433,35.433 -35.433,-106.299 35.433,35.433 -45.617,-88.583 45.617,35.433 -53.15,-88.582 42.966,35.433 -25.25,-88.583 35.433,53.15 10e-4,-70.866 z"
             style="font-size:12px;fill:#006d00;fill-rule:evenodd;stroke:#ffffff;stroke-width:8.25"
             inkscape:connector-curvature="0" />
          <path
             transform="translate(283.4647,-124.0162)"
             sodipodi:nodetypes="ccc"
             id="path802"
             d="m 467.208,584.646 28.855,124.016 0,336.618"
             style="font-size:12px;fill:none;stroke:#000000;stroke-width:1pt"
             inkscape:connector-curvature="0" />
          <path
             transform="translate(283.4647,-124.0162)"
             sodipodi:nodetypes="ccc"
             id="path803"
             d="m 436.23,885.827 59.833,88.582 60.682,-88.582"
             style="font-size:12px;fill:none;stroke:#000000;stroke-width:1pt"
             inkscape:connector-curvature="0" />
          <path
             transform="translate(283.4647,-124.0162)"
             sodipodi:nodetypes="ccc"
             id="path804"
             d="m 434.533,814.961 61.53,88.582 60.682,-88.582"
             style="font-size:12px;fill:none;stroke:#000000;stroke-width:1pt"
             inkscape:connector-curvature="0" />
          <path
             transform="translate(283.4647,-124.0162)"
             sodipodi:nodetypes="ccc"
             id="path805"
             d="m 435.381,744.095 60.682,88.582 59.833,-88.582"
             style="font-size:12px;fill:none;stroke:#000000;stroke-width:1pt"
             inkscape:connector-curvature="0" />
          <path
             transform="translate(283.4647,-124.0162)"
             sodipodi:nodetypes="ccc"
             id="path806"
             d="m 432.835,690.945 63.228,70.866 53.149,-70.866"
             style="font-size:12px;fill:none;stroke:#000000;stroke-width:1pt"
             inkscape:connector-curvature="0" />
          <path
             transform="translate(283.4647,-124.0162)"
             sodipodi:nodetypes="ccc"
             id="path807"
             d="m 425.197,637.796 70.866,70.865 45.406,-70.865"
             style="font-size:12px;fill:none;stroke:#000000;stroke-width:1pt"
             inkscape:connector-curvature="0" />
          <path
             transform="translate(283.4647,-124.0162)"
             sodipodi:nodetypes="ccc"
             id="path808"
             d="m 436.124,593.238 53.15,86.886 35.327,-95.478"
             style="font-size:12px;fill:none;stroke:#000000;stroke-width:1pt"
             inkscape:connector-curvature="0" />
        </g>
        <g
           transform="matrix(0.04613187,-0.364743,0.326017,0.06479648,379.5799,479.5432)"
           id="g843">
          <path
             transform="translate(442.9136,-42.96583)"
             sodipodi:nodetypes="ccccccccccccccccccccccccccccccc"
             id="path810"
             d="m 354.331,531.496 88.583,88.583 17.716,-53.149 0,88.582 35.433,-35.433 -17.716,88.583 35.432,-35.434 -17.716,88.584 35.433,-35.433 -17.716,106.299 35.433,-35.433 -35.433,106.299 35.433,-35.433 -17.717,106.298 -17.716,53.151 -17.717,17.72 -17.717,-17.72 -17.716,-53.151 -53.15,-82.294 35.434,11.429 -35.433,-106.299 35.433,35.433 -53.15,-106.299 35.433,35.433 -53.15,-88.584 53.15,35.434 -70.866,-88.583 53.149,35.433 -70.866,-70.866 70.866,35.433 -53.149,-88.583 z"
             style="font-size:12px;fill:#006d00;fill-rule:evenodd;stroke:#ffffff;stroke-width:8.25"
             inkscape:connector-curvature="0" />
          <path
             transform="translate(442.9136,-42.96583)"
             sodipodi:nodetypes="ccccccc"
             id="path811"
             d="m 378.962,560.015 63.952,95.497 17.716,53.15 8.859,45.205 8.858,78.811 9.315,70.866 8.401,141.736"
             style="font-size:12px;fill:none;stroke:#000000;stroke-width:1pt"
             inkscape:connector-curvature="0" />
          <path
             transform="translate(442.9136,-42.96583)"
             sodipodi:nodetypes="ccc"
             id="path812"
             d="m 425.197,903.544 63.665,70.866 50.749,-88.583"
             style="font-size:12px;fill:none;stroke:#000000;stroke-width:1pt"
             inkscape:connector-curvature="0" />
          <path
             transform="translate(442.9136,-42.96583)"
             sodipodi:nodetypes="ccc"
             id="path813"
             d="m 417.082,814.961 70.579,88.583 50.75,-88.583"
             style="font-size:12px;fill:none;stroke:#000000;stroke-width:1pt"
             inkscape:connector-curvature="0" />
          <path
             transform="translate(442.9136,-42.96583)"
             sodipodi:nodetypes="ccc"
             id="path814"
             d="m 407.48,752.443 70.867,80.235 45.948,-88.583"
             style="font-size:12px;fill:none;stroke:#000000;stroke-width:1pt"
             inkscape:connector-curvature="0" />
          <path
             transform="translate(442.9136,-42.96583)"
             sodipodi:nodetypes="ccc"
             id="path815"
             d="m 372.047,637.796 88.583,70.866 25.831,-70.866"
             style="font-size:12px;fill:none;stroke:#000000;stroke-width:1pt"
             inkscape:connector-curvature="0" />
          <path
             transform="translate(442.9136,-42.96583)"
             sodipodi:nodetypes="ccc"
             id="path816"
             d="m 360.618,602.363 82.296,53.149 10.515,-53.149"
             style="font-size:12px;fill:none;stroke:#000000;stroke-width:1pt"
             inkscape:connector-curvature="0" />
          <path
             transform="translate(442.9136,-42.96583)"
             sodipodi:nodetypes="ccc"
             id="path817"
             d="m 389.764,690.945 81.095,70.866 33.946,-70.866"
             style="font-size:12px;fill:none;stroke:#000000;stroke-width:1pt"
             inkscape:connector-curvature="0" />
        </g>
      </g>
    </g>
    <g
       transform="matrix(0.13658855,0,0,0.12572748,266.35557,208.19121)"
       id="g1060">
      <path
         sodipodi:nodetypes="ccccccccccccccc"
         id="path1054"
         d="M 541.459,1173.31 539.761,944.167 478.657,837.233 c -15.277,-52.618 -7.754,-78.079 16.973,-79.776 24.728,-1.698 49.224,13.579 84.868,15.276 35.645,1.697 28.856,-59.408 81.474,-57.71 52.618,1.697 144.276,32.25 222.355,37.342 78.078,5.092 118.813,-27.158 208.773,-30.553 89.97,-3.395 113.73,42.435 118.82,42.435 5.09,0 30.55,-18.672 56.01,-22.066 25.46,-3.395 33.95,10.184 33.95,10.184 0,0 -1.7,57.71 -13.58,91.657 -11.88,33.948 -54.32,89.961 -56.01,89.961 -1.7,0 -15.28,249.517 -15.28,251.207 0,1.7 -675.551,-6.79 -675.551,-11.88 z"
         style="fill:#cc0000;fill-opacity:1;fill-rule:evenodd;stroke:#000000;stroke-width:1pt;stroke-linecap:butt;stroke-linejoin:miter;stroke-opacity:1"
         inkscape:connector-curvature="0" />
      <g
         transform="matrix(-1,0,0,1,1771.654,354.3306)"
         id="g1016">
        <path
           sodipodi:nodetypes="cssccsscccc"
           id="path1017"
           d="m 531.496,584.646 c 0,0 -67.982,-52.097 -69.813,-177.166 -1.053,-71.929 34.38,-124.015 122.963,-124.015 124.015,0 301.181,53.149 301.181,53.149 l 0,17.717 c 0,0 -141.732,-53.15 -301.181,-53.15 -70.866,0 -106.3,52.087 -106.3,105.236 0,88.583 70.867,178.229 70.867,178.229 l 0,141.732 -17.717,0 0,-141.732 z"
           style="fill:#fff100;fill-opacity:1;fill-rule:evenodd;stroke:#000000;stroke-width:1pt;stroke-linecap:butt;stroke-linejoin:miter;stroke-opacity:1"
           inkscape:connector-curvature="0" />
        <path
           transform="translate(16.01921,-1.697365)"
           sodipodi:ry="17.716553"
           sodipodi:rx="17.716522"
           sodipodi:cy="549.21259"
           sodipodi:cx="460.62991"
           d="m 478.34644,549.21259 c 0,9.78458 -7.93196,17.71655 -17.71653,17.71655 -9.78456,0 -17.71652,-7.93197 -17.71652,-17.71655 0,-9.78459 7.93196,-17.71656 17.71652,-17.71656 9.78457,0 17.71653,7.93197 17.71653,17.71656 z"
           id="path1018"
           style="fill:#ffffff;fill-opacity:1;fill-rule:evenodd;stroke:#000000;stroke-width:1pt;stroke-linecap:butt;stroke-linejoin:miter;stroke-opacity:1"
           sodipodi:type="arc" />
        <path
           transform="translate(-1.69735,-42.22253)"
           sodipodi:ry="17.716553"
           sodipodi:rx="17.716522"
           sodipodi:cy="549.21259"
           sodipodi:cx="460.62991"
           d="m 478.34644,549.21259 c 0,9.78458 -7.93196,17.71655 -17.71653,17.71655 -9.78456,0 -17.71652,-7.93197 -17.71652,-17.71655 0,-9.78459 7.93196,-17.71656 17.71652,-17.71656 9.78457,0 17.71653,7.93197 17.71653,17.71656 z"
           id="path1019"
           style="fill:#ffffff;fill-opacity:1;fill-rule:evenodd;stroke:#000000;stroke-width:1pt;stroke-linecap:butt;stroke-linejoin:miter;stroke-opacity:1"
           sodipodi:type="arc" />
        <path
           transform="translate(-10.92705,-83.49062)"
           sodipodi:ry="17.716553"
           sodipodi:rx="17.716522"
           sodipodi:cy="549.21259"
           sodipodi:cx="460.62991"
           d="m 478.34644,549.21259 c 0,9.78458 -7.93196,17.71655 -17.71653,17.71655 -9.78456,0 -17.71652,-7.93197 -17.71652,-17.71655 0,-9.78459 7.93196,-17.71656 17.71652,-17.71656 9.78457,0 17.71653,7.93197 17.71653,17.71656 z"
           id="path1020"
           style="fill:#ffffff;fill-opacity:1;fill-rule:evenodd;stroke:#000000;stroke-width:1pt;stroke-linecap:butt;stroke-linejoin:miter;stroke-opacity:1"
           sodipodi:type="arc" />
        <path
           transform="translate(-17.71652,-127.622)"
           sodipodi:ry="17.716553"
           sodipodi:rx="17.716522"
           sodipodi:cy="549.21259"
           sodipodi:cx="460.62991"
           d="m 478.34644,549.21259 c 0,9.78458 -7.93196,17.71655 -17.71653,17.71655 -9.78456,0 -17.71652,-7.93197 -17.71652,-17.71655 0,-9.78459 7.93196,-17.71656 17.71652,-17.71656 9.78457,0 17.71653,7.93197 17.71653,17.71656 z"
           id="path1021"
           style="fill:#ffffff;fill-opacity:1;fill-rule:evenodd;stroke:#000000;stroke-width:1pt;stroke-linecap:butt;stroke-linejoin:miter;stroke-opacity:1"
           sodipodi:type="arc" />
        <path
           transform="translate(-16.01917,-175.468)"
           sodipodi:ry="17.716553"
           sodipodi:rx="17.716522"
           sodipodi:cy="549.21259"
           sodipodi:cx="460.62991"
           d="m 478.34644,549.21259 c 0,9.78458 -7.93196,17.71655 -17.71653,17.71655 -9.78456,0 -17.71652,-7.93197 -17.71652,-17.71655 0,-9.78459 7.93196,-17.71656 17.71652,-17.71656 9.78457,0 17.71653,7.93197 17.71653,17.71656 z"
           id="path1022"
           style="fill:#ffffff;fill-opacity:1;fill-rule:evenodd;stroke:#000000;stroke-width:1pt;stroke-linecap:butt;stroke-linejoin:miter;stroke-opacity:1"
           sodipodi:type="arc" />
        <path
           transform="translate(41.47964,33.94724)"
           sodipodi:ry="17.716553"
           sodipodi:rx="17.716522"
           sodipodi:cy="549.21259"
           sodipodi:cx="460.62991"
           d="m 478.34644,549.21259 c 0,9.78458 -7.93196,17.71655 -17.71653,17.71655 -9.78456,0 -17.71652,-7.93197 -17.71652,-17.71655 0,-9.78459 7.93196,-17.71656 17.71652,-17.71656 9.78457,0 17.71653,7.93197 17.71653,17.71656 z"
           id="path1023"
           style="fill:#ffffff;fill-opacity:1;fill-rule:evenodd;stroke:#000000;stroke-width:1pt;stroke-linecap:butt;stroke-linejoin:miter;stroke-opacity:1"
           sodipodi:type="arc" />
        <path
           transform="translate(-0.954404,-220.6571)"
           sodipodi:ry="17.716553"
           sodipodi:rx="17.716522"
           sodipodi:cy="549.21259"
           sodipodi:cx="460.62991"
           d="m 478.34644,549.21259 c 0,9.78458 -7.93196,17.71655 -17.71653,17.71655 -9.78456,0 -17.71652,-7.93197 -17.71652,-17.71655 0,-9.78459 7.93196,-17.71656 17.71652,-17.71656 9.78457,0 17.71653,7.93197 17.71653,17.71656 z"
           id="path1024"
           style="fill:#ffffff;fill-opacity:1;fill-rule:evenodd;stroke:#000000;stroke-width:1pt;stroke-linecap:butt;stroke-linejoin:miter;stroke-opacity:1"
           sodipodi:type="arc" />
        <path
           transform="translate(31.29547,-256.3018)"
           sodipodi:ry="17.716553"
           sodipodi:rx="17.716522"
           sodipodi:cy="549.21259"
           sodipodi:cx="460.62991"
           d="m 478.34644,549.21259 c 0,9.78458 -7.93196,17.71655 -17.71653,17.71655 -9.78456,0 -17.71652,-7.93197 -17.71652,-17.71655 0,-9.78459 7.93196,-17.71656 17.71652,-17.71656 9.78457,0 17.71653,7.93197 17.71653,17.71656 z"
           id="path1025"
           style="fill:#ffffff;fill-opacity:1;fill-rule:evenodd;stroke:#000000;stroke-width:1pt;stroke-linecap:butt;stroke-linejoin:miter;stroke-opacity:1"
           sodipodi:type="arc" />
        <path
           transform="translate(75.42686,-280.0649)"
           sodipodi:ry="17.716553"
           sodipodi:rx="17.716522"
           sodipodi:cy="549.21259"
           sodipodi:cx="460.62991"
           d="m 478.34644,549.21259 c 0,9.78458 -7.93196,17.71655 -17.71653,17.71655 -9.78456,0 -17.71652,-7.93197 -17.71652,-17.71655 0,-9.78459 7.93196,-17.71656 17.71652,-17.71656 9.78457,0 17.71653,7.93197 17.71653,17.71656 z"
           id="path1026"
           style="fill:#ffffff;fill-opacity:1;fill-rule:evenodd;stroke:#000000;stroke-width:1pt;stroke-linecap:butt;stroke-linejoin:miter;stroke-opacity:1"
           sodipodi:type="arc" />
        <path
           transform="translate(119.5583,-283.4597)"
           sodipodi:ry="17.716553"
           sodipodi:rx="17.716522"
           sodipodi:cy="549.21259"
           sodipodi:cx="460.62991"
           d="m 478.34644,549.21259 c 0,9.78458 -7.93196,17.71655 -17.71653,17.71655 -9.78456,0 -17.71652,-7.93197 -17.71652,-17.71655 0,-9.78459 7.93196,-17.71656 17.71652,-17.71656 9.78457,0 17.71653,7.93197 17.71653,17.71656 z"
           id="path1027"
           style="fill:#ffffff;fill-opacity:1;fill-rule:evenodd;stroke:#000000;stroke-width:1pt;stroke-linecap:butt;stroke-linejoin:miter;stroke-opacity:1"
           sodipodi:type="arc" />
        <path
           transform="translate(167.0844,-281.7623)"
           sodipodi:ry="17.716553"
           sodipodi:rx="17.716522"
           sodipodi:cy="549.21259"
           sodipodi:cx="460.62991"
           d="m 478.34644,549.21259 c 0,9.78458 -7.93196,17.71655 -17.71653,17.71655 -9.78456,0 -17.71652,-7.93197 -17.71652,-17.71655 0,-9.78459 7.93196,-17.71656 17.71652,-17.71656 9.78457,0 17.71653,7.93197 17.71653,17.71656 z"
           id="path1028"
           style="fill:#ffffff;fill-opacity:1;fill-rule:evenodd;stroke:#000000;stroke-width:1pt;stroke-linecap:butt;stroke-linejoin:miter;stroke-opacity:1"
           sodipodi:type="arc" />
        <path
           transform="translate(214.6105,-274.9728)"
           sodipodi:ry="17.716553"
           sodipodi:rx="17.716522"
           sodipodi:cy="549.21259"
           sodipodi:cx="460.62991"
           d="m 478.34644,549.21259 c 0,9.78458 -7.93196,17.71655 -17.71653,17.71655 -9.78456,0 -17.71652,-7.93197 -17.71652,-17.71655 0,-9.78459 7.93196,-17.71656 17.71652,-17.71656 9.78457,0 17.71653,7.93197 17.71653,17.71656 z"
           id="path1029"
           style="fill:#ffffff;fill-opacity:1;fill-rule:evenodd;stroke:#000000;stroke-width:1pt;stroke-linecap:butt;stroke-linejoin:miter;stroke-opacity:1"
           sodipodi:type="arc" />
        <path
           transform="translate(262.1367,-268.1833)"
           sodipodi:ry="17.716553"
           sodipodi:rx="17.716522"
           sodipodi:cy="549.21259"
           sodipodi:cx="460.62991"
           d="m 478.34644,549.21259 c 0,9.78458 -7.93196,17.71655 -17.71653,17.71655 -9.78456,0 -17.71652,-7.93197 -17.71652,-17.71655 0,-9.78459 7.93196,-17.71656 17.71652,-17.71656 9.78457,0 17.71653,7.93197 17.71653,17.71656 z"
           id="path1030"
           style="fill:#ffffff;fill-opacity:1;fill-rule:evenodd;stroke:#000000;stroke-width:1pt;stroke-linecap:butt;stroke-linejoin:miter;stroke-opacity:1"
           sodipodi:type="arc" />
        <path
           transform="translate(313.0576,-259.6964)"
           sodipodi:ry="17.716553"
           sodipodi:rx="17.716522"
           sodipodi:cy="549.21259"
           sodipodi:cx="460.62991"
           d="m 478.34644,549.21259 c 0,9.78458 -7.93196,17.71655 -17.71653,17.71655 -9.78456,0 -17.71652,-7.93197 -17.71652,-17.71655 0,-9.78459 7.93196,-17.71656 17.71652,-17.71656 9.78457,0 17.71653,7.93197 17.71653,17.71656 z"
           id="path1031"
           style="fill:#ffffff;fill-opacity:1;fill-rule:evenodd;stroke:#000000;stroke-width:1pt;stroke-linecap:butt;stroke-linejoin:miter;stroke-opacity:1"
           sodipodi:type="arc" />
        <path
           transform="translate(357.189,-247.8149)"
           sodipodi:ry="17.716553"
           sodipodi:rx="17.716522"
           sodipodi:cy="549.21259"
           sodipodi:cx="460.62991"
           d="m 478.34644,549.21259 c 0,9.78458 -7.93196,17.71655 -17.71653,17.71655 -9.78456,0 -17.71652,-7.93197 -17.71652,-17.71655 0,-9.78459 7.93196,-17.71656 17.71652,-17.71656 9.78457,0 17.71653,7.93197 17.71653,17.71656 z"
           id="path1032"
           style="fill:#ffffff;fill-opacity:1;fill-rule:evenodd;stroke:#000000;stroke-width:1pt;stroke-linecap:butt;stroke-linejoin:miter;stroke-opacity:1"
           sodipodi:type="arc" />
      </g>
      <path
         transform="translate(16.01875,352.6332)"
         sodipodi:ry="17.716553"
         sodipodi:rx="17.716522"
         sodipodi:cy="549.21259"
         sodipodi:cx="460.62991"
         d="m 478.34644,549.21259 c 0,9.78458 -7.93196,17.71655 -17.71653,17.71655 -9.78456,0 -17.71652,-7.93197 -17.71652,-17.71655 0,-9.78459 7.93196,-17.71656 17.71652,-17.71656 9.78457,0 17.71653,7.93197 17.71653,17.71656 z"
         id="path981"
         style="font-size:12px;fill:#ffffff;fill-rule:evenodd;stroke:#000000;stroke-width:1pt"
         sodipodi:type="arc" />
      <path
         transform="translate(-1.697808,312.1081)"
         sodipodi:ry="17.716553"
         sodipodi:rx="17.716522"
         sodipodi:cy="549.21259"
         sodipodi:cx="460.62991"
         d="m 478.34644,549.21259 c 0,9.78458 -7.93196,17.71655 -17.71653,17.71655 -9.78456,0 -17.71652,-7.93197 -17.71652,-17.71655 0,-9.78459 7.93196,-17.71656 17.71652,-17.71656 9.78457,0 17.71653,7.93197 17.71653,17.71656 z"
         id="path982"
         style="font-size:12px;fill:#ffffff;fill-rule:evenodd;stroke:#000000;stroke-width:1pt"
         sodipodi:type="arc" />
      <path
         transform="translate(-10.92751,270.84)"
         sodipodi:ry="17.716553"
         sodipodi:rx="17.716522"
         sodipodi:cy="549.21259"
         sodipodi:cx="460.62991"
         d="m 478.34644,549.21259 c 0,9.78458 -7.93196,17.71655 -17.71653,17.71655 -9.78456,0 -17.71652,-7.93197 -17.71652,-17.71655 0,-9.78459 7.93196,-17.71656 17.71652,-17.71656 9.78457,0 17.71653,7.93197 17.71653,17.71656 z"
         id="path983"
         style="font-size:12px;fill:#ffffff;fill-rule:evenodd;stroke:#000000;stroke-width:1pt"
         sodipodi:type="arc" />
      <path
         transform="translate(-17.71698,226.7086)"
         sodipodi:ry="17.716553"
         sodipodi:rx="17.716522"
         sodipodi:cy="549.21259"
         sodipodi:cx="460.62991"
         d="m 478.34644,549.21259 c 0,9.78458 -7.93196,17.71655 -17.71653,17.71655 -9.78456,0 -17.71652,-7.93197 -17.71652,-17.71655 0,-9.78459 7.93196,-17.71656 17.71652,-17.71656 9.78457,0 17.71653,7.93197 17.71653,17.71656 z"
         id="path984"
         style="font-size:12px;fill:#ffffff;fill-rule:evenodd;stroke:#000000;stroke-width:1pt"
         sodipodi:type="arc" />
      <path
         transform="translate(-16.01963,178.8626)"
         sodipodi:ry="17.716553"
         sodipodi:rx="17.716522"
         sodipodi:cy="549.21259"
         sodipodi:cx="460.62991"
         d="m 478.34644,549.21259 c 0,9.78458 -7.93196,17.71655 -17.71653,17.71655 -9.78456,0 -17.71652,-7.93197 -17.71652,-17.71655 0,-9.78459 7.93196,-17.71656 17.71652,-17.71656 9.78457,0 17.71653,7.93197 17.71653,17.71656 z"
         id="path985"
         style="font-size:12px;fill:#ffffff;fill-rule:evenodd;stroke:#000000;stroke-width:1pt"
         sodipodi:type="arc" />
      <path
         transform="translate(-0.954862,133.6735)"
         sodipodi:ry="17.716553"
         sodipodi:rx="17.716522"
         sodipodi:cy="549.21259"
         sodipodi:cx="460.62991"
         d="m 478.34644,549.21259 c 0,9.78458 -7.93196,17.71655 -17.71653,17.71655 -9.78456,0 -17.71652,-7.93197 -17.71652,-17.71655 0,-9.78459 7.93196,-17.71656 17.71652,-17.71656 9.78457,0 17.71653,7.93197 17.71653,17.71656 z"
         id="path987"
         style="font-size:12px;fill:#ffffff;fill-rule:evenodd;stroke:#000000;stroke-width:1pt"
         sodipodi:type="arc" />
      <path
         transform="translate(31.29501,98.02881)"
         sodipodi:ry="17.716553"
         sodipodi:rx="17.716522"
         sodipodi:cy="549.21259"
         sodipodi:cx="460.62991"
         d="m 478.34644,549.21259 c 0,9.78458 -7.93196,17.71655 -17.71653,17.71655 -9.78456,0 -17.71652,-7.93197 -17.71652,-17.71655 0,-9.78459 7.93196,-17.71656 17.71652,-17.71656 9.78457,0 17.71653,7.93197 17.71653,17.71656 z"
         id="path988"
         style="font-size:12px;fill:#ffffff;fill-rule:evenodd;stroke:#000000;stroke-width:1pt"
         sodipodi:type="arc" />
      <path
         transform="translate(75.4264,74.26569)"
         sodipodi:ry="17.716553"
         sodipodi:rx="17.716522"
         sodipodi:cy="549.21259"
         sodipodi:cx="460.62991"
         d="m 478.34644,549.21259 c 0,9.78458 -7.93196,17.71655 -17.71653,17.71655 -9.78456,0 -17.71652,-7.93197 -17.71652,-17.71655 0,-9.78459 7.93196,-17.71656 17.71652,-17.71656 9.78457,0 17.71653,7.93197 17.71653,17.71656 z"
         id="path989"
         style="font-size:12px;fill:#ffffff;fill-rule:evenodd;stroke:#000000;stroke-width:1pt"
         sodipodi:type="arc" />
      <path
         transform="translate(119.5578,70.87091)"
         sodipodi:ry="17.716553"
         sodipodi:rx="17.716522"
         sodipodi:cy="549.21259"
         sodipodi:cx="460.62991"
         d="m 478.34644,549.21259 c 0,9.78458 -7.93196,17.71655 -17.71653,17.71655 -9.78456,0 -17.71652,-7.93197 -17.71652,-17.71655 0,-9.78459 7.93196,-17.71656 17.71652,-17.71656 9.78457,0 17.71653,7.93197 17.71653,17.71656 z"
         id="path990"
         style="font-size:12px;fill:#ffffff;fill-rule:evenodd;stroke:#000000;stroke-width:1pt"
         sodipodi:type="arc" />
      <path
         transform="translate(167.0839,72.5683)"
         sodipodi:ry="17.716553"
         sodipodi:rx="17.716522"
         sodipodi:cy="549.21259"
         sodipodi:cx="460.62991"
         d="m 478.34644,549.21259 c 0,9.78458 -7.93196,17.71655 -17.71653,17.71655 -9.78456,0 -17.71652,-7.93197 -17.71652,-17.71655 0,-9.78459 7.93196,-17.71656 17.71652,-17.71656 9.78457,0 17.71653,7.93197 17.71653,17.71656 z"
         id="path991"
         style="font-size:12px;fill:#ffffff;fill-rule:evenodd;stroke:#000000;stroke-width:1pt"
         sodipodi:type="arc" />
      <path
         transform="translate(214.61,79.35779)"
         sodipodi:ry="17.716553"
         sodipodi:rx="17.716522"
         sodipodi:cy="549.21259"
         sodipodi:cx="460.62991"
         d="m 478.34644,549.21259 c 0,9.78458 -7.93196,17.71655 -17.71653,17.71655 -9.78456,0 -17.71652,-7.93197 -17.71652,-17.71655 0,-9.78459 7.93196,-17.71656 17.71652,-17.71656 9.78457,0 17.71653,7.93197 17.71653,17.71656 z"
         id="path992"
         style="font-size:12px;fill:#ffffff;fill-rule:evenodd;stroke:#000000;stroke-width:1pt"
         sodipodi:type="arc" />
      <path
         transform="translate(262.1362,86.14731)"
         sodipodi:ry="17.716553"
         sodipodi:rx="17.716522"
         sodipodi:cy="549.21259"
         sodipodi:cx="460.62991"
         d="m 478.34644,549.21259 c 0,9.78458 -7.93196,17.71655 -17.71653,17.71655 -9.78456,0 -17.71652,-7.93197 -17.71652,-17.71655 0,-9.78459 7.93196,-17.71656 17.71652,-17.71656 9.78457,0 17.71653,7.93197 17.71653,17.71656 z"
         id="path993"
         style="font-size:12px;fill:#ffffff;fill-rule:evenodd;stroke:#000000;stroke-width:1pt"
         sodipodi:type="arc" />
      <path
         transform="translate(313.0571,94.63419)"
         sodipodi:ry="17.716553"
         sodipodi:rx="17.716522"
         sodipodi:cy="549.21259"
         sodipodi:cx="460.62991"
         d="m 478.34644,549.21259 c 0,9.78458 -7.93196,17.71655 -17.71653,17.71655 -9.78456,0 -17.71652,-7.93197 -17.71652,-17.71655 0,-9.78459 7.93196,-17.71656 17.71652,-17.71656 9.78457,0 17.71653,7.93197 17.71653,17.71656 z"
         id="path994"
         style="font-size:12px;fill:#ffffff;fill-rule:evenodd;stroke:#000000;stroke-width:1pt"
         sodipodi:type="arc" />
      <path
         transform="translate(357.1885,106.5157)"
         sodipodi:ry="17.716553"
         sodipodi:rx="17.716522"
         sodipodi:cy="549.21259"
         sodipodi:cx="460.62991"
         d="m 478.34644,549.21259 c 0,9.78458 -7.93196,17.71655 -17.71653,17.71655 -9.78456,0 -17.71652,-7.93197 -17.71652,-17.71655 0,-9.78459 7.93196,-17.71656 17.71652,-17.71656 9.78457,0 17.71653,7.93197 17.71653,17.71656 z"
         id="path995"
         style="font-size:12px;fill:#ffffff;fill-rule:evenodd;stroke:#000000;stroke-width:1pt"
         sodipodi:type="arc" />
      <path
         transform="translate(41.47918,388.2778)"
         sodipodi:ry="17.716553"
         sodipodi:rx="17.716522"
         sodipodi:cy="549.21259"
         sodipodi:cx="460.62991"
         d="m 478.34644,549.21259 c 0,9.78458 -7.93196,17.71655 -17.71653,17.71655 -9.78456,0 -17.71652,-7.93197 -17.71652,-17.71655 0,-9.78459 7.93196,-17.71656 17.71652,-17.71656 9.78457,0 17.71653,7.93197 17.71653,17.71656 z"
         id="path986"
         style="font-size:12px;fill:#ffffff;fill-rule:evenodd;stroke:#000000;stroke-width:1pt"
         sodipodi:type="arc" />
      <path
         transform="translate(-4.577637e-4,354.3306)"
         sodipodi:nodetypes="cssccsscccc"
         id="path979"
         d="m 531.496,584.646 c 0,0 -67.982,-52.097 -69.813,-177.166 -1.053,-71.929 34.38,-124.015 122.963,-124.015 124.015,0 301.181,53.149 301.181,53.149 l 0,17.717 c 0,0 -141.732,-53.15 -301.181,-53.15 -70.866,0 -106.3,52.087 -106.3,105.236 0,88.583 70.867,178.229 70.867,178.229 l 0,141.732 -17.717,0 0,-141.732 z"
         style="font-size:12px;fill:#fff100;fill-rule:evenodd;stroke:#000000;stroke-width:1pt"
         inkscape:connector-curvature="0" />
      <path
         transform="matrix(0.333331,0,0,0.380953,242.1275,802.3058)"
         sodipodi:nodetypes="ccsccsccscscscsc"
         id="path960"
         d="m 1240.16,531.496 c 0,0 15.35,-35.433 70.86,-35.433 37.79,0 70.87,35.433 70.87,70.866 l 0,70.866 35.43,0 0,-70.866 c 0,-35.47 35.44,-70.866 70.87,-70.866 53.15,0 70.87,35.433 70.87,35.433 0,0 0,-106.299 -70.87,-106.299 -53.15,0 -70.87,35.433 -70.87,35.433 0,0 17.72,-53.15 17.72,-106.299 0,-53.15 -35.43,-88.583 -35.43,-88.583 0,6.79 -35.44,35.433 -35.44,88.583 0,53.149 17.72,106.299 17.72,106.299 0,0 -17.72,-35.433 -70.87,-35.433 -70.86,0 -70.86,106.299 -70.86,106.299 z"
         style="fill:#fff100;fill-opacity:1;fill-rule:evenodd;stroke:#000000;stroke-width:2.9914701;stroke-linecap:butt;stroke-linejoin:miter;stroke-opacity:1;stroke-dasharray:none"
         inkscape:connector-curvature="0" />
      <path
         transform="matrix(0.333331,0,0,0.380953,596.4582,802.3058)"
         sodipodi:nodetypes="ccsccsccscscscsc"
         id="path959"
         d="m 1240.16,531.496 c 0,0 15.35,-35.433 70.86,-35.433 37.79,0 70.87,35.433 70.87,70.866 l 0,70.866 35.43,0 0,-70.866 c 0,-35.47 35.44,-70.866 70.87,-70.866 53.15,0 70.87,35.433 70.87,35.433 0,0 0,-106.299 -70.87,-106.299 -53.15,0 -70.87,35.433 -70.87,35.433 0,0 17.72,-53.15 17.72,-106.299 0,-53.15 -35.43,-88.583 -35.43,-88.583 0,6.79 -35.44,35.433 -35.44,88.583 0,53.149 17.72,106.299 17.72,106.299 0,0 -17.72,-35.433 -70.87,-35.433 -70.86,0 -70.86,106.299 -70.86,106.299 z"
         style="fill:#fff100;fill-opacity:1;fill-rule:evenodd;stroke:#000000;stroke-width:2.9914701;stroke-linecap:butt;stroke-linejoin:miter;stroke-opacity:1;stroke-dasharray:none"
         inkscape:connector-curvature="0" />
      <path
         transform="translate(-4.577637e-4,354.3306)"
         sodipodi:nodetypes="ccscscscsccc"
         id="path945"
         d="m 531.496,832.677 0,-159.449 c 0,0 35.433,53.15 88.583,53.15 43.489,0 88.582,-70.866 88.582,-70.866 0,0 41.515,53.149 88.583,53.149 42.021,0 88.516,-68.572 88.516,-68.572 0,0 43.207,68.572 88.649,68.572 45.441,0 88.581,-53.149 88.581,-53.149 0,0 46.29,70.866 106.3,70.866 53.15,0 70.87,-53.15 70.87,-53.15 l 0,159.449 -708.664,0 z"
         style="fill:#fff100;fill-opacity:1;fill-rule:evenodd;stroke:#000000;stroke-width:1pt;stroke-linecap:butt;stroke-linejoin:miter;stroke-opacity:1"
         inkscape:connector-curvature="0" />
      <path
         transform="translate(-177.1657,354.3308)"
         sodipodi:nodetypes="cccc"
         id="path952"
         d="m 708.661,832.677 0,-124.016 c 0,0 106.3,35.433 106.3,124.016 l -106.3,0 z"
         style="fill:#fff100;fill-opacity:1;fill-rule:evenodd;stroke:#000000;stroke-width:1pt;stroke-linecap:butt;stroke-linejoin:miter;stroke-opacity:1"
         inkscape:connector-curvature="0" />
      <path
         transform="matrix(-1,0,0,1,1948.818,354.3311)"
         sodipodi:nodetypes="cccc"
         id="path953"
         d="m 708.661,832.677 0,-124.016 c 0,0 106.3,35.433 106.3,124.016 l -106.3,0 z"
         style="fill:#fff100;fill-opacity:1;fill-rule:evenodd;stroke:#000000;stroke-width:1pt;stroke-linecap:butt;stroke-linejoin:miter;stroke-opacity:1"
         inkscape:connector-curvature="0" />
      <path
         transform="translate(-4.577637e-4,354.3306)"
         sodipodi:nodetypes="ccss"
         id="path949"
         d="m 602.362,832.677 c 0,-88.583 106.366,-144.599 106.366,-144.599 0,0 106.233,56.016 106.233,144.599 0,0 -212.599,0 -212.599,0 z"
         style="fill:#fff100;fill-opacity:1;fill-rule:evenodd;stroke:#000000;stroke-width:1pt;stroke-linecap:butt;stroke-linejoin:miter;stroke-opacity:1"
         inkscape:connector-curvature="0" />
      <path
         transform="translate(354.3301,354.3308)"
         sodipodi:nodetypes="ccss"
         id="path950"
         d="m 602.362,832.677 c 0,-88.583 106.366,-144.599 106.366,-144.599 0,0 106.233,56.016 106.233,144.599 0,0 -212.599,0 -212.599,0 z"
         style="fill:#fff100;fill-opacity:1;fill-rule:evenodd;stroke:#000000;stroke-width:1pt;stroke-linecap:butt;stroke-linejoin:miter;stroke-opacity:1"
         inkscape:connector-curvature="0" />
      <path
         transform="translate(177.165,339.481)"
         sodipodi:nodetypes="ccss"
         id="path951"
         d="m 584.646,847.527 c 0,-88.583 124.082,-159.449 124.082,-159.449 0,0 123.949,70.866 123.949,159.449 0,0 -248.031,0 -248.031,0 z"
         style="fill:#fff100;fill-opacity:1;fill-rule:evenodd;stroke:#000000;stroke-width:1pt;stroke-linecap:butt;stroke-linejoin:miter;stroke-opacity:1"
         inkscape:connector-curvature="0" />
      <path
         transform="matrix(0.988765,0,0,1,-3.385169,531.4957)"
         sodipodi:nodetypes="ccsscss"
         id="path939"
         d="m 1275.59,655.512 c -35.43,-17.716 -166.02,-35.433 -376.275,-35.433 -210.26,0 -350.101,17.717 -385.534,35.433 -35.434,17.717 -35.434,53.149 -10e-4,70.866 35.433,17.716 175.275,35.433 385.535,35.433 210.255,0 340.845,-17.716 376.275,-35.433 35.43,-17.716 35.43,-53.149 0,-70.866 z"
         style="font-size:12px;fill:#ffffff;fill-opacity:1;fill-rule:evenodd;stroke:#000000;stroke-width:1pt;stroke-opacity:1"
         inkscape:connector-curvature="0" />
      <path
         sodipodi:nodetypes="ccccc"
         id="path941"
         d="m 1294.67,703.351 c 0,58.461 -317.394,58.461 -381.587,58.461 -69.363,0 -381.587,15.842 -381.587,-58.461 0,-58.461 314.809,-58.46 381.587,-58.461 66.778,10e-4 381.587,11.883 381.587,58.461 z"
         style="font-size:12px;fill:#808080;fill-rule:evenodd;stroke-width:1pt"
         transform="matrix(0.928571,0,0,0.606101,37.96421,831.5723)"
         inkscape:connector-curvature="0" />
      <path
         transform="translate(-4.577637e-4,354.3306)"
         sodipodi:ry="20.967163"
         sodipodi:rx="17.716553"
         sodipodi:cy="776.27692"
         sodipodi:cx="549.21259"
         d="m 566.92914,776.27692 c 0,11.57984 -7.93197,20.96716 -17.71655,20.96716 -9.78459,0 -17.71656,-9.38732 -17.71656,-20.96716 0,-11.57985 7.93197,-20.96717 17.71656,-20.96717 9.78458,0 17.71655,9.38732 17.71655,20.96717 z"
         id="path954"
         style="fill:#cc0000;fill-opacity:1;fill-rule:evenodd;stroke:none"
         sodipodi:type="arc" />
      <path
         transform="translate(673.2278,354.3306)"
         sodipodi:ry="20.967163"
         sodipodi:rx="17.716553"
         sodipodi:cy="776.27692"
         sodipodi:cx="549.21259"
         d="m 566.92914,776.27692 c 0,11.57984 -7.93197,20.96716 -17.71655,20.96716 -9.78459,0 -17.71656,-9.38732 -17.71656,-20.96716 0,-11.57985 7.93197,-20.96717 17.71656,-20.96717 9.78458,0 17.71655,9.38732 17.71655,20.96717 z"
         id="path955"
         style="fill:#cc0000;fill-opacity:1;fill-rule:evenodd;stroke:none"
         sodipodi:type="arc" />
      <path
         transform="matrix(2.000002,0,0,1,-212.6001,343.1154)"
         sodipodi:ry="20.967163"
         sodipodi:rx="17.716553"
         sodipodi:cy="776.27692"
         sodipodi:cx="549.21259"
         d="m 566.92914,776.27692 c 0,11.57984 -7.93197,20.96716 -17.71655,20.96716 -9.78459,0 -17.71656,-9.38732 -17.71656,-20.96716 0,-11.57985 7.93197,-20.96717 17.71656,-20.96717 9.78458,0 17.71655,9.38732 17.71655,20.96717 z"
         id="path956"
         style="fill:#000000;fill-opacity:1;fill-rule:evenodd;stroke:none"
         sodipodi:type="arc" />
      <path
         transform="matrix(1.500003,0,0,1,240.8284,343.1154)"
         sodipodi:ry="20.967163"
         sodipodi:rx="17.716553"
         sodipodi:cy="776.27692"
         sodipodi:cx="549.21259"
         d="m 566.92914,776.27692 c 0,11.57984 -7.93197,20.96716 -17.71655,20.96716 -9.78459,0 -17.71656,-9.38732 -17.71656,-20.96716 0,-11.57985 7.93197,-20.96717 17.71656,-20.96717 9.78458,0 17.71655,9.38732 17.71655,20.96717 z"
         id="path957"
         style="fill:#006300;fill-opacity:1;fill-rule:evenodd;stroke:none"
         sodipodi:type="arc" />
      <path
         transform="matrix(1.500003,0,0,1,-124.0178,343.1154)"
         sodipodi:ry="20.967163"
         sodipodi:rx="17.716553"
         sodipodi:cy="776.27692"
         sodipodi:cx="549.21259"
         d="m 566.92914,776.27692 c 0,11.57984 -7.93197,20.96716 -17.71655,20.96716 -9.78459,0 -17.71656,-9.38732 -17.71656,-20.96716 0,-11.57985 7.93197,-20.96717 17.71656,-20.96717 9.78458,0 17.71655,9.38732 17.71655,20.96717 z"
         id="path958"
         style="fill:#006300;fill-opacity:1;fill-rule:evenodd;stroke:none"
         sodipodi:type="arc" />
      <path
         transform="matrix(0.571411,0,0,0.571429,96.19884,713.7231)"
         sodipodi:nodetypes="ccccccccccccccccccccc"
         id="path973"
         d="m 1257.87,496.063 c 0,0 35.44,-53.15 70.87,-53.15 l 35.43,0 0,35.433 c 0,53.15 -53.15,70.867 -53.15,70.867 l 141.74,0 c 0,0 -53.15,-17.717 -53.15,-70.867 l 0,-35.433 35.43,0 c 35.43,0 70.87,53.15 70.87,53.15 l 0,-141.732 c 0,0 -35.44,53.15 -70.87,53.15 l -35.43,0 0,-35.433 c 0,-53.15 53.15,-70.867 53.15,-70.867 l -141.74,0 c 0,0 53.15,17.717 53.15,70.867 l 0,35.433 -35.43,0 c -35.43,0 -70.87,-53.15 -70.87,-53.15 l 0,141.732 z"
         style="font-size:12px;fill:#fff100;fill-opacity:1;fill-rule:evenodd;stroke:#000000;stroke-width:2.18753004;stroke-dasharray:none"
         inkscape:connector-curvature="0" />
      <path
         transform="matrix(0.285706,0,0,0.500001,136.6813,788.3856)"
         sodipodi:nodetypes="ccccccccccccc"
         id="path974"
         d="m 1381.89,549.212 70.87,10e-4 c 0,0 -53.15,-17.717 -53.15,-70.867 l 0,-35.433 35.43,0 c 35.43,0 70.87,53.15 70.87,53.15 l 0,-141.732 c 0,0 -35.44,53.15 -70.87,53.15 l -35.43,0 0,-35.433 c 0,-53.15 53.15,-70.867 53.15,-70.867 l -70.87,0 c 0,0 0,248.031 0,248.031 z"
         style="font-size:12px;fill:#fff100;fill-opacity:1;fill-rule:evenodd;stroke:#000000;stroke-width:3.30723;stroke-dasharray:none"
         inkscape:connector-curvature="0" />
      <path
         transform="matrix(-0.285706,0,0,0.500001,1634.972,788.3856)"
         sodipodi:nodetypes="ccccccccccccc"
         id="path975"
         d="m 1381.89,549.212 70.87,10e-4 c 0,0 -53.15,-17.717 -53.15,-70.867 l 0,-35.433 35.43,0 c 35.43,0 70.87,53.15 70.87,53.15 l 0,-141.732 c 0,0 -35.44,53.15 -70.87,53.15 l -35.43,0 0,-35.433 c 0,-53.15 53.15,-70.867 53.15,-70.867 l -70.87,0 c 0,0 0,248.031 0,248.031 z"
         style="font-size:12px;fill:#fff100;fill-opacity:1;fill-rule:evenodd;stroke:#000000;stroke-width:3.30723;stroke-dasharray:none"
         inkscape:connector-curvature="0" />
      <path
         transform="translate(-4.577637e-4,354.3306)"
         sodipodi:ry="17.716522"
         sodipodi:rx="17.716553"
         sodipodi:cy="602.36218"
         sodipodi:cx="885.82678"
         d="m 903.54333,602.36218 c 0,9.78457 -7.93197,17.71652 -17.71655,17.71652 -9.78458,0 -17.71655,-7.93195 -17.71655,-17.71652 0,-9.78456 7.93197,-17.71652 17.71655,-17.71652 9.78458,0 17.71655,7.93196 17.71655,17.71652 z"
         id="path976"
         style="fill:#ffffff;fill-opacity:1;fill-rule:evenodd;stroke:#000000;stroke-width:1pt;stroke-linecap:butt;stroke-linejoin:miter;stroke-opacity:1"
         sodipodi:type="arc" />
      <path
         transform="matrix(0.571409,0,0,0.571428,96.20208,341.6762)"
         sodipodi:nodetypes="ccccccccccccccccccccc"
         id="path977"
         d="m 1257.87,496.063 c 0,0 35.44,-53.15 70.87,-53.15 l 35.43,0 0,35.433 c 0,53.15 -53.15,70.867 -53.15,70.867 l 141.74,0 c 0,0 -53.15,-17.717 -53.15,-70.867 l 0,-35.433 35.43,0 c 35.43,0 70.87,53.15 70.87,53.15 l 0,-141.732 c 0,0 -35.44,53.15 -70.87,53.15 l -35.43,0 0,-35.433 c 0,-53.15 53.15,-70.867 53.15,-70.867 l -141.74,0 c 0,0 53.15,17.717 53.15,70.867 l 0,35.433 -35.43,0 c -35.43,0 -70.87,-53.15 -70.87,-53.15 l 0,141.732 z"
         style="font-size:12px;fill:#fff100;fill-opacity:1;fill-rule:evenodd;stroke:#000000;stroke-width:2.18753004;stroke-dasharray:none"
         inkscape:connector-curvature="0" />
      <path
         transform="translate(1.696853,-14.74538)"
         sodipodi:ry="17.716522"
         sodipodi:rx="17.716553"
         sodipodi:cy="602.36218"
         sodipodi:cx="885.82678"
         d="m 903.54333,602.36218 c 0,9.78457 -7.93197,17.71652 -17.71655,17.71652 -9.78458,0 -17.71655,-7.93195 -17.71655,-17.71652 0,-9.78456 7.93197,-17.71652 17.71655,-17.71652 9.78458,0 17.71655,7.93196 17.71655,17.71652 z"
         id="path978"
         style="fill:#ffffff;fill-opacity:1;fill-rule:evenodd;stroke:#000000;stroke-width:1pt;stroke-linecap:butt;stroke-linejoin:miter;stroke-opacity:1"
         sodipodi:type="arc" />
      <rect
         y="655.5116"
         x="850.39325"
         height="53.149654"
         width="70.86615"
         id="rect996"
         style="font-size:12px;fill:#fff100;fill-opacity:1;fill-rule:evenodd;stroke:#000000;stroke-width:1pt;stroke-opacity:1" />
      <rect
         y="683.29675"
         x="850.39368"
         height="202.53003"
         width="70.86615"
         id="rect1033"
         style="font-size:12px;fill:#fff100;fill-opacity:1;fill-rule:evenodd;stroke:#000000;stroke-width:1pt;stroke-opacity:1" />
      <path
         transform="translate(425.1969,301.1811)"
         sodipodi:ry="17.716553"
         sodipodi:rx="17.716522"
         sodipodi:cy="549.21259"
         sodipodi:cx="460.62991"
         d="m 478.34644,549.21259 c 0,9.78458 -7.93196,17.71655 -17.71653,17.71655 -9.78456,0 -17.71652,-7.93197 -17.71652,-17.71655 0,-9.78459 7.93196,-17.71656 17.71652,-17.71656 9.78457,0 17.71653,7.93197 17.71653,17.71656 z"
         id="path1050"
         style="font-size:12px;fill:#ffffff;fill-rule:evenodd;stroke:#000000;stroke-width:1pt"
         sodipodi:type="arc" />
      <path
         transform="translate(425.1969,255.3523)"
         sodipodi:ry="17.716553"
         sodipodi:rx="17.716522"
         sodipodi:cy="549.21259"
         sodipodi:cx="460.62991"
         d="m 478.34644,549.21259 c 0,9.78458 -7.93196,17.71655 -17.71653,17.71655 -9.78456,0 -17.71652,-7.93197 -17.71652,-17.71655 0,-9.78459 7.93196,-17.71656 17.71652,-17.71656 9.78457,0 17.71653,7.93197 17.71653,17.71656 z"
         id="path1051"
         style="font-size:12px;fill:#ffffff;fill-rule:evenodd;stroke:#000000;stroke-width:1pt"
         sodipodi:type="arc" />
      <path
         transform="translate(425.1968,212.5984)"
         sodipodi:ry="17.716553"
         sodipodi:rx="17.716522"
         sodipodi:cy="549.21259"
         sodipodi:cx="460.62991"
         d="m 478.34644,549.21259 c 0,9.78458 -7.93196,17.71655 -17.71653,17.71655 -9.78456,0 -17.71652,-7.93197 -17.71652,-17.71655 0,-9.78459 7.93196,-17.71656 17.71652,-17.71656 9.78457,0 17.71653,7.93197 17.71653,17.71656 z"
         id="path1052"
         style="font-size:12px;fill:#ffffff;fill-rule:evenodd;stroke:#000000;stroke-width:1pt"
         sodipodi:type="arc" />
      <path
         transform="translate(425.1968,168.467)"
         sodipodi:ry="17.716553"
         sodipodi:rx="17.716522"
         sodipodi:cy="549.21259"
         sodipodi:cx="460.62991"
         d="m 478.34644,549.21259 c 0,9.78458 -7.93196,17.71655 -17.71653,17.71655 -9.78456,0 -17.71652,-7.93197 -17.71652,-17.71655 0,-9.78459 7.93196,-17.71656 17.71652,-17.71656 9.78457,0 17.71653,7.93197 17.71653,17.71656 z"
         id="path1053"
         style="font-size:12px;fill:#ffffff;fill-rule:evenodd;stroke:#000000;stroke-width:1pt"
         sodipodi:type="arc" />
      <path
         transform="translate(308.953,-14.40248)"
         sodipodi:ry="14.402588"
         sodipodi:rx="36.0065"
         sodipodi:cy="1201.7905"
         sodipodi:cx="578.50452"
         d="m 614.51102,1201.7905 c 0,7.9544 -16.12066,14.4026 -36.0065,14.4026 -19.88584,0 -36.0065,-6.4482 -36.0065,-14.4026 0,-7.9543 16.12066,-14.4026 36.0065,-14.4026 19.88584,0 36.0065,6.4483 36.0065,14.4026 z"
         id="path1055"
         style="fill:#000000;fill-opacity:1;fill-rule:evenodd;stroke:none"
         sodipodi:type="arc" />
      <path
         transform="matrix(0.987729,0.246062,-0.250437,0.685558,943.7671,247.4512)"
         sodipodi:ry="14.402588"
         sodipodi:rx="36.0065"
         sodipodi:cy="1201.7905"
         sodipodi:cx="578.50452"
         d="m 614.51102,1201.7905 c 0,7.9544 -16.12066,14.4026 -36.0065,14.4026 -19.88584,0 -36.0065,-6.4482 -36.0065,-14.4026 0,-7.9543 16.12066,-14.4026 36.0065,-14.4026 19.88584,0 36.0065,6.4483 36.0065,14.4026 z"
         id="path1056"
         style="fill:#000000;fill-opacity:1;fill-rule:evenodd;stroke:none"
         sodipodi:type="arc" />
      <path
         transform="matrix(1.019037,0.07733925,-0.09909519,0.881947,606.2868,91.21687)"
         sodipodi:ry="14.402588"
         sodipodi:rx="36.0065"
         sodipodi:cy="1201.7905"
         sodipodi:cx="578.50452"
         d="m 614.51102,1201.7905 c 0,7.9544 -16.12066,14.4026 -36.0065,14.4026 -19.88584,0 -36.0065,-6.4482 -36.0065,-14.4026 0,-7.9543 16.12066,-14.4026 36.0065,-14.4026 19.88584,0 36.0065,6.4483 36.0065,14.4026 z"
         id="path1057"
         style="fill:#000000;fill-opacity:1;fill-rule:evenodd;stroke:none"
         sodipodi:type="arc" />
      <path
         transform="matrix(-0.987729,0.246062,0.250437,0.685558,819.9924,247.4512)"
         sodipodi:ry="14.402588"
         sodipodi:rx="36.0065"
         sodipodi:cy="1201.7905"
         sodipodi:cx="578.50452"
         d="m 614.51102,1201.7905 c 0,7.9544 -16.12066,14.4026 -36.0065,14.4026 -19.88584,0 -36.0065,-6.4482 -36.0065,-14.4026 0,-7.9543 16.12066,-14.4026 36.0065,-14.4026 19.88584,0 36.0065,6.4483 36.0065,14.4026 z"
         id="path1058"
         style="fill:#000000;fill-opacity:1;fill-rule:evenodd;stroke:none"
         sodipodi:type="arc" />
      <path
         transform="matrix(-1.019037,0.07733925,0.09909519,0.881947,1164.261,87.82217)"
         sodipodi:ry="14.402588"
         sodipodi:rx="36.0065"
         sodipodi:cy="1201.7905"
         sodipodi:cx="578.50452"
         d="m 614.51102,1201.7905 c 0,7.9544 -16.12066,14.4026 -36.0065,14.4026 -19.88584,0 -36.0065,-6.4482 -36.0065,-14.4026 0,-7.9543 16.12066,-14.4026 36.0065,-14.4026 19.88584,0 36.0065,6.4483 36.0065,14.4026 z"
         id="path1059"
         style="fill:#000000;fill-opacity:1;fill-rule:evenodd;stroke:none"
         sodipodi:type="arc" />
    </g>
  </g>
</svg>
