<?xml version="1.0" encoding="UTF-8" standalone="no"?>
<!-- Created with Sodipodi ("http://www.sodipodi.com/") -->

<svg
   xmlns:dc="http://purl.org/dc/elements/1.1/"
   xmlns:cc="http://creativecommons.org/ns#"
   xmlns:rdf="http://www.w3.org/1999/02/22-rdf-syntax-ns#"
   xmlns:svg="http://www.w3.org/2000/svg"
   xmlns="http://www.w3.org/2000/svg"
   xmlns:sodipodi="http://sodipodi.sourceforge.net/DTD/sodipodi-0.dtd"
   xmlns:inkscape="http://www.inkscape.org/namespaces/inkscape"
   inkscape:version="0.48.1 r9760"
   version="1.1"
   sodipodi:docname="iq.svg"
   height="480"
   width="640"
   sodipodi:version="0.31pre"
   id="svg378">
  <sodipodi:namedview
     id="base"
     snaptoguides="false"
     showgrid="false"
     inkscape:zoom="0.8727479"
     inkscape:cx="531.49603"
     inkscape:cy="354.33072"
     inkscape:window-width="1280"
     inkscape:window-height="746"
     inkscape:window-x="0"
     inkscape:window-y="24"
     inkscape:window-maximized="1"
     inkscape:current-layer="svg378"
     inkscape:snap-global="false" />
  <metadata
     id="metadata4104">
    <rdf:RDF>
      <cc:Work
         rdf:about="">
        <dc:format>image/svg+xml</dc:format>
        <dc:type
           rdf:resource="http://purl.org/dc/dcmitype/StillImage" />
      </cc:Work>
    </rdf:RDF>
  </metadata>
  <defs
     id="defs380">
    <clipPath
       clipPathUnits="userSpaceOnUse"
       id="clipPath6904">
      <rect
         id="rect6906"
         height="384"
         x="-8.5301269e-07"
         style="fill:#000000;fill-opacity:0.67000002;stroke:none"
         width="512"
         y="64" />
    </clipPath>
  </defs>
  <g
     transform="matrix(1.25,0,0,1.25,1.0662659e-6,-80)"
     id="flag"
     clip-path="url(#clipPath6904)"
     inkscape:label="#g6867">
    <rect
       style="font-size:12px;fill:#ffffff;fill-opacity:1;fill-rule:evenodd;stroke-width:1pt"
       id="rect171"
       x="-8.5301269e-07"
       y="-2.9647826e-09"
       width="512"
       height="512" />
    <rect
       style="font-size:12px;fill:#000000;fill-opacity:1;fill-rule:evenodd;stroke:none"
       id="rect140"
       width="511.99973"
       x="-8.5301269e-07"
       height="170.6665"
       y="341.33322" />
    <rect
       style="font-size:12px;fill:#f30000;fill-opacity:1;fill-rule:evenodd;stroke:none"
       id="rect403"
       width="511.99973"
       x="-8.5301269e-07"
       y="-2.9647826e-09"
       height="170.6665" />
    <polygon
       d="m 566.56441,405.84249 -35.32801,-25.5508 -35.14661,25.89555 13.38329,-41.49457 -35.48903,-25.42425 43.59935,-0.0942 13.21318,-41.6086 13.56258,41.43631 43.65523,-0.29128 -35.21721,25.70331 z"
       inkscape:randomized="0"
       inkscape:rounded="0"
       inkscape:flatsided="false"
       sodipodi:type="star"
       style="font-size:12px;fill:#005623;fill-opacity:1;fill-rule:evenodd;stroke-width:1pt"
       id="polygon141"
       sodipodi:sides="5"
       sodipodi:cx="531.08984"
       sodipodi:cy="357.51486"
       sodipodi:r1="59.950012"
       sodipodi:r2="22.777296"
       sodipodi:arg1="0.937586"
       sodipodi:arg2="1.564362"
       points="566.564,405.842 531.236,380.292 496.09,406.187 509.473,364.693 473.984,339.268 517.583,339.174 530.797,297.566 544.359,339.002 588.014,338.711 552.797,364.414 566.564,405.842 "
       transform="matrix(0.5978024,0,0,0.5978024,148.90432,41.417323)" />
    <path
       inkscape:connector-curvature="0"
       style="font-size:12px;fill:#005623;fill-opacity:1;fill-rule:evenodd;stroke:none"
       d="m 193.23854,233.17083 c 0.217,24.34012 0,39.98759 0,44.98642 -2.60821,3.04221 -5.21583,6.30203 -7.17184,8.90965 -0.8692,-0.65161 -1.0868,-0.65161 -1.0868,-1.95601 0,-1.30381 -0.217,-33.25037 0,-44.98583 3.91202,-1.95601 6.52023,-7.38943 8.25864,-6.95423 z m -8.91025,-0.43461 c 1.95602,-3.25981 4.12902,-6.52022 5.65044,-8.04104 1.5214,0.86921 1.3038,3.25982 1.5214,3.91143 -1.5214,2.17361 -5.21582,5.65042 -6.30263,6.73723 -0.4346,-0.6516 0,-0.4346 -0.86921,-2.60762 z m 10.86626,-27.81814 0,0 c -13.25687,8.69325 -28.25274,19.1249 -33.68557,23.68853 -5.43342,4.56422 -7.38883,7.38943 -7.38883,15.21287 0,7.82404 0.217,16.73429 -0.4346,20.86331 -0.65221,4.12902 -2.60822,8.47563 -7.38944,4.56362 -4.78123,-3.91143 -8.25805,-7.82344 -10.43166,-9.56185 -2.17301,-1.73901 -6.08502,-4.12962 -11.30085,0.4346 -5.21583,4.56363 -29.55595,30.20815 -34.120171,33.03337 -4.563624,2.82521 -5.432829,3.47741 -8.692645,5.21582 6.736635,0.4346 14.343072,0.86921 20.428106,-0.4346 8.04104,-5.86803 17.38648,-19.12489 20.4287,-22.38471 3.04281,-3.25981 6.08503,-10.21406 12.82226,-2.60762 6.73724,7.60644 6.51963,7.82344 9.77945,10.21406 3.26042,2.39061 7.38944,1.95601 10.21465,-2.82522 2.82522,-4.78122 3.04222,-6.95423 4.12902,-14.77827 1.08681,-7.82344 1.73841,-17.60349 3.47742,-21.94951 1.73841,-4.34662 5.21583,-8.69324 11.08326,-12.17066 5.86803,-3.47682 6.95483,-3.69442 8.25864,-4.34602 2.60761,-4.99882 8.91024,-16.73428 11.51785,-19.5595 1.08681,-1.3038 1.30441,-1.95601 1.30441,-2.60822 z m -58.89549,79.1066 c -3.25982,-2.17301 -4.34663,-3.91202 -6.08503,-3.69442 -1.73841,0.2176 -5.43283,5.21583 -7.60644,6.51964 2.82521,2.39061 5.43343,4.56422 7.60644,4.12961 2.1736,-0.43519 3.69442,-5.21583 6.08503,-6.95483 z"
       id="path155" />
    <path
       inkscape:connector-curvature="0"
       style="font-size:12px;fill:#005623;fill-opacity:1;fill-rule:evenodd;stroke:none"
       d="m 411.65043,222.95617 c -4.56362,1.08681 -6.95424,7.17184 -10.86625,11.30086 -0.43461,12.17066 -0.43461,49.98525 -0.43461,54.98348 3.91202,-4.56363 6.30263,-7.17184 9.12785,-8.91025 0.6516,-20.2111 3.04222,-48.46324 2.17301,-57.37409 z m -21.51551,-0.217 c -5.43283,3.47683 -6.73664,6.95424 -11.30086,10.86626 -0.21699,14.56067 0.43461,35.20638 -0.6516,38.03159 -1.08681,2.82521 -3.47742,8.69324 -9.34485,8.04104 -5.86803,-0.65161 -7.60644,-1.73841 -7.60644,-7.82344 0,-6.08503 1.30381,-44.98643 1.30381,-51.28906 -4.56422,2.17361 -8.47564,8.91085 -11.73546,11.73606 0,15.21228 0.65161,34.55417 0.21701,38.6838 -0.4346,4.12902 -2.17301,10.86625 -9.56245,10.64865 -7.38884,-0.217 -11.30085,-3.91202 -11.30085,-8.25804 0,-4.34663 -0.21701,-32.81637 0.21759,-37.8146 -6.51963,4.56363 -21.73251,13.69148 -24.77532,25.42694 -3.04221,11.73545 1.73901,15.21287 6.08503,13.03926 4.34662,-2.17301 6.30263,-4.12902 8.69324,-5.86743 0.65221,7.38884 0.86921,15.42987 8.25805,20.2111 7.38943,4.78123 16.73428,3.04282 20.2117,0.4346 3.47681,-2.60761 4.78122,-4.34662 5.65042,-5.65042 6.51964,4.99823 16.08208,7.60643 22.38471,2.17301 6.30204,-5.43283 9.77946,-10.86626 10.43106,-16.95129 0.6522,-6.08503 3.69501,-37.37998 2.82521,-45.63803 z m -68.23974,29.55595 c -6.51963,3.04282 -9.34484,7.60644 -7.60643,10.43165 1.7384,2.82522 5.21582,-0.4346 7.60643,-1.5214 -0.43461,-4.34602 0,-6.73664 0,-8.91025 z m 41.94361,-46.07262 c -1.5214,4.99821 -2.60762,4.12902 -4.56362,4.34661 -1.95601,0.21701 -3.25982,-1.73901 -4.78123,-3.47742 -1.5214,0.21701 -1.7384,0.65221 -2.82521,1.08681 3.47682,4.99823 6.08503,7.17124 10.21405,6.08503 4.12902,-1.0868 4.34662,-4.78122 4.34662,-6.73723 -0.6522,-0.43461 -0.86921,-0.6522 -2.39061,-1.3038 z m -3.69442,-6.30263 c -1.956,0.65219 -2.39061,1.0868 -3.04281,2.82521 1.08681,2.39061 2.60821,3.69442 4.12961,3.04281 1.52082,-0.6522 1.73841,-3.25982 0.86921,-3.91202 -0.86921,-0.6522 -0.4346,-1.08681 -1.95601,-1.956 z"
       id="path161" />
    <polygon
       d="m 566.56441,405.84249 -35.32801,-25.5508 -35.14661,25.89555 13.38329,-41.49457 -35.48903,-25.42425 43.59935,-0.0942 13.21318,-41.6086 13.56258,41.43631 43.65523,-0.29128 -35.21721,25.70331 z"
       inkscape:randomized="0"
       inkscape:rounded="0"
       inkscape:flatsided="false"
       sodipodi:type="star"
       style="font-size:12px;fill:#005623;fill-opacity:1;fill-rule:evenodd;stroke-width:1pt"
       id="polygon163"
       sodipodi:sides="5"
       sodipodi:cx="531.08984"
       sodipodi:cy="357.51486"
       sodipodi:r1="59.950012"
       sodipodi:r2="22.777296"
       sodipodi:arg1="0.937586"
       sodipodi:arg2="1.564362"
       points="566.564,405.842 531.236,380.292 496.09,406.187 509.473,364.693 473.984,339.268 517.583,339.174 530.797,297.566 544.359,339.002 588.014,338.711 552.797,364.414 566.564,405.842 "
       transform="matrix(0.5978024,0,0,0.5978024,-276.184,41.417323)" />
    <polygon
       transform="matrix(0.5978024,0,0,0.5978024,-64.074742,41.417338)"
       d="m 566.56441,405.84249 -35.32801,-25.5508 -35.14661,25.89555 13.38329,-41.49457 -35.48903,-25.42425 43.59935,-0.0942 13.21318,-41.6086 13.56258,41.43631 43.65523,-0.29128 -35.21721,25.70331 z"
       inkscape:randomized="0"
       inkscape:rounded="0"
       inkscape:flatsided="false"
       sodipodi:type="star"
       style="font-size:12px;fill:#005623;fill-opacity:1;fill-rule:evenodd;stroke-width:1pt"
       id="polygon164"
       sodipodi:sides="5"
       sodipodi:cx="531.08984"
       sodipodi:cy="357.51486"
       sodipodi:r1="59.950012"
       sodipodi:r2="22.777296"
       sodipodi:arg1="0.937586"
       sodipodi:arg2="1.564362"
       points="566.564,405.842 531.236,380.292 496.09,406.187 509.473,364.693 473.984,339.268 517.583,339.174 530.797,297.566 544.359,339.002 588.014,338.711 552.797,364.414 566.564,405.842 " />
  </g>
</svg>
