<?xml version="1.0" encoding="UTF-8" standalone="no"?>
<!-- Created with Sodipodi ("http://www.sodipodi.com/") -->

<svg
   xmlns:dc="http://purl.org/dc/elements/1.1/"
   xmlns:cc="http://creativecommons.org/ns#"
   xmlns:rdf="http://www.w3.org/1999/02/22-rdf-syntax-ns#"
   xmlns:svg="http://www.w3.org/2000/svg"
   xmlns="http://www.w3.org/2000/svg"
   xmlns:xlink="http://www.w3.org/1999/xlink"
   xmlns:sodipodi="http://sodipodi.sourceforge.net/DTD/sodipodi-0.dtd"
   xmlns:inkscape="http://www.inkscape.org/namespaces/inkscape"
   inkscape:version="0.48.1 r9760"
   version="1.1"
   sodipodi:docname="ki.svg"
   height="480"
   width="640"
   sodipodi:version="0.32"
   id="svg570">
  <sodipodi:namedview
     id="base"
     showgrid="false"
     inkscape:zoom="1.0273438"
     inkscape:cx="256"
     inkscape:cy="256"
     inkscape:window-width="1280"
     inkscape:window-height="746"
     inkscape:window-x="0"
     inkscape:window-y="24"
     inkscape:window-maximized="1"
     inkscape:current-layer="svg570" />
  <metadata
     id="metadata4835">
    <rdf:RDF>
      <cc:Work
         rdf:about="">
        <dc:format>image/svg+xml</dc:format>
        <dc:type
           rdf:resource="http://purl.org/dc/dcmitype/StillImage" />
      </cc:Work>
    </rdf:RDF>
  </metadata>
  <defs
     id="defs572">
    <linearGradient
       id="linearGradient580">
      <stop
         style="stop-color:#000;stop-opacity:1;"
         offset="0"
         id="stop581" />
      <stop
         style="stop-color:#fff;stop-opacity:1;"
         offset="1"
         id="stop582" />
    </linearGradient>
    <linearGradient
       xlink:href="#linearGradient580"
       id="linearGradient583" />
    <linearGradient
       xlink:href="#linearGradient580"
       id="linearGradient584" />
    <linearGradient
       xlink:href="#linearGradient580"
       id="linearGradient585" />
    <clipPath
       id="clipPath5131"
       clipPathUnits="userSpaceOnUse">
      <rect
         y="5.7532959"
         width="491.68387"
         style="fill:#000000;fill-opacity:0.67000002;stroke:none"
         x="161.78267"
         height="491.68387"
         id="rect5133" />
    </clipPath>
    <clipPath
       clipPathUnits="userSpaceOnUse"
       id="clipPath4927">
      <rect
         id="rect4929"
         height="512"
         x="-86.325394"
         style="fill:#000000;fill-opacity:0.67000002;stroke:none"
         width="682.66669"
         y="-2.1776321e-05" />
    </clipPath>
  </defs>
  <g
     transform="matrix(0.93749999,0,0,0.93749999,80.930054,2.04153e-5)"
     id="flag"
     clip-path="url(#clipPath4927)"
     inkscape:label="#g4721">
    <rect
       y="-2.2832519e-05"
       x="-164.27798"
       height="306.48672"
       width="835.78839"
       id="rect574"
       style="font-size:12px;fill:#e73e2d;fill-opacity:1;fill-rule:evenodd;stroke-width:1pt" />
    <path
       sodipodi:nodetypes="cccc"
       id="path605"
       d="m 204.30483,282.10752 c -19.43521,-15.17385 -55.63346,-10.0413 -61.5959,-51.28551 27.71682,21.46931 22.68551,-1.22686 64.08158,19.22873 l -2.48568,32.05678 z"
       style="fill:#fec74a;fill-opacity:1;fill-rule:evenodd;stroke:#d8aa3f;stroke-width:1.66511416;stroke-linecap:butt;stroke-linejoin:miter;stroke-opacity:1;stroke-dasharray:none"
       inkscape:connector-curvature="0" />
    <path
       sodipodi:nodetypes="cccc"
       id="path564"
       d="m 209.47373,263.35411 c -13.85196,-20.39842 -49.88201,-26.60245 -42.92207,-67.69007 19.80665,28.92834 21.97052,5.78213 55.10921,37.93629 l -12.18714,29.75378 z"
       style="fill:#fec74a;fill-opacity:1;fill-rule:evenodd;stroke:#d8aa3f;stroke-width:1.66511285;stroke-linecap:butt;stroke-linejoin:miter;stroke-opacity:1;stroke-dasharray:none"
       inkscape:connector-curvature="0" />
    <path
       sodipodi:nodetypes="cccc"
       id="path565"
       d="m 215.77001,250.01198 c -5.00078,-24.14467 -35.9216,-43.65255 -13.7816,-78.95771 7.24188,34.30317 18.09073,13.74272 36.41848,56.12382 l -22.63688,22.83389 z"
       style="fill:#fec74a;fill-opacity:1;fill-rule:evenodd;stroke:#d8aa3f;stroke-width:1.66511321;stroke-linecap:butt;stroke-linejoin:miter;stroke-opacity:1;stroke-dasharray:none"
       inkscape:connector-curvature="0" />
    <path
       sodipodi:nodetypes="cccc"
       id="path566"
       d="m 230.31973,237.61113 c 2.65272,-24.51399 -20.78647,-52.57213 11.12261,-79.37594 -3.63832,34.86997 12.99842,18.63272 17.43088,64.59376 l -28.55349,14.78218 z"
       style="fill:#fec74a;fill-opacity:1;fill-rule:evenodd;stroke:#d8aa3f;stroke-width:1.66511321;stroke-linecap:butt;stroke-linejoin:miter;stroke-opacity:1;stroke-dasharray:none"
       inkscape:connector-curvature="0" />
    <path
       sodipodi:nodetypes="cccc"
       id="path567"
       d="m 243.26442,227.66955 c 12.45687,-21.27909 2.56002,-56.47439 42.64627,-67.86425 -17.5961,30.32378 4.23029,22.32135 -10.54346,66.06837 l -32.10281,1.79588 z"
       style="fill:#fec74a;fill-opacity:1;fill-rule:evenodd;stroke:#d8aa3f;stroke-width:1.66511416;stroke-linecap:butt;stroke-linejoin:miter;stroke-opacity:1;stroke-dasharray:none"
       inkscape:connector-curvature="0" />
    <path
       sodipodi:nodetypes="cccc"
       id="path568"
       d="m 262.06624,230.28584 c 18.55888,-16.23393 20.32714,-52.75144 61.95664,-50.84907 -26.2998,23.18347 -3.06237,22.51131 -30.93972,59.32051 l -31.01692,-8.47144 z"
       style="fill:#fec74a;fill-opacity:1;fill-rule:evenodd;stroke:#d8aa3f;stroke-width:1.66511333;stroke-linecap:butt;stroke-linejoin:miter;stroke-opacity:1;stroke-dasharray:none"
       inkscape:connector-curvature="0" />
    <path
       sodipodi:nodetypes="cccc"
       id="path569"
       d="m 278.56678,239.86553 c 22.50605,-10.07217 34.91394,-44.46252 74.15179,-30.42612 -31.94568,14.44378 -9.53434,20.62117 -46.98711,47.62762 l -27.16468,-17.2015 z"
       style="fill:#fec74a;fill-opacity:1;fill-rule:evenodd;stroke:#d8aa3f;stroke-width:1.6651113;stroke-linecap:butt;stroke-linejoin:miter;stroke-opacity:1;stroke-dasharray:none"
       inkscape:connector-curvature="0" />
    <path
       sodipodi:nodetypes="cccc"
       id="path570"
       d="m 292.49417,254.93128 c 24.43122,-3.32976 46.01781,-32.83691 79.71805,-8.32314 -34.71971,4.86748 -14.9534,17.10357 -58.49373,32.4756 l -21.22432,-24.15246 z"
       style="fill:#fec74a;fill-opacity:1;fill-rule:evenodd;stroke:#d8aa3f;stroke-width:1.66511178;stroke-linecap:butt;stroke-linejoin:miter;stroke-opacity:1;stroke-dasharray:none"
       inkscape:connector-curvature="0" />
    <path
       sodipodi:nodetypes="ccccc"
       id="path598"
       d="m 379.45835,259.60196 -112.06202,2.46048 4.70513,30.19315 107.35689,-32.65363 0,0 z"
       style="fill:#fec74a;fill-opacity:1;fill-rule:evenodd;stroke:#d8aa3f;stroke-width:1.66511321;stroke-linecap:butt;stroke-linejoin:miter;stroke-opacity:1;stroke-dasharray:none"
       inkscape:connector-curvature="0" />
    <path
       sodipodi:nodetypes="cccc"
       id="path597"
       d="m 362.99635,218.41167 -103.84346,39.85944 17.38583,33.373 86.45763,-73.23244 z"
       style="fill:#fec74a;fill-opacity:1;fill-rule:evenodd;stroke:#d8aa3f;stroke-width:1.66511357;stroke-linecap:butt;stroke-linejoin:miter;stroke-opacity:1;stroke-dasharray:none"
       inkscape:connector-curvature="0" />
    <path
       sodipodi:nodetypes="ccccc"
       id="path596"
       d="m 280.5825,280.66883 53.72228,-97.5403 -82.40675,76.70493 28.68447,20.83537 0,0 z"
       style="fill:#fec74a;fill-opacity:1;fill-rule:evenodd;stroke:#d8aa3f;stroke-width:1.66511309;stroke-linecap:butt;stroke-linejoin:miter;stroke-opacity:1;stroke-dasharray:none"
       inkscape:connector-curvature="0" />
    <path
       sodipodi:nodetypes="ccccc"
       id="path595"
       d="m 279.46122,272.63094 17.26795,-109.47227 -53.81088,97.28537 36.54293,12.1869 0,0 z"
       style="fill:#fec74a;fill-opacity:1;fill-rule:evenodd;stroke:#d8aa3f;stroke-width:1.66511917;stroke-linecap:butt;stroke-linejoin:miter;stroke-opacity:1;stroke-dasharray:none"
       inkscape:connector-curvature="0" />
    <path
       sodipodi:nodetypes="ccccc"
       id="path594"
       d="m 273.0141,263.74065 -18.03519,-110.24921 -19.98936,110.73142 38.02455,-0.48221 0,0 z"
       style="fill:#fec74a;fill-opacity:1;fill-rule:evenodd;stroke:#d8aa3f;stroke-width:1.66511416;stroke-linecap:butt;stroke-linejoin:miter;stroke-opacity:1;stroke-dasharray:none"
       inkscape:connector-curvature="0" />
    <path
       sodipodi:nodetypes="ccccc"
       id="path604"
       d="m 263.67884,254.28864 -52.29209,-92.07241 20.09546,111.91767 32.19663,-19.84526 0,0 z"
       style="fill:#fec74a;fill-opacity:1;fill-rule:evenodd;stroke:#d8aa3f;stroke-width:1.66511571;stroke-linecap:butt;stroke-linejoin:miter;stroke-opacity:1;stroke-dasharray:none"
       inkscape:connector-curvature="0" />
    <path
       sodipodi:nodetypes="cccc"
       id="path603"
       d="m 255.56304,253.59811 -81.10143,-68.47923 57.66654,98.00318 23.43489,-29.52395 z"
       style="fill:#fec74a;fill-opacity:1;fill-rule:evenodd;stroke:#d8aa3f;stroke-width:1.66511464;stroke-linecap:butt;stroke-linejoin:miter;stroke-opacity:1;stroke-dasharray:none"
       inkscape:connector-curvature="0" />
    <path
       sodipodi:nodetypes="cccc"
       id="path601"
       d="m 145.94665,218.89135 87.06886,71.89104 13.38693,-37.60585 -100.45579,-34.28519 z"
       style="fill:#fec74a;fill-opacity:1;fill-rule:evenodd;stroke:#d8aa3f;stroke-width:1.66511416;stroke-linecap:butt;stroke-linejoin:miter;stroke-opacity:1;stroke-dasharray:none"
       inkscape:connector-curvature="0" />
    <path
       sodipodi:nodetypes="cccc"
       id="path600"
       d="m 232.09933,260.85338 -102.30802,-1.43788 101.87943,34.00957 0.42859,-32.57169 z"
       style="fill:#fec74a;fill-opacity:1;fill-rule:evenodd;stroke:#d8aa3f;stroke-width:1.66511488;stroke-linecap:butt;stroke-linejoin:miter;stroke-opacity:1;stroke-dasharray:none"
       inkscape:connector-curvature="0" />
    <path
       transform="matrix(1.4028209,0,0,1.4028209,-287.75924,-565.3612)"
       sodipodi:ry="43.751373"
       sodipodi:rx="43.751373"
       sodipodi:cy="602.07153"
       sodipodi:cx="386.01877"
       d="m 429.77014,602.07153 c 0,24.16322 -19.58816,43.75138 -43.75137,43.75138 -24.16322,0 -43.75137,-19.58816 -43.75137,-43.75138 0,-24.16321 19.58815,-43.75137 43.75137,-43.75137 24.16321,0 43.75137,19.58816 43.75137,43.75137 z"
       id="path575"
       style="fill:#fec74a;fill-opacity:1;fill-rule:evenodd;stroke:#d8aa3f;stroke-width:1.18698001;stroke-linecap:butt;stroke-linejoin:miter;stroke-opacity:1;stroke-dasharray:none"
       sodipodi:type="arc" />
    <rect
       y="303.39676"
       x="-165.11954"
       height="208.60323"
       width="839.90253"
       id="rect586"
       style="font-size:12px;fill:#005989;fill-opacity:1;fill-rule:evenodd;stroke-width:1pt" />
    <path
       sodipodi:nodetypes="cccscscscsccccscscscscc"
       id="path573"
       d="m -165.59817,454.00325 c 15.61755,7.22792 37.99054,25.31906 61.92246,25.30307 40.041534,-0.25976 41.107839,-27.4251 81.668883,-26.13297 40.666739,1.03504 33.310977,29.63371 88.22365,29.49117 45.369447,-0.11855 60.026117,-34.66501 99.134207,-30.5262 28.96281,-1.49061 40.81658,32.7135 85.33379,33.14776 46.17219,0.98708 63.12603,-37.27991 92.09017,-34.1122 30.85594,0 40.96376,30.8206 84.25277,31.04306 55.13611,0.27841 64.82918,-32.07809 99.32285,-30.00802 24.55043,-0.51818 43.90981,23.71389 79.88721,24.31733 28.70727,0.48887 52.73993,-21.21356 68.97532,-28.97432 l 0.80274,-36.827 c -17.01538,6.32744 -42.38594,27.07343 -67.75649,27.30121 -36.50856,1.33609 -59.09361,-23.94567 -84.46416,-23.71788 -30.39704,0.27308 -42.51036,31.28416 -94.07562,31.28416 -47.10871,0 -57.91759,-31.28416 -88.31596,-31.28416 -29.71203,0.22778 -38.81509,34.02561 -90.25324,33.39952 -41.96049,-0.50486 -58.3096,-32.26192 -88.02297,-32.03413 -31.49946,0 -64.071918,30.88054 -98.950911,29.38993 -48.140235,-2.0341 -58.5410515,-29.38993 -90.040515,-29.38993 -23.541648,0 -48.948325,25.63477 -77.309084,26.06237 -28.20569,0.43426 -59.89206,-25.50822 -62.82687,-26.06237 l 0.40177,38.3296 z"
       style="fill:#ffffff;fill-opacity:1;fill-rule:evenodd;stroke:none"
       inkscape:connector-curvature="0" />
    <path
       sodipodi:nodetypes="cccscscscsccccscscscscc"
       id="path578"
       d="m -165.59816,381.0708 c 15.61755,7.22792 37.99054,25.31906 61.92246,25.30307 40.041534,-0.25976 41.107839,-27.4251 81.668883,-26.13297 40.666739,1.03504 33.310977,29.63371 88.22365,29.49117 45.369447,-0.11855 60.026117,-34.66501 99.134207,-30.5262 28.96281,-1.49061 40.81658,32.7135 85.33379,33.14776 46.17219,0.98708 63.12603,-37.27991 92.09017,-34.1122 30.85594,0 40.96376,30.8206 84.25277,31.04306 55.13611,0.27841 64.82918,-32.07809 99.32285,-30.00802 24.55043,-0.51818 43.90981,23.71389 79.88721,24.31733 28.70727,0.48887 52.73993,-21.21356 68.97532,-28.97432 l 0.80274,-36.827 c -17.01538,6.32744 -42.38594,27.07343 -67.75649,27.30121 -36.50856,1.33609 -59.09361,-23.94567 -84.46416,-23.71788 -30.39704,0.27308 -42.51036,31.28416 -94.07562,31.28416 -47.10871,0 -57.91759,-31.28416 -88.31596,-31.28416 -29.71203,0.22778 -38.81509,34.02561 -90.25324,33.39952 -41.96049,-0.50486 -58.3096,-32.26192 -88.02297,-32.03413 -31.49946,0 -64.071918,30.88054 -98.950911,29.38993 -48.140235,-2.0341 -58.5410515,-29.38993 -90.040515,-29.38993 -23.541648,0 -48.948325,25.63477 -77.309084,26.06237 -28.20569,0.43426 -59.89206,-25.50822 -62.82687,-26.06237 l 0.40177,38.3296 z"
       style="fill:#ffffff;fill-opacity:1;fill-rule:evenodd;stroke:none"
       inkscape:connector-curvature="0" />
    <path
       sodipodi:nodetypes="cccscscscsccccscscscscc"
       id="path579"
       d="m -165.59861,308.92225 c 15.60299,7.22792 37.95512,25.31906 61.86472,25.30307 40.004202,-0.25976 41.069513,-27.4251 81.592737,-26.13297 40.628819,1.03504 33.279916,29.63371 88.141387,29.49117 45.327146,-0.11855 59.970146,-34.66501 99.041766,-30.5262 28.93581,-1.49061 40.77853,32.7135 85.25423,33.14776 46.12913,0.98708 63.06716,-37.27991 92.0043,-34.1122 30.82717,0 40.92556,30.8206 84.17421,31.04306 55.08469,0.27841 64.76873,-32.07809 99.23024,-30.00802 24.52753,-0.51818 43.86886,23.71389 79.81272,24.31733 28.6805,0.48887 52.69075,-21.21356 68.911,-28.97432 l 0.80199,-36.827 c -16.99952,6.32744 -42.34641,27.07343 -67.69331,27.30121 -36.47451,1.33609 -59.0385,-23.94567 -84.3854,-23.71788 -30.36869,0.27308 -42.47072,31.28416 -93.9879,31.28416 -47.06479,0 -57.86358,-31.28416 -88.23361,-31.28416 -29.68433,0.22778 -38.7789,34.02561 -90.16909,33.39952 -41.92136,-0.50486 -58.25522,-32.26192 -87.94089,-32.03413 -31.47009,0 -64.012177,30.88054 -98.858647,29.38993 -48.095348,-2.0341 -58.4864665,-29.38993 -89.956559,-29.38993 -23.519697,0 -48.902684,25.63477 -77.236994,26.06237 C -131.4111,297.08928 -163.06793,271.1468 -166,270.59265 l 0.40139,38.3296 z"
       style="fill:#ffffff;fill-opacity:1;fill-rule:evenodd;stroke:none"
       inkscape:connector-curvature="0" />
    <path
       sodipodi:nodetypes="cccccc"
       id="path587"
       d="m 136.81442,75.955735 c 61.04842,-4.180102 49.92146,-9.393908 74.49321,-13.315585 30.96447,4.257364 34.50516,23.003885 51.75841,34.505161 0,0 -6.48462,21.926219 -27.70617,18.822449 -2.85334,-8.7958 10.27309,-11.5146 -27.49702,-34.539794 -21.9582,-1.306781 -61.24956,3.85374 -71.04843,-5.472231 z"
       style="fill:#ffc84b;fill-opacity:1;fill-rule:evenodd;stroke:#d8aa3f;stroke-width:1.33209133pt;stroke-linecap:butt;stroke-linejoin:miter;stroke-opacity:1"
       inkscape:connector-curvature="0" />
    <path
       sodipodi:nodetypes="cccc"
       id="path591"
       d="m 326.07093,109.88549 -43.979,1.81031 0,10.86587 c 29.66435,0.94845 35.01136,-3.01852 43.979,-12.67618 z"
       style="fill:#ffc84b;fill-opacity:1;fill-rule:evenodd;stroke:#d8aa3f;stroke-width:1.33209133pt;stroke-linecap:butt;stroke-linejoin:miter;stroke-opacity:1"
       inkscape:connector-curvature="0" />
    <path
       sodipodi:nodetypes="cccccccccccc"
       id="path590"
       d="m 174.8443,108.06713 c 7.66485,-3.92035 11.4773,-2.32051 18.11777,-2.57893 4.57041,8.27761 8.88239,9.05422 18.88506,10.08926 15.2631,21.47198 36.73508,21.7304 39.83885,21.7304 29.92277,-0.77661 39.40859,-21.7304 59.50053,-24.0589 l 21.21355,0 c -3.53537,-6.0357 -6.29546,-9.48582 -13.96964,-9.83083 -15.78129,-0.86186 -36.2169,-0.43027 -54.06692,3.62196 l -25.09394,6.20887 c -7.3305,-3.53537 -25.26577,-22.33384 -36.73508,-21.988828 -6.72573,1.810312 -6.72573,4.138808 -10.08926,6.725729 -6.4673,2.760089 -12.93594,1.437326 -17.60092,10.081269 z"
       style="fill:#ffc84b;fill-opacity:1;fill-rule:evenodd;stroke:#d8aa3f;stroke-width:1.66511416;stroke-linecap:butt;stroke-linejoin:round;stroke-opacity:1;stroke-dasharray:none"
       inkscape:connector-curvature="0" />
    <path
       transform="matrix(1.0213699,0,0,1.0213699,-132.51277,-361.84623)"
       sodipodi:ry="3.107269"
       sodipodi:rx="3.107254"
       sodipodi:cy="451.10641"
       sodipodi:cx="327.42804"
       d="m 330.53529,451.10641 c 0,1.7161 -1.39116,3.10727 -3.10725,3.10727 -1.71609,0 -3.10725,-1.39117 -3.10725,-3.10727 0,-1.71609 1.39116,-3.10726 3.10725,-3.10726 1.71609,0 3.10725,1.39117 3.10725,3.10726 z"
       id="path589"
       style="fill:#ffc84b;fill-opacity:1;fill-rule:evenodd;stroke:#d8aa3f;stroke-width:1.63027;stroke-linecap:butt;stroke-linejoin:miter;stroke-opacity:1;stroke-dasharray:none"
       sodipodi:type="arc" />
    <path
       sodipodi:nodetypes="ccccc"
       id="path588"
       d="m 225.55835,107.81669 c 44.92744,-54.153503 84.16286,-47.51436 135.29918,-51.22157 1.72506,6.295464 1.12162,15.6947 -23.28229,24.058901 -33.37156,4.915417 -93.13184,40.097279 -93.39026,40.097279 -11.12563,-0.51685 -18.88639,-12.158 -18.62663,-12.93461 z"
       style="fill:#ffc84b;fill-opacity:1;fill-rule:evenodd;stroke:#d8aa3f;stroke-width:1.33209133pt;stroke-linecap:butt;stroke-linejoin:miter;stroke-opacity:1"
       inkscape:connector-curvature="0" />
    <path
       sodipodi:nodetypes="cc"
       id="path592"
       d="m 317.86694,72.536257 33.13444,1.435994"
       style="fill:none;stroke:#d9a43e;stroke-width:1.33209133pt;stroke-linecap:round;stroke-linejoin:miter;stroke-opacity:1"
       inkscape:connector-curvature="0" />
    <path
       sodipodi:nodetypes="cc"
       id="path593"
       d="m 314.26364,77.941883 24.15215,1.970163"
       style="fill:none;stroke:#d9a43e;stroke-width:1.33209133pt;stroke-linecap:round;stroke-linejoin:miter;stroke-opacity:1"
       inkscape:connector-curvature="0" />
  </g>
</svg>
