<?xml version="1.0" encoding="UTF-8" standalone="no"?>
<!-- Created with Sodipodi ("http://www.sodipodi.com/") -->

<!--

<rdf:RDF xmlns="http://web.resource.org/cc/"
    xmlns:dc="http://purl.org/dc/elements/1.1/"
    xmlns:rdf="http://www.w3.org/1999/02/22-rdf-syntax-ns#">
<Work rdf:about="">
   <dc:title>SVG graphic of Comoros' Flag</dc:title>
   <dc:rights><Agent>
      <dc:title>Andrew Duhan</dc:title>
   </Agent></dc:rights>
   <license rdf:resource="http://web.resource.org/cc/PublicDomain" />
</Work>

<License rdf:about="http://web.resource.org/cc/PublicDomain">
   <permits rdf:resource="http://web.resource.org/cc/Reproduction" />
   <permits rdf:resource="http://web.resource.org/cc/Distribution" />
   <permits rdf:resource="http://web.resource.org/cc/DerivativeWorks" />
</License>

</rdf:RDF>

-->

<svg
   xmlns:dc="http://purl.org/dc/elements/1.1/"
   xmlns:cc="http://creativecommons.org/ns#"
   xmlns:rdf="http://www.w3.org/1999/02/22-rdf-syntax-ns#"
   xmlns:svg="http://www.w3.org/2000/svg"
   xmlns="http://www.w3.org/2000/svg"
   xmlns:sodipodi="http://sodipodi.sourceforge.net/DTD/sodipodi-0.dtd"
   xmlns:inkscape="http://www.inkscape.org/namespaces/inkscape"
   id="svg660"
   sodipodi:version="0.32"
   width="640"
   height="480"
   sodipodi:docname="km.svg"
   version="1.1"
   inkscape:version="0.48.1 r9760">
  <sodipodi:namedview
     id="base"
     showgrid="false"
     inkscape:zoom="0.98242188"
     inkscape:cx="256"
     inkscape:cy="256"
     inkscape:window-width="1280"
     inkscape:window-height="746"
     inkscape:window-x="0"
     inkscape:window-y="24"
     inkscape:window-maximized="1"
     inkscape:current-layer="svg660" />
  <metadata
     id="metadata4850">
    <rdf:RDF>
      <cc:Work
         rdf:about="">
        <dc:format>image/svg+xml</dc:format>
        <dc:type
           rdf:resource="http://purl.org/dc/dcmitype/StillImage" />
      </cc:Work>
    </rdf:RDF>
  </metadata>
  <defs
     id="defs662">
    <clipPath
       clipPathUnits="userSpaceOnUse"
       id="clipPath4980">
      <rect
         id="rect4982"
         height="416.25003"
         x="0"
         style="fill:#000000;fill-opacity:0.67000002;stroke:none"
         width="416.25003"
         y="-1.3485417e-05" />
    </clipPath>
    <clipPath
       clipPathUnits="userSpaceOnUse"
       id="clipPath4687">
      <rect
         id="rect4689"
         height="512"
         x="0"
         style="fill:#000000;fill-opacity:0.67000002;stroke:none"
         width="682.66669"
         y="0" />
    </clipPath>
  </defs>
  <g
     id="flag"
     transform="scale(0.9375,0.9375)"
     clip-path="url(#clipPath4687)"
     inkscape:label="#g4605">
    <rect
       style="font-size:12px;fill:#ffff00;fill-opacity:1;fill-rule:evenodd;stroke-width:1pt"
       id="rect665"
       width="768.76868"
       height="127.99998"
       x="0"
       y="-1.862982e-06" />
    <rect
       style="font-size:12px;fill:#ffffff;fill-opacity:1;fill-rule:evenodd;stroke-width:1pt"
       id="rect668"
       width="768.76868"
       height="127.99998"
       x="0"
       y="127.99998" />
    <rect
       style="font-size:12px;fill:#be0027;fill-opacity:1;fill-rule:evenodd;stroke-width:1pt"
       id="rect667"
       width="768.76868"
       height="127.99998"
       x="0"
       y="255.99997" />
    <rect
       style="font-size:12px;fill:#3b5aa3;fill-opacity:1;fill-rule:evenodd;stroke-width:1pt"
       id="rect666"
       width="768.76868"
       height="127.99998"
       x="0"
       y="384" />
    <path
       inkscape:connector-curvature="0"
       style="fill:#239e46;fill-opacity:1;fill-rule:evenodd;stroke:none"
       d="M 0,1.9405828e-5 0,512 381.86291,256.72324 0,1.9405828e-5 z"
       id="path664" />
    <path
       inkscape:connector-curvature="0"
       style="fill:#ffffff;fill-opacity:1;fill-rule:evenodd;stroke:none"
       d="M 157.21135,141.43131 C 72.113086,137.11514 33.343897,204.89963 33.432828,257.29767 33.236146,319.26781 91.959495,370.37678 146.23702,367.29432 116.97031,353.44788 81.231667,314.63428 80.902511,257.04182 80.602875,204.86027 110.39506,159.48815 157.21135,141.43131 z"
       id="path673"
       sodipodi:nodetypes="cscsc" />
    <polygon
       transform="matrix(1.2300299,0,0,1.2300299,0,1.6587466e-5)"
       d="m 126.77341,160.21338 -9.75793,-7.62986 -11.8172,3.71287 4.24106,-11.63809 -7.18286,-10.0915 12.37904,0.43712 7.37795,-9.94975 3.40961,11.90825 11.74269,3.94221 -10.27179,6.92258 z"
       inkscape:randomized="0"
       inkscape:rounded="0"
       inkscape:flatsided="false"
       sodipodi:type="star"
       style="font-size:12px;fill:#ffffff;fill-opacity:1;fill-rule:evenodd;stroke-width:1pt"
       id="polygon674"
       sodipodi:sides="5"
       sodipodi:cx="118.68148"
       sodipodi:cy="143.40707"
       sodipodi:r1="18.652912"
       sodipodi:r2="9.3264561"
       sodipodi:arg1="1.1220729"
       sodipodi:arg2="1.7503914"
       points="126.773,160.213 117.015,152.584 105.198,156.296 109.439,144.658 102.256,134.567 114.636,135.004 122.013,125.054 125.423,136.962 137.166,140.905 126.894,147.827 126.773,160.213 " />
    <polygon
       d="m 126.77341,160.21338 -9.75793,-7.62986 -11.8172,3.71287 4.24106,-11.63809 -7.18286,-10.0915 12.37904,0.43712 7.37795,-9.94975 3.40961,11.90825 11.74269,3.94221 -10.27179,6.92258 z"
       inkscape:randomized="0"
       inkscape:rounded="0"
       inkscape:flatsided="false"
       sodipodi:type="star"
       style="font-size:12px;fill:#ffffff;fill-opacity:1;fill-rule:evenodd;stroke-width:1pt"
       id="polygon675"
       sodipodi:sides="5"
       sodipodi:cx="118.68148"
       sodipodi:cy="143.40707"
       sodipodi:r1="18.652912"
       sodipodi:r2="9.3264561"
       sodipodi:arg1="1.1220729"
       sodipodi:arg2="1.7503914"
       points="126.773,160.213 117.015,152.584 105.198,156.296 109.439,144.658 102.256,134.567 114.636,135.004 122.013,125.054 125.423,136.962 137.166,140.905 126.894,147.827 126.773,160.213 "
       transform="matrix(1.2300299,0,0,1.2300299,-0.25522013,52.063455)" />
    <polygon
       d="m 126.77341,160.21338 -9.75793,-7.62986 -11.8172,3.71287 4.24106,-11.63809 -7.18286,-10.0915 12.37904,0.43712 7.37795,-9.94975 3.40961,11.90825 11.74269,3.94221 -10.27179,6.92258 z"
       inkscape:randomized="0"
       inkscape:rounded="0"
       inkscape:flatsided="false"
       sodipodi:type="star"
       style="font-size:12px;fill:#ffffff;fill-opacity:1;fill-rule:evenodd;stroke-width:1pt"
       id="polygon676"
       sodipodi:sides="5"
       sodipodi:cx="118.68148"
       sodipodi:cy="143.40707"
       sodipodi:r1="18.652912"
       sodipodi:r2="9.3264561"
       sodipodi:arg1="1.1220729"
       sodipodi:arg2="1.7503914"
       points="126.773,160.213 117.015,152.584 105.198,156.296 109.439,144.658 102.256,134.567 114.636,135.004 122.013,125.054 125.423,136.962 137.166,140.905 126.894,147.827 126.773,160.213 "
       transform="matrix(1.2300299,0,0,1.2300299,-1.1822124e-5,104.63729)" />
    <polygon
       d="m 126.77341,160.21338 -9.75793,-7.62986 -11.8172,3.71287 4.24106,-11.63809 -7.18286,-10.0915 12.37904,0.43712 7.37795,-9.94975 3.40961,11.90825 11.74269,3.94221 -10.27179,6.92258 z"
       inkscape:randomized="0"
       inkscape:rounded="0"
       inkscape:flatsided="false"
       sodipodi:type="star"
       style="font-size:12px;fill:#ffffff;fill-opacity:1;fill-rule:evenodd;stroke-width:1pt"
       id="polygon677"
       sodipodi:sides="5"
       sodipodi:cx="118.68148"
       sodipodi:cy="143.40707"
       sodipodi:r1="18.652912"
       sodipodi:r2="9.3264561"
       sodipodi:arg1="1.1220729"
       sodipodi:arg2="1.7503914"
       points="126.773,160.213 117.015,152.584 105.198,156.296 109.439,144.658 102.256,134.567 114.636,135.004 122.013,125.054 125.423,136.962 137.166,140.905 126.894,147.827 126.773,160.213 "
       transform="matrix(1.2300299,0,0,1.2300299,-0.25522013,157.72158)" />
  </g>
</svg>
