<?xml version="1.0" encoding="UTF-8" standalone="no"?>
<!-- Created with Sodipodi ("http://www.sodipodi.com/") -->

<svg
   xmlns:dc="http://purl.org/dc/elements/1.1/"
   xmlns:cc="http://creativecommons.org/ns#"
   xmlns:rdf="http://www.w3.org/1999/02/22-rdf-syntax-ns#"
   xmlns:svg="http://www.w3.org/2000/svg"
   xmlns="http://www.w3.org/2000/svg"
   xmlns:sodipodi="http://sodipodi.sourceforge.net/DTD/sodipodi-0.dtd"
   xmlns:inkscape="http://www.inkscape.org/namespaces/inkscape"
   inkscape:version="0.48.1 r9760"
   sodipodi:docname="kn.svg"
   sodipodi:version="0.32-hydra1"
   id="svg378"
   height="480"
   width="640"
   y="0"
   x="0"
   version="1">
  <sodipodi:namedview
     id="base"
     showgrid="false"
     inkscape:zoom="0.98242188"
     inkscape:cx="256"
     inkscape:cy="256"
     inkscape:window-width="1280"
     inkscape:window-height="746"
     inkscape:window-x="0"
     inkscape:window-y="24"
     inkscape:window-maximized="1"
     inkscape:current-layer="svg378" />
  <metadata
     id="metadata4863">
    <rdf:RDF>
      <cc:Work
         rdf:about="">
        <dc:format>image/svg+xml</dc:format>
        <dc:type
           rdf:resource="http://purl.org/dc/dcmitype/StillImage" />
      </cc:Work>
    </rdf:RDF>
  </metadata>
  <defs
     id="defs380">
    <clipPath
       clipPathUnits="userSpaceOnUse"
       id="clipPath4933">
      <rect
         id="rect4935"
         height="745.1217"
         x="151.68642"
         style="fill:#000000;fill-opacity:0.67000002;stroke:none"
         width="745.1217"
         y="-0.34719807" />
    </clipPath>
    <clipPath
       clipPathUnits="userSpaceOnUse"
       id="clipPath4591">
      <rect
         id="rect4593"
         height="512"
         x="-80.108505"
         style="fill:#000000;fill-opacity:0.67000002;stroke:none"
         width="682.66669"
         y="4.1560393e-06" />
    </clipPath>
  </defs>
  <g
     transform="matrix(0.93750001,0,0,0.93750001,75.101724,-3.8962867e-6)"
     id="flag"
     clip-path="url(#clipPath4591)"
     inkscape:label="#g4514">
    <rect
       style="font-size:12px;fill:#ffe900;fill-opacity:1;fill-rule:evenodd;stroke:none"
       id="rect628"
       width="737.65009"
       height="511.29416"
       x="-107.84557"
       y="0.23856863" />
    <path
       inkscape:connector-curvature="0"
       style="font-size:12px;fill:#35a100;fill-rule:evenodd;stroke:none"
       d="M -108.24066,0.23863834 -107.38453,368.82489 466.5969,2.8507448e-6 -108.24066,0.23863834 z"
       id="path623"
       sodipodi:nodetypes="cccc" />
    <path
       inkscape:connector-curvature="0"
       style="font-size:12px;fill:#c70000;fill-opacity:1;fill-rule:evenodd;stroke:none"
       d="m 630.69031,511.53241 -1.34678,-383.2529 -578.9843,383.536 580.33108,-0.2831 z"
       id="path624"
       sodipodi:nodetypes="cccc" />
    <path
       inkscape:connector-curvature="0"
       style="font-size:12px;fill-rule:evenodd;stroke:none"
       d="M -107.8711,396.61474 -107.38453,512 17.868871,511.83509 629.62818,101.6973 628.94105,1.3762402 505.17822,0.23863834 -107.8711,396.61474 z"
       id="path625"
       sodipodi:nodetypes="ccccccc" />
    <polygon
       points="511.946,324.278 533.785,256.897 555.613,324.281 626.445,324.23 569.104,365.812 591.041,433.161 591.041,433.161 533.774,391.476 476.501,433.151 498.449,365.806 441.115,324.214 "
       style="font-size:12px;fill:#ffffff;fill-opacity:1;fill-rule:evenodd;stroke:none"
       id="polygon136"
       transform="matrix(0.5369247,-0.34745448,0.3210609,0.51438663,1.4650311,167.69006)" />
    <polygon
       points="511.946,324.278 533.785,256.897 555.613,324.281 626.445,324.23 569.104,365.812 591.041,433.161 591.041,433.161 533.774,391.476 476.501,433.151 498.449,365.806 441.115,324.214 "
       style="font-size:12px;fill:#ffffff;fill-opacity:1;fill-rule:evenodd;stroke:none"
       id="polygon638"
       transform="matrix(0.5369247,-0.34745448,0.3210609,0.51438663,-273.78423,346.60209)" />
  </g>
</svg>
