<?xml version="1.0" encoding="UTF-8" standalone="no"?>
<!-- Created with Sodipodi ("http://www.sodipodi.com/") -->

<svg
   xmlns:dc="http://purl.org/dc/elements/1.1/"
   xmlns:cc="http://creativecommons.org/ns#"
   xmlns:rdf="http://www.w3.org/1999/02/22-rdf-syntax-ns#"
   xmlns:svg="http://www.w3.org/2000/svg"
   xmlns="http://www.w3.org/2000/svg"
   xmlns:sodipodi="http://sodipodi.sourceforge.net/DTD/sodipodi-0.dtd"
   xmlns:inkscape="http://www.inkscape.org/namespaces/inkscape"
   version="1"
   x="0"
   y="0"
   width="640"
   height="480"
   id="svg378"
   sodipodi:version="0.32"
   sodipodi:docname="kp.svg"
   inkscape:version="0.48.1 r9760">
  <sodipodi:namedview
     id="base"
     showgrid="true"
     inkscape:zoom="0.33060318"
     inkscape:cx="111.91665"
     inkscape:cy="248.03149"
     inkscape:window-width="1280"
     inkscape:window-height="746"
     inkscape:window-x="0"
     inkscape:window-y="24"
     inkscape:window-maximized="1"
     inkscape:current-layer="svg378" />
  <metadata
     id="metadata11">
    <rdf:RDF>
      <cc:Work
         rdf:about="">
        <dc:format>image/svg+xml</dc:format>
        <dc:type
           rdf:resource="http://purl.org/dc/dcmitype/StillImage" />
      </cc:Work>
    </rdf:RDF>
  </metadata>
  <defs
     id="defs380">
    <clipPath
       clipPathUnits="userSpaceOnUse"
       id="clipPath9232">
      <rect
         id="rect9234"
         height="485.50098"
         x="92.21286"
         style="fill:#000000;fill-opacity:0.67000002;stroke:none"
         width="593.59821"
         y="7.8280988" />
    </clipPath>
    <clipPath
       clipPathUnits="userSpaceOnUse"
       id="clipPath4479">
      <rect
         id="rect4481"
         height="511.89951"
         x="5.0774293"
         style="fill:#000000;fill-opacity:0.67000002;stroke:none"
         width="682.53265"
         y="0.10047726" />
    </clipPath>
  </defs>
  <g
     transform="matrix(0.93768404,0,0,0.93768404,-4.7610242,-0.09421592)"
     id="flag"
     clip-path="url(#clipPath4479)"
     inkscape:label="#g4444">
    <rect
       width="851.86267"
       height="510.94934"
       x="-775.9364"
       y="-511.5249"
       style="font-size:12px;fill:#ffffff;fill-rule:evenodd;stroke:#000000;stroke-width:0.76013699pt"
       id="rect149"
       transform="scale(-1,-1)" />
    <rect
       width="851.86267"
       height="92.457497"
       x="-775.9364"
       y="419.06747"
       style="font-size:12px;fill:#3e5698;fill-opacity:1;fill-rule:evenodd;stroke-width:1pt"
       id="rect148"
       transform="scale(-1,1)" />
    <rect
       width="851.86267"
       height="283.20767"
       x="-775.9364"
       y="-397.65411"
       style="font-size:12px;fill:#c60000;fill-opacity:1;fill-rule:evenodd;stroke-width:1pt"
       id="rect605"
       transform="scale(-1,-1)" />
    <rect
       width="851.86267"
       height="92.457497"
       x="-775.9364"
       y="0.57557368"
       style="font-size:12px;fill:#3e5698;fill-opacity:1;fill-rule:evenodd;stroke-width:1pt"
       id="rect606"
       transform="scale(-1,1)" />
    <path
       sodipodi:type="arc"
       style="fill:#ffffff;fill-opacity:1;fill-rule:evenodd;stroke:none"
       id="path607"
       d="m 495.86229,1147.9642 c 0,90.4597 -73.332,163.7917 -163.79161,163.7917 -90.45961,0 -163.79161,-73.332 -163.79161,-163.7917 0,-90.4596 73.332,-163.79159 163.79161,-163.79159 90.45961,0 163.79161,73.33199 163.79161,163.79159 z"
       sodipodi:cx="332.07068"
       sodipodi:cy="1147.9642"
       sodipodi:rx="163.79161"
       sodipodi:ry="163.79163"
       transform="matrix(0.72421311,0,0,0.70142173,-30.589242,-549.15713)" />
    <polygon
       points="498.449,365.806 441.115,324.214 511.946,324.278 533.785,256.897 555.613,324.281 626.445,324.23 569.104,365.812 591.041,433.161 591.041,433.161 533.774,391.476 476.501,433.151 "
       style="font-size:12px;fill:#c40000;fill-opacity:1;fill-rule:evenodd;stroke:none"
       id="polygon136"
       transform="matrix(1.0031556,-0.00504771,-0.01092257,0.98334387,-320.21607,-86.633263)" />
  </g>
</svg>
