<?xml version="1.0" encoding="UTF-8" standalone="no"?>
<!-- Created with Sodipodi ("http://www.sodipodi.com/") -->

<svg
   xmlns:dc="http://purl.org/dc/elements/1.1/"
   xmlns:cc="http://creativecommons.org/ns#"
   xmlns:rdf="http://www.w3.org/1999/02/22-rdf-syntax-ns#"
   xmlns:svg="http://www.w3.org/2000/svg"
   xmlns="http://www.w3.org/2000/svg"
   xmlns:sodipodi="http://sodipodi.sourceforge.net/DTD/sodipodi-0.dtd"
   xmlns:inkscape="http://www.inkscape.org/namespaces/inkscape"
   id="svg583"
   sodipodi:version="0.33pre"
   width="640"
   height="480"
   sodipodi:docname="lb.svg"
   version="1.1"
   inkscape:version="0.48.1 r9760">
  <sodipodi:namedview
     id="base"
     showgrid="false"
     inkscape:zoom="0.44080424"
     inkscape:cx="372.04724"
     inkscape:cy="248.03149"
     inkscape:window-width="1280"
     inkscape:window-height="746"
     inkscape:window-x="0"
     inkscape:window-y="24"
     inkscape:window-maximized="1"
     inkscape:current-layer="svg583" />
  <metadata
     id="metadata3122">
    <rdf:RDF>
      <cc:Work
         rdf:about="">
        <dc:format>image/svg+xml</dc:format>
        <dc:type
           rdf:resource="http://purl.org/dc/dcmitype/StillImage" />
      </cc:Work>
    </rdf:RDF>
  </metadata>
  <defs
     id="defs585">
    <clipPath
       clipPathUnits="userSpaceOnUse"
       id="clipPath8790">
      <rect
         id="rect8792"
         height="496.06299"
         x="124.01575"
         style="fill:#000000;fill-opacity:0.67000002;stroke:none"
         width="496.06299"
         y="-1.1474603e-05" />
    </clipPath>
    <clipPath
       clipPathUnits="userSpaceOnUse"
       id="clipPath4971">
      <rect
         id="rect4973"
         height="512"
         x="-85.333336"
         style="fill:#000000;fill-opacity:0.67000002;stroke:none"
         width="682.66669"
         y="-4.683548e-06" />
    </clipPath>
  </defs>
  <g
     transform="matrix(0.93749999,0,0,0.93749999,80,4.3908261e-6)"
     id="flag"
     clip-path="url(#clipPath4971)"
     inkscape:label="#g4879">
    <g
       id="g709"
       transform="matrix(1.032127,0,0,1.032127,-128,-3.9057621e-6)">
      <rect
         style="font-size:12px;fill:#ff0000;fill-opacity:1;fill-rule:evenodd;stroke-width:1pt"
         id="rect704"
         width="744.09448"
         height="124.01575"
         x="0"
         y="372.04724" />
      <rect
         style="font-size:12px;fill:#ff0000;fill-opacity:1;fill-rule:evenodd;stroke-width:1pt"
         id="rect707"
         width="744.09448"
         height="124.01575"
         x="0"
         y="0" />
      <rect
         style="font-size:12px;fill:#ffffff;fill-opacity:1;fill-rule:evenodd;stroke-width:1pt"
         id="rect708"
         width="744.09448"
         height="248.03146"
         x="0"
         y="124.01578" />
    </g>
    <path
       inkscape:connector-curvature="0"
       id="selection_to_path"
       d="m 252.09522,129.94893 c -7.81011,15.59337 -13.01822,15.59337 -26.03437,25.98999 -5.20605,5.19779 -13.01616,7.79669 -2.60303,12.99551 -10.41313,5.19676 -15.62021,7.79669 -20.82729,18.19227 0,0 2.60303,2.5989 2.60303,2.5989 0,0 9.895,-4.84997 10.41416,-2.5989 1.73087,2.07767 -13.02441,10.05085 -14.92869,11.26257 -1.90427,1.21172 -11.10568,6.93073 -11.10568,6.93073 -13.01616,10.39559 -20.8273,7.79566 -28.6374,23.39007 0,0 26.03437,-2.59787 26.03437,-2.59787 5.20708,18.19227 -13.01718,20.79117 -26.03437,28.58786 0,0 -20.82729,12.99551 -20.82729,12.99551 5.20811,18.19227 20.82729,7.79668 33.84448,2.59786 0,0 2.60405,2.59993 2.60405,2.59993 0,0 0,5.19779 0,5.19779 0,0 -26.03437,12.99551 -26.03437,12.99551 0,0 -30.73261,17.58435 -31.24042,18.19227 -0.20952,0.9413 0,5.19779 0,5.19779 10.41313,2.5989 26.03437,5.19883 36.4475,0 13.01615,-5.19779 15.61918,-10.39558 31.24042,-10.39558 -18.22427,12.99448 -31.24042,18.1933 -52.06771,20.79117 0,0 0,10.39661 0,10.39661 15.62021,0 26.03334,0 39.05053,-2.59889 0,0 33.84447,-10.39559 33.84447,-10.39559 7.81011,0 15.62021,7.79669 13.01719,15.59338 -7.81011,28.58785 -39.05156,23.39109 -49.46572,46.78115 0,0 41.65561,-15.59337 41.65561,-15.59337 10.41313,-5.19779 20.82626,-10.39558 33.84345,-7.79669 15.62021,5.19676 15.62021,15.59441 36.4475,20.79117 0,0 -5.20605,-12.99448 -5.20605,-12.99448 5.20605,2.59889 10.41313,2.59889 15.61918,5.19779 13.01821,5.19882 15.62124,10.39558 31.24042,7.79669 -13.01616,-15.59441 -15.61918,-12.99448 -26.03334,-23.39006 -10.41313,-15.59441 -15.62021,-38.98447 0,-41.5844 0,0 18.22426,5.19882 18.22426,5.19882 18.22324,2.59787 18.22324,-2.59889 44.25658,7.79669 15.62124,5.19779 20.82832,12.99448 39.05155,7.79669 -7.8101,-18.19227 -36.4475,-31.18778 -54.67073,-36.38558 20.82626,-12.99551 15.61918,5.1978 44.25657,-2.59992 0,0 0,-5.19676 0,-5.19676 -20.82626,-15.59441 -28.63739,-28.58889 -57.27479,-28.58889 0,0 44.25864,-5.19882 44.25864,-5.19882 0,0 0,-5.19779 0,-5.19779 0,0 -43.64865,-11.45145 -44.66426,-11.85811 0.30447,-1.31906 1.37169,-3.36577 4.26991,-4.49698 8.28901,5.36603 33.35731,4.74056 34.78061,4.63941 -0.73281,-6.39506 -12.61053,-11.67542 -23.02366,-16.87218 0,0 -44.58891,-27.48348 -44.81082,-29.9162 0.88453,-6.96582 18.31406,1.10644 37.00072,6.52408 -5.20708,-10.39559 -15.62124,-15.59338 -26.03437,-18.19227 0,0 15.62021,-2.5989 15.62021,-2.5989 -10.41313,-23.39109 -36.4475,-20.7922 -52.06668,-31.18778 -10.41519,-7.79669 -10.41519,-12.99551 -26.03437,-20.7922 z"
       style="font-size:12px;fill:#007900;stroke:none"
       sodipodi:nodetypes="ccccccccccccccccssccccccccccccccccccccccccccccccccccc" />
    <path
       inkscape:connector-curvature="0"
       style="font-size:12px;fill:#ffffff;fill-rule:evenodd;stroke:#ffffff;stroke-width:3.21897697;stroke-linecap:round;stroke-linejoin:round"
       d="m 223.9646,303.06759 c 1.93214,-6.19379 4.47633,-11.67439 -7.11652,-16.95372 -11.59388,-5.27829 5.79436,21.11423 7.11652,16.95372 z"
       id="path593"
       sodipodi:nodetypes="ccc" />
    <path
       inkscape:connector-curvature="0"
       style="font-size:12px;fill:#ffffff;fill-rule:evenodd;stroke:#ffffff;stroke-width:3.21897697;stroke-linecap:round;stroke-linejoin:round"
       d="m 237.69498,290.68 c -2.33673,0.30448 -3.56084,8.83501 1.11676,11.16865 5.18851,0.81022 0.91756,-11.06647 -1.11676,-11.16865 z"
       id="path594"
       sodipodi:nodetypes="ccc" />
    <path
       inkscape:connector-curvature="0"
       style="font-size:12px;fill:#ffffff;fill-rule:evenodd;stroke:#ffffff;stroke-width:3.21897697;stroke-linecap:round;stroke-linejoin:round"
       d="m 251.21997,289.76554 c -2.44201,0.71217 -2.54316,12.69103 6.00079,10.55969 8.54188,-2.13031 -0.10424,-11.57324 -6.00079,-10.55969 z"
       id="path595"
       sodipodi:nodetypes="ccc" />
    <path
       inkscape:connector-curvature="0"
       style="font-size:12px;fill:#ffffff;fill-rule:evenodd;stroke:#ffffff;stroke-width:3.21897697;stroke-linecap:round;stroke-linejoin:round"
       d="m 266.98365,259.00609 c 1.82996,-2.94466 -0.10115,-15.02467 -7.42512,-9.9497 -7.32088,5.07703 5.08529,10.76198 7.42512,9.9497 z"
       id="path597"
       sodipodi:nodetypes="ccc" />
    <path
       inkscape:connector-curvature="0"
       style="font-size:12px;fill:#ffffff;fill-rule:evenodd;stroke:#ffffff;stroke-width:3.21897697;stroke-linecap:round;stroke-linejoin:round"
       d="m 251.01458,248.95524 c 2.23868,-0.81229 2.44201,-8.22296 -3.9644,-6.29391 -6.40435,1.92904 2.23868,7.81733 3.9644,6.29391 z"
       id="path598"
       sodipodi:nodetypes="ccc" />
    <path
       inkscape:connector-curvature="0"
       style="font-size:12px;fill:#ffffff;fill-rule:evenodd;stroke:#ffffff;stroke-width:3.21897697;stroke-linecap:round;stroke-linejoin:round"
       d="m 236.57616,251.8999 c 0,0 -4.47531,-6.19277 -7.93293,-4.87371 -4.37312,4.16257 8.2374,4.97485 7.93293,4.87371 z"
       id="path599"
       sodipodi:nodetypes="ccc" />
    <path
       inkscape:connector-curvature="0"
       style="font-size:12px;fill:#ffffff;fill-rule:evenodd;stroke:#ffffff;stroke-width:3.21897697;stroke-linecap:round;stroke-linejoin:round"
       d="m 186.98968,271.6899 c 1.9053,0.1734 16.02687,-2.32848 20.9078,-7.81011 4.88092,-5.48266 -25.12714,2.34603 -25.12714,2.44718 0,0.10114 2.83526,4.84377 4.21934,5.36293 z"
       id="path600"
       sodipodi:nodetypes="cccc" />
    <path
       inkscape:connector-curvature="0"
       style="font-size:12px;fill:#ffffff;fill-rule:evenodd;stroke:#ffffff;stroke-width:3.21897697;stroke-linecap:round;stroke-linejoin:round"
       d="m 328.10311,236.72969 c 0.72765,-1.29532 -7.51698,-7.17225 -12.41648,-4.85615 -1.26126,4.33906 12.3752,5.74791 12.41648,4.85615 z"
       id="path601"
       sodipodi:nodetypes="ccc" />
    <path
       inkscape:connector-curvature="0"
       style="font-size:12px;fill:#ffffff;fill-rule:evenodd;stroke:#ffffff;stroke-width:3.21897697;stroke-linecap:round;stroke-linejoin:round"
       d="m 300.33787,222.76192 c 1.52651,-2.23352 -3.55775,-11.36991 -13.72729,-6.29391 -10.16955,5.076 10.67632,9.84752 13.72729,6.29391 z"
       id="path602"
       sodipodi:nodetypes="ccc" />
    <path
       inkscape:connector-curvature="0"
       style="font-size:12px;fill:#ffffff;fill-rule:evenodd;stroke:#ffffff;stroke-width:3.21897697;stroke-linecap:round;stroke-linejoin:round"
       d="m 268.20466,217.38144 c 0,0 2.54109,-8.22296 8.64406,-6.59942 6.91628,5.28036 -8.33959,6.90493 -8.64406,6.59942 z"
       id="path603"
       sodipodi:nodetypes="ccc" />
    <path
       inkscape:connector-curvature="0"
       style="font-size:12px;fill:#ffffff;fill-rule:evenodd;stroke:#ffffff;stroke-width:3.21897697;stroke-linecap:round;stroke-linejoin:round"
       d="m 262.20387,211.18868 c -0.91653,-2.33467 -7.32294,-0.91343 -14.64382,3.85809 -7.32397,4.77152 16.88044,1.42227 14.64382,-3.85809 z"
       id="path604"
       sodipodi:nodetypes="ccc" />
    <path
       inkscape:connector-curvature="0"
       style="font-size:12px;fill:#ffffff;fill-rule:evenodd;stroke:#ffffff;stroke-width:3.21897697;stroke-linecap:round;stroke-linejoin:round"
       d="m 280.91427,189.05678 c 0,0 6.52304,-2.91989 8.44073,0 2.74649,4.3659 -8.54188,0.10218 -8.44073,0 z"
       id="path605"
       sodipodi:nodetypes="ccc" />
    <path
       inkscape:connector-curvature="0"
       style="font-size:12px;fill:#ffffff;fill-rule:evenodd;stroke:#ffffff;stroke-width:3.21897697;stroke-linecap:round;stroke-linejoin:round"
       d="m 275.4409,186.20295 c -1.32216,-2.64018 -8.53982,-2.88996 -8.35507,0.92478 -1.20965,2.98904 9.37997,2.43273 8.35507,-0.92478 z"
       id="path606"
       sodipodi:nodetypes="ccc" />
    <path
       inkscape:connector-curvature="0"
       style="font-size:12px;fill:#ffffff;fill-rule:evenodd;stroke:#ffffff;stroke-width:3.21897697;stroke-linecap:round;stroke-linejoin:round"
       d="m 258.23637,186.2143 c -0.71113,-1.52342 -10.97976,0.0289 -14.03176,6.19276 4.89847,2.38215 16.27148,-2.33467 14.03176,-6.19276 z"
       id="path607"
       sodipodi:nodetypes="ccc" />
    <path
       inkscape:connector-curvature="0"
       style="font-size:12px;fill:#ffffff;fill-rule:evenodd;stroke:#ffffff;stroke-width:3.21897697;stroke-linecap:round;stroke-linejoin:round"
       d="m 236.27168,192.50924 c 0,0 -13.50951,8.25908 -14.33934,14.31457 0.40975,5.22876 16.77825,-9.44189 16.77825,-9.44189 0,0 1.42434,-5.78714 -2.43891,-4.87268 z"
       id="path608"
       sodipodi:nodetypes="cccc" />
    <path
       inkscape:connector-curvature="0"
       style="font-size:12px;fill:#ffffff;fill-rule:evenodd;stroke:#ffffff;stroke-width:3.21897697;stroke-linecap:round;stroke-linejoin:round"
       d="m 221.32235,184.99639 c 0.37776,-1.6803 6.67477,-5.57245 7.21973,-5.27933 0.50987,1.69372 -5.14309,6.27843 -7.21973,5.27933 z"
       id="path609"
       sodipodi:nodetypes="ccc" />
    <path
       inkscape:connector-curvature="0"
       style="font-size:12px;fill:#ffffff;fill-rule:evenodd;stroke:#ffffff;stroke-width:3.21897697;stroke-linecap:round;stroke-linejoin:round"
       d="m 225.59226,216.57019 c 0.30448,-2.43685 -16.06815,-2.23456 -9.86404,5.2783 5.1658,6.30113 10.9839,-4.16154 9.86404,-5.2783 z"
       id="path610"
       sodipodi:nodetypes="ccc" />
    <path
       inkscape:connector-curvature="0"
       style="font-size:12px;fill:#ffffff;fill-rule:evenodd;stroke:#ffffff;stroke-width:3.21897697;stroke-linecap:round;stroke-linejoin:round"
       d="m 210.68525,227.35385 c -0.85357,-1.64727 -2.0818,-6.03794 -4.32358,-6.44254 -1.82686,-0.10218 -11.67232,1.92802 -12.42474,3.5949 -0.40666,1.32009 4.07483,9.43468 5.60135,9.638 1.72881,0.71011 10.84249,-5.97808 11.14697,-6.79036 z"
       id="path611"
       sodipodi:nodetypes="ccccc" />
    <path
       inkscape:connector-curvature="0"
       style="font-size:12px;fill:#ffffff;fill-rule:evenodd;stroke:#ffffff;stroke-width:3.21897697;stroke-linecap:round;stroke-linejoin:round"
       d="m 299.01571,282.45705 c 0.50781,-1.72469 17.23859,-7.50666 23.0154,-1.97653 6.81204,9.34075 -23.42102,4.92222 -23.0154,1.97653 z"
       id="path612"
       sodipodi:nodetypes="ccc" />
    <path
       inkscape:connector-curvature="0"
       style="font-size:12px;fill:#ffffff;fill-rule:evenodd;stroke:#ffffff;stroke-width:3.21897697;stroke-linecap:round;stroke-linejoin:round"
       d="m 345.00213,293.3945 c 3.66611,-6.20412 -11.25741,-13.55906 -17.59157,-6.47041 2.1654,8.51711 14.62833,11.60008 17.59157,6.47041 z"
       id="path613"
       sodipodi:nodetypes="ccc" />
  </g>
</svg>
