<?xml version="1.0" encoding="UTF-8" standalone="no"?>
<!-- Created with Sodipodi ("http://www.sodipodi.com/") -->

<svg
   xmlns:dc="http://purl.org/dc/elements/1.1/"
   xmlns:cc="http://creativecommons.org/ns#"
   xmlns:rdf="http://www.w3.org/1999/02/22-rdf-syntax-ns#"
   xmlns:svg="http://www.w3.org/2000/svg"
   xmlns="http://www.w3.org/2000/svg"
   xmlns:sodipodi="http://sodipodi.sourceforge.net/DTD/sodipodi-0.dtd"
   xmlns:inkscape="http://www.inkscape.org/namespaces/inkscape"
   version="1"
   x="0"
   y="0"
   width="640"
   height="480"
   id="svg378"
   inkscape:version="0.48.1 r9760"
   sodipodi:docname="ma.svg">
  <sodipodi:namedview
     pagecolor="#ffffff"
     bordercolor="#666666"
     borderopacity="1"
     objecttolerance="10"
     gridtolerance="10"
     guidetolerance="10"
     inkscape:pageopacity="0"
     inkscape:pageshadow="2"
     inkscape:window-width="1280"
     inkscape:window-height="746"
     id="namedview3385"
     showgrid="false"
     inkscape:zoom="0.4021669"
     inkscape:cx="215.70571"
     inkscape:cy="385.41213"
     inkscape:window-x="0"
     inkscape:window-y="24"
     inkscape:window-maximized="1"
     inkscape:current-layer="svg378" />
  <metadata
     id="metadata3387">
    <rdf:RDF>
      <cc:Work
         rdf:about="">
        <dc:format>image/svg+xml</dc:format>
        <dc:type
           rdf:resource="http://purl.org/dc/dcmitype/StillImage" />
      </cc:Work>
    </rdf:RDF>
  </metadata>
  <defs
     id="defs380">
    <clipPath
       clipPathUnits="userSpaceOnUse"
       id="clipPath11737">
      <rect
         id="rect11739"
         height="480"
         x="0"
         style="fill:#000000;fill-opacity:0.67000002;stroke:none"
         width="640"
         y="-47.999977" />
    </clipPath>
  </defs>
  <g
     transform="translate(0,47.999977)"
     id="flag"
     clip-path="url(#clipPath11737)"
     inkscape:label="#g11718">
    <rect
       width="640"
       height="640"
       x="0"
       y="-127.99998"
       style="font-size:12px;fill:#eb0013;fill-rule:evenodd;stroke-width:1pt"
       id="rect171" />
    <path
       inkscape:connector-curvature="0"
       d="m 371.0117,263.71213 -166.75085,116.61209 42.96654,-131.5749 22.31794,16.16326 -16.01229,48.06302 108.7489,-78.36894 8.72976,29.10547 z m 17.10534,-76.15675 58.20806,195.62407 -109.30342,-81.56675 22.48196,-15.93392 38.89777,29.18677 -40.65272,-128.40322 30.36835,1.09305 z m -68.99905,-38.84263 204.88365,0.24096 -111.6535,80.52889 -8.93299,-26.06733 41.51497,-27.79327 -135.44186,1.91172 9.62973,-28.82097 z M 261.18863,201.01145 326.0652,5.1014212 370.71704,139.78847 343.16328,140.13686 326.71551,88.546521 285.56344,219.15611 261.18863,201.01145 z m 33.24826,70.4071 -165.29056,-121.321 139.52805,-1.07853 -8.13895,26.32429 -51.78632,-0.20904 110.44872,78.66943 -24.76094,17.61485 z"
       style="font-size:12px;fill:#0b5035;fill-rule:evenodd;stroke-width:1pt"
       id="path401" />
  </g>
</svg>
