<?xml version="1.0" encoding="UTF-8" standalone="no"?>
<!-- Created with Sodipodi ("http://www.sodipodi.com/") -->

<svg
   xmlns:dc="http://purl.org/dc/elements/1.1/"
   xmlns:cc="http://creativecommons.org/ns#"
   xmlns:rdf="http://www.w3.org/1999/02/22-rdf-syntax-ns#"
   xmlns:svg="http://www.w3.org/2000/svg"
   xmlns="http://www.w3.org/2000/svg"
   xmlns:sodipodi="http://sodipodi.sourceforge.net/DTD/sodipodi-0.dtd"
   xmlns:inkscape="http://www.inkscape.org/namespaces/inkscape"
   id="svg548"
   sodipodi:version="0.32"
   width="640"
   height="480"
   sodipodi:docname="md.svg"
   version="1.1"
   inkscape:version="0.48.1 r9760">
  <sodipodi:namedview
     id="base"
     showgrid="false"
     inkscape:zoom="0.44080424"
     inkscape:cx="372.04724"
     inkscape:cy="248.03149"
     inkscape:window-width="1280"
     inkscape:window-height="746"
     inkscape:window-x="0"
     inkscape:window-y="24"
     inkscape:window-maximized="1"
     inkscape:current-layer="svg548" />
  <metadata
     id="metadata3477">
    <rdf:RDF>
      <cc:Work
         rdf:about="">
        <dc:format>image/svg+xml</dc:format>
        <dc:type
           rdf:resource="http://purl.org/dc/dcmitype/StillImage" />
      </cc:Work>
    </rdf:RDF>
  </metadata>
  <defs
     id="defs550" />
  <g
     id="flag"
     inkscape:label="#g11602">
    <g
       transform="matrix(1.25,0,0,0.9375,0,-5.625e-6)"
       id="g11439">
      <rect
         y="6.0000002e-06"
         x="0"
         height="512"
         width="170.66667"
         id="rect551"
         style="font-size:12px;fill:#00319c;fill-opacity:1;fill-rule:evenodd;stroke-width:1pt" />
      <rect
         y="6.0000002e-06"
         x="170.66667"
         height="512"
         width="170.66667"
         id="rect552"
         style="font-size:12px;fill:#ffde00;fill-opacity:1;fill-rule:evenodd;stroke-width:1pt" />
      <rect
         y="6.0000002e-06"
         x="341.33334"
         height="512"
         width="170.66667"
         id="rect553"
         style="font-size:12px;fill:#de2110;fill-opacity:1;fill-rule:evenodd;stroke-width:1pt" />
    </g>
    <g
       transform="matrix(1.2302852,0,0,1.2302852,4.068866,-75.139696)"
       id="g11201">
      <path
         sodipodi:nodetypes="cccccccccc"
         id="path905"
         d="m 289.60847,321.4847 c 0,0 18.62839,26.87685 19.72408,28.45771 1.09601,1.5813 2.19171,3.16216 0.53732,4.20916 -1.65486,1.04729 -1.11754,5.25646 -0.0218,6.83732 2.1917,3.16216 4.94178,3.69603 6.59664,2.64873 1.65439,-1.047 13.23603,-8.37659 14.89042,-9.42359 1.65485,-1.04729 2.21354,-3.67515 0.0218,-6.83732 -1.25782,-1.59379 -4.94179,-3.69602 -6.59664,-2.64873 -1.65439,1.047 -2.75008,-0.53386 -3.84609,-2.11516 -1.0957,-1.58086 -17.53269,-25.29599 -19.72409,-28.45771"
         style="font-size:12px;fill:#ff1900;fill-rule:evenodd;stroke:#000000;stroke-width:0.44500418pt"
         inkscape:connector-curvature="0" />
      <path
         transform="matrix(0.42858344,-0.3445226,0.36054679,0.40953541,-29.657825,77.263827)"
         sodipodi:ry="44.291351"
         sodipodi:rx="21.259842"
         sodipodi:cy="696.25977"
         sodipodi:cx="155.90552"
         d="m 177.16536,696.25977 c 0,24.46143 -9.51836,44.29135 -21.25984,44.29135 -11.74149,0 -21.25984,-19.82992 -21.25984,-44.29135 0,-24.46144 9.51835,-44.29136 21.25984,-44.29136 11.74148,0 21.25984,19.82992 21.25984,44.29136 z"
         id="path907"
         style="fill:#a77b3b;fill-opacity:1;fill-rule:evenodd;stroke:#000000;stroke-width:2.54006147;stroke-linecap:butt;stroke-linejoin:miter;stroke-opacity:1;stroke-dasharray:none"
         sodipodi:type="arc" />
      <path
         sodipodi:nodetypes="cccccccccc"
         id="path898"
         d="m 209.61328,309.90905 c 0,0 -16.44582,28.14717 -17.41314,29.80275 -0.9676,1.65605 -1.93492,3.31162 -3.6675,2.38729 -1.73307,-0.92459 -5.40057,1.46271 -6.36789,3.11829 -1.93491,3.31162 -1.16965,5.89153 0.56342,6.81612 1.73258,0.92433 13.86163,7.39516 15.59421,8.31949 1.73308,0.92459 4.43298,0.19334 6.36789,-3.11829 0.90497,-1.79917 1.16966,-5.89153 -0.56341,-6.81612 -1.73259,-0.92433 -0.76527,-2.57991 0.20233,-4.23596 0.96732,-1.65557 15.4785,-26.49159 17.41314,-29.80275"
         style="font-size:12px;fill:#ff1900;fill-rule:evenodd;stroke:#000000;stroke-width:0.44500418pt"
         inkscape:connector-curvature="0" />
      <path
         sodipodi:nodetypes="ccccccccccccccc"
         id="path895"
         d="m 265.87186,289.12839 -15.87628,0 0,0 c -0.52478,0.50199 -5.0395,28.9349 -9.92219,39.82201 -5.95353,13.27401 -23.78333,24.98744 -23.78333,24.98744 0,0 10.6822,3.23515 13.86059,5.35338 0.79026,-0.2221 17.8298,-3.79227 19.81413,-24.65188 1.98488,20.85961 -11.87627,30.34081 -11.87627,30.34081 0,0 19.84493,5.68894 19.84493,18.96294 0,-13.274 19.84549,-18.96294 19.84549,-18.96294 0,0 -9.95355,-9.4812 -11.93787,-30.34081 3.96865,20.85961 19.08548,24.42978 19.87573,24.65188 3.1784,-2.11823 13.8606,-5.35338 13.8606,-5.35338 0,0 -17.82981,-11.71343 -23.78334,-24.98744 -4.88268,-10.88711 -9.3974,-39.32002 -9.92219,-39.82201 z"
         style="font-size:12px;fill:#a77b3b;fill-opacity:1;fill-rule:evenodd;stroke:#000000;stroke-width:1.39063764;stroke-dasharray:none"
         inkscape:connector-curvature="0" />
      <path
         sodipodi:nodetypes="cccccccccccccc"
         id="path728"
         d="m 198.36803,194.3035 29.76767,9.4812 c 9.92219,0 19.84494,-9.47104 19.84494,-18.95277 0.32988,-21.09349 -7.93842,-28.45432 -9.92275,-28.45432 l 3.96921,-3.7928 -5.95353,-5.68893 c 0,0 1.99048,-9.83764 21.82925,-9.47157 19.83821,0.36659 19.84494,9.48173 19.84494,18.96294 0,9.48174 -9.92219,9.48174 -9.92219,28.44468 0,9.48173 9.92219,18.96294 19.84493,18.96294 l 29.76768,-9.48121 0,94.81471 -119.07015,0 0,-94.82487 z"
         style="fill:#a77b3b;fill-opacity:1;fill-rule:evenodd;stroke:#000000;stroke-width:1.39063764;stroke-linecap:butt;stroke-linejoin:miter;stroke-opacity:1;stroke-dasharray:none"
         inkscape:connector-curvature="0" />
      <g
         transform="matrix(0.56006921,0,0,0.53517741,9.8407606,-55.997908)"
         id="g853">
        <path
           sodipodi:nodetypes="ccccccccccc"
           transform="matrix(0.241951,0,0,0.710372,345.0033,267.2046)"
           id="path732"
           d="m 302.156,292.239 14.645,14.964 14.644,-14.964 14.645,14.964 29.29,-14.964 14.261,15.809 15.028,-15.809 21.605,15.809 22.329,-15.809 14.645,14.964 14.645,-14.964"
           style="font-size:12px;fill:none;stroke:#000000;stroke-width:0.49014813;stroke-dasharray:none"
           inkscape:connector-curvature="0" />
        <path
           transform="translate(-1.525879e-4,1.220703e-4)"
           id="path827"
           d="m 432.283,435.827 -7.086,38.976"
           style="fill:none;stroke:#000000;stroke-width:0.20320491;stroke-linecap:butt;stroke-linejoin:miter;stroke-opacity:1;stroke-dasharray:none"
           inkscape:connector-curvature="0" />
        <path
           transform="translate(-2.288818e-4,1.220703e-4)"
           id="path828"
           d="m 435.827,435.827 0,38.976"
           style="fill:none;stroke:#000000;stroke-width:0.20320491;stroke-linecap:butt;stroke-linejoin:miter;stroke-opacity:1;stroke-dasharray:none"
           inkscape:connector-curvature="0" />
        <path
           id="path829"
           d="m 442.913,435.827 0,38.976"
           style="fill:none;stroke:#000000;stroke-width:0.20320491;stroke-linecap:butt;stroke-linejoin:miter;stroke-opacity:1;stroke-dasharray:none"
           inkscape:connector-curvature="0" />
        <path
           transform="translate(0,1.220703e-4)"
           id="path830"
           d="m 450,435.827 3.543,38.976"
           style="fill:none;stroke:#000000;stroke-width:0.20320491;stroke-linecap:butt;stroke-linejoin:miter;stroke-opacity:1;stroke-dasharray:none"
           inkscape:connector-curvature="0" />
        <path
           id="path831"
           d="m 457.087,435.827 3.543,38.976"
           style="fill:none;stroke:#000000;stroke-width:0.20320491;stroke-linecap:butt;stroke-linejoin:miter;stroke-opacity:1;stroke-dasharray:none"
           inkscape:connector-curvature="0" />
      </g>
      <g
         transform="matrix(0.56006921,0,0,0.53517741,9.840782,-55.99781)"
         style="stroke:#000000;stroke-width:2.54006147;stroke-opacity:1;stroke-dasharray:none"
         id="g712">
        <path
           transform="matrix(-1,0,0,1,620.079,2.746582e-4)"
           sodipodi:nodetypes="cccsccccc"
           id="path691"
           d="m 318.898,361.417 c 35.433,17.717 35.433,53.149 35.433,70.866 -1.251,16.117 0,354.331 0,354.331 0,0 -2.306,-20.022 -17.717,-35.433 l -17.716,-17.716 -17.717,-17.717 c -12.951,-11.774 -17.716,-35.433 -17.716,-53.15 l 0,-248.031 c 0,0 0,-17.717 35.433,-53.15 z"
           style="font-size:12px;fill:#a77b3b;fill-rule:evenodd;stroke:#000000;stroke-width:2.54006147;stroke-opacity:1;stroke-dasharray:none"
           inkscape:connector-curvature="0" />
        <path
           transform="matrix(-1,0,0,1,620.079,-141.732)"
           sodipodi:nodetypes="ccccc"
           id="path692"
           d="m 283.465,574.016 c 0.417,0 17.716,-17.717 17.716,-17.717 0,0 17.717,17.717 17.717,17.717 0,0 17.716,-17.717 17.716,-17.717 l 17.717,17.717"
           style="font-size:12px;fill:none;stroke:#000000;stroke-width:2.54006147;stroke-opacity:1;stroke-dasharray:none"
           inkscape:connector-curvature="0" />
        <path
           transform="matrix(-1,0,0,-1,620.0792,1024.016)"
           sodipodi:nodetypes="ccccc"
           id="path693"
           d="m 283.465,574.016 c 0.417,0 17.716,-17.717 17.716,-17.717 0,0 17.717,17.717 17.717,17.717 0,0 17.716,-17.717 17.716,-17.717 l 17.717,17.717"
           style="font-size:12px;fill:none;stroke:#000000;stroke-width:2.54006147;stroke-opacity:1;stroke-dasharray:none"
           inkscape:connector-curvature="0" />
        <path
           transform="matrix(-1,0,0,1,620.0792,-70.86642)"
           sodipodi:nodetypes="ccccc"
           id="path694"
           d="m 283.465,574.016 c 0.417,0 17.716,-17.717 17.716,-17.717 0,0 17.717,17.717 17.717,17.717 0,0 17.716,-17.717 17.716,-17.717 l 17.717,17.717"
           style="font-size:12px;fill:none;stroke:#000000;stroke-width:2.54006147;stroke-opacity:1;stroke-dasharray:none"
           inkscape:connector-curvature="0" />
        <path
           transform="matrix(-1,0,0,1.89706,620.079,-642.0687)"
           sodipodi:nodetypes="cc"
           id="path695"
           d="m 301.389,556.986 -0.208,158.762"
           style="font-size:12px;fill:none;stroke:#000000;stroke-width:2.54006147;stroke-opacity:1;stroke-dasharray:none"
           inkscape:connector-curvature="0" />
        <path
           transform="matrix(-1,0,0,1.702719,602.5704,-485.9397)"
           sodipodi:nodetypes="cc"
           id="path696"
           d="m 301.389,539.269 -0.208,176.479"
           style="font-size:12px;fill:none;stroke:#000000;stroke-width:2.54006147;stroke-opacity:1;stroke-dasharray:none"
           inkscape:connector-curvature="0" />
        <path
           transform="matrix(-1,0,0,1.907388,584.8538,-614.0281)"
           sodipodi:nodetypes="cc"
           id="path697"
           d="m 301.389,539.269 -0.208,176.479"
           style="font-size:12px;fill:none;stroke:#000000;stroke-width:2.54006147;stroke-opacity:1;stroke-dasharray:none"
           inkscape:connector-curvature="0" />
      </g>
      <g
         transform="matrix(0.56006921,0,0,0.53517741,9.840782,-55.99781)"
         style="stroke:#000000;stroke-width:2.54006147;stroke-opacity:1;stroke-dasharray:none"
         id="g720">
        <path
           transform="translate(265.7477,2.746582e-4)"
           sodipodi:nodetypes="cccsccccc"
           id="path675"
           d="m 318.898,361.417 c 35.433,17.717 35.433,53.149 35.433,70.866 -1.251,16.117 0,354.331 0,354.331 0,0 -2.306,-20.022 -17.717,-35.433 l -17.716,-17.716 -17.717,-17.717 c -12.951,-11.774 -17.716,-35.433 -17.716,-53.15 l 0,-248.031 c 0,0 0,-17.717 35.433,-53.15 z"
           style="font-size:12px;fill:#a77b3b;fill-rule:evenodd;stroke:#000000;stroke-width:2.54006147;stroke-opacity:1;stroke-dasharray:none"
           inkscape:connector-curvature="0" />
        <path
           transform="translate(265.7477,-141.732)"
           sodipodi:nodetypes="ccccc"
           id="path676"
           d="m 283.465,574.016 c 0.417,0 17.716,-17.717 17.716,-17.717 0,0 17.717,17.717 17.717,17.717 0,0 17.716,-17.717 17.716,-17.717 l 17.717,17.717"
           style="font-size:12px;fill:none;stroke:#000000;stroke-width:2.54006147;stroke-opacity:1;stroke-dasharray:none"
           inkscape:connector-curvature="0" />
        <path
           transform="matrix(1,0,0,-1,265.7476,1024.016)"
           sodipodi:nodetypes="ccccc"
           id="path677"
           d="m 283.465,574.016 c 0.417,0 17.716,-17.717 17.716,-17.717 0,0 17.717,17.717 17.717,17.717 0,0 17.716,-17.717 17.716,-17.717 l 17.717,17.717"
           style="font-size:12px;fill:none;stroke:#000000;stroke-width:2.54006147;stroke-opacity:1;stroke-dasharray:none"
           inkscape:connector-curvature="0" />
        <path
           transform="translate(265.7476,-70.86597)"
           sodipodi:nodetypes="ccccc"
           id="path678"
           d="m 283.465,574.016 c 0.417,0 17.716,-17.717 17.716,-17.717 0,0 17.717,17.717 17.717,17.717 0,0 17.716,-17.717 17.716,-17.717 l 17.717,17.717"
           style="font-size:12px;fill:none;stroke:#000000;stroke-width:2.54006147;stroke-opacity:1;stroke-dasharray:none"
           inkscape:connector-curvature="0" />
        <path
           transform="matrix(1,0,0,1.89706,265.7477,-642.0687)"
           sodipodi:nodetypes="cc"
           id="path679"
           d="m 301.389,556.986 -0.208,158.762"
           style="font-size:12px;fill:none;stroke:#000000;stroke-width:2.54006147;stroke-opacity:1;stroke-dasharray:none"
           inkscape:connector-curvature="0" />
        <path
           transform="matrix(1,0,0,1.702719,283.2563,-485.9397)"
           sodipodi:nodetypes="cc"
           id="path680"
           d="m 301.389,539.269 -0.208,176.479"
           style="font-size:12px;fill:none;stroke:#000000;stroke-width:2.54006147;stroke-opacity:1;stroke-dasharray:none"
           inkscape:connector-curvature="0" />
        <path
           transform="matrix(1,0,0,1.907388,300.9729,-614.0281)"
           sodipodi:nodetypes="cc"
           id="path681"
           d="m 301.389,539.269 -0.208,176.479"
           style="font-size:12px;fill:none;stroke:#000000;stroke-width:2.54006147;stroke-opacity:1;stroke-dasharray:none"
           inkscape:connector-curvature="0" />
      </g>
      <path
         transform="matrix(0.51698925,0.20583244,-0.21540598,0.4940121,290.23546,-73.210539)"
         sodipodi:ry="44.291351"
         sodipodi:rx="21.259842"
         sodipodi:cy="696.25977"
         sodipodi:cx="155.90552"
         d="m 177.16536,696.25977 c 0,24.46143 -9.51836,44.29135 -21.25984,44.29135 -11.74149,0 -21.25984,-19.82992 -21.25984,-44.29135 0,-24.46144 9.51835,-44.29136 21.25984,-44.29136 11.74148,0 21.25984,19.82992 21.25984,44.29136 z"
         id="path903"
         style="fill:#a77b3b;fill-opacity:1;fill-rule:evenodd;stroke:#000000;stroke-width:2.54006147;stroke-linecap:butt;stroke-linejoin:miter;stroke-opacity:1;stroke-dasharray:none"
         sodipodi:type="arc" />
      <g
         transform="matrix(0.56006921,0,0,0.53517741,9.840782,-55.99781)"
         id="g860">
        <rect
           transform="translate(1.525879e-4,-1.831055e-4)"
           y="485.43301"
           x="336.6142"
           height="106.29919"
           width="212.59839"
           id="rect741"
           style="font-size:12px;fill:#ff0000;fill-rule:evenodd;stroke-width:1pt" />
        <path
           transform="matrix(0.999998,0,0,0.999999,8.614834e-4,7.019043e-4)"
           sodipodi:nodetypes="cccccc"
           id="path742"
           d="m 336.614,591.732 212.599,0 0,53.15 c 0,35.433 -53.15,35.433 -106.299,70.866 -53.15,-35.433 -106.3,-35.433 -106.3,-70.866 l 0,-53.15 z"
           style="font-size:12px;fill:#564dff;fill-rule:evenodd;stroke-width:2.5"
           inkscape:connector-curvature="0" />
        <path
           transform="matrix(0.999997,0,0,0.999999,0.00158139,3.204345e-4)"
           sodipodi:nodetypes="cccccc"
           id="path740"
           d="m 336.614,485.433 212.599,0 0,159.449 c 0,35.433 -53.15,35.433 -106.3,70.866 -53.149,-35.433 -106.299,-35.433 -106.299,-70.866 l 0,-159.449 z"
           style="font-size:12px;fill:none;stroke:#ffff00;stroke-width:2.03205729"
           inkscape:connector-curvature="0" />
        <path
           sodipodi:nodetypes="cccccccscccccccccsssccc"
           transform="matrix(0.700002,0,0,0.469564,134.0233,431.523)"
           id="path744"
           d="m 385.59,129.9 c 0,0 -50.618,55.447 -50.618,108.597 0,53.149 53.149,70.866 53.149,70.866 0,0 -17.717,0 -17.717,70.866 0,35.433 53.15,17.717 53.15,35.433 0,17.717 -0.751,60.578 0,88.583 0,17.716 -35.433,0 -35.433,17.716 0,8.859 26.575,53.15 53.15,53.15 26.574,0 53.149,-44.291 53.149,-53.15 0,-17.716 -35.433,0 -35.433,-17.716 0,-42.823 0,-70.866 0,-88.583 0,-17.716 53.15,0 53.15,-35.433 0,-70.866 -17.717,-70.866 -17.717,-70.866 0,0 53.15,-17.717 53.15,-70.866 0,-53.149 -50.619,-108.597 -50.619,-108.596 0,-0.001 28.473,73.163 28.473,108.596 0,17.717 -13.287,53.149 -48.72,53.149 0,0 -8.961,-17.716 -17.717,0 0,0 -10.189,-17.716 -17.716,0 -2.598,6.115 -7.207,-17.716 -17.717,0 -4.465,4.697 -7.984,-17.716 -17.717,0 -17.716,0 -53.148,-17.716 -53.149,-53.149 0,-35.433 32.902,-108.597 32.902,-108.597 z"
           style="font-size:12px;fill:#ffff00;fill-rule:evenodd;stroke:#000000;stroke-width:2.44757867"
           inkscape:connector-curvature="0" />
        <path
           transform="matrix(0.700002,0,0,0.469564,136.6913,524.9152)"
           sodipodi:nodetypes="cssss"
           id="path746"
           d="m 382.677,248.032 c -3.543,3.543 4.581,61.274 7.087,63.779 3.543,3.543 24.803,3.543 28.346,0 2.525,-2.525 0,-56.693 -3.543,-60.236 -3.543,-3.544 -29.384,-6.049 -31.89,-3.543 z"
           style="font-size:12px;fill:#ffff00;fill-rule:evenodd;stroke:#000000;stroke-width:2.44757867"
           inkscape:connector-curvature="0" />
        <path
           transform="matrix(-0.700002,0,0,0.469564,749.1356,524.9152)"
           sodipodi:nodetypes="cssss"
           id="path747"
           d="m 382.677,248.032 c -3.543,3.543 4.581,61.274 7.087,63.779 3.543,3.543 24.803,3.543 28.346,0 2.525,-2.525 0,-56.693 -3.543,-60.236 -3.543,-3.544 -29.384,-6.049 -31.89,-3.543 z"
           style="font-size:12px;fill:#ffff00;fill-rule:evenodd;stroke:#000000;stroke-width:2.44757867"
           inkscape:connector-curvature="0" />
        <path
           transform="matrix(0.80459,0,0,0.585361,96.52766,497.7921)"
           sodipodi:ry="15.944901"
           sodipodi:rx="15.944885"
           sodipodi:cy="228.54329"
           sodipodi:cx="398.62204"
           d="m 414.56693,228.54329 c 0,8.80613 -7.13877,15.9449 -15.94489,15.9449 -8.80612,0 -15.94489,-7.13877 -15.94489,-15.9449 0,-8.80613 7.13877,-15.9449 15.94489,-15.9449 8.80612,0 15.94489,7.13877 15.94489,15.9449 z"
           id="path748"
           style="font-size:12px;fill:#ffff00;fill-rule:evenodd;stroke:#000000;stroke-width:2.44757867"
           sodipodi:type="arc" />
        <path
           transform="matrix(0.804596,0,0,0.585368,147.8421,497.7906)"
           sodipodi:ry="15.944901"
           sodipodi:rx="15.944885"
           sodipodi:cy="228.54329"
           sodipodi:cx="398.62204"
           d="m 414.56693,228.54329 c 0,8.80613 -7.13877,15.9449 -15.94489,15.9449 -8.80612,0 -15.94489,-7.13877 -15.94489,-15.9449 0,-8.80613 7.13877,-15.9449 15.94489,-15.9449 8.80612,0 15.94489,7.13877 15.94489,15.9449 z"
           id="path749"
           style="font-size:12px;fill:#ffff00;fill-rule:evenodd;stroke:#000000;stroke-width:2.44757867"
           sodipodi:type="arc" />
        <path
           transform="matrix(0.38889,0,0,0.26087,304.0153,626.1482)"
           sodipodi:ry="15.944901"
           sodipodi:rx="15.944885"
           sodipodi:cy="228.54329"
           sodipodi:cx="398.62204"
           d="m 414.56693,228.54329 c 0,8.80613 -7.13877,15.9449 -15.94489,15.9449 -8.80612,0 -15.94489,-7.13877 -15.94489,-15.9449 0,-8.80613 7.13877,-15.9449 15.94489,-15.9449 8.80612,0 15.94489,7.13877 15.94489,15.9449 z"
           id="path750"
           style="font-size:12px;fill-rule:evenodd;stroke-width:1pt"
           sodipodi:type="arc" />
        <path
           transform="matrix(0.38889,0,0,0.26087,271.7711,626.1482)"
           sodipodi:ry="15.944901"
           sodipodi:rx="15.944885"
           sodipodi:cy="228.54329"
           sodipodi:cx="398.62204"
           d="m 414.56693,228.54329 c 0,8.80613 -7.13877,15.9449 -15.94489,15.9449 -8.80612,0 -15.94489,-7.13877 -15.94489,-15.9449 0,-8.80613 7.13877,-15.9449 15.94489,-15.9449 8.80612,0 15.94489,7.13877 15.94489,15.9449 z"
           id="path751"
           style="font-size:12px;fill-rule:evenodd;stroke-width:1pt"
           sodipodi:type="arc" />
        <polygon
           d="m 439.37008,549.92126 -7.78323,-10.26471 -12.76183,1.75467 1.75467,-12.76183 -10.26472,-7.78324 10.26472,-7.78324 -1.75467,-12.76183 12.76183,1.75467 7.78324,-10.26471 7.78323,10.26471 12.76184,-1.75467 -1.75467,12.76183 10.26471,7.78324 -10.26471,7.78324 1.75466,12.76183 -12.76183,-1.75467 z"
           transform="matrix(0.975609,0,0,0.975608,14.25997,16.24834)"
           points="439.37,549.921 431.587,539.657 418.825,541.411 420.58,528.649 410.315,520.866 420.58,513.083 418.825,500.321 431.587,502.076 439.37,491.811 447.153,502.076 459.915,500.321 458.16,513.083 468.425,520.866 458.16,528.649 459.915,541.411 447.153,539.657 439.37,549.921 "
           sodipodi:arg2="1.9634954"
           sodipodi:arg1="1.5707964"
           sodipodi:r2="20.338581"
           sodipodi:r1="29.055115"
           sodipodi:cy="520.86615"
           sodipodi:cx="439.37009"
           sodipodi:sides="8"
           id="polygon785"
           style="font-size:12px;fill:#ffff00;fill-rule:evenodd;stroke:#000000;stroke-width:0.81281967pt"
           sodipodi:type="star"
           inkscape:flatsided="false"
           inkscape:rounded="0"
           inkscape:randomized="0" />
        <path
           transform="translate(1.525879e-4,-1.831055e-4)"
           sodipodi:nodetypes="ccccc"
           id="path786"
           d="m 496.063,591.732 c 0,0 21.26,10.63 21.26,10.63 l 21.26,-10.63 -21.26,-10.63 -21.26,10.63 z"
           style="font-size:12px;fill:#ffff00;fill-rule:evenodd;stroke:#000000;stroke-width:0.81281967pt"
           inkscape:connector-curvature="0" />
        <path
           transform="translate(-152.362,1.678466e-4)"
           sodipodi:nodetypes="ccccc"
           id="path788"
           d="m 496.063,591.732 c 0,0 21.26,10.63 21.26,10.63 l 21.26,-10.63 -21.26,-10.63 -21.26,10.63 z"
           style="font-size:12px;fill:#ffff00;fill-rule:evenodd;stroke:#000000;stroke-width:0.81281967pt"
           inkscape:connector-curvature="0" />
        <path
           transform="matrix(0.867169,-0.498014,0.498014,0.867169,-263.1537,350.1075)"
           sodipodi:nodetypes="ccccc"
           id="path790"
           d="m 535.039,659.055 c -3.543,-7.086 -14.173,-10.63 -21.259,-10.63 -7.087,0 -14.174,0 -21.26,10.63 0,-14.173 10.502,-21.26 21.26,-21.26 10.756,0 21.259,10.503 21.259,21.26 z"
           style="font-size:12px;fill:#ffff00;fill-rule:evenodd;stroke:#000000;stroke-width:0.81281967pt"
           inkscape:connector-curvature="0" />
        <path
           transform="translate(-3.543166,-17.71673)"
           sodipodi:ry="7.0866389"
           sodipodi:rx="7.0866089"
           sodipodi:cy="651.96851"
           sodipodi:cx="379.13385"
           d="m 386.22046,651.96851 c 0,3.91384 -3.17278,7.08663 -7.08661,7.08663 -3.91383,0 -7.08661,-3.17279 -7.08661,-7.08663 0,-3.91385 3.17278,-7.08664 7.08661,-7.08664 3.91383,0 7.08661,3.17279 7.08661,7.08664 z"
           id="path792"
           style="font-size:12px;fill:#ffff00;fill-rule:evenodd;stroke:#000000;stroke-width:0.81281967pt"
           sodipodi:type="arc" />
        <path
           transform="translate(-10.62977,7.086426)"
           sodipodi:ry="7.0866389"
           sodipodi:rx="7.0866089"
           sodipodi:cy="651.96851"
           sodipodi:cx="379.13385"
           d="m 386.22046,651.96851 c 0,3.91384 -3.17278,7.08663 -7.08661,7.08663 -3.91383,0 -7.08661,-3.17279 -7.08661,-7.08663 0,-3.91385 3.17278,-7.08664 7.08661,-7.08664 3.91383,0 7.08661,3.17279 7.08661,7.08664 z"
           id="path793"
           style="font-size:12px;fill:#ffff00;fill-rule:evenodd;stroke:#000000;stroke-width:0.81281967pt"
           sodipodi:type="arc" />
        <path
           transform="translate(-14.17309,-7.086853)"
           sodipodi:ry="7.0866389"
           sodipodi:rx="7.0866089"
           sodipodi:cy="651.96851"
           sodipodi:cx="379.13385"
           d="m 386.22046,651.96851 c 0,3.91384 -3.17278,7.08663 -7.08661,7.08663 -3.91383,0 -7.08661,-3.17279 -7.08661,-7.08663 0,-3.91385 3.17278,-7.08664 7.08661,-7.08664 3.91383,0 7.08661,3.17279 7.08661,7.08664 z"
           id="path795"
           style="font-size:12px;fill:#ffff00;fill-rule:evenodd;stroke:#000000;stroke-width:0.81281967pt"
           sodipodi:type="arc" />
        <path
           transform="translate(3.543473,7.086426)"
           sodipodi:ry="7.0866389"
           sodipodi:rx="7.0866089"
           sodipodi:cy="651.96851"
           sodipodi:cx="379.13385"
           d="m 386.22046,651.96851 c 0,3.91384 -3.17278,7.08663 -7.08661,7.08663 -3.91383,0 -7.08661,-3.17279 -7.08661,-7.08663 0,-3.91385 3.17278,-7.08664 7.08661,-7.08664 3.91383,0 7.08661,3.17279 7.08661,7.08664 z"
           id="path796"
           style="font-size:12px;fill:#ffff00;fill-rule:evenodd;stroke:#000000;stroke-width:0.81281967pt"
           sodipodi:type="arc" />
        <path
           transform="translate(7.086755,-7.086853)"
           sodipodi:ry="7.0866389"
           sodipodi:rx="7.0866089"
           sodipodi:cy="651.96851"
           sodipodi:cx="379.13385"
           d="m 386.22046,651.96851 c 0,3.91384 -3.17278,7.08663 -7.08661,7.08663 -3.91383,0 -7.08661,-3.17279 -7.08661,-7.08663 0,-3.91385 3.17278,-7.08664 7.08661,-7.08664 3.91383,0 7.08661,3.17279 7.08661,7.08664 z"
           id="path797"
           style="font-size:12px;fill:#ffff00;fill-rule:evenodd;stroke:#000000;stroke-width:0.81281967pt"
           sodipodi:type="arc" />
        <path
           transform="translate(-3.543128,-3.543533)"
           sodipodi:ry="7.0866389"
           sodipodi:rx="7.0866089"
           sodipodi:cy="651.96851"
           sodipodi:cx="379.13385"
           d="m 386.22046,651.96851 c 0,3.91384 -3.17278,7.08663 -7.08661,7.08663 -3.91383,0 -7.08661,-3.17279 -7.08661,-7.08663 0,-3.91385 3.17278,-7.08664 7.08661,-7.08664 3.91383,0 7.08661,3.17279 7.08661,7.08664 z"
           id="path791"
           style="font-size:12px;fill:#ffff00;fill-rule:evenodd;stroke:#000000;stroke-width:0.81281967pt"
           sodipodi:type="arc" />
      </g>
      <g
         transform="matrix(0.56006921,0,0,0.53517741,9.840782,-55.99781)"
         id="g881">
        <path
           sodipodi:nodetypes="cccc"
           transform="matrix(1.142857,0,0,1.666672,-36.78401,-242.1282)"
           id="path822"
           d="m 389.764,386.22 c -15.647,0 -17.716,1.772 -24.803,3.544 0,-4.89 17.424,-10.63 33.071,-10.63 0,3.543 -4.134,7.087 -8.268,7.086 z"
           style="font-size:12px;fill:#da4500;fill-opacity:1;fill-rule:evenodd;stroke-width:1pt"
           inkscape:connector-curvature="0" />
        <path
           transform="translate(7.086602,-3.543274)"
           sodipodi:ry="7.0866389"
           sodipodi:rx="7.0866241"
           sodipodi:cy="386.22043"
           sodipodi:cx="421.65356"
           d="m 428.74019,386.22043 c 0,3.91384 -3.17279,7.08664 -7.08663,7.08664 -3.91383,0 -7.08662,-3.1728 -7.08662,-7.08664 0,-3.91384 3.17279,-7.08664 7.08662,-7.08664 3.91384,0 7.08663,3.1728 7.08663,7.08664 z"
           id="path823"
           style="fill:#cac9c7;fill-opacity:1;fill-rule:evenodd;stroke:none"
           sodipodi:type="arc" />
        <path
           sodipodi:nodetypes="ccccccccccccc"
           id="path825"
           d="m 361.417,357.874 0,10.63 17.717,0 0,53.15 10.63,0 0,-53.15 17.716,0 0,-10.63 -17.716,0 0,-14.173 -10.63,0 0,14.173 -17.717,0 z"
           style="fill:#ffff00;fill-opacity:1;fill-rule:evenodd;stroke:#000000;stroke-width:0.81281967pt;stroke-linecap:butt;stroke-linejoin:miter;stroke-opacity:1"
           inkscape:connector-curvature="0" />
        <path
           sodipodi:nodetypes="cccc"
           transform="matrix(1.333335,0,0,2.222188,-111.0251,-470.4598)"
           id="path821"
           d="m 396.851,387.107 c -15.647,0 -24.803,0.885 -31.89,2.657 0,-4.89 9.156,-10.63 24.803,-10.63 3.543,0 7.087,5.315 7.087,7.973 z"
           style="font-size:12px;fill:#da4500;fill-opacity:1;fill-rule:evenodd;stroke-width:1pt"
           inkscape:connector-curvature="0" />
      </g>
      <g
         transform="matrix(0.56006921,0,0,0.53517741,9.840782,-55.99781)"
         id="g920">
        <path
           transform="matrix(0.563402,0.450357,-0.204237,0.35982,321.1346,327.0169)"
           sodipodi:nodetypes="ccccc"
           id="path908"
           d="M 67.3228,612.992 C 53.1496,598.819 50.689,591.634 70.8661,602.894 l 283.7499,247.5 -3.366,6.968 -283.9272,-244.37 z"
           style="fill:#008500;fill-opacity:1;fill-rule:evenodd;stroke:#000000;stroke-width:0.71121722;stroke-linecap:butt;stroke-linejoin:miter;stroke-opacity:1;stroke-dasharray:none"
           inkscape:connector-curvature="0" />
        <path
           transform="matrix(0.131707,-0.180194,0.3274,0.239303,23.69222,542.1456)"
           sodipodi:nodetypes="ccccccc"
           id="path912"
           d="m 106.299,825.591 c 61.099,-21.171 49.646,-102.466 42.618,-103.037 -7.028,-0.572 -33.42,18.668 -36.963,36.385 -7.086,-28.346 -23.1017,-54.578 -32.3424,-51.546 -13.861,3.032 2.4664,47.491 -4.6203,54.578 -7.0866,3.543 -39.1168,-21.736 -46.2034,-18.193 -7.0866,3.544 18.4814,100.059 77.5111,81.813 z"
           style="fill:#008f00;fill-opacity:1;fill-rule:evenodd;stroke:none"
           inkscape:connector-curvature="0" />
        <path
           transform="matrix(0.131707,-0.180194,0.3274,0.239303,-4.409948,495.3157)"
           sodipodi:nodetypes="ccccccc"
           id="path913"
           d="m 106.299,825.591 c 61.099,-21.171 49.646,-102.466 42.618,-103.037 -7.028,-0.572 -33.42,18.668 -36.963,36.385 -7.086,-28.346 -23.1017,-54.578 -32.3424,-51.546 -13.861,3.032 2.4664,47.491 -4.6203,54.578 -7.0866,3.543 -39.1168,-21.736 -46.2034,-18.193 -7.0866,3.544 18.4814,100.059 77.5111,81.813 z"
           style="fill:#008f00;fill-opacity:1;fill-rule:evenodd;stroke:none"
           inkscape:connector-curvature="0" />
        <path
           transform="matrix(0.131707,-0.180194,0.3274,0.239303,-25.91408,452.7961)"
           sodipodi:nodetypes="ccccccc"
           id="path914"
           d="m 106.299,825.591 c 61.099,-21.171 49.646,-102.466 42.618,-103.037 -7.028,-0.572 -33.42,18.668 -36.963,36.385 -7.086,-28.346 -23.1017,-54.578 -32.3424,-51.546 -13.861,3.032 2.4664,47.491 -4.6203,54.578 -7.0866,3.543 -39.1168,-21.736 -46.2034,-18.193 -7.0866,3.544 18.4814,100.059 77.5111,81.813 z"
           style="fill:#008f00;fill-opacity:1;fill-rule:evenodd;stroke:none"
           inkscape:connector-curvature="0" />
        <path
           transform="matrix(0.131707,-0.180194,0.3274,0.239303,-47.17393,406.7332)"
           sodipodi:nodetypes="ccccccc"
           id="path915"
           d="m 106.299,825.591 c 61.099,-21.171 49.646,-102.466 42.618,-103.037 -7.028,-0.572 -33.42,18.668 -36.963,36.385 -7.086,-28.346 -23.1017,-54.578 -32.3424,-51.546 -13.861,3.032 2.4664,47.491 -4.6203,54.578 -7.0866,3.543 -39.1168,-21.736 -46.2034,-18.193 -7.0866,3.544 18.4814,100.059 77.5111,81.813 z"
           style="fill:#008f00;fill-opacity:1;fill-rule:evenodd;stroke:none"
           inkscape:connector-curvature="0" />
        <path
           transform="matrix(0.223195,-7.372191e-4,0.00133905,0.40553,219.6021,248.3276)"
           sodipodi:nodetypes="ccccccc"
           id="path916"
           d="m 106.299,825.591 c 61.099,-21.171 49.646,-102.466 42.618,-103.037 -7.028,-0.572 -33.42,18.668 -36.963,36.385 -7.086,-28.346 -23.1017,-54.578 -32.3424,-51.546 -13.861,3.032 2.4664,47.491 -4.6203,54.578 -7.0866,3.543 -39.1168,-21.736 -46.2034,-18.193 -7.0866,3.544 18.4814,100.059 77.5111,81.813 z"
           style="fill:#008f00;fill-opacity:1;fill-rule:evenodd;stroke:none"
           inkscape:connector-curvature="0" />
        <path
           transform="matrix(0.210634,0.07382341,-0.134133,0.382708,352.4878,299.6874)"
           sodipodi:nodetypes="ccccccc"
           id="path917"
           d="m 106.299,825.591 c 61.099,-21.171 49.646,-102.466 42.618,-103.037 -7.028,-0.572 -33.42,18.668 -36.963,36.385 -7.086,-28.346 -23.1017,-54.578 -32.3424,-51.546 -13.861,3.032 2.4664,47.491 -4.6203,54.578 -7.0866,3.543 -39.1168,-21.736 -46.2034,-18.193 -7.0866,3.544 18.4814,100.059 77.5111,81.813 z"
           style="fill:#008f00;fill-opacity:1;fill-rule:evenodd;stroke:none"
           inkscape:connector-curvature="0" />
        <path
           transform="matrix(0.222364,0.01926354,-0.03500096,0.404019,292.9511,329.2717)"
           sodipodi:nodetypes="ccccccc"
           id="path918"
           d="m 106.299,825.591 c 61.099,-21.171 49.646,-102.466 42.618,-103.037 -7.028,-0.572 -33.42,18.668 -36.963,36.385 -7.086,-28.346 -23.1017,-54.578 -32.3424,-51.546 -13.861,3.032 2.4664,47.491 -4.6203,54.578 -7.0866,3.543 -39.1168,-21.736 -46.2034,-18.193 -7.0866,3.544 18.4814,100.059 77.5111,81.813 z"
           style="fill:#008f00;fill-opacity:1;fill-rule:evenodd;stroke:none"
           inkscape:connector-curvature="0" />
        <path
           transform="matrix(0.219274,0.04165976,-0.07569337,0.398406,352.36,385.5371)"
           sodipodi:nodetypes="ccccccc"
           id="path919"
           d="m 106.299,825.591 c 61.099,-21.171 49.646,-102.466 42.618,-103.037 -7.028,-0.572 -33.42,18.668 -36.963,36.385 -7.086,-28.346 -23.1017,-54.578 -32.3424,-51.546 -13.861,3.032 2.4664,47.491 -4.6203,54.578 -7.0866,3.543 -39.1168,-21.736 -46.2034,-18.193 -7.0866,3.544 18.4814,100.059 77.5111,81.813 z"
           style="fill:#008f00;fill-opacity:1;fill-rule:evenodd;stroke:none"
           inkscape:connector-curvature="0" />
      </g>
      <path
         transform="matrix(0.48901547,0.26088882,-0.2730231,0.46728159,313.35338,-58.25287)"
         sodipodi:ry="14.173248"
         sodipodi:rx="23.031494"
         sodipodi:cy="775.98425"
         sodipodi:cx="186.02362"
         d="m 209.05511,775.98425 c 0,7.82767 -10.31155,14.17325 -23.03149,14.17325 -12.71994,0 -23.03149,-6.34558 -23.03149,-14.17325 0,-7.82767 10.31155,-14.17325 23.03149,-14.17325 12.71994,0 23.03149,6.34558 23.03149,14.17325 z"
         id="path899"
         style="font-size:12px;fill:#ff1900;fill-rule:evenodd;stroke:#000000;stroke-width:0.81281967pt"
         sodipodi:type="arc" />
      <g
         transform="matrix(0.40548619,0.12769172,-0.1484189,0.38307464,363.62804,58.045927)"
         id="g935">
        <path
           transform="translate(0,-3.051758e-5)"
           sodipodi:nodetypes="ccccccccccccc"
           id="path934"
           d="m 155.906,414.567 0,-7.087 7.086,0 0,-7.086 7.087,0 0,7.086 7.086,0 0,7.087 -7.086,0 0,17.716 -7.087,0 0,-17.716 -7.086,0 z"
           style="fill:#ffff00;fill-opacity:1;fill-rule:evenodd;stroke:#000000;stroke-width:0.50801229;stroke-linecap:butt;stroke-linejoin:miter;stroke-opacity:1;stroke-dasharray:none"
           inkscape:connector-curvature="0" />
        <rect
           y="474.80316"
           x="162.99211"
           height="205.51175"
           width="7.0866241"
           id="rect930"
           style="font-size:12px;fill:#ffff00;fill-rule:evenodd;stroke:#000000;stroke-width:0.5124495" />
        <rect
           y="676.77161"
           x="159.44882"
           height="56.692932"
           width="14.173218"
           id="rect931"
           style="font-size:12px;fill:#ffff00;fill-opacity:1;fill-rule:evenodd;stroke:#000000;stroke-width:0.50801229;stroke-opacity:1;stroke-dasharray:none" />
        <path
           sodipodi:nodetypes="csccc"
           id="path932"
           d="m 155.906,439.37 c 3.543,0 17.716,0 21.259,0 14.174,0 -3.543,38.976 -3.543,38.976 l -14.173,0 c 0,0 -17.717,-38.976 -3.543,-38.976 z"
           style="fill:#ffff00;fill-opacity:1;fill-rule:evenodd;stroke:#000000;stroke-width:0.50801229;stroke-linecap:butt;stroke-linejoin:miter;stroke-opacity:1;stroke-dasharray:none"
           inkscape:connector-curvature="0" />
        <path
           sodipodi:ry="5.3149719"
           sodipodi:rx="7.086617"
           sodipodi:cy="434.05508"
           sodipodi:cx="166.53543"
           d="m 173.62205,434.05508 c 0,2.93538 -3.17279,5.31498 -7.08662,5.31498 -3.91383,0 -7.08662,-2.3796 -7.08662,-5.31498 0,-2.93537 3.17279,-5.31497 7.08662,-5.31497 3.91383,0 7.08662,2.3796 7.08662,5.31497 z"
           id="path933"
           style="fill:#ffff00;fill-opacity:1;fill-rule:evenodd;stroke:#000000;stroke-width:0.50801229;stroke-linecap:butt;stroke-linejoin:miter;stroke-opacity:1;stroke-dasharray:none"
           sodipodi:type="arc" />
      </g>
      <path
         transform="matrix(0.46694538,-0.29551212,0.30925678,0.44619239,-5.1429512,64.497705)"
         sodipodi:ry="14.173248"
         sodipodi:rx="23.031494"
         sodipodi:cy="775.98425"
         sodipodi:cx="186.02362"
         d="m 209.05511,775.98425 c 0,7.82767 -10.31155,14.17325 -23.03149,14.17325 -12.71994,0 -23.03149,-6.34558 -23.03149,-14.17325 0,-7.82767 10.31155,-14.17325 23.03149,-14.17325 12.71994,0 23.03149,6.34558 23.03149,14.17325 z"
         id="path906"
         style="font-size:12px;fill:#ff1900;fill-rule:evenodd;stroke:#000000;stroke-width:0.81281967pt"
         sodipodi:type="arc" />
    </g>
  </g>
</svg>
