<?xml version="1.0" encoding="UTF-8" standalone="no"?>
<!-- Created with Sodipodi ("http://www.sodipodi.com/") -->

<!--

<rdf:RDF xmlns="http://web.resource.org/cc/"
    xmlns:dc="http://purl.org/dc/elements/1.1/"
    xmlns:rdf="http://www.w3.org/1999/02/22-rdf-syntax-ns#">
<Work rdf:about="">
   <dc:title>SVG graphic of the Marshall Islands' Flag</dc:title>
   <dc:rights><Agent>
      <dc:title>Andrew Duhan</dc:title>
   </Agent></dc:rights>
   <license rdf:resource="http://web.resource.org/cc/PublicDomain" />
</Work>

<License rdf:about="http://web.resource.org/cc/PublicDomain">
   <permits rdf:resource="http://web.resource.org/cc/Reproduction" />
   <permits rdf:resource="http://web.resource.org/cc/Distribution" />
   <permits rdf:resource="http://web.resource.org/cc/DerivativeWorks" />
</License>

</rdf:RDF>

-->

<svg
   xmlns:dc="http://purl.org/dc/elements/1.1/"
   xmlns:cc="http://creativecommons.org/ns#"
   xmlns:rdf="http://www.w3.org/1999/02/22-rdf-syntax-ns#"
   xmlns:svg="http://www.w3.org/2000/svg"
   xmlns="http://www.w3.org/2000/svg"
   xmlns:sodipodi="http://sodipodi.sourceforge.net/DTD/sodipodi-0.dtd"
   xmlns:inkscape="http://www.inkscape.org/namespaces/inkscape"
   id="svg650"
   sodipodi:version="0.32"
   width="640"
   height="480"
   sodipodi:docname="mh.svg"
   version="1.1"
   inkscape:version="0.48.1 r9760">
  <sodipodi:namedview
     id="base"
     showgrid="false"
     inkscape:zoom="0.5248"
     inkscape:cx="70.503049"
     inkscape:cy="156.25"
     inkscape:window-width="1280"
     inkscape:window-height="746"
     inkscape:window-x="0"
     inkscape:window-y="24"
     inkscape:window-maximized="1"
     inkscape:current-layer="svg650" />
  <metadata
     id="metadata3495">
    <rdf:RDF>
      <cc:Work
         rdf:about="">
        <dc:format>image/svg+xml</dc:format>
        <dc:type
           rdf:resource="http://purl.org/dc/dcmitype/StillImage" />
      </cc:Work>
    </rdf:RDF>
  </metadata>
  <defs
     id="defs652" />
  <g
     id="flag"
     inkscape:label="#g9221">
    <g
       transform="scale(1.3333333,1)"
       id="g9216">
      <rect
         style="font-size:12px;fill:#3b5aa3;fill-opacity:1;fill-rule:evenodd;stroke-width:1pt"
         id="rect659"
         width="479.90942"
         height="480"
         x="0"
         y="0" />
      <path
         inkscape:connector-curvature="0"
         style="fill:#e2ae57;fill-opacity:1;fill-rule:evenodd;stroke:none"
         d="M 0,467.0807 479.9401,1e-4 479.9163,86.91548 0,480 0,467.0807 z"
         id="path655"
         sodipodi:nodetypes="ccccc" />
      <path
         inkscape:connector-curvature="0"
         style="fill:#ffffff;fill-opacity:1;fill-rule:evenodd;stroke:none"
         d="M 16.797743,479.97849 480,179.22048 479.89633,83.74072 0,480 16.797743,479.9785 z"
         id="path654"
         sodipodi:nodetypes="ccccc" />
    </g>
    <path
       sodipodi:nodetypes="ccccccccccccccccccccccccccccccccccccccccccccccccc"
       id="path656"
       d="m 175.32312,15.16311 -6.31449,102.7908 -27.0087,-65.551549 10.36143,69.775469 L 110.53149,65.791744 137.94982,130.12858 83.014896,87.513514 125.77547,141.06102 63.677567,113.54189 118.0731,154.72678 50.418574,145.7817 114.34626,171.1244 14,180.30274 l 100.59465,6.72316 -63.742124,26.20727 66.972194,-9.06227 -54.19502,40.01773 62.89124,-27.59547 -42.896063,53.99036 54.573013,-41.31844 -27.03637,62.88884 43.68365,-54.69004 -11.82436,68.17292 27.47779,-63.69984 6.21114,100.62789 9.69037,-100.37981 23.69166,64.08781 -9.03206,-69.05703 43.46834,54.73773 -28.56068,-63.93039 54.55009,43.99628 -43.36975,-54.92858 64.83361,26.99439 -57.37898,-41.90204 69.87755,11.77983 -66.89603,-25.69365 104.04831,-6.46076 -104.04831,-9.69038 68.48619,-22.82789 -70.9716,8.91407 58.63838,-40.99598 -66.0914,26.58556 45.64366,-55.334357 -55.58211,43.408237 26.74634,-66.412305 -43.14555,56.473705 9.26738,-70.430294 -25.665,66.454914 -9.58703,-102.7908 z"
       style="fill:#ffffff;fill-opacity:1;fill-rule:evenodd;stroke:none"
       inkscape:connector-curvature="0" />
  </g>
</svg>
