<?xml version="1.0" encoding="UTF-8" standalone="no"?>
<!-- Created with Sodipodi ("http://www.sodipodi.com/") -->

<svg
   xmlns:dc="http://purl.org/dc/elements/1.1/"
   xmlns:cc="http://creativecommons.org/ns#"
   xmlns:rdf="http://www.w3.org/1999/02/22-rdf-syntax-ns#"
   xmlns:svg="http://www.w3.org/2000/svg"
   xmlns="http://www.w3.org/2000/svg"
   xmlns:sodipodi="http://sodipodi.sourceforge.net/DTD/sodipodi-0.dtd"
   xmlns:inkscape="http://www.inkscape.org/namespaces/inkscape"
   id="svg378"
   sodipodi:version="0.32"
   width="640"
   height="480"
   sodipodi:docname="mn.svg"
   version="1.1"
   inkscape:version="0.48.1 r9760">
  <sodipodi:namedview
     id="base"
     snaptoguides="false"
     showgrid="false"
     inkscape:zoom="0.33060318"
     inkscape:cx="496.06299"
     inkscape:cy="248.03149"
     inkscape:window-width="1280"
     inkscape:window-height="746"
     inkscape:window-x="0"
     inkscape:window-y="24"
     inkscape:window-maximized="1"
     inkscape:current-layer="svg378"
     inkscape:snap-global="false" />
  <metadata
     id="metadata3619">
    <rdf:RDF>
      <cc:Work
         rdf:about="">
        <dc:format>image/svg+xml</dc:format>
        <dc:type
           rdf:resource="http://purl.org/dc/dcmitype/StillImage" />
      </cc:Work>
    </rdf:RDF>
  </metadata>
  <defs
     id="defs380" />
  <g
     id="flag"
     inkscape:label="#g8776">
    <rect
       height="479.99997"
       width="640"
       y="-1.2424144e-06"
       x="0"
       id="rect171"
       style="font-size:12px;fill:#d61517;fill-opacity:1;fill-rule:evenodd;stroke-width:1pt" />
    <rect
       x="213.33336"
       height="480"
       width="213.33336"
       y="8.5923521e-06"
       id="rect403"
       style="font-size:12px;fill:#018edf;fill-opacity:1;fill-rule:evenodd;stroke-width:1pt" />
    <path
       id="path226"
       d="m 102.53845,244.19948 c 9.91226,0.28641 11.43728,-3.15217 11.43728,-6.59075 0,-3.43858 0,-10.31574 0,-11.74834 0,-1.4326 3.81217,-2.8652 3.81217,-5.44456 0,-2.57879 -1.90609,-5.44399 -2.66822,-7.16356 -1.14395,4.29836 -3.05004,8.59673 -6.4819,10.02933 -1.52502,-3.43858 -1.90608,-4.58477 -1.1432,-6.30435 0.76213,-1.719 0,-4.2978 -1.52502,-6.87659 -1.14396,5.44399 -4.57506,6.87716 -4.95613,8.59617 -0.38181,1.719 -1.525016,6.59075 -3.812924,4.01139 -2.287153,-2.57879 -3.812171,-5.7304 -4.956129,-9.16898 -2.287901,6.87659 -1.143951,8.30976 -0.381068,9.45595 0.762135,1.14619 1.525026,4.58477 1.525026,6.01738 0,1.43259 -1.525026,7.16356 -0.762891,8.88313 0.762891,1.71901 1.143958,6.8766 9.913006,6.30378 z"
       style="font-size:12px;fill:#ffd700;fill-opacity:0.86666697;fill-rule:evenodd;stroke-width:1pt"
       inkscape:connector-curvature="0" />
    <path
       transform="matrix(0.63752696,0,0,0.47916061,-10.774923,155.88566)"
       sodipodi:ry="39.212036"
       sodipodi:rx="39.212036"
       sodipodi:cy="236.07993"
       sodipodi:cx="181.80127"
       d="m 221.01331,236.07993 a 39.212036,39.212036 0 1 1 -78.42408,0 39.212036,39.212036 0 1 1 78.42408,0 z"
       id="path227"
       style="font-size:12px;fill:#ffd700;fill-opacity:0.86666697;fill-rule:evenodd;stroke-width:1pt"
       sodipodi:type="arc" />
    <path
       sodipodi:nodetypes="ccccc"
       id="path232"
       d="m 139.99889,276.43068 c -13.19754,18.43776 -38.61512,23.56224 -57.462059,11.20201 -4.96803,-3.2571 -8.601454,-6.90439 -12.057503,-11.57518 3.116928,13.25443 12.565401,22.63783 25.640265,25.98783 19.245447,4.92938 38.903457,-6.54593 43.879297,-25.61466 z"
       style="font-size:12px;fill:#ffd700;fill-opacity:0.86666697;fill-rule:evenodd;stroke-width:1pt"
       inkscape:connector-curvature="0" />
    <rect
       y="421.70523"
       x="66.873856"
       height="15.473494"
       width="74.378792"
       id="rect233"
       style="font-size:12px;fill:#ffd700;fill-opacity:0.86666697;fill-rule:evenodd;stroke-width:1pt" />
    <path
       sodipodi:nodetypes="cccc"
       id="path235"
       d="m 70.513035,312.35169 33.169365,20.12671 33.54969,-20.12671 -66.719055,0 z"
       style="font-size:12px;fill:#ffd700;fill-opacity:0.86666697;fill-rule:evenodd;stroke-width:1pt"
       inkscape:connector-curvature="0" />
    <rect
       y="334.14438"
       x="70.513016"
       height="15.47351"
       width="67.100494"
       id="rect249"
       style="font-size:12px;fill:#ffd700;fill-opacity:0.86666697;fill-rule:evenodd;stroke-width:1pt" />
    <path
       sodipodi:nodetypes="cccc"
       id="path250"
       d="m 70.513035,447.0937 33.169365,15.75974 33.54969,-15.75974 -66.719055,0 z"
       style="font-size:12px;fill:#ffd700;fill-opacity:0.86666697;fill-rule:evenodd;stroke-width:1pt"
       inkscape:connector-curvature="0" />
    <rect
       y="312.57614"
       x="20.31628"
       height="149.60735"
       width="32.377403"
       id="rect251"
       style="font-size:12px;fill:#ffd700;fill-opacity:0.86666697;fill-rule:evenodd;stroke-width:1pt" />
    <rect
       y="312.57614"
       x="153.50941"
       height="149.60735"
       width="32.377403"
       id="rect612"
       style="font-size:12px;fill:#ffd700;fill-opacity:0.86666697;fill-rule:evenodd;stroke-width:1pt" />
    <path
       sodipodi:nodetypes="cccccccccccccccccccccccc"
       id="path633"
       d="m 81.152818,365.1282 c 9.899844,-7.32685 24.688952,-12.81462 30.007542,-6.87648 5.346,6.14346 6.61603,11.63184 5.44486,16.56947 -1.58196,4.28496 -8.68908,9.40252 -13.94194,6.68614 -6.034753,-2.84689 -15.663164,7.02362 -16.769365,12.47363 -1.442393,5.81471 -1.583959,12.72825 0.07625,19.14173 -15.81166,-18.43464 -16.886935,-39.76415 -4.817383,-47.99449 z m 26.884512,9.10975 c -2.72726,1.60389 -6.69482,-0.0261 -8.855653,-3.63744 -2.161709,-3.61168 -0.502563,-4.95577 2.223823,-6.56 2.72805,-1.60261 5.49599,-2.86096 7.65731,0.75008 2.16122,3.61197 1.7017,7.84442 -1.02548,9.44736 z m 15.27451,32.74554 c -9.77562,7.50712 -25.880578,10.40595 -31.252292,4.53192 -5.402197,-6.08008 -0.929238,-13.75547 0.177508,-18.72828 1.52378,-4.32395 8.561224,-8.1102 13.828334,-5.46751 6.04787,2.76161 15.75922,-8.07262 14.61123,-15.01479 1.36683,-5.85623 -0.5086,-6.85257 -3.35901,-15.44387 15.98039,18.24794 17.92054,41.6744 5.99423,50.12253 z m -21.78491,-11.55773 c 2.69794,-1.65177 5.94337,-0.80686 8.14107,2.78278 2.1977,3.58964 2.04775,6.41061 -0.6498,8.06302 -2.69834,1.65113 -6.92787,1.51143 -9.125572,-2.07821 -2.197705,-3.58964 -1.063646,-7.11582 1.634302,-8.76759 z"
       style="font-size:12px;fill:#ffd700;fill-opacity:0.86666697;fill-rule:evenodd;stroke-width:0.625"
       inkscape:connector-curvature="0" />
  </g>
</svg>
