<?xml version="1.0" encoding="UTF-8" standalone="no"?>
<!-- Created with Sodipodi ("http://www.sodipodi.com/") -->

<svg
   xmlns:dc="http://purl.org/dc/elements/1.1/"
   xmlns:cc="http://creativecommons.org/ns#"
   xmlns:rdf="http://www.w3.org/1999/02/22-rdf-syntax-ns#"
   xmlns:svg="http://www.w3.org/2000/svg"
   xmlns="http://www.w3.org/2000/svg"
   xmlns:sodipodi="http://sodipodi.sourceforge.net/DTD/sodipodi-0.dtd"
   xmlns:inkscape="http://www.inkscape.org/namespaces/inkscape"
   id="svg672"
   sodipodi:version="0.33pre"
   width="640"
   height="480"
   sodipodi:docname="mo.svg"
   version="1.1"
   inkscape:version="0.48.1 r9760">
  <sodipodi:namedview
     id="base"
     snaptogrid="false"
     snaptoguides="false"
     showgrid="false"
     inkscape:zoom="0.44080424"
     inkscape:cx="83.937489"
     inkscape:cy="248.03149"
     inkscape:window-width="1280"
     inkscape:window-height="746"
     inkscape:window-x="0"
     inkscape:window-y="24"
     inkscape:window-maximized="1"
     inkscape:current-layer="svg672" />
  <metadata
     id="metadata3636">
    <rdf:RDF>
      <cc:Work
         rdf:about="">
        <dc:format>image/svg+xml</dc:format>
        <dc:type
           rdf:resource="http://purl.org/dc/dcmitype/StillImage" />
      </cc:Work>
    </rdf:RDF>
  </metadata>
  <defs
     id="defs674">
    <clipPath
       id="clipPath6890"
       clipPathUnits="userSpaceOnUse">
      <rect
         y="-1.1180649e-05"
         width="496.06299"
         style="fill:#000000;fill-opacity:0.67000002;stroke:none"
         x="124.01575"
         height="496.06299"
         id="rect6892" />
    </clipPath>
    <clipPath
       clipPathUnits="userSpaceOnUse"
       id="clipPath8657">
      <rect
         id="rect8659"
         height="480"
         x="-88"
         style="fill:#000000;fill-opacity:0.67000002;stroke:none"
         width="640"
         y="31.999996" />
    </clipPath>
  </defs>
  <g
     id="flag"
     transform="translate(88,-31.999996)"
     clip-path="url(#clipPath8657)"
     inkscape:label="#g8604">
    <rect
       y="31.999996"
       x="-128"
       height="480"
       width="720"
       id="rect681"
       style="font-size:12px;fill:#199d00;fill-opacity:1;fill-rule:evenodd;stroke:none" />
    <path
       sodipodi:nodetypes="ccccccccccccccccccccccccccccc"
       id="path678"
       d="m 230.78831,300.77749 c -11.28534,7.85707 -23.09126,14.8036 -34.3766,22.66067 -14.14175,1.00052 -27.85582,1.14276 -42.42623,0.42866 0,0 -30.42678,-5.14193 -38.14064,-18.42734 -0.42866,-1.28597 9.85617,-6.00021 9.85617,-6.00021 15.57093,10.9999 32.8555,20.71382 65.14011,19.28562 -39.85526,-3.57148 -66.85377,-25.5703 -74.99628,-45.85546 21.57017,-15.14228 57.28305,-14.85683 86.56707,5.99923 -9.14206,-11.42758 -39.71205,-24.14112 -62.56818,-20.56964 -3.28603,-3.42925 -6.14244,-7.71483 -9.42848,-11.14311 26.2844,-5.85699 62.8546,10.9999 76.28225,24.8562 -14.14175,-22.71292 -24.42754,-48.42643 -7.71386,-79.71052 3.28507,3.14283 6.99976,6.28565 10.28483,9.42848 -12.57035,22.99837 -7.99932,49.85464 2.14327,68.56742 -17.571,-36.28378 -3.42924,-72.1389 19.71233,-89.56669 26.99851,16.28503 34.71334,59.56857 18.85696,90.42497 8.99886,-5.1429 16.28504,-43.71316 3.85694,-69.4257 2.85737,-3.42828 5.71379,-6.85655 8.57116,-10.28482 18.71376,25.28388 7.42842,65.99645 -8.14251,81.42418 11.85623,-10.28579 42.56846,-30.42679 78.42455,-25.71255 -2.85737,3.42828 -7.42841,6.42789 -10.28579,9.85617 -29.42722,-1.14276 -53.28194,11.42758 -63.85318,22.28427 25.85576,-17.14137 61.56767,-25.71351 87.85208,-6.42789 -12.14169,32.42685 -46.56957,42.14077 -74.99629,44.99719 24.14113,1.85685 46.56957,-5.28514 64.71146,-17.99869 3.42827,1.85686 6.85655,3.71469 10.28483,5.57155 -7.71386,7.2852 -18.856,14.57041 -34.71237,16.71272 -15.28452,2.00006 -29.71268,1.42917 -44.99719,1.71462 -11.85624,-7.71386 -24.05018,-15.37643 -35.90641,-23.08933 z"
       style="font-size:12px;fill:#feffff;fill-rule:evenodd;stroke-width:1pt;stroke-linejoin:round"
       inkscape:connector-curvature="0" />
    <path
       sodipodi:nodetypes="ccccccccccc"
       id="path683"
       d="m 230.78831,308.36363 -29.39433,22.12073 -78.78741,-0.30286 c 0.96762,3.17476 3.97981,7.23199 5.75732,9.09078 l 78.18169,0.30384 24.24273,-18.78826 23.33317,18.48442 79.09124,0 c 2.27294,-2.42389 4.69682,-5.75733 6.81785,-8.636 l -80.15176,0.15192 -29.0905,-22.42457 z"
       style="font-size:12px;fill:#ffffff;fill-rule:evenodd;stroke-width:1pt"
       inkscape:connector-curvature="0" />
    <path
       sodipodi:nodetypes="ccc"
       id="path687"
       d="m 185.6363,384.34301 c 22.62681,11.16826 70.7078,10.25192 92.42504,-0.27384 l -92.42504,0.27384 z"
       style="font-size:12px;fill:#ffffff;fill-rule:evenodd;stroke-width:0.95193501pt;stroke-linejoin:round"
       inkscape:connector-curvature="0" />
    <path
       sodipodi:nodetypes="ccccc"
       id="path688"
       d="m 133.60452,346.84874 c 0.90956,0 194.30565,-0.15192 194.30565,-0.15192 -3.38377,3.83855 -7.37423,7.97995 -11.51563,11.51467 l -172.84289,-0.75668 c -3.24443,-2.24972 -7.56001,-7.49904 -9.94713,-10.60607 z"
       style="font-size:12px;fill:#ffffff;fill-rule:evenodd;stroke-width:1pt;stroke-linejoin:round"
       inkscape:connector-curvature="0" />
    <path
       sodipodi:nodetypes="ccccc"
       id="path689"
       d="m 146.95186,360.78729 166.8659,0.45575 c -3.13121,2.42388 -5.65573,5.30255 -9.24172,7.12071 l -148.33407,-0.12579 c -3.4244,-1.84041 -6.93686,-4.96679 -9.29011,-7.45067 z"
       style="font-size:12px;fill:#ffffff;fill-rule:evenodd;stroke-width:1pt;stroke-linejoin:round"
       inkscape:connector-curvature="0" />
    <path
       sodipodi:nodetypes="ccccc"
       id="path690"
       d="m 162.15219,373.20571 136.36365,-0.33286 c -3.63632,2.33487 -7.72741,4.82165 -12.27232,7.00557 l -111.81902,0 c -3.78823,-1.315 -8.18218,-4.14528 -12.27231,-6.67271 z"
       style="font-size:12px;fill:#ffffff;fill-rule:evenodd;stroke-width:1.0493pt;stroke-linejoin:round"
       inkscape:connector-curvature="0" />
    <polygon
       transform="matrix(0.67029005,0.26243183,-0.26243183,0.67029005,199.10362,40.066724)"
       points="205.584,128.736 195.568,121.887 185.665,128.899 189.084,117.257 179.355,110.006 191.484,109.659 195.374,98.1653 199.452,109.594 211.585,109.742 201.976,117.151 205.584,128.736 "
       sodipodi:arg2="1.5626066"
       sodipodi:arg1="0.93428808"
       sodipodi:r2="6.7779307"
       sodipodi:r1="16.944826"
       sodipodi:cy="115.10958"
       sodipodi:cx="195.51263"
       sodipodi:sides="5"
       id="polygon564"
       style="font-size:12px;fill:#feb700;fill-rule:evenodd;stroke-width:1pt"
       sodipodi:type="star"
       inkscape:flatsided="false"
       inkscape:rounded="0"
       inkscape:randomized="0"
       d="m 205.58449,128.73621 -10.01635,-6.84893 -9.90282,7.01206 3.41849,-11.64254 -9.72901,-7.2513 12.12909,-0.34657 3.88997,-11.493607 4.0777,11.428357 12.13314,0.14786 -9.60893,7.40967 z" />
    <polygon
       transform="matrix(0.97278806,0,0,0.97278806,41.481479,44.792796)"
       points="205.584,128.736 195.568,121.887 185.665,128.899 189.084,117.257 179.355,110.006 191.484,109.659 195.374,98.1653 199.452,109.594 211.585,109.742 201.976,117.151 205.584,128.736 "
       sodipodi:arg2="1.5626066"
       sodipodi:arg1="0.93428808"
       sodipodi:r2="6.7779307"
       sodipodi:r1="16.944826"
       sodipodi:cy="115.10958"
       sodipodi:cx="195.51263"
       sodipodi:sides="5"
       id="polygon714"
       style="font-size:12px;fill:#feb700;fill-rule:evenodd;stroke-width:1pt"
       sodipodi:type="star"
       inkscape:flatsided="false"
       inkscape:rounded="0"
       inkscape:randomized="0"
       d="m 205.58449,128.73621 -10.01635,-6.84893 -9.90282,7.01206 3.41849,-11.64254 -9.72901,-7.2513 12.12909,-0.34657 3.88997,-11.493607 4.0777,11.428357 12.13314,0.14786 -9.60893,7.40967 z" />
    <polygon
       transform="matrix(0.70551041,-0.14287282,0.14287282,0.70551041,180.55892,166.698)"
       points="205.584,128.736 195.568,121.887 185.665,128.899 189.084,117.257 179.355,110.006 191.484,109.659 195.374,98.1653 199.452,109.594 211.585,109.742 201.976,117.151 205.584,128.736 "
       sodipodi:arg2="1.5626066"
       sodipodi:arg1="0.93428808"
       sodipodi:r2="6.7779307"
       sodipodi:r1="16.944826"
       sodipodi:cy="115.10958"
       sodipodi:cx="195.51263"
       sodipodi:sides="5"
       id="polygon715"
       style="font-size:12px;fill:#feb700;fill-rule:evenodd;stroke-width:1pt"
       sodipodi:type="star"
       inkscape:flatsided="false"
       inkscape:rounded="0"
       inkscape:randomized="0"
       d="m 205.58449,128.73621 -10.01635,-6.84893 -9.90282,7.01206 3.41849,-11.64254 -9.72901,-7.2513 12.12909,-0.34657 3.88997,-11.493607 4.0777,11.428357 12.13314,0.14786 -9.60893,7.40967 z" />
    <polygon
       transform="matrix(-0.67028908,0.26243183,0.26243183,0.67028908,262.72981,39.932365)"
       points="205.584,128.736 195.568,121.887 185.665,128.899 189.084,117.257 179.355,110.006 191.484,109.659 195.374,98.1653 199.452,109.594 211.585,109.742 201.976,117.151 205.584,128.736 "
       sodipodi:arg2="1.5626066"
       sodipodi:arg1="0.93428808"
       sodipodi:r2="6.7779307"
       sodipodi:r1="16.944826"
       sodipodi:cy="115.10958"
       sodipodi:cx="195.51263"
       sodipodi:sides="5"
       id="polygon716"
       style="font-size:12px;fill:#feb700;fill-rule:evenodd;stroke-width:1pt"
       sodipodi:type="star"
       inkscape:flatsided="false"
       inkscape:rounded="0"
       inkscape:randomized="0"
       d="m 205.58449,128.73621 -10.01635,-6.84893 -9.90282,7.01206 3.41849,-11.64254 -9.72901,-7.2513 12.12909,-0.34657 3.88997,-11.493607 4.0777,11.428357 12.13314,0.14786 -9.60893,7.40967 z" />
    <polygon
       transform="matrix(-0.70551041,-0.14287282,-0.14287282,0.70551041,279.3623,166.38614)"
       points="205.584,128.736 195.568,121.887 185.665,128.899 189.084,117.257 179.355,110.006 191.484,109.659 195.374,98.1653 199.452,109.594 211.585,109.742 201.976,117.151 205.584,128.736 "
       sodipodi:arg2="1.5626066"
       sodipodi:arg1="0.93428808"
       sodipodi:r2="6.7779307"
       sodipodi:r1="16.944826"
       sodipodi:cy="115.10958"
       sodipodi:cx="195.51263"
       sodipodi:sides="5"
       id="polygon717"
       style="font-size:12px;fill:#feb700;fill-rule:evenodd;stroke-width:1pt"
       sodipodi:type="star"
       inkscape:flatsided="false"
       inkscape:rounded="0"
       inkscape:randomized="0"
       d="m 205.58449,128.73621 -10.01635,-6.84893 -9.90282,7.01206 3.41849,-11.64254 -9.72901,-7.2513 12.12909,-0.34657 3.88997,-11.493607 4.0777,11.428357 12.13314,0.14786 -9.60893,7.40967 z" />
  </g>
</svg>
