<?xml version="1.0" encoding="UTF-8" standalone="no"?>
<!-- Created with Sodipodi ("http://www.sodipodi.com/") -->

<svg
   xmlns:dc="http://purl.org/dc/elements/1.1/"
   xmlns:cc="http://creativecommons.org/ns#"
   xmlns:rdf="http://www.w3.org/1999/02/22-rdf-syntax-ns#"
   xmlns:svg="http://www.w3.org/2000/svg"
   xmlns="http://www.w3.org/2000/svg"
   xmlns:sodipodi="http://sodipodi.sourceforge.net/DTD/sodipodi-0.dtd"
   xmlns:inkscape="http://www.inkscape.org/namespaces/inkscape"
   id="svg548"
   sodipodi:version="0.32"
   width="640"
   height="480"
   sodipodi:docname="mt.svg"
   version="1.1"
   inkscape:version="0.48.1 r9760">
  <sodipodi:namedview
     id="base"
     snaptogrid="false"
     showgrid="true"
     inkscape:zoom="0.44080424"
     inkscape:cx="372.04724"
     inkscape:cy="248.03149"
     inkscape:window-width="1280"
     inkscape:window-height="746"
     inkscape:window-x="0"
     inkscape:window-y="24"
     inkscape:window-maximized="1"
     inkscape:current-layer="svg548">
    <inkscape:grid
       snapvisiblegridlinesonly="true"
       enabled="false"
       visible="true"
       units="mm"
       id="GridFromPre046Settings"
       type="xygrid"
       originx="0px"
       originy="0px"
       spacingx="1mm"
       spacingy="1mm"
       color="#0000ff"
       empcolor="#0000ff"
       opacity="0.2"
       empopacity="0.4"
       empspacing="5" />
  </sodipodi:namedview>
  <metadata
     id="metadata3784">
    <rdf:RDF>
      <cc:Work
         rdf:about="">
        <dc:format>image/svg+xml</dc:format>
        <dc:type
           rdf:resource="http://purl.org/dc/dcmitype/StillImage" />
      </cc:Work>
    </rdf:RDF>
  </metadata>
  <defs
     id="defs550" />
  <g
     id="flag"
     inkscape:label="#g6870">
    <g
       transform="matrix(1.25,0,0,0.93750003,0,-1.2617508e-5)"
       id="g6866">
      <rect
         style="font-size:12px;fill:#ce0000;fill-opacity:1;fill-rule:evenodd;stroke-width:1pt"
         id="rect706"
         width="256"
         height="511.99997"
         x="256"
         y="2.7592254e-05" />
      <rect
         style="font-size:12px;fill:#ffffff;fill-opacity:1;fill-rule:evenodd;stroke-width:1pt"
         id="rect708"
         width="256"
         height="511.99997"
         x="0"
         y="1.211035e-05" />
    </g>
    <g
       transform="matrix(1.5986253,0,0,1.5986253,-12.380492,-30.751417)"
       id="g6673">
      <path
         sodipodi:type="arc"
         style="fill:#f1eeee;fill-opacity:1;fill-rule:evenodd;stroke:none"
         id="path606"
         d="m 209.05512,63.779495 c 0,7.827644 -7.93196,14.173204 -17.71653,14.173204 -9.78457,0 -17.71653,-6.34556 -17.71653,-14.173204 0,-7.827644 7.93196,-14.173203 17.71653,-14.173203 9.78457,0 17.71653,6.345559 17.71653,14.173203 z"
         sodipodi:cx="191.33859"
         sodipodi:cy="63.779495"
         sodipodi:rx="17.71653"
         sodipodi:ry="14.173203"
         transform="matrix(0.11562924,0,0,0.10345428,80.649609,101.46854)" />
      <path
         inkscape:connector-curvature="0"
         style="font-size:12px;fill:#cc0000;fill-opacity:1;fill-rule:evenodd;stroke-width:1pt"
         d="m 40.727467,100.97908 0,37.20939 37.210522,0 c 0,6.19981 6.202104,12.40173 12.404208,12.40173 l 0,37.20728 37.208423,0 0,-37.20728 c 6.2021,0 12.40421,-6.20192 12.40421,-12.40173 l 37.21052,0 0,-37.20939 -37.21052,0 c 0,-6.199817 -6.20211,-12.401732 -12.40421,-12.401732 l 0,-37.207289 -37.208423,0 0,37.207289 c -6.202104,0 -12.404208,6.201915 -12.404208,12.401732 l -37.210522,0 z"
         id="path552"
         sodipodi:nodetypes="ccccccccccccccccc" />
      <path
         inkscape:connector-curvature="0"
         style="font-size:12px;fill:#ffe600;fill-opacity:1;fill-rule:evenodd;stroke-width:1pt"
         d="m 41.968728,102.2203 0,34.72694 37.210522,0 c 0,6.19982 6.200004,12.40383 12.402107,12.40383 l 0,37.20729 34.730103,0 0,-37.20729 c 6.2021,0 12.40211,-6.20401 12.40211,-12.40383 l 37.21052,0 0,-34.72694 -37.21052,0 c 0,-6.199814 -6.20001,-12.403829 -12.40211,-12.403829 l 0,-37.207289 -34.730103,0 0,37.207289 c -6.202103,0 -12.402107,6.204015 -12.402107,12.403829 l -37.210522,0 z"
         id="path553"
         sodipodi:nodetypes="ccccccccccccccccc" />
      <path
         inkscape:connector-curvature="0"
         style="font-size:12px;fill:#707070;fill-opacity:1;fill-rule:evenodd;stroke-width:1pt"
         d="m 43.208938,103.45872 0,32.2487 37.208423,0 c 0,6.19981 6.202104,12.40173 12.404207,12.40173 l 0,37.20729 32.247582,0 0,-37.20729 c 6.2021,0 12.40421,-6.20192 12.40421,-12.40173 l 37.20842,0 0,-32.2487 -37.20842,0 c 0,-6.199812 -6.20211,-12.401726 -12.40421,-12.401726 l 0,-37.207289 -32.247582,0 0,37.207289 c -6.202103,0 -12.404207,6.201914 -12.404207,12.401726 l -37.208423,0 z"
         id="path554"
         sodipodi:nodetypes="ccccccccccccccccc" />
      <path
         inkscape:connector-curvature="0"
         style="font-size:12px;fill:#a0a0a0;fill-opacity:1;fill-rule:evenodd;stroke-width:1pt"
         d="m 44.450199,104.69995 0,29.76625 37.208423,0 c 0,6.19981 6.202103,12.40383 12.404207,12.40383 l 0,37.20728 29.767161,0 0,-37.20728 c 6.2021,0 12.4042,-6.20402 12.4042,-12.40383 l 37.20843,0 0,-29.76625 -37.20843,0 c 0,-6.199819 -6.2021,-12.401733 -12.4042,-12.401733 l 0,-37.207289 -29.767161,0 0,37.207289 c -6.202104,0 -12.404207,6.201914 -12.404207,12.401733 l -37.208423,0 z"
         id="path555"
         sodipodi:nodetypes="ccccccccccccccccc" />
      <g
         id="g562"
         transform="matrix(0.24752135,-0.24750894,0.24752135,0.24750894,-65.690487,101.0618)">
        <path
           sodipodi:type="arc"
           style="fill:#d0d0d0;fill-opacity:1;fill-rule:evenodd;stroke:none"
           id="path556"
           d="m 333.07085,295.86615 c 0,8.80613 -11.10475,15.9449 -24.80315,15.9449 -13.6984,0 -24.80315,-7.13877 -24.80315,-15.9449 0,-8.80613 11.10475,-15.9449 24.80315,-15.9449 13.6984,0 24.80315,7.13877 24.80315,15.9449 z"
           sodipodi:cx="308.2677"
           sodipodi:cy="295.86615"
           sodipodi:rx="24.803146"
           sodipodi:ry="15.944901"
           transform="matrix(1.285716,0,0,1,-80.99048,3.543213)" />
        <path
           sodipodi:type="arc"
           style="fill:#808080;fill-opacity:1;fill-rule:evenodd;stroke:none"
           id="path557"
           d="m 333.07085,295.86615 c 0,8.80613 -11.10475,15.9449 -24.80315,15.9449 -13.6984,0 -24.80315,-7.13877 -24.80315,-15.9449 0,-8.80613 11.10475,-15.9449 24.80315,-15.9449 13.6984,0 24.80315,7.13877 24.80315,15.9449 z"
           sodipodi:cx="308.2677"
           sodipodi:cy="295.86615"
           sodipodi:rx="24.803146"
           sodipodi:ry="15.944901"
           transform="matrix(0.857147,0,0,1,51.1238,3.543213)" />
        <path
           inkscape:connector-curvature="0"
           style="fill:#d0d0d0;fill-opacity:1;fill-rule:evenodd;stroke:none"
           d="m 281.339,223.228 4.96,0 4.961,14.174 4.96,-14.174 4.961,0 -9.921,28.347 -9.921,-28.347 z"
           id="path560"
           sodipodi:nodetypes="ccccccc"
           transform="matrix(0.714292,0,0,0.749985,100.2229,123.1336)" />
        <rect
           style="font-size:12px;fill:#d0d0d0;fill-opacity:1;fill-rule:evenodd;stroke-width:1pt"
           id="rect561"
           width="3.543304"
           height="21.259827"
           x="322.44095"
           y="290.55121" />
      </g>
      <g
         id="g567"
         transform="matrix(0.24752135,0.24750894,-0.24752135,0.24750894,127.4694,-55.044187)">
        <path
           sodipodi:type="arc"
           style="fill:#d0d0d0;fill-opacity:1;fill-rule:evenodd;stroke:none"
           id="path568"
           d="m 333.07085,295.86615 c 0,8.80613 -11.10475,15.9449 -24.80315,15.9449 -13.6984,0 -24.80315,-7.13877 -24.80315,-15.9449 0,-8.80613 11.10475,-15.9449 24.80315,-15.9449 13.6984,0 24.80315,7.13877 24.80315,15.9449 z"
           sodipodi:cx="308.2677"
           sodipodi:cy="295.86615"
           sodipodi:rx="24.803146"
           sodipodi:ry="15.944901"
           transform="matrix(1.285716,0,0,1,-80.99048,3.543213)" />
        <path
           sodipodi:type="arc"
           style="fill:#808080;fill-opacity:1;fill-rule:evenodd;stroke:none"
           id="path569"
           d="m 333.07085,295.86615 c 0,8.80613 -11.10475,15.9449 -24.80315,15.9449 -13.6984,0 -24.80315,-7.13877 -24.80315,-15.9449 0,-8.80613 11.10475,-15.9449 24.80315,-15.9449 13.6984,0 24.80315,7.13877 24.80315,15.9449 z"
           sodipodi:cx="308.2677"
           sodipodi:cy="295.86615"
           sodipodi:rx="24.803146"
           sodipodi:ry="15.944901"
           transform="matrix(0.857147,0,0,1,51.1238,3.543213)" />
        <path
           inkscape:connector-curvature="0"
           style="fill:#d0d0d0;fill-opacity:1;fill-rule:evenodd;stroke:none"
           d="m 281.339,223.228 4.96,0 4.961,14.174 4.96,-14.174 4.961,0 -9.921,28.347 -9.921,-28.347 z"
           id="path570"
           sodipodi:nodetypes="ccccccc"
           transform="matrix(0.714292,0,0,0.749985,100.2229,123.1336)" />
        <rect
           style="font-size:12px;fill:#d0d0d0;fill-opacity:1;fill-rule:evenodd;stroke-width:1pt"
           id="rect571"
           width="3.543304"
           height="21.259827"
           x="322.44095"
           y="290.55121" />
      </g>
      <g
         id="g572"
         transform="matrix(-0.24752135,0.24750894,-0.24752135,-0.24750894,283.58322,138.10604)">
        <path
           sodipodi:type="arc"
           style="fill:#d0d0d0;fill-opacity:1;fill-rule:evenodd;stroke:none"
           id="path573"
           d="m 333.07085,295.86615 c 0,8.80613 -11.10475,15.9449 -24.80315,15.9449 -13.6984,0 -24.80315,-7.13877 -24.80315,-15.9449 0,-8.80613 11.10475,-15.9449 24.80315,-15.9449 13.6984,0 24.80315,7.13877 24.80315,15.9449 z"
           sodipodi:cx="308.2677"
           sodipodi:cy="295.86615"
           sodipodi:rx="24.803146"
           sodipodi:ry="15.944901"
           transform="matrix(1.285716,0,0,1,-80.99048,3.543213)" />
        <path
           sodipodi:type="arc"
           style="fill:#808080;fill-opacity:1;fill-rule:evenodd;stroke:none"
           id="path574"
           d="m 333.07085,295.86615 c 0,8.80613 -11.10475,15.9449 -24.80315,15.9449 -13.6984,0 -24.80315,-7.13877 -24.80315,-15.9449 0,-8.80613 11.10475,-15.9449 24.80315,-15.9449 13.6984,0 24.80315,7.13877 24.80315,15.9449 z"
           sodipodi:cx="308.2677"
           sodipodi:cy="295.86615"
           sodipodi:rx="24.803146"
           sodipodi:ry="15.944901"
           transform="matrix(0.857147,0,0,1,51.1238,3.543213)" />
        <path
           inkscape:connector-curvature="0"
           style="fill:#d0d0d0;fill-opacity:1;fill-rule:evenodd;stroke:none"
           d="m 281.339,223.228 4.96,0 4.961,14.174 4.96,-14.174 4.961,0 -9.921,28.347 -9.921,-28.347 z"
           id="path575"
           sodipodi:nodetypes="ccccccc"
           transform="matrix(0.714292,0,0,0.749985,100.2229,123.1336)" />
        <rect
           style="font-size:12px;fill:#d0d0d0;fill-opacity:1;fill-rule:evenodd;stroke-width:1pt"
           id="rect576"
           width="3.543304"
           height="21.259827"
           x="322.44095"
           y="290.55121" />
      </g>
      <g
         id="g577"
         transform="matrix(-0.24752135,-0.24750894,0.24752135,-0.24750894,90.423333,294.21204)">
        <path
           sodipodi:type="arc"
           style="fill:#d0d0d0;fill-opacity:1;fill-rule:evenodd;stroke:none"
           id="path578"
           d="m 333.07085,295.86615 c 0,8.80613 -11.10475,15.9449 -24.80315,15.9449 -13.6984,0 -24.80315,-7.13877 -24.80315,-15.9449 0,-8.80613 11.10475,-15.9449 24.80315,-15.9449 13.6984,0 24.80315,7.13877 24.80315,15.9449 z"
           sodipodi:cx="308.2677"
           sodipodi:cy="295.86615"
           sodipodi:rx="24.803146"
           sodipodi:ry="15.944901"
           transform="matrix(1.285716,0,0,1,-80.99048,3.543213)" />
        <path
           sodipodi:type="arc"
           style="fill:#808080;fill-opacity:1;fill-rule:evenodd;stroke:none"
           id="path579"
           d="m 333.07085,295.86615 c 0,8.80613 -11.10475,15.9449 -24.80315,15.9449 -13.6984,0 -24.80315,-7.13877 -24.80315,-15.9449 0,-8.80613 11.10475,-15.9449 24.80315,-15.9449 13.6984,0 24.80315,7.13877 24.80315,15.9449 z"
           sodipodi:cx="308.2677"
           sodipodi:cy="295.86615"
           sodipodi:rx="24.803146"
           sodipodi:ry="15.944901"
           transform="matrix(0.857147,0,0,1,51.1238,3.543213)" />
        <path
           inkscape:connector-curvature="0"
           style="fill:#d0d0d0;fill-opacity:1;fill-rule:evenodd;stroke:none"
           d="m 281.339,223.228 4.96,0 4.961,14.174 4.96,-14.174 4.961,0 -9.921,28.347 -9.921,-28.347 z"
           id="path580"
           sodipodi:nodetypes="ccccccc"
           transform="matrix(0.714292,0,0,0.749985,100.2229,123.1336)" />
        <rect
           style="font-size:12px;fill:#d0d0d0;fill-opacity:1;fill-rule:evenodd;stroke-width:1pt"
           id="rect581"
           width="3.543304"
           height="21.259827"
           x="322.44095"
           y="290.55121" />
      </g>
      <path
         sodipodi:type="arc"
         style="fill:none;stroke:#707070;stroke-width:1pt;stroke-linecap:butt;stroke-linejoin:miter;stroke-opacity:1"
         id="path582"
         d="m 269.29135,414.56689 c 0,41.09522 -34.10744,74.40947 -76.18111,74.40947 -42.07366,0 -76.1811,-33.31425 -76.1811,-74.40947 0,-41.09521 34.10744,-74.40947 76.1811,-74.40947 42.07367,0 76.18111,33.31426 76.18111,74.40947 z"
         sodipodi:cx="193.11024"
         sodipodi:cy="414.56689"
         sodipodi:rx="76.181107"
         sodipodi:ry="74.40947"
         transform="matrix(0.34190723,0,0,0.35003039,42.92056,-25.527039)" />
      <path
         sodipodi:type="arc"
         style="fill:none;stroke:#707070;stroke-width:1pt;stroke-linecap:butt;stroke-linejoin:miter;stroke-opacity:1"
         id="path583"
         d="m 269.29135,414.56689 c 0,41.09522 -34.10744,74.40947 -76.18111,74.40947 -42.07366,0 -76.1811,-33.31425 -76.1811,-74.40947 0,-41.09521 34.10744,-74.40947 76.1811,-74.40947 42.07367,0 76.18111,33.31426 76.18111,74.40947 z"
         sodipodi:cx="193.11024"
         sodipodi:cy="414.56689"
         sodipodi:rx="76.181107"
         sodipodi:ry="74.40947"
         transform="matrix(0.26050078,0,0,0.2666892,58.64101,9.0233732)" />
      <path
         sodipodi:type="arc"
         style="fill:#d0d0d0;fill-opacity:1;fill-rule:evenodd;stroke:none"
         id="path584"
         d="m 170.07873,474.80313 c 0,1.95691 -1.58639,3.54331 -3.5433,3.54331 -1.95691,0 -3.5433,-1.5864 -3.5433,-3.54331 0,-1.95691 1.58639,-3.5433 3.5433,-3.5433 1.95691,0 3.5433,1.58639 3.5433,3.5433 z"
         sodipodi:cx="166.53543"
         sodipodi:cy="474.80313"
         sodipodi:rx="3.543304"
         sodipodi:ry="3.543304"
         transform="matrix(0.35004794,0,0,0.35003039,40.728357,-25.527119)" />
      <path
         sodipodi:type="arc"
         style="fill:#d0d0d0;fill-opacity:1;fill-rule:evenodd;stroke:none"
         id="path585"
         d="m 170.07873,474.80313 c 0,1.95691 -1.58639,3.54331 -3.5433,3.54331 -1.95691,0 -3.5433,-1.5864 -3.5433,-3.54331 0,-1.95691 1.58639,-3.5433 3.5433,-3.5433 1.95691,0 3.5433,1.58639 3.5433,3.5433 z"
         sodipodi:cx="166.53543"
         sodipodi:cy="474.80313"
         sodipodi:rx="3.543304"
         sodipodi:ry="3.543304"
         transform="matrix(0.35004794,0,0,0.35003039,60.573593,-25.527119)" />
      <path
         inkscape:connector-curvature="0"
         style="fill:#d0d0d0;fill-opacity:1;fill-rule:evenodd;stroke:none"
         d="m 108.11959,140.66834 0,1.29325 -1.65386,0 c -1.65386,0 -1.65386,1.29325 0,1.29325 l 1.65386,0 0,1.29306 c 0.006,1.34069 1.44337,1.50219 1.54862,0.10456 l 0.10501,-1.39762 1.65386,0 c 1.65363,0 1.65363,-1.29325 0,-1.29325 l -1.65386,0 0,-1.29325 c 0,-1.29306 -1.65363,-1.29306 -1.65363,0 z"
         id="path586"
         sodipodi:nodetypes="ccccccccccccc" />
      <path
         inkscape:connector-curvature="0"
         style="fill:#d0d0d0;fill-opacity:1;fill-rule:evenodd;stroke:#707070;stroke-width:0.10937248pt;stroke-linecap:butt;stroke-linejoin:miter;stroke-opacity:1"
         d="m 102.77394,122.34554 c 0,0 0,0.73318 0,0.73318 0,0 -0.38874,0.56103 -2.86795,0.73308 -2.479206,0.17204 -2.867952,0 -2.867952,0 0.06464,0.63945 0.547158,1.85142 0.409675,3.29915 0.09655,1.68538 -0.474427,3.21143 -0.474427,3.21143 0.06475,0.0877 -0.23334,0.13232 -0.754712,0.0877 0.409674,-0.36664 0.362382,-1.42715 0.409674,-2.93262 0.04729,-1.50557 -1.564117,-3.77153 -1.229139,-4.39877 0.334978,-0.62724 7.374831,-0.73318 7.374831,-0.73318 z"
         id="path590"
         sodipodi:nodetypes="cccccccccc" />
      <path
         inkscape:connector-curvature="0"
         style="fill:#d0d0d0;fill-opacity:1;fill-rule:evenodd;stroke:#707070;stroke-width:0.10937248pt;stroke-linecap:butt;stroke-linejoin:miter;stroke-opacity:1"
         d="m 112.60701,119.68556 c 2.41179,-0.11142 6.45893,-0.0872 6.45893,-0.0872 0,0 0.95429,1.91411 0.91463,2.97152 -0.0397,1.0574 -0.36782,1.95725 -0.81831,1.50733 -0.45049,-0.44993 0.20871,-0.3653 0.28884,-1.50733 0.08,-1.14203 -0.7702,-2.32555 -0.7702,-2.32555 0,0 -1.73005,0.75542 -4.33217,0.60293 -2.602,-0.15249 -1.4501,-1.11638 -1.74172,-1.16169 z"
         id="path591"
         sodipodi:nodetypes="cccccccc" />
      <path
         inkscape:connector-curvature="0"
         style="fill:#d0d0d0;fill-opacity:1;fill-rule:evenodd;stroke:#707070;stroke-width:0.10937248pt;stroke-linecap:butt;stroke-linejoin:miter;stroke-opacity:1"
         d="m 113.432,121.57543 c 2.4118,-0.11142 3.99511,0.25843 3.99511,0.25843 0,0 0.95429,1.91411 0.91463,2.97152 -0.0397,1.0574 -0.36782,1.95725 -0.81831,1.50733 -0.45049,-0.44993 0.20871,-0.3653 0.28884,-1.50733 0.08,-1.14203 -0.77021,-2.32555 -0.77021,-2.32555 0,0 -1.73004,0.75542 -4.33216,0.60293 -2.60201,-0.15249 -1.85978,-0.30778 -2.1514,-0.35309 -0.29162,-0.0453 -0.36204,0.71984 -4.29863,0.82681 -3.93648,0.10687 -5.94416,-0.82681 -5.94416,-0.82681 0,0 -0.388741,0.56103 -2.867947,0.73308 -2.479207,0.17204 -2.867952,0 -2.867952,0 0.06464,0.63945 0.547157,1.85142 0.409674,3.29916 0.09655,1.68537 -0.474427,3.21142 -0.474427,3.21142 0.06475,0.0877 -0.23334,0.13232 -0.754712,0.0877 0.409675,-0.36664 0.362382,-1.42715 0.409675,-2.93262 0.04729,-1.50557 -1.564117,-3.77153 -1.229139,-4.39877 0.334978,-0.62724 2.119831,-0.0409 2.458277,-0.36664 0.338332,-0.32578 -1.589786,-2.62081 -1.229138,-4.76542 0.360763,-2.14471 2.404163,-1.54002 4.916555,-1.46625 2.512274,0.0737 8.078434,0.72449 9.423324,0 1.345,-0.72449 0.76292,-3.40665 2.0486,-5.13196 0.81935,-1.09971 2.04849,-1.46625 3.27763,-1.46625 0.81946,0 2.0486,2.93251 2.0486,3.66569 0,0 -0.40979,0.36654 -0.40979,0.36654 0,0 -0.40968,0 -0.40968,0 0,0 0,0.36654 0,0.36654 -0.9352,0.0938 -1.06563,-0.79991 -1.63881,-1.46626 -0.24629,1.03289 0.81935,4.39888 0.81935,6.59832 0,1.83279 -0.7657,2.64067 -0.8138,2.51145 z"
         id="path588"
         sodipodi:nodetypes="cccccccccccccccccccccscssscccc" />
      <path
         inkscape:connector-curvature="0"
         style="fill:#d0d0d0;fill-opacity:1;fill-rule:evenodd;stroke:#707070;stroke-width:0.10937248pt;stroke-linecap:butt;stroke-linejoin:miter;stroke-opacity:1"
         d="m 105.54253,118.39816 c 0.034,0.7306 -3.16639,2.36859 -3.42691,3.01714 -0.26051,0.64856 0.81357,1.00806 0.48137,1.37812 -0.33209,0.37016 -0.6059,0.23287 -0.67389,0.30146 -0.068,0.0687 -1.20335,-2.54083 -1.20335,-2.54083 0,0 3.00185,-1.3536 2.88807,-1.93801 -0.11378,-0.58442 -2.21673,-0.93988 -2.59923,-2.41173 -0.38262,-1.47181 -0.17044,-4.31502 -0.48136,-4.90956 -0.31093,-0.59453 -3.995225,-1.16177 -3.998347,-2.06081 -0.0031,-0.89905 3.786857,-3.36652 4.196527,-3.73309 0.40968,-0.36657 0.81947,0.36657 0.40968,0.73314 -0.40968,0.36657 -3.377069,2.63339 -3.377069,2.99995 0,0.36657 2.458279,0.73314 3.277739,0.73314 0.81935,0 1.22914,-0.36657 1.22914,-0.73314 0.005,-0.31713 -0.81946,-0.36656 -0.81946,-1.0997 0,-0.73314 0.40967,-1.09972 1.22914,-1.09972 0.40967,0 1.19745,0.46939 1.22914,1.09972 0.0317,0.63031 -0.72905,0.6837 -0.81947,1.0997 -0.0903,0.41602 0.81947,0.73314 1.63881,0.73314 0.81947,0 3.61712,2.13202 4.02679,2.49859 0.40979,0.36658 0.81947,0.36657 0.40979,0.73315 -0.40967,0.36657 -0.16974,0.80054 -0.57953,0.43397 -0.34885,-0.35412 -0.40968,-0.73315 -0.40968,-0.73315 -0.0354,-0.33309 -3.03758,-1.83285 -3.44737,-1.46628 -0.40967,0.36657 0,4.76547 0,5.13201 0,0.73307 0.85346,0.73059 0.81947,1.83279 z"
         id="path592"
         sodipodi:nodetypes="cccccccccccccccccccccccccc" />
      <rect
         style="font-size:12px;fill:#a7a7a7;fill-opacity:1;fill-rule:evenodd;stroke-width:1pt"
         id="rect604"
         width="4.9165254"
         height="5.131989"
         x="100.31573"
         y="109.89965" />
      <rect
         style="font-size:12px;fill:#808080;fill-rule:evenodd;stroke-width:1pt"
         id="rect593"
         width="30.646761"
         height="0.39885503"
         x="138.60109"
         y="-25.67227"
         ry="0.19942757"
         rx="0.44450912"
         transform="matrix(0.55442427,0.83223418,-0.88237148,0.47055346,0,0)" />
      <path
         sodipodi:type="arc"
         style="fill:#d0d0d0;fill-opacity:1;fill-rule:evenodd;stroke:#707070;stroke-width:1pt;stroke-linecap:butt;stroke-linejoin:miter;stroke-opacity:1"
         id="path594"
         d="m 180.70865,42.519653 c 0,3.913843 -3.17278,7.086639 -7.08661,7.086639 -3.91383,0 -7.08661,-3.172796 -7.08661,-7.086639 0,-3.913842 3.17278,-7.086639 7.08661,-7.086639 3.91383,0 7.08661,3.172797 7.08661,7.086639 z"
         sodipodi:cx="173.62204"
         sodipodi:cy="42.519653"
         sodipodi:rx="7.0866089"
         sodipodi:ry="7.0866389"
         transform="matrix(0.11562924,0,0,0.10345428,80.649609,101.46854)" />
      <path
         inkscape:connector-curvature="0"
         style="font-size:12px;fill:#808080;fill-rule:evenodd;stroke-width:1pt"
         d="m 115.88472,112.53852 c 0,0.30373 -1.9021,0.66027 -4.09715,0.66027 -2.19505,0 -4.09708,-0.35654 -4.09708,-0.66027 0,-0.30372 1.90203,0.44018 4.09708,0.44018 2.19505,0 4.09715,-0.7439 4.09715,-0.44018 z"
         id="path596"
         sodipodi:nodetypes="ccccc" />
      <rect
         style="font-size:12px;fill:#a7a7a7;fill-opacity:1;fill-rule:evenodd;stroke-width:1pt"
         id="rect603"
         width="4.0971031"
         height="1.466279"
         x="100.72544"
         y="115.03164" />
      <path
         sodipodi:type="arc"
         style="fill:#808080;fill-opacity:1;fill-rule:evenodd;stroke:none"
         id="path597"
         d="m 279.92126,58.464554 c 0,6.849204 -0.7932,12.401581 -1.77166,12.401581 -0.97847,0 -1.77167,-5.552377 -1.77167,-12.401581 0,-6.849204 0.7932,-12.401581 1.77167,-12.401581 0.97846,0 1.77166,5.552377 1.77166,12.401581 z"
         sodipodi:cx="278.1496"
         sodipodi:cy="58.464554"
         sodipodi:rx="1.771667"
         sodipodi:ry="12.401581"
         transform="matrix(0.06919223,0.09105586,-0.05799734,0.10863158,98.070865,79.578407)" />
      <path
         sodipodi:type="arc"
         style="fill:#808080;fill-opacity:1;fill-rule:evenodd;stroke:none"
         id="path598"
         d="m 279.92126,58.464554 c 0,6.849204 -0.7932,12.401581 -1.77166,12.401581 -0.97847,0 -1.77167,-5.552377 -1.77167,-12.401581 0,-6.849204 0.7932,-12.401581 1.77167,-12.401581 0.97846,0 1.77166,5.552377 1.77166,12.401581 z"
         sodipodi:cx="278.1496"
         sodipodi:cy="58.464554"
         sodipodi:rx="1.771667"
         sodipodi:ry="12.401581"
         transform="matrix(0.01298495,0.08170794,-0.06604705,0.05794263,115.31496,87.084214)" />
      <path
         sodipodi:type="arc"
         style="fill:#808080;fill-opacity:1;fill-rule:evenodd;stroke:none"
         id="path599"
         d="m 279.92126,58.464554 c 0,6.849204 -0.7932,12.401581 -1.77166,12.401581 -0.97847,0 -1.77167,-5.552377 -1.77167,-12.401581 0,-6.849204 0.7932,-12.401581 1.77167,-12.401581 0.97846,0 1.77166,5.552377 1.77166,12.401581 z"
         sodipodi:cx="278.1496"
         sodipodi:cy="58.464554"
         sodipodi:rx="1.771667"
         sodipodi:ry="12.401581"
         transform="matrix(0.06376963,-0.02720652,0.04870287,0.08858849,93.865879,114.85384)" />
      <path
         sodipodi:type="arc"
         style="fill:#808080;fill-opacity:1;fill-rule:evenodd;stroke:none"
         id="path600"
         d="m 290.55118,136.41733 c 0,0.97846 -10.31155,1.77166 -23.0315,1.77166 -12.71994,0 -23.03149,-0.7932 -23.03149,-1.77166 0,-0.97846 10.31155,-1.77166 23.03149,-1.77166 12.71995,0 23.0315,0.7932 23.0315,1.77166 z"
         sodipodi:cx="267.51968"
         sodipodi:cy="136.41733"
         sodipodi:rx="23.031494"
         sodipodi:ry="1.77166"
         transform="matrix(0.12452395,0,0,0.10345428,78.065275,101.46854)" />
      <path
         sodipodi:type="arc"
         style="fill:#808080;fill-opacity:1;fill-rule:evenodd;stroke:none"
         id="path601"
         d="m 209.05512,132.87399 c 0,0.97846 -7.93196,1.77166 -17.71653,1.77166 -9.78457,0 -17.71653,-0.7932 -17.71653,-1.77166 0,-0.97846 7.93196,-1.77166 17.71653,-1.77166 9.78457,0 17.71653,0.7932 17.71653,1.77166 z"
         sodipodi:cx="191.33859"
         sodipodi:cy="132.87399"
         sodipodi:rx="17.71653"
         sodipodi:ry="1.77166"
         transform="matrix(0.11562924,0,0,0.10345428,80.649609,101.46854)" />
      <path
         inkscape:connector-curvature="0"
         style="fill:#d0d0d0;fill-opacity:1;fill-rule:evenodd;stroke:#808080;stroke-width:0.05862915pt;stroke-linecap:butt;stroke-linejoin:miter;stroke-opacity:1"
         d="m 95.812674,127.96163 c 0,0 0.67574,1.64283 3.556365,1.66556 2.880621,0.0227 3.872011,-0.49276 2.706591,-1.36271 -1.16542,-0.86995 -3.332886,-0.59933 -3.052777,0.1514 0.280109,0.75074 -0.812883,1.00112 -1.070085,0.47317 -0.257125,-0.52791 -1.288653,-2.09099 0.566494,-2.19551 1.855218,-0.10453 5.784458,-0.67368 6.766548,0.41642 0.98215,1.09005 -1.10948,2.07812 0.47206,2.30904 1.58162,0.23093 1.80638,-0.26411 4.52832,-0.41347 2.72201,-0.1494 3.76064,0.50477 4.69313,0.41347 0.93249,-0.0913 0.80064,-1.69397 0.0629,-2.10085 -0.73773,-0.40692 -2.15468,-0.48131 -2.5178,-0.92742 -0.36305,-0.44611 -1.35103,-0.083 -1.25887,-0.58674 0.0922,-0.50377 1.40092,0.34668 1.41627,0.0894 4.5e-4,-0.008 0.21607,-0.17869 0.25962,-0.22179 -0.16466,-0.0376 -0.25864,0.0233 -0.38225,0.0886 0.1342,-0.1073 0.12588,-0.15677 0.17087,-0.24452 -0.0234,-0.0331 -0.18606,0.12431 -0.21358,0.0914 -0.0275,-0.0329 0.18938,-0.25607 0.0912,-0.17514 -0.034,0.0233 -0.29273,0.15136 -0.2956,0.0632 0.004,-0.0358 0.13525,-0.12789 0.089,-0.17786 -0.0373,-0.0416 -0.23384,0.0484 -0.25917,0.0587 0.11243,-0.15045 0.10449,-0.14863 -0.004,-0.26011 -0.0944,-0.11148 -0.1633,-0.10889 -0.31753,0.017 0.0642,-0.18091 0.0816,-0.21919 -0.0733,-0.28775 -0.12739,-0.0692 -0.13306,-0.1344 -0.29152,0.18923 0.0603,-0.34636 -0.10154,-0.36146 -0.0343,-0.5257 0.04,-0.15057 0.25123,-0.21411 0.59931,-0.18085 0.67627,0.006 1.03788,0.8163 1.25886,0.81385 0.22107,-0.002 0.46844,-0.85851 1.41628,-0.51102 0.94783,0.34748 1.06486,0.41836 1.54215,0.62459 0.47728,0.20619 -0.3353,0.52091 -0.063,0.92742 0.27232,0.40647 2.1342,1.76427 1.60513,3.17968 -0.52915,1.4154 -1.89205,1.63928 -2.01422,2.2523 -0.12225,0.61302 4.31444,0.3615 5.4447,0.56783 1.13019,0.20627 1.84282,1.05072 1.88834,1.19234 0.0455,0.14163 -1.98277,0.13249 -1.98277,0.13249 0,0 -1.0415,-0.53818 -3.52491,-0.58669 -2.48333,-0.0486 -3.42897,-1.05068 -4.35859,-1.17626 -0.92961,-0.12557 -2.91079,0.21051 -4.01822,0.16109 -1.10751,-0.0494 -2.22938,-0.22474 -2.94671,-0.32217 -0.71739,-0.0974 -4.28616,1.611 -4.27376,2.00887 -0.74393,-0.0282 -2.495577,-0.12316 -2.423376,-0.0757 0.0722,0.0474 0.313903,-0.77465 1.679446,-0.91914 1.36546,-0.14454 2.69487,-0.79898 2.65079,-1.22872 -0.0441,-0.42971 0.26363,-1.90394 0.37764,-2.5362 0.11401,-0.63225 0.62524,-0.93733 0.50359,-1.26809 -0.12165,-0.33072 -1.68171,-0.6719 -3.17873,-0.66245 -1.49701,0.01 -3.157936,0.0935 -3.399034,0.45426 -0.241022,0.36073 -0.05905,1.40781 0.251834,1.28705 0.310804,-0.1208 -0.07515,-0.80529 0.251758,-0.94638 0.326907,-0.14103 1.164664,-0.26565 1.951242,-0.28389 0.78664,-0.0182 2.15423,0.66968 2.14017,0.88955 -0.0141,0.21992 0.44008,0.95179 -0.18886,1.23027 -0.62887,0.27843 -1.91518,0.40292 -3.147202,0.34068 -1.232103,-0.0622 -2.47872,-0.48531 -2.926971,-0.75706 -0.448174,-0.27175 -0.723823,-1.09778 -0.723823,-1.15457 z"
         id="path609"
         sodipodi:nodetypes="ccccccccccccccccccccccccccccccccccccccccccccccccccccccccc" />
      <path
         sodipodi:type="arc"
         style="fill:#000000;fill-opacity:1;fill-rule:evenodd;stroke:none"
         id="path610"
         d="m 205.51181,434.05511 c 0,0.97847 -0.7932,1.77167 -1.77165,1.77167 -0.97846,0 -1.77165,-0.7932 -1.77165,-1.77167 0,-0.97846 0.79319,-1.77166 1.77165,-1.77166 0.97845,0 1.77165,0.7932 1.77165,1.77166 z"
         sodipodi:cx="203.74016"
         sodipodi:cy="434.05511"
         sodipodi:rx="1.771652"
         sodipodi:ry="1.771667"
         transform="matrix(0.18554676,0,0,0.18554201,75.921022,44.994845)" />
      <path
         inkscape:connector-curvature="0"
         style="font-size:12px;font-weight:normal;fill:#d0d0d0;fill-opacity:1;stroke-width:1pt;font-family:helvetica"
         d="m 129.51133,120.76962 1.59542,0.34396 2.66474,-1.82361 -0.20645,0.95748 -1.38823,0.92729 c -0.25877,0.17025 -0.51485,0.32588 -0.76735,0.46705 0.15834,0.22106 0.33361,0.48489 0.52507,0.79279 l 0.85907,1.39077 -0.19763,0.91663 -1.65894,-2.84124 -1.59543,-0.34395 0.16973,-0.78717 z"
         id="path615" />
      <path
         inkscape:connector-curvature="0"
         style="font-size:12px;font-weight:normal;fill:#d0d0d0;fill-opacity:1;stroke-width:1pt;font-family:helvetica"
         d="m 126.78713,109.03824 3.08622,-1.42137 -0.83851,-1.82048 0.41307,-0.19024 2.01717,4.37943 -0.41307,0.19024 -0.84178,-1.82755 -3.08621,1.42137 -0.33689,-0.7314 z"
         id="path618" />
      <path
         inkscape:connector-curvature="0"
         style="font-size:12px;font-weight:normal;fill:#d0d0d0;fill-opacity:1;stroke-width:1pt;font-family:helvetica"
         d="m 122.01293,103.22886 2.84133,-2.60168 0.55772,0.60903 -0.073,4.39878 2.23072,-2.04258 0.52137,0.56933 -2.84133,2.60168 -0.55772,-0.60903 0.0746,-4.40112 -2.23271,2.0444 -0.52089,-0.56881 z"
         id="path619" />
      <path
         inkscape:connector-curvature="0"
         style="font-size:12px;font-weight:normal;fill:#d0d0d0;fill-opacity:1;stroke-width:1pt;font-family:helvetica"
         d="m 109.59189,98.214448 0.46587,-3.824143 0.79868,0.09729 -0.41087,3.372725 2.97467,0.362345 -0.055,0.451418 -3.77335,-0.459633 z"
         id="path622" />
      <path
         inkscape:connector-curvature="0"
         style="font-size:12px;font-weight:normal;fill:#d0d0d0;fill-opacity:1;stroke-width:1pt;font-family:helvetica"
         d="m 103.4803,98.761774 -0.68951,-3.790211 0.7923,-0.14412 0.60811,3.342799 2.94758,-0.536169 0.0814,0.447412 -3.73988,0.680289 z"
         id="path623" />
      <path
         inkscape:connector-curvature="0"
         style="font-size:12px;font-weight:normal;fill:#d0d0d0;fill-opacity:1;stroke-width:1pt;font-family:helvetica"
         d="m 92.197622,104.33203 -0.282566,-0.35288 2.010222,-1.61295 0.893672,1.11607 c -0.184312,0.40323 -0.408578,0.77583 -0.672798,1.1178 -0.266175,0.34066 -0.572031,0.64989 -0.917576,0.92655 -0.466072,0.37316 -0.941136,0.65011 -1.423808,0.83031 -0.482414,0.17712 -0.915964,0.22377 -1.302317,0.14013 -0.385519,-0.0837 -0.696992,-0.27329 -0.933585,-0.56876 -0.234351,-0.29267 -0.356523,-0.64241 -0.36735,-1.04912 -0.0089,-0.40997 0.11865,-0.82177 0.38266,-1.23538 0.264291,-0.41327 0.632926,-0.80953 1.106185,-1.18845 0.343334,-0.27489 0.681255,-0.48742 1.014597,-0.63769 0.334713,-0.15308 0.631308,-0.23026 0.889513,-0.23074 0.258485,-1.3e-4 0.50965,0.0677 0.753783,0.20484 l -0.487924,0.5521 c -0.194102,-0.0962 -0.378713,-0.14549 -0.554945,-0.14802 -0.17568,-0.003 -0.383232,0.0483 -0.62099,0.15364 -0.238879,0.10393 -0.478848,0.25182 -0.718795,0.44394 -0.286941,0.22974 -0.512475,0.45685 -0.677162,0.68063 -0.165808,0.22238 -0.277513,0.43074 -0.334562,0.62465 -0.05539,0.19257 -0.07502,0.37088 -0.06,0.53581 0.02805,0.28319 0.129256,0.53309 0.303337,0.75049 0.214728,0.26816 0.466009,0.43467 0.755508,0.49933 0.291431,0.0625 0.611651,0.0262 0.959827,-0.10893 0.348729,-0.13558 0.680109,-0.32909 0.993035,-0.57963 0.272013,-0.21779 0.511595,-0.46362 0.717919,-0.73625 0.205755,-0.27447 0.345392,-0.50348 0.419198,-0.68552 l -0.448518,-0.56013 -1.396557,1.11816 z"
         id="path626" />
      <path
         inkscape:connector-curvature="0"
         style="font-size:12px;font-weight:normal;fill:#d0d0d0;fill-opacity:1;stroke-width:1pt;font-family:helvetica"
         d="m 92.068461,132.02821 -3.141179,2.23049 -2.376333,-3.34624 0.370798,-0.2633 1.910203,2.68986 0.972705,-0.6907 -1.653128,-2.32785 0.370798,-0.2633 1.653128,2.32785 1.426878,-1.01319 0.46613,0.65638 z"
         id="path631" />
      <path
         inkscape:connector-curvature="0"
         style="font-size:12px;font-weight:normal;fill:#d0d0d0;fill-opacity:1;stroke-width:1pt;font-family:helvetica"
         d="m 87.440555,127.01829 c 0.446731,-0.12608 0.746127,-0.41429 0.89696,-0.86551 0.148934,-0.45316 0.14259,-0.96589 -0.01904,-1.53851 -0.164465,-0.58265 -0.429625,-1.02512 -0.795063,-1.32753 -0.366584,-0.30487 -0.788092,-0.38992 -1.26551,-0.25517 -0.301718,0.0852 -0.542119,0.24062 -0.720301,0.46613 -0.180985,0.22383 -0.288914,0.50846 -0.324041,0.85458 -0.03743,0.3446 -0.0021,0.70921 0.107048,1.09573 0.154672,0.54796 0.408182,0.98722 0.759279,1.31627 0.348978,0.32687 0.802604,0.41152 1.36067,0.25401 z m 0.218104,0.80063 c -0.615543,0.17373 -1.170777,0.049 -1.66525,-0.37515 -0.496399,-0.42303 -0.861061,-1.04793 -1.093837,-1.87259 -0.152567,-0.5405 -0.208608,-1.05097 -0.167555,-1.53126 0.04105,-0.4803 0.176351,-0.8745 0.405917,-1.18387 0.227179,-0.31116 0.526304,-0.51942 0.897049,-0.62406 0.375964,-0.10611 0.746108,-0.0809 1.110595,0.0744 0.364313,0.15629 0.685457,0.4322 0.962516,0.82766 0.27606,0.39698 0.485755,0.84923 0.629257,1.35761 0.155642,0.5514 0.210159,1.06818 0.164131,1.54895 -0.04612,0.48203 -0.183321,0.87616 -0.412038,1.18187 -0.228635,0.30601 -0.505757,0.50465 -0.830785,0.59639 z"
         id="path634" />
      <path
         inkscape:connector-curvature="0"
         style="font-size:12px;font-weight:normal;fill:#d0d0d0;fill-opacity:1;stroke-width:1pt;font-family:helvetica"
         d="m 87.981197,119.9968 -3.85161,-0.0869 0.06087,-2.69687 c 0.01224,-0.54242 0.05652,-0.95357 0.13329,-1.23376 0.07447,-0.28114 0.201065,-0.50359 0.380226,-0.66792 0.179095,-0.16464 0.3743,-0.24517 0.586382,-0.24038 0.273019,0.006 0.500375,0.15136 0.68151,0.43469 0.181121,0.28392 0.290656,0.71792 0.328164,1.30229 0.06934,-0.21093 0.137117,-0.37152 0.202788,-0.4806 0.141633,-0.23194 0.317549,-0.45118 0.527149,-0.65685 l 1.072216,-1.03406 -0.02285,1.01244 -0.819446,0.78705 c -0.236687,0.22979 -0.417713,0.41912 -0.54396,0.56856 -0.125885,0.14944 -0.214556,0.28423 -0.266669,0.40464 -0.05155,0.11805 -0.08835,0.23911 -0.110459,0.36318 -0.01464,0.0912 -0.02379,0.24026 -0.02846,0.44698 l -0.02108,0.9341 1.710108,0.0386 -0.01817,0.80483 z m -2.133602,-0.85338 0.03906,-1.7306 c 0.0083,-0.36757 -0.0086,-0.65553 -0.05138,-0.86392 -0.04425,-0.20871 -0.117815,-0.36832 -0.220707,-0.47823 -0.104317,-0.11083 -0.218762,-0.16706 -0.342947,-0.16986 -0.182085,-0.004 -0.334166,0.098 -0.456447,0.3056 -0.122141,0.20466 -0.188252,0.53188 -0.19843,0.98285 l -0.04346,1.9254 1.274304,0.0288 z"
         id="path637" />
      <path
         inkscape:connector-curvature="0"
         style="font-size:12px;font-weight:normal;fill:#d0d0d0;fill-opacity:1;stroke-width:1pt;font-family:helvetica"
         d="m 96.549933,102.1982 0.0263,-4.505468 0.744482,-0.445576 4.115135,2.026803 -0.78692,0.470977 -1.208087,-0.636415 -2.182825,1.306429 0.02591,1.34395 -0.733999,0.4393 z m 0.693958,-2.258782 1.769678,-1.05916 -1.092268,-0.589703 c -0.33323,-0.178468 -0.593292,-0.333319 -0.780949,-0.463506 0.06048,0.251298 0.09265,0.517943 0.09627,0.799562 l 0.0073,1.312807 z"
         id="path640" />
      <path
         inkscape:connector-curvature="0"
         style="font-size:12px;font-weight:normal;fill:#d0d0d0;fill-opacity:1;stroke-width:1pt;font-family:helvetica"
         d="m 115.8493,98.733762 4.15713,-1.737814 0.70054,0.510371 -0.25588,4.580031 -0.74123,-0.54002 0.11329,-1.36071 -2.0561,-1.497949 -1.22684,0.549444 -0.69091,-0.503353 z m 2.35063,-0.244544 1.66694,1.214433 0.11488,-1.236376 c 0.0347,-0.375946 0.0752,-0.676019 0.12167,-0.899636 -0.20836,0.153414 -0.44096,0.287471 -0.69827,0.401295 l -1.20522,0.520284 z"
         id="path643" />
      <path
         inkscape:connector-curvature="0"
         style="font-size:12px;font-weight:normal;fill:#d0d0d0;fill-opacity:1;stroke-width:1pt;font-family:helvetica"
         d="m 128.50375,112.8299 3.74683,-0.89652 0.62779,2.62349 c 0.12613,0.52708 0.18799,0.93596 0.1853,1.22733 -6.4e-4,0.28996 -0.0664,0.53731 -0.19763,0.74271 -0.13128,0.20481 -0.29969,0.3318 -0.506,0.38116 -0.26559,0.0636 -0.52235,-0.0187 -0.7698,-0.24715 -0.24723,-0.22758 -0.4638,-0.61997 -0.64893,-1.17582 -0.0132,0.2222 -0.0378,0.39505 -0.0735,0.51725 -0.0779,0.26036 -0.19242,0.51629 -0.34274,0.76855 l -0.77353,1.27325 -0.23555,-0.98432 0.59205,-0.96973 c 0.17038,-0.28248 0.2971,-0.51224 0.38128,-0.68831 0.0837,-0.17657 0.13498,-0.33007 0.15464,-0.46008 0.02,-0.12641 0.0248,-0.25284 0.0146,-0.37846 -0.009,-0.0919 -0.0382,-0.23869 -0.0865,-0.44036 l -0.21724,-0.90782 -1.66358,0.39805 -0.18743,-0.78322 z m 2.28065,0.28237 0.40265,1.68264 c 0.0857,0.35814 0.17533,0.63233 0.26986,0.82324 0.0959,0.19028 0.2075,0.32532 0.3352,0.40628 0.12889,0.0798 0.25395,0.10528 0.37475,0.0764 0.17713,-0.0424 0.29835,-0.17922 0.36374,-0.41115 0.0659,-0.22931 0.0464,-0.56315 -0.0586,-1.00185 l -0.448,-1.87215 -1.23964,0.29662 z"
         id="path646" />
    </g>
  </g>
</svg>
