<?xml version="1.0" encoding="UTF-8" standalone="no"?>
<!-- Created with Sodipodi ("http://www.sodipodi.com/") -->

<svg
   xmlns:dc="http://purl.org/dc/elements/1.1/"
   xmlns:cc="http://creativecommons.org/ns#"
   xmlns:rdf="http://www.w3.org/1999/02/22-rdf-syntax-ns#"
   xmlns:svg="http://www.w3.org/2000/svg"
   xmlns="http://www.w3.org/2000/svg"
   xmlns:sodipodi="http://sodipodi.sourceforge.net/DTD/sodipodi-0.dtd"
   xmlns:inkscape="http://www.inkscape.org/namespaces/inkscape"
   version="1"
   x="0"
   y="0"
   width="640"
   height="480"
   id="svg378"
   inkscape:version="0.48.1 r9760"
   sodipodi:docname="mw.svg">
  <sodipodi:namedview
     pagecolor="#ffffff"
     bordercolor="#666666"
     borderopacity="1"
     objecttolerance="10"
     gridtolerance="10"
     guidetolerance="10"
     inkscape:pageopacity="0"
     inkscape:pageshadow="2"
     inkscape:window-width="1280"
     inkscape:window-height="746"
     id="namedview3845"
     showgrid="false"
     inkscape:zoom="0.4021669"
     inkscape:cx="531.495"
     inkscape:cy="385.41213"
     inkscape:window-x="0"
     inkscape:window-y="24"
     inkscape:window-maximized="1"
     inkscape:current-layer="svg378" />
  <metadata
     id="metadata3847">
    <rdf:RDF>
      <cc:Work
         rdf:about="">
        <dc:format>image/svg+xml</dc:format>
        <dc:type
           rdf:resource="http://purl.org/dc/dcmitype/StillImage" />
      </cc:Work>
    </rdf:RDF>
  </metadata>
  <defs
     id="defs380">
    <clipPath
       id="clipPath6009"
       clipPathUnits="userSpaceOnUse">
      <rect
         y="3.2271494e-06"
         width="708.66132"
         style="fill:#000000;fill-opacity:0.67000002;stroke:none"
         x="179.71202"
         height="708.66132"
         id="rect6011" />
    </clipPath>
  </defs>
  <g
     id="flag"
     inkscape:label="#g6502">
    <g
       transform="matrix(0.83333486,0,0,0.9375,108.20017,2.1858562e-6)"
       id="g6497">
      <rect
         width="767.9986"
         height="511.99979"
         x="-129.83997"
         y="-2.3315799e-06"
         style="font-size:12px;fill:#f41408;fill-rule:evenodd;stroke-width:1pt"
         id="rect171" />
      <rect
         width="767.9986"
         height="170.66635"
         x="-129.83997"
         y="341.33365"
         style="font-size:12px;fill:#21873b;fill-rule:evenodd;stroke-width:1pt"
         id="rect256" />
      <rect
         width="767.9986"
         height="170.66635"
         x="-129.83997"
         y="-2.3315799e-06"
         style="font-size:12px;fill-rule:evenodd;stroke-width:1pt"
         id="rect255" />
    </g>
    <g
       transform="matrix(1,0,0,0.90679868,60.298813,0.83219436)"
       id="g6372">
      <path
         inkscape:connector-curvature="0"
         d="m 160.17756,154.63541 c 22.30781,-54.3254 84.50247,-80.310949 138.82798,-58.003462 27.36011,11.234952 46.74032,30.607022 57.98664,57.962782 l -196.81462,0.0407 z"
         style="font-size:12px;fill:#f31509;fill-rule:evenodd;stroke-width:1pt"
         id="path386" />
      <path
         inkscape:connector-curvature="0"
         d="M 134.2062,161.66494 C 110.75535,159.9201 85.833924,154.5428 81.767309,153.062 c -4.066475,-1.48076 -4.222873,-3.95398 -3.721975,-5.84752 0.501082,-1.89423 3.096406,-4.04459 6.126622,-3.24301 5.681866,1.50303 28.788084,7.61458 50.034244,17.69347 z"
         style="font-size:12px;fill:#f31509;fill-rule:evenodd;stroke-width:1pt"
         id="path353" />
      <path
         inkscape:connector-curvature="0"
         d="m 258.84238,66.918998 c -4.20822,-23.136073 -5.27048,-48.60889 -4.85986,-52.917197 0.41062,-4.3081636 2.76504,-5.0814553 4.72369,-5.0728038 1.95937,0.00865 4.69326,1.9798508 4.67941,5.1142658 -0.026,5.877245 -0.13081,29.777813 -4.54324,52.875735 z"
         style="font-size:12px;fill:#f31509;fill-rule:evenodd;stroke-width:1pt"
         id="path354" />
      <path
         inkscape:connector-curvature="0"
         d="m 270.3824,67.455615 c -2.21038,-23.411559 -1.08615,-48.881716 -0.30789,-53.138996 0.77825,-4.257136 3.19026,-4.8258511 5.14097,-4.6494088 1.95142,0.1765073 4.50636,2.3747008 4.224,5.4964028 -0.52945,5.853407 -2.68178,29.657095 -9.05708,52.292002 z"
         style="font-size:12px;fill:#f31509;fill-rule:evenodd;stroke-width:1pt"
         id="path355" />
      <path
         inkscape:connector-curvature="0"
         d="m 280.83854,68.872906 c -0.27645,-23.514045 2.93978,-48.805317 4.06572,-52.98412 1.12591,-4.178661 3.57654,-4.546973 5.50611,-4.210615 1.93028,0.336482 4.29567,2.737454 3.7574,5.825335 -1.0093,5.789991 -5.11302,29.335848 -13.32923,51.3694 z"
         style="font-size:12px;fill:#f31509;fill-rule:evenodd;stroke-width:1pt"
         id="path356" />
      <path
         inkscape:connector-curvature="0"
         d="m 291.84984,71.33469 c 1.79328,-23.447209 7.22207,-48.357484 8.71127,-52.421032 1.48916,-4.063409 3.9627,-4.214698 5.8552,-3.709888 1.89319,0.504995 4.03819,3.104757 3.23034,6.133313 -1.51476,5.67875 -7.67404,28.772299 -17.79681,49.997607 z"
         style="font-size:12px;fill:#f31509;fill-rule:evenodd;stroke-width:1pt"
         id="path357" />
      <path
         inkscape:connector-curvature="0"
         d="m 302.697,74.790765 c 3.8675,-23.195464 11.48602,-47.52551 13.33005,-51.440827 1.84397,-3.915181 4.32117,-3.846309 6.16139,-3.175504 1.84089,0.671052 3.74665,3.450951 2.67317,6.395842 C 322.84875,32.09215 314.66388,54.5478 302.697,74.790765 z"
         style="font-size:12px;fill:#f31509;fill-rule:evenodd;stroke-width:1pt"
         id="path358" />
      <path
         inkscape:connector-curvature="0"
         d="m 312.8137,79.016386 c 5.83645,-22.779868 15.50717,-46.36947 17.67919,-50.112794 2.17195,-3.743192 4.63419,-3.462782 6.41032,-2.637104 1.77678,0.825983 3.43789,3.758637 2.11656,6.600965 -2.47758,5.329563 -12.55233,27.003211 -26.20607,46.148933 z"
         style="font-size:12px;fill:#f31509;fill-rule:evenodd;stroke-width:1pt"
         id="path359" />
      <path
         inkscape:connector-curvature="0"
         d="m 322.76107,84.225417 c 7.80851,-22.181382 19.50748,-44.83368 21.9989,-48.372458 2.49134,-3.538654 4.91958,-3.04374 6.61659,-2.065725 1.69764,0.978377 3.09561,4.045206 1.53049,6.760931 -2.93469,5.092172 -14.86838,25.8005 -30.14598,43.677252 z"
         style="font-size:12px;fill:#f31509;fill-rule:evenodd;stroke-width:1pt"
         id="path360" />
      <path
         inkscape:connector-curvature="0"
         d="m 332.17231,90.254841 c 9.71204,-21.416424 23.34078,-42.962895 26.13114,-46.271067 2.79028,-3.308054 5.16614,-2.603388 6.77146,-1.481189 1.60591,1.122613 2.73126,4.299613 0.93541,6.868596 -3.36734,4.817021 -17.06048,24.406461 -33.83801,40.88366 z"
         style="font-size:12px;fill:#f31509;fill-rule:evenodd;stroke-width:1pt"
         id="path361" />
      <path
         inkscape:connector-curvature="0"
         d="m 341.0349,97.092071 c 11.54417,-20.487046 27.00145,-40.761798 30.06989,-43.813807 3.06836,-3.051898 5.37365,-2.14256 6.8749,-0.884534 1.5018,1.258491 2.34557,4.521588 0.33236,6.924028 -3.77492,4.504742 -19.12554,22.824311 -37.27715,37.774313 z"
         style="font-size:12px;fill:#f31509;fill-rule:evenodd;stroke-width:1pt"
         id="path362" />
      <path
         inkscape:connector-curvature="0"
         d="m 349.28441,104.6948 c 13.29205,-19.398665 30.46362,-38.243553 33.78728,-41.015446 3.32356,-2.771791 5.54047,-1.664282 6.92592,-0.279754 1.38596,1.385038 1.94105,4.709435 -0.2746,6.926558 -4.1545,4.157258 -21.0488,21.063787 -40.4386,34.368642 z"
         style="font-size:12px;fill:#f31509;fill-rule:evenodd;stroke-width:1pt"
         id="path363" />
      <path
         inkscape:connector-curvature="0"
         d="m 356.85846,113.01454 c 14.94257,-18.157826 33.70113,-35.423669 37.25515,-37.893304 3.5539,-2.469543 5.6651,-1.171822 6.92375,0.328907 1.25911,1.501283 1.52043,4.86156 -0.88118,6.875765 -4.50318,3.776773 -22.81549,19.136052 -43.29772,30.688632 z"
         style="font-size:12px;fill:#f31509;fill-rule:evenodd;stroke-width:1pt"
         id="path364" />
      <path
         inkscape:connector-curvature="0"
         d="m 363.37847,121.54472 c 16.41031,-16.84307 36.54854,-32.477808 40.29684,-34.641227 3.74818,-2.163336 5.74333,-0.693418 6.87191,0.907419 1.129,1.601427 1.10808,4.971787 -1.45373,6.777855 -4.80357,3.386502 -24.3375,17.158733 -45.71502,26.955953 z"
         style="font-size:12px;fill:#f31509;fill-rule:evenodd;stroke-width:1pt"
         id="path365" />
      <path
         inkscape:connector-curvature="0"
         d="m 369.27959,130.79427 c 17.79115,-15.37734 39.19317,-29.23185 43.11282,-31.066648 3.91952,-1.834731 5.7816,-0.199508 6.76909,1.492018 0.98785,1.69214 0.67865,5.04836 -2.02829,6.62863 -5.07569,2.96312 -25.71627,15.01364 -47.85362,22.946 z"
         style="font-size:12px;fill:#f31509;fill-rule:evenodd;stroke-width:1pt"
         id="path366" />
      <path
         inkscape:connector-curvature="0"
         d="m 374.75014,141.33395 c 19.13842,-13.66411 41.73122,-25.47762 45.80391,-26.94165 4.07255,-1.46396 5.77523,0.33664 6.60187,2.11232 0.82694,1.77634 0.20834,5.08951 -2.63327,6.41237 -5.32823,2.48047 -26.99585,12.56824 -49.77251,18.41696 z"
         style="font-size:12px;fill:#f31509;fill-rule:evenodd;stroke-width:1pt"
         id="path367" />
      <path
         inkscape:connector-curvature="0"
         d="m 378.92638,151.51051 c 20.23991,-11.97218 43.76274,-21.80428 47.94599,-22.91358 4.18312,-1.10925 5.72508,0.83075 6.39636,2.6708 0.67153,1.84072 -0.22897,5.08862 -3.17358,6.16287 -5.52135,2.0143 -27.97438,10.20638 -51.16877,14.07991 z"
         style="font-size:12px;fill:#f31509;fill-rule:evenodd;stroke-width:1pt"
         id="path368" />
      <path
         inkscape:connector-curvature="0"
         d="m 382.29111,162.29931 c 21.21616,-10.14209 45.51387,-17.86315 49.7786,-18.59951 4.26459,-0.73632 5.6296,1.33201 6.13613,3.22405 0.50672,1.89274 -0.67648,5.04865 -3.7043,5.85925 -5.67737,1.51993 -28.76493,7.70161 -52.21043,9.51621 z"
         style="font-size:12px;fill:#f31509;fill-rule:evenodd;stroke-width:1pt"
         id="path369" />
      <path
         inkscape:connector-curvature="0"
         d="m 247.5539,67.356676 c -6.33008,-22.647671 -9.74382,-47.913046 -9.73344,-52.240865 0.0104,-4.327675 2.28319,-5.3154167 4.23424,-5.4879614 1.95178,-0.1726084 4.85626,1.5372754 5.13239,4.6595344 0.51775,5.854453 2.62396,29.662267 0.36681,53.069292 z"
         style="font-size:12px;fill:#f31509;fill-rule:evenodd;stroke-width:1pt"
         id="path370" />
      <path
         inkscape:connector-curvature="0"
         d="m 236.45154,68.792077 c -8.28282,-22.00867 -13.88894,-46.879616 -14.25637,-51.191821 -0.36741,-4.312062 1.81049,-5.494426 3.73904,-5.836619 1.92925,-0.342319 4.97191,1.107505 5.51952,4.193744 1.02681,5.786911 5.20315,29.319994 4.99781,52.834696 z"
         style="font-size:12px;fill:#f31509;fill-rule:evenodd;stroke-width:1pt"
         id="path371" />
      <path
         inkscape:connector-curvature="0"
         d="M 225.41538,71.21811 C 215.22561,50.024812 207.44996,25.744526 206.70401,21.481464 c -0.74591,-4.262923 1.31935,-5.63258 3.21024,-6.143364 1.89159,-0.510971 5.05016,0.665131 5.86756,3.69112 1.53269,5.673937 7.76627,28.747536 9.63357,52.18889 z"
         style="font-size:12px;fill:#f31509;fill-rule:evenodd;stroke-width:1pt"
         id="path372" />
      <path
         inkscape:connector-curvature="0"
         d="M 215.02265,74.466974 C 203.07021,54.215409 193.26105,30.683028 192.15583,26.4987 c -1.10517,-4.184193 0.83633,-5.724261 2.67703,-6.393751 1.84137,-0.669737 5.08839,0.233931 6.15977,3.179586 2.00892,5.523308 10.17911,27.984295 14.03002,51.182439 z"
         style="font-size:12px;fill:#f31509;fill-rule:evenodd;stroke-width:1pt"
         id="path373" />
      <path
         inkscape:connector-curvature="0"
         d="M 204.85624,78.626803 C 191.21309,59.473438 179.42433,36.867734 177.96477,32.79345 c -1.45951,-4.074154 0.34295,-5.77486 2.11954,-6.599553 1.77724,-0.824998 5.08973,-0.202771 6.40948,2.640291 2.47463,5.330937 12.53867,27.009571 18.36245,49.792615 z"
         style="font-size:12px;fill:#f31509;fill-rule:evenodd;stroke-width:1pt"
         id="path374" />
      <path
         inkscape:connector-curvature="0"
         d="m 194.59041,83.924443 c -15.31289,-17.846655 -29.08989,-39.298648 -30.9105,-43.224908 -1.82054,-3.926135 -0.1786,-5.782282 1.51649,-6.763645 1.69571,-0.981725 5.05078,-0.660391 6.62125,2.052243 2.94474,5.086378 14.92053,25.770417 22.77276,47.93631 z"
         style="font-size:12px;fill:#f31509;fill-rule:evenodd;stroke-width:1pt"
         id="path375" />
      <path
         inkscape:connector-curvature="0"
         d="M 185.2386,89.848038 C 168.44236,73.389811 152.86506,53.207127 150.71233,49.452679 c -2.15265,-3.75433 -0.67706,-5.74528 0.92699,-6.869298 1.60464,-1.124434 4.97492,-1.093909 6.77368,1.473037 3.37281,4.8132 17.08933,24.386277 26.8256,45.79162 z"
         style="font-size:12px;fill:#f31509;fill-rule:evenodd;stroke-width:1pt"
         id="path376" />
      <path
         inkscape:connector-curvature="0"
         d="m 176.48387,96.438152 c -18.13939,-14.964951 -35.3821,-33.744789 -37.84735,-37.301848 -2.46516,-3.556949 -1.16483,-5.666552 0.33745,-6.923347 1.50283,-1.257258 4.86343,-1.514436 6.87467,0.889656 3.77122,4.507839 19.10792,22.839077 30.63523,43.335539 z"
         style="font-size:12px;fill:#f31509;fill-rule:evenodd;stroke-width:1pt"
         id="path377" />
      <path
         inkscape:connector-curvature="0"
         d="M 167.97073,104.09599 C 148.56928,90.808008 129.72079,73.640379 126.9482,70.317297 c -2.77248,-3.32298 -1.66544,-5.54012 -0.2812,-6.925856 1.38475,-1.386247 4.70903,-1.94204 6.92662,0.273148 4.15812,4.153632 21.06819,21.044392 34.37711,40.431401 z"
         style="font-size:12px;fill:#f31509;fill-rule:evenodd;stroke-width:1pt"
         id="path378" />
      <path
         inkscape:connector-curvature="0"
         d="m 160.6223,111.95876 c -20.44684,-11.61523 -40.66779,-27.142796 -43.70912,-30.22182 -3.04123,-3.078931 -2.12389,-5.38105 -0.86066,-6.877921 1.26369,-1.497423 4.5297,-2.329862 6.92513,-0.30832 4.49161,3.790532 22.75776,19.20466 37.64465,37.408061 z"
         style="font-size:12px;fill:#f31509;fill-rule:evenodd;stroke-width:1pt"
         id="path379" />
      <path
         inkscape:connector-curvature="0"
         d="m 153.57615,120.94132 c -21.39849,-9.7515 -42.91982,-23.419935 -46.22284,-26.216392 -3.30291,-2.796374 -2.59387,-5.170932 -1.46871,-6.77418 1.12557,-1.603839 4.30464,-2.723335 6.87031,-0.922753 4.81081,3.376217 24.37499,17.105445 40.82124,33.913325 z"
         style="font-size:12px;fill:#f31509;fill-rule:evenodd;stroke-width:1pt"
         id="path380" />
      <path
         inkscape:connector-curvature="0"
         d="m 147.26794,130.66585 c -22.19129,-7.78036 -44.85845,-19.45056 -48.400388,-21.93749 -3.541817,-2.48685 -3.049987,-4.91571 -2.074125,-6.61397 0.976221,-1.69888 4.041273,-3.100743 6.758983,-1.53908 5.0959,2.92823 25.81938,14.83563 43.71553,30.09054 z"
         style="font-size:12px;fill:#f31509;fill-rule:evenodd;stroke-width:1pt"
         id="path381" />
      <path
         inkscape:connector-curvature="0"
         d="m 142.03437,140.55842 c -22.78488,-5.8169 -46.382788,-15.46739 -50.127976,-17.63619 -3.745058,-2.16874 -3.46676,-4.63122 -2.642606,-6.40806 0.824459,-1.77749 3.755687,-3.44112 6.599151,-2.12223 5.331691,2.47301 27.013991,12.52917 46.171431,26.16648 z"
         style="font-size:12px;fill:#f31509;fill-rule:evenodd;stroke-width:1pt"
         id="path382" />
      <path
         inkscape:connector-curvature="0"
         d="m 137.83262,150.46741 c -23.19224,-3.88669 -47.51597,-11.52533 -51.429759,-13.37259 -3.913653,-1.84721 -3.842731,-4.32435 -3.170404,-6.16401 0.672574,-1.84034 3.454048,-3.7438 6.398048,-2.66788 5.520205,2.01743 27.969065,10.22087 48.202115,22.20448 z"
         style="font-size:12px;fill:#f31509;fill-rule:evenodd;stroke-width:1pt"
         id="path383" />
      <path
         inkscape:connector-curvature="0"
         d="M 134.2062,161.66494 C 110.75535,159.9201 85.833924,154.5428 81.767309,153.062 c -4.066475,-1.48076 -4.222873,-3.95398 -3.721975,-5.84752 0.501082,-1.89423 3.096406,-4.04459 6.126622,-3.24301 5.681866,1.50303 28.788084,7.61458 50.034244,17.69347 z"
         style="font-size:12px;fill:#f31509;fill-rule:evenodd;stroke-width:1pt"
         id="path384" />
      <rect
         width="381.22928"
         height="13.852859"
         x="69.086548"
         y="155.15089"
         style="font-size:12px;fill-rule:evenodd;stroke-width:1pt"
         id="rect385" />
    </g>
  </g>
</svg>
