<?xml version="1.0" encoding="UTF-8" standalone="no"?>
<!-- Created with Sodipodi ("http://www.sodipodi.com/") -->

<svg
   xmlns:dc="http://purl.org/dc/elements/1.1/"
   xmlns:cc="http://creativecommons.org/ns#"
   xmlns:rdf="http://www.w3.org/1999/02/22-rdf-syntax-ns#"
   xmlns:svg="http://www.w3.org/2000/svg"
   xmlns="http://www.w3.org/2000/svg"
   xmlns:sodipodi="http://sodipodi.sourceforge.net/DTD/sodipodi-0.dtd"
   xmlns:inkscape="http://www.inkscape.org/namespaces/inkscape"
   version="1"
   x="0"
   y="0"
   width="640"
   height="480"
   id="svg378"
   sodipodi:version="0.32"
   sodipodi:docname="my.svg"
   inkscape:version="0.48.1 r9760">
  <sodipodi:namedview
     id="base"
     showgrid="true"
     inkscape:zoom="0.82234982"
     inkscape:cx="319.03809"
     inkscape:cy="287.81526"
     inkscape:window-width="1280"
     inkscape:window-height="746"
     inkscape:window-x="0"
     inkscape:window-y="24"
     inkscape:window-maximized="1"
     inkscape:current-layer="svg378">
    <inkscape:grid
       snapvisiblegridlinesonly="true"
       enabled="false"
       visible="true"
       id="GridFromPre046Settings"
       type="xygrid"
       originx="0px"
       originy="-8mm"
       spacingx="-2mm"
       spacingy="1px"
       color="#0000ff"
       empcolor="#0000ff"
       opacity="0.2"
       empopacity="0.4"
       empspacing="5" />
  </sodipodi:namedview>
  <metadata
     id="metadata4199">
    <rdf:RDF>
      <cc:Work
         rdf:about="">
        <dc:format>image/svg+xml</dc:format>
        <dc:type
           rdf:resource="http://purl.org/dc/dcmitype/StillImage" />
      </cc:Work>
    </rdf:RDF>
  </metadata>
  <defs
     id="defs380" />
  <g
     id="flag"
     inkscape:label="#g4669">
    <rect
       width="640"
       height="480"
       x="0.90062362"
       y="-7.1136247e-07"
       style="font-size:12px;fill:#e80008;fill-rule:evenodd;stroke-width:1pt"
       id="rect149" />
    <rect
       width="640"
       height="34.285683"
       x="0.90062362"
       y="34.285683"
       style="font-size:12px;fill:#ffffff;fill-rule:evenodd;stroke-width:1pt"
       id="rect299" />
    <rect
       width="640"
       height="34.285683"
       x="0.90062362"
       y="102.85719"
       style="font-size:12px;fill:#ffffff;fill-rule:evenodd;stroke-width:1pt"
       id="rect300" />
    <rect
       width="640"
       height="34.285683"
       x="0.90062362"
       y="171.42842"
       style="font-size:12px;fill:#ffffff;fill-rule:evenodd;stroke-width:1pt"
       id="rect301" />
    <rect
       width="640"
       height="34.285683"
       x="0.90062362"
       y="240.00034"
       style="font-size:12px;fill:#ffffff;fill-rule:evenodd;stroke-width:1pt"
       id="rect302" />
    <rect
       width="640"
       height="34.285683"
       x="0.90062362"
       y="308.57156"
       style="font-size:12px;fill:#ffffff;fill-rule:evenodd;stroke-width:1pt"
       id="rect303" />
    <rect
       width="640"
       height="34.285683"
       x="0.90062362"
       y="377.14349"
       style="font-size:12px;fill:#ffffff;fill-rule:evenodd;stroke-width:1pt"
       id="rect304" />
    <rect
       width="640"
       height="34.285683"
       x="0.90062362"
       y="445.71402"
       style="font-size:12px;fill:#ffffff;fill-rule:evenodd;stroke-width:1pt"
       id="rect305" />
    <rect
       width="245.16815"
       height="141.39011"
       x="0"
       y="5.3670693e-08"
       style="font-size:12px;fill:#000689;fill-rule:evenodd;stroke-width:1pt"
       id="rect298" />
    <g
       transform="matrix(0.4828794,0,0,0.4828794,0,7.6955732)"
       id="g4518">
      <path
         inkscape:connector-curvature="0"
         d="m 257.75524,232.94087 c -54.62706,30.39729 -122.91837,9.8571 -152.43545,-45.19968 -29.516997,-55.05831 -9.137667,-123.886891 45.48969,-153.636401 33.77655,-18.394524 70.87455,-18.75983 104.58264,-0.666647 -19.0198,-4.578001 -36.00352,-4.331877 -54.45897,1.150527 -53.75923,15.970483 -84.66178,73.362471 -68.97895,128.108181 15.68291,54.74494 72.0418,86.21389 125.80104,70.24402 z"
         style="font-size:12px;fill:#ffee00;fill-rule:evenodd;stroke-width:1pt"
         id="path297" />
      <polygon
         points="370.614,162.907 438.478,124.354 384.565,180.792 462.436,175.502 389.374,202.958 461.828,231.98 384.089,225.017 436.777,282.6 369.757,242.597 392.242,317.339 349.216,252.218 337.045,329.314 337.045,329.314 326.535,251.974 282.119,316.155 306.206,241.914 238.342,280.467 292.255,224.029 214.384,229.319 287.446,201.862 214.992,172.841 292.731,179.804 240.044,122.22 307.063,162.223 284.578,87.4819 327.604,152.602 339.775,75.5066 350.285,152.846 394.701,88.6661 "
         transform="matrix(0.84991808,0,0,0.84991808,34.931428,-42.019346)"
         style="font-size:12px;fill:#ffee00;fill-rule:evenodd;stroke-width:1pt"
         id="polygon291" />
    </g>
  </g>
</svg>
