<?xml version="1.0" encoding="UTF-8" standalone="no"?>
<!-- Created with Sodipodi ("http://www.sodipodi.com/") -->

<svg
   xmlns:dc="http://purl.org/dc/elements/1.1/"
   xmlns:cc="http://creativecommons.org/ns#"
   xmlns:rdf="http://www.w3.org/1999/02/22-rdf-syntax-ns#"
   xmlns:svg="http://www.w3.org/2000/svg"
   xmlns="http://www.w3.org/2000/svg"
   xmlns:sodipodi="http://sodipodi.sourceforge.net/DTD/sodipodi-0.dtd"
   xmlns:inkscape="http://www.inkscape.org/namespaces/inkscape"
   id="svg2498"
   sodipodi:version="0.33pre"
   width="640"
   height="480"
   sodipodi:docname="nu.svg"
   version="1.1"
   inkscape:version="0.48.1 r9760">
  <sodipodi:namedview
     id="base"
     showgrid="true"
     snaptogrid="false"
     inkscape:zoom="0.33060318"
     inkscape:cx="111.91665"
     inkscape:cy="248.03149"
     inkscape:window-width="1280"
     inkscape:window-height="746"
     inkscape:window-x="0"
     inkscape:window-y="24"
     inkscape:window-maximized="1"
     inkscape:current-layer="svg2498" />
  <metadata
     id="metadata3203">
    <rdf:RDF>
      <cc:Work
         rdf:about="">
        <dc:format>image/svg+xml</dc:format>
        <dc:type
           rdf:resource="http://purl.org/dc/dcmitype/StillImage" />
      </cc:Work>
    </rdf:RDF>
  </metadata>
  <defs
     id="defs2500">
    <clipPath
       id="clipPath8501"
       clipPathUnits="userSpaceOnUse">
      <rect
         y="-0.00036899498"
         width="496.06335"
         style="fill:#000000;fill-opacity:0.67000002;stroke:none"
         x="-0.00023515997"
         height="496.06335"
         id="rect8503" />
    </clipPath>
    <clipPath
       clipPathUnits="userSpaceOnUse"
       id="clipPath3533">
      <rect
         id="rect3535"
         height="372.04752"
         x="-0.00023515997"
         style="fill:#000000;fill-opacity:0.67000002;stroke:none"
         width="496.06335"
         y="-0.00036599999" />
    </clipPath>
  </defs>
  <g
     inkscape:label="#g8431"
     clip-path="url(#clipPath3533)"
     id="flag"
     transform="matrix(1.2901578,0,0,1.2901578,3.0339347e-4,4.7219775e-4)">
    <rect
       y="-0.00036599999"
       x="0.013254"
       height="248.10013"
       width="499.54736"
       id="rect1310"
       style="font-size:12px;fill:#ffffff;fill-opacity:1;fill-rule:evenodd;stroke-width:1pt" />
    <path
       sodipodi:nodetypes="ccccc"
       id="path549"
       d="M 0.0132547,3.31199e-4 -0.00755504,18.621 119.202,79.8743 164.056,81.1739 0.0132547,3.31199e-4 z"
       style="fill:#cc0000;stroke:none"
       inkscape:connector-curvature="0" />
    <path
       sodipodi:nodetypes="cccc"
       id="path551"
       d="M 51.0535,3.31199e-4 195.577,75.491 l 0,-75.490668801 -144.5235,0 z"
       style="fill:#000066;stroke:none"
       inkscape:connector-curvature="0" />
    <path
       id="path552"
       d="m 214.858,3.31199e-4 0,96.371868801 -214.8447453,0 0,55.0698 214.8447453,0 0,96.372 66.106,0 0,-96.372 214.844,0 0,-55.0698 -214.844,0 0,-96.371868801 -66.106,0 z"
       style="fill:#cc0000;stroke:none"
       inkscape:connector-curvature="0" />
    <path
       sodipodi:nodetypes="cccc"
       id="path554"
       d="M 300.244,3.31199e-4 300.244,71.132 441.628,0.551338 300.244,3.31199e-4 z"
       style="fill:#000066;stroke:none"
       inkscape:connector-curvature="0" />
    <path
       sodipodi:nodetypes="ccccc"
       id="path555"
       d="M 304.708,78.8874 344.474,78.5668 498.949,0.551338 457.957,1.21916 304.708,78.8874 z"
       style="fill:#cc0000;stroke:none"
       inkscape:connector-curvature="0" />
    <path
       sodipodi:nodetypes="cccc"
       id="path700"
       d="m 0.0132547,167.504 0,52.775 L 99.1722,168.055 0.0132547,167.504 z"
       style="fill:#000066;stroke:none"
       inkscape:connector-curvature="0" />
    <path
       sodipodi:nodetypes="ccccccccc"
       id="path701"
       d="m 381.851,169.683 -41.336,-0.321 155.816,77.58 -1.025,-17.749 -113.455,-59.51 z M 38.7339,248.25 184.835,171.542 146.462,171.796 0.0132553,248.135"
       style="fill:#cc0000;stroke:none"
       inkscape:connector-curvature="0" />
    <path
       sodipodi:nodetypes="cccccccccccccccccccccc"
       id="path556"
       d="m 497.901,21.7952 -117.996,58.5153 116.426,0.4357 0,87.1938 -99.159,0 98.242,53.231 1.442,27.079 -52.474,-0.627 -143.615,-70.505 0,71.132 -104.667,0 0,-71.132 -134.7192,70.941 -60.844293,0.191 0,247.813 991.589493,0 0,-495.626808 L 498.949,3.3043e-4 M 0.536507,27.9711 0.0132547,79.4385 104.405,80.7462 0.536507,27.9711 z"
       style="fill:#000066;stroke:none"
       inkscape:connector-curvature="0" />
    <g
       style="fill:#ffd900;fill-opacity:1"
       id="g3304">
      <rect
         y="-1.5260001e-05"
         x="496.06299"
         height="496.06299"
         width="496.06299"
         id="rect3302"
         style="font-size:12px;fill:#ffd900;fill-opacity:1;fill-rule:evenodd;stroke-width:1pt" />
      <rect
         y="248.03148"
         x="0"
         height="248.03151"
         width="523.49158"
         id="rect3303"
         style="font-size:12px;fill:#ffd900;fill-opacity:1;fill-rule:evenodd;stroke-width:1pt" />
    </g>
    <g
       transform="translate(7.635727,-229.3897)"
       id="g3330">
      <path
         transform="translate(-1.006279,-1.525879e-5)"
         sodipodi:ry="42.766876"
         sodipodi:rx="42.766876"
         sodipodi:cy="354.68073"
         sodipodi:cx="241.50708"
         d="m 284.27396,354.68073 c 0,23.61949 -19.14739,42.76687 -42.76688,42.76687 -23.61949,0 -42.76688,-19.14738 -42.76688,-42.76687 0,-23.6195 19.14739,-42.76688 42.76688,-42.76688 23.61949,0 42.76688,19.14738 42.76688,42.76688 z"
         id="path3329"
         style="fill:#000067;fill-opacity:1;fill-rule:evenodd;stroke:none"
         sodipodi:type="arc" />
      <polygon
         transform="matrix(0.376759,0,0,0.364962,39.6714,225.3619)"
         id="polygon3317"
         style="font-size:12px;fill:#fff40d;fill-opacity:1;fill-rule:evenodd;stroke-width:1pt"
         points="511.946,324.278 533.785,256.897 555.613,324.281 626.445,324.23 569.104,365.812 591.041,433.161 591.041,433.161 533.774,391.476 476.501,433.151 498.449,365.806 441.115,324.214 " />
      <polygon
         transform="matrix(0.186721,0,0,0.170858,285.5112,292.3334)"
         id="polygon3325"
         style="font-size:12px;fill:#fff40d;fill-opacity:1;fill-rule:evenodd;stroke-width:1pt"
         points="511.946,324.278 533.785,256.897 555.613,324.281 626.445,324.23 569.104,365.812 591.041,433.161 591.041,433.161 533.774,391.476 476.501,433.151 498.449,365.806 441.115,324.214 " />
      <polygon
         transform="matrix(0.186721,0,0,0.170858,140.8329,377.8671)"
         id="polygon3326"
         style="font-size:12px;fill:#fff40d;fill-opacity:1;fill-rule:evenodd;stroke-width:1pt"
         points="511.946,324.278 533.785,256.897 555.613,324.281 626.445,324.23 569.104,365.812 591.041,433.161 591.041,433.161 533.774,391.476 476.501,433.151 498.449,365.806 441.115,324.214 " />
      <polygon
         transform="matrix(0.186721,0,0,0.170858,140.8329,210.8247)"
         id="polygon3327"
         style="font-size:12px;fill:#fff40d;fill-opacity:1;fill-rule:evenodd;stroke-width:1pt"
         points="511.946,324.278 533.785,256.897 555.613,324.281 626.445,324.23 569.104,365.812 591.041,433.161 591.041,433.161 533.774,391.476 476.501,433.151 498.449,365.806 441.115,324.214 " />
      <polygon
         transform="matrix(0.186721,0,0,0.170858,-4.297295,292.3334)"
         id="polygon3328"
         style="font-size:12px;fill:#fff40d;fill-opacity:1;fill-rule:evenodd;stroke-width:1pt"
         points="511.946,324.278 533.785,256.897 555.613,324.281 626.445,324.23 569.104,365.812 591.041,433.161 591.041,433.161 533.774,391.476 476.501,433.151 498.449,365.806 441.115,324.214 " />
    </g>
  </g>
</svg>
