<?xml version="1.0" encoding="UTF-8" standalone="no"?>
<!-- Created with Sodipodi ("http://www.sodipodi.com/") -->

<!-- /Creative Commons Public Domain -->

<!--

<rdf:RDF xmlns="http://web.resource.org/cc/"
     xmlns:dc="http://purl.org/dc/elements/1.1/"
     xmlns:rdf="http://www.w3.org/1999/02/22-rdf-syntax-ns#">
<Work rdf:about="">
    <dc:title>New Zealand, Australia, United Kingdom, United States, 
Bosnia and Herzegovina, Azerbaijan, Armenia, Bahamas, Belgium, Benin, 
Bulgaria, Estonia, Finland, Gabon, Gambia, Germany, Greece, Greenland, 
Guinea, Honduras, Israel, Jamaica, Jordan, and Romania Flags</dc:title>
    <dc:rights><Agent>
       <dc:title>Daniel McRae</dc:title>
    </Agent></dc:rights>
    <license rdf:resource="http://web.resource.org/cc/PublicDomain" />
</Work>

<License rdf:about="http://web.resource.org/cc/PublicDomain">
    <permits rdf:resource="http://web.resource.org/cc/Reproduction" />
    <permits rdf:resource="http://web.resource.org/cc/Distribution" />
    <permits rdf:resource="http://web.resource.org/cc/DerivativeWorks" />
</License>

</rdf:RDF>

-->

<svg
   xmlns:dc="http://purl.org/dc/elements/1.1/"
   xmlns:cc="http://creativecommons.org/ns#"
   xmlns:rdf="http://www.w3.org/1999/02/22-rdf-syntax-ns#"
   xmlns:svg="http://www.w3.org/2000/svg"
   xmlns="http://www.w3.org/2000/svg"
   xmlns:sodipodi="http://sodipodi.sourceforge.net/DTD/sodipodi-0.dtd"
   xmlns:inkscape="http://www.inkscape.org/namespaces/inkscape"
   id="svg566"
   sodipodi:version="0.32"
   width="640"
   height="480"
   sodipodi:docname="nz.svg"
   version="1.1"
   inkscape:version="0.48.1 r9760">
  <sodipodi:namedview
     id="base"
     showgrid="false"
     inkscape:zoom="0.47574604"
     inkscape:cx="331.29922"
     inkscape:cy="248.03149"
     inkscape:window-width="1280"
     inkscape:window-height="746"
     inkscape:window-x="0"
     inkscape:window-y="24"
     inkscape:window-maximized="1"
     inkscape:current-layer="svg566" />
  <metadata
     id="metadata3230">
    <rdf:RDF>
      <cc:Work
         rdf:about="">
        <dc:format>image/svg+xml</dc:format>
        <dc:type
           rdf:resource="http://purl.org/dc/dcmitype/StillImage" />
      </cc:Work>
    </rdf:RDF>
  </metadata>
  <defs
     id="defs568" />
  <g
     id="flag"
     inkscape:label="#g3349">
    <rect
       y="0"
       x="0.0040665804"
       height="480"
       width="640"
       id="rect580"
       style="font-size:12px;fill:#00006a;fill-opacity:1;fill-rule:evenodd;stroke-width:1pt"
       inkscape:label="#rect580" />
    <g
       transform="matrix(1.3419596,0,0,1.2608239,-0.00130575,-1.3763106)"
       id="g560">
      <path
         sodipodi:nodetypes="ccccc"
         id="path572"
         d="m 64.5014,291.568 514.0806,508.631 105.447,0 L 181.047,291.814 64.5014,291.568 z"
         style="font-size:12px;fill:#ffffff;fill-opacity:1;fill-rule:evenodd;stroke-width:1pt"
         transform="matrix(0.46237,0,0,0.474578,-29.82254,-137.2798)"
         inkscape:connector-curvature="0" />
      <path
         sodipodi:nodetypes="ccccc"
         id="path577"
         d="m 105.539,296.008 503.838,506.725 39.211,-0.619 -505.949,-506.106 -37.1,0 z"
         style="font-size:12px;fill:#ff0000;fill-opacity:1;fill-rule:evenodd;stroke-width:1pt"
         transform="matrix(-0.461902,0,0,-0.476346,317.3934,383.4745)"
         inkscape:connector-curvature="0" />
      <path
         sodipodi:nodetypes="ccccc"
         id="path581"
         d="m 64.5014,291.568 514.0806,508.631 105.447,0 L 181.047,291.814 64.5014,291.568 z"
         style="font-size:12px;fill:#ffffff;fill-opacity:1;fill-rule:evenodd;stroke-width:1pt"
         transform="matrix(-0.46237,0,0,0.474578,316.2764,-137.2798)"
         inkscape:connector-curvature="0" />
      <path
         sodipodi:nodetypes="ccccc"
         id="path579"
         d="m 105.539,296.008 503.838,506.725 39.211,0.02 -505.949,-506.745 -37.1,0 z"
         style="font-size:12px;fill:#ff0000;fill-opacity:1;fill-rule:evenodd;stroke-width:1pt"
         transform="matrix(-0.461718,0,0,0.476346,317.3236,-139.9103)"
         inkscape:connector-curvature="0" />
      <rect
         y="1.0944771"
         x="120.31142"
         height="241.37968"
         width="45.831039"
         id="rect570"
         style="font-size:12px;fill:#ffffff;fill-opacity:1;fill-rule:evenodd;stroke-width:1pt" />
      <rect
         y="97.646347"
         x="0.0049350001"
         height="48.275917"
         width="286.44406"
         id="rect569"
         style="font-size:12px;fill:#ffffff;fill-opacity:1;fill-rule:evenodd;stroke-width:1pt" />
      <rect
         y="1.094487"
         x="130.33699"
         height="241.37962"
         width="25.779947"
         id="rect574"
         style="font-size:12px;fill:#ff0000;fill-opacity:1;fill-rule:evenodd;stroke-width:1pt" />
      <rect
         y="109.71532"
         x="0.0049339999"
         height="24.137976"
         width="286.44406"
         id="rect575"
         style="font-size:12px;fill:#ff0000;fill-opacity:1;fill-rule:evenodd;stroke-width:1pt" />
    </g>
    <g
       id="g8203"
       transform="matrix(0.8656228,0,0,0.8656228,58.740298,83.94337)">
      <g
         id="g591"
         transform="matrix(1.026601,0,0,1.032127,-9.9878156e-4,4.455906e-4)">
        <polygon
           inkscape:randomized="0"
           inkscape:rounded="0"
           inkscape:flatsided="false"
           sodipodi:type="star"
           style="font-size:12px;fill:#ffffff;fill-opacity:1;fill-rule:evenodd;stroke-width:1pt"
           id="polygon589"
           sodipodi:sides="5"
           sodipodi:cx="497.44034"
           sodipodi:cy="77.26931"
           sodipodi:r1="38.176083"
           sodipodi:r2="15.270433"
           sodipodi:arg1="0.96850938"
           sodipodi:arg2="1.596828"
           points="519.068,108.728 497.043,92.5346 474.205,107.56 482.799,81.6085 461.452,64.5312 488.789,64.6858 498.434,39.1062 506.735,65.1531 534.043,66.4213 511.836,82.3645 519.068,108.728 "
           transform="translate(0,-1.966187)"
           d="m 519.06818,108.72801 -22.02531,-16.19344 -22.83816,15.02531 8.59468,-25.951362 -21.3473,-17.077307 27.33711,0.154617 9.64481,-25.579666 8.30058,26.04692 27.30812,1.268204 -22.20707,15.943265 z" />
        <polygon
           inkscape:randomized="0"
           inkscape:rounded="0"
           inkscape:flatsided="false"
           sodipodi:type="star"
           style="font-size:12px;fill:#ff0000;fill-opacity:1;fill-rule:evenodd;stroke-width:1pt"
           id="polygon590"
           sodipodi:sides="5"
           sodipodi:cx="497.44034"
           sodipodi:cy="73.337006"
           sodipodi:r1="22.41778"
           sodipodi:r2="8.9671125"
           sodipodi:arg1="0.90975159"
           sodipodi:arg2="1.5380701"
           points="511.204,91.0325 497.734,82.2993 484.864,91.8948 489.007,76.3856 475.905,67.1109 491.935,66.2588 496.707,50.9312 502.471,65.9139 518.523,65.7156 506.055,75.8275 511.204,91.0325 "
           transform="matrix(0.99883,0.04836373,-0.04836373,0.99883,4.035646,-21.99739)"
           d="m 511.20355,91.032508 -13.4698,-8.733191 -12.86977,9.595493 4.14336,-15.509251 -13.10283,-9.274702 16.03054,-0.852053 4.77177,-15.327575 5.76406,14.982654 16.05195,-0.19826 -12.46816,10.111842 z" />
      </g>
      <g
         id="g594"
         transform="matrix(1.026601,0,0,1.032127,-86.795213,144.08306)">
        <polygon
           inkscape:randomized="0"
           inkscape:rounded="0"
           inkscape:flatsided="false"
           sodipodi:type="star"
           style="font-size:12px;fill:#ffffff;fill-opacity:1;fill-rule:evenodd;stroke-width:1pt"
           id="polygon595"
           sodipodi:sides="5"
           sodipodi:cx="497.44034"
           sodipodi:cy="77.26931"
           sodipodi:r1="38.176083"
           sodipodi:r2="15.270433"
           sodipodi:arg1="0.96850938"
           sodipodi:arg2="1.596828"
           points="519.068,108.728 497.043,92.5346 474.205,107.56 482.799,81.6085 461.452,64.5312 488.789,64.6858 498.434,39.1062 506.735,65.1531 534.043,66.4213 511.836,82.3645 519.068,108.728 "
           transform="translate(0,-1.966187)"
           d="m 519.06818,108.72801 -22.02531,-16.19344 -22.83816,15.02531 8.59468,-25.951362 -21.3473,-17.077307 27.33711,0.154617 9.64481,-25.579666 8.30058,26.04692 27.30812,1.268204 -22.20707,15.943265 z" />
        <polygon
           inkscape:randomized="0"
           inkscape:rounded="0"
           inkscape:flatsided="false"
           sodipodi:type="star"
           style="font-size:12px;fill:#ff0000;fill-opacity:1;fill-rule:evenodd;stroke-width:1pt"
           id="polygon596"
           sodipodi:sides="5"
           sodipodi:cx="497.44034"
           sodipodi:cy="73.337006"
           sodipodi:r1="22.41778"
           sodipodi:r2="8.9671125"
           sodipodi:arg1="0.90975159"
           sodipodi:arg2="1.5380701"
           points="511.204,91.0325 497.734,82.2993 484.864,91.8948 489.007,76.3856 475.905,67.1109 491.935,66.2588 496.707,50.9312 502.471,65.9139 518.523,65.7156 506.055,75.8275 511.204,91.0325 "
           transform="matrix(0.99883,0.04836373,-0.04836373,0.99883,4.035646,-21.99739)"
           d="m 511.20355,91.032508 -13.4698,-8.733191 -12.86977,9.595493 4.14336,-15.509251 -13.10283,-9.274702 16.03054,-0.852053 4.77177,-15.327575 5.76406,14.982654 16.05195,-0.19826 -12.46816,10.111842 z" />
      </g>
      <g
         id="g597"
         transform="matrix(1.026601,0,0,1.032127,90.830087,129.87779)">
        <polygon
           inkscape:randomized="0"
           inkscape:rounded="0"
           inkscape:flatsided="false"
           sodipodi:type="star"
           style="font-size:12px;fill:#ffffff;fill-opacity:1;fill-rule:evenodd;stroke-width:1pt"
           id="polygon598"
           sodipodi:sides="5"
           sodipodi:cx="497.44034"
           sodipodi:cy="77.26931"
           sodipodi:r1="38.176083"
           sodipodi:r2="15.270433"
           sodipodi:arg1="0.96850938"
           sodipodi:arg2="1.596828"
           points="519.068,108.728 497.043,92.5346 474.205,107.56 482.799,81.6085 461.452,64.5312 488.789,64.6858 498.434,39.1062 506.735,65.1531 534.043,66.4213 511.836,82.3645 519.068,108.728 "
           transform="translate(0,-1.966187)"
           d="m 519.06818,108.72801 -22.02531,-16.19344 -22.83816,15.02531 8.59468,-25.951362 -21.3473,-17.077307 27.33711,0.154617 9.64481,-25.579666 8.30058,26.04692 27.30812,1.268204 -22.20707,15.943265 z" />
        <polygon
           inkscape:randomized="0"
           inkscape:rounded="0"
           inkscape:flatsided="false"
           sodipodi:type="star"
           style="font-size:12px;fill:#ff0000;fill-opacity:1;fill-rule:evenodd;stroke-width:1pt"
           id="polygon599"
           sodipodi:sides="5"
           sodipodi:cx="497.44034"
           sodipodi:cy="73.337006"
           sodipodi:r1="22.41778"
           sodipodi:r2="8.9671125"
           sodipodi:arg1="0.90975159"
           sodipodi:arg2="1.5380701"
           points="511.204,91.0325 497.734,82.2993 484.864,91.8948 489.007,76.3856 475.905,67.1109 491.935,66.2588 496.707,50.9312 502.471,65.9139 518.523,65.7156 506.055,75.8275 511.204,91.0325 "
           transform="matrix(0.99883,0.04836373,-0.04836373,0.99883,4.035646,-21.99739)"
           d="m 511.20355,91.032508 -13.4698,-8.733191 -12.86977,9.595493 4.14336,-15.509251 -13.10283,-9.274702 16.03054,-0.852053 4.77177,-15.327575 5.76406,14.982654 16.05195,-0.19826 -12.46816,10.111842 z" />
      </g>
      <g
         id="g600"
         transform="matrix(1.026601,0,0,1.032127,-2.019471,334.84036)">
        <polygon
           inkscape:randomized="0"
           inkscape:rounded="0"
           inkscape:flatsided="false"
           sodipodi:type="star"
           style="font-size:12px;fill:#ffffff;fill-opacity:1;fill-rule:evenodd;stroke-width:1pt"
           id="polygon601"
           sodipodi:sides="5"
           sodipodi:cx="497.44034"
           sodipodi:cy="77.26931"
           sodipodi:r1="38.176083"
           sodipodi:r2="15.270433"
           sodipodi:arg1="0.96850938"
           sodipodi:arg2="1.596828"
           points="519.068,108.728 497.043,92.5346 474.205,107.56 482.799,81.6085 461.452,64.5312 488.789,64.6858 498.434,39.1062 506.735,65.1531 534.043,66.4213 511.836,82.3645 519.068,108.728 "
           transform="translate(0,-1.966187)"
           d="m 519.06818,108.72801 -22.02531,-16.19344 -22.83816,15.02531 8.59468,-25.951362 -21.3473,-17.077307 27.33711,0.154617 9.64481,-25.579666 8.30058,26.04692 27.30812,1.268204 -22.20707,15.943265 z" />
        <polygon
           inkscape:randomized="0"
           inkscape:rounded="0"
           inkscape:flatsided="false"
           sodipodi:type="star"
           style="font-size:12px;fill:#ff0000;fill-opacity:1;fill-rule:evenodd;stroke-width:1pt"
           id="polygon602"
           sodipodi:sides="5"
           sodipodi:cx="497.44034"
           sodipodi:cy="73.337006"
           sodipodi:r1="22.41778"
           sodipodi:r2="8.9671125"
           sodipodi:arg1="0.90975159"
           sodipodi:arg2="1.5380701"
           points="511.204,91.0325 497.734,82.2993 484.864,91.8948 489.007,76.3856 475.905,67.1109 491.935,66.2588 496.707,50.9312 502.471,65.9139 518.523,65.7156 506.055,75.8275 511.204,91.0325 "
           transform="matrix(0.99883,0.04836373,-0.04836373,0.99883,4.035646,-21.99739)"
           d="m 511.20355,91.032508 -13.4698,-8.733191 -12.86977,9.595493 4.14336,-15.509251 -13.10283,-9.274702 16.03054,-0.852053 4.77177,-15.327575 5.76406,14.982654 16.05195,-0.19826 -12.46816,10.111842 z" />
      </g>
    </g>
  </g>
</svg>
