<?xml version="1.0" encoding="UTF-8" standalone="no"?>
<!-- Created with Sodipodi ("http://www.sodipodi.com/") -->

<svg
   xmlns:dc="http://purl.org/dc/elements/1.1/"
   xmlns:cc="http://creativecommons.org/ns#"
   xmlns:rdf="http://www.w3.org/1999/02/22-rdf-syntax-ns#"
   xmlns:svg="http://www.w3.org/2000/svg"
   xmlns="http://www.w3.org/2000/svg"
   xmlns:sodipodi="http://sodipodi.sourceforge.net/DTD/sodipodi-0.dtd"
   xmlns:inkscape="http://www.inkscape.org/namespaces/inkscape"
   id="svg548"
   sodipodi:version="0.33pre"
   width="640"
   height="480"
   sodipodi:docname="pf.svg"
   version="1.1"
   inkscape:version="0.48.1 r9760">
  <sodipodi:namedview
     id="base"
     showgrid="false"
     inkscape:zoom="1.0958333"
     inkscape:cx="320"
     inkscape:cy="240"
     inkscape:window-width="1280"
     inkscape:window-height="746"
     inkscape:window-x="0"
     inkscape:window-y="24"
     inkscape:window-maximized="1"
     inkscape:current-layer="svg548" />
  <metadata
     id="metadata3629">
    <rdf:RDF>
      <cc:Work
         rdf:about="">
        <dc:format>image/svg+xml</dc:format>
        <dc:type
           rdf:resource="http://purl.org/dc/dcmitype/StillImage" />
      </cc:Work>
    </rdf:RDF>
  </metadata>
  <defs
     id="defs550">
    <clipPath
       id="clipPath6755"
       clipPathUnits="userSpaceOnUse">
      <rect
         y="2.7414211e-05"
         width="496.06265"
         style="fill:#000000;fill-opacity:0.67000002;stroke:none"
         x="124.01566"
         height="496.06265"
         id="rect6757" />
    </clipPath>
    <clipPath
       id="clipPath4144"
       clipPathUnits="userSpaceOnUse">
      <rect
         y="0"
         width="512"
         style="fill:#000000;fill-opacity:0.67000002;stroke:none"
         x="0"
         height="512"
         id="rect4146" />
    </clipPath>
    <clipPath
       id="clipPath9090"
       clipPathUnits="userSpaceOnUse">
      <rect
         y="-1.1351795e-05"
         width="682.66669"
         style="fill:#000000;fill-opacity:0.67000002;stroke:none"
         x="-85.333069"
         height="512"
         id="rect9092" />
    </clipPath>
    <clipPath
       clipPathUnits="userSpaceOnUse"
       id="clipPath3278">
      <rect
         id="rect3280"
         height="480"
         x="0"
         style="fill:#000000;fill-opacity:0.67000002;stroke:none"
         width="640"
         y="0" />
    </clipPath>
  </defs>
  <g
     id="flag"
     clip-path="url(#clipPath3278)"
     inkscape:label="#g3094">
    <rect
       style="fill:#ffffff;fill-opacity:1;stroke:none"
       id="rect3092"
       width="640"
       height="480"
       x="0"
       y="0" />
    <rect
       y="1.0642308e-05"
       width="480"
       style="fill:#ffffff;fill-opacity:1;stroke:none"
       x="79.999748"
       height="480"
       id="rect3145" />
    <path
       id="path560"
       d="m 277.28032,340.7521 c 0,0 10.83927,-8.78792 21.38632,-8.78792 10.54706,0 13.47701,7.32294 20.80092,7.90835 7.32392,0.58638 13.47507,-7.32391 22.55813,-7.61613 9.08207,-0.29222 20.50772,6.44434 20.50772,6.44434 l -39.8427,12.01301 -45.41039,-9.96165 z"
       style="font-size:12px;fill:#083d9c;fill-rule:evenodd;stroke:#083d9c;stroke-width:1.99997444pt"
       inkscape:connector-curvature="0" />
    <path
       id="path561"
       d="m 254.42901,327.86147 135.34967,0.58638 c 0,0 -11.71788,-12.59744 -25.48806,-12.88967 -13.76923,-0.29512 -9.95971,5.85895 -20.50677,6.73658 -10.54609,0.87956 -13.18479,-6.44435 -22.85228,-6.15213 -9.66651,0.29222 -15.2342,6.15213 -22.55715,6.44628 -7.32391,0.29223 -16.69918,-7.32585 -22.26589,-7.03073 -5.56672,0.29223 -25.48807,8.78793 -25.48807,8.78793 l 3.80855,3.51536 z"
       style="font-size:12px;fill:#083d9c;fill-rule:evenodd;stroke:#083d9c;stroke-width:1.99997444pt"
       inkscape:connector-curvature="0" />
    <path
       sodipodi:nodetypes="ccccccccccc"
       id="path562"
       d="m 237.14539,311.74769 166.9889,0.58736 c 2.63579,-3.80856 -8.20348,-12.89064 -18.16319,-13.7702 -8.20541,0.29222 -14.06241,8.4957 -20.80092,8.78985 -6.73851,0.29223 -14.35463,-8.49763 -21.97271,-8.20251 -7.61613,0.29222 -15.52643,8.20251 -23.1445,8.20251 -7.61613,0 -13.18285,-8.49763 -22.85033,-8.49763 -9.66749,0 -14.06242,9.37526 -21.38633,8.78986 -7.32585,-0.58638 -13.7702,-9.37431 -20.80093,-9.37431 -7.03072,0 -18.74956,10.54609 -21.09314,9.95971 -2.34357,-0.5854 2.92802,4.39494 3.22315,3.51536 z"
       style="font-size:12px;fill:#083d9c;fill-rule:evenodd;stroke:#083d9c;stroke-width:1.99997444pt"
       inkscape:connector-curvature="0" />
    <path
       sodipodi:nodetypes="cccccc"
       id="path563"
       d="m 301.30244,218.87846 38.37966,10.25483 0,-54.78566 c -17.57874,0.87957 -32.2256,-33.39738 -1.17178,-35.74097 -30.46841,-4.39492 -33.98474,3.51537 -37.5001,12.01108 l 0.29222,68.26072 z"
       style="font-size:12px;fill:#ff0000;fill-rule:evenodd;stroke:#000000;stroke-width:2.49996805;stroke-linejoin:round"
       inkscape:connector-curvature="0" />
    <path
       id="path564"
       d="m 276.9881,258.72214 86.71807,0.29222"
       style="font-size:12px;fill:#083d9c;fill-rule:evenodd;stroke:#083d9c;stroke-width:4.99992561;stroke-linecap:round"
       inkscape:connector-curvature="0" />
    <g
       transform="matrix(1.8749722,0,0,1.8749722,-40.000249,-3.0648929e-5)"
       style="stroke:#000000;stroke-width:1.06666672;stroke-opacity:1"
       id="g570">
      <path
         id="path565"
         d="m 171.25,126.893 5.469,7.344"
         style="fill:none;stroke:#000000;stroke-width:2.13333344;stroke-linecap:round;stroke-linejoin:miter;stroke-opacity:1;stroke-dasharray:none"
         inkscape:connector-curvature="0" />
      <path
         id="path566"
         d="m 171.25,134.237 5.938,-7.187"
         style="fill:none;stroke:#000000;stroke-width:2.13333344;stroke-linecap:round;stroke-linejoin:miter;stroke-opacity:1;stroke-dasharray:none"
         inkscape:connector-curvature="0" />
      <path
         id="path567"
         d="m 174.375,126.424 -0.156,4.531"
         style="fill:none;stroke:#000000;stroke-width:2.13333344;stroke-linecap:round;stroke-linejoin:miter;stroke-opacity:1;stroke-dasharray:none"
         inkscape:connector-curvature="0" />
    </g>
    <g
       style="stroke:#000000;stroke-width:1.06666672;stroke-opacity:1"
       transform="matrix(1.8749722,0,0,1.8749722,-23.594234,-3.0648929e-5)"
       id="g574">
      <path
         id="path575"
         d="m 171.25,126.893 5.469,7.344"
         style="fill:none;stroke:#000000;stroke-width:2.13333344;stroke-linecap:round;stroke-linejoin:miter;stroke-opacity:1;stroke-dasharray:none"
         inkscape:connector-curvature="0" />
      <path
         id="path576"
         d="m 171.25,134.237 5.938,-7.187"
         style="fill:none;stroke:#000000;stroke-width:2.13333344;stroke-linecap:round;stroke-linejoin:miter;stroke-opacity:1;stroke-dasharray:none"
         inkscape:connector-curvature="0" />
      <path
         id="path577"
         d="m 174.375,126.424 -0.156,4.531"
         style="fill:none;stroke:#000000;stroke-width:2.13333344;stroke-linecap:round;stroke-linejoin:miter;stroke-opacity:1;stroke-dasharray:none"
         inkscape:connector-curvature="0" />
    </g>
    <g
       style="stroke:#000000;stroke-width:1.06666672;stroke-opacity:1"
       transform="matrix(1.8749722,0,0,1.8749722,-6.8952698,-3.0648929e-5)"
       id="g578">
      <path
         id="path579"
         d="m 171.25,126.893 5.469,7.344"
         style="fill:none;stroke:#000000;stroke-width:2.13333344;stroke-linecap:round;stroke-linejoin:miter;stroke-opacity:1;stroke-dasharray:none"
         inkscape:connector-curvature="0" />
      <path
         id="path580"
         d="m 171.25,134.237 5.938,-7.187"
         style="fill:none;stroke:#000000;stroke-width:2.13333344;stroke-linecap:round;stroke-linejoin:miter;stroke-opacity:1;stroke-dasharray:none"
         inkscape:connector-curvature="0" />
      <path
         id="path581"
         d="m 174.375,126.424 -0.156,4.531"
         style="fill:none;stroke:#000000;stroke-width:2.13333344;stroke-linecap:round;stroke-linejoin:miter;stroke-opacity:1;stroke-dasharray:none"
         inkscape:connector-curvature="0" />
    </g>
    <g
       style="stroke:#000000;stroke-width:1.06666672;stroke-opacity:1"
       transform="matrix(1.8749722,0,0,1.8749722,10.389639,-3.0648929e-5)"
       id="g582">
      <path
         id="path583"
         d="m 171.25,126.893 5.469,7.344"
         style="fill:none;stroke:#000000;stroke-width:2.13333344;stroke-linecap:round;stroke-linejoin:miter;stroke-opacity:1;stroke-dasharray:none"
         inkscape:connector-curvature="0" />
      <path
         id="path584"
         d="m 171.25,134.237 5.938,-7.187"
         style="fill:none;stroke:#000000;stroke-width:2.13333344;stroke-linecap:round;stroke-linejoin:miter;stroke-opacity:1;stroke-dasharray:none"
         inkscape:connector-curvature="0" />
      <path
         id="path585"
         d="m 174.375,126.424 -0.156,4.531"
         style="fill:none;stroke:#000000;stroke-width:2.13333344;stroke-linecap:round;stroke-linejoin:miter;stroke-opacity:1;stroke-dasharray:none"
         inkscape:connector-curvature="0" />
    </g>
    <g
       style="stroke:#000000;stroke-width:1.06666672;stroke-opacity:1"
       transform="matrix(1.8749722,0,0,1.8749722,27.088617,-3.0648929e-5)"
       id="g586">
      <path
         id="path587"
         d="m 171.25,126.893 5.469,7.344"
         style="fill:none;stroke:#000000;stroke-width:2.13333344;stroke-linecap:round;stroke-linejoin:miter;stroke-opacity:1;stroke-dasharray:none"
         inkscape:connector-curvature="0" />
      <path
         id="path588"
         d="m 171.25,134.237 5.938,-7.187"
         style="fill:none;stroke:#000000;stroke-width:2.13333344;stroke-linecap:round;stroke-linejoin:miter;stroke-opacity:1;stroke-dasharray:none"
         inkscape:connector-curvature="0" />
      <path
         id="path589"
         d="m 174.375,126.424 -0.156,4.531"
         style="fill:none;stroke:#000000;stroke-width:2.13333344;stroke-linecap:round;stroke-linejoin:miter;stroke-opacity:1;stroke-dasharray:none"
         inkscape:connector-curvature="0" />
    </g>
    <path
       id="path590"
       d="m 218.68804,259.60074 36.91276,0.29318 0,-23.14449 -42.18726,-2.04942 5.2745,24.90073 z"
       style="fill:#ef7d08;fill-opacity:1;fill-rule:evenodd;stroke:none"
       inkscape:connector-curvature="0" />
    <path
       id="path591"
       d="m 216.9289,227.66832 39.25828,3.80855 -0.29223,-16.40599 -38.3787,-15.23421 -0.58735,27.83165 z"
       style="fill:#ef7d08;fill-opacity:1;fill-rule:evenodd;stroke:none"
       inkscape:connector-curvature="0" />
    <path
       sodipodi:nodetypes="ccssssccc"
       id="path592"
       d="m 224.8392,194.85633 30.17618,14.64783 4.30881,-4.49846 c 0,0 -2.77513,-1.91202 -2.63773,-3.67115 0.0522,-1.77946 2.79158,-2.04942 2.84384,-3.98079 0.0503,-1.77945 -3.10316,-1.99329 -3.13702,-3.77371 -0.2061,-1.92944 2.43065,-3.99821 2.43065,-3.99821 l -27.24526,-23.72991 -6.73947,29.0044 z"
       style="fill:#ef7d08;fill-opacity:1;fill-rule:evenodd;stroke:none"
       inkscape:connector-curvature="0" />
    <path
       id="path593"
       d="m 422.88386,259.89392 -38.96411,0 -0.29222,-22.55811 42.77169,-3.22314 -3.51536,25.78125 z"
       style="fill:#ef7d08;fill-opacity:1;fill-rule:evenodd;stroke:none"
       inkscape:connector-curvature="0" />
    <path
       id="path594"
       d="m 384.21197,232.06131 46.28996,-5.56477 -9.96165,-26.65987 -36.62053,15.52643 0.29222,16.69821 z"
       style="fill:#ef7d08;fill-opacity:1;fill-rule:evenodd;stroke:none"
       inkscape:connector-curvature="0" />
    <path
       sodipodi:nodetypes="ccccccccc"
       id="path595"
       d="m 417.90352,192.51276 -33.39836,17.57778 c -0.48769,-1.90524 -0.90183,-3.73695 -3.22121,-5.2745 0,0 2.04942,-1.17178 2.04942,-3.22314 0,-2.04941 -2.63677,-2.34357 -2.63677,-3.51536 0,-1.17178 2.41712,-2.19552 2.56323,-4.83326 -0.29223,-1.83074 -2.56323,-4.39299 -2.12392,-4.9068 l 25.92833,-19.84878 10.83928,24.02406 z"
       style="fill:#ef7d08;fill-opacity:1;fill-rule:evenodd;stroke:none"
       inkscape:connector-curvature="0" />
    <path
       sodipodi:nodetypes="cccc"
       id="path596"
       d="m 345.54298,231.62298 16.69822,-0.73152 0.29221,-6.74044 -16.99043,7.47196 z"
       style="fill:#ef7d08;fill-opacity:1;fill-rule:evenodd;stroke:none"
       inkscape:connector-curvature="0" />
    <path
       sodipodi:nodetypes="cccc"
       id="path597"
       d="m 294.56587,231.10918 -17.57777,-0.51188 0,-7.03169 17.57777,7.54357 z"
       style="fill:#ef7d08;fill-opacity:1;fill-rule:evenodd;stroke:none"
       inkscape:connector-curvature="0" />
    <path
       sodipodi:nodetypes="cccccc"
       id="path598"
       d="m 294.4933,229.05976 -17.5052,-9.00951 c 0,-3.90532 0,-7.81256 0,-11.71788 0,0 -2.05136,0.29223 -1.75817,-2.05135 0.0968,-4.8826 12.86547,8.91178 19.40948,13.40347 l -0.14611,9.37527 z"
       style="fill:#ef7d08;fill-opacity:1;fill-rule:evenodd;stroke:none"
       inkscape:connector-curvature="0" />
    <path
       sodipodi:nodetypes="cccccc"
       id="path599"
       d="m 345.54105,227.96054 -0.0716,-7.61613 c 0,0 15.81768,-14.28111 19.18693,-16.91884 0,2.92996 -1.82976,5.19903 -1.82976,5.19903 l 0,11.13343 -17.28556,8.20251 z"
       style="fill:#ef7d08;fill-opacity:1;fill-rule:evenodd;stroke:none"
       inkscape:connector-curvature="0" />
    <path
       sodipodi:nodetypes="ccccsssscccc"
       id="path600"
       d="m 243.00432,163.80155 c 0.29222,0.29319 17.75002,19.69589 17.75002,19.69589 0.48962,-1.83847 4.51491,-2.11811 8.61568,-1.82492 4.10271,0.29221 7.3723,-0.2748 7.3723,2.65515 0,2.92898 -2.08135,2.51291 -2.08135,4.56426 0,2.05135 3.11864,1.87912 3.11864,4.51298 0,2.63676 -2.26133,2.09876 -2.27294,4.14044 -0.007,1.68753 2.35906,1.77752 2.35906,1.77752 l 16.62563,16.11377 0.0726,-17.21298 -34.27599,-53.75805 -17.28362,19.33594 z"
       style="fill:#ef7d08;fill-opacity:1;fill-rule:evenodd;stroke:none"
       inkscape:connector-curvature="0" />
    <path
       sodipodi:nodetypes="ccccc"
       id="path601"
       d="m 270.42956,143.44573 c 0.2603,0.78184 23.2161,47.47723 23.2161,47.47723 0,0 0.2603,-43.82543 4.17335,-46.17288 l -6.52079,-12.00041 -20.86866,10.69606 z"
       style="fill:#ef7d08;fill-opacity:1;fill-rule:evenodd;stroke:none"
       inkscape:connector-curvature="0" />
    <path
       sodipodi:nodetypes="ccccccc"
       id="path602"
       d="m 371.38326,145.27163 -25.92253,46.24545 0.0338,-19.49076 c 0,0 2.15004,-3.27733 -1.24146,-3.01607 -3.39054,0.26029 -7.56389,-0.26126 -7.56389,-0.26126 l 10.43385,-36.52087 24.26016,13.04351 z"
       style="fill:#ef7d08;fill-opacity:1;fill-rule:evenodd;stroke:none"
       inkscape:connector-curvature="0" />
    <path
       sodipodi:nodetypes="ccccssscccc"
       id="path603"
       d="m 397.99184,165.09719 c -0.26126,0.52155 -17.48779,18.0403 -17.48779,18.0403 -0.78184,-2.08618 -5.99054,-1.0847 -10.94668,-1.0847 -4.95712,0 -5.64703,1.58883 -5.3848,2.89319 0.52154,3.3915 2.19552,0.89214 2.19552,4.02336 0,3.12928 -2.41131,1.98749 -2.62708,4.27882 0.23996,2.63192 3.78629,1.98167 1.70881,3.97594 l -19.94845,19.1492 0.0562,-18.14578 37.04242,-57.65175 15.39193,24.52142 z"
       style="fill:#ef7d08;fill-opacity:1;fill-rule:evenodd;stroke:none"
       inkscape:connector-curvature="0" />
    <path
       sodipodi:nodetypes="ccsssssscccsssssscc"
       id="path604"
       d="m 309.81943,268.40027 c -8.34766,13.82632 -30.66387,9.72554 -35.88224,0.0735 -1.56367,-0.44317 -0.63863,-59.55119 -0.63863,-59.55119 0,0 -2.49356,-1.13598 -2.6087,-2.95317 -0.11418,-1.83558 3.39053,-2.002 3.39053,-4.35138 0,-2.34745 -3.57922,-1.42725 -3.65083,-3.79017 0.0155,-2.25939 3.82114,-1.94782 3.65083,-4.03594 -0.20126,-2.35325 -4.26236,-2.00491 -4.4346,-4.17432 -0.13159,-1.72333 2.9048,-3.22604 3.74856,-4.00111 -0.54574,0.0271 -2.82061,-0.0338 -2.83512,-0.0416 -2.1307,0.0435 -4.26236,0.0871 -6.3921,0.13063 -4.54104,0.005 0.0784,0.98988 0.0116,3.61019 -0.0416,1.71172 -2.30293,2.85061 -2.50517,4.33881 -0.0716,1.52787 3.23573,2.60096 3.27734,4.4346 0.0378,1.63624 -3.24928,1.74752 -3.13123,3.26765 0.20417,2.5729 2.91157,3.13896 2.87094,4.69682 -0.0416,1.55593 -3.6431,2.14909 -3.65277,3.39055 0.12579,2.40163 0.52155,60.78103 0.52155,60.78103 5.73895,29.73882 38.86831,37.30367 48.26003,-1.82493 z"
       style="font-size:12px;fill:#ff0000;fill-rule:evenodd;stroke:#000000;stroke-width:2.49996805;stroke-linejoin:round"
       inkscape:connector-curvature="0" />
    <path
       sodipodi:nodetypes="ccsssssscccsssssscc"
       id="path606"
       d="m 331.66441,268.40027 c 8.34766,13.82632 30.6629,9.72554 35.88127,0.0735 1.56368,-0.44317 0.6396,-59.55119 0.6396,-59.55119 0,0 2.49356,-1.13598 2.60773,-2.95317 0.11418,-1.83558 -3.17088,-2.002 -3.17088,-4.35138 0,-2.34745 3.36054,-1.42725 3.43118,-3.79017 -0.0145,-2.25939 -3.52794,-2.09393 -3.35765,-4.18302 0.2003,-2.35228 2.95899,-2.07748 3.11574,-4.24688 0.13159,-1.86848 -1.73203,-3.0064 -2.5758,-3.78147 0.54574,0.0271 2.67353,-0.0338 2.68901,-0.0416 2.12974,0.0435 4.2614,0.0871 6.39113,0.13063 4.542,0.005 -0.0784,0.98988 -0.0107,3.61019 0.0406,1.71172 2.30196,2.85061 2.50517,4.33881 0.0707,1.52787 -3.23669,2.60096 -3.2783,4.4346 -0.0367,1.63624 3.25024,1.74752 3.13122,3.26765 -0.20417,2.5729 -2.91156,3.13896 -2.86996,4.69682 0.0406,1.55593 3.64309,2.14909 3.6518,3.39055 -0.12483,2.40163 -0.52059,60.78103 -0.52059,60.78103 -5.73991,29.73882 -38.8683,37.30367 -48.26003,-1.82493 z"
       style="font-size:12px;fill:#ff0000;fill-rule:evenodd;stroke:#000000;stroke-width:2.49996805;stroke-linejoin:round"
       inkscape:connector-curvature="0" />
    <path
       sodipodi:nodetypes="cccc"
       id="path610"
       d="m 301.71368,295.58941 37.27658,-0.0222 c 0.29029,-0.29318 -8.34572,-12.87417 -18.63249,-11.98686 -11.45952,0.29996 -19.24401,12.00912 -18.64409,12.00912 z"
       style="font-size:12px;fill:#083d9c;fill-rule:evenodd;stroke:#083d9c;stroke-width:1.99997444pt"
       inkscape:connector-curvature="0" />
    <path
       sodipodi:nodetypes="cccccc"
       id="path611"
       d="m 420.57318,294.68179 -51.00808,0 c 0,0 6.60208,-3.90144 8.40185,-7.50196 3.29958,1.80074 2.3997,3.60052 9.00176,3.90048 6.60014,0.29996 12.90128,-7.50002 19.20339,-7.20006 6.30017,0.29997 14.40108,11.1015 14.40108,10.80154 z"
       style="font-size:12px;fill:#083d9c;fill-rule:evenodd;stroke:#083d9c;stroke-width:1.99997444pt"
       inkscape:connector-curvature="0" />
    <path
       sodipodi:nodetypes="cccccc"
       id="path612"
       d="m 219.5676,294.68179 51.00808,0 c 0,0 -6.60207,-3.90144 -8.40185,-7.50196 -3.29957,1.80074 -2.3997,3.60052 -9.00176,3.90048 -6.59916,0.29996 -12.90127,-7.50002 -19.20338,-7.20006 -6.30017,0.29997 -14.40109,11.1015 -14.40109,10.80154 z"
       style="font-size:12px;fill:#083d9c;fill-rule:evenodd;stroke:#083d9c;stroke-width:1.99997444pt"
       inkscape:connector-curvature="0" />
    <path
       sodipodi:nodetypes="cccccc"
       id="path613"
       d="m 223.37519,278.64349 36.32735,0.29222 c 0,0 -2.34358,-4.97937 -2.6358,-11.13149 -9.3772,-3.22121 -16.99334,7.03073 -23.73184,7.32391 -6.73657,0.29222 -13.7673,-7.32391 -13.7673,-7.32391 l 3.80759,10.83927 z"
       style="font-size:12px;fill:#083d9c;fill-rule:evenodd;stroke:#083d9c;stroke-width:1.99997444pt"
       inkscape:connector-curvature="0" />
    <path
       sodipodi:nodetypes="cccccc"
       id="path614"
       d="m 417.31908,278.64349 -36.32832,0.29222 c 0,0 2.34454,-4.97937 2.63677,-11.13149 9.37623,-3.22121 16.99236,7.03073 23.73087,7.32391 6.73753,0.29222 13.76826,-7.32391 13.76826,-7.32391 l -3.80758,10.83927 z"
       style="font-size:12px;fill:#083d9c;fill-rule:evenodd;stroke:#083d9c;stroke-width:1.99997444pt"
       inkscape:connector-curvature="0" />
    <path
       id="path615"
       d="m 310.97186,278.93571 18.45541,-0.58444 c 0,0 0.29416,-5.56671 -9.3743,-5.56671 -9.66749,0 -8.78791,6.44531 -9.08111,6.15115 z"
       style="font-size:12px;fill:#083d9c;fill-rule:evenodd;stroke:#083d9c;stroke-width:1.99997444pt"
       inkscape:connector-curvature="0" />
    <path
       sodipodi:nodetypes="ccccc"
       id="path616"
       d="m 299.83843,271.02735 c 3.22314,-1.75912 6.15213,-3.51536 8.20348,-7.61806 l -12.5984,0.29222 c 0,0 -5.85701,3.5173 -8.78793,7.32584 l 13.18285,0 z"
       style="font-size:12px;fill:#083d9c;fill-rule:evenodd;stroke:#083d9c;stroke-width:1.99997444pt"
       inkscape:connector-curvature="0" />
    <path
       sodipodi:nodetypes="ccccc"
       id="path617"
       d="m 340.56071,271.02735 c -3.22314,-1.75912 -6.15116,-3.51536 -8.20251,-7.61806 l 12.59744,0.29222 c 0,0 5.85796,3.5173 8.78791,7.32584 l -13.18284,0 z"
       style="font-size:12px;fill:#083d9c;fill-rule:evenodd;stroke:#083d9c;stroke-width:1.99997444pt"
       inkscape:connector-curvature="0" />
    <rect
       y="359.99991"
       x="-40.000248"
       height="120.00007"
       width="720.00049"
       id="rect618"
       style="font-size:12px;fill:#de2010;fill-opacity:1;fill-rule:evenodd;stroke-width:1pt" />
    <rect
       y="-4.0230807e-07"
       x="-40.000248"
       height="120.00007"
       width="720.00049"
       id="rect619"
       style="font-size:12px;fill:#de2010;fill-opacity:1;fill-rule:evenodd;stroke-width:1pt" />
  </g>
</svg>
