<?xml version="1.0" encoding="UTF-8" standalone="no"?>
<!-- Created with Sodipodi ("http://www.sodipodi.com/") -->

<svg
   xmlns:dc="http://purl.org/dc/elements/1.1/"
   xmlns:cc="http://creativecommons.org/ns#"
   xmlns:rdf="http://www.w3.org/1999/02/22-rdf-syntax-ns#"
   xmlns:svg="http://www.w3.org/2000/svg"
   xmlns="http://www.w3.org/2000/svg"
   xmlns:sodipodi="http://sodipodi.sourceforge.net/DTD/sodipodi-0.dtd"
   xmlns:inkscape="http://www.inkscape.org/namespaces/inkscape"
   version="1"
   x="0"
   y="0"
   width="640"
   height="480"
   id="svg378"
   inkscape:version="0.48.1 r9760"
   sodipodi:docname="ph.svg">
  <sodipodi:namedview
     pagecolor="#ffffff"
     bordercolor="#666666"
     borderopacity="1"
     objecttolerance="10"
     gridtolerance="10"
     guidetolerance="10"
     inkscape:pageopacity="0"
     inkscape:pageshadow="2"
     inkscape:window-width="1280"
     inkscape:window-height="746"
     id="namedview3664"
     showgrid="false"
     inkscape:zoom="0.4021669"
     inkscape:cx="215.70571"
     inkscape:cy="385.41213"
     inkscape:window-x="0"
     inkscape:window-y="24"
     inkscape:window-maximized="1"
     inkscape:current-layer="svg378" />
  <metadata
     id="metadata3666">
    <rdf:RDF>
      <cc:Work
         rdf:about="">
        <dc:format>image/svg+xml</dc:format>
        <dc:type
           rdf:resource="http://purl.org/dc/dcmitype/StillImage" />
      </cc:Work>
    </rdf:RDF>
  </metadata>
  <defs
     id="defs380">
    <clipPath
       id="clipPath6532"
       clipPathUnits="userSpaceOnUse">
      <rect
         y="-3.3378826e-06"
         width="708.66101"
         style="fill:#000000;fill-opacity:0.67000002;stroke:none"
         x="192.3904"
         height="708.66101"
         id="rect6534" />
    </clipPath>
    <clipPath
       id="clipPath8568"
       clipPathUnits="userSpaceOnUse">
      <rect
         y="2.4115845e-06"
         width="682.66669"
         style="fill:#000000;fill-opacity:0.67000002;stroke:none"
         x="-96.333885"
         height="512"
         id="rect8570" />
    </clipPath>
    <clipPath
       clipPathUnits="userSpaceOnUse"
       id="clipPath8673">
      <rect
         id="rect8675"
         height="480"
         x="0"
         style="fill:#000000;fill-opacity:0.67000002;stroke:none"
         width="640"
         y="0" />
    </clipPath>
  </defs>
  <g
     id="flag"
     clip-path="url(#clipPath8673)"
     inkscape:label="#g8604">
    <g
       id="g8587"
       transform="translate(39.999485,0)">
      <rect
         width="719.99896"
         height="480"
         x="-39.999485"
         y="1.2137697e-14"
         style="font-size:12px;fill:#f50013;fill-rule:evenodd;stroke-width:1pt"
         id="rect149" />
      <rect
         width="719.99896"
         height="240.00034"
         x="-39.999485"
         y="1.2137697e-14"
         style="font-size:12px;fill:#00189a;fill-rule:evenodd;stroke-width:1pt"
         id="rect280" />
      <path
         inkscape:connector-curvature="0"
         d="M -39.999485,0 373.14564,239.69215 -39.999485,479.07543 -39.999485,0 z"
         style="font-size:12px;fill:#feffff;fill-rule:evenodd;stroke-width:1pt"
         id="path279" />
      <path
         inkscape:connector-curvature="0"
         d="m -20.421466,437.09708 4.211184,-18.49008 -16.604794,-9.17512 19.300978,-2.40966 4.3907817,-18.45795 7.7175104,17.00294 19.3174109,-2.23328 -14.5315334,12.91712 7.5486384,17.07785 -16.6975388,-9.01899 -14.6526372,12.78717 z"
         style="font-size:12px;fill:#eca300;fill-rule:evenodd;stroke-width:0.112872"
         id="path205" />
      <path
         inkscape:connector-curvature="0"
         d="m 67.452555,198.50037 -14.826368,-25.45865 -8.526216,-0.96556 20.301078,28.82953 3.051506,-2.40532 z m -11.508289,11.66456 -31.17333,-23.98577 -1.116747,-13.96415 12.606176,-0.42603 25.771192,31.51837 -6.087291,6.85758 z m -4.733912,5.48486 -25.656298,-14.48165 -1.080461,-8.51242 29.100695,19.91041 -2.363936,3.08366 z"
         style="font-size:12px;fill:#eca300;fill-rule:evenodd;stroke-width:1pt"
         id="path425" />
      <path
         inkscape:connector-curvature="0"
         d="m 104.14327,193.26535 7.73836,-28.42677 -5.2941,-6.75287 -6.29916,34.69287 3.8549,0.48677 z m -16.386042,-0.0163 -4.780404,-39.04153 9.166731,-10.59319 9.148235,8.68372 -4.377216,40.47717 -9.157346,0.47383 z m -7.229654,0.47507 -7.681806,-28.44211 5.307519,-6.74232 6.230146,34.70533 -3.855859,0.4791 z"
         style="font-size:12px;fill:#eca300;fill-rule:evenodd;stroke-width:1pt"
         id="path426" />
      <path
         inkscape:connector-curvature="0"
         d="m 133.87175,216.18532 25.83883,-14.15338 1.1889,-8.49794 -29.35216,19.53776 2.32443,3.11356 z m -11.35864,-11.81033 24.79532,-30.53335 13.98864,-0.75002 0.0952,12.61301 -32.1836,24.93546 -6.69553,-6.2651 z m -5.35878,-4.87617 15.14974,-25.26755 8.53783,-0.85677 -20.66698,28.56834 -3.02059,-2.44402 z"
         style="font-size:12px;fill:#eca300;fill-rule:evenodd;stroke-width:1pt"
         id="path427" />
      <path
         inkscape:connector-curvature="0"
         d="m 138.46847,251.81116 28.42272,7.75329 6.75565,-5.29056 -34.68958,-6.31738 -0.48879,3.85465 z m 0.0249,-16.38604 39.04406,-4.7599 10.58837,9.17229 -8.68851,9.14368 -40.4749,-4.39848 -0.46902,-9.15759 z m -0.47128,-7.22991 28.44616,-7.66687 6.73954,5.31106 -34.70862,6.21192 -0.47708,-3.85611 z"
         style="font-size:12px;fill:#eca300;fill-rule:evenodd;stroke-width:1pt"
         id="path428" />
      <path
         inkscape:connector-curvature="0"
         d="m 116.82591,280.77533 14.93863,25.39297 8.5304,0.92791 -20.42817,-28.73964 -3.04086,2.41876 z m 11.45669,-11.71526 31.27894,23.84794 1.17838,13.95909 -12.60418,0.48168 -25.9101,-31.40432 6.05696,-6.88439 z m 4.70966,-5.50571 25.71999,14.36826 1.11803,8.50757 -29.18832,-19.78175 2.3503,-3.09408 z"
         style="font-size:12px;fill:#eca300;fill-rule:evenodd;stroke-width:1pt"
         id="path429" />
      <path
         inkscape:connector-curvature="0"
         d="m 80.272924,286.2007 -7.542711,28.47933 5.340412,6.71631 6.060458,-34.73539 -3.858159,-0.46025 z m 16.385779,-0.0964 5.048757,39.00776 -9.093681,10.65598 -9.207742,-8.6206 4.098788,-40.50635 9.153878,-0.53679 z m 7.226227,-0.52478 7.8772,28.38864 -5.26103,6.77866 -6.46865,-34.66169 3.85248,-0.50561 z"
         style="font-size:12px;fill:#eca300;fill-rule:evenodd;stroke-width:1pt"
         id="path430" />
      <path
         inkscape:connector-curvature="0"
         d="m 50.608601,263.86756 -25.608071,14.56677 -1.052188,8.51596 29.034422,-20.00693 -2.374163,-3.0758 z m 11.54696,11.62628 -24.301466,30.92786 -13.974786,0.97473 -0.297847,-12.60986 31.778758,-25.44942 6.795341,6.15669 z m 5.436451,4.78944 -14.741749,25.50774 -8.522965,0.99386 20.205238,-28.89678 3.059476,2.39518 z"
         style="font-size:12px;fill:#eca300;fill-rule:evenodd;stroke-width:1pt"
         id="path431" />
      <path
         inkscape:connector-curvature="0"
         d="m 45.543015,227.90263 -28.477013,-7.55139 -6.717929,5.33835 34.733512,6.07106 0.46143,-3.85802 z m 0.09139,16.38579 -39.0092736,5.03686 -10.6531978,-9.09692 8.6234063,-9.2051 40.5050661,4.11113 0.533999,9.15403 z m 0.52257,7.22638 -28.391015,7.86854 -6.777053,-5.26309 34.663636,-6.45807 0.504432,3.85262 z"
         style="font-size:12px;fill:#eca300;fill-rule:evenodd;stroke-width:1pt"
         id="path432" />
      <path
         inkscape:connector-curvature="0"
         d="m 301.72008,264.76469 -10.99072,-15.45385 -17.90191,6.27882 11.05422,-16.00434 -10.84716,-15.56645 17.8242,5.56401 11.19676,-15.89915 -0.0391,19.44263 17.76764,5.73988 -17.8472,6.45198 -0.2167,19.44647 z"
         style="font-size:12px;fill:#eca300;fill-rule:evenodd;stroke-width:0.112872"
         id="path433" />
      <path
         inkscape:connector-curvature="0"
         d="M -9.8517444,92.121586 -13.259979,73.466777 -32.135979,71.569702 -15.342316,61.75607 -18.572801,43.060086 -4.78466,55.651668 12.093547,45.993693 3.8208391,63.588582 17.483244,76.315502 -1.4165553,74.598466 -9.8517444,92.121586 z"
         style="font-size:12px;fill:#eca300;fill-rule:evenodd;stroke-width:0.112872"
         id="path434" />
      <ellipse
         d="m 263.71223,353.87601 c 0,40.33258 -32.69602,73.02859 -73.02861,73.02859 -40.33258,0 -73.0286,-32.69601 -73.0286,-73.02859 0,-40.33258 32.69602,-73.0286 73.0286,-73.0286 40.33259,0 73.02861,32.69602 73.02861,73.0286 z"
         sodipodi:ry="73.028595"
         sodipodi:rx="73.028603"
         sodipodi:cy="353.87601"
         sodipodi:cx="190.68362"
         cx="190.68362"
         cy="353.87601"
         rx="73.028603"
         ry="73.028595"
         transform="matrix(0.67733372,0,0,0.67733372,-37.107916,-1.6235418e-5)"
         style="font-size:12px;fill:#eca300;fill-rule:evenodd;stroke-width:1pt"
         id="path418" />
    </g>
  </g>
</svg>
