<?xml version="1.0" encoding="UTF-8" standalone="no"?>
<!-- Created with Sodipodi ("http://www.sodipodi.com/") -->

<svg
   xmlns:dc="http://purl.org/dc/elements/1.1/"
   xmlns:cc="http://creativecommons.org/ns#"
   xmlns:rdf="http://www.w3.org/1999/02/22-rdf-syntax-ns#"
   xmlns:svg="http://www.w3.org/2000/svg"
   xmlns="http://www.w3.org/2000/svg"
   xmlns:sodipodi="http://sodipodi.sourceforge.net/DTD/sodipodi-0.dtd"
   xmlns:inkscape="http://www.inkscape.org/namespaces/inkscape"
   version="1"
   x="0"
   y="0"
   width="640"
   height="480"
   id="svg378"
   sodipodi:version="0.32"
   sodipodi:docname="qa.svg"
   inkscape:version="0.48.1 r9760">
  <sodipodi:namedview
     id="base"
     showgrid="false"
     inkscape:zoom="0.30856358"
     inkscape:cx="119.91046"
     inkscape:cy="354.33051"
     inkscape:window-width="1280"
     inkscape:window-height="746"
     inkscape:window-x="0"
     inkscape:window-y="24"
     inkscape:window-maximized="1"
     inkscape:current-layer="svg378" />
  <metadata
     id="metadata4320">
    <rdf:RDF>
      <cc:Work
         rdf:about="">
        <dc:format>image/svg+xml</dc:format>
        <dc:type
           rdf:resource="http://purl.org/dc/dcmitype/StillImage" />
      </cc:Work>
    </rdf:RDF>
  </metadata>
  <defs
     id="defs380">
    <clipPath
       clipPathUnits="userSpaceOnUse"
       id="clipPath4479">
      <rect
         id="rect4481"
         height="708.66101"
         x="96.887245"
         style="fill:#000000;fill-opacity:0.67000002;stroke:none"
         width="708.66101"
         y="-3.3378826e-06" />
    </clipPath>
    <clipPath
       clipPathUnits="userSpaceOnUse"
       id="clipPath3030">
      <rect
         id="rect3032"
         height="512"
         x="-27.333883"
         style="fill:#000000;fill-opacity:0.67000002;stroke:none"
         width="682.66669"
         y="2.4115845e-06" />
    </clipPath>
  </defs>
  <g
     transform="matrix(0.9375,0,0,0.9375,25.625515,-2.2608605e-6)"
     id="flag"
     clip-path="url(#clipPath3030)"
     inkscape:label="#g3007">
    <rect
       width="767.9989"
       height="512"
       x="-70"
       y="2.4115845e-06"
       style="font-size:12px;fill:#660057;fill-opacity:1;fill-rule:evenodd;stroke-width:1pt"
       id="rect171"
       sodipodi:fill-cmyk="(0 1 0.15 0.6)" />
    <path
       inkscape:connector-curvature="0"
       d="M 86.533087,511.75579 -70,511.99999 -70,2.4115845e-6 85.801205,0.08147175 186.3262,32.407621 86.535254,63.918486 l 0,0 99.790946,32.489044 -99.790946,31.51137 0,0 99.790946,32.4889 -99.790946,31.51065 0,0 99.790946,32.4889 -99.790946,31.51137 0,0 99.790946,32.48962 -99.790946,31.51065 0,0 99.790946,32.48962 -99.790946,31.51065 0,0 99.790946,32.4889 -99.790946,31.51137 0,0 99.790946,32.4889 -99.790946,31.51137"
       style="font-size:12px;fill:#ffffff;fill-rule:evenodd;stroke-width:1pt"
       id="path193" />
  </g>
</svg>
