<?xml version="1.0" encoding="UTF-8" standalone="no"?>
<!-- Created with Sodipodi ("http://www.sodipodi.com/") -->

<svg
   xmlns:dc="http://purl.org/dc/elements/1.1/"
   xmlns:cc="http://creativecommons.org/ns#"
   xmlns:rdf="http://www.w3.org/1999/02/22-rdf-syntax-ns#"
   xmlns:svg="http://www.w3.org/2000/svg"
   xmlns="http://www.w3.org/2000/svg"
   xmlns:sodipodi="http://sodipodi.sourceforge.net/DTD/sodipodi-0.dtd"
   xmlns:inkscape="http://www.inkscape.org/namespaces/inkscape"
   id="svg548"
   sodipodi:version="0.33pre"
   width="640"
   height="480"
   sodipodi:docname="sb.svg"
   version="1.1"
   inkscape:version="0.48.1 r9760">
  <sodipodi:namedview
     id="base"
     showgrid="true"
     snaptogrid="true"
     inkscape:zoom="0.33060318"
     inkscape:cx="496.06299"
     inkscape:cy="248.03149"
     inkscape:window-width="1280"
     inkscape:window-height="746"
     inkscape:window-x="0"
     inkscape:window-y="24"
     inkscape:window-maximized="1"
     inkscape:current-layer="svg548" />
  <metadata
     id="metadata3032">
    <rdf:RDF>
      <cc:Work
         rdf:about="">
        <dc:format>image/svg+xml</dc:format>
        <dc:type
           rdf:resource="http://purl.org/dc/dcmitype/StillImage" />
      </cc:Work>
    </rdf:RDF>
  </metadata>
  <defs
     id="defs550">
    <sodipodi:namedview
       id="namedview1340" />
    <defs
       id="defs380" />
    <clipPath
       clipPathUnits="userSpaceOnUse"
       id="clipPath5251">
      <rect
         id="rect5253"
         height="496.06335"
         x="0"
         style="fill:#000000;fill-opacity:0.67000002;stroke:none"
         width="496.06335"
         y="-5.5504192e-05" />
    </clipPath>
    <clipPath
       clipPathUnits="userSpaceOnUse"
       id="clipPath15551">
      <rect
         id="rect15553"
         height="512"
         x="0"
         style="fill:#000000;fill-opacity:0.67000002;stroke:none"
         width="682.66669"
         y="0" />
    </clipPath>
  </defs>
  <g
     transform="scale(0.9375,0.9375)"
     id="flag"
     clip-path="url(#clipPath15551)"
     inkscape:label="#g15471">
    <path
       inkscape:connector-curvature="0"
       style="font-size:12px;fill:#0000d6;fill-opacity:1;fill-rule:evenodd;stroke-width:1pt"
       d="M 6.5515862e-5,507.17242 987.42791,2.0452942e-4 l -987.427844484138,0 0,507.17221547058 z"
       id="path1338"
       sodipodi:nodetypes="cccc" />
    <path
       inkscape:connector-curvature="0"
       style="font-size:12px;fill:#006000;fill-opacity:1;fill-rule:evenodd;stroke-width:1pt"
       d="M 1023.9992,2.1658066e-6 27.172167,511.99968 l 996.827033,0 0,-511.9996778341934 z"
       id="path552"
       sodipodi:nodetypes="cccc" />
    <path
       inkscape:connector-curvature="0"
       style="font-size:12px;fill:#ffcc00;fill-rule:evenodd;stroke-width:1pt"
       d="m 1023.9982,5.7287332e-5 -54.85754,0 L 0,485.35566 0,512 54.857075,512 1023.9982,27.596444 l 0,-27.596386712668 z"
       id="path558"
       sodipodi:nodetypes="ccccccc" />
    <polygon
       points="533.785,256.897 555.613,324.281 626.445,324.23 569.104,365.812 591.041,433.161 591.041,433.161 533.774,391.476 476.501,433.151 498.449,365.806 441.115,324.214 511.946,324.278 "
       style="font-size:12px;fill:#ffffff;fill-opacity:1;fill-rule:evenodd;stroke-width:1pt"
       id="polygon1350"
       transform="matrix(0.54313887,0,0,0.51114915,-218.51949,-122.1912)" />
    <polygon
       points="533.785,256.897 555.613,324.281 626.445,324.23 569.104,365.812 591.041,433.161 591.041,433.161 533.774,391.476 476.501,433.151 498.449,365.806 441.115,324.214 511.946,324.278 "
       style="font-size:12px;fill:#ffffff;fill-opacity:1;fill-rule:evenodd;stroke-width:1pt"
       id="polygon1351"
       transform="matrix(0.54313887,0,0,0.51114915,-27.377839,-122.1912)" />
    <polygon
       points="533.785,256.897 555.613,324.281 626.445,324.23 569.104,365.812 591.041,433.161 591.041,433.161 533.774,391.476 476.501,433.151 498.449,365.806 441.115,324.214 511.946,324.278 "
       style="font-size:12px;fill:#ffffff;fill-opacity:1;fill-rule:evenodd;stroke-width:1pt"
       id="polygon1352"
       transform="matrix(0.54313887,0,0,0.51114915,-27.377849,22.289401)" />
    <polygon
       points="533.785,256.897 555.613,324.281 626.445,324.23 569.104,365.812 591.041,433.161 591.041,433.161 533.774,391.476 476.501,433.151 498.449,365.806 441.115,324.214 511.946,324.278 "
       style="font-size:12px;fill:#ffffff;fill-opacity:1;fill-rule:evenodd;stroke-width:1pt"
       id="polygon1353"
       transform="matrix(0.54313887,0,0,0.51114915,-122.38653,-49.107568)" />
    <polygon
       points="533.785,256.897 555.613,324.281 626.445,324.23 569.104,365.812 591.041,433.161 591.041,433.161 533.774,391.476 476.501,433.151 498.449,365.806 441.115,324.214 511.946,324.278 "
       style="font-size:12px;fill:#ffffff;fill-opacity:1;fill-rule:evenodd;stroke-width:1pt"
       id="polygon1354"
       transform="matrix(0.54313887,0,0,0.51114915,-218.51949,22.289401)" />
  </g>
</svg>
