<?xml version="1.0" encoding="UTF-8" standalone="no"?>
<!-- Created with Sodipodi ("http://www.sodipodi.com/") -->

<svg
   xmlns:dc="http://purl.org/dc/elements/1.1/"
   xmlns:cc="http://creativecommons.org/ns#"
   xmlns:rdf="http://www.w3.org/1999/02/22-rdf-syntax-ns#"
   xmlns:svg="http://www.w3.org/2000/svg"
   xmlns="http://www.w3.org/2000/svg"
   xmlns:sodipodi="http://sodipodi.sourceforge.net/DTD/sodipodi-0.dtd"
   xmlns:inkscape="http://www.inkscape.org/namespaces/inkscape"
   version="1"
   x="0"
   y="0"
   width="640"
   height="480"
   id="svg378"
   inkscape:version="0.48.1 r9760"
   sodipodi:docname="sg.svg">
  <sodipodi:namedview
     pagecolor="#ffffff"
     bordercolor="#666666"
     borderopacity="1"
     objecttolerance="10"
     gridtolerance="10"
     guidetolerance="10"
     inkscape:pageopacity="0"
     inkscape:pageshadow="2"
     inkscape:window-width="1280"
     inkscape:window-height="746"
     id="namedview3077"
     showgrid="false"
     inkscape:zoom="0.4021669"
     inkscape:cx="215.70571"
     inkscape:cy="354.33051"
     inkscape:window-x="0"
     inkscape:window-y="24"
     inkscape:window-maximized="1"
     inkscape:current-layer="svg378" />
  <metadata
     id="metadata3079">
    <rdf:RDF>
      <cc:Work
         rdf:about="">
        <dc:format>image/svg+xml</dc:format>
        <dc:type
           rdf:resource="http://purl.org/dc/dcmitype/StillImage" />
      </cc:Work>
    </rdf:RDF>
  </metadata>
  <defs
     id="defs380">
    <clipPath
       clipPathUnits="userSpaceOnUse"
       id="clipPath5047">
      <rect
         id="rect5049"
         height="708.66101"
         x="27.682072"
         style="fill:#000000;fill-opacity:0.67000002;stroke:none"
         width="708.66101"
         y="-3.3378826e-06" />
    </clipPath>
    <clipPath
       clipPathUnits="userSpaceOnUse"
       id="clipPath15251">
      <rect
         id="rect15253"
         height="480"
         x="0"
         style="fill:#000000;fill-opacity:0.67000002;stroke:none"
         width="640"
         y="0" />
    </clipPath>
  </defs>
  <g
     id="flag"
     clip-path="url(#clipPath15251)"
     inkscape:label="#g15240">
    <g
       id="g15168"
       transform="matrix(0.9375,0,0,0.9375,-1.249485,-2.2608605e-6)">
      <rect
         id="rect149"
         style="font-size:12px;fill:#ffffff;fill-rule:evenodd;stroke-width:1pt"
         y="2.4115845e-06"
         x="-20"
         height="512"
         width="767.9989" />
      <rect
         id="rect148"
         style="font-size:12px;fill:#df0000;fill-rule:evenodd;stroke-width:1pt"
         y="2.4115845e-06"
         x="-20"
         height="256.00037"
         width="767.9989" />
      <path
         id="path141"
         style="font-size:12px;fill:#ffffff;fill-rule:evenodd;stroke-width:0.52436799"
         d="M 157.11988,42.90891 C 121.66068,51.038863 95.313271,77.294512 87.863873,112.99228 77.742724,161.4906 109.33423,208.9765 157.92584,219.11294 108.83261,233.10943 58.101455,204.88859 44.233432,156.24804 30.366938,107.60902 58.587784,56.87787 107.22833,43.009847 c 17.07504,-4.869408 32.79509,-4.899994 49.89155,-0.100937 z"
         inkscape:connector-curvature="0" />
      <polygon
         id="polygon142"
         style="font-size:12px;fill:#ffffff;fill-rule:evenodd;stroke-width:0.52436799"
         transform="matrix(1.3251249,0,0,1.3251249,-204.32797,-574.78575)"
         points="262.249,522.281 266.186,534.45 266.186,534.45 255.778,527.018 245.421,534.523 249.273,522.327 238.935,514.796 251.725,514.691 255.692,502.532 259.744,514.663 272.534,514.679 " />
      <polygon
         id="polygon144"
         style="font-size:12px;fill:#ffffff;fill-rule:evenodd;stroke-width:0.52436799"
         transform="matrix(1.3251249,0,0,1.3251249,-185.59816,-519.25595)"
         points="262.249,522.281 266.186,534.45 266.186,534.45 255.778,527.018 245.421,534.523 249.273,522.327 238.935,514.796 251.725,514.691 255.692,502.532 259.744,514.663 272.534,514.679 " />
      <polygon
         id="polygon145"
         style="font-size:12px;fill:#ffffff;fill-rule:evenodd;stroke-width:0.52436799"
         transform="matrix(1.3251249,0,0,1.3251249,-123.27623,-519.66415)"
         points="262.249,522.281 266.186,534.45 266.186,534.45 255.778,527.018 245.421,534.523 249.273,522.327 238.935,514.796 251.725,514.691 255.692,502.532 259.744,514.663 272.534,514.679 " />
      <polygon
         id="polygon146"
         style="font-size:12px;fill:#ffffff;fill-rule:evenodd;stroke-width:0.52436799"
         transform="matrix(1.3251249,0,0,1.3251249,-104.69309,-574.74168)"
         points="262.249,522.281 266.186,534.45 266.186,534.45 255.778,527.018 245.421,534.523 249.273,522.327 238.935,514.796 251.725,514.691 255.692,502.532 259.744,514.663 272.534,514.679 " />
      <polygon
         id="polygon147"
         style="font-size:12px;fill:#ffffff;fill-rule:evenodd;stroke-width:0.52436799"
         transform="matrix(1.3251249,0,0,1.3251249,-154.03044,-611.2823)"
         points="262.249,522.281 266.186,534.45 266.186,534.45 255.778,527.018 245.421,534.523 249.273,522.327 238.935,514.796 251.725,514.691 255.692,502.532 259.744,514.663 272.534,514.679 " />
    </g>
  </g>
</svg>
