<?xml version="1.0" encoding="UTF-8" standalone="no"?>
<!-- Created with Sodipodi ("http://www.sodipodi.com/") -->

<svg
   xmlns:dc="http://purl.org/dc/elements/1.1/"
   xmlns:cc="http://creativecommons.org/ns#"
   xmlns:rdf="http://www.w3.org/1999/02/22-rdf-syntax-ns#"
   xmlns:svg="http://www.w3.org/2000/svg"
   xmlns="http://www.w3.org/2000/svg"
   xmlns:sodipodi="http://sodipodi.sourceforge.net/DTD/sodipodi-0.dtd"
   xmlns:inkscape="http://www.inkscape.org/namespaces/inkscape"
   version="1"
   x="0.00000000"
   y="0.00000000"
   width="640"
   height="480"
   id="svg378"
   sodipodi:version="0.32"
   sodipodi:docname="sy.svg"
   inkscape:version="0.48.1 r9760">
  <sodipodi:namedview
     id="base"
     showgrid="false"
     inkscape:zoom="0.98242188"
     inkscape:cx="256"
     inkscape:cy="256"
     inkscape:window-width="1280"
     inkscape:window-height="746"
     inkscape:window-x="0"
     inkscape:window-y="24"
     inkscape:window-maximized="1"
     inkscape:current-layer="svg378"
     pagecolor="#ffffff"
     inkscape:pageopacity="1" />
  <metadata
     id="metadata3619">
    <rdf:RDF>
      <cc:Work
         rdf:about="">
        <dc:format>image/svg+xml</dc:format>
        <dc:type
           rdf:resource="http://purl.org/dc/dcmitype/StillImage" />
      </cc:Work>
    </rdf:RDF>
  </metadata>
  <defs
     id="defs380">
    <clipPath
       id="clipPath3830"
       clipPathUnits="userSpaceOnUse">
      <rect
         y="0"
         width="512"
         style="fill:#000000;fill-opacity:0.67000002;stroke:none"
         x="0"
         height="512"
         id="rect3832" />
    </clipPath>
  </defs>
  <g
     id="flag"
     inkscape:label="#g5001">
    <rect
       width="640"
       height="479.99997"
       rx="0"
       ry="0"
       x="-2.1606288e-08"
       y="1.0548857e-06"
       style="font-size:12px;fill:#ffffff;fill-opacity:1;fill-rule:evenodd;stroke:none"
       id="rect171" />
    <rect
       width="479.99997"
       height="159.29897"
       rx="0"
       ry="0"
       x="-3.4570047e-07"
       y="320.70105"
       style="font-size:12px;fill:#ffffff;fill-opacity:1;fill-rule:evenodd;stroke:none"
       id="rect256" />
    <rect
       width="479.99997"
       height="159.29897"
       x="-3.4570047e-07"
       y="3.3732922e-05"
       style="font-size:12px;fill:#ffffff;fill-opacity:1;fill-rule:evenodd;stroke:none"
       id="rect255" />
    <path
       inkscape:connector-curvature="0"
       d="m 201.90108,280.99682 -28.82153,-20.86658 -28.6803,21.07154 10.66685,-34.2423 -28.6277,-21.14455 35.4177,-0.2948 10.98531,-34.13842 11.22067,34.05981 35.4177,0.0449 -28.48092,21.34387 10.90222,34.1665 z"
       style="font-size:12px;fill:#ffffff;fill-opacity:1;fill-rule:evenodd;stroke:none"
       id="path205" />
    <path
       inkscape:connector-curvature="0"
       d="m 509.53979,280.99607 -28.82153,-20.86658 -28.68031,21.07154 10.66685,-34.2423 -28.62769,-21.14455 35.4177,-0.2948 10.98531,-34.13842 11.22067,34.05981 35.4177,0.0449 -28.48092,21.34387 10.90222,34.1665 z"
       style="font-size:12px;fill:#ffffff;fill-opacity:1;fill-rule:evenodd;stroke:none"
       id="path583" />
    <rect
       id="rect7524"
       style="font-size:12px;fill:#000000;fill-opacity:1;fill-rule:evenodd;stroke-width:1pt"
       y="320.70105"
       x="-3.4570047e-07"
       ry="0"
       rx="0"
       height="159.29897"
       width="640" />
    <rect
       id="rect7526"
       style="font-size:12px;fill:#ff0000;fill-opacity:1;fill-rule:evenodd;stroke-width:1pt"
       y="3.3732922e-05"
       x="-3.4570047e-07"
       height="159.29897"
       width="640" />
    <path
       id="path7528"
       style="font-size:12px;fill:#009900;fill-opacity:1;fill-rule:evenodd;stroke-width:0.112872"
       d="m 201.90108,280.99682 -28.82153,-20.86658 -28.6803,21.07154 10.66685,-34.2423 -28.6277,-21.14455 35.4177,-0.2948 10.98531,-34.13842 11.22067,34.05981 35.4177,0.0449 -28.48092,21.34387 10.90222,34.1665 z"
       inkscape:connector-curvature="0" />
    <path
       id="path7530"
       style="font-size:12px;fill:#009900;fill-opacity:1;fill-rule:evenodd;stroke-width:0.112872"
       d="m 509.53979,280.99607 -28.82153,-20.86658 -28.68031,21.07154 10.66685,-34.2423 -28.62769,-21.14455 35.4177,-0.2948 10.98531,-34.13842 11.22067,34.05981 35.4177,0.0449 -28.48092,21.34387 10.90222,34.1665 z"
       inkscape:connector-curvature="0" />
  </g>
</svg>
