<?xml version="1.0" encoding="UTF-8" standalone="no"?>
<!-- Created with Sodipodi ("http://www.sodipodi.com/") -->

<svg
   xmlns:dc="http://purl.org/dc/elements/1.1/"
   xmlns:cc="http://creativecommons.org/ns#"
   xmlns:rdf="http://www.w3.org/1999/02/22-rdf-syntax-ns#"
   xmlns:svg="http://www.w3.org/2000/svg"
   xmlns="http://www.w3.org/2000/svg"
   xmlns:sodipodi="http://sodipodi.sourceforge.net/DTD/sodipodi-0.dtd"
   xmlns:inkscape="http://www.inkscape.org/namespaces/inkscape"
   id="svg3446"
   sodipodi:version="0.32"
   width="640"
   height="480"
   version="1.1"
   inkscape:version="0.48.1 r9760"
   sodipodi:docname="tj.svg">
  <sodipodi:namedview
     id="base"
     showgrid="false"
     inkscape:zoom="0.33060318"
     inkscape:cx="111.91665"
     inkscape:cy="248.03149"
     inkscape:window-width="1280"
     inkscape:window-height="746"
     inkscape:window-x="0"
     inkscape:window-y="24"
     inkscape:window-maximized="1"
     inkscape:current-layer="svg3446" />
  <metadata
     id="metadata3750">
    <rdf:RDF>
      <cc:Work
         rdf:about="">
        <dc:format>image/svg+xml</dc:format>
        <dc:type
           rdf:resource="http://purl.org/dc/dcmitype/StillImage" />
      </cc:Work>
    </rdf:RDF>
  </metadata>
  <defs
     id="defs3448">
    <clipPath
       clipPathUnits="userSpaceOnUse"
       id="clipPath7106">
      <rect
         id="rect7108"
         height="496.75943"
         x="248.37971"
         style="fill:#000000;fill-opacity:0.67000002;stroke:none"
         width="496.75943"
         y="-2.1550737e-05" />
    </clipPath>
    <clipPath
       clipPathUnits="userSpaceOnUse"
       id="clipPath7362">
      <rect
         id="rect7364"
         height="511.99997"
         x="-85.647552"
         style="fill:#000000;fill-opacity:0.67000002;stroke:none"
         width="682.66663"
         y="2.3337125e-05" />
    </clipPath>
  </defs>
  <g
     transform="matrix(0.93750006,0,0,0.93750006,80.294584,-2.1878555e-5)"
     id="flag"
     clip-path="url(#clipPath7362)"
     inkscape:label="#g7240">
    <rect
       style="font-size:12px;fill:#ffffff;fill-opacity:1;fill-rule:evenodd;stroke-width:1pt"
       id="rect3450"
       width="1023.3715"
       height="511.99997"
       x="-256"
       y="2.2211914e-05" />
    <rect
       style="font-size:12px;fill:#239f40;fill-opacity:1;fill-rule:evenodd;stroke-width:1pt"
       id="rect3449"
       width="1022.5963"
       height="139.12318"
       x="-256"
       y="372.43124" />
    <rect
       style="font-size:12px;fill:#cd1738;fill-opacity:1;fill-rule:evenodd;stroke-width:1pt"
       id="rect3452"
       width="1022.5963"
       height="139.12318"
       x="-256"
       y="2.2211914e-05" />
    <polygon
       d="m 391.56052,256.53049 3.57095,11.242 11.56027,-0.24853 -9.58829,6.87015 3.80868,10.91768 -9.49685,-6.99602 -9.20637,6.99602 3.71892,-11.19393 -9.49854,-6.59389 11.79527,0.0778 z"
       inkscape:randomized="0"
       inkscape:rounded="0"
       inkscape:flatsided="false"
       sodipodi:type="star"
       style="font-size:12px;fill:#ffff00;fill-opacity:1;fill-rule:evenodd;stroke:none"
       id="polygon3940"
       sodipodi:sides="5"
       sodipodi:cx="391.56052"
       sodipodi:cy="272.4404"
       sodipodi:r1="15.909912"
       sodipodi:r2="5.8771653"
       sodipodi:arg1="-1.5707964"
       sodipodi:arg2="-0.91776359"
       points="391.561,256.53 395.131,267.772 406.692,267.524 397.103,274.394 400.912,285.312 391.415,278.316 382.209,285.312 385.928,274.118 376.429,267.524 388.225,267.602 391.561,256.53 "
       transform="matrix(1.03068,0,0,1.0781593,-243.70151,-64.33457)" />
    <polygon
       d="m 391.56052,256.53049 3.57095,11.242 11.56027,-0.24853 -9.58829,6.87015 3.80868,10.91768 -9.49685,-6.99602 -9.20637,6.99602 3.71892,-11.19393 -9.49854,-6.59389 11.79527,0.0778 z"
       inkscape:randomized="0"
       inkscape:rounded="0"
       inkscape:flatsided="false"
       sodipodi:type="star"
       style="font-size:12px;fill:#ffff00;fill-opacity:1;fill-rule:evenodd;stroke:none"
       id="polygon3941"
       sodipodi:sides="5"
       sodipodi:cx="391.56052"
       sodipodi:cy="272.4404"
       sodipodi:r1="15.909912"
       sodipodi:r2="5.8771653"
       sodipodi:arg1="-1.5707964"
       sodipodi:arg2="-0.91776359"
       points="391.561,256.53 395.131,267.772 406.692,267.524 397.103,274.394 400.912,285.312 391.415,278.316 382.209,285.312 385.928,274.118 376.429,267.524 388.225,267.602 391.561,256.53 "
       transform="matrix(1.03068,0,0,1.0781593,-255.54454,-12.407675)" />
    <polygon
       d="m 391.56052,256.53049 3.57095,11.242 11.56027,-0.24853 -9.58829,6.87015 3.80868,10.91768 -9.49685,-6.99602 -9.20637,6.99602 3.71892,-11.19393 -9.49854,-6.59389 11.79527,0.0778 z"
       inkscape:randomized="0"
       inkscape:rounded="0"
       inkscape:flatsided="false"
       sodipodi:type="star"
       style="font-size:12px;fill:#ffff00;fill-opacity:1;fill-rule:evenodd;stroke:none"
       id="polygon3942"
       sodipodi:sides="5"
       sodipodi:cx="391.56052"
       sodipodi:cy="272.4404"
       sodipodi:r1="15.909912"
       sodipodi:r2="5.8771653"
       sodipodi:arg1="-1.5707964"
       sodipodi:arg2="-0.91776359"
       points="391.561,256.53 395.131,267.772 406.692,267.524 397.103,274.394 400.912,285.312 391.415,278.316 382.209,285.312 385.928,274.118 376.429,267.524 388.225,267.602 391.561,256.53 "
       transform="matrix(1.03068,0,0,1.0781593,-203.61743,-106.69597)" />
    <polygon
       d="m 391.56052,256.53049 3.57095,11.242 11.56027,-0.24853 -9.58829,6.87015 3.80868,10.91768 -9.49685,-6.99602 -9.20637,6.99602 3.71892,-11.19393 -9.49854,-6.59389 11.79527,0.0778 z"
       inkscape:randomized="0"
       inkscape:rounded="0"
       inkscape:flatsided="false"
       sodipodi:type="star"
       style="font-size:12px;fill:#ffff00;fill-opacity:1;fill-rule:evenodd;stroke:none"
       id="polygon3943"
       sodipodi:sides="5"
       sodipodi:cx="391.56052"
       sodipodi:cy="272.4404"
       sodipodi:r1="15.909912"
       sodipodi:r2="5.8771653"
       sodipodi:arg1="-1.5707964"
       sodipodi:arg2="-0.91776359"
       points="391.561,256.53 395.131,267.772 406.692,267.524 397.103,274.394 400.912,285.312 391.415,278.316 382.209,285.312 385.928,274.118 376.429,267.524 388.225,267.602 391.561,256.53 "
       transform="matrix(1.03068,0,0,1.0781593,-149.64052,-120.81649)" />
    <polygon
       d="m 391.56052,256.53049 3.57095,11.242 11.56027,-0.24853 -9.58829,6.87015 3.80868,10.91768 -9.49685,-6.99602 -9.20637,6.99602 3.71892,-11.19393 -9.49854,-6.59389 11.79527,0.0778 z"
       inkscape:randomized="0"
       inkscape:rounded="0"
       inkscape:flatsided="false"
       sodipodi:type="star"
       style="font-size:12px;fill:#ffff00;fill-opacity:1;fill-rule:evenodd;stroke:none"
       id="polygon3944"
       sodipodi:sides="5"
       sodipodi:cx="391.56052"
       sodipodi:cy="272.4404"
       sodipodi:r1="15.909912"
       sodipodi:r2="5.8771653"
       sodipodi:arg1="-1.5707964"
       sodipodi:arg2="-0.91776359"
       points="391.561,256.53 395.131,267.772 406.692,267.524 397.103,274.394 400.912,285.312 391.415,278.316 382.209,285.312 385.928,274.118 376.429,267.524 388.225,267.602 391.561,256.53 "
       transform="matrix(1.03068,0,0,1.0781593,-95.208354,-106.69607)" />
    <polygon
       d="m 391.56052,256.53049 3.57095,11.242 11.56027,-0.24853 -9.58829,6.87015 3.80868,10.91768 -9.49685,-6.99602 -9.20637,6.99602 3.71892,-11.19393 -9.49854,-6.59389 11.79527,0.0778 z"
       inkscape:randomized="0"
       inkscape:rounded="0"
       inkscape:flatsided="false"
       sodipodi:type="star"
       style="font-size:12px;fill:#ffff00;fill-opacity:1;fill-rule:evenodd;stroke:none"
       id="polygon3945"
       sodipodi:sides="5"
       sodipodi:cx="391.56052"
       sodipodi:cy="272.4404"
       sodipodi:r1="15.909912"
       sodipodi:r2="5.8771653"
       sodipodi:arg1="-1.5707964"
       sodipodi:arg2="-0.91776359"
       points="391.561,256.53 395.131,267.772 406.692,267.524 397.103,274.394 400.912,285.312 391.415,278.316 382.209,285.312 385.928,274.118 376.429,267.524 388.225,267.602 391.561,256.53 "
       transform="matrix(1.03068,0,0,1.0781593,-55.124488,-64.106924)" />
    <polygon
       d="m 391.56052,256.53049 3.57095,11.242 11.56027,-0.24853 -9.58829,6.87015 3.80868,10.91768 -9.49685,-6.99602 -9.20637,6.99602 3.71892,-11.19393 -9.49854,-6.59389 11.79527,0.0778 z"
       inkscape:randomized="0"
       inkscape:rounded="0"
       inkscape:flatsided="false"
       sodipodi:type="star"
       style="font-size:12px;fill:#ffff00;fill-opacity:1;fill-rule:evenodd;stroke:none"
       id="polygon3946"
       sodipodi:sides="5"
       sodipodi:cx="391.56052"
       sodipodi:cy="272.4404"
       sodipodi:r1="15.909912"
       sodipodi:r2="5.8771653"
       sodipodi:arg1="-1.5707964"
       sodipodi:arg2="-0.91776359"
       points="391.561,256.53 395.131,267.772 406.692,267.524 397.103,274.394 400.912,285.312 391.415,278.316 382.209,285.312 385.928,274.118 376.429,267.524 388.225,267.602 391.561,256.53 "
       transform="matrix(1.03068,0,0,1.0781593,-43.509239,-12.407798)" />
    <path
       sodipodi:type="arc"
       style="fill:#ffff00;fill-opacity:1;fill-rule:evenodd;stroke:none"
       id="path3952"
       d="m 516.09489,230.63272 c 0,9.25511 -9.33908,16.75785 -20.85942,16.75785 -11.52034,0 -20.85942,-7.50274 -20.85942,-16.75785 0,-9.2551 9.33908,-16.75785 20.85942,-16.75785 11.52034,0 20.85942,7.50275 20.85942,16.75785 z"
       sodipodi:cx="495.23547"
       sodipodi:cy="230.63272"
       sodipodi:rx="20.859421"
       sodipodi:ry="16.757851"
       transform="matrix(0.99014748,0,0,0.92977437,-236.28933,21.420119)" />
    <rect
       style="font-size:12px;fill:#ffff00;fill-opacity:1;fill-rule:evenodd;stroke:none"
       id="rect3953"
       width="11.796489"
       height="54.916077"
       x="248.10873"
       y="246.84749" />
    <path
       inkscape:connector-curvature="0"
       style="font-size:12px;fill:#ffff00;fill-opacity:1;fill-rule:evenodd;stroke:none"
       d="m 357.57926,297.62433 c -5.13381,10.89429 -12.04246,14.76037 -23.31913,14.45838 -19.73546,0.46793 -24.19521,-14.02755 -26.76779,-20.42705 -6.97564,9.19367 -10.94067,12.84846 -22.52036,12.62687 -16.49809,0.36898 -24.82702,-9.02155 -30.97709,-26.77604 -6.15006,17.64112 -14.47899,27.03164 -30.97708,26.66266 -11.57969,0.2216 -15.54472,-3.43319 -22.52036,-12.62686 -2.57258,6.39949 -7.03233,20.89498 -26.76779,20.42705 -11.27667,0.30199 -18.18532,-3.56409 -22.80689,-14.60989 5.36469,15.42619 10.67888,24.05813 27.15223,24.59615 14.92013,0.17933 21.75251,-8.46189 24.98575,-14.37181 10.74896,5.70997 11.85385,6.97771 27.09348,6.62006 11.37562,-0.36589 17.91013,-7.79812 23.79737,-14.86962 5.88725,7.0715 12.42176,14.50373 23.79738,14.86962 15.23963,0.35765 16.34452,-0.91009 27.09348,-6.62006 3.23324,5.90992 10.06562,14.55114 24.98575,14.37181 16.47335,-0.53802 21.78754,-9.16996 27.75105,-24.33127 z"
       id="path4004"
       sodipodi:nodetypes="ccccccccccccccccc" />
    <path
       inkscape:connector-curvature="0"
       style="font-size:12px;fill:#ffff00;fill-opacity:1;fill-rule:evenodd;stroke:none"
       d="m 204.17182,313.51639 5.38531,7.46315 10.32638,-0.30302 -7.96922,9.03082 -15.6014,0.39887 -4.88027,-6.53657 9.01123,-1.45635 3.78363,-8.57526"
       id="path4048"
       sodipodi:nodetypes="cccccccc" />
    <path
       inkscape:connector-curvature="0"
       style="font-size:12px;fill:#ffff00;fill-opacity:1;fill-rule:evenodd;stroke:none"
       d="m 303.61946,313.51637 -5.38531,7.46316 -10.32638,-0.30302 7.96922,9.03081 15.6014,0.39888 4.88027,-6.53658 -9.01123,-1.45635 -3.78363,-8.57525"
       id="path4049"
       sodipodi:nodetypes="cccccccc" />
    <path
       inkscape:connector-curvature="0"
       style="fill:#ffff00;fill-opacity:1;fill-rule:evenodd;stroke:none"
       d="m 241.02172,318.31111 c 0,-0.0402 7.08593,0.0402 7.08593,0.0402 l 5.95836,-4.75041 5.81716,4.69063 7.02614,0.101 -6.32116,9.34003 -13.28649,0 -6.27994,-9.42145 z"
       id="path4053"
       sodipodi:nodetypes="cccccccc" />
    <path
       inkscape:connector-curvature="0"
       style="font-size:12px;fill:#ffff00;fill-opacity:1;fill-rule:evenodd;stroke:none"
       d="m 330.66203,351.57528 c -27.55111,-5.68833 -45.99101,-8.48662 -76.696,-8.48662 -30.70498,0 -49.14488,2.79829 -76.5218,8.41859 l -0.0381,-11.87858 c 27.41506,-5.67184 45.85496,-8.47116 76.55994,-8.47116 30.70499,0 49.14489,2.79932 76.55995,8.47116 l 0.13605,11.94661 z"
       id="path4100"
       sodipodi:nodetypes="ccccccc" />
    <path
       transform="matrix(1.03068,0,0,1.03068,-256,2.2211914e-5)"
       sodipodi:type="arc"
       style="fill:#ffffff;fill-opacity:1;fill-rule:evenodd;stroke:none"
       id="path4102"
       d="m 505.31268,228.8754 c 0,3.27919 -4.68702,5.9375 -10.46875,5.9375 -5.78173,0 -10.46875,-2.65831 -10.46875,-5.9375 0,-3.27919 4.68702,-5.9375 10.46875,-5.9375 5.78173,0 10.46875,2.65831 10.46875,5.9375 z"
       sodipodi:cx="494.84393"
       sodipodi:cy="228.8754"
       sodipodi:rx="10.46875"
       sodipodi:ry="5.9375" />
  </g>
</svg>
