<?xml version="1.0" encoding="UTF-8" standalone="no"?>
<!-- Created with Sodipodi ("http://www.sodipodi.com/") -->

<svg
   xmlns:dc="http://purl.org/dc/elements/1.1/"
   xmlns:cc="http://creativecommons.org/ns#"
   xmlns:rdf="http://www.w3.org/1999/02/22-rdf-syntax-ns#"
   xmlns:svg="http://www.w3.org/2000/svg"
   xmlns="http://www.w3.org/2000/svg"
   xmlns:sodipodi="http://sodipodi.sourceforge.net/DTD/sodipodi-0.dtd"
   xmlns:inkscape="http://www.inkscape.org/namespaces/inkscape"
   id="svg1"
   sodipodi:version="0.33pre"
   width="640"
   height="480"
   sodipodi:docname="tk.svg"
   version="1.1"
   inkscape:version="0.48.1 r9760">
  <sodipodi:namedview
     id="base"
     showgrid="false"
     inkscape:zoom="0.328"
     inkscape:cx="112.80488"
     inkscape:cy="250"
     inkscape:window-width="1280"
     inkscape:window-height="746"
     inkscape:window-x="0"
     inkscape:window-y="24"
     inkscape:window-maximized="1"
     inkscape:current-layer="svg1" />
  <metadata
     id="metadata3772">
    <rdf:RDF>
      <cc:Work
         rdf:about="">
        <dc:format>image/svg+xml</dc:format>
        <dc:type
           rdf:resource="http://purl.org/dc/dcmitype/StillImage" />
      </cc:Work>
    </rdf:RDF>
  </metadata>
  <defs
     id="defs3">
    <clipPath
       clipPathUnits="userSpaceOnUse"
       id="clipPath6050">
      <rect
         id="rect6052"
         height="512"
         x="0"
         style="fill:#000000;fill-opacity:0.67000002;stroke:none"
         width="512"
         y="0" />
    </clipPath>
    <clipPath
       clipPathUnits="userSpaceOnUse"
       id="clipPath7218">
      <rect
         id="rect7220"
         height="480"
         x="0"
         style="fill:#000000;fill-opacity:0.67000002;stroke:none"
         width="640"
         y="0" />
    </clipPath>
  </defs>
  <g
     id="flag"
     clip-path="url(#clipPath7218)"
     inkscape:label="#g7147">
    <rect
       height="480"
       width="960"
       y="0"
       x="0"
       id="rect124"
       style="fill:#000066;fill-opacity:1;fill-rule:nonzero;stroke:none" />
    <g
       id="g7141"
       transform="scale(0.66666667,0.66666667)">
      <path
         style="fill:#ffffff;fill-opacity:1;fill-rule:nonzero;stroke:none"
         d="M 0,0 0,26.8328 426.3344,240 480,240 480,213.1672 53.665599,0 0,0 z M 480,0 480,26.8324 53.665599,240 0,240 0,213.1664 426.3344,0 480,0 z"
         id="path146"
         inkscape:connector-curvature="0" />
      <path
         style="font-size:12px;fill:#ffffff;stroke-width:1pt"
         d="m 200,0 0,240 80,0 0,-240 -80,0 z M 0,80 l 0,80 480,0 0,-80 -480,0 z"
         id="path136"
         inkscape:connector-curvature="0" />
      <path
         style="font-size:12px;fill:#cc0000;fill-opacity:1;stroke-width:1pt"
         d="m 0,96 0,48 480,0 0,-48 -480,0 z m 216,-96 0,240 48,0 0,-240 -48,0 z"
         id="path141"
         inkscape:connector-curvature="0" />
      <path
         style="fill:#cc0000;fill-opacity:1;fill-rule:nonzero;stroke:none"
         d="m 0,240 160,-80 35.7768,0 L 35.77712,240 0,240 z M 0,0 160,80 124.2232,80 0,17.88856 0,0 z m 284.2232,80 160,-80 L 480,0 320,80 284.2232,80 z M 480,240 320,160 355.7768,160 480,222.1112 480,240 z"
         id="path150"
         inkscape:connector-curvature="0" />
    </g>
    <g
       transform="matrix(0.88069563,0,0,0.88069563,-192.08696,65.009264)"
       id="g5930">
      <g
         id="g141"
         transform="scale(8.5333333,8.5333333)">
        <path
           style="fill:#ffffff;fill-opacity:1;fill-rule:nonzero;stroke:none"
           d="m 90,7.9949625 0.899187,2.7674125 2.90983,0 -2.354102,1.710356 0.899187,2.767412 L 90,13.529788 l -2.354102,1.710355 0.899187,-2.767412 -2.354102,-1.710356 2.90983,0 z"
           id="path133"
           inkscape:connector-curvature="0" />
        <path
           style="fill:#cc0000;fill-opacity:1;fill-rule:nonzero;stroke:none"
           d="m 90,8.8456133 0.708204,2.1796277 2.291796,0 -1.854102,1.347084 0.708204,2.179627 L 90,13.204868 88.145898,14.551952 88.854102,12.372325 87,11.025241 l 2.291796,0 z"
           id="path132"
           inkscape:connector-curvature="0" />
      </g>
      <g
         id="g132"
         transform="matrix(8.5333333,0,0,8.5333333,-118.30403,119.02654)">
        <path
           style="fill:#ffffff;fill-opacity:1;fill-rule:nonzero;stroke:none"
           d="m 90,7.9949625 0.899187,2.7674125 2.90983,0 -2.354102,1.710356 0.899187,2.767412 L 90,13.529788 l -2.354102,1.710355 0.899187,-2.767412 -2.354102,-1.710356 2.90983,0 z"
           id="path134"
           inkscape:connector-curvature="0" />
        <path
           style="fill:#cc0000;fill-opacity:1;fill-rule:nonzero;stroke:none"
           d="m 90,8.8456133 0.708204,2.1796277 2.291796,0 -1.854102,1.347084 0.708204,2.179627 L 90,13.204868 88.145898,14.551952 88.854102,12.372325 87,11.025241 l 2.291796,0 z"
           id="path135"
           inkscape:connector-curvature="0" />
      </g>
      <g
         id="g139"
         transform="matrix(8.5333333,0,0,8.5333333,101.40345,-14.251325)">
        <path
           style="fill:#ffffff;fill-opacity:1;fill-rule:nonzero;stroke:none"
           d="m 90,20.647738 0.75263,2.316356 2.435561,0 -1.97041,1.431587 0.752629,2.316356 L 90,25.28045 l -1.97041,1.431587 0.752629,-2.316356 -1.97041,-1.431587 2.435561,0 z"
           id="path138"
           inkscape:connector-curvature="0" />
        <path
           style="fill:#cc0000;fill-opacity:1;fill-rule:nonzero;stroke:none"
           d="m 90,21.371344 0.59017,1.816357 1.90983,0 -1.545085,1.12257 0.59017,1.816356 L 90,25.004057 l -1.545085,1.12257 0.59017,-1.816356 -1.545085,-1.12257 1.90983,0 z"
           id="path137"
           inkscape:connector-curvature="0" />
      </g>
      <path
         style="fill:#ffffff;fill-opacity:1;fill-rule:evenodd;stroke:none"
         d="m 768,372.02155 8.43689,25.96607 27.30234,0 -22.08806,16.04791 8.43688,25.96607 L 768,423.95369 l -22.08806,16.04791 8.43688,-25.96607 -22.08805,-16.04791 27.30234,0 z"
         id="path142"
         inkscape:connector-curvature="0" />
      <path
         style="fill:#cc0000;fill-opacity:1;fill-rule:evenodd;stroke:none"
         d="m 768,378.19632 7.05056,21.69941 22.8161,0 -18.45861,13.41097 7.05056,21.6994 L 768,421.59513 l -18.45862,13.41097 7.05057,-21.6994 -18.45862,-13.41097 22.8161,0 z"
         id="path143"
         inkscape:connector-curvature="0" />
    </g>
  </g>
</svg>
