<?xml version="1.0" encoding="UTF-8" standalone="no"?>
<!-- Created with Sodipodi ("http://www.sodipodi.com/") -->

<svg
   xmlns:dc="http://purl.org/dc/elements/1.1/"
   xmlns:cc="http://creativecommons.org/ns#"
   xmlns:rdf="http://www.w3.org/1999/02/22-rdf-syntax-ns#"
   xmlns:svg="http://www.w3.org/2000/svg"
   xmlns="http://www.w3.org/2000/svg"
   xmlns:sodipodi="http://sodipodi.sourceforge.net/DTD/sodipodi-0.dtd"
   xmlns:inkscape="http://www.inkscape.org/namespaces/inkscape"
   version="1"
   x="0"
   y="0"
   width="640"
   height="480"
   id="svg378"
   sodipodi:version="0.33pre"
   sodipodi:docname="tn.svg"
   inkscape:version="0.48.1 r9760">
  <sodipodi:namedview
     id="base"
     showgrid="false"
     inkscape:zoom="0.44080424"
     inkscape:cx="372.04724"
     inkscape:cy="248.03149"
     inkscape:window-width="1280"
     inkscape:window-height="746"
     inkscape:window-x="0"
     inkscape:window-y="24"
     inkscape:window-maximized="1"
     inkscape:current-layer="svg378" />
  <metadata
     id="metadata4083">
    <rdf:RDF>
      <cc:Work
         rdf:about="">
        <dc:format>image/svg+xml</dc:format>
        <dc:type
           rdf:resource="http://purl.org/dc/dcmitype/StillImage" />
      </cc:Work>
    </rdf:RDF>
  </metadata>
  <defs
     id="defs380">
    <clipPath
       clipPathUnits="userSpaceOnUse"
       id="clipPath7035">
      <rect
         id="rect7037"
         height="496.06302"
         x="124.01575"
         style="fill:#000000;fill-opacity:0.67000002;stroke:none"
         width="496.06302"
         y="-0.00026276044" />
    </clipPath>
    <clipPath
       clipPathUnits="userSpaceOnUse"
       id="clipPath5219">
      <rect
         id="rect5221"
         height="512"
         x="-85.333366"
         style="fill:#000000;fill-opacity:0.67000002;stroke:none"
         width="682.66669"
         y="1.4202527e-05" />
    </clipPath>
  </defs>
  <g
     transform="matrix(0.9375,0,0,0.9375,80.000029,-1.3314869e-5)"
     id="flag"
     clip-path="url(#clipPath5219)"
     inkscape:label="#g5167">
    <rect
       width="767.99994"
       height="512"
       x="-128"
       y="1.4202527e-05"
       style="font-size:12px;fill:#e70013;fill-rule:evenodd;stroke-width:1pt"
       id="rect171" />
    <path
       sodipodi:type="arc"
       style="fill:#ffffff;fill-opacity:1;fill-rule:evenodd;stroke:none"
       id="path554"
       d="m 485.96612,255.05542 c 0,67.27975 -54.54102,121.82077 -121.82076,121.82077 -67.27975,0 -121.82077,-54.54102 -121.82077,-121.82077 0,-67.27975 54.54102,-121.82077 121.82077,-121.82077 67.27974,0 121.82076,54.54102 121.82076,121.82077 z"
       sodipodi:cx="364.14536"
       sodipodi:cy="255.05542"
       sodipodi:rx="121.82076"
       sodipodi:ry="121.82077"
       transform="matrix(1.0600222,0,0,1.0600222,-129.32248,-14.590731)" />
    <path
       inkscape:connector-curvature="0"
       style="font-size:12px;fill:#e70013;fill-opacity:1;fill-rule:evenodd;stroke-width:1pt"
       d="m 256.67912,341.4087 c -47.27038,0 -85.63453,-38.36415 -85.63453,-85.63453 0,-47.27142 38.36415,-85.63557 85.63453,-85.63557 11.81786,0 25.26957,2.71862 34.40699,9.42951 -62.6305,2.35738 -78.47158,55.47682 -78.47158,76.8852 0,21.40837 10.12826,69.15353 78.47054,76.20502 -7.77707,5.01304 -22.58809,8.75037 -34.40595,8.75037 z"
       id="path556"
       sodipodi:nodetypes="ccccccc" />
    <polygon
       transform="matrix(1.0321269,0,0,1.0321269,-128,2.7120213e-4)"
       d="m 445.79819,282.71201 -37.6733,-13.74419 -24.9227,31.41718 1.42982,-40.07663 -37.58105,-13.99445 38.55697,-11.02452 1.69633,-40.06623 22.3997,33.26309 38.62944,-10.76784 -24.71319,31.58225 z"
       inkscape:randomized="0"
       inkscape:rounded="0"
       inkscape:flatsided="false"
       sodipodi:type="star"
       style="font-size:12px;fill:#e70013;fill-opacity:1;fill-rule:evenodd;stroke-width:1pt"
       id="polygon559"
       sodipodi:sides="5"
       sodipodi:cx="402.3378"
       sodipodi:cy="248.4705"
       sodipodi:r1="55.328888"
       sodipodi:r2="21.298595"
       sodipodi:arg1="0.66730589"
       sodipodi:arg2="1.2956244"
       points="445.798,282.712 408.125,268.968 383.202,300.385 384.632,260.308 347.051,246.314 385.608,235.289 387.304,195.223 409.704,228.486 448.333,217.718 423.62,249.301 445.798,282.712 " />
  </g>
</svg>
