<?xml version="1.0" encoding="UTF-8" standalone="no"?>
<!-- Created with Sodipodi ("http://www.sodipodi.com/") -->

<svg
   xmlns:dc="http://purl.org/dc/elements/1.1/"
   xmlns:cc="http://creativecommons.org/ns#"
   xmlns:rdf="http://www.w3.org/1999/02/22-rdf-syntax-ns#"
   xmlns:svg="http://www.w3.org/2000/svg"
   xmlns="http://www.w3.org/2000/svg"
   xmlns:xlink="http://www.w3.org/1999/xlink"
   xmlns:sodipodi="http://sodipodi.sourceforge.net/DTD/sodipodi-0.dtd"
   xmlns:inkscape="http://www.inkscape.org/namespaces/inkscape"
   version="1.0"
   x="0"
   y="0"
   width="640"
   height="480"
   id="svg832"
   inkscape:version="0.48.1 r9760"
   sodipodi:docname="uy.svg">
  <sodipodi:namedview
     pagecolor="#ffffff"
     bordercolor="#666666"
     borderopacity="1"
     objecttolerance="10"
     gridtolerance="10"
     guidetolerance="10"
     inkscape:pageopacity="0"
     inkscape:pageshadow="2"
     inkscape:window-width="1280"
     inkscape:window-height="746"
     id="namedview3190"
     showgrid="false"
     inkscape:zoom="0.57452381"
     inkscape:cx="372.04724"
     inkscape:cy="269.78864"
     inkscape:window-x="0"
     inkscape:window-y="24"
     inkscape:window-maximized="1"
     inkscape:current-layer="svg832">
    <inkscape:grid
       type="xygrid"
       id="grid6040" />
  </sodipodi:namedview>
  <metadata
     id="metadata3192">
    <rdf:RDF>
      <cc:Work
         rdf:about="">
        <dc:format>image/svg+xml</dc:format>
        <dc:type
           rdf:resource="http://purl.org/dc/dcmitype/StillImage" />
      </cc:Work>
    </rdf:RDF>
  </metadata>
  <defs
     id="defs834">
    <linearGradient
       id="linearGradient583">
      <stop
         id="stop584"
         offset="0"
         style="stop-color:#faff00;stop-opacity:1;" />
      <stop
         id="stop585"
         offset="1"
         style="stop-color:#f5c402;stop-opacity:1;" />
    </linearGradient>
    <linearGradient
       spreadMethod="pad"
       gradientUnits="objectBoundingBox"
       xlink:href="#linearGradient583"
       id="linearGradient586"
       y2="0.898445"
       x2="0.358209"
       y1="0.070313"
       x1="0.358209" />
    <linearGradient
       gradientTransform="scale(0.72665399,1.3761708)"
       y2="459.27272"
       x2="123.78826"
       y1="360.51649"
       x1="123.78826"
       spreadMethod="pad"
       gradientUnits="userSpaceOnUse"
       id="linearGradient5911"
       xlink:href="#linearGradient583"
       inkscape:collect="always" />
    <linearGradient
       gradientTransform="scale(0.72665399,1.3761708)"
       y2="459.27272"
       x2="123.78826"
       y1="360.51649"
       x1="123.78826"
       spreadMethod="pad"
       gradientUnits="userSpaceOnUse"
       id="linearGradient5913"
       xlink:href="#linearGradient583"
       inkscape:collect="always" />
    <linearGradient
       gradientTransform="scale(0.72665399,1.3761708)"
       y2="459.27272"
       x2="123.78826"
       y1="360.51649"
       x1="123.78826"
       spreadMethod="pad"
       gradientUnits="userSpaceOnUse"
       id="linearGradient5915"
       xlink:href="#linearGradient583"
       inkscape:collect="always" />
    <linearGradient
       gradientTransform="scale(0.72665399,1.3761708)"
       y2="459.27272"
       x2="123.78826"
       y1="360.51649"
       x1="123.78826"
       spreadMethod="pad"
       gradientUnits="userSpaceOnUse"
       id="linearGradient5917"
       xlink:href="#linearGradient583"
       inkscape:collect="always" />
    <linearGradient
       gradientTransform="scale(0.72665399,1.3761708)"
       y2="459.27272"
       x2="123.78826"
       y1="360.51649"
       x1="123.78826"
       spreadMethod="pad"
       gradientUnits="userSpaceOnUse"
       id="linearGradient5919"
       xlink:href="#linearGradient583"
       inkscape:collect="always" />
    <linearGradient
       gradientTransform="scale(0.72665399,1.3761708)"
       y2="459.27272"
       x2="123.78826"
       y1="360.51649"
       x1="123.78826"
       spreadMethod="pad"
       gradientUnits="userSpaceOnUse"
       id="linearGradient5921"
       xlink:href="#linearGradient583"
       inkscape:collect="always" />
    <linearGradient
       gradientTransform="scale(0.72665399,1.3761708)"
       y2="459.27272"
       x2="123.78826"
       y1="360.51649"
       x1="123.78826"
       spreadMethod="pad"
       gradientUnits="userSpaceOnUse"
       id="linearGradient5923"
       xlink:href="#linearGradient583"
       inkscape:collect="always" />
    <linearGradient
       gradientTransform="scale(0.72665399,1.3761708)"
       y2="459.27272"
       x2="123.78826"
       y1="360.51649"
       x1="123.78826"
       spreadMethod="pad"
       gradientUnits="userSpaceOnUse"
       id="linearGradient5925"
       xlink:href="#linearGradient583"
       inkscape:collect="always" />
    <linearGradient
       inkscape:collect="always"
       xlink:href="#linearGradient583"
       id="linearGradient6024"
       gradientUnits="userSpaceOnUse"
       gradientTransform="scale(0.72665399,1.3761708)"
       spreadMethod="pad"
       x1="123.78826"
       y1="360.51649"
       x2="123.78826"
       y2="459.27272" />
    <linearGradient
       inkscape:collect="always"
       xlink:href="#linearGradient583"
       id="linearGradient6026"
       gradientUnits="userSpaceOnUse"
       gradientTransform="scale(0.72665399,1.3761708)"
       spreadMethod="pad"
       x1="123.78826"
       y1="360.51649"
       x2="123.78826"
       y2="459.27272" />
    <linearGradient
       inkscape:collect="always"
       xlink:href="#linearGradient583"
       id="linearGradient6028"
       gradientUnits="userSpaceOnUse"
       gradientTransform="scale(0.72665399,1.3761708)"
       spreadMethod="pad"
       x1="123.78826"
       y1="360.51649"
       x2="123.78826"
       y2="459.27272" />
    <linearGradient
       inkscape:collect="always"
       xlink:href="#linearGradient583"
       id="linearGradient6030"
       gradientUnits="userSpaceOnUse"
       gradientTransform="scale(0.72665399,1.3761708)"
       spreadMethod="pad"
       x1="123.78826"
       y1="360.51649"
       x2="123.78826"
       y2="459.27272" />
    <linearGradient
       inkscape:collect="always"
       xlink:href="#linearGradient583"
       id="linearGradient6032"
       gradientUnits="userSpaceOnUse"
       gradientTransform="scale(0.72665399,1.3761708)"
       spreadMethod="pad"
       x1="123.78826"
       y1="360.51649"
       x2="123.78826"
       y2="459.27272" />
    <linearGradient
       inkscape:collect="always"
       xlink:href="#linearGradient583"
       id="linearGradient6034"
       gradientUnits="userSpaceOnUse"
       gradientTransform="scale(0.72665399,1.3761708)"
       spreadMethod="pad"
       x1="123.78826"
       y1="360.51649"
       x2="123.78826"
       y2="459.27272" />
    <linearGradient
       inkscape:collect="always"
       xlink:href="#linearGradient583"
       id="linearGradient6036"
       gradientUnits="userSpaceOnUse"
       gradientTransform="scale(0.72665399,1.3761708)"
       spreadMethod="pad"
       x1="123.78826"
       y1="360.51649"
       x2="123.78826"
       y2="459.27272" />
    <linearGradient
       inkscape:collect="always"
       xlink:href="#linearGradient583"
       id="linearGradient6038"
       gradientUnits="userSpaceOnUse"
       gradientTransform="scale(0.72665399,1.3761708)"
       spreadMethod="pad"
       x1="123.78826"
       y1="360.51649"
       x2="123.78826"
       y2="459.27272" />
    <clipPath
       clipPathUnits="userSpaceOnUse"
       id="clipPath6042">
      <rect
         id="rect6044"
         height="496.74139"
         x="-0.14304397"
         style="fill:#000000;fill-opacity:0.67000002;stroke:none"
         width="496.74139"
         y="-0.33915803" />
    </clipPath>
    <linearGradient
       y2="459.27272"
       x2="123.78826"
       y1="360.51649"
       x1="123.78826"
       spreadMethod="pad"
       gradientTransform="matrix(0.75069683,-0.02422113,-0.04587109,1.422382,-23.345249,23.518361)"
       gradientUnits="userSpaceOnUse"
       id="linearGradient3600"
       xlink:href="#linearGradient583"
       inkscape:collect="always" />
    <linearGradient
       y2="459.27272"
       x2="123.78826"
       y1="360.51649"
       x1="123.78826"
       spreadMethod="pad"
       gradientTransform="matrix(0.7266621,6.2666568e-4,0.00118681,1.4679001,0.28920049,22.352526)"
       gradientUnits="userSpaceOnUse"
       id="linearGradient3602"
       xlink:href="#linearGradient583"
       inkscape:collect="always" />
    <linearGradient
       y2="459.27272"
       x2="123.78826"
       y1="360.51649"
       x1="123.78826"
       spreadMethod="pad"
       gradientTransform="matrix(0.75139728,0.02421617,0.0458617,1.4210555,20.270368,19.838542)"
       gradientUnits="userSpaceOnUse"
       id="linearGradient3604"
       xlink:href="#linearGradient583"
       inkscape:collect="always" />
    <linearGradient
       y2="459.27272"
       x2="123.78826"
       y1="360.51649"
       x1="123.78826"
       spreadMethod="pad"
       gradientTransform="matrix(0.77509507,-3.4738926e-4,-6.5790177e-4,1.3761755,47.364914,-0.33967163)"
       gradientUnits="userSpaceOnUse"
       id="linearGradient3606"
       xlink:href="#linearGradient583"
       inkscape:collect="always" />
    <linearGradient
       y2="459.27272"
       x2="123.78826"
       y1="360.51649"
       x1="123.78826"
       spreadMethod="pad"
       gradientTransform="matrix(0.75059041,-0.02422011,-0.04586915,1.4225836,48.063556,-48.633197)"
       gradientUnits="userSpaceOnUse"
       id="linearGradient3608"
       xlink:href="#linearGradient583"
       inkscape:collect="always" />
    <linearGradient
       y2="459.27272"
       x2="123.78826"
       y1="360.51649"
       x1="123.78826"
       spreadMethod="pad"
       gradientTransform="matrix(0.75112559,0.0242205,0.0458699,1.42157,-52.02704,-51.493187)"
       gradientUnits="userSpaceOnUse"
       id="linearGradient3610"
       xlink:href="#linearGradient583"
       inkscape:collect="always" />
    <linearGradient
       y2="459.27272"
       x2="123.78826"
       y1="360.51649"
       x1="123.78826"
       spreadMethod="pad"
       gradientTransform="matrix(0.77509667,-2.0839744e-4,-3.9467267e-4,1.3761725,-54.17926,0.23307586)"
       gradientUnits="userSpaceOnUse"
       id="linearGradient3612"
       xlink:href="#linearGradient583"
       inkscape:collect="always" />
    <linearGradient
       y2="459.27272"
       x2="123.78826"
       y1="360.51649"
       x1="123.78826"
       spreadMethod="pad"
       gradientTransform="matrix(0.72665399,0,0,1.4679155,0,-79.06633)"
       gradientUnits="userSpaceOnUse"
       id="linearGradient3614"
       xlink:href="#linearGradient583"
       inkscape:collect="always" />
    <linearGradient
       inkscape:collect="always"
       xlink:href="#linearGradient583"
       id="linearGradient3751"
       gradientUnits="userSpaceOnUse"
       gradientTransform="matrix(0.75069683,-0.02422113,-0.04587109,1.422382,26.393795,-26.589513)"
       spreadMethod="pad"
       x1="123.78826"
       y1="360.51649"
       x2="123.78826"
       y2="459.27272" />
    <linearGradient
       inkscape:collect="always"
       xlink:href="#linearGradient583"
       id="linearGradient3753"
       gradientUnits="userSpaceOnUse"
       gradientTransform="matrix(0.7266621,6.2666568e-4,0.00118681,1.4679001,-0.62419499,-48.244507)"
       spreadMethod="pad"
       x1="123.78826"
       y1="360.51649"
       x2="123.78826"
       y2="459.27272" />
    <linearGradient
       inkscape:collect="always"
       xlink:href="#linearGradient583"
       id="linearGradient3755"
       gradientUnits="userSpaceOnUse"
       gradientTransform="matrix(0.75139728,0.02421617,0.0458617,1.4210555,-30.188028,-29.544924)"
       spreadMethod="pad"
       x1="123.78826"
       y1="360.51649"
       x2="123.78826"
       y2="459.27272" />
    <linearGradient
       inkscape:collect="always"
       xlink:href="#linearGradient583"
       id="linearGradient3757"
       gradientUnits="userSpaceOnUse"
       gradientTransform="matrix(0.77509507,-3.4738926e-4,-6.5790177e-4,1.3761755,-23.23621,0.16663561)"
       spreadMethod="pad"
       x1="123.78826"
       y1="360.51649"
       x2="123.78826"
       y2="459.27272" />
    <linearGradient
       inkscape:collect="always"
       xlink:href="#linearGradient583"
       id="linearGradient3759"
       gradientUnits="userSpaceOnUse"
       gradientTransform="matrix(0.75059041,-0.02422011,-0.04586915,1.4225836,-1.565285,1.5838369)"
       spreadMethod="pad"
       x1="123.78826"
       y1="360.51649"
       x2="123.78826"
       y2="459.27272" />
    <linearGradient
       inkscape:collect="always"
       xlink:href="#linearGradient583"
       id="linearGradient3761"
       gradientUnits="userSpaceOnUse"
       gradientTransform="matrix(0.75112559,0.0242205,0.0458699,1.42157,-1.8464561,-1.82751)"
       spreadMethod="pad"
       x1="123.78826"
       y1="360.51649"
       x2="123.78826"
       y2="459.27272" />
    <linearGradient
       inkscape:collect="always"
       xlink:href="#linearGradient583"
       id="linearGradient3763"
       gradientUnits="userSpaceOnUse"
       gradientTransform="matrix(0.77509667,-2.0839744e-4,-3.9467267e-4,1.3761725,16.422988,-0.07065068)"
       spreadMethod="pad"
       x1="123.78826"
       y1="360.51649"
       x2="123.78826"
       y2="459.27272" />
    <linearGradient
       inkscape:collect="always"
       xlink:href="#linearGradient583"
       id="linearGradient3765"
       gradientUnits="userSpaceOnUse"
       gradientTransform="matrix(0.72665399,0,0,1.4679155,0,-8.4634109)"
       spreadMethod="pad"
       x1="123.78826"
       y1="360.51649"
       x2="123.78826"
       y2="459.27272" />
    <clipPath
       clipPathUnits="userSpaceOnUse"
       id="clipPath3767">
      <rect
         id="rect3769"
         height="511.99997"
         x="0"
         style="fill:#000000;fill-opacity:0.67000002;stroke:none"
         width="640"
         y="1.0964715e-05" />
    </clipPath>
  </defs>
  <g
     transform="matrix(1,0,0,0.93750003,0,-1.0279421e-5)"
     id="flag"
     clip-path="url(#clipPath3767)"
     inkscape:label="#g3567">
    <g
       transform="matrix(0.4834549,0,0,0.4834549,116.34371,-61.375348)"
       style="font-size:12px"
       id="g594">
      <rect
         width="1587.0061"
         height="1059.0439"
         x="-240.6506"
         y="126.95157"
         style="fill:#ffffff;fill-rule:evenodd;stroke-width:1pt"
         id="rect741" />
      <path
         inkscape:connector-curvature="0"
         d="m 101.665,488.822 c 9.641,18.113 21.855,33.027 30.418,58.686 1.846,34.313 -2.07,40.849 4.635,57.059 2.696,5.929 6.544,8.378 7.285,22.123 -1.146,19.675 -9.645,20.899 -18,20.359 -1.5,-6.043 -0.002,-9.946 -10.648,-20.357 -5.765,-6.161 -12.613,-16.348 -16.234,-29.493 -1.1265,-12.074 -1.7577,-27.767 -7.7864,-40.892 -8.6741,-14.17 -9.9698,-21.069 -18.2111,-28.491 -8.486,-9.873 -8.0016,-13.336 -12.6503,-24.094 11.3905,-18.449 22.1873,-20.33 41.1918,-14.9 z"
         transform="matrix(-0.709714,0.70449,-0.70449,-0.709714,390.9567,688.9282)"
         style="fill:url(#linearGradient3751);fill-opacity:0.56078384;fill-rule:evenodd;stroke:#cbaa19;stroke-width:3.22748613"
         id="path593" />
      <path
         inkscape:connector-curvature="0"
         d="m 101.665,488.822 c 9.641,18.113 21.855,33.027 30.418,58.686 1.846,34.313 -2.07,40.849 4.635,57.059 2.696,5.929 6.544,8.378 7.285,22.123 -1.146,19.675 -9.645,20.899 -18,20.359 -1.5,-6.043 -0.002,-9.946 -10.648,-20.357 -5.765,-6.161 -12.613,-16.348 -16.234,-29.493 -1.1265,-12.074 -1.7577,-27.767 -7.7864,-40.892 -8.6741,-14.17 -9.9698,-21.069 -18.2111,-28.491 -8.486,-9.873 -8.0016,-13.336 -12.6503,-24.094 11.3905,-18.449 22.1873,-20.33 41.1918,-14.9 z"
         transform="matrix(-0.999916,-0.01293707,0.01293707,-0.999916,101.58,850.6795)"
         style="fill:url(#linearGradient3753);fill-opacity:0.56078384;fill-rule:evenodd;stroke:#cbaa19;stroke-width:3.22748613"
         id="path591" />
      <path
         inkscape:connector-curvature="0"
         d="m 101.665,488.822 c 9.641,18.113 21.855,33.027 30.418,58.686 1.846,34.313 -2.07,40.849 4.635,57.059 2.696,5.929 6.544,8.378 7.285,22.123 -1.146,19.675 -9.645,20.899 -18,20.359 -1.5,-6.043 -0.002,-9.946 -10.648,-20.357 -5.765,-6.161 -12.613,-16.348 -16.234,-29.493 -1.1265,-12.074 -1.7577,-27.767 -7.7864,-40.892 -8.6741,-14.17 -9.9698,-21.069 -18.2111,-28.491 -8.486,-9.873 -8.0016,-13.336 -12.6503,-24.094 11.3905,-18.449 22.1873,-20.33 41.1918,-14.9 z"
         transform="matrix(-0.699453,-0.714678,0.714678,-0.699453,-212.755,760.5516)"
         style="fill:url(#linearGradient3755);fill-opacity:0.56078384;fill-rule:evenodd;stroke:#cbaa19;stroke-width:3.22748613"
         id="path590" />
      <path
         inkscape:connector-curvature="0"
         d="m 101.665,488.822 c 9.641,18.113 21.855,33.027 30.418,58.686 1.846,34.313 -2.07,40.849 4.635,57.059 2.696,5.929 6.544,8.378 7.285,22.123 -1.146,19.675 -9.645,20.899 -18,20.359 -1.5,-6.043 -0.002,-9.946 -10.648,-20.357 -5.765,-6.161 -12.613,-16.348 -16.234,-29.493 -1.1265,-12.074 -1.7577,-27.767 -7.7864,-40.892 -8.6741,-14.17 -9.9698,-21.069 -18.2111,-28.491 -8.486,-9.873 -8.0016,-13.336 -12.6503,-24.094 11.3905,-18.449 22.1873,-20.33 41.1918,-14.9 z"
         transform="matrix(0.00717119,-0.999974,0.999974,0.00717119,-371.8428,475.5034)"
         style="fill:url(#linearGradient3757);fill-opacity:0.56078384;fill-rule:evenodd;stroke:#cbaa19;stroke-width:3.22748613"
         id="path589" />
      <path
         inkscape:connector-curvature="0"
         d="m 101.665,488.822 c 9.641,18.113 21.855,33.027 30.418,58.686 1.846,34.313 -2.07,40.849 4.635,57.059 2.696,5.929 6.544,8.378 7.285,22.123 -1.146,19.675 -9.645,20.899 -18,20.359 -1.5,-6.043 -0.002,-9.946 -10.648,-20.357 -5.765,-6.161 -12.613,-16.348 -16.234,-29.493 -1.1265,-12.074 -1.7577,-27.767 -7.7864,-40.892 -8.6741,-14.17 -9.9698,-21.069 -18.2111,-28.491 -8.486,-9.873 -8.0016,-13.336 -12.6503,-24.094 11.3905,-18.449 22.1873,-20.33 41.1918,-14.9 z"
         transform="matrix(0.71126,-0.702929,0.702929,0.71126,-283.293,160.3533)"
         style="fill:url(#linearGradient3759);fill-opacity:0.56078384;fill-rule:evenodd;stroke:#cbaa19;stroke-width:3.22748613"
         id="path587" />
      <path
         inkscape:connector-curvature="0"
         d="m 101.665,488.822 c 9.641,18.113 21.855,33.027 30.418,58.686 1.846,34.313 -2.07,40.849 4.635,57.059 2.696,5.929 6.544,8.378 7.285,22.123 -1.146,19.675 -9.645,20.899 -18,20.359 -1.5,-6.043 -0.002,-9.946 -10.648,-20.357 -5.765,-6.161 -12.613,-16.348 -16.234,-29.493 -1.1265,-12.074 -1.7577,-27.767 -7.7864,-40.892 -8.6741,-14.17 -9.9698,-21.069 -18.2111,-28.491 -8.486,-9.873 -8.0016,-13.336 -12.6503,-24.094 11.3905,-18.449 22.1873,-20.33 41.1918,-14.9 z"
         transform="matrix(0.703451,0.710744,-0.710744,0.703451,317.9518,87.98238)"
         style="fill:url(#linearGradient3761);fill-opacity:0.56078384;fill-rule:evenodd;stroke:#cbaa19;stroke-width:3.22748613"
         id="path595" />
      <path
         inkscape:connector-curvature="0"
         d="m 101.665,488.822 c 9.641,18.113 21.855,33.027 30.418,58.686 1.846,34.313 -2.07,40.849 4.635,57.059 2.696,5.929 6.544,8.378 7.285,22.123 -1.146,19.675 -9.645,20.899 -18,20.359 -1.5,-6.043 -0.002,-9.946 -10.648,-20.357 -5.765,-6.161 -12.613,-16.348 -16.234,-29.493 -1.1265,-12.074 -1.7577,-27.767 -7.7864,-40.892 -8.6741,-14.17 -9.9698,-21.069 -18.2111,-28.491 -8.486,-9.873 -8.0016,-13.336 -12.6503,-24.094 11.3905,-18.449 22.1873,-20.33 41.1918,-14.9 z"
         transform="matrix(-0.0043019,0.999991,-0.999991,-0.0043019,478.7791,373.2985)"
         style="fill:url(#linearGradient3763);fill-opacity:0.56078384;fill-rule:evenodd;stroke:#cbaa19;stroke-width:3.22748613"
         id="path594" />
      <rect
         width="1001.2239"
         height="120.52206"
         x="345.13156"
         y="247.98491"
         style="fill:#002993;fill-rule:evenodd;stroke-width:1pt"
         id="rect845" />
      <rect
         width="1001.224"
         height="120.52206"
         x="345.13141"
         y="482.62103"
         style="fill:#002993;fill-rule:evenodd;stroke-width:1pt"
         id="rect846" />
      <path
         inkscape:connector-curvature="0"
         d="m 101.665,488.822 c 9.641,18.113 21.855,33.027 30.418,58.686 1.846,34.313 -2.07,40.849 4.635,57.059 2.696,5.929 6.544,8.378 7.285,22.123 -1.146,19.675 -9.645,20.899 -18,20.359 -1.5,-6.043 -0.002,-9.946 -10.648,-20.357 -5.765,-6.161 -12.613,-16.348 -16.234,-29.493 -1.1265,-12.074 -1.7577,-27.767 -7.7864,-40.892 -8.6741,-14.17 -9.9698,-21.069 -18.2111,-28.491 -8.486,-9.873 -8.0016,-13.336 -12.6503,-24.094 11.3905,-18.449 22.1873,-20.33 41.1918,-14.9 z"
         style="fill:url(#linearGradient3765);fill-opacity:0.56078384;fill-rule:evenodd;stroke:#cbaa19;stroke-width:3.22748613"
         id="path613" />
      <rect
         width="1587.0061"
         height="120.52206"
         x="-240.65059"
         y="714.54321"
         style="fill:#002993;fill-rule:evenodd;stroke-width:1pt"
         id="rect847" />
      <rect
         width="1587.0061"
         height="120.52206"
         x="-240.6506"
         y="947.82214"
         style="fill:#002993;fill-rule:evenodd;stroke-width:1pt"
         id="rect848" />
      <path
         inkscape:connector-curvature="0"
         d="m 82.6605,496.87 -29.119,159.363 0,-159.363 c 0,0 29.119,0 29.119,0 z"
         style="fill:#faff00;fill-rule:evenodd;stroke:#cbaa19;stroke-width:3.22748613;stroke-linecap:round;stroke-dashoffset:0"
         id="path585" />
      <path
         inkscape:connector-curvature="0"
         d="m 82.6605,496.87 -29.119,159.363 0,-159.363 c 0,0 29.119,0 29.119,0 z"
         transform="matrix(-1,0,0,1,107.083,-4.882812e-4)"
         style="fill:#f5c402;fill-rule:evenodd;stroke:#cbaa19;stroke-width:3.22748613"
         id="path588" />
      <path
         inkscape:connector-curvature="0"
         d="m 82.6605,496.87 -29.119,159.363 0,-159.363 c 0,0 29.119,0 29.119,0 z"
         transform="matrix(0.705812,-0.708399,0.708399,0.705812,-285.3263,162.9619)"
         style="fill:#faff00;fill-rule:evenodd;stroke:#cbaa19;stroke-width:3.22748613;stroke-linecap:round;stroke-dashoffset:0"
         id="path596" />
      <path
         inkscape:connector-curvature="0"
         d="m 82.6605,496.87 -29.119,159.363 0,-159.363 c 0,0 29.119,0 29.119,0 z"
         transform="matrix(-0.705812,0.708399,0.708399,0.705812,-209.7462,87.104)"
         style="fill:#f5c402;fill-rule:evenodd;stroke:#cbaa19;stroke-width:3.22748613"
         id="path597" />
      <path
         inkscape:connector-curvature="0"
         d="m 82.6605,496.87 -29.119,159.363 0,-159.363 c 0,0 29.119,0 29.119,0 z"
         transform="matrix(-0.00192816,-0.999998,0.999998,-0.00192816,-371.3657,479.372)"
         style="fill:#faff00;fill-rule:evenodd;stroke:#cbaa19;stroke-width:3.22748613;stroke-linecap:round;stroke-dashoffset:0"
         id="path598" />
      <path
         inkscape:connector-curvature="0"
         d="m 82.6605,496.87 -29.119,159.363 0,-159.363 c 0,0 29.119,0 29.119,0 z"
         transform="matrix(0.00192816,0.999998,0.999998,-0.00192816,-371.5727,372.2892)"
         style="fill:#f5c402;fill-rule:evenodd;stroke:#cbaa19;stroke-width:3.22748613"
         id="path599" />
      <path
         inkscape:connector-curvature="0"
         d="m 82.6605,496.87 -29.119,159.363 0,-159.363 c 0,0 29.119,0 29.119,0 z"
         transform="matrix(-0.705436,-0.708774,0.708774,-0.705436,-209.9252,762.7782)"
         style="fill:#faff00;fill-rule:evenodd;stroke:#cbaa19;stroke-width:3.22748613;stroke-linecap:round;stroke-dashoffset:0"
         id="path600" />
      <path
         inkscape:connector-curvature="0"
         d="m 82.6605,496.87 -29.119,159.363 0,-159.363 c 0,0 29.119,0 29.119,0 z"
         transform="matrix(0.705436,0.708774,0.708774,-0.705436,-285.4658,686.8809)"
         style="fill:#f5c402;fill-rule:evenodd;stroke:#cbaa19;stroke-width:3.22748613"
         id="path601" />
      <path
         inkscape:connector-curvature="0"
         d="m 82.6605,496.87 -29.119,159.363 0,-159.363 c 0,0 29.119,0 29.119,0 z"
         transform="matrix(-0.999998,0.00195557,-0.00195557,-0.999998,107.914,849.9169)"
         style="fill:#faff00;fill-rule:evenodd;stroke:#cbaa19;stroke-width:3.22748613;stroke-linecap:round;stroke-dashoffset:0"
         id="path602" />
      <path
         inkscape:connector-curvature="0"
         d="m 82.6605,496.87 -29.119,159.363 0,-159.363 c 0,0 29.119,0 29.119,0 z"
         transform="matrix(0.999998,-0.00195557,-0.00195557,-0.999998,0.831174,850.1268)"
         style="fill:#f5c402;fill-rule:evenodd;stroke:#cbaa19;stroke-width:3.22748613"
         id="path603" />
      <path
         inkscape:connector-curvature="0"
         d="m 82.6605,496.87 -29.119,159.363 0,-159.363 c 0,0 29.119,0 29.119,0 z"
         transform="matrix(-0.705774,0.708437,-0.708437,-0.705774,392.4233,687.0423)"
         style="fill:#faff00;fill-rule:evenodd;stroke:#cbaa19;stroke-width:3.22748613;stroke-linecap:round;stroke-dashoffset:0"
         id="path604" />
      <path
         inkscape:connector-curvature="0"
         d="m 82.6605,496.87 -29.119,159.363 0,-159.363 c 0,0 29.119,0 29.119,0 z"
         transform="matrix(0.705774,-0.708437,-0.708437,-0.705774,316.8473,762.9042)"
         style="fill:#f5c402;fill-rule:evenodd;stroke:#cbaa19;stroke-width:3.22748613"
         id="path605" />
      <path
         inkscape:connector-curvature="0"
         d="m 82.6605,496.87 -29.119,159.363 0,-159.363 c 0,0 29.119,0 29.119,0 z"
         transform="matrix(0.01105657,0.999939,-0.999939,0.01105657,477.9347,366.7738)"
         style="fill:#faff00;fill-rule:evenodd;stroke:#cbaa19;stroke-width:3.22748613;stroke-linecap:round;stroke-dashoffset:0"
         id="path606" />
      <path
         inkscape:connector-curvature="0"
         d="m 82.6605,496.87 -29.119,159.363 0,-159.363 c 0,0 29.119,0 29.119,0 z"
         transform="matrix(-0.01105657,-0.999939,-0.999939,0.01105657,479.1191,473.8503)"
         style="fill:#f5c402;fill-rule:evenodd;stroke:#cbaa19;stroke-width:3.22748613"
         id="path607" />
      <path
         inkscape:connector-curvature="0"
         d="m 82.6605,496.87 -29.119,159.363 0,-159.363 c 0,0 29.119,0 29.119,0 z"
         transform="matrix(0.712353,0.701822,-0.701822,0.712353,313.6831,84.67671)"
         style="fill:#faff00;fill-rule:evenodd;stroke:#cbaa19;stroke-width:3.22748613;stroke-linecap:round;stroke-dashoffset:0"
         id="path608" />
      <path
         inkscape:connector-curvature="0"
         d="m 82.6605,496.87 -29.119,159.363 0,-159.363 c 0,0 29.119,0 29.119,0 z"
         transform="matrix(-0.712353,-0.701822,-0.701822,0.712353,389.9643,159.8295)"
         style="fill:#f5c402;fill-rule:evenodd;stroke:#cbaa19;stroke-width:3.22748613"
         id="path609" />
      <ellipse
         sodipodi:ry="81.268311"
         sodipodi:rx="82.224388"
         sodipodi:cy="422.29388"
         sodipodi:cx="52.585365"
         cx="52.585365"
         cy="422.29388"
         rx="82.224388"
         ry="81.268311"
         transform="translate(0.956097,2.868317)"
         style="fill:#faff00;fill-rule:evenodd;stroke:#cbaa19;stroke-width:3.22748613"
         id="path566"
         d="m 134.80975,422.29388 c 0,44.88325 -36.813109,81.26831 -82.224385,81.26831 -45.4112753,0 -82.224388,-36.38506 -82.224388,-81.26831 0,-44.88324 36.8131127,-81.26831 82.224388,-81.26831 45.411276,0 82.224385,36.38507 82.224385,81.26831 z" />
    </g>
  </g>
</svg>
