<?xml version="1.0" encoding="UTF-8" standalone="no"?>
<!-- Created with Sodipodi ("http://www.sodipodi.com/") -->

<svg
   xmlns:dc="http://purl.org/dc/elements/1.1/"
   xmlns:cc="http://creativecommons.org/ns#"
   xmlns:rdf="http://www.w3.org/1999/02/22-rdf-syntax-ns#"
   xmlns:svg="http://www.w3.org/2000/svg"
   xmlns="http://www.w3.org/2000/svg"
   xmlns:sodipodi="http://sodipodi.sourceforge.net/DTD/sodipodi-0.dtd"
   xmlns:inkscape="http://www.inkscape.org/namespaces/inkscape"
   id="svg548"
   sodipodi:version="0.32"
   width="640"
   height="480"
   sodipodi:docname="uz.svg"
   version="1.1"
   inkscape:version="0.48.1 r9760">
  <sodipodi:namedview
     id="base"
     showgrid="true"
     snaptoguides="false"
     snaptogrid="false"
     inkscape:zoom="0.33060318"
     inkscape:cx="111.91665"
     inkscape:cy="248.03149"
     inkscape:window-width="1280"
     inkscape:window-height="746"
     inkscape:window-x="0"
     inkscape:window-y="24"
     inkscape:window-maximized="1"
     inkscape:current-layer="svg548" />
  <metadata
     id="metadata3215">
    <rdf:RDF>
      <cc:Work
         rdf:about="">
        <dc:format>image/svg+xml</dc:format>
        <dc:type
           rdf:resource="http://purl.org/dc/dcmitype/StillImage" />
      </cc:Work>
    </rdf:RDF>
  </metadata>
  <defs
     id="defs550">
    <clipPath
       clipPathUnits="userSpaceOnUse"
       id="clipPath5874">
      <rect
         id="rect5876"
         height="496.06332"
         x="0"
         style="fill:#000000;fill-opacity:0.67000002;stroke:none"
         width="496.06332"
         y="-0.00031739267" />
    </clipPath>
    <clipPath
       clipPathUnits="userSpaceOnUse"
       id="clipPath3415">
      <rect
         id="rect3417"
         height="480"
         x="0"
         style="fill:#000000;fill-opacity:0.67000002;stroke:none"
         width="640"
         y="0" />
    </clipPath>
  </defs>
  <g
     id="flag"
     clip-path="url(#clipPath3415)"
     inkscape:label="#g3344">
    <rect
       style="font-size:12px;fill:#ffffff;fill-opacity:1;fill-rule:evenodd;stroke-width:1pt"
       id="rect568"
       width="959.99933"
       height="479.99966"
       x="0"
       y="-8.2911038e-06" />
    <rect
       style="font-size:12px;fill:#94acd4;fill-opacity:1;fill-rule:evenodd;stroke-width:1pt"
       id="rect558"
       width="959.99939"
       height="166.14281"
       x="0"
       y="0.00029167061" />
    <rect
       style="font-size:12px;fill:#b73000;fill-opacity:1;fill-rule:evenodd;stroke-width:1pt"
       id="rect555"
       width="959.99939"
       height="11.005385"
       x="0"
       y="155.13768" />
    <rect
       style="font-size:12px;fill:#00a900;fill-opacity:1;fill-rule:evenodd;stroke-width:1pt"
       id="rect557"
       width="959.99939"
       height="155.13744"
       x="0"
       y="324.86258" />
    <rect
       style="font-size:12px;fill:#b73000;fill-opacity:1;fill-rule:evenodd;stroke-width:1pt"
       id="rect556"
       width="959.99939"
       height="11.005385"
       x="0"
       y="324.86264" />
    <polygon
       d="m 205.58449,128.73621 -10.01635,-6.84893 -9.90282,7.01206 3.41849,-11.64254 -9.72901,-7.2513 12.12909,-0.34657 3.88997,-11.493607 4.0777,11.428357 12.13314,0.14786 -9.60893,7.40967 z"
       inkscape:randomized="0"
       inkscape:rounded="0"
       inkscape:flatsided="false"
       sodipodi:type="star"
       style="font-size:12px;fill:#feffff;fill-opacity:1;fill-rule:evenodd;stroke-width:1pt"
       id="polygon561"
       sodipodi:sides="5"
       sodipodi:cx="195.51263"
       sodipodi:cy="115.10958"
       sodipodi:r1="16.944826"
       sodipodi:r2="6.7779307"
       sodipodi:arg1="0.93428808"
       sodipodi:arg2="1.5626066"
       points="205.584,128.736 195.568,121.887 185.665,128.899 189.084,117.257 179.355,110.006 191.484,109.659 195.374,98.1653 199.452,109.594 211.585,109.742 201.976,117.151 205.584,128.736 "
       transform="matrix(0.89300632,0,0,0.89793731,69.068147,-66.21209)" />
    <polygon
       d="m 205.58449,128.73621 -10.01635,-6.84893 -9.90282,7.01206 3.41849,-11.64254 -9.72901,-7.2513 12.12909,-0.34657 3.88997,-11.493607 4.0777,11.428357 12.13314,0.14786 -9.60893,7.40967 z"
       inkscape:randomized="0"
       inkscape:rounded="0"
       inkscape:flatsided="false"
       sodipodi:type="star"
       style="font-size:12px;fill:#feffff;fill-opacity:1;fill-rule:evenodd;stroke-width:1pt"
       id="polygon562"
       sodipodi:sides="5"
       sodipodi:cx="195.51263"
       sodipodi:cy="115.10958"
       sodipodi:r1="16.944826"
       sodipodi:r2="6.7779307"
       sodipodi:arg1="0.93428808"
       sodipodi:arg2="1.5626066"
       points="205.584,128.736 195.568,121.887 185.665,128.899 189.084,117.257 179.355,110.006 191.484,109.659 195.374,98.1653 199.452,109.594 211.585,109.742 201.976,117.151 205.584,128.736 "
       transform="matrix(0.89300632,0,0,0.89793731,26.909807,16.735837)" />
    <polygon
       d="m 205.58449,128.73621 -10.01635,-6.84893 -9.90282,7.01206 3.41849,-11.64254 -9.72901,-7.2513 12.12909,-0.34657 3.88997,-11.493607 4.0777,11.428357 12.13314,0.14786 -9.60893,7.40967 z"
       inkscape:randomized="0"
       inkscape:rounded="0"
       inkscape:flatsided="false"
       sodipodi:type="star"
       style="font-size:12px;fill:#feffff;fill-opacity:1;fill-rule:evenodd;stroke-width:1pt"
       id="polygon563"
       sodipodi:sides="5"
       sodipodi:cx="195.51263"
       sodipodi:cy="115.10958"
       sodipodi:r1="16.944826"
       sodipodi:r2="6.7779307"
       sodipodi:arg1="0.93428808"
       sodipodi:arg2="1.5626066"
       points="205.584,128.736 195.568,121.887 185.665,128.899 189.084,117.257 179.355,110.006 191.484,109.659 195.374,98.1653 199.452,109.594 211.585,109.742 201.976,117.151 205.584,128.736 "
       transform="matrix(0.89300632,0,0,0.89793731,69.473512,16.735837)" />
    <polygon
       d="m 205.58449,128.73621 -10.01635,-6.84893 -9.90282,7.01206 3.41849,-11.64254 -9.72901,-7.2513 12.12909,-0.34657 3.88997,-11.493607 4.0777,11.428357 12.13314,0.14786 -9.60893,7.40967 z"
       inkscape:randomized="0"
       inkscape:rounded="0"
       inkscape:flatsided="false"
       sodipodi:type="star"
       style="font-size:12px;fill:#feffff;fill-opacity:1;fill-rule:evenodd;stroke-width:1pt"
       id="polygon564"
       sodipodi:sides="5"
       sodipodi:cx="195.51263"
       sodipodi:cy="115.10958"
       sodipodi:r1="16.944826"
       sodipodi:r2="6.7779307"
       sodipodi:arg1="0.93428808"
       sodipodi:arg2="1.5626066"
       points="205.584,128.736 195.568,121.887 185.665,128.899 189.084,117.257 179.355,110.006 191.484,109.659 195.374,98.1653 199.452,109.594 211.585,109.742 201.976,117.151 205.584,128.736 "
       transform="matrix(0.89300632,0,0,0.89793731,108.79427,16.735837)" />
    <polygon
       d="m 205.58449,128.73621 -10.01635,-6.84893 -9.90282,7.01206 3.41849,-11.64254 -9.72901,-7.2513 12.12909,-0.34657 3.88997,-11.493607 4.0777,11.428357 12.13314,0.14786 -9.60893,7.40967 z"
       inkscape:randomized="0"
       inkscape:rounded="0"
       inkscape:flatsided="false"
       sodipodi:type="star"
       style="font-size:12px;fill:#feffff;fill-opacity:1;fill-rule:evenodd;stroke-width:1pt"
       id="polygon565"
       sodipodi:sides="5"
       sodipodi:cx="195.51263"
       sodipodi:cy="115.10958"
       sodipodi:r1="16.944826"
       sodipodi:r2="6.7779307"
       sodipodi:arg1="0.93428808"
       sodipodi:arg2="1.5626066"
       points="205.584,128.736 195.568,121.887 185.665,128.899 189.084,117.257 179.355,110.006 191.484,109.659 195.374,98.1653 199.452,109.594 211.585,109.742 201.976,117.151 205.584,128.736 "
       transform="matrix(0.89300632,0,0,0.89793731,145.27745,16.735837)" />
    <polygon
       d="m 205.58449,128.73621 -10.01635,-6.84893 -9.90282,7.01206 3.41849,-11.64254 -9.72901,-7.2513 12.12909,-0.34657 3.88997,-11.493607 4.0777,11.428357 12.13314,0.14786 -9.60893,7.40967 z"
       inkscape:randomized="0"
       inkscape:rounded="0"
       inkscape:flatsided="false"
       sodipodi:type="star"
       style="font-size:12px;fill:#feffff;fill-opacity:1;fill-rule:evenodd;stroke-width:1pt"
       id="polygon566"
       sodipodi:sides="5"
       sodipodi:cx="195.51263"
       sodipodi:cy="115.10958"
       sodipodi:r1="16.944826"
       sodipodi:r2="6.7779307"
       sodipodi:arg1="0.93428808"
       sodipodi:arg2="1.5626066"
       points="205.584,128.736 195.568,121.887 185.665,128.899 189.084,117.257 179.355,110.006 191.484,109.659 195.374,98.1653 199.452,109.594 211.585,109.742 201.976,117.151 205.584,128.736 "
       transform="matrix(0.89300632,0,0,0.89793731,-17.68073,16.735837)" />
    <polygon
       d="m 205.58449,128.73621 -10.01635,-6.84893 -9.90282,7.01206 3.41849,-11.64254 -9.72901,-7.2513 12.12909,-0.34657 3.88997,-11.493607 4.0777,11.428357 12.13314,0.14786 -9.60893,7.40967 z"
       inkscape:randomized="0"
       inkscape:rounded="0"
       inkscape:flatsided="false"
       sodipodi:type="star"
       style="font-size:12px;fill:#feffff;fill-opacity:1;fill-rule:evenodd;stroke-width:1pt"
       id="polygon567"
       sodipodi:sides="5"
       sodipodi:cx="195.51263"
       sodipodi:cy="115.10958"
       sodipodi:r1="16.944826"
       sodipodi:r2="6.7779307"
       sodipodi:arg1="0.93428808"
       sodipodi:arg2="1.5626066"
       points="205.584,128.736 195.568,121.887 185.665,128.899 189.084,117.257 179.355,110.006 191.484,109.659 195.374,98.1653 199.452,109.594 211.585,109.742 201.976,117.151 205.584,128.736 "
       transform="matrix(0.89300632,0,0,0.89793731,26.099078,-24.432455)" />
    <polygon
       d="m 205.58449,128.73621 -10.01635,-6.84893 -9.90282,7.01206 3.41849,-11.64254 -9.72901,-7.2513 12.12909,-0.34657 3.88997,-11.493607 4.0777,11.428357 12.13314,0.14786 -9.60893,7.40967 z"
       inkscape:randomized="0"
       inkscape:rounded="0"
       inkscape:flatsided="false"
       sodipodi:type="star"
       style="font-size:12px;fill:#feffff;fill-opacity:1;fill-rule:evenodd;stroke-width:1pt"
       id="polygon568"
       sodipodi:sides="5"
       sodipodi:cx="195.51263"
       sodipodi:cy="115.10958"
       sodipodi:r1="16.944826"
       sodipodi:r2="6.7779307"
       sodipodi:arg1="0.93428808"
       sodipodi:arg2="1.5626066"
       points="205.584,128.736 195.568,121.887 185.665,128.899 189.084,117.257 179.355,110.006 191.484,109.659 195.374,98.1653 199.452,109.594 211.585,109.742 201.976,117.151 205.584,128.736 "
       transform="matrix(0.89300632,0,0,0.89793731,69.068147,-24.432455)" />
    <polygon
       d="m 205.58449,128.73621 -10.01635,-6.84893 -9.90282,7.01206 3.41849,-11.64254 -9.72901,-7.2513 12.12909,-0.34657 3.88997,-11.493607 4.0777,11.428357 12.13314,0.14786 -9.60893,7.40967 z"
       inkscape:randomized="0"
       inkscape:rounded="0"
       inkscape:flatsided="false"
       sodipodi:type="star"
       style="font-size:12px;fill:#feffff;fill-opacity:1;fill-rule:evenodd;stroke-width:1pt"
       id="polygon569"
       sodipodi:sides="5"
       sodipodi:cx="195.51263"
       sodipodi:cy="115.10958"
       sodipodi:r1="16.944826"
       sodipodi:r2="6.7779307"
       sodipodi:arg1="0.93428808"
       sodipodi:arg2="1.5626066"
       points="205.584,128.736 195.568,121.887 185.665,128.899 189.084,117.257 179.355,110.006 191.484,109.659 195.374,98.1653 199.452,109.594 211.585,109.742 201.976,117.151 205.584,128.736 "
       transform="matrix(0.89300632,0,0,0.89793731,109.60494,-24.432455)" />
    <polygon
       d="m 205.58449,128.73621 -10.01635,-6.84893 -9.90282,7.01206 3.41849,-11.64254 -9.72901,-7.2513 12.12909,-0.34657 3.88997,-11.493607 4.0777,11.428357 12.13314,0.14786 -9.60893,7.40967 z"
       inkscape:randomized="0"
       inkscape:rounded="0"
       inkscape:flatsided="false"
       sodipodi:type="star"
       style="font-size:12px;fill:#feffff;fill-opacity:1;fill-rule:evenodd;stroke-width:1pt"
       id="polygon570"
       sodipodi:sides="5"
       sodipodi:cx="195.51263"
       sodipodi:cy="115.10958"
       sodipodi:r1="16.944826"
       sodipodi:r2="6.7779307"
       sodipodi:arg1="0.93428808"
       sodipodi:arg2="1.5626066"
       points="205.584,128.736 195.568,121.887 185.665,128.899 189.084,117.257 179.355,110.006 191.484,109.659 195.374,98.1653 199.452,109.594 211.585,109.742 201.976,117.151 205.584,128.736 "
       transform="matrix(0.89300632,0,0,0.89793731,144.87202,-24.432455)" />
    <polygon
       d="m 205.58449,128.73621 -10.01635,-6.84893 -9.90282,7.01206 3.41849,-11.64254 -9.72901,-7.2513 12.12909,-0.34657 3.88997,-11.493607 4.0777,11.428357 12.13314,0.14786 -9.60893,7.40967 z"
       inkscape:randomized="0"
       inkscape:rounded="0"
       inkscape:flatsided="false"
       sodipodi:type="star"
       style="font-size:12px;fill:#feffff;fill-opacity:1;fill-rule:evenodd;stroke-width:1pt"
       id="polygon571"
       sodipodi:sides="5"
       sodipodi:cx="195.51263"
       sodipodi:cy="115.10958"
       sodipodi:r1="16.944826"
       sodipodi:r2="6.7779307"
       sodipodi:arg1="0.93428808"
       sodipodi:arg2="1.5626066"
       points="205.584,128.736 195.568,121.887 185.665,128.899 189.084,117.257 179.355,110.006 191.484,109.659 195.374,98.1653 199.452,109.594 211.585,109.742 201.976,117.151 205.584,128.736 "
       transform="matrix(0.89300632,0,0,0.89793731,144.46669,-66.21209)" />
    <polygon
       d="m 205.58449,128.73621 -10.01635,-6.84893 -9.90282,7.01206 3.41849,-11.64254 -9.72901,-7.2513 12.12909,-0.34657 3.88997,-11.493607 4.0777,11.428357 12.13314,0.14786 -9.60893,7.40967 z"
       inkscape:randomized="0"
       inkscape:rounded="0"
       inkscape:flatsided="false"
       sodipodi:type="star"
       style="font-size:12px;fill:#feffff;fill-opacity:1;fill-rule:evenodd;stroke-width:1pt"
       id="polygon572"
       sodipodi:sides="5"
       sodipodi:cx="195.51263"
       sodipodi:cy="115.10958"
       sodipodi:r1="16.944826"
       sodipodi:r2="6.7779307"
       sodipodi:arg1="0.93428808"
       sodipodi:arg2="1.5626066"
       points="205.584,128.736 195.568,121.887 185.665,128.899 189.084,117.257 179.355,110.006 191.484,109.659 195.374,98.1653 199.452,109.594 211.585,109.742 201.976,117.151 205.584,128.736 "
       transform="matrix(0.89300632,0,0,0.89793731,109.19961,-66.21209)" />
    <path
       inkscape:connector-curvature="0"
       style="fill:#ffffff;fill-opacity:1;fill-rule:evenodd;stroke:none"
       d="M 137.82563,25.110996 C 89.992092,11.999573 59.690832,45.864927 60.14687,76.214488 60.602812,106.56415 88.573177,138.69714 131.74512,130.68092 63.913228,162.47436 29.222366,112.40483 30.60548,72.648004 32.98766,25.659746 85.803272,-12.660503 137.82563,25.110996 z"
       id="path575"
       sodipodi:nodetypes="csccc" />
  </g>
</svg>
