<?xml version="1.0" encoding="UTF-8" standalone="no"?>
<!-- Created with Sodipodi ("http://www.sodipodi.com/") -->

<svg
   xmlns:dc="http://purl.org/dc/elements/1.1/"
   xmlns:cc="http://creativecommons.org/ns#"
   xmlns:rdf="http://www.w3.org/1999/02/22-rdf-syntax-ns#"
   xmlns:svg="http://www.w3.org/2000/svg"
   xmlns="http://www.w3.org/2000/svg"
   xmlns:sodipodi="http://sodipodi.sourceforge.net/DTD/sodipodi-0.dtd"
   xmlns:inkscape="http://www.inkscape.org/namespaces/inkscape"
   version="1.0"
   x="0"
   y="0"
   width="640"
   height="480"
   id="svg378"
   sodipodi:version="0.32"
   sodipodi:docname="ve.svg"
   inkscape:version="0.48.1 r9760">
  <sodipodi:namedview
     id="base"
     showgrid="false"
     inkscape:zoom="0.56900452"
     inkscape:cx="384.72796"
     inkscape:cy="442"
     inkscape:window-width="1280"
     inkscape:window-height="746"
     inkscape:window-x="0"
     inkscape:window-y="24"
     inkscape:window-maximized="1"
     inkscape:current-layer="svg378" />
  <metadata
     id="metadata3720">
    <rdf:RDF>
      <cc:Work
         rdf:about="">
        <dc:format>image/svg+xml</dc:format>
        <dc:type
           rdf:resource="http://purl.org/dc/dcmitype/StillImage" />
      </cc:Work>
    </rdf:RDF>
  </metadata>
  <defs
     id="defs380">
    <clipPath
       clipPathUnits="userSpaceOnUse"
       id="clipPath4328">
      <rect
         id="rect4330"
         height="139.61855"
         x="35.102959"
         style="fill:#000000;fill-opacity:0.67000002;stroke:none"
         width="139.61855"
         y="0.39667869" />
    </clipPath>
    <clipPath
       id="clipPath5767"
       clipPathUnits="userSpaceOnUse">
      <rect
         y="0"
         width="512"
         style="fill:#000000;fill-opacity:0.67000002;stroke:none"
         x="0"
         height="512"
         id="rect5769" />
    </clipPath>
    <clipPath
       clipPathUnits="userSpaceOnUse"
       id="clipPath5644">
      <rect
         id="rect5646"
         height="512"
         x="-84.605362"
         style="fill:#000000;fill-opacity:0.67000002;stroke:none"
         width="682.66669"
         y="5.1327102e-06" />
    </clipPath>
  </defs>
  <g
     transform="matrix(0.93750001,0,0,0.93750001,79.317529,-4.811916e-6)"
     id="flag"
     clip-path="url(#clipPath5644)"
     inkscape:label="#g5593">
    <rect
       width="769.45593"
       height="170.66669"
       x="-128"
       y="341.33331"
       style="font-size:12px;fill:#dc0000;fill-opacity:1;fill-rule:evenodd;stroke-width:1pt"
       id="rect171" />
    <rect
       width="769.45593"
       height="170.66667"
       x="-128"
       y="4.8040874e-06"
       style="font-size:12px;fill:#ffcb00;fill-opacity:1;fill-rule:evenodd;stroke-width:1pt"
       id="rect256" />
    <rect
       width="769.45593"
       height="170.66667"
       x="-128"
       y="170.66666"
       style="font-size:12px;fill:#0000ba;fill-opacity:1;fill-rule:evenodd;stroke-width:1pt"
       id="rect255" />
    <path
       id="path575"
       style="font-size:12px;fill:#ffffff;fill-opacity:1;fill-rule:evenodd;stroke-width:0.112872"
       d="m 269.58341,228.71874 -12.39699,-8.85597 -12.33625,8.94295 4.58813,-14.53274 -12.31362,-8.97393 15.2342,-0.12511 4.7251,-14.48865 4.82635,14.45528 15.2342,0.0191 -12.25049,9.05853 4.68937,14.50057 z"
       inkscape:connector-curvature="0" />
    <path
       id="path576"
       style="font-size:12px;fill:#ffffff;fill-rule:evenodd;stroke-width:0.112872"
       d="m 331.27436,236.30201 -12.397,-8.85597 -12.33624,8.94295 4.58812,-14.53274 -12.31361,-8.97393 15.2342,-0.12511 4.7251,-14.48865 4.82635,14.45528 15.23419,0.0191 -12.25048,9.05853 4.68937,14.50057 z"
       inkscape:connector-curvature="0" />
    <path
       id="path577"
       style="font-size:12px;fill:#ffffff;fill-rule:evenodd;stroke-width:0.112872"
       d="m 384.73997,269.66817 -12.39699,-8.85597 -12.33625,8.94295 4.58813,-14.53274 -12.31361,-8.97393 15.23419,-0.12511 4.7251,-14.48865 4.82635,14.45528 15.2342,0.0191 -12.25049,9.05853 4.68937,14.50057 z"
       inkscape:connector-curvature="0" />
    <path
       id="path578"
       style="font-size:12px;fill:#ffffff;fill-rule:evenodd;stroke-width:0.112872"
       d="m 414.90002,319.71722 -12.397,-8.85597 -12.33624,8.94295 4.58812,-14.53274 -12.31361,-8.97393 15.2342,-0.12511 4.7251,-14.48865 4.82635,14.45528 15.23419,0.0191 -12.25048,9.05853 4.68937,14.50057 z"
       inkscape:connector-curvature="0" />
    <path
       id="path579"
       style="font-size:12px;fill:#ffffff;fill-rule:evenodd;stroke-width:0.112872"
       d="m 182.99468,236.30164 12.39699,-8.85597 12.33625,8.94295 -4.58813,-14.53274 12.31362,-8.97393 -15.2342,-0.12511 -4.7251,-14.48865 -4.82635,14.45528 -15.2342,0.0191 12.25049,9.05853 -4.68937,14.50057 z"
       inkscape:connector-curvature="0" />
    <path
       id="path580"
       style="font-size:12px;fill:#ffffff;fill-rule:evenodd;stroke-width:0.112872"
       d="m 129.5288,269.66817 12.39699,-8.85597 12.33625,8.94295 -4.58813,-14.53274 12.31362,-8.97393 -15.2342,-0.12511 -4.7251,-14.48865 -4.82635,14.45528 -15.2342,0.0191 12.25049,9.05853 -4.68937,14.50057 z"
       inkscape:connector-curvature="0" />
    <path
       id="path581"
       style="font-size:12px;fill:#ffffff;fill-rule:evenodd;stroke-width:0.112872"
       d="m 99.36905,319.71722 12.39699,-8.85597 12.33625,8.94295 -4.58813,-14.53274 12.31362,-8.97393 -15.2342,-0.12511 -4.7251,-14.48865 -4.82635,14.45528 -15.234197,0.0191 12.250487,9.05853 -4.68937,14.50057 z"
       inkscape:connector-curvature="0" />
  </g>
</svg>
