/* XPM */
/* This file is a part of the NsCDE - Not so Common Desktop Environment */
static char * WaitCursorSmall_xpm[] = {
"16 16 3 1",
" 	c None",
".	c #020101",
"+	c #FEFEFE",
"++++++++++++++++",
"+..............+",
" +.+.++++++.+.+ ",
" +.+.++++++.+.+ ",
" +.+.++++++.+.+ ",
" +.++.++++.++.+ ",
" +.+++.++.+++.+ ",
" +.++++..++++.+ ",
" +.++++..++++.+ ",
" +.+++.++.+++.+ ",
" +.++.++++.++.+ ",
" +.+.++++++.+.+ ",
" +.+.++..++.+.+ ",
" +.+.+....+.+.+ ",
"+..............+",
"++++++++++++++++"};
