/* XPM */
/* This file is a part of the NsCDE - Not so Common Desktop Environment */
static char * WaitCursor_xpm[] = {
"32 32 3 1",
" 	c None",
".	c #000000",
"+	c #FFFFFF",
"++++++++++++++++++++++++++++++++",
"+..............................+",
"+..............................+",
" +..  +.                .+  ...+",
" +.. +.                  .+ ..+ ",
" +.. +.                  .+ ..+ ",
" +.. +.                  .+ ..+ ",
" +.. +.                  .+ ..+ ",
" +.. +.                  .+ ..+ ",
" +..  +.                .+  ..+ ",
" +..   +.......  .......+   ..+ ",
" +..    +..............+    ..+ ",
" +..     +............+     ..+ ",
" +..      +..........+      ..+ ",
" +..       +.......++       ..+ ",
" +..         ++..++         ..+ ",
" +..         ++..++         ..+ ",
" +..       ++..  ..++       ..+ ",
" +..      +..      ..+      ..+ ",
" +..     +.          .+     ..+ ",
" +..    +.            .+    ..+ ",
" +..   +.              .+   ..+ ",
" +..  +.                .+  ..+ ",
" +.. +.        ..        .+ ..+ ",
" +.. +.       ....       .+ ..+ ",
" +.. +.     .........    .+ ..+ ",
" +.. +. ................ .+ ..+ ",
" +.. +....................+ ..+ ",
" +..  +..................+  ...+",
"+..............................+",
"+..............................+",
"++++++++++++++++++++++++++++++++"};
