/* XPM */
static char * panel_handle_xpm[] = {
"20 60 3 1",
"	c None",
".	s bottomShadowColor    m    black c #4f864f94500a",
"@	s topShadowColor    m    white c #d2aad2b6d31a",
"....................",
"@@@@@@@@@@@@@@@@@@@.",
"....................",
"@@@@@@@@@@@@@@@@@@@.",
"....................",
"@@@@@@@@@@@@@@@@@@@.",
"....................",
"@@@@@@@@@@@@@@@@@@@.",
"....................",
"@@@@@@@@@@@@@@@@@@@.",
"....................",
"@@@@@@@@@@@@@@@@@@@.",
"....................",
"@@@@@@@@@@@@@@@@@@@.",
"....................",
"@@@@@@@@@@@@@@@@@@@.",
"....................",
"@@@@@@@@@@@@@@@@@@@.",
"....................",
"@@@@@@@@@@@@@@@@@@@.",
"....................",
"@@@@@@@@@@@@@@@@@@@.",
"....................",
"@@@@@@@@@@@@@@@@@@@.",
"....................",
"@@@@@@@@@@@@@@@@@@@.",
"....................",
"@@@@@@@@@@@@@@@@@@@.",
"....................",
"@@@@@@@@@@@@@@@@@@@.",
"....................",
"@@@@@@@@@@@@@@@@@@@.",
"....................",
"@@@@@@@@@@@@@@@@@@@.",
"....................",
"@@@@@@@@@@@@@@@@@@@.",
"....................",
"@@@@@@@@@@@@@@@@@@@.",
"....................",
"@@@@@@@@@@@@@@@@@@@.",
"....................",
"@@@@@@@@@@@@@@@@@@@.",
"....................",
"@@@@@@@@@@@@@@@@@@@.",
"....................",
"@@@@@@@@@@@@@@@@@@@.",
"....................",
"@@@@@@@@@@@@@@@@@@@.",
"....................",
"@@@@@@@@@@@@@@@@@@@.",
"....................",
"@@@@@@@@@@@@@@@@@@@.",
"....................",
"@@@@@@@@@@@@@@@@@@@.",
"....................",
"@@@@@@@@@@@@@@@@@@@.",
"....................",
"@@@@@@@@@@@@@@@@@@@.",
"....................",
"@@@@@@@@@@@@@@@@@@@."};
