/* XPM */
static char * Mouse_Setup_xpm[] = {
"76 101 3 1",
"       c None",
". s bottomShadowColor m black c #6b6b6b6b6b6b",
"+ s topShadowColor m white c #e5e5e5e5e5e5",
"............................................................................",
"...........................................................................+",
".+++++++++++++++++++++++++++++++++++++++++++++++++++++++++++++++++++++++++++",
"...............+..+.............................++..++.....................+",
".++++++++++++++..+.+.+++++++++++++++++++++++++++.+.+.+.+++++++++++++++++++++",
"...........+...+..+.............................++..++..++.................+",
".+++++++++++++++++++++++++++++++++++++++++++++++++.+++.+.+.+++++++++++++++++",
"........+++++++++++++++++++++++++...............++..++..++.................+",
".+++++++.....................+++++++++++++++++++++.+++.+++.+++++++++++++++++",
"................................+++.............++.+++.++..+...............+",
".++++++++.+.+.+.+.+..+++++++++++.+++.++++++++++++++++++++.+.++++++++++++++++",
".........+.+.+.+.+.+..++.+........++......++++..++++++++..++...............+",
".++++++++++.+.+.+.+.+.+.+.++++++++++..++++.+.++++++++++++++.++++++++++++++++",
"...........+.+.+.+.+.+.+..........++........++++++++++++++.................+",
".++++++++++.+.+.+.+.+.+.++++++++++++..++++++.++++++++++++.++++++++++++++++++",
".............+.+.+.+.+..........+++++.........++++++++++...................+",
".++++++++++++.+.+.+.+.+++++++++++......+++++++.++++++++.++++++++++++++++++++",
".............+.+.+.+............+++++...........+++++++....................+",
".++++++++++++.+.+.+.+++++++++++++......+++++++++.++++++.++++++++++++++++++++",
".............+.+.+.............+++++++...........++++++....................+",
".+++++++++++++++++++++++++++++++........++++++++++++++++++++++++++++++++++++",
"...............................+++++++.....................................+",
".++++++++++++++++++++++++++++++........+++++++++++++++++++++++++++++++++++++",
"..........+++++++++++++++++++++++++++++++++++++++++++++++..................+",
".+++++++++++++++++++++++++++++++++++++++++++++++++++++++++++++++++++++++++++",
"........+++++++++++++++++++++++++++++++++++++++++++++++++++................+",
".++++++++++++++++++++++++++++++++++++++++++++++++++++++++++...++++++++++++++",
"........++++.............+++.............+++.............++................+",
".++++++++++..+++++++++++..+..+++++++++++..+..+++++++++++..+......+++++++++++",
"........+++.+++++++++++++++.+++++++++++++++.+++++++++++++++................+",
".++++++++++.++++++++++++.++.++++++++++++.++.++++++++++++.++........+++++++++",
"........+++.++++++..++++.++.++++.....+++.++.++++.....+++.++................+",
".++++++++++.+++++...++++.++.+++.......++.++.+++.......++.++........+++++++++",
"........+++.++++....++++.++.+++..+++..++.++.+++..+++..++.++................+",
".++++++++++.++++....++++.++.+++..+++..++.++.++++++++..++.++........+++++++++",
"........+++.++++++..++++.++.++++++++..++.++.++++++++..++.++................+",
".++++++++++.++++++..++++.++.+++++++...++.++.+++++....+++.++........+++++++++",
"........+++.++++++..++++.++.++++++...+++.++.+++++.....++.++................+",
".++++++++++.++++++..++++.++.+++++...++++.++.++++++++..++.++........+++++++++",
"........+++.++++++..++++.++.++++...+++++.++.++++++++..++.++................+",
".++++++++++.++++++..++++.++.+++...++++++.++.+++..+++..++.++........+++++++++",
"........+++.++++++..++++.++.+++.......++.++.+++.......++.++................+",
".++++++++++.++++++..++++.++.+++.......++.++.++++.....+++.++........+++++++++",
"........+++.++++++++++++.++.++++++++++++.++.++++++++++++.++................+",
".++++++++++..++++++++++..++..++++++++++..++..++++++++++..++........+++++++++",
"........++++.+..........++++............++++.+..........+++................+",
".++++++++++++++++++++++++++++++++++++++++++++++++++++++++++........+++++++++",
"........+++++++++++++++++++++++++++++++++++++++++++++++++++................+",
".++++++++++++++++++++++++++++++++++++++++++++++++++++++++++........+++++++++",
"........+++++++++++++++++++++++++++++++++++++++++++++++++++................+",
".++++++++++++++++++++++++++++++++++++++++++++++++++++++++++........+++++++++",
"........+++++++++++++++++++++++++++++++++++++++++++++++++++................+",
".++++++++++++++++++++++++++++++++++++++++++++++++++++++++++........+++++++++",
"........+++++++++++++++++++++++++++++++++++++++++++++++++++................+",
".++++++++++++++++++++++++++++++++++++++++++++++++++++++++++........+++++++++",
"........+++++++++++++++++++++++++++++++++++++++++++++++++++................+",
".++++++++++++++++++++++++++++++++++++++++++++++++++++++++++........+++++++++",
"........+++++++++++++++++++++++++++++++++++++++++++++++++++................+",
".++++++++++++++++++++++++++++++++++++++++++++++++++++++++++........+++++++++",
"........+++++++++++++++++++++++++++++++++++++++++++++++++++................+",
".++++++++++++++++++++++++++++++++++++++++++++++++++++++++++........+++++++++",
"........+++++++++++++++++++++++++++++++++++++++++++++++++++................+",
".++++++++++++++++++++++++++++++++++++++++++++++++++++++++++........+++++++++",
"........+++++++++++++++++++++++++++++++++++++++++++++++++++................+",
".++++++++++++++++++++++++++++++++++++++++++++++++++++++++++........+++++++++",
"........+++++++++++++++++++++++++++++++++++++++++++++++++++................+",
".++++++++++++++++++++++++++++++++++++++++++++++++++++++++++........+++++++++",
"........+++++++++++++++++++++++++++++++++++++++++++++++++++................+",
".++++++++++++++++++++++++++++++++++++++++++++++++++++++++++........+++++++++",
"........+++++++++++++++++++++++++++++++++++++++++++++++++++................+",
".++++++++++++++++++++++++++++++++++++++++++++++++++++++++++........+++++++++",
"........+++++++++++++++++++++++++++++++++++++++++++++++++++................+",
".++++++++++++++++++++++++++++++++++++++++++++++++++++++++++........+++++++++",
"........+++++++++++++++++++++++++++++++++++++++++++++++++++................+",
".++++++++++++++++++++++++++++++++++++++++++++++++++++++++++........+++++++++",
"........+++++++++++++++++++++++++++++++++++++++++++++++++++................+",
".++++++++++++++++++++++++++++++++++++++++++++++++++++++++++........+++++++++",
"........+++++++++++++++++++++++++++++++++++++++++++++++++++................+",
".++++++++++++++++++++++++++++++++++++++++++++++++++++++++++........+++++++++",
"........+++++++++++++++++++++++++++++++++++++++++++++++++++................+",
".++++++++++++.+++.+++.+++.+++.+++.+++.+++.+++.+++.+++.+++.+........+++++++++",
"........+++++++++++++++++++++++++++++++++++++++++++++++++++................+",
".++++++++++++++++++++++++++++++++++++++++++++++++++++++++++........+++++++++",
"........+++.+++.+++.+++.+++.+++.+++.+++.+++.+++.+++.+++.+++................+",
".++++++++++++++++++++++++++++++++++++++++++++++++++++++++++........+++++++++",
"........+++++.+++.+++.+++.+++.+++.+++.+++.+++.+++.+++.+++..................+",
".++++++++++.+++.+++.+++.+++.+++.+++.+++.+++.+++.+++.+++.++.........+++++++++",
".........+++.+.+.+.+.+.+.+.+.+.+.+.+.+.+.+.+.+.+.+.+.+.+...................+",
".++++++++++++.+.+.+.+.+.+.+.+.+.+.+.+.+.+.+.+.+.+.+.+.+............+++++++++",
"..........++...+.+.+.+.+.+.+.+.+.+.+.+.+.+.+.+.+.+.+.+.....................+",
".++++++++++........................................................+++++++++",
"...........................................................................+",
".++++++++++++.....................................................++++++++++",
"...........................................................................+",
".+++++++++++++.................................................+++++++++++++",
"...........................................................................+",
".++++++++++++++++.............................................++++++++++++++",
"...........................................................................+",
".+++++++++++++++++++++++++++++++++++++++++++++++++++++++++++++++++++++++++++",
".+++++++++++++++++++++++++++++++++++++++++++++++++++++++++++++++++++++++++++",
".+++++++++++++++++++++++++++++++++++++++++++++++++++++++++++++++++++++++++++"};
