/* XPM */
static char * PressedFPL_xpm[] = {
"30 24 3 1",
" 	c None",
".      s background m black c NSCDE_BG_COLOR_6",
"+      s selectColor m black c NSCDE_SEL_COLOR_5",
"..............................",
"..++++++++++++++++++++++++++..",
"..++++++++++++++++++++++++++..",
"..++++++++++++++++++++++++++..",
"..++++++++++++++++++++++++++..",
"..++++++++++++++++++++++++++..",
"..++++++++++++++++++++++++++..",
"..++++++++++++++++++++++++++..",
"..++++++++++++++++++++++++++..",
"..++++++++++++++++++++++++++..",
"..++++++++++++++++++++++++++..",
"..++++++++++++++++++++++++++..",
"..++++++++++++++++++++++++++..",
"..++++++++++++++++++++++++++..",
"..++++++++++++++++++++++++++..",
"..++++++++++++++++++++++++++..",
"..++++++++++++++++++++++++++..",
"..++++++++++++++++++++++++++..",
"..++++++++++++++++++++++++++..",
"..++++++++++++++++++++++++++..",
"..++++++++++++++++++++++++++..",
"..++++++++++++++++++++++++++..",
"..++++++++++++++++++++++++++..",
".............................."};
