/* XPM */
/* This file is a part of the NsCDE - Not so Common Desktop Environment */
static char * SelectedL_xpm[] = {
"59 57 3 1",
" 	c None",
".	s background m black c NSCDE_BG_COLOR_1",
"+	s selectColor m black c NSCDE_SEL_COLOR_5",
"...........................................................",
".+++++++++++++++++++++++++++++++++++++++++++++++++++++++++.",
".+++++++++++++++++++++++++++++++++++++++++++++++++++++++++.",
".+++++++++++++++++++++++++++++++++++++++++++++++++++++++++.",
".+++++++++++++++++++++++++++++++++++++++++++++++++++++++++.",
".+++++++++++++++++++++++++++++++++++++++++++++++++++++++++.",
".+++++++++++++++++++++++++++++++++++++++++++++++++++++++++.",
".+++++++++++++++++++++++++++++++++++++++++++++++++++++++++.",
".+++++++++++++++++++++++++++++++++++++++++++++++++++++++++.",
".+++++++++++++++++++++++++++++++++++++++++++++++++++++++++.",
".+++++++++++++++++++++++++++++++++++++++++++++++++++++++++.",
".+++++++++++++++++++++++++++++++++++++++++++++++++++++++++.",
".+++++++++++++++++++++++++++++++++++++++++++++++++++++++++.",
".+++++++++++++++++++++++++++++++++++++++++++++++++++++++++.",
".+++++++++++++++++++++++++++++++++++++++++++++++++++++++++.",
".+++++++++++++++++++++++++++++++++++++++++++++++++++++++++.",
".+++++++++++++++++++++++++++++++++++++++++++++++++++++++++.",
".+++++++++++++++++++++++++++++++++++++++++++++++++++++++++.",
".+++++++++++++++++++++++++++++++++++++++++++++++++++++++++.",
".+++++++++++++++++++++++++++++++++++++++++++++++++++++++++.",
".+++++++++++++++++++++++++++++++++++++++++++++++++++++++++.",
".+++++++++++++++++++++++++++++++++++++++++++++++++++++++++.",
".+++++++++++++++++++++++++++++++++++++++++++++++++++++++++.",
".+++++++++++++++++++++++++++++++++++++++++++++++++++++++++.",
".+++++++++++++++++++++++++++++++++++++++++++++++++++++++++.",
".+++++++++++++++++++++++++++++++++++++++++++++++++++++++++.",
".+++++++++++++++++++++++++++++++++++++++++++++++++++++++++.",
".+++++++++++++++++++++++++++++++++++++++++++++++++++++++++.",
".+++++++++++++++++++++++++++++++++++++++++++++++++++++++++.",
".+++++++++++++++++++++++++++++++++++++++++++++++++++++++++.",
".+++++++++++++++++++++++++++++++++++++++++++++++++++++++++.",
".+++++++++++++++++++++++++++++++++++++++++++++++++++++++++.",
".+++++++++++++++++++++++++++++++++++++++++++++++++++++++++.",
".+++++++++++++++++++++++++++++++++++++++++++++++++++++++++.",
".+++++++++++++++++++++++++++++++++++++++++++++++++++++++++.",
".+++++++++++++++++++++++++++++++++++++++++++++++++++++++++.",
".+++++++++++++++++++++++++++++++++++++++++++++++++++++++++.",
".+++++++++++++++++++++++++++++++++++++++++++++++++++++++++.",
".+++++++++++++++++++++++++++++++++++++++++++++++++++++++++.",
".+++++++++++++++++++++++++++++++++++++++++++++++++++++++++.",
".+++++++++++++++++++++++++++++++++++++++++++++++++++++++++.",
".+++++++++++++++++++++++++++++++++++++++++++++++++++++++++.",
".+++++++++++++++++++++++++++++++++++++++++++++++++++++++++.",
".+++++++++++++++++++++++++++++++++++++++++++++++++++++++++.",
".+++++++++++++++++++++++++++++++++++++++++++++++++++++++++.",
".+++++++++++++++++++++++++++++++++++++++++++++++++++++++++.",
".+++++++++++++++++++++++++++++++++++++++++++++++++++++++++.",
".+++++++++++++++++++++++++++++++++++++++++++++++++++++++++.",
".+++++++++++++++++++++++++++++++++++++++++++++++++++++++++.",
".+++++++++++++++++++++++++++++++++++++++++++++++++++++++++.",
".+++++++++++++++++++++++++++++++++++++++++++++++++++++++++.",
".+++++++++++++++++++++++++++++++++++++++++++++++++++++++++.",
".+++++++++++++++++++++++++++++++++++++++++++++++++++++++++.",
".+++++++++++++++++++++++++++++++++++++++++++++++++++++++++.",
".+++++++++++++++++++++++++++++++++++++++++++++++++++++++++.",
".+++++++++++++++++++++++++++++++++++++++++++++++++++++++++.",
"..........................................................."};
