/* XPM */
/* This file is a part of the NsCDE - Not so Common Desktop Environment */
static char * WSM2BackBtn2_xpm[] = {
"254 28 3 1",
"       s background   m black   c #949494949494",
".      s topShadowColor   m white   c #bdbdbdbdbdbd",
"#      s bottomShadowColor   m white   c #636363636363",
"##############################################################################################################################################################################################################################################################",
"#                                                                                                                                                                                                                                                            .",
"#                                                                                                                                                                                                                                                            .",
"#                                                                                                                                                                                                                                                            .",
"#                                                                                                                                                                                                                                                            .",
"#                                                                                                                                                                                                                                                            .",
"#                                                                                                                                                                                                                                                            .",
"#                                                                                                                                                                                                                                                            .",
"#                                                                                                                                                                                                                                                            .",
"#                                                                                                                                                                                                                                                            .",
"#                                                                                                                                                                                                                                                            .",
"#                                                                                                                                                                                                                                                            .",
"#                                                                                                                                                                                                                                                            .",
"#                                                                                                                                                                                                                                                            .",
"#                                                                                                                                                                                                                                                            .",
"#                                                                                                                                                                                                                                                            .",
"#                                                                                                                                                                                                                                                            .",
"#                                                                                                                                                                                                                                                            .",
"#                                                                                                                                                                                                                                                            .",
"#                                                                                                                                                                                                                                                            .",
"#                                                                                                                                                                                                                                                            .",
"#                                                                                                                                                                                                                                                            .",
"#                                                                                                                                                                                                                                                            .",
"#                                                                                                                                                                                                                                                            .",
"#                                                                                                                                                                                                                                                            .",
"#                                                                                                                                                                                                                                                            .",
"#                                                                                                                                                                                                                                                            .",
"#............................................................................................................................................................................................................................................................."};
