/* XPM */
static char * WSM6BackBtn3_xpm[] = {
"84 28 2 1",
"       s black   m black   c #000000000000",
".      s topShadowColor   m white   c #ada7ce80d7f3",
"                                                                                    ",
"                                                                                   .",
"                                                                                   .",
"                                                                                   .",
"                                                                                   .",
"                                                                                   .",
"                                                                                   .",
"                                                                                   .",
"                                                                                   .",
"                                                                                   .",
"                                                                                   .",
"                                                                                   .",
"                                                                                   .",
"                                                                                   .",
"                                                                                   .",
"                                                                                   .",
"                                                                                   .",
"                                                                                   .",
"                                                                                   .",
"                                                                                   .",
"                                                                                   .",
"                                                                                   .",
"                                                                                   .",
"                                                                                   .",
"                                                                                   .",
"                                                                                   .",
"                                                                                   .",
" ..................................................................................."};
