/* XPM */
/* This file is a part of the NsCDE - Not so Common Desktop Environment */
static char * WSM6BackBtn1_xpm[] = {
"84 28 2 1",
"       s black   m black   c #000000000000",
".      s topShadowColor   m white   c #cbb8d232da1c",
"                                                                                    ",
"                                                                                   .",
"                                                                                   .",
"                                                                                   .",
"                                                                                   .",
"                                                                                   .",
"                                                                                   .",
"                                                                                   .",
"                                                                                   .",
"                                                                                   .",
"                                                                                   .",
"                                                                                   .",
"                                                                                   .",
"                                                                                   .",
"                                                                                   .",
"                                                                                   .",
"                                                                                   .",
"                                                                                   .",
"                                                                                   .",
"                                                                                   .",
"                                                                                   .",
"                                                                                   .",
"                                                                                   .",
"                                                                                   .",
"                                                                                   .",
"                                                                                   .",
"                                                                                   .",
" ..................................................................................."};
