/* XPM */
/* This file is a part of the NsCDE - Not so Common Desktop Environment */
static char * WSM8BackBtn1_xpm[] = {
"62 28 2 1",
"       s black   m black   c #000000000000",
".      s topShadowColor   m white   c #cbb8d232da1c",
"                                                              ",
"                                                             .",
"                                                             .",
"                                                             .",
"                                                             .",
"                                                             .",
"                                                             .",
"                                                             .",
"                                                             .",
"                                                             .",
"                                                             .",
"                                                             .",
"                                                             .",
"                                                             .",
"                                                             .",
"                                                             .",
"                                                             .",
"                                                             .",
"                                                             .",
"                                                             .",
"                                                             .",
"                                                             .",
"                                                             .",
"                                                             .",
"                                                             .",
"                                                             .",
"                                                             .",
" ............................................................."};
