/* XPM */
static char * WSM8BackBtn4_xpm[] = {
"62 28 2 1",
"       s black   m black   c #000000000000",
".      s topShadowColor   m white   c #dfd6cab1cd56",
"                                                              ",
"                                                             .",
"                                                             .",
"                                                             .",
"                                                             .",
"                                                             .",
"                                                             .",
"                                                             .",
"                                                             .",
"                                                             .",
"                                                             .",
"                                                             .",
"                                                             .",
"                                                             .",
"                                                             .",
"                                                             .",
"                                                             .",
"                                                             .",
"                                                             .",
"                                                             .",
"                                                             .",
"                                                             .",
"                                                             .",
"                                                             .",
"                                                             .",
"                                                             .",
"                                                             .",
" ............................................................."};
