/* $XConsortium: Dtinfo.t.bm /main/2 1996/10/30 14:28:54 drk $ */
#define Dtinfo.t.bm_width 16
#define Dtinfo.t.bm_height 16
#define Dtinfo.t.bm_x_hot 0
#define Dtinfo.t.bm_y_hot 0
static char Dtinfo.t.bm_bits[] = {
   0x1f, 0xf8, 0xef, 0xff, 0x77, 0xfe, 0xf9, 0xbf, 0x78, 0xbe, 0x38, 0xbe,
   0x78, 0xbe, 0x78, 0xbe, 0x78, 0xbc, 0xf8, 0x9f, 0xf0, 0x8f, 0xe0, 0x87,
   0x00, 0x81, 0x00, 0x81, 0x7e, 0xff, 0xff, 0xff};
