/* $XConsortium: Dtinf.t.bm /main/2 1995/07/17 15:48:07 drk $ */
#define Dtinf.t.bm_width 16
#define Dtinf.t.bm_height 16
#define Dtinf.t.bm_x_hot 0
#define Dtinf.t.bm_y_hot 0
static unsigned char Dtinf.t.bm_bits[] = {
   0x55, 0xd5, 0x00, 0xe0, 0xe1, 0xe1, 0x10, 0xe2, 0x11, 0xe2, 0x20, 0xe1,
   0x21, 0xe1, 0xc0, 0xe0, 0xc1, 0xe0, 0x20, 0xe1, 0x21, 0xe1, 0x10, 0xe2,
   0x11, 0xe2, 0xe0, 0xe1, 0x01, 0xe0, 0xfe, 0xff};
