/* $XConsortium: DtMnew.t_m.bm /main/2 1995/07/17 14:55:34 drk $ */
#define DtMnew.t_m.bm_width 16
#define DtMnew.t_m.bm_height 16
#define DtMnew.t_m.bm_x_hot 0
#define DtMnew.t_m.bm_y_hot 0
static char DtMnew.t_m.bm_bits[] = {
   0x00, 0x00, 0x00, 0x04, 0x00, 0x0e, 0x00, 0x1f, 0xfe, 0x3f, 0xfe, 0x7f,
   0xfe, 0xff, 0xfe, 0x7f, 0xfe, 0x7f, 0xff, 0xff, 0xff, 0xff, 0xff, 0xff,
   0xff, 0xff, 0xff, 0xff, 0xff, 0xff, 0xfe, 0x7f};
