/* $XConsortium: DtMnew.t.bm /main/2 1995/07/17 14:55:19 drk $ */
#define DtMnew.t.bm_width 16
#define DtMnew.t.bm_height 16
#define DtMnew.t.bm_x_hot 0
#define DtMnew.t.bm_y_hot 0
static char DtMnew.t.bm_bits[] = {
   0x00, 0x00, 0x00, 0x04, 0x00, 0x0a, 0x00, 0x15, 0xfa, 0x22, 0x40, 0x40,
   0x22, 0x84, 0x50, 0x42, 0x2a, 0x61, 0x1f, 0xf8, 0x11, 0xc8, 0xe5, 0xc7,
   0x09, 0xe0, 0x55, 0xd5, 0xa9, 0xea, 0xfe, 0x7f};
