/* $XConsortium: Dtrunpn.t.bm /main/2 1995/07/17 16:05:20 drk $ */
#define create_action.t.bm_width 16
#define create_action.t.bm_height 16
#define create_action.t.bm_x_hot 0
#define create_action.t.bm_y_hot 0
static char create_action.t.bm_bits[] = {
   0x03, 0xe8, 0x55, 0xf1, 0xaa, 0xa6, 0x34, 0xd6, 0xaa, 0xaa, 0x20, 0xd6,
   0x7a, 0x0c, 0xd4, 0xf8, 0xea, 0xd1, 0xf4, 0xa3, 0xea, 0xc6, 0xe4, 0x8d,
   0xb2, 0xda, 0x58, 0xf5, 0xad, 0xea, 0x7b, 0xff};
