/* $XConsortium: Dtrunpn.t_m.bm /main/2 1995/07/17 16:05:35 drk $ */
#define create_action.t_m.bm_width 16
#define create_action.t_m.bm_height 16
#define create_action.t_m.bm_x_hot 0
#define create_action.t_m.bm_y_hot 0
static char create_action.t_m.bm_bits[] = {
   0xfc, 0x3f, 0xaa, 0x7e, 0x55, 0xfd, 0xeb, 0xbb, 0xf5, 0xdf, 0xff, 0xaf,
   0xfd, 0xff, 0xeb, 0xff, 0xf5, 0xbf, 0xeb, 0xff, 0xf5, 0xff, 0xbb, 0xff,
   0x5d, 0xff, 0xaf, 0xfb, 0xd6, 0x75, 0xfe, 0x3f};
