/* $XConsortium: Dtdeflt.t_m.bm /main/2 1995/07/17 15:24:44 drk $ */
#define Dtdeflt.t_m.bm_width 16
#define Dtdeflt.t_m.bm_height 16
#define Dtdeflt.t_m.bm_x_hot 0
#define Dtdeflt.t_m.bm_y_hot 0
static unsigned char Dtdeflt.t_m.bm_bits[] = {
   0xfc, 0x7f, 0xfc, 0x7f, 0xfc, 0x7f, 0xfc, 0x7f, 0xfc, 0x7f, 0xfc, 0x7f,
   0xfc, 0x7f, 0xfc, 0x7f, 0xfc, 0x7f, 0xfc, 0x7f, 0xfc, 0x7f, 0xfc, 0x7f,
   0xfc, 0x7f, 0xfc, 0x7f, 0xfc, 0x7f, 0xf8, 0x7f};
