/* $XConsortium: DtdirR.t.bm /main/2 1995/07/17 15:26:23 drk $ */
#define DtdirR.t.bm_width 16
#define DtdirR.t.bm_height 16
#define DtdirR.t.bm_x_hot 0
#define DtdirR.t.bm_y_hot 0
static unsigned char DtdirR.t.bm_bits[] = {
   0xff, 0xff, 0xff, 0x81, 0xff, 0x7e, 0xab, 0xaa, 0x00, 0xc0, 0x54, 0xd5,
   0xaa, 0xea, 0x54, 0xd5, 0xaa, 0xea, 0x54, 0xd5, 0xaa, 0xea, 0x54, 0xd5,
   0xaa, 0xea, 0xff, 0xff, 0xff, 0xff, 0xff, 0xff};
