/* $XConsortium: Dtdirlk.t.bm /main/2 1995/07/17 15:28:14 drk $ */
#define Dtdirlk.t.bm_width 16
#define Dtdirlk.t.bm_height 16
#define Dtdirlk.t.bm_x_hot 0
#define Dtdirlk.t.bm_y_hot 0
static unsigned char Dtdirlk.t.bm_bits[] = {
   0xff, 0xff, 0xff, 0x81, 0xff, 0x7e, 0xab, 0xaa, 0x00, 0x80, 0x54, 0xd7,
   0xaa, 0xed, 0x54, 0xd5, 0xaa, 0xed, 0xd4, 0xdf, 0xaa, 0xef, 0xd4, 0xdf,
   0xaa, 0xea, 0xff, 0xff, 0xff, 0xff, 0xff, 0xff};
