/* $XConsortium: Dtfpcfg.t.bm /main/2 1995/07/17 15:34:21 drk $ */
#define Dtfpcfg.t.bm_width 16
#define Dtfpcfg.t.bm_height 16
#define Dtfpcfg.t.bm_x_hot 0
#define Dtfpcfg.t.bm_y_hot 0
static unsigned char Dtfpcfg.t.bm_bits[] = {
   0xff, 0xff, 0xff, 0xff, 0xff, 0xff, 0xff, 0xe0, 0x7f, 0xff, 0x07, 0xdc,
   0xb7, 0xdd, 0x17, 0x88, 0xbf, 0xdd, 0xaa, 0xfa, 0x15, 0xf9, 0xa2, 0xfa,
   0xff, 0xff, 0xff, 0xdf, 0xff, 0x8f, 0xff, 0xdf};
