/* $XConsortium: DtMail.t.bm /main/2 1995/07/17 14:51:31 drk $ */
#define DtMail.t.bm_width 16
#define DtMail.t.bm_height 16
#define DtMail.t.bm_x_hot 0
#define DtMail.t.bm_y_hot 0
static char DtMail.t.bm_bits[] = {
   0x00, 0x00, 0x00, 0x00, 0x00, 0x00, 0x00, 0x00, 0xa8, 0x1e, 0x00, 0x20,
   0x18, 0x2a, 0x00, 0x20, 0x60, 0x23, 0x1f, 0xf8, 0x11, 0xc8, 0xe5, 0xc7,
   0x09, 0xe0, 0x55, 0xd5, 0xa9, 0xea, 0xfe, 0x7f};
