/* $XConsortium: DtPrtpr.t.bm /main/2 1995/07/17 15:00:40 drk $ */
#define DtPrtpr.t.bm_width 16
#define DtPrtpr.t.bm_height 16
#define DtPrtpr.t.bm_x_hot 0
#define DtPrtpr.t.bm_y_hot 0
static char DtPrtpr.t.bm_bits[] = {
   0xff, 0xff, 0xff, 0xff, 0xff, 0xff, 0x0f, 0xf8, 0x0f, 0xf8, 0x03, 0xd8,
   0xf9, 0x9f, 0x01, 0x80, 0x01, 0xb8, 0x01, 0xb0, 0x01, 0x80, 0xf1, 0x8f,
   0xf5, 0xff, 0xff, 0xff, 0xff, 0xff, 0xff, 0xff};
