/* $XConsortium: Fpexit.t.bm /main/2 1995/07/17 16:27:54 drk $ */
#define Fpexit.t.bm_width 16
#define Fpexit.t.bm_height 16
#define Fpexit.t.bm_x_hot 0
#define Fpexit.t.bm_y_hot 0
static char Fpexit.t.bm_bits[] = {
   0xff, 0xff, 0xff, 0xff, 0xff, 0xff, 0xff, 0xff, 0x01, 0x00, 0x01, 0x40,
   0xad, 0x7a, 0xa5, 0x52, 0x45, 0x52, 0x4d, 0x52, 0x45, 0x52, 0xa5, 0x52,
   0xad, 0x52, 0x01, 0x40, 0xfd, 0x7f, 0x01, 0x00};
