/* XPM */
/* This file is a part of the NsCDE - Not so Common Desktop Environment */
static char *_6x16_media_playback_start_rtl[] = {
/* columns rows colors chars-per-pixel */
"16 16 4 1 ",
"@ s foreground m white c NSCDE_FG_COLOR_5",
". s bottomShadowColor m black c NSCDE_BS_COLOR_5",
"X s background m black c NSCDE_BG_COLOR_5",
"o s topShadowColor m white c NSCDE_TS_COLOR_5",
/* pixels */
"oooooooooooooooo",
"oXXXXXXXXXXXXXX.",
"oXXXXXXXXXXXXXX.",
"oXXXXXXXXXXXXXX.",
"oXXXXXXXXX@@XXX.",
"oXXXXXXX@@@@XXX.",
"oXXXXX@@@@@@XXX.",
"oXXX@@@@@@@@XXX.",
"oXXX@@@@@@@@XXX.",
"oXXXXX@@@@@@XXX.",
"oXXXXXXX@@@@XXX.",
"oXXXXXXXXX@@XXX.",
"oXXXXXXXXXXXXXX.",
"oXXXXXXXXXXXXXX.",
"oXXXXXXXXXXXXXX.",
"o..............."
};
