/* XPM */
/* This file is a part of the NsCDE - Not so Common Desktop Environment */
static char *format_text_italic[] = {
/* columns rows colors chars-per-pixel */
"16 16 4 1 ",
"@ s foreground m white c NSCDE_FG_COLOR_5",
". s bottomShadowColor m black c NSCDE_BS_COLOR_5",
"X s background m black c NSCDE_BG_COLOR_5",
"o s topShadowColor m white c NSCDE_TS_COLOR_5",
/* pixels */
"ooooooooooooooo.",
"oXXXXXXXXXXXXXX.",
"oXXXXXX@@XXXXXX.",
"oXXXXXX@@XXXXXX.",
"oXXXXXXXXXXXXXX.",
"oXXXXXX@@XXXXXX.",
"oXXXXXX@@XXXXXX.",
"oXXXXXX@@XXXXXX.",
"oXXXXX@@XXXXXXX.",
"oXXXXX@@XXXXXXX.",
"oXXXXX@@XXXXXXX.",
"oXXXX@@XXXXXXXX.",
"oXXXX@@XXXXXXXX.",
"oXXXX@@XXXXXXXX.",
"oXXXXXXXXXXXXXX.",
"................"
};
