/* XPM */
/* This file is a part of the NsCDE - Not so Common Desktop Environment */
static char *view_refresh_16x16[] = {
/* columns rows colors chars-per-pixel */
"16 16 4 1 ",
"X      s None m None c None",
".      s bottomShadowColor m black c NSCDE_BS_COLOR_5",
"o      s topShadowColor m black c NSCDE_TS_COLOR_5",
"@      s foreground m black c NSCDE_FG_COLOR_5",
/* pixels */
"ooooooooooooooo.",
"oXXXXXX@@@XXXXX.",
"oXXXX@@@X@@@XXX.",
"oXXXX@@XXX@@XXX.",
"oXXX@@@XXX@@@XX.",
"oX@@@@@@@X@@@XX.",
"oXX@@@@@XX@@@XX.",
"oXXX@@@XXX@XXXX.",
"oXXXX@XXX@@@XXX.",
"oXX@@@XX@@@@@XX.",
"oXX@@@X@@@@@@@X.",
"oXX@@@XXX@@@XXX.",
"oXXX@@XXX@@XXXX.",
"oXXX@@@X@@@XXXX.",
"oXXXXX@@@XXXXXX.",
"o..............."
};
