/* XPM */
/* This file is a part of the NsCDE - Not so Common Desktop Environment */
static char *list_remove_22x22[] = {
/* columns rows colors chars-per-pixel */
"22 22 4 1 ",
".      s None m None c None",
"@      s bottomShadowColor m black c NSCDE_BS_COLOR_5",
"X      s topShadowColor m black c NSCDE_TS_COLOR_5",
"o      s foreground m black c NSCDE_FG_COLOR_5",
/* pixels */
"XXXXXXXXXXXXXXXXXXXXXX",
"X....................@",
"X....................@",
"X....................@",
"X....................@",
"X....................@",
"X....................@",
"X....................@",
"X....................@",
"X...oooooooooooooo...@",
"X...oooooooooooooo...@",
"X...oooooooooooooo...@",
"X...oooooooooooooo...@",
"X....................@",
"X....................@",
"X....................@",
"X....................@",
"X....................@",
"X....................@",
"X....................@",
"X....................@",
"X@@@@@@@@@@@@@@@@@@@@@"
};
