/* XPM */
/* This file is a part of the NsCDE - Not so Common Desktop Environment */
static char *_2x22_media_skip_forward_rtl[] = {
/* columns rows colors chars-per-pixel */
"22 22 4 1 ",
"@ s foreground m white c NSCDE_FG_COLOR_5",
". s bottomShadowColor m black c NSCDE_BS_COLOR_5",
"X s background m black c NSCDE_BG_COLOR_5",
"o s topShadowColor m white c NSCDE_TS_COLOR_5",
/* pixels */
"oooooooooooooooooooooo",
"oXXXXXXXXXXXXXXXXXXXX.",
"oXXXXXXXXXXXXXXXXXXXX.",
"oXXXXXXXXXXXXXXXXXXXX.",
"oXX@@XXXXXXXXXXXXXXXX.",
"oXX@@XXXXXX@XXXXXX@XX.",
"oXX@@XXXXX@@XXXXX@@XX.",
"oXX@@XXXX@@@XXXX@@@XX.",
"oXX@@XXX@@@@XXX@@@@XX.",
"oXX@@XX@@@@@XX@@@@@XX.",
"oXX@@X@@@@@@X@@@@@@XX.",
"oXX@@@@@@@@@@@@@@@@XX.",
"oXX@@X@@@@@@X@@@@@@XX.",
"oXX@@XX@@@@@XX@@@@@XX.",
"oXX@@XXX@@@@XXX@@@@XX.",
"oXX@@XXXX@@@XXXX@@@XX.",
"oXX@@XXXXX@@XXXXX@@XX.",
"oXX@@XXXXXX@XXXXXX@XX.",
"oXX@@XXXXXXXXXXXXXXXX.",
"oXXXXXXXXXXXXXXXXXXXX.",
"oXXXXXXXXXXXXXXXXXXXX.",
"o....................."
};
