/* XPM */
/* This file is a part of the NsCDE - Not so Common Desktop Environment */
static char *format_text_bold[] = {
/* columns rows colors chars-per-pixel */
"22 22 4 1 ",
"@ s foreground m white c NSCDE_FG_COLOR_5",
". s bottomShadowColor m black c NSCDE_BS_COLOR_5",
"X s background m black c NSCDE_BG_COLOR_5",
"o s topShadowColor m white c NSCDE_TS_COLOR_5",
/* pixels */
"ooooooooooooooooooooo.",
"oXXXXXXXXXXXXXXXXXXXX.",
"oXXXXXXXXXXXXXXXXXXXX.",
"oXXXXXXXXXXXXXXXXXXXX.",
"oXXXXX@@@@@@@@XXXXXXX.",
"oXXXXX@@@@@@@@@XXXXXX.",
"oXXXXX@@@XXXX@@@XXXXX.",
"oXXXXX@@@XXXX@@@XXXXX.",
"oXXXXX@@@XXXX@@@XXXXX.",
"oXXXXX@@@XXXX@@@XXXXX.",
"oXXXXX@@@@@@@@@XXXXXX.",
"oXXXXX@@@@@@@@@@XXXXX.",
"oXXXXX@@@XXXX@@@@XXXX.",
"oXXXXX@@@XXXXX@@@XXXX.",
"oXXXXX@@@XXXXX@@@XXXX.",
"oXXXXX@@@XXXX@@@@XXXX.",
"oXXXXX@@@@@@@@@@XXXXX.",
"oXXXXX@@@@@@@@@XXXXXX.",
"oXXXXXXXXXXXXXXXXXXXX.",
"oXXXXXXXXXXXXXXXXXXXX.",
"oXXXXXXXXXXXXXXXXXXXX.",
"......................"
};
