/* XPM */
/* This file is a part of the NsCDE - Not so Common Desktop Environment */
static char *format_text_strikethrough[] = {
/* columns rows colors chars-per-pixel */
"24 24 4 1 ",
"@ s foreground m white c NSCDE_FG_COLOR_5",
". s bottomShadowColor m black c NSCDE_BS_COLOR_5",
"X s background m black c NSCDE_BG_COLOR_5",
"o s topShadowColor m white c NSCDE_TS_COLOR_5",
/* pixels */
"ooooooooooooooooooooooo.",
"oooooooooooooooooooooo..",
"ooXXXXXXXXXXXXXXXXXXXX..",
"ooXXXXXXXXXXXXXXXXXXXX..",
"ooXXXXXXX@@@@@@@XXXXXX..",
"ooXXXXX@@XXXXX@@XXXXXX..",
"ooXXXX@@XXXXXXXXXXXXXX..",
"ooXXXX@@XXXXXXXXXXXXXX..",
"ooXXXX@@XXXXXXXXXXXXXX..",
"ooXXXX@@@XXXXXXXXXXXXX..",
"ooXXXX@@@@@@@XXXXXXXXX..",
"ooXXXXX@@@@@@@@XXXXXXX..",
"ooXXXXXXX@@@@@@@XXXXXX..",
"ooXXXXXXXXXXX@@@@XXXXX..",
"ooXXXXXXXXXXXX@@@XXXXX..",
"ooXX@@@@@@@@@@@@@@@@XX..",
"ooXXXXXXXXXXXXX@@XXXXX..",
"ooXXXXXXXXXXXXX@@XXXXX..",
"ooXXXX@@XXXXXX@@XXXXXX..",
"ooXXXX@@@@@@@@XXXXXXXX..",
"ooXXXXXXXXXXXXXXXXXXXX..",
"ooXXXXXXXXXXXXXXXXXXXX..",
"o.......................",
"........................"
};
