/* XPM */
/* This file is a part of the NsCDE - Not so Common Desktop Environment */
static char *_4x24_media_seek_forward_rtl[] = {
/* columns rows colors chars-per-pixel */
"24 24 4 1 ",
"@ s foreground m white c NSCDE_FG_COLOR_5",
". s bottomShadowColor m black c NSCDE_BS_COLOR_5",
"X s background m black c NSCDE_BG_COLOR_5",
"o s topShadowColor m white c NSCDE_TS_COLOR_5",
/* pixels */
"oooooooooooooooooooooooo",
"ooooooooooooooooooooooo.",
"ooXXXXXXXXXXXXXXXXXXXX..",
"ooXXXXXXXXXXXXXXXXXXXX..",
"ooXXXXXXXXXXXXXXXXXXXX..",
"ooXXXXXXXXXXXXXXXXXXXX..",
"ooXXXXXXXXX@XXXXXX@XXX..",
"ooXXXXXXXX@@XXXXX@@XXX..",
"ooXXXXXXX@@@XXXX@@@XXX..",
"ooXXXXXX@@@@XXX@@@@XXX..",
"ooXXXXX@@@@@XX@@@@@XXX..",
"ooXXXX@@@@@@X@@@@@@XXX..",
"ooXXX@@@@@@@@@@@@@@XXX..",
"ooXXXX@@@@@@X@@@@@@XXX..",
"ooXXXXX@@@@@XX@@@@@XXX..",
"ooXXXXXX@@@@XXX@@@@XXX..",
"ooXXXXXXX@@@XXXX@@@XXX..",
"ooXXXXXXXX@@XXXXX@@XXX..",
"ooXXXXXXXXX@XXXXXX@XXX..",
"ooXXXXXXXXXXXXXXXXXXXX..",
"ooXXXXXXXXXXXXXXXXXXXX..",
"ooXXXXXXXXXXXXXXXXXXXX..",
"oo......................",
"o......................."
};
