/* XPM */
/* This file is a part of the NsCDE - Not so Common Desktop Environment */
static char *_2x32_media_eject[] = {
/* columns rows colors chars-per-pixel */
"32 32 4 1 ",
"@ s foreground m white c NSCDE_FG_COLOR_5",
". s bottomShadowColor m black c NSCDE_BS_COLOR_5",
"X s background m black c NSCDE_BG_COLOR_5",
"o s topShadowColor m white c NSCDE_TS_COLOR_5",
/* pixels */
"oooooooooooooooooooooooooooooooo",
"ooooooooooooooooooooooooooooooo.",
"ooXXXXXXXXXXXXXXXXXXXXXXXXXXXX..",
"ooXXXXXXXXXXXXXXXXXXXXXXXXXXXX..",
"ooXXXXXXXXXXXXXXXXXXXXXXXXXXXX..",
"ooXXXXXXXXXXXXXXXXXXXXXXXXXXXX..",
"ooXXXXXXXXXXXXXXXXXXXXXXXXXXXX..",
"ooXXXXXXXXXXXXXXXXXXXXXXXXXXXX..",
"ooXXXXXXXXXXXXXXXXXXXXXXXXXXXX..",
"ooXXXXXXXXXXXXXXXXXXXXXXXXXXXX..",
"ooXXXXXXXXXXXXXXXXXXXXXXXXXXXX..",
"ooXXXXXXXXXXXXX@XXXXXXXXXXXXXX..",
"ooXXXXXXXXXXXX@@@XXXXXXXXXXXXX..",
"ooXXXXXXXXXXX@@@@@XXXXXXXXXXXX..",
"ooXXXXXXXXXX@@@@@@@XXXXXXXXXXX..",
"ooXXXXXXXXX@@@@@@@@@XXXXXXXXXX..",
"ooXXXXXXXX@@@@@@@@@@@XXXXXXXXX..",
"ooXXXXXXXXXXXXXXXXXXXXXXXXXXXX..",
"ooXXXXXXXXXXXXXXXXXXXXXXXXXXXX..",
"ooXXXXXXXX@@@@@@@@@@@XXXXXXXXX..",
"ooXXXXXXXX@@@@@@@@@@@XXXXXXXXX..",
"ooXXXXXXXXXXXXXXXXXXXXXXXXXXXX..",
"ooXXXXXXXXXXXXXXXXXXXXXXXXXXXX..",
"ooXXXXXXXXXXXXXXXXXXXXXXXXXXXX..",
"ooXXXXXXXXXXXXXXXXXXXXXXXXXXXX..",
"ooXXXXXXXXXXXXXXXXXXXXXXXXXXXX..",
"ooXXXXXXXXXXXXXXXXXXXXXXXXXXXX..",
"ooXXXXXXXXXXXXXXXXXXXXXXXXXXXX..",
"ooXXXXXXXXXXXXXXXXXXXXXXXXXXXX..",
"ooXXXXXXXXXXXXXXXXXXXXXXXXXXXX..",
"oo..............................",
"o..............................."
};
