/* XPM */
/* This file is a part of the NsCDE - Not so Common Desktop Environment */
static char *_8x48_media_skip_backward_rtl[] = {
/* columns rows colors chars-per-pixel */
"48 48 4 1 ",
"@ s foreground m white c NSCDE_FG_COLOR_5",
". s bottomShadowColor m black c NSCDE_BS_COLOR_5",
"X s background m black c NSCDE_BG_COLOR_5",
"o s topShadowColor m white c NSCDE_TS_COLOR_5",
/* pixels */
"oooooooooooooooooooooooooooooooooooooooooooooooo",
"ooooooooooooooooooooooooooooooooooooooooooooooo.",
"oooooooooooooooooooooooooooooooooooooooooooooo..",
"oooXXXXXXXXXXXXXXXXXXXXXXXXXXXXXXXXXXXXXXXXXX...",
"oooXXXXXXXXXXXXXXXXXXXXXXXXXXXXXXXXXXXXXXXXXX...",
"oooXXXXXXXXXXXXXXXXXXXXXXXXXXXXXXXXXXXXXXXXXX...",
"oooXXXXXXXXXXXXXXXXXXXXXXXXXXXXXXXXXXXXXXXXXX...",
"oooXXXXXXXXXXXXXXXXXXXXXXXXXXXXXXXXXXXXXXXXXX...",
"oooXXXXXXXXXXXXXXXXXXXXXXXXXXXXXXXXXXXXXXXXXX...",
"oooXXXXXXXXXXXXXXXXXXXXXXXXXXXXXXXXXXXXXXXXXX...",
"oooXXXXXXXXXXXXXXXXXXXXXXXXXXXXXXXXXXXXXXXXXX...",
"oooXXXXXXXXXXXXXXXXXXXXXXXXXXXXXXXXXXXXXXXXXX...",
"oooXXXXXXXXXXXXXXXXXXXXXXXXXXXXXXXXXXXXXXXXXX...",
"oooXXXXXXXXXXXXXXXXXXXXXXXXXXXXXXXXXXXX@@@XXX...",
"oooXXXXXXXXXXXXXXXXXXXXXXXXXXXXXXXXXXXX@@@XXX...",
"oooXXX@@@XXXXXXXXXXXXX@@@XXXXXXXXXXXXXX@@@XXX...",
"oooXXX@@@@@XXXXXXXXXXX@@@@@XXXXXXXXXXXX@@@XXX...",
"oooXXX@@@@@@@XXXXXXXXX@@@@@@@XXXXXXXXXX@@@XXX...",
"oooXXX@@@@@@@@@XXXXXXX@@@@@@@@@XXXXXXXX@@@XXX...",
"oooXXX@@@@@@@@@@@XXXXX@@@@@@@@@@@XXXXXX@@@XXX...",
"oooXXX@@@@@@@@@@@@@XXX@@@@@@@@@@@@@XXXX@@@XXX...",
"oooXXX@@@@@@@@@@@@@@@X@@@@@@@@@@@@@@@XX@@@XXX...",
"oooXXX@@@@@@@@@@@@@@@@@@@@@@@@@@@@@@@@@@@@XXX...",
"oooXXX@@@@@@@@@@@@@@@@@@@@@@@@@@@@@@@@@@@@XXX...",
"oooXXX@@@@@@@@@@@@@@@@@@@@@@@@@@@@@@@@@@@@XXX...",
"oooXXX@@@@@@@@@@@@@@@X@@@@@@@@@@@@@@@XX@@@XXX...",
"oooXXX@@@@@@@@@@@@@XXX@@@@@@@@@@@@@XXXX@@@XXX...",
"oooXXX@@@@@@@@@@@XXXXX@@@@@@@@@@@XXXXXX@@@XXX...",
"oooXXX@@@@@@@@@XXXXXXX@@@@@@@@@XXXXXXXX@@@XXX...",
"oooXXX@@@@@@@XXXXXXXXX@@@@@@@XXXXXXXXXX@@@XXX...",
"oooXXX@@@@@XXXXXXXXXXX@@@@@XXXXXXXXXXXX@@@XXX...",
"oooXXX@@@XXXXXXXXXXXXX@@@XXXXXXXXXXXXXX@@@XXX...",
"oooXXXXXXXXXXXXXXXXXXXXXXXXXXXXXXXXXXXX@@@XXX...",
"oooXXXXXXXXXXXXXXXXXXXXXXXXXXXXXXXXXXXX@@@XXX...",
"oooXXXXXXXXXXXXXXXXXXXXXXXXXXXXXXXXXXXXXXXXXX...",
"oooXXXXXXXXXXXXXXXXXXXXXXXXXXXXXXXXXXXXXXXXXX...",
"oooXXXXXXXXXXXXXXXXXXXXXXXXXXXXXXXXXXXXXXXXXX...",
"oooXXXXXXXXXXXXXXXXXXXXXXXXXXXXXXXXXXXXXXXXXX...",
"oooXXXXXXXXXXXXXXXXXXXXXXXXXXXXXXXXXXXXXXXXXX...",
"oooXXXXXXXXXXXXXXXXXXXXXXXXXXXXXXXXXXXXXXXXXX...",
"oooXXXXXXXXXXXXXXXXXXXXXXXXXXXXXXXXXXXXXXXXXX...",
"oooXXXXXXXXXXXXXXXXXXXXXXXXXXXXXXXXXXXXXXXXXX...",
"oooXXXXXXXXXXXXXXXXXXXXXXXXXXXXXXXXXXXXXXXXXX...",
"oooXXXXXXXXXXXXXXXXXXXXXXXXXXXXXXXXXXXXXXXXXX...",
"oooXXXXXXXXXXXXXXXXXXXXXXXXXXXXXXXXXXXXXXXXXX...",
"ooo.............................................",
"oo..............................................",
"o..............................................."
};
