/* XPM */
/* This file is a part of the NsCDE - Not so Common Desktop Environment */
static char *zoom_in_16x16[] = {
/* columns rows colors chars-per-pixel */
"16 16 4 1 ",
".      s None m None c None",
"@      s bottomShadowColor m black c NSCDE_BS_COLOR_5",
"X      s topShadowColor m black c NSCDE_TS_COLOR_5",
"o      s foreground m black c NSCDE_FG_COLOR_5",
/* pixels */
"XXXXXXXXXXXXXXXX",
"X..............@",
"X..............@",
"X......oo......@",
"X......oo......@",
"X......oo......@",
"X......oo......@",
"X..oooooooooo..@",
"X..oooooooooo..@",
"X......oo......@",
"X......oo......@",
"X......oo......@",
"X......oo......@",
"X..............@",
"X..............@",
"X@@@@@@@@@@@@@@@"
};
