/* XPM */
/* This file is a part of the NsCDE - Not so Common Desktop Environment */
static char *format_text_underline[] = {
/* columns rows colors chars-per-pixel */
"22 22 4 1 ",
"@ s foreground m white c NSCDE_FG_COLOR_5",
". s bottomShadowColor m black c NSCDE_BS_COLOR_5",
"X s background m black c NSCDE_BG_COLOR_5",
"o s topShadowColor m white c NSCDE_TS_COLOR_5",
/* pixels */
"ooooooooooooooooooooo.",
"oXXXXXXXXXXXXXXXXXXXX.",
"oXXXXXXXXXXXXXXXXXXXX.",
"oXXXX@@XXXXXXXX@@XXXX.",
"oXXXX@@XXXXXXXX@@XXXX.",
"oXXXX@@XXXXXXXX@@XXXX.",
"oXXXX@@XXXXXXXX@@XXXX.",
"oXXXX@@XXXXXXXX@@XXXX.",
"oXXXX@@XXXXXXXX@@XXXX.",
"oXXXX@@XXXXXXXX@@XXXX.",
"oXXXX@@XXXXXXXX@@XXXX.",
"oXXXX@@XXXXXXXX@@XXXX.",
"oXXXX@@XXXXXXXX@@XXXX.",
"oXXXX@@XXXXXXXX@@XXXX.",
"oXXXXX@@XXXXXX@@XXXXX.",
"oXXXXX@@@XXXX@@@XXXXX.",
"oXXXXXXX@@@@@@XXXXXXX.",
"oXXXXXXXXXXXXXXXXXXXX.",
"oXXXXXXXXXXXXXXXXXXXX.",
"oXXX@@@@@@@@@@@@@@XXX.",
"oXXXXXXXXXXXXXXXXXXXX.",
"......................"
};
