/* XPM */
/* This file is a part of the NsCDE - Not so Common Desktop Environment */
static char *_4x24_media_skip_forward_rtl[] = {
/* columns rows colors chars-per-pixel */
"24 24 4 1 ",
"@ s foreground m white c NSCDE_FG_COLOR_5",
". s bottomShadowColor m black c NSCDE_BS_COLOR_5",
"X s background m black c NSCDE_BG_COLOR_5",
"o s topShadowColor m white c NSCDE_TS_COLOR_5",
/* pixels */
"oooooooooooooooooooooooo",
"ooooooooooooooooooooooo.",
"ooXXXXXXXXXXXXXXXXXXXX..",
"ooXXXXXXXXXXXXXXXXXXXX..",
"ooXXXXXXXXXXXXXXXXXXXX..",
"ooXX@@XXXXXXXXXXXXXXXX..",
"ooXX@@XXXXXX@XXXXXX@XX..",
"ooXX@@XXXXX@@XXXXX@@XX..",
"ooXX@@XXXX@@@XXXX@@@XX..",
"ooXX@@XXX@@@@XXX@@@@XX..",
"ooXX@@XX@@@@@XX@@@@@XX..",
"ooXX@@X@@@@@@X@@@@@@XX..",
"ooXX@@@@@@@@@@@@@@@@XX..",
"ooXX@@X@@@@@@X@@@@@@XX..",
"ooXX@@XX@@@@@XX@@@@@XX..",
"ooXX@@XXX@@@@XXX@@@@XX..",
"ooXX@@XXXX@@@XXXX@@@XX..",
"ooXX@@XXXXX@@XXXXX@@XX..",
"ooXX@@XXXXXX@XXXXXX@XX..",
"ooXX@@XXXXXXXXXXXXXXXX..",
"ooXXXXXXXXXXXXXXXXXXXX..",
"ooXXXXXXXXXXXXXXXXXXXX..",
"oo......................",
"o......................."
};
