/* XPM */
/* This file is a part of the NsCDE - Not so Common Desktop Environment */
static char *list_add_32x32[] = {
/* columns rows colors chars-per-pixel */
"32 32 4 1 ",
".      s None m None c None",
"@      s bottomShadowColor m black c NSCDE_BS_COLOR_5",
"X      s topShadowColor m black c NSCDE_TS_COLOR_5",
"o      s foreground m black c NSCDE_FG_COLOR_5",
/* pixels */
"XXXXXXXXXXXXXXXXXXXXXXXXXXXXXX@@",
"XXXXXXXXXXXXXXXXXXXXXXXXXXXXXX@@",
"XX............................@@",
"XX............................@@",
"XX............................@@",
"XX............................@@",
"XX............................@@",
"XX............XooX............@@",
"XX............XooX............@@",
"XX............XooX............@@",
"XX............XooX............@@",
"XX............XooX............@@",
"XX............XooX............@@",
"XX...........XXooXX...........@@",
"XX.....XXXXXXXooooXXXXXXX.....@@",
"XX.....oooooooooooooooooo.....@@",
"XX.....oooooooooooooooooo.....@@",
"XX.....XXXXXXXooooXXXXXXX.....@@",
"XX...........XXooXX...........@@",
"XX............XooX............@@",
"XX............XooX............@@",
"XX............XooX............@@",
"XX............XooX............@@",
"XX............XooX............@@",
"XX............XooX............@@",
"XX............................@@",
"XX............................@@",
"XX............................@@",
"XX............................@@",
"XX............................@@",
"XX@@@@@@@@@@@@@@@@@@@@@@@@@@@@@@",
"XX@@@@@@@@@@@@@@@@@@@@@@@@@@@@@@"
};
