/* XPM */
/* This file is a part of the NsCDE - Not so Common Desktop Environment */
static char *format_text_strikethrough[] = {
/* columns rows colors chars-per-pixel */
"32 32 4 1 ",
"@ s foreground m white c NSCDE_FG_COLOR_5",
". s bottomShadowColor m black c NSCDE_BS_COLOR_5",
"X s background m black c NSCDE_BG_COLOR_5",
"o s topShadowColor m white c NSCDE_TS_COLOR_5",
/* pixels */
"ooooooooooooooooooooooooooooooo.",
"oXXXXXXXXXXXXXXXXXXXXXXXXXXXXX..",
"oXXXXXXXXXXXXXXXXXXXXXXXXXXXXX..",
"oXXXXXXXXXXXXXXXXXXXXXXXXXXXXX..",
"oXXXXXXXXXXXXXXXXXXXXXXXXXXXXX..",
"oXXXXXXXXXXXXXXXXXXXXXXXXXXXXX..",
"oXXXXXXXXXXXX@@@@@@@XXXXXXXXXX..",
"oXXXXXXXXXX@@@@@@@@@@@XXXXXXXX..",
"oXXXXXXXXX@@@@XXXXX@@@XXXXXXXX..",
"oXXXXXXXX@@@XXXXXXXXXXXXXXXXXX..",
"oXXXXXXXX@@@XXXXXXXXXXXXXXXXXX..",
"oXXXXXXXX@@@XXXXXXXXXXXXXXXXXX..",
"oXXXXXXXX@@@XXXXXXXXXXXXXXXXXX..",
"oXXXXXXXX@@@@XXXXXXXXXXXXXXXXX..",
"oXXXXXXXXX@@@@@@@XXXXXXXXXXXXX..",
"oXXXXXXXXXX@@@@@@@@@XXXXXXXXXX..",
"oXXXXXXXXXXXX@@@@@@@@@XXXXXXXX..",
"oXXXXXXXXXXXXXXXX@@@@@XXXXXXXX..",
"oXXX@@@@@@@@@@@@@@@@@@@@@@@XXX..",
"oXXX@@@@@@@@@@@@@@@@@@@@@@@XXX..",
"oXXXXXXXXXXXXXXXXXXX@@@XXXXXXX..",
"oXXXXXXXXXXXXXXXXXXX@@@XXXXXXX..",
"oXXXXXXXX@XXXXXXXXX@@@@XXXXXXX..",
"oXXXXXXXX@@@XXXXXX@@@@XXXXXXXX..",
"oXXXXXXXX@@@@@@@@@@@@XXXXXXXXX..",
"oXXXXXXXXXX@@@@@@@@XXXXXXXXXXX..",
"oXXXXXXXXXXXXXXXXXXXXXXXXXXXXX..",
"oXXXXXXXXXXXXXXXXXXXXXXXXXXXXX..",
"oXXXXXXXXXXXXXXXXXXXXXXXXXXXXX..",
"oXXXXXXXXXXXXXXXXXXXXXXXXXXXXX..",
"o...............................",
"................................"
};
