/* XPM */
/* This file is a part of the NsCDE - Not so Common Desktop Environment */
static char *zoom_original_32x32[] = {
/* columns rows colors chars-per-pixel */
"32 32 4 1 ",
".      s None m None c None",
"@      s bottomShadowColor m black c NSCDE_BS_COLOR_5",
"X      s topShadowColor m black c NSCDE_TS_COLOR_5",
"o      s foreground m black c NSCDE_FG_COLOR_5",
/* pixels */
"XXXXXXXXXXXXXXXXXXXXXXXXXXXXXXXX",
"XXXXXXXXXXXXXXXXXXXXXXXXXXXXXXXX",
"XX............................@@",
"XX............................@@",
"XX............................@@",
"XX............................@@",
"XX............................@@",
"XX............................@@",
"XX.....ooo............ooo.....@@",
"XX..oooooo.........oooooo.....@@",
"XX..oooooo.........oooooo.....@@",
"XX.....ooo............ooo.....@@",
"XX.....ooo............ooo.....@@",
"XX.....ooo....ooo.....ooo.....@@",
"XX.....ooo....ooo.....ooo.....@@",
"XX.....ooo....ooo.....ooo.....@@",
"XX.....ooo............ooo.....@@",
"XX.....ooo............ooo.....@@",
"XX.....ooo............ooo.....@@",
"XX.....ooo............ooo.....@@",
"XX.....ooo............ooo.....@@",
"XX.....ooo............ooo.....@@",
"XX.....ooo....ooo.....ooo.....@@",
"XX..ooooooooo.ooo..ooooooooo..@@",
"XX..ooooooooo.ooo..ooooooooo..@@",
"XX............................@@",
"XX............................@@",
"XX............................@@",
"XX............................@@",
"XX............................@@",
"XX@@@@@@@@@@@@@@@@@@@@@@@@@@@@@@",
"XX@@@@@@@@@@@@@@@@@@@@@@@@@@@@@@"
};
