/* XPM */
/* This file is a part of the NsCDE - Not so Common Desktop Environment */
static char *format_text_strikethrough[] = {
/* columns rows colors chars-per-pixel */
"48 48 4 1 ",
"@ s foreground m white c NSCDE_FG_COLOR_5",
". s bottomShadowColor m black c NSCDE_BS_COLOR_5",
"X s background m black c NSCDE_BG_COLOR_5",
"o s topShadowColor m white c NSCDE_TS_COLOR_5",
/* pixels */
"oooooooooooooooooooooooooooooooooooooooooooooooo",
"ooooooooooooooooooooooooooooooooooooooooooooooo.",
"ooXXXXXXXXXXXXXXXXXXXXXXXXXXXXXXXXXXXXXXXXXXXX..",
"ooXXXXXXXXXXXXXXXXXXXXXXXXXXXXXXXXXXXXXXXXXXXX..",
"ooXXXXXXXXXXXXXXXXXXXXXXXXXXXXXXXXXXXXXXXXXXXX..",
"ooXXXXXXXXXXXXXXXXXXXXXXXXXXXXXXXXXXXXXXXXXXXX..",
"ooXXXXXXXXXXXXXXXXXXXXXXXXXXXXXXXXXXXXXXXXXXXX..",
"ooXXXXXXXXXXXXXXXXXXXXXXXXXXXXXXXXXXXXXXXXXXXX..",
"ooXXXXXXXXXXXXXXXXXXXXXXXXXXXXXXXXXXXXXXXXXXXX..",
"ooXXXXXXXXXXXXXXXXX@@@@@@@@@@@@XXXXXXXXXXXXXXX..",
"ooXXXXXXXXXXXXXXX@@@@@@@@@@@@@@@XXXXXXXXXXXXXX..",
"ooXXXXXXXXXXXXXX@@@@@@@@@@@@@@@@XXXXXXXXXXXXXX..",
"ooXXXXXXXXXXXXX@@@@@XXXXXXXXX@@@XXXXXXXXXXXXXX..",
"ooXXXXXXXXXXXXX@@@@XXXXXXXXXXXXXXXXXXXXXXXXXXX..",
"ooXXXXXXXXXXXX@@@@XXXXXXXXXXXXXXXXXXXXXXXXXXXX..",
"ooXXXXXXXXXXXX@@@@XXXXXXXXXXXXXXXXXXXXXXXXXXXX..",
"ooXXXXXXXXXXXX@@@@XXXXXXXXXXXXXXXXXXXXXXXXXXXX..",
"ooXXXXXXXXXXXX@@@@XXXXXXXXXXXXXXXXXXXXXXXXXXXX..",
"ooXXXXXXXXXXXX@@@@XXXXXXXXXXXXXXXXXXXXXXXXXXXX..",
"ooXXXXXXXXXXXX@@@@@XXXXXXXXXXXXXXXXXXXXXXXXXXX..",
"ooXXXXXXXXXXXXX@@@@@@XXXXXXXXXXXXXXXXXXXXXXXXX..",
"ooXXXXXXXXXXXXX@@@@@@@@@@XXXXXXXXXXXXXXXXXXXXX..",
"ooXXXXXXXXXXXXXX@@@@@@@@@@@@@XXXXXXXXXXXXXXXXX..",
"ooXXXXXXXXXXXXXXX@@@@@@@@@@@@@XXXXXXXXXXXXXXXX..",
"ooXXXXXXXXXXXXXXXXX@@@@@@@@@@@@@XXXXXXXXXXXXXX..",
"ooXXXXXXXXXXXXXXXXXXXXX@@@@@@@@@@XXXXXXXXXXXXX..",
"ooXXXXXXXXXXXXXXXXXXXXXXXXX@@@@@@XXXXXXXXXXXXX..",
"ooXXX@@@@@@@@@@@@@@@@@@@@@@@@@@@@@@@@@@@@@@XXX..",
"ooXXX@@@@@@@@@@@@@@@@@@@@@@@@@@@@@@@@@@@@@@XXX..",
"ooXXXXXXXXXXXXXXXXXXXXXXXXXXXX@@@@XXXXXXXXXXXX..",
"ooXXXXXXXXXXXXXXXXXXXXXXXXXXXX@@@@XXXXXXXXXXXX..",
"ooXXXXXXXXXXXXXXXXXXXXXXXXXXXX@@@@XXXXXXXXXXXX..",
"ooXXXXXXXXXXXXXXXXXXXXXXXXXXXX@@@@XXXXXXXXXXXX..",
"ooXXXXXXXXXXXXXXXXXXXXXXXXXXXX@@@@XXXXXXXXXXXX..",
"ooXXXXXXXXXXXX@XXXXXXXXXXXXXX@@@@XXXXXXXXXXXXX..",
"ooXXXXXXXXXXXX@@@@XXXXXXXXXX@@@@@XXXXXXXXXXXXX..",
"ooXXXXXXXXXXXX@@@@@@@@@@@@@@@@@@XXXXXXXXXXXXXX..",
"ooXXXXXXXXXXXX@@@@@@@@@@@@@@@@@XXXXXXXXXXXXXXX..",
"ooXXXXXXXXXXXXXX@@@@@@@@@@@@@XXXXXXXXXXXXXXXXX..",
"ooXXXXXXXXXXXXXXXXXXXXXXXXXXXXXXXXXXXXXXXXXXXX..",
"ooXXXXXXXXXXXXXXXXXXXXXXXXXXXXXXXXXXXXXXXXXXXX..",
"ooXXXXXXXXXXXXXXXXXXXXXXXXXXXXXXXXXXXXXXXXXXXX..",
"ooXXXXXXXXXXXXXXXXXXXXXXXXXXXXXXXXXXXXXXXXXXXX..",
"ooXXXXXXXXXXXXXXXXXXXXXXXXXXXXXXXXXXXXXXXXXXXX..",
"ooXXXXXXXXXXXXXXXXXXXXXXXXXXXXXXXXXXXXXXXXXXXX..",
"ooXXXXXXXXXXXXXXXXXXXXXXXXXXXXXXXXXXXXXXXXXXXX..",
"o...............................................",
"................................................"
};
