/* XPM */
/* This file is a part of the NsCDE - Not so Common Desktop Environment */
static char * FPSubArrowDown_xpm[] = {
"12 6 5 1",
"+      s None m None c None",
"#	s bottomShadowColor m black c #4f864f94500a",
".	s selectColor m black c #820c822382e4",
"$	s background m black c #9900991b99fe",
"@	s topShadowColor m white c #d2aad2b6d31a",
"#@@@@@@@@@@@"};
"+#.$.$.$.$@+",
"++#.$.$.$@++",
"+++#.$.$@+++",
"++++#.$@++++",
"+++++#@+++++",
