/* XPM */
/* This file is a part of the NsCDE - Not so Common Desktop Environment */
static char * IconBgA_xpm[] = {
"60 60 6 1",
"%      s topShadowColor  m white c #f7cbda02c1d5",
".      s bottomShadowColor  m black c #7f2e5a273c1a",
"$      s topShadowColor  m white c #e720dee6da78",
"+      s bottomShadowColor  m black c #6b6160fb5b61",
"#      s background m black c #c600b2d2a87e",
"@      s background m black c #ed00a8007000",
"%%%%%%%%%%%%%%%%%%%%%%%%%%%%%%%%%%%%%%%%%%%%%%%%%%%%%%%%%%%%",
"%%%%%%%%%%%%%%%%%%%%%%%%%%%%%%%%%%%%%%%%%%%%%%%%%%%%%%%%%%%.",
"%%@@@@@@@@@@@@@@@@@@@@@@@@@@@@@@@@@@@@@@@@@@@@@@@@@@@@@@@@..",
"%%@@@@@@@@@@@@@@@@@@@@@@@@@@@@@@@@@@@@@@@@@@@@@@@@@@@@@@@@..",
"%%@@....................................................@@..",
"%%@@.$$$$$$$$$$$$$$$$$$$$$$$$$$$$$$$$$$$$$$$$$$$$$$$$$$%@@..",
"%%@@.$################################################+%@@..",
"%%@@.$################################################+%@@..",
"%%@@.$################################################+%@@..",
"%%@@.$################################################+%@@..",
"%%@@.$################################################+%@@..",
"%%@@.$################################################+%@@..",
"%%@@.$################################################+%@@..",
"%%@@.$################################################+%@@..",
"%%@@.$################################################+%@@..",
"%%@@.$################################################+%@@..",
"%%@@.$################################################+%@@..",
"%%@@.$################################################+%@@..",
"%%@@.$################################################+%@@..",
"%%@@.$################################################+%@@..",
"%%@@.$################################################+%@@..",
"%%@@.$################################################+%@@..",
"%%@@.$################################################+%@@..",
"%%@@.$################################################+%@@..",
"%%@@.$################################################+%@@..",
"%%@@.$################################################+%@@..",
"%%@@.$################################################+%@@..",
"%%@@.$################################################+%@@..",
"%%@@.$################################################+%@@..",
"%%@@.$################################################+%@@..",
"%%@@.$################################################+%@@..",
"%%@@.$################################################+%@@..",
"%%@@.$################################################+%@@..",
"%%@@.$################################################+%@@..",
"%%@@.$################################################+%@@..",
"%%@@.$################################################+%@@..",
"%%@@.$################################################+%@@..",
"%%@@.$################################################+%@@..",
"%%@@.$################################################+%@@..",
"%%@@.$################################################+%@@..",
"%%@@.$################################################+%@@..",
"%%@@.$################################################+%@@..",
"%%@@.$################################################+%@@..",
"%%@@.$################################################+%@@..",
"%%@@.$################################################+%@@..",
"%%@@.$################################################+%@@..",
"%%@@.$################################################+%@@..",
"%%@@.$################################################+%@@..",
"%%@@.$################################################+%@@..",
"%%@@.$################################################+%@@..",
"%%@@.$################################################+%@@..",
"%%@@.$################################################+%@@..",
"%%@@.$################################################+%@@..",
"%%@@.$################################################+%@@..",
"%%@@.$################################################+%@@..",
"%%@@.$+++++++++++++++++++++++++++++++++++++++++++++++++%@@..",
"%%@@.%%%%%%%%%%%%%%%%%%%%%%%%%%%%%%%%%%%%%%%%%%%%%%%%%%%@@..",
"%%@@@@@@@@@@@@@@@@@@@@@@@@@@@@@@@@@@@@@@@@@@@@@@@@@@@@@@@@..",
"%%@@@@@@@@@@@@@@@@@@@@@@@@@@@@@@@@@@@@@@@@@@@@@@@@@@@@@@@@..",
"%..........................................................."};
