/* XPM */
/* This file is a part of the NsCDE - Not so Common Desktop Environment */
static char * DtEarth_s_pm[] = {
/* width height ncolors cpp [x_hot y_hot] */
"24 24 11 1 0 0",
/* colors */
" 	s None	m None	c None",
".	s iconColor5	m black	c blue",
"X	s iconColor4	m white	c green",
"o	s iconGray2	m white	c #bdbdbdbdbdbd",
"O	s iconGray3	m white	c #adadadadadad",
"+	s iconGray1	m white	c #dededededede",
"@	s iconGray4	m white	c #949494949494",
"#	s iconGray5	m black	c #737373737373",
"$	s iconGray7	m black	c #424242424242",
"%	s iconGray6	m black	c #636363636363",
"&	s iconGray8	m black	c #212121212121",
/* pixels */
"         .....X         ",
"      ..oXoXoXoXOX      ",
"     .XoXoXoXoXOXOX     ",
"    oXoXoXoXo..X.XOX    ",
"   oXoX+X+XoX+X.XO.XX   ",
"  .XoX+X+XoXOXOXOo.X@X  ",
" ..XX+X+XoXOXOXOX@X.X@. ",
" ..XoX+XoXOoOoO.@X@X@X@ ",
" ..XXoXoXOo...X@o.X..#X ",
"....oXoXOo..........#.#$",
"..X.XoXOo....X.....@.#.$",
"......Xo......XX..@.#.#$",
"......XO.....Xo@X..#.#.$",
".....X.X.....X..#X#.#.#$",
".......O....X@X.@#.#.#.$",
" ........X.....X.X%.#.$ ",
" .......X@XXX#X..%X#.#$ ",
" .........@X#X#X%X$.#.X ",
"  .........@X#X%..X#.$  ",
"   .......@.#X%X$XX.$   ",
"    ...@.%.%X%X$X&.$    ",
"     @%.%.%.%X$X%.X     ",
"      $%$%.%.%.&$$      ",
"         $$$$$%         "};
