/* XPM */
/* This file is a part of the NsCDE - Not so Common Desktop Environment */
static char * WinMgrStyle_xpm[] = {
"60 32 152 2",
"  	c None",
". 	c #646464",
"+ 	c #7A7A7A",
"@ 	c #757575",
"# 	c #656565",
"$ 	c #666666",
"% 	c #6C6C6C",
"& 	c #6E6E6E",
"* 	c #6B6B6B",
"= 	c #636363",
"- 	c #5C5C5C",
"; 	c #7B7B7B",
"> 	c #616161",
", 	c #727272",
"' 	c #707070",
") 	c #676767",
"! 	c #6D6D6D",
"~ 	c #808080",
"{ 	c #CECECE",
"] 	c #D7D7D7",
"^ 	c #E1E1E1",
"/ 	c #E3E3E3",
"( 	c #DCDCDC",
"_ 	c #D3D3D3",
": 	c #E6E6E6",
"< 	c #E0E0E0",
"[ 	c #EFEFEF",
"} 	c #D5D5D5",
"| 	c #EBEBEB",
"1 	c #CCCCCC",
"2 	c #DEDEDE",
"3 	c #DADADA",
"4 	c #E2E2E2",
"5 	c #D9D9D9",
"6 	c #DFDFDF",
"7 	c #DBDBDB",
"8 	c #DDDDDD",
"9 	c #E8E8E8",
"0 	c #E9E9E9",
"a 	c #C9C9C9",
"b 	c #CBCBCB",
"c 	c #333333",
"d 	c #D8D8D8",
"e 	c #EEEEEE",
"f 	c #686868",
"g 	c #ACACAC",
"h 	c #ABABAB",
"i 	c #AEAEAE",
"j 	c #A1A1A1",
"k 	c #B9B9B9",
"l 	c #BFBFBF",
"m 	c #0C0C0C",
"n 	c #A3A3A3",
"o 	c #A0A0A0",
"p 	c #A8A8A8",
"q 	c #B0B0B0",
"r 	c #B1B1B1",
"s 	c #A9A9A9",
"t 	c #ECECEC",
"u 	c #747474",
"v 	c #D6D6D6",
"w 	c #E7E7E7",
"x 	c #B3B3B3",
"y 	c #A5A5A5",
"z 	c #B5B5B5",
"A 	c #999999",
"B 	c #282828",
"C 	c #AAAAAA",
"D 	c #B2B2B2",
"E 	c #BABABA",
"F 	c #6A6A6A",
"G 	c #ADADAD",
"H 	c #AFAFAF",
"I 	c #A7A7A7",
"J 	c #A6A6A6",
"K 	c #1C1C1C",
"L 	c #E4E4E4",
"M 	c #A2A2A2",
"N 	c #BCBCBC",
"O 	c #2D2D2D",
"P 	c #B4B4B4",
"Q 	c #B7B7B7",
"R 	c #D4D4D4",
"S 	c #E5E5E5",
"T 	c #F7F7F7",
"U 	c #CDCDCD",
"V 	c #D0D0D0",
"W 	c #D1D1D1",
"X 	c #BDBDBD",
"Y 	c #9E9E9E",
"Z 	c #292929",
"` 	c #B8B8B8",
" .	c #BBBBBB",
"..	c #1A1A1A",
"+.	c #A4A4A4",
"@.	c #878787",
"#.	c #C2C2C2",
"$.	c #2C2C2C",
"%.	c #0E0E0E",
"&.	c #B6B6B6",
"*.	c #9F9F9F",
"=.	c #262626",
"-.	c #1F1F1F",
";.	c #F2F2F2",
">.	c #D2D2D2",
",.	c #181818",
"'.	c #272727",
").	c #212121",
"!.	c #1D1D1D",
"~.	c #BEBEBE",
"{.	c #252525",
"].	c #191919",
"^.	c #F0F0F0",
"/.	c #989898",
"(.	c #949494",
"_.	c #9A9A9A",
":.	c #696969",
"<.	c #767676",
"[.	c #414141",
"}.	c #313131",
"|.	c #101010",
"1.	c #151515",
"2.	c #2F2F2F",
"3.	c #232323",
"4.	c #1E1E1E",
"5.	c #090909",
"6.	c #1B1B1B",
"7.	c #242424",
"8.	c #202020",
"9.	c #2A2A2A",
"0.	c #222222",
"a.	c #5D5D5D",
"b.	c #C0C0C0",
"c.	c #C3C3C3",
"d.	c #C7C7C7",
"e.	c #737373",
"f.	c #CACACA",
"g.	c #9C9C9C",
"h.	c #828282",
"i.	c #7E7E7E",
"j.	c #6F6F6F",
"k.	c #717171",
"l.	c #7C7C7C",
"m.	c #797979",
"n.	c #CFCFCF",
"o.	c #7D7D7D",
"p.	c #777777",
"q.	c #787878",
"r.	c #5F5F5F",
"s.	c #848484",
"t.	c #EDEDED",
"u.	c #FEFEFE",
". + @ # $ % % % % % % % % % % % % % % % % & * = - ; > . , % % % % % % % % % % % % % % % % % % % % % % % % $ ' ) ! * $ ~ ",
"* { ] ^ / ( ( ( ( ( ( ( ( ( ( ( ( ( ( ( ( _ : < [ } | 1 2 ( ( ( ( ( ( ( ( ( ( ( ( ( ( ( ( ( ( ( ( ( ( ( ( 3 4 _ ] 4 5 6 ",
"$ / : 6 7 8 8 8 8 8 8 8 8 8 8 8 8 8 8 8 8 9 0 a b c ( d e 8 8 8 8 8 8 8 8 8 8 8 8 8 8 8 8 8 8 8 8 8 8 8 8 2 0 / 6 8 } 9 ",
"f ] d g h i i i i i i i i i i i i i i i i j g k l m 5 h n i i i i i i i i i i i i i i i i i i i i i i i i o p q r s i t ",
"u v w p x g g g g g g g g g g g g g g g g i y z A B / C D g g g g g g g g g g g g g g g g g g g g g g g g E s C D C h 9 ",
"F < 3 G G i p H D p i G h i i i i i i i i C I z J K : p C i i i i i i i i i i i i i i i i i i i i i i i i r I q r p g L ",
"F < 3 G G n M D x C H g h s s s s s s s s J N s s O < I r s s s s s s s s s s s s s s s s s s s s s s s s i y P s r z 7 ",
"F < 3 G G r Q d ] R 2 < ^ ^ ^ ^ ^ ^ ^ ^ ^ S a T ( U 8 6 L ^ ^ ^ ^ ^ ^ ^ ^ ^ ^ ^ ^ ^ ^ ^ ^ ^ ^ ^ ^ ^ ^ ^ ^ < < ( R V 9 7 ",
"F < 3 G G p h W E q D i i C C C C C C C C M X Y q Z 8 y H C C C C C C C C C C C C C C C C C C C C C C C C s ` y z g w   ",
"F < 3 G G D D 8 P p C J J H H H H H H H H P p  .o ..6  .h H H H H H H H H H H H H H H H H H H H H H H H H M g +.C E L   ",
"F < 3 G G s I 8 h C x x z g g g g g g g g E @.P #.$.] J s g g g g g g g g g g g g g g g g g g g g g g g g P G N I ]     ",
"F < 3 G G D g : I J G I y g g g g g g g g r q q p %.4 E C g g g g g g g g g g g g g g g g g g g g g g g g y n D &.2     ",
"F < 3 G G h J : p G Q r G i i i i i i i i M  .*.z =.7 G p i i i i i i i i i i i i i i i i i i i i i i i i g Q C d       ",
"F < 3 G G I C S H J q q n G G G G G G G G D Y h H -.^ &.C G G G G G G G G G G G G G G G G G G G G G G G G D p i 0       ",
"F < 3 G G Q C R h Q g W ;.6 6 6 6 6 6 6 6 >.a G p ,.3 i s G G G G G G G G G G G G G G G G G G G G G G G G h i +.S       ",
"F < 3 G G H J : H I P t Y i i i i i i i i '.A g E -.2 D ` G G G G G G G G G G G G G G G G G G G G G G G G s &.g 8       ",
"F < 3 G G n ` : p  .j 5 z h h h h h h h h ).` i i !.t q Y G G G G G G G G G G G G G G G G G G G G G G G G G &.{ V       ",
"F < 3 G G D p ^ M i ~.V !.{.{.{.{.{.{.{.{.%.h H ` ].d p r G G G G G G G G G G G G G G G G G G G G G G G G G h ^.        ",
"F < 3 G G P i ] g N /.~.k s s s s s s s s r a (.J '.w D k G G G G G G G G G G G G G G G G G G G G G G G G s s ;.        ",
"F < 3 G G g y 9 &.n j k _.r r r r r r r r s s J E B v M J G G G G G G G G G G G G G G G G G G G G G G G G h ~.5         ",
"F < 3 G G h C ( h H x H r G G G G G G G G P I x G ,.6 Q I G G G G G G G G G G G G G G G G G G G G G G G G P d           ",
":.^ 8 h D C x W &.p G q G G G G G G G G G G M E H ].^ h g G G G G G G G G G G G G G G G G y r g H P i H H I ^.          ",
", 5 w s +.C P 3 P s i G n q q q q q q q q h Q i G ].: H H q q q q q q q q q q q q q q q q i z D H G g H g G w           ",
"<.2 W H g H I 9 I y q s q h h h h h h h h p P j I [.{ C g h h h h h h h h h h h h h h h h C s G C J i P G N 3           ",
"<._ }.|.$.1.{.| !.=.2...!.3.3.3.3.3.3.3.3.B 4.4.=.5.'.).{.3.3.3.3.3.3.3.3.3.3.3.3.3.3.3.3.{.6.=.7.8.$.9.0.>.            ",
"a.9 { : 5 0 2 Y v q i ~.a N N N N N N N N b.Q E c.d.Q N X N N N N N N N N N N N N N N N N c.x l  .k ~.q x L             ",
"e.w 3 q s y h f.g I r q J g g g g g g g g s z p H I x q C g g g g g g g g g g g g g g g g q +.q C H q M d.4             ",
"% _ 0 G n z G D g.h.i.e.' @ @ @ @ @ @ @ @ e.; <., F ; + e.@ @ @ @ @ @ @ @ @ @ @ @ @ @ @ @ u j.; k.l.+ m.U n.            ",
"% 2 5 C P J E ` D + f ! @ , , , , , , , , m.# i.% o.f p., , , , , , , , , , , , , , , , , e.e.; :.e.! <.|               ",
"> t } D y g h X G <.$ q.<., , , , , , , , , , , , , , , , , , , , , , , , , , , , , , , , e.e.; :.e.% <.|               ",
"r.7 v  .q &.G Q C o.' m.k.u u u u u u u u u u u u u u u u u u u u u u u u u u u u u u u u e.j.+ ' ; m.m.U               ",
"s.8 9 6 < 9 6 0 t.2 4 t / / / / / / / / / / / / / / / / / / / / / / / / / / / / / / / / / w 7 w ^ : : 5 u.              "};
