/* XPM */
/* This file is a part of the NsCDE - Not so Common Desktop Environment */
static char * Wsm_1x3_00_xpm[] = {
"11 28 7 1",
" 	c None",
".	c #636363",
"+	c #DEDEDE",
"@	c #BDBDBD",
"#	c #424242",
"$	c #737373",
"%	c #212121",
"..........+",
".@@@@@@@@#+",
".@$$$$$$$#+",
".@$$$$$$$#+",
".@$$$$$$$#+",
".@$$$$$$$#+",
".@$$$$$$$#+",
".@$$$$$$$#+",
".@$$$$$$$#+",
".@%%%%%%%#+",
".++++++++#+",
".+@@@@@@@#+",
".+@@@@@@@#+",
".+@@@@@@@#+",
".+@@@@@@@#+",
".+@@@@@@@#+",
".+@@@@@@@#+",
".+@@@@@@@#+",
".+%%%%%%%#+",
".++++++++#+",
".+@@@@@@@#+",
".+@@@@@@@#+",
".+@@@@@@@#+",
".+@@@@@@@#+",
".+@@@@@@@#+",
".+@@@@@@@#+",
".+%%%%%%%#+",
".++++++++++"};
