/* XPM */
static char * Wsm_4x2_00_xpm[] = {
"15 27 7 1",
" 	c None",
".	c #636363",
"+	c #BDBDBD",
"@	c #737373",
"#	c #424242",
"$	c #DEDEDE",
"%	c #212121",
"...............",
".+@@@@@#$+++++#",
".+@@@@@#$+++++#",
".+@@@@@#$+++++#",
".+@@@@@#$+++++#",
".+@@@@@#$+++++#",
".+%%%%%##%%%%%%",
".$$$$$$$$$$$$$%",
".$+++++#$+++++%",
".$+++++#$+++++%",
".$+++++#$+++++%",
".$+++++#$+++++%",
".$+++++#$+++++%",
".$%%%%%##%%%%%%",
".$$$$$$$$$$$$$%",
".$+++++#$+++++%",
".$+++++#$+++++%",
".$+++++#$+++++%",
".$+++++#$+++++%",
".$+++++#$+++++%",
".$%%%%%##%%%%%%",
".$$$$$$$$$$$$$%",
".$+++++#$+++++%",
".$+++++#$+++++%",
".$+++++#$+++++%",
".$+++++#$+++++%",
".$%%%%%##%%%%%%"};
