/* XPM */
/* This file is a part of the NsCDE - Not so Common Desktop Environment */
static char *_8x48_media_playlist_shuffle[] = {
/* columns rows colors chars-per-pixel */
"48 48 4 1 ",
"@ s foreground m white c NSCDE_FG_COLOR_5",
". s bottomShadowColor m black c NSCDE_BS_COLOR_5",
"X s background m black c NSCDE_BG_COLOR_5",
"o s topShadowColor m white c NSCDE_TS_COLOR_5",
/* pixels */
"oooooooooooooooooooooooooooooooooooooooooooooooo",
"ooooooooooooooooooooooooooooooooooooooooooooooo.",
"ooXXXXXXXXXXXXXXXXXXXXXXXXXXXXXXXXXXXXXXXXXXXX..",
"ooXXXXXXXXXXXXXXXXXXXXXXXXXXXXXXXXXXXXXXXXXXXX..",
"ooXXXXXXXXXXXXXXXXXXXXXXXXXXXXXXXXXXXXXXXXXXXX..",
"ooXXXXXXXXXXXXXXXXXXXXXXXXXXXXXXXXXXXXXXXXXXXX..",
"ooXXXXXXXXXXXXXXXXXXXXXXXXXXXXXXXXXXXXXXXXXXXX..",
"ooXXXXXXXXXXXXXXXXXXXXXXXXXXXXXXXXXXXXXXXXXXXX..",
"ooXXXXXXXXXXXXXXXXXXXXXXXXXXXXXXX@@@XXXXXXXXXX..",
"ooXXXXXXXXXXXXXXXXXXXXXXXXXXXXXXX@@@@XXXXXXXXX..",
"ooXXXXXXXXXXXXXXXXXXXXXXXXXXXXXXX@@@@@XXXXXXXX..",
"ooXXXXXXXXXXXXXXXXXXXXXXXXXXXXXXX@@@@@@XXXXXXX..",
"ooXXXX@@@@@@@@@@@@@@XXXXXXX@@@@@@@@@@@@@XXXXXX..",
"ooXXXX@@@@@@@@@@@@@@@XXXXX@@@@@@@@@@@@@@@XXXXX..",
"ooXXXX@@@@@@@@@@@@@@@@XXX@@@@@@@@@@@@@@@@@XXXX..",
"ooXXXX@@@@@@@@@@@@@@@@@@@@@@@@@@@@@@@@@@@XXXXX..",
"ooXXXX@@@@@@@@@@@@@@@@@@@@@@@@@@@@@@@@@@XXXXXX..",
"ooXXXX@@@@@@@@@@@@@@@@@@@@@@@@@@@@@@@@@XXXXXXX..",
"ooXXXXXXXXXXXXXX@@@@@@@@@@@@XXXXX@@@@@XXXXXXXX..",
"ooXXXXXXXXXXXXXXX@@@@@@@@@@XXXXXX@@@@XXXXXXXXX..",
"ooXXXXXXXXXXXXXXXX@@@@@@@@@XXXXXX@@@XXXXXXXXXX..",
"ooXXXXXXXXXXXXXXXXX@@@@@@@@XXXXXXXXXXXXXXXXXXX..",
"ooXXXXXXXXXXXXXXXXXX@@@@@@@XXXXXXXXXXXXXXXXXXX..",
"ooXXXXXXXXXXXXXXXXXX@@@@@@@XXXXXXXXXXXXXXXXXXX..",
"ooXXXXXXXXXXXXXXXXXX@@@@@@@XXXXXXXXXXXXXXXXXXX..",
"ooXXXXXXXXXXXXXXXXXX@@@@@@@XXXXXXXXXXXXXXXXXXX..",
"ooXXXXXXXXXXXXXXXXX@@@@@@@@XXXXXXXXXXXXXXXXXXX..",
"ooXXXXXXXXXXXXXXXX@@@@@@@@@XXXXXX@@@XXXXXXXXXX..",
"ooXXXXXXXXXXXXXXX@@@@@@@@@@XXXXXX@@@@XXXXXXXXX..",
"ooXXXXXXXXXXXXXX@@@@@@@@@@@@XXXXX@@@@@XXXXXXXX..",
"ooXXXX@@@@@@@@@@@@@@@@@@@@@@@@@@@@@@@@@XXXXXXX..",
"ooXXXX@@@@@@@@@@@@@@@@@@@@@@@@@@@@@@@@@@XXXXXX..",
"ooXXXX@@@@@@@@@@@@@@@@@@@@@@@@@@@@@@@@@@@XXXXX..",
"ooXXXX@@@@@@@@@@@@@@@@XX@@@@@@@@@@@@@@@@@@XXXX..",
"ooXXXX@@@@@@@@@@@@@@@XXXX@@@@@@@@@@@@@@@@XXXXX..",
"ooXXXX@@@@@@@@@@@@@@XXXXXX@@@@@@@@@@@@@@XXXXXX..",
"ooXXXXXXXXXXXXXXXXXXXXXXXXXXXXXXX@@@@@@XXXXXXX..",
"ooXXXXXXXXXXXXXXXXXXXXXXXXXXXXXXX@@@@@XXXXXXXX..",
"ooXXXXXXXXXXXXXXXXXXXXXXXXXXXXXXX@@@@XXXXXXXXX..",
"ooXXXXXXXXXXXXXXXXXXXXXXXXXXXXXXX@@@XXXXXXXXXX..",
"ooXXXXXXXXXXXXXXXXXXXXXXXXXXXXXXXXXXXXXXXXXXXX..",
"ooXXXXXXXXXXXXXXXXXXXXXXXXXXXXXXXXXXXXXXXXXXXX..",
"ooXXXXXXXXXXXXXXXXXXXXXXXXXXXXXXXXXXXXXXXXXXXX..",
"ooXXXXXXXXXXXXXXXXXXXXXXXXXXXXXXXXXXXXXXXXXXXX..",
"ooXXXXXXXXXXXXXXXXXXXXXXXXXXXXXXXXXXXXXXXXXXXX..",
"ooXXXXXXXXXXXXXXXXXXXXXXXXXXXXXXXXXXXXXXXXXXXX..",
"oo..............................................",
"o..............................................."
};
