/* XPM */
/* This file is a part of the NsCDE - Not so Common Desktop Environment */
static char *format_indent_less[] = {
/* columns rows colors chars-per-pixel */
"22 22 4 1 ",
"@ s foreground m white c NSCDE_FG_COLOR_5",
". s bottomShadowColor m black c NSCDE_BS_COLOR_5",
"X s background m black c NSCDE_BG_COLOR_5",
"o s topShadowColor m white c NSCDE_TS_COLOR_5",
/* pixels */
"ooooooooooooooooooooo.",
"oXXXXXXXXXXXXXXXXXXXX.",
"oXX@@@@@@@@@@@@@@@@XX.",
"oXX@@@@@@@@@@@@@@@@XX.",
"oXXXXXXXXXXXXXXXXXXXX.",
"oXXXXXXXXXXXXXXXXX@XX.",
"oXX@@@@@@@@@XXXX@@@XX.",
"oXX@@@@@@@@@XX@@@@XXX.",
"oXXXXXXXXXXXX@@XXXXXX.",
"oXXXXXXXXXXXX@@XXXXXX.",
"oXX@@@@@@@@@XX@@@@XXX.",
"oXX@@@@@@@@@XXXX@@@XX.",
"oXXXXXXXXXXXXXXXXX@XX.",
"oXXXXXXXXXXXXXXXXXXXX.",
"oXX@@@@@@@@@@@@@@@@XX.",
"oXX@@@@@@@@@@@@@@@@XX.",
"oXXXXXXXXXXXXXXXXXXXX.",
"oXXXXXXXXXXXXXXXXXXXX.",
"oXX@@@@@@@@@@@@@@@@XX.",
"oXX@@@@@@@@@@@@@@@@XX.",
"oXXXXXXXXXXXXXXXXXXXX.",
"......................"
};
