/* XPM */
/* This file is a part of the NsCDE - Not so Common Desktop Environment */
static char *zoom_fit_best_24x24[] = {
/* columns rows colors chars-per-pixel */
"24 24 4 1 ",
".      s None m None c None",
"@      s bottomShadowColor m black c NSCDE_BS_COLOR_5",
"X      s topShadowColor m black c NSCDE_TS_COLOR_5",
"o      s foreground m black c NSCDE_FG_COLOR_5",
/* pixels */
"XXXXXXXXXXXXXXXXXXXXXXXX",
"X......................@",
"X......................@",
"X......................@",
"X...oooooo....oooooo...@",
"X...oooooo....oooooo...@",
"X...oo............oo...@",
"X...oo............oo...@",
"X...oo............oo...@",
"X...oo............oo...@",
"X......................@",
"X......................@",
"X......................@",
"X......................@",
"X...oo............oo...@",
"X...oo............oo...@",
"X...oo............oo...@",
"X...oo............oo...@",
"X...oooooo....oooooo...@",
"X...oooooo....oooooo...@",
"X......................@",
"X......................@",
"X......................@",
"X@@@@@@@@@@@@@@@@@@@@@@@"
};
