/* XPM */
/* This file is a part of the NsCDE - Not so Common Desktop Environment */
static char *format_text_italic[] = {
/* columns rows colors chars-per-pixel */
"32 32 4 1 ",
"@ s foreground m white c NSCDE_FG_COLOR_5",
". s bottomShadowColor m black c NSCDE_BS_COLOR_5",
"X s background m black c NSCDE_BG_COLOR_5",
"o s topShadowColor m white c NSCDE_TS_COLOR_5",
/* pixels */
"ooooooooooooooooooooooooooooooo.",
"oooooooooooooooooooooooooooooo..",
"ooXXXXXXXXXXXXXXXXXXXXXXXXXXXX..",
"ooXXXXXXXXXXXXXXXXXXXXXXXXXXXX..",
"ooXXXXXXXXXXXXXXXXXXXXXXXXXXXX..",
"ooXXXXXXXXXXXXXX@@@XXXXXXXXXXX..",
"ooXXXXXXXXXXXXXX@@@XXXXXXXXXXX..",
"ooXXXXXXXXXXXXXX@@XXXXXXXXXXXX..",
"ooXXXXXXXXXXXXXXXXXXXXXXXXXXXX..",
"ooXXXXXXXXXXXXXXXXXXXXXXXXXXXX..",
"ooXXXXXXXXXXXXXXXXXXXXXXXXXXXX..",
"ooXXXXXXXXXXXXX@@@XXXXXXXXXXXX..",
"ooXXXXXXXXXXXXX@@XXXXXXXXXXXXX..",
"ooXXXXXXXXXXXXX@@XXXXXXXXXXXXX..",
"ooXXXXXXXXXXXX@@@XXXXXXXXXXXXX..",
"ooXXXXXXXXXXXX@@@XXXXXXXXXXXXX..",
"ooXXXXXXXXXXXX@@@XXXXXXXXXXXXX..",
"ooXXXXXXXXXXXX@@XXXXXXXXXXXXXX..",
"ooXXXXXXXXXXXX@@XXXXXXXXXXXXXX..",
"ooXXXXXXXXXXX@@@XXXXXXXXXXXXXX..",
"ooXXXXXXXXXXX@@@XXXXXXXXXXXXXX..",
"ooXXXXXXXXXXX@@@XXXXXXXXXXXXXX..",
"ooXXXXXXXXXXX@@@XXXXXXXXXXXXXX..",
"ooXXXXXXXXXXX@@XXXXXXXXXXXXXXX..",
"ooXXXXXXXXXX@@@XXXXXXXXXXXXXXX..",
"ooXXXXXXXXXX@@@XXXXXXXXXXXXXXX..",
"ooXXXXXXXXXX@@@XXXXXXXXXXXXXXX..",
"ooXXXXXXXXXXXXXXXXXXXXXXXXXXXX..",
"ooXXXXXXXXXXXXXXXXXXXXXXXXXXXX..",
"ooXXXXXXXXXXXXXXXXXXXXXXXXXXXX..",
"o...............................",
"................................"
};
