/* XPM */
/* This file is a part of the NsCDE - Not so Common Desktop Environment */
static char *_8x48_media_playback_start_rtl[] = {
/* columns rows colors chars-per-pixel */
"48 48 4 1 ",
"@ s foreground m white c NSCDE_FG_COLOR_5",
". s bottomShadowColor m black c NSCDE_BS_COLOR_5",
"X s background m black c NSCDE_BG_COLOR_5",
"o s topShadowColor m white c NSCDE_TS_COLOR_5",
/* pixels */
"oooooooooooooooooooooooooooooooooooooooooooooooo",
"ooooooooooooooooooooooooooooooooooooooooooooooo.",
"oooooooooooooooooooooooooooooooooooooooooooooo..",
"oooXXXXXXXXXXXXXXXXXXXXXXXXXXXXXXXXXXXXXXXXXX...",
"oooXXXXXXXXXXXXXXXXXXXXXXXXXXXXXXXXXXXXXXXXXX...",
"oooXXXXXXXXXXXXXXXXXXXXXXXXXXXXXXXXXXXXXXXXXX...",
"oooXXXXXXXXXXXXXXXXXXXXXXXXXXXXXXXXXXXXXXXXXX...",
"oooXXXXXXXXXXXXXXXXXXXXXXXXXXXXXXXXXXXXXXXXXX...",
"oooXXXXXXXXXXXXXXXXXXXXXXXXXXXXXXXXXXXXXXXXXX...",
"oooXXXXXXXXXXXXXXXXXXXXXXXXXXXXXXXXXXXXXXXXXX...",
"oooXXXXXXXXXXXXXXXXXXXXXXXXXXXXXXXXXXXXXXXXXX...",
"oooXXXXXXXXXXXXXXXXXXXXXXXXXXXXXXXXXXXXXXXXXX...",
"oooXXXXXXXXXXXXXXXXXXXXXXXXXXXXXXXXXXXXXXXXXX...",
"oooXXXXXXXXXXXXXXXXXXXXXXXXXXXXXXXXXXXXXXXXXX...",
"oooXXXXXXXXXXXXXXXXXXXXXXXXXXXXXXXXXXXXXXXXXX...",
"oooXXXXXXXXXXXXXXXXXXXXXXXXXX@@@XXXXXXXXXXXXX...",
"oooXXXXXXXXXXXXXXXXXXXXXXXX@@@@@XXXXXXXXXXXXX...",
"oooXXXXXXXXXXXXXXXXXXXXXX@@@@@@@XXXXXXXXXXXXX...",
"oooXXXXXXXXXXXXXXXXXXXX@@@@@@@@@XXXXXXXXXXXXX...",
"oooXXXXXXXXXXXXXXXXXX@@@@@@@@@@@XXXXXXXXXXXXX...",
"oooXXXXXXXXXXXXXXXX@@@@@@@@@@@@@XXXXXXXXXXXXX...",
"oooXXXXXXXXXXXXXX@@@@@@@@@@@@@@@XXXXXXXXXXXXX...",
"oooXXXXXXXXXXXXX@@@@@@@@@@@@@@@@XXXXXXXXXXXXX...",
"oooXXXXXXXXXXX@@@@@@@@@@@@@@@@@@XXXXXXXXXXXXX...",
"oooXXXXXXXXXXXXX@@@@@@@@@@@@@@@@XXXXXXXXXXXXX...",
"oooXXXXXXXXXXXXXX@@@@@@@@@@@@@@@XXXXXXXXXXXXX...",
"oooXXXXXXXXXXXXXXXX@@@@@@@@@@@@@XXXXXXXXXXXXX...",
"oooXXXXXXXXXXXXXXXXXX@@@@@@@@@@@XXXXXXXXXXXXX...",
"oooXXXXXXXXXXXXXXXXXXXX@@@@@@@@@XXXXXXXXXXXXX...",
"oooXXXXXXXXXXXXXXXXXXXXXX@@@@@@@XXXXXXXXXXXXX...",
"oooXXXXXXXXXXXXXXXXXXXXXXXX@@@@@XXXXXXXXXXXXX...",
"oooXXXXXXXXXXXXXXXXXXXXXXXXXX@@@XXXXXXXXXXXXX...",
"oooXXXXXXXXXXXXXXXXXXXXXXXXXXXXXXXXXXXXXXXXXX...",
"oooXXXXXXXXXXXXXXXXXXXXXXXXXXXXXXXXXXXXXXXXXX...",
"oooXXXXXXXXXXXXXXXXXXXXXXXXXXXXXXXXXXXXXXXXXX...",
"oooXXXXXXXXXXXXXXXXXXXXXXXXXXXXXXXXXXXXXXXXXX...",
"oooXXXXXXXXXXXXXXXXXXXXXXXXXXXXXXXXXXXXXXXXXX...",
"oooXXXXXXXXXXXXXXXXXXXXXXXXXXXXXXXXXXXXXXXXXX...",
"oooXXXXXXXXXXXXXXXXXXXXXXXXXXXXXXXXXXXXXXXXXX...",
"oooXXXXXXXXXXXXXXXXXXXXXXXXXXXXXXXXXXXXXXXXXX...",
"oooXXXXXXXXXXXXXXXXXXXXXXXXXXXXXXXXXXXXXXXXXX...",
"oooXXXXXXXXXXXXXXXXXXXXXXXXXXXXXXXXXXXXXXXXXX...",
"oooXXXXXXXXXXXXXXXXXXXXXXXXXXXXXXXXXXXXXXXXXX...",
"oooXXXXXXXXXXXXXXXXXXXXXXXXXXXXXXXXXXXXXXXXXX...",
"oooXXXXXXXXXXXXXXXXXXXXXXXXXXXXXXXXXXXXXXXXXX...",
"ooo.............................................",
"oo..............................................",
"o..............................................."
};
