/* XPM */
/* This file is a part of the NsCDE - Not so Common Desktop Environment */
static char *decal_net_leds[] = {
/* columns rows colors chars-per-pixel */
"9 20 5 1",
"  c NSCDE_BS_COLOR_5",
". c NSCDE_BG_COLOR_5",
"X c #FF0B28",
"o c #FFE50B",
"O c NSCDE_TS_COLOR_5",
/* pixels */
"        O",
" .......O",
" .......O",
" .......O",
" OOOOOOOO",
"        O",
" oooooooO",
" oooooooO",
" oooooooO",
" OOOOOOOO",
"        O",
" .......O",
" .......O",
" .......O",
" OOOOOOOO",
"        O",
" XXXXXXXO",
" XXXXXXXO",
" XXXXXXXO",
" OOOOOOOO"
};
