/* XPM */
static char * green_xpm[] = {
"64 64 65 1",
" 	c None",
".	c #222224",
"+	c #529244",
"@	c #365A2E",
"#	c #437635",
"$	c #92CE84",
"%	c #62AE54",
"&	c #223E1C",
"*	c #2B4E24",
"=	c #3E6A34",
"-	c #5CA24D",
";	c #4C8640",
">	c #3A6234",
",	c #26461C",
"'	c #8AC274",
")	c #569A4C",
"!	c #76AE64",
"~	c #518E44",
"{	c #305625",
"]	c #477E3C",
"^	c #6AA25C",
"/	c #3A5D33",
"(	c #304629",
"_	c #427234",
":	c #538A44",
"<	c #AEEA9C",
"[	c #3E6234",
"}	c #5D944C",
"|	c #68B75C",
"1	c #2A3E24",
"2	c #324E2C",
"3	c #426D35",
"4	c #60AA54",
"5	c #355E2C",
"6	c #293A24",
"7	c #A0DC8C",
"8	c #BAF6AC",
"9	c #7EB66C",
"0	c #AAE294",
"a	c #639B54",
"b	c #72AA61",
"c	c #B6F2A4",
"d	c #4E823C",
"e	c #C2FAAC",
"f	c #3E6E34",
"g	c #36562C",
"h	c #559649",
"i	c #467A3C",
"j	c #65B258",
"k	c #5EA654",
"l	c #4E8A44",
"m	c #3A6633",
"n	c #2A4A1E",
"o	c #8DC67C",
"p	c #79B269",
"q	c #4A823C",
"r	c #304A29",
"s	c #3E6634",
"t	c #2C4226",
"u	c #33522C",
"v	c #80BA6F",
"w	c #25421C",
"x	c #2E5224",
"y	c #5A9E4C",
"z	c #6EA65C",
"ll~+hh))yy--kkkk4444kkkk---yy))h++~ll;q]]i#__f==m>>55@{{{xx***nn",
"l~++h))y-kkkk44%4444%%444k--yy)hh+~~l;qq]ii#_ff=mm555{@{x{xx***n",
"~+hh)y---k444%%jjjjj%j%%%44kk--y))h~~l;qqii##_ffmmm555{{{xxx***n",
"++h)yy-k44%%jjjjjj|j|jjj%%%4kk-yy)h+~~l;qq]##ffmfm5m555{{{xx**n*",
"+h)y--k4%%jj|||||||||||||%j%44k-yy)h++~l;q]i##ffffmm5555{{xx**n*",
"h)yy-q/>>[ssss==3=3=3===s=sss/>//@5@@gx2*2*nnnn,w&w&w&66&6*{xx*n",
"h)-kk>...................................................6*x*x**",
"yy-k4>.[fmf=333333==3s==s=s>>>>>[/>>>/>@5/5/@g5@/guggu2u22x{x**n",
"y-kk4[.3ii]]]]]iiiiiiii########_#____f33f=f==sssss>[>>>>5uu{xxx*",
"y-k4%s._]]iii]]]iiiiii#i####_#_#___f_f_3=3====sss[mm>[>//2xxx***",
"-k4%%=.3i]]]iii]]iiiiiiii#####_____f_ff3=f=====sms>[>>>[5u{{{x**",
"-k4%js._]iii]]]iiiiiiiii########____33fff=f==smms[mm>/[5/2x{x***",
"-4%jjs.=]]]iii]]]iiii##iiii#####______333=f===s=ms>>s>[[52u{{xx*",
"k4%j|=.=iii]]]iii]]iiiii######_______f_f=3===s=sssm[[5>>/u{{xx**",
"k4%j|s.f]]iii]]]ii]]q]iii###_###___f3f3f=====sm=ssm>[>5//2u{{xx*",
"k%j||=.fii]]]ii]qq;:;;d]ii####____f__f_3f3====ssmm>>>/[[5u{{xx**",
"k4%||3.fiii#]]i];:}aa}~dii######_____f_3ff====msssmms>>[52{{{xx*",
"4%j||=.=ii]]ii]q:ab9v!a~di##_#_____f3fff==f=mssssm[[>>>/@uu{xx*x",
"k%%||=.=iiii]i];}bo77$9a:]i####__f___3ff3=f===sssm>>>5[[5u{{{x**",
"44j||3.fi#iii]];a97c80'^:]##______f_ff=3=====mmm[sm[[[55/2u{xxxx",
"4%%||=.miii#i]];a97ce<oz~di####___f3__fff=====sm>m>>>[[5/2{{{x**",
"k4j||=.f#iiiii];}!$0<79^:]##________f3======sssss[>>[>///u{{xxx*",
"k4%||s.=ii#i#i];~ap''vb}d]###__f_3f3f33==f==ssssms[>>>[5@2{{xxx*",
"k4%%|=.f#ii#iiiid~a^za}:]###____f___3ff3f=====sms>>>/>>//2u{{x**",
"-k%%|s.=#iiii#iiid;~~:dii#_##___fff_f=f===mmmms>m>>s>5[55u{xxxx*",
"-k4%js.=#####i#ii#diddii#_#______3ff33======ssss>>[5/[/[@2u{xx**",
"--44js.f########i#iii#i_#____ff3_33f=3====ss=smss>[[5>5/@2u{xx**",
"ykk%%[.=##########_____#_#______f_fff=f=====smsm>[>>[[5/@2x{{*x*",
")--k%>.=###_###_#i##i#_#___f_3__f33=f====mmms[[>>>>>5/[/@2xxx***",
")y-kk[.s##_#####______#___f_f_ffff=3======sssmmm>[[5[[5/@2*{xx**",
"})-kk/.s_###__######_________f333ff3===msssssm[>>5[55/5/@22{****",
"h))y-[.s#___##____________f3ff_fff==f=m=m=smm>>[>[5[///5@2xxx*nn",
"+h)yy/.[#_#__#_##_____ff3__f_fff=f====s=mms[sm>[[[5[>5@/g2*xx**n",
"+hh)y/.m________3____f___ff3f=3=3=f====ssssmm>>>>>[5///@@r2x**n*",
"l+hh)@./_3__3_3_33_3_3ff3__33f3======msssss>[>>55/5//5/5@2*xx*nn",
"l~~hhg.[__3_______3_3__f_f=ff==f====s==ss>ms>[[[[[[//@/@@22***nn",
";~~++g.[__3_3_____f_ff_f3f==ff=3====mmmms[>>>>>555[5/@@@g2****nn",
";;ll+u.@ff_f_ffffffff3fff3f3======mmssssmm>>>[5[[/5////@@r2**nnn",
"qqll~u.>_f3f33333333f===========m=ssssss>m[[5[5/>//5@@@@@r****,n",
"]qq;;u./=f_f_fffffff=33ff=f====m=s=sss>>m[>>[>[[5//@/@@@g2rnnnn,",
"]]q;;u./==3=33fffff3f===3====m=smsmmmsm[>>>>555////@@/@@gr*nnnn,",
"#ii]q2.g3f=ff===============m=smsmssmm>>>[/5[[/5//@/@/@@grr*nn,,",
"#iii]r./=f==f=33==f=======m=ssssss>[>[>>>[[5/>5/@/@@@@g@@rrn,nn,",
"###iir.@================m==ssmsssmsm>>>[>[55/////@/@/g@@grnnn,,,",
"f_##ir.g=========m==smmssssmssm>s>>[>[555[[[/5/5@@@/g@gggrrn,,,,",
"f_f__(.@ss=s=mm=s=m==ss=ssmssmss>m>>>>[[[/55//@@/@@g/g@gg(n,n,,w",
"=ff_f(./=m=s==s=s=mm=ssmmssms>>>>[>[5>55[5//@/@@@/@g@g/gg(n,,w,,",
"mmmf_t.@msm=ssmsssssssmsssm[>m>>[>[5[/[[5/5//@@/g/g/@ggggr(,,,,w",
"=mm=fw.gssmsssmmsssmm[[>m[>m[>[>>>[>[55///5///@@/ggg/gggurr,,www",
"5mmmmt.@ms[mmsss>mm[smmm>m>>>[>>>5>55////@@@@/@@g/@gggggg((,w,ww",
"5m5mmt.@>m[>m>mm[[m>>>[>>>[>>>5/[5//[5//5/@@@@/@gg/gggggu((,w,ww",
"555m>6.g>[ms>m>[>>>>[>>[>[5>>5[[5/>[@/5/@@/@/ggg@@gggguuu((,wwww",
"555551.u>>>[[[>>>[>>[>>/>[/5[55/[55/5/5@@@/g/@@gggggggggu((,wwww",
"{5{556.g>//>>>>>>>[>>>>[5>[[/[>[5/@/@@@//g/@gg/@gggggguux(twww&&",
"{555{1.g>>>//>>>>>>555[[555/555//5///@@@@@g/ggg@@ggggguuu((wwwww",
"{{{{56.g>>5>>5//55////55/[5[/@/@@@@@@//g/g@g/ggggggguuuu2(t&w&&&",
"x{{{{6.g5/55//5///>/5@/5@5@@/@//5@/ggg@g@ggggggugguuuuuu2(,&ww&&",
"{{{{{6622uuuuuu2uu2uu22222222222r2r222r2rrrrrr(rr((r(((((ttw&&&&",
"*xxxxnuuuuuuguguuuuugggguuuuu22u2u2222rr2rrrrrr((r(((t(wttww&w&&",
"*x*xxxx{{x{{x{{{{{{{{{{{{{{{x{xxx2x*****n*nnnn,,,ww,wwwwww&&w&&&",
"*x*x*x*xxxx{{x{{{{{x{xx{{xxxxxxxx*x*****nnnn,,,,,,w,,www&w&&&&&&",
"nn****x*xxx*xxxxxxxxxxxxxxxx*x****n*nnnnnn,,,(,,,w,ww&w&w&w&&&&&",
"*nn*******x*x*x**xx*xx**x**x******nnnnnn,n,,,,,w,wwww&w&&&&&&&&&",
"n*nn*n*********x***********n***nnnnnnn,,,,,,,wwwwww&ww&&&&&&&&&&"};
