/* XPM */
static char * rolex2_xpm[] = {
"64 64 65 1",
" 	c None",
".	c #211E1C",
"+	c #8E8C8A",
"@	c #514F4C",
"#	c #CAC9C6",
"$	c #74706D",
"%	c #B1ACA6",
"&	c #373431",
"*	c #6A4E54",
"=	c #4B3557",
"-	c #7D7F7D",
";	c #EAE8E3",
">	c #9F9C99",
",	c #BEBCB7",
"'	c #605F5C",
")	c #272423",
"!	c #7F716D",
"~	c #454340",
"{	c #68615F",
"]	c #D9D8D6",
"^	c #58514F",
"/	c #BAACA6",
"(	c #998C86",
"_	c #4D4745",
":	c #786763",
"<	c #3F3533",
"[	c #A89D94",
"}	c #8D837D",
"|	c #F8F8F4",
"1	c #332A28",
"2	c #6C6864",
"3	c #5C5855",
"4	c #54486A",
"5	c #787774",
"6	c #2F1349",
"7	c #D2C9C6",
"8	c #342658",
"9	c #3A3A39",
"0	c #F2F1ED",
"a	c #403C39",
"b	c #E1E0DE",
"c	c #4E3D4B",
"d	c #665958",
"e	c #C9BFB7",
"f	c #B4B3AF",
"g	c #BEB5AF",
"h	c #2D2B28",
"i	c #817975",
"j	c #AAA49F",
"k	c #321C60",
"l	c #57484B",
"m	c #A2A3A1",
"n	c #9B9490",
"o	c #D4D0CC",
"p	c #92829C",
"q	c #3F2B57",
"r	c #3A3264",
"s	c #5D516C",
"t	c #85817E",
"u	c #443452",
"v	c #C1C2C0",
"w	c #322E2B",
"x	c #665A84",
"y	c #DFD9D4",
"z	c #909291",
"           $]];b>vb0|||0;vb+$]$@%-355zfv0||||0;]z]00;-          ",
"          _+z+m>2-zm#v+%@';+'0m@;>9#%~$t5+,]#m+-$fzfm'          ",
"          ~$'{22{$55-92bz-vf-bb]o##f2$vz''z2't$'2$$5-+l         ",
"          a33'323$9',z$2~9hh)+bz%m]~))&@+v>@@-'2'''222^         ",
"          _332'23m5@@&))h)hhh)+#0>-~))h)h9'5z'39-'@@3@3         ",
"         _3323+&@'~)))))).))hh9%o5~')@~)&)))h^''92@~~~~         ",
"         2'''35t_%'.)...)))))h)@>h~9)'h.2).w..$$'a@$@9~2        ",
"        {5523&3hhvv).....)9'2---t$$$3@))'..2.@,5)'@a$a&@        ",
"        -$335a...2]5..)9-vov>+5$${d3!zmm2h99.m%)..33&2{9        ",
"       a+2&@9.....mm)~5+>f,v,gg,gg//gg%mj%t9~f3.9..9^9'@^       ",
"       23^'w......w_$''zfv##fz}inin}j,yye}!(2~.&@...w^@~!       ",
"      :@~$&......)@@3+>++m+$_9l1!.^h:5/eg/[::5~~..9).&@@9       ",
"     8_2_9......&_~$z+$29@w99&<1~)<._._~i([j(d2'.w3...9@''      ",
"     ^{5@))....&~_-!$-&~&hhhw~ggeg!.).<.^1{(}n:@29..9))9a~3     ",
"    _^w{))....99^-33&a_h)h)))ho0;;~)..).1.i1d{(5_2h9@)..9~@     ",
"   8@5$5>@)h)9935@<&_h-f2)))).}0|7..).._#ga.^a3t$~2&.)h))~@)    ",
"   ~l-3mw-+)9&3t~&_)h~b0bwh)))&;0!)....j00$.h.3^i!_'.@@h59~'    ",
"   {~@$z-&>w~~-~_)h))<y;7)))))./b<).)..+0b@).<1&3-'__93-5t9_@   ",
"  r3-$5-,m5a&}@&w&))hh3+^))...)2%.).)))&!@..)))@a@+@3922h92@~1  ",
"  9^3-+-3z~~5$~_))hw))wh)).))))wd.))...))))..))wh35ia3'9@$9~@@  ",
"  ac1h@@>3~_5$hw&)1))))h)).)).)h&)..))))))..))))@&{}'@9$@w)h@3  ",
" 6{{.))h~_a2$'25yja)))))))).).~i}!)....)..)))^f$~w$i5~@&'~))9~~ ",
"6)d~.).))~~'_h~b|02))))))))..._,,+.....))....g|;a'~a3@@&.)))h@23",
"6l~w....w~@_a~&o|y3h)))))))))))]02......))1.)o0b_h&^@{~a.9@))~@$",
"6*d.....9a^a))1~t~1))1.)...).h)+f&...)...)1..!,5))_w&d@@&~).)9@@",
"8d_....)&~@a_).)))))))).).^t'''29@{~$_))..)))hw))h)<3_3~&)..)&35",
"ua&....)<_a1.............)3'@''5@2+@+91))..)))))))h~aa{aa939.h9~",
"l:&....)<~a_<........)....3mz>'-+--5t@))..)))))))).ha~'~@h..))~~",
"3{h....h&_<...........)...~'~~&9@99~3&...))))h)))h.a~&@~_).).)a'",
"wc.....&&_as).)))1.....))...)..).)......)))h))))))))w&@_@&33))&a",
"3dh)...w&~1..1c_^{{_....).))).&9@&)..).)..)))h999&9h@~@^~)....9@",
"*{+,,g2@&_s!.}bb;;0t.)......))$<_&1...).))).@fvvff5)ww@'~&55-5&_",
"<_{-t}@a&_w).3p++p}3.....)))).l_@3))..).))..3,##vv$h-2333ammmz9~",
"*d).)..a&~&_))h.)))...........)ddw...........hwh&h&))w_^@)))))93",
"={)....awa&)..).))..............................)))h@a_3_h....9~",
"=^1))..w&_&91..))..............)..))))))))...)....)))h3_~)....9~",
"~lw....w&_<&.....).....)....)........))))))).)..)..&5<2~~.....~3",
"<2c))..)&~~1a....)).)...)......)..))))))))))))h))))))<2~~....h_3",
"r@~).)))<a_aw...)1...)....l{s!dx{@@@s&.)))))))&)))1@a_2_&....w9~",
"89l1).).&a@~wc)w/7<)))k.).~2'52$$32$$_.))))hw+o2)h))<{@')....~l2",
"k@{w))))h<4^~w){00p.)))11)}+53}$~222@~.)))))_b|o1h_~95a@....)@3$",
" l'l.)1))a9d^_d^b0i)1))1hh@@@339w'333{..))))ab0%)&)ad{@w....w_{2",
" 4&_1.1{}<a^!{&1{$&1)1)11hh)h).h).).).))..)))'-<)${di~'_&..._'^c",
" u^{&ln2^:lc2$~^&&wwwwwww1wh))h.h)))))..))).))hhwh3i2_~55.hh^@  ",
"  ad@tl1$na~^2@aaa&&&a$'&w&whhha~)))))))&)).))))~_$!a2^95)t@3u  ",
"   <lc[nnol~c''^d~<a&[0b3)w&w&)f+)))))w,y$.).)99h~-_d_t^$252_   ",
"   9!i_%:_})a_{2^^39&g|;^)w&ww1/})hh))'|0#)))w)aa:3@@th_+@3@    ",
"    *dd[>>z<&@~'t+{3_$,v&hh)h)<gth1)hh_o;(.))lw9{'_@)~}a'2'@    ",
"    .<iaca___&a~-g7j'~^$)h))1)a/+w&)111~dw1_&w_22~3)).)5t'$<    ",
"     lit9^^^33&@n%j[:!d&w)h1h1aj}w&&&<w&w^_h@_$3~_)).)).^_a     ",
"     <*_2@{225$ame[[>}l1w1w1&~_/}&~99a&__w:3$5^~@h)))).~323     ",
"      c^[${:itm>_2{}nn({^<&',(}'{@2+~~@a''}z$_@a)...).&32_      ",
"       3(i!$t(jfj2'!:[ejn(-$vji$@33'55-$-zt'^_9))h)))h'3_       ",
"       +{<jt}>j%/jj5!(je,7,7;g/ff,###f>>52333_)h))))h2-@        ",
"       {f:[[!(j/g,0b$3!(e,f,7ee7vvfffm>-$2~w>]&whh)92a'a        ",
"        eg!@:[(fj;|%@l__^}jj%/j%,v#o],>$~&&w3;>whw~-z5@         ",
"        m#e}}g}}%|b'_~l~c~_^{-tz>z+5'@~~~aa9&>;^92'@5{l         ",
"        (oee[$djgem3@~~______f;oo#>3{3@__~a99~+'5%t'$$)         ",
"        ~bbo7#n%ji>:'@~@_~l__>,;;$}''''^@@~c~3mz_-:5i$          ",
"         g||0|0g+:7#vj2@l~@~@jf;0j$$2'33@@'5+3>ii}}i5@          ",
"         i|||||]|7j$5b;,+{3'3,];bgf3'3'tj%+]j^n##n}i(l          ",
"         4;|000#|0bm([}}y]/yo,],jo%>>vo$]g^5-%ob##%,j           ",
"          %7ee#,bo]bbg(}(}:/g{ny$$y+@,zd}t(/o,/jv|||g           ",
"          }[[j/[]o,g[(}!(!!}}:ii:!{}{!}!!!}}(nj>%|;;t           "};
