/* XPM */
/* This file is a part of the NsCDE - Not so Common Desktop Environment */
static char * ArrowLeft_xpm[] = {
"32 32 4 1",
".      c #248149035383",
"+      c #3e0c7c198df3",
"@      c #49009200a700",
"#      c #ada7ce80d7f3",
"@..............................@",
".#############################+.",
".############################++.",
".##@@@@@@@@@@@@@@@@@@@@@@@@@@++.",
".##@@@@@@@@@@@@@@@@@@@@@@@@@@++.",
".##@@@@@@@@@@@@@@@@@@@@@@@@@@++.",
".##@@@@@@@@@@@@@@@@@@@@@@@@@@++.",
".##@@@@@@@@@@@@@@@@@@@..@@@@@++.",
".##@@@@@@@@@@@@@@@@@..@#@@@@@++.",
".##@@@@@@@@@@@@@@@..@@@#@@@@@++.",
".##@@@@@@@@@@@@@..@@@@@#@@@@@++.",
".##@@@@@@@@@@@..@@@@@@@#@@@@@++.",
".##@@@@@@@@@..@@@@@@@@@#@@@@@++.",
".##@@@@@@@..@@@@@@@@@@@#@@@@@++.",
".##@@@@@..@@@@@@@@@@@@@#@@@@@++.",
".##@@@..@@@@@@@@@@@@@@@#@@@@@++.",
".##@@@#@@@@@@@@@@@@@@@@#@@@@@++.",
".##@@@@@#@@@@@@@@@@@@@@#@@@@@++.",
".##@@@@@@@#@@@@@@@@@@@@#@@@@@++.",
".##@@@@@@@@@#@@@@@@@@@@#@@@@@++.",
".##@@@@@@@@@@@#@@@@@@@@#@@@@@++.",
".##@@@@@@@@@@@@@#@@@@@@#@@@@@++.",
".##@@@@@@@@@@@@@@@#@@@@#@@@@@++.",
".##@@@@@@@@@@@@@@@@@#@@#@@@@@++.",
".##@@@@@@@@@@@@@@@@@@@##@@@@@++.",
".##@@@@@@@@@@@@@@@@@@@@@@@@@@++.",
".##@@@@@@@@@@@@@@@@@@@@@@@@@@++.",
".##@@@@@@@@@@@@@@@@@@@@@@@@@@++.",
".##@@@@@@@@@@@@@@@@@@@@@@@@@@++.",
".#+++++++++++++++++++++++++++++.",
".++++++++++++++++++++++++++++++.",
"@..............................@"};
