/* XPM */
static char * DtFpSubMenu_m_xpm[] = {
/* width height ncolors cpp [x_hot y_hot] */
"32 32 11 1 0 0",
/* colors */
" 	s none	m none	c none",
".	s iconColor2	m white	c white",
"X	s iconColor5	m black	c blue",
"o	s iconGray8	m black	c #212121212121",
"O	s iconGray5	m black	c #737373737373",
"+	s iconGray2	m white	c #bdbdbdbdbdbd",
"@	s iconGray3	m white	c #adadadadadad",
"#	s iconGray7	m black	c #424242424242",
"$	s iconGray1	m white	c #dededededede",
"%	s iconGray4	m white	c #949494949494",
"&	s iconGray6	m black	c #636363636363",
/* pixels */
"                   ..........   ",
"                  ..XXXXXXXXoo  ",
"  .................XXXXXXXXXXoo ",
"  .OOOOOOOOOOOOOOOOOOOOOOOOOOOOo",
".............................oOo",
".+++++++++++++++++++++++++++OoOo",
".+++++++++++++++++++++++++++OoOo",
".++.............................",
".++.@@@@@@@@o.+++++++++++++++++o",
".++.@@@.@@@@o.+++++++++++++++++o",
".++.@@@..@@@o.+##############$+o",
".++.@@@...@@o.+#%%%%%%%%%%%%%$+o",
".++.@@@....@o.+#%$.$%.$.$$%%%$+o",
".++.@@@...o@o.+#%%%%%%%%%%%%%$+o",
".++.@@@..o@@o.+$$$$$$$$$$$$$$$+o",
".++.@@@.o@@@o.+++++++++++++++++o",
".++.@@@o@@@@o.+++%++++%++++++++o",
".++.@@@@@@@@o.+++oOo%ooOo++++++o",
".++.ooooooooo.+++++++++++++++++o",
".++++++++++++.+++++++++++++++++o",
".++++++++++++.+++%+%++%++++++++o",
".++++++++++++.+++ooOo+oo+o+++++o",
".++++++++++++.+++++++++++++++++o",
".++++++++++++.+++++++++++++++++o",
".++++++++++++.++++%++%+++++++++o",
".&&&&&&&&&&&&.+++ooo+oOoo++++++o",
" oooooooooooo.+++++++++++++++++o",
"             .+++++++++++++++++o",
"             .+++++++++++++++++o",
"             .+++++++++++++++++o",
"             .+++++++++++++++++o",
"             ooooooooooooooooooo"};
