/* XPM */
static char * editres_xpm[] = {
"32 32 12 1",
" 	s background	c None",
".	c #0000FFFF30C2",
"X	c black",
"o	c #000065950000",
"O	c #451445144514",
"+	c #75D675D675D6",
"@	c #FFFFCF3C9A69",
"#	c #30C26595FFFF",
"$	c #FFFFFFFFCF3C",
"%	c #FFFF00000000",
"&	c #CF3C00000000",
"*	c white",
"        ....   X                ",
"      ....... XXX               ",
"     ...o.oooOXOO+              ",
"    .o.o.oo@@@X@@XX             ",
"    .ooooo@@O#@@@X$X            ",
"    o  oo@@@@@@@X$$$X           ",
"    oo  o@O@%&@@@X$$$X          ",
"     o  O@#@%&@%@X$$$$X         ",
"       XXX@@@@@%@XX$$$$X        ",
"      XXO@@@@%%@@X#X$$$$X       ",
"     XXXO@@X@@@@X##%X$$$$X      ",
"    XXXX+XX$XXXX##X%X$$$$$X     ",
"   XXXX+$$$$$$$X#X%%#X$$$$$X    ",
"  XXXX+$$$$$$$$$X%%X#X$$$$$$X   ",
" XXXX+$$$$$$$$$$$%X##X$$$$$$$X  ",
"X+XX+$$$$$$$$$$$$X##X%#$$$$$$$X ",
" X++$$$$$$$$$$$$$$#X%X#$$$$$$$@X",
"  X*$$$%%%%%%$$$$$X%%%#$$$$$$@X ",
"   X*$$%%%%%%$$$$$$%X#$$%%%$@X  ",
"    X*$$%%%%%%$$$$$X#$$%%%%@X   ",
"     X*$$%%%%%%$$$$$$$$%%%@X    ",
"      X*$$%%%%%%$$$$$$%%%@X     ",
"       X*$$%%%%%%$$$$%%%@X      ",
"        X*$%%%%%%$$$%%%@X       ",
"         X*$%%%%%%$%%%@X        ",
"          X*$%%%%$%%%%%         ",
"           X*%%%$%%%%%%%        ",
"            %%%$$$%%%%%%        ",
"           %%%*$$$@%%%%%%       ",
"          %%% X*$@X %%%%%%      ",
"         %%%   X*X  %%%%%%%     ",
"        %%%     X    %%%%%%     "};
