/* XPM */
/* This file is a part of the NsCDE - Not so Common Desktop Environment */
static char * Info_xpm[] = {
"24 24 2 1",
" 	c None",
".	c #000000",
"                        ",
"          ....          ",
"         . . .          ",
"         .. .           ",
"         . . .          ",
"          . .           ",
"                        ",
"                        ",
"        ......          ",
"        . . .           ",
"         ... .          ",
"          . .           ",
"          .. .          ",
"          . .           ",
"          .. .          ",
"          . .           ",
"          .. .          ",
"          . .           ",
"          .. .          ",
"        ... . ..        ",
"        .. . . .        ",
"        . . . .         ",
"                        ",
"                        "};
