/* XPM */
/* This file is a part of the NsCDE - Not so Common Desktop Environment */
static char * LastPressedFPB_xpm[] = {
"59 57 3 1",
" 	c None",
".	c #ed00a8007000",
"+	c #c600b2d2a87e",
"...........................................................",
".+++++++++++++++++++++++++++++++++++++++++++++++++++++++++.",
".+++++++++++++++++++++++++++++++++++++++++++++++++++++++++.",
".+++++++++++++++++++++++++++++++++++++++++++++++++++++++++.",
".+++++++++++++++++++++++++++++++++++++++++++++++++++++++++.",
".+++++++++++++++++++++++++++++++++++++++++++++++++++++++++.",
".+++++++++++++++++++++++++++++++++++++++++++++++++++++++++.",
".+++++++++++++++++++++++++++++++++++++++++++++++++++++++++.",
".+++++++++++++++++++++++++++++++++++++++++++++++++++++++++.",
".+++++++++++++++++++++++++++++++++++++++++++++++++++++++++.",
".+++++++++++++++++++++++++++++++++++++++++++++++++++++++++.",
".+++++++++++++++++++++++++++++++++++++++++++++++++++++++++.",
".+++++++++++++++++++++++++++++++++++++++++++++++++++++++++.",
".+++++++++++++++++++++++++++++++++++++++++++++++++++++++++.",
".+++++++++++++++++++++++++++++++++++++++++++++++++++++++++.",
".+++++++++++++++++++++++++++++++++++++++++++++++++++++++++.",
".+++++++++++++++++++++++++++++++++++++++++++++++++++++++++.",
".+++++++++++++++++++++++++++++++++++++++++++++++++++++++++.",
".+++++++++++++++++++++++++++++++++++++++++++++++++++++++++.",
".+++++++++++++++++++++++++++++++++++++++++++++++++++++++++.",
".+++++++++++++++++++++++++++++++++++++++++++++++++++++++++.",
".+++++++++++++++++++++++++++++++++++++++++++++++++++++++++.",
".+++++++++++++++++++++++++++++++++++++++++++++++++++++++++.",
".+++++++++++++++++++++++++++++++++++++++++++++++++++++++++.",
".+++++++++++++++++++++++++++++++++++++++++++++++++++++++++.",
".+++++++++++++++++++++++++++++++++++++++++++++++++++++++++.",
".+++++++++++++++++++++++++++++++++++++++++++++++++++++++++.",
".+++++++++++++++++++++++++++++++++++++++++++++++++++++++++.",
".+++++++++++++++++++++++++++++++++++++++++++++++++++++++++.",
".+++++++++++++++++++++++++++++++++++++++++++++++++++++++++.",
".+++++++++++++++++++++++++++++++++++++++++++++++++++++++++.",
".+++++++++++++++++++++++++++++++++++++++++++++++++++++++++.",
".+++++++++++++++++++++++++++++++++++++++++++++++++++++++++.",
".+++++++++++++++++++++++++++++++++++++++++++++++++++++++++.",
".+++++++++++++++++++++++++++++++++++++++++++++++++++++++++.",
".+++++++++++++++++++++++++++++++++++++++++++++++++++++++++.",
".+++++++++++++++++++++++++++++++++++++++++++++++++++++++++.",
".+++++++++++++++++++++++++++++++++++++++++++++++++++++++++.",
".+++++++++++++++++++++++++++++++++++++++++++++++++++++++++.",
".+++++++++++++++++++++++++++++++++++++++++++++++++++++++++.",
".+++++++++++++++++++++++++++++++++++++++++++++++++++++++++.",
".+++++++++++++++++++++++++++++++++++++++++++++++++++++++++.",
".+++++++++++++++++++++++++++++++++++++++++++++++++++++++++.",
".+++++++++++++++++++++++++++++++++++++++++++++++++++++++++.",
".+++++++++++++++++++++++++++++++++++++++++++++++++++++++++.",
".+++++++++++++++++++++++++++++++++++++++++++++++++++++++++.",
".+++++++++++++++++++++++++++++++++++++++++++++++++++++++++.",
".+++++++++++++++++++++++++++++++++++++++++++++++++++++++++.",
".+++++++++++++++++++++++++++++++++++++++++++++++++++++++++.",
".+++++++++++++++++++++++++++++++++++++++++++++++++++++++++.",
".+++++++++++++++++++++++++++++++++++++++++++++++++++++++++.",
".+++++++++++++++++++++++++++++++++++++++++++++++++++++++++.",
".+++++++++++++++++++++++++++++++++++++++++++++++++++++++++.",
".+++++++++++++++++++++++++++++++++++++++++++++++++++++++++.",
".+++++++++++++++++++++++++++++++++++++++++++++++++++++++++.",
".+++++++++++++++++++++++++++++++++++++++++++++++++++++++++.",
"..........................................................."};
