/* XPM */
/* This file is a part of the NsCDE - Not so Common Desktop Environment */
static char *Mail_s[] = {
/* width height num_colors chars_per_pixel */
"    48    48       16            1",
/* colors */
". c None",
"# c #dedede",
"a c #bdbdbd",
"b c #adadad",
"c c #949494",
"d c #737373",
"e c #636363",
"f c #ffffff",
"g c #636363",
"h c #ff0000",
"i c #00ff00",
"j c #000000",
"k c #bdbdbd",
"l c #424242",
"m c #868686",
"n c #7d7d7d",
"................................................",
"................................................",
"................................................",
"................................................",
"................................................",
"................................................",
"................................................",
"................................................",
"................................................",
"................................................",
"................................................",
"......cccgcgcgcgcgcgcggmgmgmgmgmgmgmmmmmmn......",
"......c#####################a#a#aaaaaaaaam......",
".....cc#bbbbccccccccccccccdddddddddededednm.....",
".....c####################a#a#aaaaaaaaaaaan.....",
"....cg#bccccccccccccccdddddddddddddedededem.....",
"....cfffffffffffffffffffffffffffffffffffffg.....",
"....cf###############################a#a##g.....",
"....cf#dd#d####################hd##hdibia#g.....",
"....cf###########################hd#adid##g.....",
"....gf#ddd#####################hd##hddida#g.....",
"....cf###########################hd#aibi##g.....",
"....gf####################################g.....",
"....cf####################################g.....",
"....gf##################################a#dg....",
"...gcf###################################aeag...",
"..gfdf################################a#a#ecag..",
".gfdef#################################aaaejcag.",
"gf#bbbccccccaaa#####################adddddddddak",
"gf#b########cbba###dd#dddd#dd#######d#########lk",
"gf##bcccccccdebaa#################ad#ccccccdeelk",
"gf#bbbccccccdebba##ddddd#dddd######d#cccccdddelk",
"gf##bcccccccdebab###############a#ad#ccccccdeelk",
"gf#bbbccccccdebbabaaaaaaaaaaaaaaaaad#cccccdddelk",
"gf##bccccccccdebbbbbbbbbbbbbbbbbbbd#cccccccdeelk",
"gf#bbbccccccccceeeeeeeeeeeeeeeeeee#cccccccdddelk",
"gf##bcccccccccc###################cccccccccdeelk",
"gf#bbbccccccccccccccccccccccccccccccccccccdddelk",
"gf##bccccccccccccccccccccccccccccccccccccccdeelk",
"gf#bbbccccccccccccccccccccccccccccccccccccdddelk",
"gabbddddddddddddddddddddddddddddddddddddddddeelk",
"gbeeeeeeeeeeeeeeeeeeeeeeeeeeeeeeeeeeeeeeeeeeeeek",
".kkkkkkkkkkkkkkkkkkkkkkkkkkkkkkkkkkkkkkkkkkkkkk.",
"................................................",
"................................................",
"................................................",
"................................................",
"................................................",
};
