/* XPM */
/* This file is a part of the NsCDE - Not so Common Desktop Environment */
static char * Noicon_xpm[] = {
"60 60 136 2",
"  	c None",
". 	c #BDBDBD",
"+ 	c #424242",
"@ 	c #636363",
"# 	c #A0A0A0",
"$ 	c #BABDBF",
"% 	c #2C3642",
"& 	c #26303C",
"* 	c #1F2935",
"= 	c #16202C",
"- 	c #1D2733",
"; 	c #1F2734",
"> 	c #272E38",
", 	c #272B34",
"' 	c #161F2E",
") 	c #192231",
"! 	c #202938",
"~ 	c #262F3E",
"{ 	c #283140",
"] 	c #232C3B",
"^ 	c #142131",
"/ 	c #1B2531",
"( 	c #273341",
"_ 	c #1C2836",
": 	c #25313F",
"< 	c #283442",
"[ 	c #24303E",
"} 	c #1D2A3A",
"| 	c #1D2D3D",
"1 	c #222C38",
"2 	c #1E2A38",
"3 	c #0D1927",
"4 	c #212D3B",
"5 	c #0D1D2D",
"6 	c #131F2F",
"7 	c #1B2735",
"8 	c #202C3A",
"9 	c #222E3C",
"0 	c #263240",
"a 	c #1F2F3F",
"b 	c #19232F",
"c 	c #14202E",
"d 	c #1B2B3B",
"e 	c #192535",
"f 	c #15212F",
"g 	c #131F2D",
"h 	c #202D3D",
"i 	c #232D39",
"j 	c #1D2937",
"k 	c #162636",
"l 	c #253141",
"m 	c #172331",
"n 	c #1F2B39",
"o 	c #232F3D",
"p 	c #121E2C",
"q 	c #1E2E3E",
"r 	c #243040",
"s 	c #182432",
"t 	c #1E2B3B",
"u 	c #1C2C3C",
"v 	c #394553",
"w 	c #2C3846",
"x 	c #2A3644",
"y 	c #1B2737",
"z 	c #202A36",
"A 	c #1A2634",
"B 	c #192533",
"C 	c #172737",
"D 	c #232F3F",
"E 	c #2D3947",
"F 	c #2B3745",
"G 	c #303A46",
"H 	c #101C2A",
"I 	c #162230",
"J 	c #293545",
"K 	c #171E2E",
"L 	c #263242",
"M 	c #181E2C",
"N 	c #192233",
"O 	c #1E2A3A",
"P 	c #2A3141",
"Q 	c #1C2838",
"R 	c #222836",
"S 	c #0F1829",
"T 	c #212D3D",
"U 	c #1E2535",
"V 	c #202C3C",
"W 	c #222B3C",
"X 	c #181F2F",
"Y 	c #212735",
"Z 	c #20293A",
"` 	c #172333",
" .	c #252934",
"..	c #29313E",
"+.	c #222F40",
"@.	c #111E2F",
"#.	c #1E2B3C",
"$.	c #202D3E",
"%.	c #233041",
"&.	c #202632",
"*.	c #1A2332",
"=.	c #1A2738",
"-.	c #212E3F",
";.	c #1C293A",
">.	c #3F434E",
",.	c #2F3744",
"'.	c #2A3646",
").	c #3C4044",
"!.	c #232935",
"~.	c #272B37",
"{.	c #1B2733",
"].	c #212A39",
"^.	c #1B2433",
"/.	c #2A3342",
"(.	c #1C2534",
"_.	c #252E3D",
":.	c #161E2B",
"<.	c #111F2C",
"[.	c #29333F",
"}.	c #2F3945",
"|.	c #2D3743",
"1.	c #212B37",
"2.	c #232B38",
"3.	c #1A2835",
"4.	c #121C28",
"5.	c #262E3B",
"6.	c #303845",
"7.	c #19212E",
"8.	c #1C2431",
"9.	c #2C3441",
"0.	c #303644",
"a.	c #BCBDBF",
"b.	c #BDBEC0",
"c.	c #BEC2C9",
"d.	c #B8BABD",
"e.	c #B8C1C9",
". . . . . . . . . . . . . . . . . . . . . . . . . . . . . . . . . . . . . . . . . . . . . . . . . . . . . . . . . . . . ",
". . . . . . . . . . . . . . . . . . . . . . . . . . . . . . . . . . . . . . . . . . . . . . . . . . . . . . . . . . . + ",
". . @ @ @ @ @ @ @ @ @ @ @ @ @ @ @ @ @ @ @ @ @ @ @ @ @ @ @ @ @ @ @ @ @ @ @ @ @ @ @ @ @ @ @ @ @ @ @ @ @ @ @ @ @ @ @ @ + + ",
". . @ @ @ @ @ @ @ @ @ @ @ @ @ @ @ @ @ @ @ @ @ @ @ @ @ @ @ @ @ @ @ @ @ @ @ @ @ @ @ @ @ @ @ @ @ @ @ @ @ @ @ @ @ @ @ @ + + ",
". . @ @ + + + + + + + + + + + + + + + + + + + + + + + + + + + + + + + + + + + + + + + + + + + + + + + + + + + + @ @ + + ",
". . @ @ + . . . . . . . . . . . . . . . . . . . . . . . . . . . . . . . . . . . . . . . . . . . . . . . . . . . @ @ + + ",
". . @ @ + . . . . . . . . . . . . . . . . . . . . . . . . . . . . . . . . . . . . . . . . . . . . . . . . . + . @ @ + + ",
". . @ @ + . . . . . . . . . . . . . . . . . . . . . . . . . . . . . . . . . . . . . . . . . . . . . . . . . + . @ @ + + ",
". . @ @ + . . . # # # # # # # # # # # # # # # # # # # # + . . . # # # # # # # # # # # # # # # # # # # # + . + $ @ @ + + ",
". . @ @ + . . . # # # # # # # # # # # # # # # # # # # + + . . . # # # # # # # # # # # # # # # # # # # + + . + . @ @ + + ",
". . @ @ + . . . # # + + + + + + + + + + + + + + + + # + + . . . # # . % . & . * . = . - . ; . > . , # + + . + . @ @ + + ",
". . @ @ + . . . # # + + + + + + + + + + + + + + + + # + + . . . # # ' . ) . ! . ~ . { . ] . ^ . / . # + + . + . @ @ + + ",
". . @ @ + . . . # # + + + + + + + + + + + + + + + + # + + . . . # # . ( . _ . : . < . [ . } . | . 1 # + + . + . @ @ + + ",
". . @ @ + . . . # # + + + + + + + + + + + + + + + + # + + . . . # # 2 . 3 . 4 . 4 . : . < . 5 . 6 . # + + . + . @ @ + + ",
". . @ @ + . . . # # + + + + + + + + + + + + + + + + # + + . . . # # . 7 . 8 . 9 . ( . 0 . } . a . b # + + . + . @ @ + + ",
". . @ @ + . . . # # + + + + + + + + + + + + + + + + # + + . . . # # c . 8 . 2 . 0 . ( . 9 . d . e . # + + . + . @ @ + + ",
". . @ @ + . . . # # + + + + + + + + + + + + + + + + # + + . . . # # . f . g . < . : . 4 . h . 5 . i # + + . + . @ @ + + ",
". . @ @ + . . . # # + + + + + + + + + + + + + + + + # + + . . . # # j . 2 . 2 . [ . < . : . k . l . # + + . + . @ @ + + ",
". . @ @ + . . . # # + + + + + + + + + + + + + + + + # + + . . . # # . _ . m . 4 . 0 . [ . } . k . b # + + . + . @ @ + + ",
". . @ @ + . . . # # + + + + + + + + + + + + + + + + # + + . . . # # n . 0 . _ . o . p . n . q . r . # + + . + . @ @ + + ",
". . @ @ + . . . # # + + + + + + + + + + + + + + + + # + + . . . # # . _ . s . 4 . 7 . 9 . t . u . * # + + . + . @ @ + + ",
". . @ @ + . . . # # + + + + + + + + + + + + + + + + # + + . . . # # v . w . 8 . 7 . x . _ . d . y . # + + . + . @ @ + + ",
". . @ @ + . . . # # + + + + + + + + + + + + + + + + # + + . . . # # . n . s . : . : . n . h . k . z # + + . + . @ @ + + ",
". . @ @ + . . . # # + + + + + + + + + + + + + + + + # + + . . . # # 4 . 7 . A . n . B . < . C . D . # + + . + . @ @ + + ",
". . @ @ + . . . # # + + + + + + + + + + + + + + + + # + + . . . # # . g . p . ( . E . F . t . k . G # + + . + . @ @ + + ",
". . @ @ + . . . # # + + + + + + + + + + + + + + + + # + + . . . # # 8 . 7 . H . o . E . I . k . J . # + + . + . @ @ + + ",
". . @ @ + . . . # # # # # # # # # # # # # # # # # # # # + . . . # # # # # # # # # # # # # # # # # # # # + . + . @ @ + + ",
". . @ @ + . . . # # + + + + + + + + + + + + + + + + + # # . . . # # + + + + + + + + + + + + + + + + + # # . + . @ @ + + ",
". . @ @ + . . . # + + + + + + + + + + + + + + + + + + + # . . . # + + + + + + + + + + + + + + + + + + + # . + . @ @ + + ",
". . @ @ + . . . . . . . . . . . . . . . . . . . . . . . . . . . . . . . . . . . . . . . . . . . . . . . . . + . @ @ + + ",
". . @ @ + . . . . . . . . . . . . . . . . . . . . . . . . . . . . . . . . . . . . . . . . . . . . . . . . . + . @ @ + + ",
". . @ @ + . . . . . . . . . . . . . . . . . . . . . . . . . . . . . . . . . . . . . . . . . . . . . . . . . + . @ @ + + ",
". . @ @ + . . . # # # # # # # # # # # # # # # # # # # # + . . . # # # # # # # # # # # # # # # # # # # # + . + . @ @ + + ",
". . @ @ + . . . # # # # # # # # # # # # # # # # # # # + + . . . # # # # # # # # # # # # # # # # # # # + + . + . @ @ + + ",
". . @ @ + . . . # # . K . L . 2 . f . 7 . j . 7 . g # + + . . . # # + + + + + + + + + + + + + + + + # + + . + . @ @ + + ",
". . @ @ + . . . # # M . N . O . [ . 0 . 4 . f . B . # + + . . . # # + + + + + + + + + + + + + + + + # + + . + . @ @ + + ",
". . @ @ + . . . # # . P . Q . : . < . [ . 2 . 8 . 8 # + + . . . # # + + + + + + + + + + + + + + + + # + + . + . @ @ + + ",
". . @ @ + . . . # # R . S . T . 4 . : . < . H . g . # + + . . . # # + + + + + + + + + + + + + + + + # + + . + . @ @ + + ",
". . @ @ + . . . # # . U . V . 9 . ( . 0 . 2 . 9 . m # + + . . . # # + + + + + + + + + + + + + + + + # + + . + . @ @ + + ",
". . @ @ + . . . # # M . W . O . 0 . ( . 9 . 2 . B . # + + . . . # # + + + + + + + + + + + + + + + + # + + . + . @ @ + + ",
". . @ @ + . . . # # . X . 6 . < . : . 4 . 4 . H . 4 # + + . . . # # + + + + + + + + + + + + + + + + # + + . + . @ @ + + ",
". . @ @ + . . . # # Y . Z . O . [ . < . : . B . : . # + + . . . # # + + + + + + + + + + + + + + + + # + + . + . @ @ + + ",
". . @ @ + . . . # # . ; . ` . 4 . 0 . [ . 2 . B . m # + + . . . # # + + + + + + + + + + + + + + + + # + + . + . @ @ + + ",
". . @ @ + . . . # #  .. ... Q . +.. @.. #.. $.. %.. # + + . . . # # + + + + + + + + + + + + + + + + # + + . + . @ @ + + ",
". . @ @ + . . . # # . &.. *.. $.. =.. -.. #.. #.. ;.# + + . . . # # + + + + + + + + + + + + + + + + # + + . + . @ @ + + ",
". . @ @ + . . . # # >.. ,.. V . y . '.. Q . O . y . # + + . . . # # + + + + + + + + + + + + + + ).+ # + + . + . @ @ + + ",
". . @ @ + . . . # # . !.. s . : . : . n . 4 . B . 2 # + + . . . # # + + + + + + + + + + + + + + + + # + + . + . @ @ + + ",
". . @ @ + . . . # # ~.. {.. A . ].. ^.. /.. (.. _.. # + + . . . # # + + + + + + + + + + + + + + + + # + + . + . @ @ + + ",
". . @ @ + . . . # # . :.. <.. [.. }.. |.. 1.. / . G # + + . . . # # + + + + + + + + + + + + + + + + # + + . + . @ @ + + ",
". . @ @ + . . . # # 2.. 3.. 4.. 5.. 6.. 7.. 8.. 9.. # + + . . . # # + + + + + + + + + + + + + + + + # 0.+ . + . @ @ + + ",
". . @ @ + . . . # # # # # # # # # # # # # # # # # # # # + . . . # # # # # # # # # # # # # # # # # # # # + . + . @ @ + + ",
". . @ @ + . . . # # + + + + + + + + + + + + + + + + + # # . . . # # + + + + + + + + + + + + + + + + + # # . + . @ @ + + ",
". . @ @ + . . . # + + + + + + + + + + + + + + + + + + + # . . . # + + + + + + + + + + + + + + + + + + + # . + . @ @ + + ",
". . @ @ + . . . . . . . . . . . . . . . . . a.. . . b.. . . . . . . . . . . . . . . . . . . . . . . c.. . . + . @ @ + + ",
". . @ @ + . + + + + + + + + + + + + + + + + + + + + + + + + + + + + + + + + + + + + + + + + + + + + + + + + + d.@ @ + + ",
". . @ @ + . . . . . . . . . . . . . . . . . . . . . . $ . e.. . . . . . . . . . . . . . . . . . . . . . . . . . @ @ + + ",
". . @ @ @ @ @ @ @ @ @ @ @ @ @ @ @ @ @ @ @ @ @ @ @ @ @ @ @ @ @ @ @ @ @ @ @ @ @ @ @ @ @ @ @ @ @ @ @ @ @ @ @ @ @ @ @ @ + + ",
". . @ @ @ @ @ @ @ @ @ @ @ @ @ @ @ @ @ @ @ @ @ @ @ @ @ @ @ @ @ @ @ @ @ @ @ @ @ @ @ @ @ @ @ @ @ @ @ @ @ @ @ @ @ @ @ @ + + ",
". + + + + + + + + + + + + + + + + + + + + + + + + + + + + + + + + + + + + + + + + + + + + + + + + + + + + + + + + + + + ",
"+ + + + + + + + + + + + + + + + + + + + + + + + + + + + + + + + + + + + + + + + + + + + + + + + + + + + + + + + + + + + "};
