/* XPM */
static char * Nominiicon_xpm[] = {
"16 16 147 2",
"  	c None",
". 	c #AAAAAA",
"+ 	c #949494",
"@ 	c #838383",
"# 	c #939393",
"$ 	c #6F6F6F",
"% 	c #959595",
"& 	c #969696",
"* 	c #929292",
"= 	c #919191",
"- 	c #888888",
"; 	c #515151",
"> 	c #999999",
", 	c #ABABAB",
"' 	c #909090",
") 	c #868686",
"! 	c #C3C2C2",
"~ 	c #9FA0A2",
"{ 	c #A0A0A2",
"] 	c #9FA0A0",
"^ 	c #9F9FA1",
"/ 	c #838484",
"( 	c #939494",
"_ 	c #989898",
": 	c #2C2C2C",
"< 	c #353535",
"[ 	c #343434",
"} 	c #383838",
"| 	c #C0C0BF",
"1 	c #5F656E",
"2 	c #676E77",
"3 	c #6B727A",
"4 	c #646C77",
"5 	c #616264",
"6 	c #939292",
"7 	c #8E8E8E",
"8 	c #363636",
"9 	c #424242",
"0 	c #414141",
"a 	c #747474",
"b 	c #C4C3C2",
"c 	c #626970",
"d 	c #6F757C",
"e 	c #71777F",
"f 	c #6C737D",
"g 	c #666869",
"h 	c #6A7178",
"i 	c #6C7279",
"j 	c #6E747B",
"k 	c #6D757E",
"l 	c #8B8B8B",
"m 	c #313131",
"n 	c #3B3B3B",
"o 	c #3A3A3A",
"p 	c #717171",
"q 	c #C2C2C1",
"r 	c #656C75",
"s 	c #6D747D",
"t 	c #737980",
"u 	c #6B737E",
"v 	c #656768",
"w 	c #939392",
"x 	c #8F8F8F",
"y 	c #616161",
"z 	c #676767",
"A 	c #666666",
"B 	c #B6B6B6",
"C 	c #5D5C5B",
"D 	c #616060",
"E 	c #616260",
"F 	c #636261",
"G 	c #717170",
"H 	c #9C9C9C",
"I 	c #C6C6C5",
"J 	c #C7C6C6",
"K 	c #CBCAC9",
"L 	c #CAC9C8",
"M 	c #B8B7B7",
"N 	c #CBCBCB",
"O 	c #C7C7C7",
"P 	c #D0D0D0",
"Q 	c #D1D1D1",
"R 	c #C4C4C4",
"S 	c #A0A0A0",
"T 	c #959594",
"U 	c #9C9D9E",
"V 	c #6E737A",
"W 	c #70757C",
"X 	c #6D737A",
"Y 	c #6E747A",
"Z 	c #656464",
"` 	c #C0C0C0",
" .	c #454545",
"..	c #4A4A4A",
"+.	c #484848",
"@.	c #555555",
"#.	c #979796",
"$.	c #979798",
"%.	c #636872",
"&.	c #70777E",
"*.	c #6C747B",
"=.	c #6D6C6B",
"-.	c #CACACA",
";.	c #3D3D3D",
">.	c #3E3E3E",
",.	c #565656",
"'.	c #979797",
").	c #97989B",
"!.	c #666B74",
"~.	c #71777E",
"{.	c #6F747D",
"].	c #707780",
"^.	c #373737",
"/.	c #585858",
"(.	c #9C9C9E",
"_.	c #676C74",
":.	c #6E757E",
"<.	c #6D747B",
"[.	c #6F757F",
"}.	c #6C6B6A",
"|.	c #C9C9C9",
"1.	c #999998",
"2.	c #9D9E9F",
"3.	c #6C7074",
"4.	c #7B7E82",
"5.	c #777A7D",
"6.	c #797B80",
"7.	c #7F7F7E",
"8.	c #C8C8C8",
"9.	c #5B5B5B",
"0.	c #5C5C5C",
"a.	c #595959",
"b.	c #696B6C",
"c.	c #6B6A6A",
"d.	c #6E6D6C",
"e.	c #6D6D6C",
"f.	c #6B6B6A",
"g.	c #8A8A8A",
"h.	c #9D9D9C",
"i.	c #6B6B6B",
"j.	c #727272",
"k.	c #777778",
"l.	c #9B9B9B",
"m.	c #646464",
"n.	c #6A6B6C",
"o.	c #6A6A6A",
"p.	c #4D4D4D",
". + + + + + + + + + + + + + + @ ",
"# $ % + & % & # * = # # + & - ; ",
"# > , ' % + + ) ! ~ { ] ^ / ( ; ",
"# _ - : < [ } $ | 1 2 3 4 5 6 ; ",
"# > 7 8 9 0 0 a b c d e f g + ; ",
"# > 7 8 9 0 0 a b h i j k g + ; ",
"# > l m n o n p q r s t u v w ; ",
"# & x y z A y 7 B C D E F G H ; ",
"# % I J K K L M N O P Q P R S ; ",
"# T U V W X Y Z `  .....+.@.= ; ",
"# #.$.%.&.d *.=.-.< ;.>.n ,.'.; ",
"# #.).!.~.{.].=.N ^.0 9 >./.'.; ",
"# #.(._.:.<.[.}.|.[ ;.>.o @.& ; ",
"# 1.2.3.4.5.6.7.8.,.9.0.a.b.'.; ",
"# l @ c.d.e.f.g.h.i.j.j.G k.l.; ",
") m.i.i.i.i.i.n.i.i.i.i.i.i.o.p."};
