/* XPM */
static char * occupy_m_pm[] = {
/* width height ncolors cpp [x_hot y_hot] */
"32 32 14 1 0 0",
/* colors */
" 	s iconGray3	m white	c #adadadadadad",
".	s iconGray2	m white	c #bdbdbdbdbdbd",
"X	s iconColor5	m black	c blue",
"o	s iconGray1	m white	c #dededededede",
"O	s iconGray5	m black	c #737373737373",
"+	s iconColor4	m white	c green",
"@	s iconGray7	m black	c #424242424242",
"#	s iconGray8	m black	c #212121212121",
"$	s iconGray4	m white	c #949494949494",
"%	s iconGray6	m black	c #636363636363",
"&	s iconColor2	m white	c white",
"*	s iconColor7	m white	c cyan",
"=	s iconColor8	m black	c magenta",
"-	s none	m none	c none",
/* pixels */
"                                ",
" .X.X.X.X.X.X.o O.+.+.+.+.+.+.+ ",
" X@@@@@@@@@X.Xo O+.+.+.+.+.+.+. ",
" .@@@ o @@@.X.o O.@@@@@@@.+.+.+ ",
" X@#$#$%%%@X.Xo O+@@@ @@@+.+.+. ",
" .@      $@.X.o O.@#$%%%@.+.+.+ ",
" X@o&&&& o@X.Xo O+@o&&&$@+.+.+. ",
" .@o&&&& o@.X.o O.@o&@@@@@@@@.+ ",
" X@o&&&& o@X.Xo O+@o&@@@  @@@+. ",
" .@ooooo $@.X.o O.@o&@o&&&& @.+ ",
" X@@@@@@@@@X.Xo O+@o&@o&&&& @+. ",
" .X.X.X.X.X.X.o O.@o&@@@@@@@@.+ ",
" X.X.X.X.X.X.Xo O+@ooo $@+.+.+. ",
" .X.X.X.X.X.X.o O.@@@@@@@.+.+.+ ",
" oooooooooooooo ooooooooooooooo ",
"                                ",
" OOOOOOOOOOOOOo OOOOOOOOOOOOOOO ",
" .*.*.*@@@@@@@o O.=.=.=.=.=.=.= ",
" *.*.*.@@@ o@@o O=@@@@@@@@@@@@. ",
" .*.*.*@#$#$%@o O.@@@ o oo @@@= ",
" *.*.*.@    $@o O=@#$#$%$$%%%@. ",
" .*.*.*@o&&&o@o O.@         $@= ",
" *.*.*.@@@@@@@o O=@o&&&&&&& o@. ",
" .*.*.*.*.*.*.o O.@o&&&&&&& o@= ",
" @@@@@@@@@@@.*o O=@o&&&&&&& o@. ",
" @@@ o o @@@*.o O.@o&&&&&&& o@= ",
" @#$#$%$%%%@.*o O=@o&&&&&&& o@. ",
" @        $@*.o O.@oooooooo $@= ",
" @o&&&&&& o@.*o O=@@@@@@@@@@@@. ",
" @@@@@@@@@@@*.o O.=.=.=.=.=.=.= ",
"                                ",
"--------------------------------"};
