/* XPM */
static char * PressedFPL_xpm[] = {
"30 24 3 1",
" 	c None",
".      s background m black c #49009200a700",
"+      s selectColor m black c #820c822382e4",
"..............................",
"..++++++++++++++++++++++++++..",
"..++++++++++++++++++++++++++..",
"..++++++++++++++++++++++++++..",
"..++++++++++++++++++++++++++..",
"..++++++++++++++++++++++++++..",
"..++++++++++++++++++++++++++..",
"..++++++++++++++++++++++++++..",
"..++++++++++++++++++++++++++..",
"..++++++++++++++++++++++++++..",
"..++++++++++++++++++++++++++..",
"..++++++++++++++++++++++++++..",
"..++++++++++++++++++++++++++..",
"..++++++++++++++++++++++++++..",
"..++++++++++++++++++++++++++..",
"..++++++++++++++++++++++++++..",
"..++++++++++++++++++++++++++..",
"..++++++++++++++++++++++++++..",
"..++++++++++++++++++++++++++..",
"..++++++++++++++++++++++++++..",
"..++++++++++++++++++++++++++..",
"..++++++++++++++++++++++++++..",
"..++++++++++++++++++++++++++..",
".............................."};
