/* XPM */
/* This file is a part of the NsCDE - Not so Common Desktop Environment */
static char * PressedFPL_xpm[] = {
"30 24 3 1",
" 	c None",
".      s background m black c #49009200a700",
"+      s selectColor m black c #9900991b99fe",
"..............................",
"...++++++++++++++++++++++++...",
"...++++++++++++++++++++++++...",
"...++++++++++++++++++++++++...",
"...++++++++++++++++++++++++...",
"...++++++++++++++++++++++++...",
"...++++++++++++++++++++++++...",
"...++++++++++++++++++++++++...",
"...++++++++++++++++++++++++...",
"...++++++++++++++++++++++++...",
"...++++++++++++++++++++++++...",
"...++++++++++++++++++++++++...",
"...++++++++++++++++++++++++...",
"...++++++++++++++++++++++++...",
"...++++++++++++++++++++++++...",
"...++++++++++++++++++++++++...",
"...++++++++++++++++++++++++...",
"...++++++++++++++++++++++++...",
"...++++++++++++++++++++++++...",
"...++++++++++++++++++++++++...",
"...++++++++++++++++++++++++...",
"...++++++++++++++++++++++++...",
"...++++++++++++++++++++++++...",
".............................."};
