/* XPM */
static char * SelectedL_xpm[] = {
"59 57 3 1",
" 	c None",
".	s background m black c #ed00a8007000",
"+	s selectColor m black c #a84c97ff8f37",
"...........................................................",
".+++++++++++++++++++++++++++++++++++++++++++++++++++++++++.",
".+++++++++++++++++++++++++++++++++++++++++++++++++++++++++.",
".+++++++++++++++++++++++++++++++++++++++++++++++++++++++++.",
".+++++++++++++++++++++++++++++++++++++++++++++++++++++++++.",
".+++++++++++++++++++++++++++++++++++++++++++++++++++++++++.",
".+++++++++++++++++++++++++++++++++++++++++++++++++++++++++.",
".+++++++++++++++++++++++++++++++++++++++++++++++++++++++++.",
".+++++++++++++++++++++++++++++++++++++++++++++++++++++++++.",
".+++++++++++++++++++++++++++++++++++++++++++++++++++++++++.",
".+++++++++++++++++++++++++++++++++++++++++++++++++++++++++.",
".+++++++++++++++++++++++++++++++++++++++++++++++++++++++++.",
".+++++++++++++++++++++++++++++++++++++++++++++++++++++++++.",
".+++++++++++++++++++++++++++++++++++++++++++++++++++++++++.",
".+++++++++++++++++++++++++++++++++++++++++++++++++++++++++.",
".+++++++++++++++++++++++++++++++++++++++++++++++++++++++++.",
".+++++++++++++++++++++++++++++++++++++++++++++++++++++++++.",
".+++++++++++++++++++++++++++++++++++++++++++++++++++++++++.",
".+++++++++++++++++++++++++++++++++++++++++++++++++++++++++.",
".+++++++++++++++++++++++++++++++++++++++++++++++++++++++++.",
".+++++++++++++++++++++++++++++++++++++++++++++++++++++++++.",
".+++++++++++++++++++++++++++++++++++++++++++++++++++++++++.",
".+++++++++++++++++++++++++++++++++++++++++++++++++++++++++.",
".+++++++++++++++++++++++++++++++++++++++++++++++++++++++++.",
".+++++++++++++++++++++++++++++++++++++++++++++++++++++++++.",
".+++++++++++++++++++++++++++++++++++++++++++++++++++++++++.",
".+++++++++++++++++++++++++++++++++++++++++++++++++++++++++.",
".+++++++++++++++++++++++++++++++++++++++++++++++++++++++++.",
".+++++++++++++++++++++++++++++++++++++++++++++++++++++++++.",
".+++++++++++++++++++++++++++++++++++++++++++++++++++++++++.",
".+++++++++++++++++++++++++++++++++++++++++++++++++++++++++.",
".+++++++++++++++++++++++++++++++++++++++++++++++++++++++++.",
".+++++++++++++++++++++++++++++++++++++++++++++++++++++++++.",
".+++++++++++++++++++++++++++++++++++++++++++++++++++++++++.",
".+++++++++++++++++++++++++++++++++++++++++++++++++++++++++.",
".+++++++++++++++++++++++++++++++++++++++++++++++++++++++++.",
".+++++++++++++++++++++++++++++++++++++++++++++++++++++++++.",
".+++++++++++++++++++++++++++++++++++++++++++++++++++++++++.",
".+++++++++++++++++++++++++++++++++++++++++++++++++++++++++.",
".+++++++++++++++++++++++++++++++++++++++++++++++++++++++++.",
".+++++++++++++++++++++++++++++++++++++++++++++++++++++++++.",
".+++++++++++++++++++++++++++++++++++++++++++++++++++++++++.",
".+++++++++++++++++++++++++++++++++++++++++++++++++++++++++.",
".+++++++++++++++++++++++++++++++++++++++++++++++++++++++++.",
".+++++++++++++++++++++++++++++++++++++++++++++++++++++++++.",
".+++++++++++++++++++++++++++++++++++++++++++++++++++++++++.",
".+++++++++++++++++++++++++++++++++++++++++++++++++++++++++.",
".+++++++++++++++++++++++++++++++++++++++++++++++++++++++++.",
".+++++++++++++++++++++++++++++++++++++++++++++++++++++++++.",
".+++++++++++++++++++++++++++++++++++++++++++++++++++++++++.",
".+++++++++++++++++++++++++++++++++++++++++++++++++++++++++.",
".+++++++++++++++++++++++++++++++++++++++++++++++++++++++++.",
".+++++++++++++++++++++++++++++++++++++++++++++++++++++++++.",
".+++++++++++++++++++++++++++++++++++++++++++++++++++++++++.",
".+++++++++++++++++++++++++++++++++++++++++++++++++++++++++.",
".+++++++++++++++++++++++++++++++++++++++++++++++++++++++++.",
"..........................................................."};
