/* XPM */
/* This file is a part of the NsCDE - Not so Common Desktop Environment */
static char * SelectedS_xpm[] = {
"30 24 3 1",
" 	c None",
".      s background m black c #ed00a8007000",
"+      s selectColor m black c #820c822382e4",
"..............................",
".++++++++++++++++++++++++++++.",
".++++++++++++++++++++++++++++.",
".++++++++++++++++++++++++++++.",
".++++++++++++++++++++++++++++.",
".++++++++++++++++++++++++++++.",
".++++++++++++++++++++++++++++.",
".++++++++++++++++++++++++++++.",
".++++++++++++++++++++++++++++.",
".++++++++++++++++++++++++++++.",
".++++++++++++++++++++++++++++.",
".++++++++++++++++++++++++++++.",
".++++++++++++++++++++++++++++.",
".++++++++++++++++++++++++++++.",
".++++++++++++++++++++++++++++.",
".++++++++++++++++++++++++++++.",
".++++++++++++++++++++++++++++.",
".++++++++++++++++++++++++++++.",
".++++++++++++++++++++++++++++.",
".++++++++++++++++++++++++++++.",
".++++++++++++++++++++++++++++.",
".++++++++++++++++++++++++++++.",
".++++++++++++++++++++++++++++.",
".............................."};
