/* XPM */
/* This file is a part of the NsCDE - Not so Common Desktop Environment */
static char * StyleMgr_Desks_xpm[] = {
"48 31 8 1",
" 	c None",
".	c #DEDEDE",
"@	c #636363",
"#	c #ADADAD",
"$	c #BDBDBD",
"%	c #737373",
"&	c #0000FF",
"*	c #212121",
"...............................................@",
".##############################################@",
".#@@@@@@@@@@@@@@@@@@@@@##@@@@@@@@@@@@@@@@@@@@@#@",
".#@...................$##@...................$#@",
".#@.%&%&%&%&%&%&%&%&%*$##@.%&%&%&%&%&%&%&%&%*$#@",
".#@.&%&%&%&%&%&%&%&%&*$##@.&%&%&%&%&%&%&%&%&*$#@",
".#@.%&%&%&%&%&%&%&%&%*$##@.%&%&%&%&%&%&%&%&%*$#@",
".#@.&%$.&.&$&%&%&%&%&*$##@.&%.$.%&.&.&%&%&%&*$#@",
".#@.%&.$..$..&%&%&%&%*$##@.%&%.%.$.$&%&%&%&%*$#@",
".#@.&%&%&%&%&%&%&%&%&*$##@.&%&%&%&%&%&%&%&%&*$#@",
".#@.%&%&%&%&%&%&%&%&%*$##@.%&%&%&%&%&%&%&%&%*$#@",
".#@.&%&%&%&%&%&%&%&%&*$##@.&%&%&%&%&%&%&%&%&*$#@",
".#@.******************$##@.******************$#@",
".#@$$$$$$$$$$$$$$$$$$$$##@$$$$$$$$$$$$$$$$$$$$#@",
".##############################################@",
".#@@@@@@@@@@@@@@@@@@@@@##@@@@@@@@@@@@@@@@@@@@@#@",
".#@...................$##@...................$#@",
".#@.%&%&%&%&%&%&%&%&%*$##@.%&%&%&%&%&%&%&%&%*$#@",
".#@.&%&%&%&%&%&%&%&%&*$##@.&%&%&%&%&%&%&%&%&*$#@",
".#@.%&%&%&%&%&%&%&%&%*$##@.%&%&%&%&%&%&%&%&%*$#@",
".#@.&%.$.%.%&.&.&%&%&*$##@.&%..&.&%.%&%&%&%&*$#@",
".#@.%&%.%.$..&.$%&%&%*$##@.%&.&.&$.$.%&%&%&%*$#@",
".#@.&%&%&%&%&%&%&%&%&*$##@.&%&%&%&%&%&%&%&%&*$#@",
".#@.%&%&%&%&%&%&%&%&%*$##@.%&%&%&%&%&%&%&%&%*$#@",
".#@.&%&%&%&%&%&%&%&%&*$##@.&%&%&%&%&%&%&%&%&*$#@",
".#@.******************$##@.******************$#@",
".#@$$$$$$$$$$$$$$$$$$$$##@$$$$$$$$$$$$$$$$$$$$#@",
".##############################################@",
".@@@@@@@@@@@@@@@@@@@@@@@@@@@@@@@@@@@@@@@@@@@@@@@",
"                                                ",
"                                                "};
