/* XPM */
static char * SubpanelTitleActive_xpm[] = {
"16 17 3 1",
" 	c None",
"+      c #f7cbda02c1d5",
".      c #7f2e5a273c1a",
"++++++++++++++++",
"                ",
"                ",
"                ",
"                ",
"                ",
"                ",
"                ",
"                ",
"                ",
"                ",
"                ",
"                ",
"                ",
"                ",
"                ",
"................"};
