/* XPM */
static char * WSM4BackBtn1_xpm[] = {
"126 30 2 1",
" 	s black   m black   c #000000000000",
".	s topShadowColor   m white   c #cbb8d232da1c",
"                                                                                                                              ",
"                                                                                                                             .",
"                                                                                                                             .",
"                                                                                                                             .",
"                                                                                                                             .",
"                                                                                                                             .",
"                                                                                                                             .",
"                                                                                                                             .",
"                                                                                                                             .",
"                                                                                                                             .",
"                                                                                                                             .",
"                                                                                                                             .",
"                                                                                                                             .",
"                                                                                                                             .",
"                                                                                                                             .",
"                                                                                                                             .",
"                                                                                                                             .",
"                                                                                                                             .",
"                                                                                                                             .",
"                                                                                                                             .",
"                                                                                                                             .",
"                                                                                                                             .",
"                                                                                                                             .",
"                                                                                                                             .",
"                                                                                                                             .",
"                                                                                                                             .",
"                                                                                                                             .",
"                                                                                                                             .",
"                                                                                                                             .",
" ............................................................................................................................."};
