/* XPM */
static char * Wsm_2x4_31_xpm[] = {
"29 14 7 1",
" 	c None",
".	c #636363",
"+	c #DEDEDE",
"@	c #BDBDBD",
"#	c #424242",
"$	c #212121",
"%	c #737373",
".............................",
".+@@@@@#+@@@@@#+@@@@@#+@@@@@$",
".+@@@@@#+@@@@@#+@@@@@#+@@@@@$",
".+@@@@@#+@@@@@#+@@@@@#+@@@@@$",
".+@@@@@#+@@@@@#+@@@@@#+@@@@@$",
".+@@@@@#+@@@@@#+@@@@@#+@@@@@$",
".+$$$$$##$$$$$##$$$$$##$$$$$$",
".+++++++++++++++++++++++++++$",
".+@@@@@#+@@@@@#+@@@@@#@%%%%%$",
".+@@@@@#+@@@@@#+@@@@@#@%%%%%$",
".+@@@@@#+@@@@@#+@@@@@#@%%%%%$",
".+@@@@@#+@@@@@#+@@@@@#@%%%%%$",
".+@@@@@#+@@@@@#+@@@@@#@%%%%%$",
".+$$$$$##$$$$$##$$$$$##$$$$$$"};
