/* XPM */
static char * Wsm_3x1_20_xpm[] = {
"29 11 7 1",
" 	c None",
".	c #636363",
"+	c #DEDEDE",
"@	c #BDBDBD",
"#	c #212121",
"$	c #424242",
"%	c #737373",
"............................+",
".++++++++++++++++++@@@@@@@@#+",
".+@@@@@@@$+@@@@@@@$@%%%%%%%#+",
".+@@@@@@@$+@@@@@@@$@%%%%%%%#+",
".+@@@@@@@$+@@@@@@@$@%%%%%%%#+",
".+@@@@@@@$+@@@@@@@$@%%%%%%%#+",
".+@@@@@@@$+@@@@@@@$@%%%%%%%#+",
".+@@@@@@@$+@@@@@@@$@%%%%%%%#+",
".+@@@@@@@$+@@@@@@@$@%%%%%%%#+",
".+#######$$#######$$########+",
".++++++++++++++++++++++++++++"};
