/* XPM */
static char * Wsm_3x4_30_xpm[] = {
"29 21 7 1",
" 	c None",
".	c #636363",
"+	c #212121",
"@	c #DEDEDE",
"#	c #BDBDBD",
"$	c #424242",
"%	c #737373",
"............................+",
".@#####$@#####$@#####$#%%%%%+",
".@#####$@#####$@#####$#%%%%%+",
".@#####$@#####$@#####$#%%%%%+",
".@#####$@#####$@#####$#%%%%%+",
".@#####$@#####$@#####$#%%%%%+",
".@+++++$$+++++$$+++++$$++++++",
".@@@@@@@@@@@@@@@@@@@@@@@@@@@+",
".@#####$@#####$@#####$@#####+",
".@#####$@#####$@#####$@#####+",
".@#####$@#####$@#####$@#####+",
".@#####$@#####$@#####$@#####+",
".@#####$@#####$@#####$@#####+",
".@+++++$$+++++$$+++++$$++++++",
".@@@@@@@@@@@@@@@@@@@@@@@@@@@+",
".@#####$@#####$@#####$@#####+",
".@#####$@#####$@#####$@#####+",
".@#####$@#####$@#####$@#####+",
".@#####$@#####$@#####$@#####+",
".@#####$@#####$@#####$@#####+",
".@+++++$$+++++$$+++++$$++++++"};
