/* XPM */
static char * Wsm_D2X_01_xpm[] = {
"22 18 7 1",
" 	c None",
".	c #636363",
"+	c #DEDEDE",
"@	c #212121",
"#	c #949494",
"$	c #424242",
"%	c #737373",
".....................+",
".+++++++++++++++++++@+",
".+#################$@+",
".+#################$@+",
".+#################$@+",
".+#################$@+",
".+#################$@+",
".+#################$@+",
".+@@@@@@@$$@@@@@@@@@@+",
".+++++++++++++++++++@+",
".+%%%%%%%%%%%%%%%%%$@+",
".+%%%%%%%%%%%%%%%%%$@+",
".+%%%%%%%%%%%%%%%%%$@+",
".+%%%%%%%%%%%%%%%%%$@+",
".+%%%%%%%%%%%%%%%%%$@+",
".+%%%%%%%%%%%%%%%%%$@+",
".+@@@@@@@$#@@@@@@@@@@+",
"++++++++++++++++++++++"};
