/* XPM */
static char * Wsm_3x2_01_xpm[] = {
"29 20 7 1",
" 	c None",
".	c #636363",
"+	c #DEDEDE",
"@	c #212121",
"#	c #BDBDBD",
"$	c #424242",
"%	c #737373",
"............................+",
".++++++++++++++++++++++++++@+",
".+#######$+#######$+#######@+",
".+#######$+#######$+#######@+",
".+#######$+#######$+#######@+",
".+#######$+#######$+#######@+",
".+#######$+#######$+#######@+",
".+#######$+#######$+#######@+",
".+#######$+#######$+#######@+",
".+@@@@@@@$$@@@@@@@$$@@@@@@@@+",
".#########+++++++++++++++++@+",
".#%%%%%%%$+#######$+#######@+",
".#%%%%%%%$+#######$+#######@+",
".#%%%%%%%$+#######$+#######@+",
".#%%%%%%%$+#######$+#######@+",
".#%%%%%%%$+#######$+#######@+",
".#%%%%%%%$+#######$+#######@+",
".#%%%%%%%$+#######$+#######@+",
".#@@@@@@@$$@@@@@@@$$@@@@@@@@+",
".++++++++++++++++++++++++++++"};
