/* XPM */
static char * Wsm_2x2_01_xpm[] = {
"22 20 7 1",
" 	c None",
".	c #636363",
"+	c #DEDEDE",
"@	c #212121",
"#	c #BDBDBD",
"$	c #424242",
"%	c #737373",
".....................+",
".+++++++++++++++++++@+",
".+#######$+########$@+",
".+#######$+########$@+",
".+#######$+########$@+",
".+#######$+########$@+",
".+#######$+########$@+",
".+#######$+########$@+",
".+#######$+########$@+",
".+@@@@@@@$$@@@@@@@@@@+",
".+++++++++++++++++++@+",
".+%%%%%%%$+########$@+",
".+%%%%%%%$+########$@+",
".+%%%%%%%$+########$@+",
".+%%%%%%%$+########$@+",
".+%%%%%%%$+########$@+",
".+%%%%%%%$+########$@+",
".+%%%%%%%$+########$@+",
".+@@@@@@@$+@@@@@@@@@@+",
"++++++++++++++++++++++"};
