/* XPM */
static char * Wsm_1x4_20_xpm[] = {
"29 14 7 1",
" 	c None",
".	c #636363",
"+	c #DEDEDE",
"@	c #BDBDBD",
"#	c #424242",
"$	c #737373",
"%	c #212121",
".............................",
".+@@@@@#+@@@@@#@$$$$$#+@@@@@%",
".+@@@@@#+@@@@@#@$$$$$#+@@@@@%",
".+@@@@@#+@@@@@#@$$$$$#+@@@@@%",
".+@@@@@#+@@@@@#@$$$$$#+@@@@@%",
".+@@@@@#+@@@@@#@$$$$$#+@@@@@%",
".+@@@@@#+@@@@@#@$$$$$#+@@@@@%",
".+@@@@@#+@@@@@#@$$$$$#+@@@@@%",
".+@@@@@#+@@@@@#@$$$$$#+@@@@@%",
".+@@@@@#+@@@@@#@$$$$$#+@@@@@%",
".+@@@@@#+@@@@@#@$$$$$#+@@@@@%",
".+@@@@@#+@@@@@#@$$$$$#+@@@@@%",
".+@@@@@#+@@@@@#@$$$$$#+@@@@@%",
"..%%%%%##%%%%%##%%%%%##%%%%%%"};
