/* XPM */
static char * Wsm_3x2_00_xpm[] = {
"20 28 7 1",
" 	c None",
".	c #636363",
"+	c #BDBDBD",
"@	c #DEDEDE",
"#	c #737373",
"$	c #424242",
"%	c #212121",
"....................",
".+++++++++@@@@@@@@@@",
".+#######$@+++++++$@",
".+#######$@+++++++$@",
".+#######$@+++++++$@",
".+#######$@+++++++$@",
".+#######$@+++++++$@",
".+#######$@+++++++$@",
".+#######$@+++++++$@",
".+%%%%%%%$$%%%%%%%$@",
".@@@@@@@@@@@@@@@@@$@",
".@+++++++$@+++++++$@",
".@+++++++$@+++++++$@",
".@+++++++$@+++++++$@",
".@+++++++$@+++++++$@",
".@+++++++$@+++++++$@",
".@+++++++$@+++++++$@",
".@+++++++$@+++++++$@",
".@%%%%%%%$$%%%%%%%$@",
".@@@@@@@@@@@@@@@@@$@",
".@+++++++$@+++++++$@",
".@+++++++$@+++++++$@",
".@+++++++$@+++++++$@",
".@+++++++$@+++++++$@",
".@+++++++$@+++++++$@",
".@+++++++$@+++++++$@",
".@%%%%%%%$$%%%%%%%$@",
".@@@@@@@@@@@@@@@@@@@"};
