/* XPM */
static char * Wsm_3x3_00_xpm[] = {
"29 28 7 1",
" 	c None",
".	c #636363",
"+	c #DEDEDE",
"@	c #BDBDBD",
"#	c #212121",
"$	c #737373",
"%	c #424242",
"............................+",
".@@@@@@@@@+++++++++++++++++#+",
".@$$$$$$$%+@@@@@@@%+@@@@@@@#+",
".@$$$$$$$%+@@@@@@@%+@@@@@@@#+",
".@$$$$$$$%+@@@@@@@%+@@@@@@@#+",
".@$$$$$$$%+@@@@@@@%+@@@@@@@#+",
".@$$$$$$$%+@@@@@@@%+@@@@@@@#+",
".@$$$$$$$%+@@@@@@@%+@@@@@@@#+",
".@$$$$$$$%+@@@@@@@%+@@@@@@@#+",
".@#######%%#######%%########+",
".++++++++++++++++++++++++++#+",
".+@@@@@@@%+@@@@@@@%+@@@@@@@#+",
".+@@@@@@@%+@@@@@@@%+@@@@@@@#+",
".+@@@@@@@%+@@@@@@@%+@@@@@@@#+",
".+@@@@@@@%+@@@@@@@%+@@@@@@@#+",
".+@@@@@@@%+@@@@@@@%+@@@@@@@#+",
".+@@@@@@@%+@@@@@@@%+@@@@@@@#+",
".+@@@@@@@%+@@@@@@@%+@@@@@@@#+",
".+#######%%#######%%########+",
".++++++++++++++++++++++++++#+",
".+@@@@@@@%+@@@@@@@%+@@@@@@@#+",
".+@@@@@@@%+@@@@@@@%+@@@@@@@#+",
".+@@@@@@@%+@@@@@@@%+@@@@@@@#+",
".+@@@@@@@%+@@@@@@@%+@@@@@@@#+",
".+@@@@@@@%+@@@@@@@%+@@@@@@@#+",
".+@@@@@@@%+@@@@@@@%+@@@@@@@#+",
".+#######%%#######%%########+",
".++++++++++++++++++++++++++++"};
