/* $XConsortium: Dtainfo.t_m.bm /main/2 1995/07/17 15:08:56 drk $ */
#define Dtainfo.t_m.bm_width 16
#define Dtainfo.t_m.bm_height 16
#define Dtainfo.t_m.bm_x_hot 0
#define Dtainfo.t_m.bm_y_hot 0
static unsigned char Dtainfo.t_m.bm_bits[] = {
   0x00, 0x00, 0x00, 0x00, 0xfe, 0x7f, 0xfe, 0x7f, 0xfe, 0x7f, 0xff, 0xff,
   0xff, 0xff, 0xff, 0xff, 0xff, 0xff, 0xff, 0xff, 0xff, 0xff, 0xff, 0xff,
   0xff, 0xff, 0xff, 0xff, 0xff, 0xff, 0xff, 0xff};
