/* $XConsortium: Dtainfo.t.bm /main/2 1995/07/17 15:08:40 drk $ */
#define Dtainfo.t.bm_width 16
#define Dtainfo.t.bm_height 16
#define Dtainfo.t.bm_x_hot 0
#define Dtainfo.t.bm_y_hot 0
static unsigned char Dtainfo.t.bm_bits[] = {
   0xff, 0xff, 0xff, 0xff, 0x01, 0xc0, 0xfd, 0xff, 0xfd, 0xff, 0xf0, 0x8f,
   0xf2, 0xaf, 0x04, 0xc0, 0xaa, 0xaa, 0x54, 0xd5, 0xaa, 0xaa, 0x54, 0xd5,
   0xaa, 0xaa, 0x54, 0xd5, 0xaa, 0xaa, 0xff, 0xff};
