/* $XConsortium: Dtdirlk.t_m.bm /main/2 1995/07/17 15:28:28 drk $ */
#define Dtdirlk.t_m.bm_width 16
#define Dtdirlk.t_m.bm_height 16
#define Dtdirlk.t_m.bm_x_hot 0
#define Dtdirlk.t_m.bm_y_hot 0
static unsigned char Dtdirlk.t_m.bm_bits[] = {
   0x00, 0x00, 0x00, 0x7e, 0x00, 0xff, 0xfe, 0xff, 0xff, 0xff, 0xff, 0xff,
   0xff, 0xff, 0xff, 0xff, 0xff, 0xff, 0xff, 0xff, 0xff, 0xff, 0xff, 0xff,
   0xff, 0xff, 0xfe, 0x7f, 0x00, 0x00, 0x00, 0x00};
