/* $XConsortium: Dtdirup.t_m.bm /main/2 1995/07/17 15:30:14 drk $ */
#define Dtdir_up.t_m.bm_width 16
#define Dtdir_up.t_m.bm_height 16
#define Dtdir_up.t_m.bm_x_hot 0
#define Dtdir_up.t_m.bm_y_hot 0
static char Dtdir_up.t_m.bm_bits[] = {
   0xc0, 0x0f, 0xe0, 0x0f, 0xff, 0x0f, 0xff, 0x0f, 0xff, 0x0f, 0xff, 0x7f,
   0xff, 0x7f, 0xff, 0xff, 0xff, 0xff, 0xff, 0xff, 0xf0, 0xff, 0xf0, 0xff,
   0xf0, 0xff, 0xf0, 0xff, 0xf0, 0xff, 0xf0, 0xff};
