/* $XConsortium: DtPrtpr.t_m.bm /main/2 1995/07/17 15:01:05 drk $ */
#define DtPrtpr.t_m.bm_width 16
#define DtPrtpr.t_m.bm_height 16
#define DtPrtpr.t_m.bm_x_hot 0
#define DtPrtpr.t_m.bm_y_hot 0
static char DtPrtpr.t_m.bm_bits[] = {
   0x00, 0x00, 0x00, 0x00, 0xf8, 0x0f, 0xf8, 0x0f, 0xfc, 0x3f, 0xff, 0x7f,
   0xff, 0xff, 0xff, 0xff, 0xff, 0xff, 0xff, 0xff, 0xff, 0xff, 0xff, 0xff,
   0xff, 0xff, 0xfc, 0x7f, 0xf8, 0x1f, 0x00, 0x00};
