/* XPM */
static char * WaitCursorBlack_xpm[] = {
"36 34 3 1",
" 	c None",
".	c #FFFFFF",
"+	c #000000",
"....................................",
".++++++++++++++++++++++++++++++++++.",
".++++++++++++++++++++++++++++++++++.",
" .++  .+                    +.  ++. ",
" .++ .+                      +. ++. ",
" .++ .+                      +. ++. ",
" .++ .+                      +. ++. ",
" .++ .+                      +. ++. ",
" .++ .+                      +. ++. ",
" .++ .+                      +. ++. ",
" .++  .+                    +.  ++. ",
" .++   .+++++++++  +++++++++.   ++. ",
" .++    .++++++++++++++++++.    ++. ",
" .++     ..++++++++++++++..     ++. ",
" .++       ..++++++++++.        ++. ",
" .++         ..++++++..         ++. ",
" .++            .++.            ++. ",
" .++            .++.            ++. ",
" .++         ..++  ++..         ++. ",
" .++       ..++      ++..       ++. ",
" .++     ..++          ++..     ++. ",
" .++    .++              ++.    ++. ",
" .++   .+                  +.   ++. ",
" .++  .+                    +.  ++. ",
" .++ .+          +           +. ++. ",
" .++ .+        +++++         +. ++. ",
" .++ .+       +++++++        +. ++. ",
" .++ .+    +++++++++++++     +. ++. ",
" .++ .++++++++++++++++++++++++. ++. ",
" .++ .++++++++++++++++++++++++. ++. ",
" .++  .++++++++++++++++++++++.  ++. ",
".++++++++++++++++++++++++++++++++++.",
".++++++++++++++++++++++++++++++++++.",
"...................................."};
