/* XPM */
/* This file is a part of the NsCDE - Not so Common Desktop Environment */
static char *Bframe4[] = {
/* columns rows colors chars-per-pixel */
"72 80 2 1 ",
"  c black",
". c None",
/* pixels */
"                                                                        ",
"                                                                        ",
"                                                                        ",
"   ..................................................................   ",
"   ..................................................................   ",
"   ..................................................................   ",
"   ..................................................................   ",
"   ..................................................................   ",
"   ..................................................................   ",
"   ..................................................................   ",
"   ..................................................................   ",
"   ..................................................................   ",
"   ..................................................................   ",
"   ..................................................................   ",
"   ..................................................................   ",
"   ..................................................................   ",
"   ..................................................................   ",
"   ..................................................................   ",
"   ..................................................................   ",
"   ..................................................................   ",
"   ..................................................................   ",
"   ..................................................................   ",
"   ..................................................................   ",
"   ..................................................................   ",
"   ..................................................................   ",
"   ..................................................................   ",
"   ..................................................................   ",
"   ..................................................................   ",
"   ..................................................................   ",
"   ..................................................................   ",
"   ..................................................................   ",
"   ..................................................................   ",
"   ..................................................................   ",
"   ..................................................................   ",
"   ..................................................................   ",
"   ..................................................................   ",
"   ..................................................................   ",
"   ..................................................................   ",
"   ..................................................................   ",
"   ..................................................................   ",
"   ..................................................................   ",
"   ..................................................................   ",
"   ..................................................................   ",
"   ..................................................................   ",
"   ..................................................................   ",
"   ..................................................................   ",
"   ..................................................................   ",
"   ..................................................................   ",
"   ..................................................................   ",
"   ..................................................................   ",
"   ..................................................................   ",
"   ..................................................................   ",
"   ..................................................................   ",
"   ..................................................................   ",
"   ..................................................................   ",
"   ..................................................................   ",
"   ..................................................................   ",
"   ..................................................................   ",
"   ..................................................................   ",
"   ..................................................................   ",
"   ..................................................................   ",
"   ..................................................................   ",
"   ..................................................................   ",
"   ..................................................................   ",
"   ..................................................................   ",
"   ..................................................................   ",
"   ..................................................................   ",
"   ..................................................................   ",
"   ..................................................................   ",
"   ..................................................................   ",
"   ..................................................................   ",
"   ..................................................................   ",
"   ..................................................................   ",
"   ..................................................................   ",
"   ..................................................................   ",
"   ..................................................................   ",
"   ..................................................................   ",
"                                                                        ",
"                                                                        ",
"                                                                        "};
