/* XPM */
static char *DtWsSwitch_m[] = {
/* columns rows colors chars-per-pixel */
"32 32 8 1 ",
"  c gray87",
". c gray74",
"X c gray13",
"o c white",
"O c gray58",
"+ c gray45",
"@ c blue",
"# c gray68",
/* pixels */
"                                ",
" ..............................X",
" ..............................X",
" ooooooooooooooooooooooooooooooX",
" ..............................X",
" ..............................X",
" ..............................X",
" OOOOOOOOOOOOOO.OOOOOOOOOOOOOO.X",
" O             .O             .X",
" O +@+@+@+@+@+X.O +@+@+@+@+@+X.X",
" O @+.+@+@+@+@X.O @+.+@+@+@+@X.X",
" O +@oo+oo@+@+X.O +@ooo@oo+@+X.X",
" O @+@+@+@+@+@X.O @+@+@+@+@+@X.X",
" O +@+@+@+@+@+X.O +@+@+@+@+@+X.X",
" O XXXXXXXXXXXX.O XXXXXXXXXXXX.X",
" ..............................X",
" OOOOOOOOOOOOOO.OOOOOOOOOOOOOO.X",
" O             .O             .X",
" O +@+@+@+@+@+X.O +@+@+@+@+@+X.X",
" O @+.+@+@+@+@X.O @+.+@+@+@+@X.X",
" O +@ooo@ooo@+X.O +@oo+oooo@+X.X",
" O @+@+@+@+@+@X.O @+@+@+@+@+@X.X",
" O +@+@+@+@+@+X.O +@+@+@+@+@+X.X",
" O XXXXXXXXXXXX.O XXXXXXXXXXXX.X",
" ..............................X",
" ..............................X",
" ..............................X",
" ..............................X",
" XXXXXXXXXXXXXXXXXXXXXXXXXXXXXXX",
" ##############################X",
" ..............................X",
" XXXXXXXXXXXXXXXXXXXXXXXXXXXXXXX"
};
