/* XPM */
/* This file is a part of the NsCDE - Not so Common Desktop Environment */
static char * FvwmCons_t_xpm[] = {
"16 16 9 1",
" 	c None",
".	c #000000",
"+	c #FFFFFF",
"@	c #212121",
"#	c #FF0000",
"$	c #636363",
"%	c #DEDEDE",
"&	c #424242",
"*	c #949494",
"................",
"...+++++++++@...",
"..+##$$$$$$##@..",
"..+##@@@@@@##@..",
"..####%&%&####..",
"..#$@#&%&&#@+#..",
".##$@##&%##@+##.",
"..+$@&&&&&&@+@..",
"..+$@@@@@@@@+@..",
"..+++++++++++@..",
"...@@@@@@@@@@...",
".....@$$$$@.....",
".+*+########*+@.",
"++++########+++@",
"@@@@@@@@@@@@@@@@",
"................"};
