/* XPM */
static char * Wsm_4x4_20_xpm[] = {
"29 27 7 1",
" 	c None",
".	c #636363",
"+	c #DEDEDE",
"@	c #BDBDBD",
"#	c #424242",
"$	c #737373",
"%	c #212121",
".............................",
".+@@@@@#+@@@@@#@$$$$$#+@@@@@%",
".+@@@@@#+@@@@@#@$$$$$#+@@@@@%",
".+@@@@@#+@@@@@#@$$$$$#+@@@@@%",
".+@@@@@#+@@@@@#@$$$$$#+@@@@@%",
".+@@@@@#+@@@@@#@$$$$$#+@@@@@%",
".+%%%%%##%%%%%##%%%%%##%%%%%%",
".+++++++++++++++++++++++++++%",
".+@@@@@#+@@@@@#+@@@@@#+@@@@@%",
".+@@@@@#+@@@@@#+@@@@@#+@@@@@%",
".+@@@@@#+@@@@@#+@@@@@#+@@@@@%",
".+@@@@@#+@@@@@#+@@@@@#+@@@@@%",
".+@@@@@#+@@@@@#+@@@@@#+@@@@@%",
".+%%%%%##%%%%%##%%%%%##%%%%%%",
".+++++++++++++++++++++++++++%",
".+@@@@@#+@@@@@#+@@@@@#+@@@@@%",
".+@@@@@#+@@@@@#+@@@@@#+@@@@@%",
".+@@@@@#+@@@@@#+@@@@@#+@@@@@%",
".+@@@@@#+@@@@@#+@@@@@#+@@@@@%",
".+@@@@@#+@@@@@#+@@@@@#+@@@@@%",
".+%%%%%##%%%%%##%%%%%##%%%%%%",
".+++++++++++++++++++++++++++%",
".+@@@@@#+@@@@@#+@@@@@#+@@@@@%",
".+@@@@@#+@@@@@#+@@@@@#+@@@@@%",
".+@@@@@#+@@@@@#+@@@@@#+@@@@@%",
".+@@@@@#+@@@@@#+@@@@@#+@@@@@%",
".+%%%%%##%%%%%##%%%%%##%%%%%%"};
