/* XPM */
/* This file is a part of the NsCDE - Not so Common Desktop Environment */
static char * Wsm_3x2_10_xpm[] = {
"29 20 7 1",
" 	c None",
".	c #636363",
"+	c #DEDEDE",
"@	c #424242",
"#	c #BDBDBD",
"$	c #212121",
"%	c #737373",
"............................+",
".++++++++@#########++++++++$+",
".+#######@#%%%%%%%@+#######$+",
".+#######@#%%%%%%%@+#######$+",
".+#######@#%%%%%%%@+#######$+",
".+#######@#%%%%%%%@+#######$+",
".+#######@#%%%%%%%@+#######$+",
".+#######@#%%%%%%%@+#######$+",
".+#######@#%%%%%%%@+#######$+",
".+$$$$$$$@@$$$$$$$@@$$$$$$$$+",
".++++++++++++++++++++++++++$+",
".+#######@+#######@+#######$+",
".+#######@+#######@+#######$+",
".+#######@+#######@+#######$+",
".+#######@+#######@+#######$+",
".+#######@+#######@+#######$+",
".+#######@+#######@+#######$+",
".+#######@+#######@+#######$+",
".+$$$$$$$@@$$$$$$$@@$$$$$$$$+",
".++++++++++++++++++++++++++++"};
