/* XPM */
static char *Xscreensaver_t[] = {
/* columns rows colors chars-per-pixel */
"14 14 119 2 ",
"   c #255024FD24AC",
".  c #265A252924ED",
"X  c #2FAA2B6B2872",
"o  c #30A430A930A5",
"O  c #313431573121",
"+  c #3269322731C1",
"@  c #349F3491348F",
"#  c #352E351D351B",
"$  c #35AA35BC35B9",
"%  c #35B835E935D4",
"&  c #38ED39AF395D",
"*  c #3DC739F739CC",
"=  c #3A543C853C61",
"-  c #4D9606BE0186",
";  c #49041F421E75",
":  c #696A182110FC",
">  c #430B3B163AA1",
",  c #49A93A743A69",
"<  c #50F93A953A60",
"1  c #702C2F6E2CD4",
"2  c #7F642B2B2927",
"3  c #62B53AAF3724",
"4  c #40FE430541D9",
"5  c #45FA48454800",
"6  c #502D4FC94E4C",
"7  c #4FB94FE44E8A",
"8  c #50B450F84F84",
"9  c #50AD51B35039",
"0  c #5B235325516D",
"q  c #57C7588D55D4",
"w  c #5AA75AAF5AAF",
"e  c #5AE55C1B5C52",
"r  c #685D56F05303",
"t  c #69ED5B7F5A5C",
"y  c #6EB46EAD6E99",
"u  c #705D7096709C",
"i  c #79CC781F75AD",
"p  c #7E6A7DB77C1F",
"a  c #883A0249002D",
"s  c #9485004E0000",
"d  c #90B103D2023C",
"f  c #8AA010550B23",
"g  c #99D41073092C",
"h  c #A00C13600A2D",
"j  c #8E7A1F0C1B5C",
"k  c #A3FD00000000",
"l  c #B591101609FE",
"z  c #95D431B42A13",
"x  c #AF1636EA2EE6",
"c  c #B9D1303A25B4",
"v  c #BFF6356C27BF",
"b  c #AF063D06397B",
"n  c #C4C000430000",
"m  c #C8F9012B0000",
"M  c #C4E90AE106AC",
"N  c #C3270BE90893",
"B  c #CF8F0DD10AC4",
"V  c #DE35051F0288",
"C  c #DC6605A80372",
"Z  c #D2E40A2204A3",
"A  c #CECA1B4014D7",
"S  c #D8E518151151",
"D  c #E85E03B901B3",
"F  c #EC7F00000000",
"G  c #E0A40A77076B",
"H  c #F39600550000",
"J  c #F25001860066",
"K  c #F8D200000000",
"L  c #FC1700000000",
"P  c #FEF3003D0018",
"I  c #FFE900250010",
"U  c #FAB305D504F3",
"Y  c #E564185E13AC",
"T  c #F78413FA11A0",
"R  c #C09424011719",
"E  c #C7A23DDF3094",
"W  c #A8524EE9458F",
"Q  c #CBA555A04F83",
"!  c #D274583955A4",
"~  c #D026833C7FC2",
"^  c #8379837B82D7",
"/  c #878987988794",
"(  c #8A1A8A4D8A43",
")  c #8C8C8C8A8C7E",
"_  c #8D4A8F8A8DAB",
"`  c #8EFF8E468D23",
"'  c #907292C091BA",
"]  c #93CF93CD93B9",
"[  c #980A994F992A",
"{  c #98F79BE49BCF",
"}  c #9AC69AC79AC6",
"|  c #9BFA9E619DF5",
" . c #9DAE9EB89E19",
".. c #9CCE9EAD9E4E",
"X. c #9D419EC29E21",
"o. c #9E669EC69E7A",
"O. c #B03F95809321",
"+. c #A474A479A47A",
"@. c #A67AA67FA676",
"#. c #A8D0A5ECA3CA",
"$. c #AB39AB65AAE4",
"%. c #AD48AD5AAD38",
"&. c #AE42ADDCAD62",
"*. c #B05DB0A4B043",
"=. c #B300B2FCB2F2",
"-. c #B5B6B5BDB5B9",
";. c #B4C2B67BB652",
":. c #B674B6BEB6D5",
">. c #B759B746B6FE",
",. c #B766B770B771",
"<. c #BB56BB4CBB37",
"1. c #BE05BE1BBDCC",
"2. c #D490B9BEB429",
"3. c #CD64CCA6CA4B",
"4. c #EE06EDE9EDA3",
"5. c #EEA2EE6AEE05",
"6. c #EF66EF52EEFD",
"7. c #EFCBEFB8EF73",
"8. c None",
/* pixels */
"8.8.8.8.8.8.8.8.8.8.8.8.8.8.",
"8.8.8.8.8.d 8.8.8.8.8.8.8.8.",
"8.8.8.8.8.M h 8.8.8.8.8.8.8.",
"8.) ,.,.O.c W x #.,.,.,.] 8.",
"8.%.( t b R z A r e w ^ =.8.",
"8. .* - l Z f D : 7 O O } 8.",
"8. ., g E U N C S 2.[ % } 8.",
"8.| < m v Y H C H ~ { % } 8.",
"8. .> k G B I I K ! ' % } 8.",
"8. .= 1 T K I I I Q _ % } 8.",
"8. .& X j F I I n 3 4 O } 8.",
"8.$.p 8 0 2 s a ; 7 7 i %.8.",
"8.=.4.4.3.q . . 5 1.7.4.<.8.",
"8.8.@.@.) y u u y / @.+.8.8."
};
