/* XPM */
/* This file is a part of the NsCDE - Not so Common Desktop Environment */
static char *decal_timer_button[] = {
/* columns rows colors chars-per-pixel */
"17 14 3 1",
"  c NSCDE_BS_COLOR_5",
". c NSCDE_BG_COLOR_5",
"o c NSCDE_TS_COLOR_5",
/* pixels */
"oooooooooooooooo ",
"o............... ",
"o............... ",
"o............... ",
"o............... ",
"o............... ",
"o............... ",
"o............... ",
"o............... ",
"o............... ",
"o............... ",
"o............... ",
"o............... ",
"o                "
};
