/* XPM */
static char *moonphase_xpm[] = {
/* columns rows colors chars-per-pixel */
"64 64 65 1",
"  c Gray0",
". c #101910",
"X c #101222",
"o c #101931",
"O c #162131",
"+ c #212525",
"@ c #222332",
"# c #353635",
"$ c #353543",
"% c #3a4246",
"& c #4a3a3a",
"* c #463a42",
"= c #494952",
"- c #52566b",
"; c #5a737b",
": c #735f56",
"> c #6a6363",
", c #656573",
"< c #635a84",
"1 c #717290",
"2 c #73848c",
"3 c #7b84a5",
"4 c #90715f",
"5 c #847b84",
"6 c #94846e",
"7 c #af8d72",
"8 c #c59c7b",
"9 c #848c9c",
"0 c #929390",
"q c #948ca5",
"w c #9ca597",
"e c #94a5ad",
"r c #a79593",
"t c #a59ca5",
"y c #ada89c",
"u c #bca59c",
"i c #adabac",
"p c #adabbd",
"a c #adbdad",
"s c #bdacad",
"d c #bdadbd",
"f c #bdbdad",
"g c Gray74",
"h c #adadce",
"j c #bdcebd",
"k c #bdcece",
"l c #d8b28f",
"z c #ceadbd",
"x c #cebdbd",
"c c #cebdce",
"v c #debdce",
"b c #cecebd",
"n c #d6c5b5",
"m c #efc59c",
"M c #cecece",
"N c #cecede",
"B c #cedece",
"V c #cedede",
"C c #decece",
"Z c #decede",
"A c #dedece",
"S c Gray87",
"D c #e6e6de",
"F c #ececec",
"G c None",
/* pixels */
"GGGGGGGGGGGGGGGGGGGGGGGGGGGGGGGGGGGGGGGGGGGGGGGGGGGGGGGGGGGGGGGG",
"GGGGGGGGGGGGGGGGGGGGGGGGGGGGGGGGGGGGGGGGGGGGGGGGGGGGGGGGGGGGGGGG",
"GGGGGGGGGGGGGGGGGGGGGGGGGGGGGGGGGGGGGGGGGGGGGGGGGGGGGGGGGGGGGGGG",
"GGGGGGGGGGGGGGGGGGGGGGGGGGGGGGGGGGGGGGGGGGGGGGGGGGGGGGGGGGGGGGGG",
"GGGGGGGGGGGGGGGGGGGGGGGGGGGGGGGGGGGGGGGGGGGGGGGGGGGGGGGGGGGGGGGG",
"GGGGGGGGGGGGGGGGGGGGGGGGGGGGGGGGGGGGGGGGGGGGGGGGGGGGGGGGGGGGGGGG",
"GGGGGGGGGGGGGGGGGGGGGGGGGGGGGGGGGGGGGGGGGGGGGGGGGGGGGGGGGGGGGGGG",
"GGGGGGGGGGGGGGGGGGGGGGGGGGGGGGGGGGGGGGGGGGGGGGGGGGGGGGGGGGGGGGGG",
"GGGGGGGGGGGGGGGGGGGGGGGGGGGGGGGGGGGGGGGGGGGGGGGGGGGGGGGGGGGGGGGG",
"GGGGGGGGGGGGGGGGGGGGGGGGGGGGGGGGGGGGGGGGGGGGGGGGGGGGGGGGGGGGGGGG",
"GGGGGGGGGGGGGGGGGGGGGGGGG%qaNFFFFFMjq%GGGGGGGGGGGGGGGGGGGGGGGGGG",
"GGGGGGGGGGGGGGGGGGGGGGGrgFNheq99191qeei9#GGGGGGGGGGGGGGGGGGGGGGG",
"GGGGGGGGGGGGGGGGGGGGG0FVh1=@+     X+%;39p9+GGGGGGGGGGGGGGGGGGGGG",
"GGGGGGGGGGGGGGGGGGGqSFp-  +1ixSSAZAbi1#-219qGGGGGGGGGGGGGGGGGGGG",
"GGGGGGGGGGGGGGGGGGpFh;X -SFSSSDVZVZBNBMB,-123+GGGGGGGGGGGGGGGGGG",
"GGGGGGGGGGGGGGGGGMS3+ %CDSSSS>A>>Z>CMCMvnS=<11#GGGGGGGGGGGGGGGGG",
"GGGGGGGGGGGGGGGGSV1 #aFFSSSSSV B>B>BMMMMcjcB,21%GGGGGGGGGGGGGGGG",
"GGGGGGGGGGGGGGGMV2 =SFSSSSSSAZ Z>C>CbCbMbxbxF011#GGGGGGGGGGGGGGG",
"GGGGGGGGGGGGGGpS1 #SFDS SSSVZ>Z>>B>MMMMjc cjcFq11.GGGGGGGGGGGGGG",
"GGGGGGGGGGGGGqF3 =SFSSSSSZAZAZBCMCMvbcbcbxjxgxFq;- GGGGGGGGGGGGG",
"GGGGGGGGGGGGGSh+#SFDSSSSSVSBZBNBMMMMMjcjcjgjxggFe;=GGGGGGGGGGGGG",
"GGGGGGGGGGGG0F< iDSSSSSSAZAZBCMCMCbMbxbxgxgxfzfdF3,.GGGGGGGGGGGG",
"GGGGGGGGGGG%FhX=FSSSSScMMAZBNBMMMMMjcjZgdacggggfdB<% GGGGGGGGGGG",
"GGGGGGGGGGGrN- CDSSSjpSFDgpCMMMvncbcbi9g>gwifdfsssq<XGGGGGGGGGGG",
"GGGGGGGGGGGjh -DS ScMFFFFDSpMMMMMjcjiiSSMMb9qad saF;% GGGGGGGGGG",
"GGGGGGGGGG0F2 SSSSSpFFFFFSVbgCbcbxbM9SSMMx,iiifsssyp- GGGGGGGGGG",
"GGGGGGGGGGhV=#SSSSSSFFFAZSCkeMMjcjcggSMMb,isi9sasisS<XGGGGGGGGGG",
"GGGGGGGGGGFh+1SSSZMFFFZ,SMxbqcbcbxgs>MMx,isi>1isysys2% GGGGGGGGG",
"GGGGGGGGGGFe+jSSSVMAFASZ,MjxqjcjcjgagMxgjsiyy1sasyiyi= GGGGGGGGG",
"GGGGGGGGGGFq xSSAZSgDNACj,bg2xbxgxgxwxgfsiyyw1ysyuyyM- GGGGGGGGG",
"GGGGGGGGGGF9 SSVZBZpSAvMbgfexjcjgjggeggsiyyw2isyiyayN- GGGGGGGGG",
"GGGGGGGGGGF9 Z>Z>Z>SpMkbdgeqxxg0 0fzfqii>yw29s>s>i>yy, GGGGGGGGG",
"GGGGGGGGGGF9 V>BZ NBMgeeq2xjxjg   gggfi9221jsy>y>y>yi- GGGGGGGGG",
"GGGGGGGGGGF9 Z>ZB MCbCbcbxbxgxg0 0fdfsfsysysyu>y>y>yi- GGGGGGGGG",
"GGGGGGGGGGF1XB>B>B>MMMMjcjcjcjgggggfdfsasisyiy>y>y>wp- GGGGGGGGG",
"GGGGGGGGGG0q+gBCMMMcbcbcxxgxgxitw0tissisysysyyyyyywyi- GGGGGGGGG",
"GGGGGGGGGGpe%aNBMMMMMjcjxjgjw,>==7=,0ysaiyiyiyyyywywN= GGGGGGGGG",
"GGGGGGGGGG2p;1MCMvbMbxbxgxgt-&&@O#@o@=0syuyyyyyyyyyyj# GGGGGGGGG",
"GGGGGGGGGG%i3%MMMMMbcjcjgjw*4lm8*O$=@O=wiyiyiyywywyweX GGGGGGGGG",
"GGGGGGGGGGG93=BMncbxxxgxdi*4mll87@=:@oO=yyyyyywywywi;  GGGGGGGGG",
"GGGGGGGGGGG%p1,MM cjxjgjg5o788877&#oooO@0yyyywy ywwV# GGGGGGGGGG",
"GGGGGGGGGGGGw1-Sbxbxgxgxf%#snu7746:@6i0@=yyyryyywrii. GGGGGGGGGG",
"GGGGGGGGGGGG+91=cjcjgjggy*afdar64#=yiyiy$0ywywywqwS%  GGGGGGGGGG",
"GGGGGGGGGGGGGq2<Mxgxgxfzyyfsssiuzyyzyyyy00wywywrwie. GGGGGGGGGGG",
"GGGGGGGGGGGGGG32,FgjgggfdadasjiiyyiyiyyeywywywwwrB#  GGGGGGGGGGG",
"GGGGGGGGGGGGGG+110FxfzfdfsssysysyuyyyyyyyywywryrD,  GGGGGGGGGGGG",
"GGGGGGGGGGGGGGG#11qFgfg saijsi>y>y>yiyywy ywqwrDq  GGGGGGGGGGGGG",
"GGGGGGGGGGGGGGGG%<;qFdfsssisys>u>y>yyywywywrwrS<X  GGGGGGGGGGGGG",
"GGGGGGGGGGGGGGGGG+<;eFdasaiiiyi.ty>eywywywwwrFq.  GGGGGGGGGGGGGG",
"GGGGGGGGGGGGGGGGGG.-;1MZisysyuy>yy>yyywywrwiM,   GGGGGGGGGGGGGGG",
"GGGGGGGGGGGGGGGGGGG =;<9FBsyiyiyyyywywywqeFe#   GGGGGGGGGGGGGGGG",
"GGGGGGGGGGGGGGGGGGGGG.%<,pSZyyyyyywywyeZSi#   GGGGGGGGGGGGGGGGGG",
"GGGGGGGGGGGGGGGGGGGGGG X%=<2ikNBNBNBNke;#.   GGGGGGGGGGGGGGGGGGG",
"GGGGGGGGGGGGGGGGGGGGGGGG  X%=-,,----%#.    GGGGGGGGGGGGGGGGGGGGG",
"GGGGGGGGGGGGGGGGGGGGGGGGGGG             GGGGGGGGGGGGGGGGGGGGGGGG",
"GGGGGGGGGGGGGGGGGGGGGGGGGGGGGGGGGGGGGGGGGGGGGGGGGGGGGGGGGGGGGGGG",
"GGGGGGGGGGGGGGGGGGGGGGGGGGGGGGGGGGGGGGGGGGGGGGGGGGGGGGGGGGGGGGGG",
"GGGGGGGGGGGGGGGGGGGGGGGGGGGGGGGGGGGGGGGGGGGGGGGGGGGGGGGGGGGGGGGG",
"GGGGGGGGGGGGGGGGGGGGGGGGGGGGGGGGGGGGGGGGGGGGGGGGGGGGGGGGGGGGGGGG",
"GGGGGGGGGGGGGGGGGGGGGGGGGGGGGGGGGGGGGGGGGGGGGGGGGGGGGGGGGGGGGGGG",
"GGGGGGGGGGGGGGGGGGGGGGGGGGGGGGGGGGGGGGGGGGGGGGGGGGGGGGGGGGGGGGGG",
"GGGGGGGGGGGGGGGGGGGGGGGGGGGGGGGGGGGGGGGGGGGGGGGGGGGGGGGGGGGGGGGG",
"GGGGGGGGGGGGGGGGGGGGGGGGGGGGGGGGGGGGGGGGGGGGGGGGGGGGGGGGGGGGGGGG",
"GGGGGGGGGGGGGGGGGGGGGGGGGGGGGGGGGGGGGGGGGGGGGGGGGGGGGGGGGGGGGGGG"
};
