/* XPM */
static char * clock_background[] = {
"64 64 4 1",
" 	c None",
".	c #303040",
"+	c #101020",
"@	c #FFFFFF",
"                                                                ",
"                                                                ",
"                                                                ",
"                                                                ",
"                                                                ",
"                         ..............                         ",
"                      ....................                      ",
"                   ......++++++++++++++......                   ",
"                  ....++++++++++++++++++++....                  ",
"                ....+++++++++++@@@++++++++++....                ",
"               ....++++++++++++@@@+++++++++++....               ",
"              ...++++++++++++++@@@+++++++++++++...              ",
"            ....++++++++++++++++++++++++++++++++....            ",
"            ...++++++++++++++++++++++++++++++++++...            ",
"           ...++++++++++++++++++++++++++++++++++++...           ",
"          ...++++++++++++++++++++++++++++++++++++++...          ",
"         ...++++++++++++++++++++++++++++++++++++++++...         ",
"        ....++++++++++++++++++++++++++++++++++++++++....        ",
"        ...++++++++++++++++++++++++++++++++++++++++++...        ",
"       ....++++++++++++++++++++++++++++++++++++++++++....       ",
"       ...++++++++++++++++++++++++++++++++++++++++++++...       ",
"      ....++++++++++++++++++++++++++++++++++++++++++++....      ",
"      ...++++++++++++++++++++++++++++++++++++++++++++++...      ",
"      ...++++++++++++++++++++++++++++++++++++++++++++++...      ",
"     ...++++++++++++++++++++++++++++++++++++++++++++++++...     ",
"     ...++++++++++++++++++++++++++++++++++++++++++++++++...     ",
"     ...++++++++++++++++++++++++++++++++++++++++++++++++...     ",
"     ...++++++++++++++++++++++++++++++++++++++++++++++++...     ",
"     ...++++++++++++++++++++++++++++++++++++++++++++++++...     ",
"     ...++++++++++++++++++++++++++++++++++++++++++++++++...     ",
"     ...++++++++++++++++++++++++++++++++++++++++++++++++...     ",
"     ...++++++++++++++++++++++++++++++++++++++++++++++++...     ",
"     ...++++++++++++++++++++++++++++++++++++++++++++++++...     ",
"     ...++++++++++++++++++++++++++++++++++++++++++++++++...     ",
"     ...++++++++++++++++++++++++++++++++++++++++++++++++...     ",
"     ...++++++++++++++++++++++++++++++++++++++++++++++++...     ",
"     ...++++++++++++++++++++++++++++++++++++++++++++++++...     ",
"     ...++++++++++++++++++++++++++++++++++++++++++++++++...     ",
"     ...++++++++++++++++++++++++++++++++++++++++++++++++...     ",
"     ...++++++++++++++++++++++++++++++++++++++++++++++++...     ",
"      ...++++++++++++++++++++++++++++++++++++++++++++++...      ",
"      ...++++++++++++++++++++++++++++++++++++++++++++++...      ",
"      ....++++++++++++++++++++++++++++++++++++++++++++....      ",
"       ...++++++++++++++++++++++++++++++++++++++++++++...       ",
"       ....++++++++++++++++++++++++++++++++++++++++++....       ",
"        ...++++++++++++++++++++++++++++++++++++++++++...        ",
"        ....++++++++++++++++++++++++++++++++++++++++....        ",
"         ...++++++++++++++++++++++++++++++++++++++++...         ",
"          ...++++++++++++++++++++++++++++++++++++++...          ",
"           ...++++++++++++++++++++++++++++++++++++...           ",
"            ...++++++++++++++++++++++++++++++++++...            ",
"            ....++++++++++++++++++++++++++++++++....            ",
"              ...++++++++++++++++++++++++++++++...              ",
"               ....++++++++++++++++++++++++++....               ",
"                ....++++++++++++++++++++++++....                ",
"                  ....++++++++++++++++++++....                  ",
"                   ......++++++++++++++......                   ",
"                      ....................                      ",
"                         ..............                         ",
"                                                                ",
"                                                                ",
"                                                                ",
"                                                                ",
"                                                                "};
