/* XPM */
static char * radar_xpm[] = {
"64 64 65 1",
" 	c None",
".	c #020204",
"+	c #026204",
"@	c #023204",
"#	c #029204",
"$	c #021A04",
"%	c #024A04",
"&	c #027A04",
"*	c #1A1A1C",
"=	c #02AA04",
"-	c #020E04",
";	c #323234",
">	c #022604",
",	c #366634",
"'	c #023E04",
")	c #4E4E4C",
"!	c #028604",
"~	c #026E04",
"{	c #029E04",
"]	c #025604",
"^	c #262624",
"/	c #121214",
"(	c #022204",
"_	c #02B604",
":	c #023A04",
"<	c #021604",
"[	c #022E04",
"}	c #028E04",
"|	c #020A04",
"1	c #026A04",
"2	c #023604",
"3	c #029A04",
"4	c #021E04",
"5	c #025204",
"6	c #267624",
"7	c #222224",
"8	c #3A3A3C",
"9	c #2E2E2C",
"0	c #028204",
"a	c #024604",
"b	c #027604",
"c	c #02A604",
"d	c #025E04",
"e	c #02BE04",
"f	c #0E8A0C",
"g	c #2A2A2C",
"h	c #1E1E1C",
"i	c #022A04",
"j	c #161614",
"k	c #020604",
"l	c #026604",
"m	c #029604",
"n	c #024E04",
"o	c #027E04",
"p	c #02AE04",
"q	c #021204",
"r	c #024204",
"s	c #028A04",
"t	c #027204",
"u	c #02A204",
"v	c #025A04",
"w	c #02BA04",
"x	c #063204",
"y	c #061A04",
"z	c #062604",
"                                                                ",
"                                                                ",
"                                                                ",
"                              j%!*                              ",
"                        ;*j/...:b..k///8                        ",
"                     g/........'b......./*)                     ",
"                   */..........:b........../^                   ",
"                 h.............:b.........../*8                 ",
"                j..............:b.............kj                ",
"              7................:b............../*)              ",
"             *k................:b.................7             ",
"            j.............|invosuol]@-.........../*8            ",
"           %6q..........@~mu3#~o{~!#u3&'|.........$ox           ",
"          k.[b<.......rsu&5[|..:b...>%t{#]k......4bx*;          ",
"         9k..[bq....(&3+>......:b......4]}}@....<&>...8         ",
"         .....>b<..r3t4........:b........-v{d..$&(.../*         ",
"        j......[b$+m'..........:b..........[!b(b>....../        ",
"       /........>#!i...........:b...........<bc[....../j)       ",
"       /........+sb$...........:b...........4bb&|........       ",
"      .........rmii&<..........:b..........<b>q!d.......*8      ",
"      /.......({'..(b$......<rd0{t5@k.....4&>..(3'.......k      ",
"     j........&~....>&$...$+3{}!{&mu#%|..$b>....nm<......j)     ",
"     *.......a34.....>b$.%3!a<.'b..>vm!>$&>.....|!+.......k     ",
"     ........sd.......>&+ma....:b....<+#0>.......'u<......j     ",
"    9.......2u>........vw@.....:b.....$!{>.......|#].......8    ",
"    ........~&........'3:&(....'b....$bi5m<.......dsk...../*    ",
"    *......|m5.......-m5.(b$...:b...<&>..01.......@u>.......    ",
"    .......[ci.......5#|..4&(..:b..$b>...2u>......|3n......j    ",
"    .......n3|.......#d....4b4.:b.$&>.....sd.......&t.......    ",
"    .......d}.......iu[.....(&(:b<b>......+}.......~o......k    ",
"   j.......0~.......a{q......4&%o&>.......r{<......n3|......)   ",
"   1vvvvvvvmsvvvvvvv&=dvvvvvvdlue1vvvvvvvv1_+vvvvvvbpdvvvvvd6   ",
"   ~ddddddd3}ddddddv&pddddddvdlue~dddddddd1wldddddvbp+ddddvd6   ",
"   *.......o~.......n3-......<&nob>.......'u$......%3|......)   ",
"    .......l!.......[c>.....<bi:b$b>......]m.......l!.......    ",
"    .......]m.......k#5....<bi.:b.$b>.....!1.......t&......k    ",
"    .......@u(.......l!...qb[..:b..$b>...>{2......km5.......    ",
"    .......-3%.......4{r.<b[...'b...<b>..~&.......>u[......j    ",
"    /.......o~........]}4&[....:b....4b>:{i.......n3|.......    ",
"    7.......'{$........~=@.....:b.....<omr........sd.......)    ",
"     k......|m5.......<bo0>....:b.....rm}[.......@u>.......     ",
"     ........]#|.....qb[.l{l>..:b..|2o3r<bi......b&......./     ",
"     8.......k}v....<b[...'0u!~1}5b#u~(..qb[....:{(.......8     ",
"      ........@{[..q&[......@l0{_mb](.....<b>..<#].......*      ",
"      ^........d!<<b[..........:b..........qb[.~&k.......7      ",
"       .........bbb[...........:b...........<bl}<.......j       ",
"       ;........$u&-...........:b...........kd_r........;       ",
"        .......<b2&s(..........'b..........<~}>t@.......        ",
"         .....-b[.|d3n|........:b.........:#b<.qb@.....         ",
"         9...qb[....'m!'|......:b.......@t{]|...|t@...)         ",
"          *.q&[......<+{#v[|...:b....>%su&(......qt@.h          ",
"           <bi.........$]}u3&1%+s%ltmu3+i.........-b;           ",
"            :............|>%t03uw3!&][|............<            ",
"             j................|'b|................7             ",
"              8................:b................8              ",
"                ...............'b...............                ",
"                 8.............:b.............9                 ",
"                   *...........:b...........g                   ",
"                     8.........:b.........;                     ",
"                        ;......:b......8                        ",
"                              ),!)                              ",
"                                                                ",
"                                                                ",
"                                                                "};
