/* XPM */
static char * rolexgmt_xpm[] = {
"64 64 65 1",
" 	c None",
".	c #291A49",
"+	c #9C8A92",
"@	c #5C4A64",
"#	c #AB4B59",
"$	c #960E2D",
"%	c #7E6B76",
"&	c #D6CBCE",
"*	c #6B1936",
"=	c #BBAAAF",
"-	c #804F5B",
";	c #9E2C40",
">	c #4F2F3E",
",	c #C88E95",
"'	c #B36E77",
")	c #927B83",
"!	c #412138",
"~	c #59313B",
"{	c #D42B43",
"]	c #715C68",
"^	c #835B65",
"/	c #A2989C",
"(	c #843242",
"_	c #DBACAE",
":	c #D86E79",
"<	c #C71231",
"[	c #F2EDEC",
"}	c #946C73",
"|	c #633E4B",
"1	c #704C58",
"2	c #925F68",
"3	c #30235C",
"4	c #AD7D84",
"5	c #DE4C5A",
"6	c #9C3C4C",
"7	c #C69DA8",
"8	c #E6DCDD",
"9	c #D53B4D",
"0	c #7E1935",
"a	c #991D38",
"b	c #AB5B63",
"c	c #DB5D6A",
"d	c #D7BCBE",
"e	c #C4BCBD",
"f	c #D57C84",
"g	c #D42039",
"h	c #F8F9F6",
"i	c #B63B4D",
"j	c #AE8D9A",
"k	c #5A2836",
"l	c #EE2D40",
"m	c #E29CA1",
"n	c #E9CFD1",
"o	c #B82B41",
"p	c #7F253B",
"q	c #4C3D68",
"r	c #B21A33",
"s	c #B3112F",
"t	c #ED3C4D",
"u	c #4D2937",
"v	c #C35C69",
"w	c #C14A59",
"x	c #B19CA5",
"y	c #DD8D92",
"z	c #7B3F4B",
"          ehh[h8+xe&[hh[[8x+)]]j)++)%/+/8[h[8&&ex%%%%           ",
"          8hhhh&])++=[e%@3.....j77x%...>@@)/+))+))%%]=          ",
"          &[hhh8]%e&)q333333...q7x73......3]%)]%))]]])          ",
"          888888/e//=@33333.3.3.jx%..........@+%+)%]]@          ",
"         &88eeee/@]%q=333]=33.3.@=>.....3.....3]%%)%]]+         ",
"         8[exe&)==)q@x333]=q333!3^3....%x.....]+%%))%]@         ",
"         e=/+/3/qq/3=@]q33>q-^-^^--|qu!>].....u.%|])%]]x        ",
"        [)/&)33@3+%q=xj1]^^-^^222^-z|~||~u...@]@)q.@)+%]        ",
"        x)/%3333q=@j2^1}}}}4}42}}2}z|-k~k|1||j@]@...@)+]        ",
"        +/@33333qd71^}j4444}^2}2)2211-1^|^z~|2+>.....@/%]       ",
"       e+@333qq332^4j44j'}^2^z~!^u1u->|-1^^^z||]......@)]       ",
"       e]3333exu@}7j_7j}^2~1u~4)))^k|u1~k^2^}-|u.......]+@      ",
"       )q3333%]14dxdd4z->>u~>unhhh+u!uk!1~|'^^}-~>.@q...)@/     ",
"      =xx/q3u314=x[=@}~u~uuu~!=[h[@!!!!!!u]||^^2]~>/)..33+u     ",
"      ^+.qj%3|}7d8j]u-&d@!!u>u}[hnuuuu!*)&%u-|1^)%|~3....@)@    ",
"     )~j}3q7k2xjn)uk>=hh/>u!>u~[[/>~kk>|[[[>>>1]2^}|u..3..%q+   ",
"    =+74%7j}^4)d^u1!k}[[)>~!~>u=[]u~uuk~8[&>>~|~^2^%u3.3..q4@   ",
"    )j.+|qq1}'j^^u!!!u]]uu~uuuk)8~uu~u>>>%|>ku~|]^^}13>/++j%]/  ",
"   />x>+@71^}j}!!uu!ku~>uuuuuuu|/~~u~k~>~>>~kuu~~|}^}q!+!>j1)]  ",
"   @qq3+j)z444z-u!!uuk>>~uk!u~uu|k~uu>>~~>>~~~~~~-^2}]~1++>.)q  ",
"   >qq>@7|^)7}~|~!uu>uuu>uuku~|])2u>>~>>~~kk~~~~|>~)-}|)j...|)%+",
"  )@@qqqq1444+%8[)u>u~u~~uu>>>|)j]u~kukkuu~~~~qd[)]1^^^>....3)+@",
"  qq@qq>|^)xj1}[h8!>u>uuk~>uuuu=[^>>ku>~>u>>u>][h8~~1^^-.3.3.)}}",
"  qqq+d1|24j)|18[/uu~>~>>uuu>!~}7>>uu~u~uuuu>>qn[=~1~1^^>....@+)",
" /333]x1-)jj~!u|1uuuuuuk>~^^^])1^~}1%->uu!!!!u>~1||~uz^^|33..!+)",
" %q3333|^}4^|uuuuu>uk>>>uu^2]^)1]1)1^)uu!!!!uu>>~~||^1-^@2=...)+",
" q333uu@24^uuuuu>u>>uk~u^^%^^|)+]^^]]|^|!!u12}}}^^-|~~12|@}3..%)",
" q@>]qu|^}^]uuu>uuuku>uk111|1|]%-1|||-||u~)7n=2-|~11-11^|!33.3]%",
" %)x}j2|22|uuuuuku>uk>u>uk~~~ku~~~~~~>u!u^')x)-~!!!||k1-|>.3..1)",
" +|x31)1}2^1u~u~>>k>>u>u>>uk>~~11~k~~~u!u}}2_j}}%242z^1^1>3...@%",
" |j4jx11^2~u1]]-]1uuu>kku~>~u>k-|1|~~~>!u1~1^]|j]%@d|~|^1q!...@)",
" ***p**z}}^18[[[[8uu~u>>~uk~~||224|~~>~!u!!|x)])])@81^^-^2}/j%@)",
" bf4'4#z241|&8[88&>u>uuuk>uk0(|}2'~|~~~>!!!>@%/=%&+x]~|-^'}~))2)",
" pa;;6;(^^|~~|~~~u>>uukkk0aa0p|11}|>|~~~>@!@|~1d)]]d1~12-ob-''}}",
" *$$$a$(2^1|~~u|uuuukp0aapku>uu(|~u~~|~|~]>>%%%)+++^||^}^ify6:b}",
" *$$$$0(^}~>>~]jkkpa;p*uuuuuu>>~u>~>>~~~|-]!uu>|1]^^|u^^6osrrab}",
" p$$$$a(242-~}[nz;0kk>uu>uuuu~u~~>>>>>~~~|2%}))44}-z1|}};orrrr'}",
" 2$$$'w(^}^~^&8[-!uuuuuuuu>kuuku~uu>u>>>~~~1^-1|1--|u|'2;gorraf}",
" 4$$;,:(z^2^|~-^1~~uuuuk>u>>uu~>~~u>>>u>~~k~~~|1}2-|-]}biooora4+",
"  $$$;aa62^|~uu])>uuk~u>~11]-^~11]^^%^1uk>~>>~|%+^-k>4%#9mwori44",
"  *$$$$a6z^-21-8[e!>k~kuu^^111|-}2^1|^2uku~>>~][[e|^^4}6{yirsbj)",
"  ;$$$$a6-}^1~}8[&u~uu}^)2}2^2%|^^}22}}2})1>k~^[[d||44}ig$rrs'+]",
"  4$s$ai6---2}]=e]uuk~||~-11||-|111]|-}-|z~~~~|xd1}4j'#9rssrr4+ ",
"   $a;,:yb2}}^|~~~uk>k~k-}^}^}^2|2}}^^^2k~|~|||~~~|j,}#{rssr#%= ",
"   6fb,a'vb2-^^-~~~>>~>>~uu~u|~>>>~~~~~~~~~|z||||2}4}6m#sssa'%  ",
"   e,6fy7o62^21~||~ku>uuu~~k~|~uuu~~~~~~~~||||~||2,)bv_fbrsw}/  ",
"    }7y#by'#2-^-]~~~u~/7~>~~>~u=&]k~~~~~%d)|||~]=j}'bfiimya,@   ",
"    _;#yf;ri#-}^~|-~~j[[/u~u~>k&[%~~~~||[[[zz|)d4j'b:v,m6y'j+   ",
"     2firsra##^---~|1=[[+>>k~>knh)~~||z18[[|1/&_j}#:5gi,y47)    ",
"     &as$ssr;66^2-|2~-xj|~~~~~~n[)||||z-}j%|d&&=42y5rggoi4%     ",
"      'asssv_wi#-^-11)~|~||||||8h)z|||~1|~+d_&7j^mvoggrg#_/     ",
"       #ssrvy;ro--2-^}|^~1||~~1n[)||~~1~}}=&e4,b_fdoggood]      ",
"       7;rsrrr<ri6z-)z]|u1k12^22^-1}2|^}4dnj,''m5cm9<go_=%      ",
"        mosss<gwf#;(z^2|11|1||1|1-^1)j=77j'4'fy9{{{{{r7[/+      ",
"        +,;<<srydwogapz--1|^]2}4,7=_=j)'44:fm:yl{lggom&8%       ",
"        e=ya<<omb_f:v{;p~~~111^^^222}}2bvccdd:m9gg{o=[[8@       ",
"         ==7irywv_'_ogl9{r(p(zz-2}-www95tty:wdvf{g9&hhh//       ",
"         ===7'fd,o_wlg{5y5t{9iwvvwc5tt5ttt:ylf'_ovn[hhh]        ",
"         eex==jir::<gglmn9tttddnvy5t5mntttt_9vfv7[8hhh[]        ",
"          e=x==,bv{g<ggttlllt9fd:yttt::tlllcdm'=e&8[hhe)        ",
"          /e=//e87#gglgglltt5_y5:fttlttllll5fddd=e&8[h)         ",
"          /=e==&e&d,#9ggllttfy5yyfttttttc:m74/=e/=e&8[]         ",
"          exedd8))++)+4f59ltfnnyy:tcc:f,_jxxx==/+/=e8&+         ",
"           /8[[h%)%))%))++4m'f7f'jm4j=++////xx/x)+/=e+          "};
