/* XPM */
static char * clock_background[] = {
"64 64 65 1",
" 	c None",
".	c #2E2E4C",
"+	c #32324C",
"@	c #2A2A42",
"#	c #2E2E43",
"$	c #323254",
"%	c #3A3A5C",
"&	c #363655",
"*	c #26263C",
"=	c #323244",
"-	c #3A3A54",
";	c #3E3E61",
">	c #42425D",
",	c #46466A",
"'	c #222231",
")	c #1E1E2B",
"!	c #1A1A25",
"~	c #4E4E73",
"{	c #161624",
"]	c #26262C",
"^	c #3A3A4C",
"/	c #3E3E54",
"(	c #424254",
"_	c #525279",
":	c #4E4E64",
"<	c #62627C",
"[	c #666683",
"}	c #5E5E79",
"|	c #56566C",
"1	c #46465C",
"2	c #5A5A82",
"3	c #4A4A5C",
"4	c #6A6A84",
"5	c #72728C",
"6	c #6E6E8B",
"7	c #5A5A74",
"8	c #52526C",
"9	c #6A6A8C",
"0	c #8E8EA4",
"a	c #E2E2E4",
"b	c #AAAAA4",
"c	c #565674",
"d	c #2A2A34",
"e	c #262634",
"f	c #9E9EA4",
"g	c #BABABC",
"h	c #86867C",
"i	c #626264",
"j	c #5E5E6C",
"k	c #565681",
"l	c #76766C",
"m	c #5E5E5C",
"n	c #525264",
"o	c #4A4A64",
"p	c #42426C",
"q	c #36364C",
"r	c #363644",
"s	c #3E3E4C",
"t	c #32323C",
"u	c #565664",
"v	c #4E4E7C",
"w	c #4A4A6F",
"x	c #5E5E84",
"y	c #4A4A54",
"z	c #3E3E44",
"                                                                ",
"                                                                ",
"                                                                ",
"                                                                ",
"                           .++.@@#++@                           ",
"                       $%&&&$$.+...+$#*@=                       ",
"                    $&-%$+@@@@*****@@.@.+.+#                    ",
"                  ;>,;.@*'')!!!)!)))''*@@#.#@=                  ",
"                 ;~;#@')!{!]=^/>(/^#')!'*@@@#.+                 ",
"               ;_~.*)!{!=:<[[[[[<<}}}|1#))'@##@'#               ",
"              >2;@*){'3[444[[<[556<}}77|8/')*@.###              ",
"             ,2&*){)36944[[[[[0aab6}7777c|8/''*@#@d             ",
"            ,2.e){=[444[[[[<<<fgghij}7||||88:='*@@@#            ",
"           ,k+e!!:64994[[<<[<<4llm7777cc888n~:-**@.*d           ",
"          ;k='!!|6644[[[[[<<<<j77j777||||88n::o(*@#@@#          ",
"         >_&'))}6644[[[<<}<}}}2}77c|7|||8n~:~::o(*@.#ed         ",
"         >%@!!76494[[[[<<}<}}}77777|||_88nnn:::o3/*@@@*         ",
"        ;p@)!:694[[[[<<<<<}}7}}777|c8|8|nn~:ooo3,1q@..*e        ",
"       /,+'{r6694[[<[<<}}}}}7777|c|c8|888n:::3o3111=@.@@s       ",
"       ;%*))[444[[[[<<<}}}}}777777c||88n~:::o:3o31>/##.*'       ",
"      -%.'!36444[<<<}}<}}77}777||||88n~n::::oo11311(q#.@*t      ",
"      ;&@!'494[[<[<}<}}}7}j777|7c|8|n8n:~::o33o311(>(@..*)      ",
"      q#'{144[[[<<<}<}7}777777||||88:8:::o:oo3,111(>(q#+@e      ",
"     ,&@')[9[[<[<<<<}7}77|77||||888n8:::3:o311111(>(;s...e!     ",
"     @$*!=[4[[<<}}}}}7777777|c8|888n8n~:o3oo331111(((s++.#e     ",
"     &.'!n[[[<<<}}}7}}777|||c||88nn~:::::o331111((((//q.+@)     ",
"     $#){<<[[<}<}}}7777|ccc|8_888nn:::o3ooo311>1>>//(/^.$.*     ",
"    :$@''[[<<<<}}77777|c||||||n88:~:o3:o3311111>(/((/s/++.'!    ",
"    q.*)t[<<}}}}}}77777||||888nn8::::o3o3o11111((>///^^$+.*e    ",
"    >+@)r<<}<}}}777|||||||8|n8n~::::o3o31111(((>(///^/^+&+*!    ",
"    ..*)/<<}}}77777ccc|_8888n~n:::o::ooo11111(((((//^/^+$+@'    ",
"    &.*!(}}}}}}7|||||888888n~n:::o:333111111(>(>///s/^^q&$'{    ",
"    @.*)(}}}77777c|||||8nn~n:::::3oo331311>>1(/(///^^^q+$$@)    ",
"    -#@)/}777777||c8|88n8:n::::ooo311,311>(1(>(/(/s/-^^&&+'{    ",
"    +.*)r}7777|c|||88n8n8~:~:::3:o3o311111(((/(/s-^s^^^q&$*]    ",
"    >+@'#777c|7|8888n~:::::::ooo33o111>(((>/((///s-^qqq&&+*!    ",
"    /+@''7777|c||888n8:::::o:3oo31111111>((///s/-s-^^qq&&.*]    ",
"     .#*)n|||8||8n8:n:~::oo:oo31,13111>((((((//^s^^^qrq&$#'     ",
"     #@*)(|||8888:8~::o3::333o33311>(1(>/;///-/-^^^^qr&%$@)     ",
"     &.@'#_8||8n8n::::::33ooo1311(11>(>(((///s^s-^qqr=&%$@)     ",
"     (+#*':8888:~::oooooo3333,1111(1(((//(/s//^^^^q^q=%%.e]     ",
"      .@@'^8:8:n::::::3311,1111>1(1(>(/((s/-^^-^q^^rr&;&#)      ",
"      r.@ee8::~::o3o3ooo3311111(1(((((////s/^^^^qrqqr%;.*)      ",
"      u.@@)^::::3oo3,3111111111>(>/(//(s-^/^-^^^qq==&,&.']      ",
"       +.#*eooo:33o31311111>((1((>((///s/^^^^^q^rqr=;p$*'       ",
"       n@@@*#o3ooo131111>1111>(>((//////^--^^qqrqr=%v&#'#       ",
"        r.@@e^3311111111(((((((/////-^^/s^^^^^qr+=-~p.e'        ",
"         @.@@*/1311111(>(>>((;/(////s/-^^^^qqrr+r&w~+@)         ",
"         s#@@*@-111>>((>((>(((/(/s/-^s^^^^^qqqr=qw2&@'t         ",
"          -..#@@->((((>(((//////s/^s/^^qqqqr===qw2&@e)          ",
"           =@@##@q(>(((//((///^/^/^^^^^^qrqqr=&vx&.''           ",
"            =.@@@@=-///////s/s/^/^^qqq^qrqrr+%k_$@*'            ",
"             +#@@@.#q/s/^^/^-^/^^^^^^qrqr+=q,2,$.']             ",
"              q@..#.##q^s-^-s^^q^qqqqrqr=-;vw&.@)]              ",
"               1d@@.....qq^q^q^qqqrrq=q%;,,%$.*'r               ",
"                 #@@@....$+q&qqqqq&&&;%;%&$.*)]                 ",
"                  y@*@#...$$&$&&&&&%&&$$.@*''z                  ",
"                    :@'@@.@..$.$$$$....@*'ez                    ",
"                       zeee*@@@@@@@@*')'r                       ",
"                           (td''''e#z                           ",
"                                                                ",
"                                                                ",
"                                                                ",
"                                                                "};
