/* XPM */
static char * swatch2_xpm[] = {
"64 64 65 1",
" 	c None",
".	c #08053C",
"+	c #567287",
"@	c #2E3B6C",
"#	c #9FA6A4",
"$	c #5D487D",
"%	c #A37B58",
"&	c #1A2053",
"*	c #3B597B",
"=	c #A59187",
"-	c #473D5A",
";	c #3B2453",
">	c #615D69",
",	c #6A968C",
"'	c #7D716B",
")	c #7C6562",
"!	c #2B3160",
"~	c #D3944D",
"{	c #474D65",
"]	c #B4824F",
"^	c #808186",
"/	c #D9A875",
"(	c #63677E",
"_	c #24275C",
":	c #CD9C68",
"<	c #0C174C",
"[	c #F6C486",
"}	c #374E6E",
"|	c #90705B",
"1	c #6D5E6C",
"2	c #524E65",
"3	c #3A4066",
"4	c #A88562",
"5	c #353261",
"6	c #BABFBA",
"7	c #C6AA8F",
"8	c #908F91",
"9	c #ECB97D",
"0	c #A39FA0",
"a	c #48657E",
"b	c #6D7080",
"c	c #BAB8B6",
"d	c #8F9D9C",
"e	c #605468",
"f	c #AEBABC",
"g	c #FDD38B",
"h	c #1E1A47",
"i	c #53596F",
"j	c #B8926C",
"k	c #90807E",
"l	c #DA9A4E",
"m	c #E6AB67",
"n	c #6D7D87",
"o	c #46264D",
"p	c #7D7589",
"q	c #C6CEC4",
"r	c #B39B8E",
"s	c #474565",
"t	c #DCB083",
"u	c #77678F",
"v	c #9F8987",
"w	c #706879",
"x	c #BD8950",
"y	c #54667F",
"z	c #917863",
"                hooooooo;;;o;o;;;o;;;;;;;;o;;hh                 ",
"                h&___&_&___________&__&&&&&&&&&<                ",
"                &___________________________&_&&i               ",
"               __5555@55_5@55555_!!_5___!_;!!;5_h               ",
"               5$$$e$$e$$$$$$$$$$$$$$$$-$$$$$$$s53              ",
"               $1uuuuuuuuuupub((>(((uuu111e1e1ee$_              ",
"              51uupppubb+y*}33-$2ss35@s*(bubuuuu>-i             ",
"              s(++++aa*33s1'|)'w1e22{{-3@@}aay+yy{&             ",
"             &ea*a}}@@{1'')>ee1111ee$s-5@33@@@}}**!             ",
"            s-y}}@@@{)zz)11ukvkk^''(>(>(>s5@s@!!!!@!            ",
"            _s}!@@3)v4'w'vr/9[gggggg9741e>bb}*s!!__!            ",
"           {5i!!@2%j4'k79[[[9mmmmmmm9[[[t4>yn,*3!___{           ",
"           h-3!@)4j4k7[[[9mllll~l~~llllm9[9x2y,{3@___           ",
"          h!}!5'4:vr[[99/l~lll~l~~llllll~lm[m|{+{@@__{          ",
"         shs3@)x:=/[99/~lllllllllllllllll~~lm9j2iis@_&          ",
"         &5}@)4:rt[9ml~ll~l~l~lll~ll~ll~l~~l~/m:{{is!_{         ",
"        &hs@1x::t99/~~~lll~ll~l~ll~ll~llll~~~~lm:2{>{5&         ",
"       2&5{24x7999l~l~~l~ll~llll~ll~lll~ll~l~~~l/j2{>{!!        ",
"       _&23|jlt99lx|e-@s)%~~l~lll~ll~ll~l~~~l~~~ll4s{>s_        ",
"      {hs31x:t99:)s@@32353)xl~l~lll~l~lllll~l~~~~ll'3a>!!       ",
"      __{s]x/tm:)3@3)%]%13@exll~l~llll~l~ll~~l~~l~~~2sb{&       ",
"     2<-31xltm/)@@)]~lllx|33)~lllll~l~ll~lll~~l~~~~~z-iw!{      ",
"     _&{3%~tmm]s@)~~~llllx15s%~~ll~~~~~~~l~ll~~~~l~~~2s'{_      ",
"     _53e]~//~)@sx~~~ll~ll%35e||||)11111)||%x~l~~~~~~z3b(_      ",
"    {h{!|x//mxe!1~~ll~ll~l~2@@s---3555@@3-3-se|~~~~~~x->'@5     ",
"    @_33%~/llxe5|~l~ll~llll|222>)))1)))12{{3@@!s]l~~~~>in{!     ",
"    !!@2]~//lx2@)~l~l~ll~ll~xxx~~~ll~lll~xx%){@@2~~~~~|2'(&     ",
"    _5!>x:ll~~e!s]llll~llllllllllllllll~ll~~~%2!3%~~~~4-'b_     ",
"    &!!)x:ll~~%s@s)]~~~~~l~lll~lll~ll~ll~ll~ll|@@zl~~~x2p^_h    ",
"    _!!%x~:~~~~%2@5@-11)xl~l~lll~ll~ll~lllll~~|33|~l~lxenz3<8^  ",
"    h_!4j~l~~~~~%3@22@@sxlll~x~ll~ll~ll~llll~~1!@|~l~~~e'8sh00  ",
"    &&!%x~l~~l~l%@ex]1@3xl~~|s|~llll~ll~l~ll~xs@-s%~~~~>w8{&88  ",
"    h&5]x~~~~~~l)@1~~)@3xllxe@1l~l~x]~~lll~l~1@@s@!|~~~ww8sh0d  ",
"    h&5%x~~~l~~~1@e~~)@3xllxs5)~ll]e3)~l~ll~|3@1]2@s~~~1w8{&^^  ",
"    <&54x~~~~~~x2@1x~)@3xllx3@1l~x$@@)ll~l~|3@2]~|5@~~~>z8{h0d  ",
"    hh!%x~~~~~]2@3)~~)@3x~lxs@2%]1@3ex~ll~|3@3)x]{@3~~x>883h^   ",
"    h&!|xx~~~]$@s|~l~)@3xll|@@3@@@@exll~l~|2233ss@3|~~xi8d!h    ",
"    {h&)]~~~~e!@|~l~|2@3xll1@s|e@@s%~~llll~x]|e@@!ex~~42#d&     ",
"     <_e]x~~~e@!ex~1s@3e~l~s@e~%@@)lll~l~lllll~)3s%~~~z(6^h     ",
"     _hs]xx~~%s@5@s@3e%l~l]3@|~%@@|~l~l~~x|%~~~x3s%~~~(zq>_     ",
"     @h!%]x~~l]1{@@@s%xxxx)@3%l]3@e]x]%|1s32xl~]33%~~j206@-     ",
"      h&)]xx~~~~]|s@@se$22s@2%~~1@@s$233@@@2x~~)@s]~xz>c8&      ",
"      &hs]xx~~~~~~%$33sss333)~~l~%1s3e1|]|@s]~x25)~~x>'6>&      ",
"      ih_z]]x~~~~~~~~~j~j~~~~ll~l~~~~~lll]{@)]1@s]~xk2##5i      ",
"       <he]]]~~~~l~~~llll~~~~llll~l~~llll~|332@@|~~x>'cbh       ",
"       ih!z]]]~~~~~~~~~llllll~l~ll~lll~llll|s!s|x~x^2#d!{       ",
"        hh24]]x~~~l~~ll~llllllll~llllll~l~l~lll~~x4sk6yh        ",
"        ih_)]]]x~~~~~~~l~l~l~l~lll~l~l~lll~~~~~~x4i)fd_2        ",
"         !&5z]]4x~l~~~~ll~ll~ll~lll~lll~l~~~~l~xxeeff3!         ",
"          <&s4]]4x~~~~~ll~llllll/lll~l~ll~l~~~xj>2r6ih          ",
"          _h&2v]4z]~~~~~ll~lt///t///lll~l~~~~x]ee=cy&5          ",
"           <&_e=]%)%x~~~~llll://:/:ll~ll~~~x]z{2p=>_h           ",
"           !h&_i=]4))xx~l~lll/l/l//~ll~l~~x]1-ekki&h5           ",
"           (<&h_{8j4'e|]~~ll~l~ll~ll~l~x]%)ss2)^{&&h            ",
"            &<&&_@p0rvesukxj::ll~l~::jx|e-322wp@&&h!            ",
"            {<<&&__2800ke-211pk)|%k)1e-5!-s1pi_&&h<             ",
"             <<<&&_&!i80rk1$----5----s!5-w^(@_&_<h_             ",
"             <<<&<&&&&_}p00=v')-ss2e>)p8n}!&&&&&<<s             ",
"             }<<<&<&&&&&&_3ibp8i(=8^by@_&&<&<<<<<<              ",
"              <<<<<<<<<<&&&_&&&_&&__&&<<<<<<<&<<<-              ",
"              .<<<<<<<<<<&<<&&<&&<&<&<<<<&<<<<<<<               ",
"              <.<<<<.<<<<<<<<<<<<<<<<<<<<<<<<<<.!               ",
"              &<<.<<<<.<<<<&<&<&<&<<<<<<<<<<.<<<                ",
"              _.....................<..........{                "};
