/* XPM */
static char * time_icon_xpm[] = {
"64 64 64 1",
" 	c None",
".	c #384141",
"+	c #968EA6",
"@	c #AEBAAE",
"#	c #CFCBDF",
"$	c #EFEBEF",
"%	c #CFCBCF",
"&	c #A69296",
"*	c #BEBABE",
"=	c #AEAACF",
"-	c #96A2AE",
";	c #868A9E",
">	c #717996",
",	c #AEAAAE",
"'	c #383438",
")	c #969A96",
"!	c #CFDBDF",
"~	c #494159",
"{	c #202828",
"]	c #202020",
"^	c #000000",
"/	c #101420",
"(	c #384149",
"_	c #597179",
":	c #7982A6",
"<	c #AEAABE",
"[	c #DFDBDF",
"}	c #E7E3E7",
"|	c #515971",
"1	c #080C08",
"2	c #71718E",
"3	c #CFBABE",
"4	c #DFDBCF",
"5	c #DFCBDF",
"6	c #303830",
"7	c #515561",
"8	c #71868E",
"9	c #CFDBCF",
"0	c #616171",
"a	c #DFCBCF",
"b	c #DFBACF",
"c	c #CFCBBE",
"d	c #415551",
"e	c #615986",
"f	c #71618E",
"g	c #616196",
"h	c #E7E3DF",
"i	c #BECBBE",
"j	c #CFBACF",
"k	c #101810",
"l	c #BEBAAE",
"m	c #CFAABE",
"n	c #BEAABE",
"o	c #BEAAAE",
"p	c #AEAA9E",
"q	c #BEA2AE",
"r	c #BEA29E",
"s	c #AEA29E",
"t	c #AEA2AE",
"u	c #9EA29E",
"v	c #9EA296",
"w	c #AEA2BE",
"x	c #AEA296",
"y	c #BECBCF",
"                                                                ",
"                                                                ",
"                                                                ",
"                                                                ",
"                                                                ",
"                                                                ",
"                                                                ",
"                                                                ",
"                                                                ",
"                                                                ",
"                         .+@#$$$$$%@+.                          ",
"                       &*$#=-+;;>;>+--,;'                       ",
"                     )$!=>~{]^^^^^/{(_:;<;]                     ",
"                   +[}<|1^{2,3[[4543,2678>;+                    ",
"                  <$=_/^7[[[[[[!^!59#9%90|>8:]                  ",
"                 %[:{^(a[[[[[[45^59a%a%bc[de2f6                 ",
"                [!g16@}h[[[[[![9^9#9%%%%%ij9082.                ",
"               %!>1~[h[[[[[[4545^a%acac%c3c3})2f6               ",
"              <[g16[}h[[[[[!5!59#9%%%%%ijijij$+2gk              ",
"             +$:1~[^[[[[[545459a%a%bcjcjc3i3*^$+_|^             ",
"             [={6[}h^[[[[![959#9%%%%%ijiji*i^**$-_~             ",
"            )}e^,h[[[^[[45459a%a%ac%c3c3*3*^lmln}:0k            ",
"           .$=/d}h[[[[[!5!59#9%%%%%ijijiji3****ln9e(^           ",
"           &#|^a[[[[[545459a%%%bcjcjc3*3*3lmlnlooo+e/           ",
"           i=17h[[[[[![959#9%%%%%ijiji*i***l*@n@o@}_(^          ",
"          )$8^[[[[[[45459a%acacjc3c3*3*3lmlnlolooop<7^          ",
"          =!~6[[[[[!5959#9%%%%%ijijiji3****lnlo@o,o[e/          ",
"          $={2[[[545959a%%%bcjcjc3*3*3lmlnlooo,opopq8(^         ",
"          $-]@[[[![959#9%%%%%ijiji*i***l*@n@o@o@op,p,d^         ",
"          $+^3[[45459a%acacjc3c3*3*3lmlnlolopopoprps%7^         ",
"          $;^[[!5959#9%%%%%ijiji*i*****lnlo@o,op,p,p#|^         ",
"          $;^545959a%%%bcjcj33*3*3lmlnlooo,opopqptpss0^         ",
"          $;^!^^^^#9%%%%%iji3i*i*****lnlo@o@op,p^^^^,|^         ",
"          $;^5459a%acacjc3c3*3*3lmlnlolopopoprpspsss,|^         ",
"          $>/959#9%%%%%ijijiji*****lnlo@o,op,p,ptpsu<|^         ",
"          )+]*9a%%%jcjcj33*3*3lmlnlooo,opopqpspsssvs,7^         ",
"          <-(@#9%%%%%iji3i*i***l*@n@o@o@,p,p,pspsusv#d^         ",
"          8w_2%acbcjc3c3*3*3lmlnlooopopoprpspsssxsxsi'^         ",
"          .,:.%%%%%ijiji*i***l*ln@o@o,op,ptptpsususv-/^         ",
"           ;:~9jcjc333*3*3lmlnlooo,opopqpspsssvsvsvt_^^         ",
"           .<>0%%iji3i*i***l*@n@o@o,,p,p,pspsusvsvu!'^          ",
"            )>7[c3c3*3*3lmlnlooopopoprpspsssxsxsv&,,k^          ",
"            ];>djiji*i***l*ln@o@o,op,ptptpsususv+v[.^^          ",
"             +8e%3*3*^lmlnlooo,opopqpspsssv^vsv&vt-1^           ",
"              :80}*i^**l*@n@o@,,,p,p,ps-susv^vuv&9'^^           ",
"              ]f2)$^lmlnlooopopoprpspsssxsvsv^v&h0^^            ",
"               6g2+$*l*ln@o@o,optptptpsusvsv+v&h+1^             ",
"                .g_+$nlooo,opopr^spsssvsvsv&v&hfk^^             ",
"                 {e_-}n@o@,,,p,p^ps-susvsvuv&h+k^^              ",
"                  k|_>%5popoprps^sssxsvsv&v,%01^^               ",
"                   ^~_e;}9optptp^psusvsv+-[-'^^^                ",
"                     k(e0<[5pspsssvsvs-5[t61^^                  ",
"                      ^/(de8,y#9#9#9#y-_'k^^^                   ",
"                        ^^/(d7007|77.'k^^^^                     ",
"                           ^^^^^^^^^^^^^                        ",
"                                                                ",
"                                                                ",
"                                                                ",
"                                                                ",
"                                                                ",
"                                                                ",
"                                                                ",
"                                                                ",
"                                                                "};
