/* XPM */
static char * wmaker_tile_xpm[] = {
"64 64 116 2",
"  	c None",
". 	c #F6F6FF",
"+ 	c #F6F2FF",
"@ 	c #EEEEFF",
"# 	c #EEEAFF",
"$ 	c #E6EAF6",
"% 	c #EEE6FF",
"& 	c #E6E6F6",
"* 	c #E6E2F6",
"= 	c #DEE2EE",
"- 	c #DEDEEE",
"; 	c #DEDAEE",
"> 	c #D5DAE6",
", 	c #D5D6E6",
"' 	c #D5D2E6",
") 	c #CDD2DE",
"! 	c #CDCEDE",
"~ 	c #A4A5B4",
"{ 	c #000000",
"] 	c #FFFFFF",
"^ 	c #F6EEFF",
"/ 	c #E6DEF6",
"( 	c #DED6EE",
"_ 	c #D5CEE6",
": 	c #A4A1B4",
"< 	c #9C9DB4",
"[ 	c #A49DB4",
"} 	c #9C9DAC",
"| 	c #9C99AC",
"1 	c #9499A4",
"2 	c #9C95AC",
"3 	c #9495A4",
"4 	c #9491A4",
"5 	c #8B919C",
"6 	c #948DA4",
"7 	c #8B8D9C",
"8 	c #8B899C",
"9 	c #838994",
"0 	c #8B859C",
"a 	c #838594",
"b 	c #838194",
"c 	c #7B818B",
"d 	c #7B7D8B",
"e 	c #525562",
"f 	c #A49DAC",
"g 	c #A499AC",
"h 	c #9C91AC",
"i 	c #837D94",
"j 	c #525062",
"k 	c #9495AC",
"l 	c #9C99A4",
"m 	c #9C95A4",
"n 	c #9C91A4",
"o 	c #7B798B",
"p 	c #A499B4",
"q 	c #8B91A4",
"r 	c #94919C",
"s 	c #4A505A",
"t 	c #9491AC",
"u 	c #8B8DA4",
"v 	c #737983",
"w 	c #948D9C",
"x 	c #524C62",
"y 	c #7B758B",
"z 	c #4A4C5A",
"A 	c #737583",
"B 	c #4A485A",
"C 	c #83899C",
"D 	c #8B8594",
"E 	c #83859C",
"F 	c #737183",
"G 	c #414852",
"H 	c #6A717B",
"I 	c #4A445A",
"J 	c #83818B",
"K 	c #736D83",
"L 	c #7B8194",
"M 	c #414452",
"N 	c #837D8B",
"O 	c #6A6D7B",
"P 	c #73798B",
"Q 	c #7B7983",
"R 	c #7B7583",
"S 	c #414052",
"T 	c #7B7D94",
"U 	c #6A697B",
"V 	c #39404A",
"W 	c #626973",
"X 	c #73758B",
"Y 	c #73717B",
"Z 	c #393C4A",
"` 	c #6A7183",
" .	c #626573",
"..	c #6A6D83",
"+.	c #736D7B",
"@.	c #6A657B",
"#.	c #62697B",
"$.	c #6A6973",
"%.	c #62657B",
"&.	c #39384A",
"*.	c #6A6573",
"=.	c #626173",
"-.	c #313841",
";.	c #5A616A",
">.	c #62616A",
",.	c #5A6173",
"'.	c #313441",
").	c #5A5D6A",
"!.	c #313041",
"~.	c #5A596A",
"{.	c #293441",
"].	c #525D62",
"^.	c #293039",
"/.	c #525962",
"(.	c #292C39",
"_.	c #000410",
". . + . + + + + @ + @ @ @ @ @ # # # # # $ % $ & & & & * & * * * = * - - - - - - ; - ; ; > ; , > , , , , , ' ' ' ) ' ) ! ) ! ~ { ",
"] ] . + + + + @ + ^ @ ^ @ ^ # @ # # # $ % # & % & % * & * * * = * / = / - / - ; - ; ; > ; ( > ( , ( , , ' , ' ) ' ' ! ' ! _ ~ { ",
"+ . : : : : < : [ < [ } < | } | | | 1 2 | 3 2 3 3 4 3 4 4 4 5 4 6 5 6 7 7 7 8 7 8 8 9 8 0 9 0 a a a a b a b c b b d b d d d e { ",
". + : : : [ : f } } } } g } | | | | 2 | 3 3 3 3 h 3 4 4 4 4 4 6 5 7 7 7 6 8 7 8 8 8 8 0 9 a a a 0 a b a b b b b d c d d i d j { ",
"+ + : : [ : } < [ } [ | } | | | | k l 3 k m k n 3 4 4 4 4 5 6 5 7 6 7 6 8 7 8 8 8 9 0 9 a 0 a 0 a b a b b c b d c i d i d o e { ",
"+ + : [ : } [ f } } | } | | | | k l k 2 3 3 4 3 4 4 4 4 5 6 5 6 7 7 7 8 7 8 8 8 9 0 9 0 a a a a b a b b c b d b d d d d o d j { ",
"+ + < : } [ } < } p } | | | | k l k m 3 3 h 3 4 4 4 q r 6 5 6 7 7 6 8 7 8 8 9 8 0 9 0 a a 0 a b a b c b b d b d d i d o d o s { ",
"+ @ : f < f < f | } | | | | k l k m k 3 t 3 4 4 4 4 r u 5 6 7 7 7 8 7 8 8 8 8 a 9 0 a a a a b a b b b c d b d d d d o d o o j { ",
"@ + [ } [ } } | } | | | | 3 | 3 2 3 3 4 3 4 4 4 4 5 6 5 6 7 7 7 8 7 8 8 8 9 0 9 0 a a a a b a b b c b d b d d d d o d o o v j { ",
"+ ^ < } } } p } | | | | 3 | 3 2 3 3 t 3 4 4 4 r q 6 5 6 7 7 7 8 7 8 8 8 9 0 9 0 a a a a b a b b c b d b d d d d o d o o v o s { ",
"@ @ [ } [ | } | | | | 3 | 3 2 3 3 4 3 4 4 4 4 q w 5 6 7 7 7 8 7 8 8 8 9 0 9 0 a a a a b a b b c b d b d d d d o d o o v o v x { ",
"@ ^ } } | } | | | | 3 | 3 2 3 3 4 3 4 4 4 4 r 6 5 6 7 7 7 8 7 8 8 8 8 0 9 0 a a a a b a b b b b d b d d d d o d o o o o v y s { ",
"@ @ < g } | | | | 3 | 3 2 3 3 4 3 4 4 4 4 r u 5 6 7 7 7 8 7 8 8 8 8 a 9 0 a a a a b a b b b c d b d d d d o d o o o v v y v z { ",
"@ ^ | } | | | | 3 | 3 2 3 3 4 3 4 4 4 4 r u r 6 7 7 7 8 7 8 8 8 8 a 8 0 a a a a b a b b b c i b d d d d o d o o o v o y v A z { ",
"@ # } | | | | k | 3 2 3 3 4 3 4 4 4 4 4 u r u 7 7 7 8 7 8 8 8 8 a 8 a a a a a b a b b b c i c d d d d o d o o o v o A v A A z { ",
"# @ | | | | k l 3 2 3 3 4 3 4 4 4 4 4 7 r u w 7 w 8 7 8 8 8 8 a 8 a 0 a 0 a b a b b b c i c i d i d o d o o o v o A o A y A z { ",
"# # | | | k l k 2 3 3 4 3 4 4 4 4 4 7 4 u w 7 7 8 7 8 8 8 8 a 8 a 0 a a a b a b b b c i c i d d d o d o o o v o A o A A A A B { ",
"# # | | k l k m 3 3 4 3 4 4 4 4 4 7 4 7 w 7 7 8 7 8 8 8 C D C D E a a a b a b b c b d b d d d d o d o o v o v y v A A A A F z { ",
"# # 1 2 l k m k 3 t 3 4 4 4 4 4 7 4 7 6 7 u 8 7 8 8 8 C D C D E a D a b a b b c b d b d d i d o d o o v o v y v A y A A F A B { ",
"# $ 2 | 3 2 3 3 4 3 4 4 4 4 4 7 4 7 6 7 7 8 7 8 8 8 C D C D E a a a b a b b c b d b d d d d o d o o v o v y v A A A A F A F G { ",
"$ % | 3 k 3 3 t 3 4 4 4 4 r u r u w 7 7 8 7 8 8 8 9 0 9 0 a a a a b a b b c b d b d d d d o d o o v o v y v A A A A F A F H B { ",
"% # 3 3 m 3 h 3 4 4 4 4 r u r u w 7 u 8 7 8 8 8 9 0 9 0 a a E a b a b b c b d b d d d d o d o o v o v y v A A A A F A F H F G { ",
"$ & 2 3 k 4 3 4 4 4 4 r u r u w 7 7 8 7 8 8 8 9 0 9 0 a a a a b a b b c b d b d d d d o d o o v o v y v A A A A F A F H F H I { ",
"& % 3 3 n 3 4 4 4 r q 6 5 6 7 7 7 8 7 8 8 8 9 0 9 0 a a a a b a b b J b d b d d d d o d o o o o v y v A A A A F A F F F H K G { ",
"& & 3 h 3 4 4 4 4 q w 5 6 7 7 w 8 7 8 8 8 9 0 9 0 a a a a b a b b J L d b d d d d o d o o o v v y v A A A A F A F F H H K H M { ",
"& % 4 3 4 4 4 4 5 6 5 6 7 7 7 8 7 8 8 8 9 0 9 0 a a a a b a b b J L N b d d d d o d o o o v o y v A A A A F A F F H F K H O M { ",
"& * 3 4 4 4 q r 6 5 6 7 7 7 8 7 8 8 8 C 0 9 0 a a a a b a b b b L N L d d d d o d o o o v o A v A A A A F A F F H F O H O O M { ",
"* & 4 4 4 4 r u 5 6 7 7 7 8 7 8 8 8 C D 9 0 a a a a b a b b b c N L N d N d o d o o o v o A o A y A A F A F F H F O F O K O M { ",
"& * 4 4 4 5 6 5 6 7 7 7 8 7 8 8 8 C D C 0 a a a a b a b b b c i L N d d d o d o o o v o A o A A A A F A F F H F O F O O O O M { ",
"* * 4 4 5 6 5 6 7 7 7 8 7 8 8 8 8 D C D a a a a b a b b b c i c N d d d o d o o P Q P R P A A A A F A F H F H K H O O O O O S { ",
"* * 5 4 6 5 6 7 7 7 8 7 8 8 8 8 a C D E a E a b a b b b c i c i d T d o d o o P Q P R P A R A A F A F H F H K H O K O O O U M { ",
"* = 4 6 5 6 7 7 7 8 7 8 8 8 8 a 8 D E a a a b a b b b c i c i d d d o d o o P Q P R P A A A A F A F H F H K H O O O O O U O V { ",
"= * 6 5 7 7 7 7 8 7 8 8 8 8 a 8 a E a a a b a b b J L N L N d d d o d o o v o v y v A A A A F A F H F H K H O O O O O U O W S { ",
"* / 5 7 6 7 6 8 7 8 8 8 8 a 8 a 0 a D a b a b b J L N L N d T d o d o o v o v y v A X A A F A F H F H K H O O O O O U O W U V { ",
"- = 6 7 7 7 8 7 8 8 8 8 a 8 a 0 a a a b a b b J L N L N d d d o d o o v o v y v A A A A F A F H F H K H O O O O O U O W U W S { ",
"- / 7 7 6 8 7 8 8 8 9 0 9 0 a a a a b a b b c b d b d d d d o d o o v o v y v A A A A F A F Y F H K H O O O O O U O U U W U Z { ",
"- - 7 6 8 7 8 8 8 9 0 9 0 a a 0 a b a b b c b d b d d N d o d o o v o v y v A A A A F A F Y ` H K H O O O O O U O U W W U  .V { ",
"- / 7 8 7 8 8 8 9 0 9 0 a a a a b a b b c b d b d d d d o d o o v o v y v A A A A F A F Y ` Y K H O O O O O U O U W U U  .W Z { ",
"- - 8 7 8 8 9 8 0 9 0 a a a a b a b b c b d b d d d d o d o o P o v y v A A A A F A F F ` Y ..H O O O O O U O U W U W  .W  .Z { ",
"- ; 7 8 8 8 8 a 9 0 a a a a b a b b c b d b d d d d o d o o P Q v y v A A A A F A F F H Y ..Y O +.O O O U O U W U W @.W @. .Z { ",
"; - 8 8 8 9 0 9 0 a a a a b a b b c b d b d d d d o d o o P Q P y v A A A A F A F F H F ..Y O O O O O U O U W U W @.W  . . .Z { ",
"- ; 8 8 9 0 9 0 a a a a b a b b b b d b d d d d o d o o o Q P R v A A A A F A F F H F O Y O O O O O U O #.$.#.$.%.W  . . . .&.{ ",
"; ; 9 8 0 9 0 a a a a b a b b b c d b d d d d o d o o o v P R P A X A A F A F F H F O F O ..O O O U O #.$.#.$.%.W *. . . .=.Z { ",
"; > 8 0 9 0 a a a a b a b b b c i b d d d d o d o o o v o R P A A A A F A F F H F O F O O O O O U O #.$.#.$.%.W  . . . .=. .-.{ ",
"> ; 0 9 a a a a a b a b b b c i c d d d d o d o o o v o A P A A A A F A F Y ` Y ..Y O O O O O U O W U W U  .W  . . . .=. .;.&.{ ",
"; ( 9 a 0 a 0 a b a b b b c i c i d i d o d o o o v o A o A R A A F A F Y ` Y ..Y O ..O O O U O W U W U  .W %. . . .=. .;.=.-.{ ",
", > 0 a a a a b a b b b c i c i d d d o d o o o v o A o A A A A F A F Y ` Y ..Y O O O O O U O W U W U  .W  . . . .=. .;.=.;.&.{ ",
"> ( a a 0 a b a b b c b d b d d d d o d o o v o v y v A A A A F A F H F H K H O O O O O U O W U W U  .W  . . . .=. .>.=.;.=.-.{ ",
", , a 0 a b a b b c b d b d d i d o d o o v o v y v A y A A F A F H F H K H O +.O O O U O W U W U  .W  . . . .=. .>.,.;.=.;.'.{ ",
", ( a a b a b b c b d b d d d d o d o o v o v y v A A A A F A F H F H K H O O O O O U O W U W U  .W  . . . .=. .>.,.>.=.;.).-.{ ",
", , a b a b c b b d b d d d d o d o o v o v y v A A A A F A F H F H K H O O O O O U O #.U W U  .W  . . . .=. .=.,.>.,.;.).;.'.{ ",
", , b a b b b c d b d d d d o d o o v o v y v A A A A F A F H F H K H O O O O O U O #.$.W U  .W  . . . .=. .=.;.>.,.>.).>.).'.{ ",
", ' a b b c b d b d d d d o d o o v o v y v A A A A F A F H F H K H O O O O O U O #.$.#.U  .W  . . . .=. .=.;.=.,.>.).;.).).'.{ ",
"' , b b c b d b d d d d o d o o o o v y v A A A A F A F F F H K H O O O O O U O U $.#.$. .W  . . . .=. .=.;.=.;.>.).;.).).).'.{ ",
"' ' c b b d b d d d d o d o o o v v y v A A A A F A F F H H K H O O O O O U O U W #.$.%.W %. . . .=. .=.;.=.;.=.).,.).).).).!.{ ",
"' ) b b d b d d d d o d o o o v o y v A A A A F A F F H F K H O O O O O U O U W U $.%.W  . . . .=. .=.;.=.;.=.).;.).).).).~.{.{ ",
") ' b d c d d d d o d o o o v o A v A A A A F A F F H F O H O O O O O U O U W U W %.W  . . . .=. .>.,.>.,.>.).;.).).).).~.].!.{ ",
"' ' d c i d i d o d o o o v o A o A y A A F A F F H F O F O K O O O U O U W U W @.W *. . . .=. .>.,.>.,.>.).,.).).).).~.].~.^.{ ",
") ! b d d d d o d o o o v o A o A A A A F A F F H F O F O O O O O U O U W U W @.W  . . . .=. .>.,.>.,.>.).;.).).).).~.].~./.!.{ ",
"! ' d d i d o d o o v o v y v A A A A F A F H F H K H O O O O O U O W U W U  .W  . . . .=. .;.=.;.=.;.).;.).).).).~.].~./.~.^.{ ",
") ! d i d o d o o v o v y v A y A A F A F H F H K H O K O O O U O W U W U  .W @. . . .=. .;.=.;.=.;.).>.).).).).~.].~./.~./.(.{ ",
"! _ d d o d o o v o v y v A A A A F A F H F H K H O O O O O U O W U W U  .W  . . . .=. .;.=.;.=.;.).;.).).).).~.].~./.~./.e ^.{ ",
"! ~ e j e j s j j s x s z z z z B z B G B G I G M M M M M S M V S V S Z V Z Z Z Z &.Z -.&.-.&.-.'.-.'.'.'.'.!.{.!.^.!.^.(.^._.{ ",
"{ { { { { { { { { { { { { { { { { { { { { { { { { { { { { { { { { { { { { { { { { { { { { { { { { { { { { { { { { { { { { { { { "};
