/* XPM */
static char * wood_tile_xpm[] = {
"64 64 65 1",
" 	c None",
".	c #170D04",
"+	c #9D8654",
"@	c #D6C492",
"#	c #BCA771",
"$	c #AE9762",
"%	c #614C27",
"&	c #886C48",
"*	c #BA995C",
"=	c #AF8A53",
"-	c #CCB885",
";	c #907B4E",
">	c #3E2C14",
",	c #CAA973",
"'	c #BC9F66",
")	c #B19059",
"!	c #C4AF77",
"~	c #B59F67",
"{	c #4D3A1B",
"]	c #A88F5A",
"^	c #A27D4C",
"/	c #B6915B",
"(	c #C2A169",
"_	c #F6E2BC",
":	c #977146",
"<	c #755A37",
"[	c #B5985F",
"}	c #5B4021",
"|	c #281B04",
"1	c #C4A771",
"2	c #A78852",
"3	c #FAF3D4",
"4	c #D3B884",
"5	c #8A7448",
"6	c #EEDEB4",
"7	c #8C653C",
"8	c #281504",
"9	c #68532D",
"0	c #473314",
"a	c #201404",
"b	c #CBB07A",
"c	c #F9EDCB",
"d	c #341F0A",
"e	c #7A663C",
"f	c #9A824C",
"g	c #56421E",
"h	c #A1824C",
"i	c #CEBE8C",
"j	c #9A7647",
"k	c #50361C",
"l	c #5F4624",
"m	c #D2BE8C",
"n	c #FAFADC",
"o	c #C2AE8C",
"p	c #8F6C42",
"q	c #987C4F",
"r	c #543D1D",
"s	c #90744D",
"t	c #B59A6D",
"u	c #664D2B",
"v	c #725634",
"w	c #1F0E04",
"x	c #BA9964",
"y	c #A6824D",
"z	c #A28853",
"!#!!tb#@!1111'1b###!!!#~-!b!!##~!!-i--#~##!!!!!!'1b4b('!1[~#-t]#",
"iccccn33333333333333333c33333333c333333333333333cc333333333c33~$",
"-c!+ft11])$~[/))$~$$$$]]$$$]]$~$~$]]]$$~]$~$~$]]]=)t[])~#]z]##dv",
"!c$z$f2~t~''tt$$~[~####~##'~~~~#t$$$]$]]~~$~t~$ttt'[*[~[1$]~]].$",
"~3~#-))t$$//)//)$$)[[~[~[[~$)$[$[)]))$]=]$$$$~t[x/[)[[$$j'!$q'.s",
"i3!+t$~t1(xtxx('(''~(''[[~)*~~*~1~/)t((1'x'((11,x'**'1#($~'((o8]",
"!c!$#(t~#(t//tx/x**[*[[)=/[**[/)/=hy=///txx'x((1////','$,$2tt].p",
"@6t~(zqxxt/==xx=)=2))*///[xx*/)=x[x((#t=/))///'t/x))['[zht#$])d<",
"b3$[)]))))/x/)/)x/=y^==)xx//=//=x(xx==x(,,x/x((///=*****')t)t'8p",
"#3]~''1,*''xx***(x/=///xxx/////xx((x///x=xx/=xx/x/x*(****)[]~'8s",
"b3'#'[*)**x*////xxx//xx(x//////x//////*x=(,x/x,,(xxx(****)t)t'8p",
"#3[''[''////==//xx/xx////x//===/^^y=/xx*^/xx//x((/x**[[*[/t)tt8s",
"'3$''[/[*'*////*xxxxxx//)///===))==/*(**=/*/[**xx///x/['*/x/tx8s",
"!3*'*)=2****//*xxxxx[)=2)[~t[/x'''*[[)=y*****'xxx//*//**[)'/tt8:",
"*c2[*[*'=)////////////)=/t((~x'1('*))]22[))))))/x/=//=//*)'/x/8:",
"1c$[]z^^==//////xx'~~ttt~(1#'t'''~~~[[[[~~~[[$'((====2=2//t//t8j",
"ic'1'#)=/*')/*,'(t',,('(,(t[[*((**/'(('**'*)/*xx(x=y=/*/[)(##/a+",
"4c~#~~[)#1''((*)('*##'[([[//'(#11''(11'[***[[x('11(''b1*('ott~|+",
"mc$~)~$*!(*1b,*)'****~'1'*[**[))'**'('*$x(x[*xxx])/[*'*=(#,]]#|s",
"ic~$$[~~b~['1('(**/))**((('))=2hx'**'('/(11('('t/t~(,('*''#t~~ae",
"-c~~~~~'1[['#''b)[[[)~*~*)]2))//*''(((1(x((''((~''#(,('',''~#~a5",
"-c~#$[[~**'11'**))[/***)[)=))**'*[xx'((()[xxx('t~$)[[[/*!t~$$]a;",
"!c$~$$][[~''('[2)[*[*'(*****~''*)))/))[[=/x'x'x)t[)[***(')tzzza;",
"-c$~z])$~*]2)([2)*~)[~(*~~~(11(())/)///[/''xxx/2)]][/)*(=[o]z~a5",
"-3$~$~]$[[[''=^^,*['b1*=)/'(1')2////$[xxxxx''tx't[[)))*(,]2]#o8&",
"-c~[~~][~)[''**('))[('[)'*[)))'(xtt[//xt'x'xxxx~)$[~****1/t$~~|5",
"-3~##']$1#~*'~',(*)*'*)[*)[)'[*''xxxxtxx'((x/((t[$)~(('*'[#'#t|;",
"-3~##~$'!(*$)/'(1('(****[**(''*[*xx'xx((x,()/(1','[)~(*[)](#~~|z",
"#3##'[]#~[)))*(#(~*~*$[*1#*//~'(///x'x(1t('))(,#,~[)''*))]'~#~|;",
"!3#!~~)#**$))['**/[*'*'1''(((**[xxx[x'xxx(x//(1('$)~((/=$)'~~ta5",
"!3~~$~]'~'*]=[*['))*(''')*'1,([)$////[xx''x[[t''/$)[(')2/)'~~$a5",
"-c][~[)[][)=]*(('[)$*)=)**[)$*'(===)//xx1'xxx/)x#*[))/=2))#~t$af",
"bct')))*/*[)yy=/2=2=)))))'(*/2=)2xxt//xx=)//)))/([))/***yyy=$]87",
"bc$[)[)*[**/)/*(***/))=)*/**[/*x=/xxx(,,xx''(xxtx//=/**(///t')8&",
"b_/t)[))/*////((x**////)/))=////=)=y2=))x/==//)=x//=////xxxx(/|s",
"!c$t*x)===/////////*[*xx/=)/[/)='(x//xx/'x///xx/xx//==//===/t]8s",
"bc*[[(/=////====///xx(('xx(('xxxxx//x(b,'(((xx'(xxx//=/=====)z8s",
"bc~'$(x)xxxx//=/)/[/x///x(x(xx'()//)/x(x(11'x/xxxxx*/**(/x/))z8q",
"bc~~)~t/'xx(xxxx=/xxx)=2/)y^^=)/(1(xxxxx((,1((1(/xx(*x((/xttt]8;",
"1c([2[x[/////xxx/x(,((//x=:7:j^^y=x)==//^^^=xxx/xxxx///*=/xxt]|s",
"!c~~)]2'//2/,=jx=)))==x,'^77=xx=^77^2^^/x===)=='/=^y=////y=^2za5",
"#c)$])2tt1x)x/=///)==/xx(((b44b4b,(xxx/=/==x/==x[)//((*=x=t]t$a5",
"-3~~~[]~$,'^=xx)x/=)//x/y==xx=y^x,,/x,1))=/('//x[/[x((*/=2't~$a5",
"m3~~'#)[=#x^y((//////xxx,xxx,(/=='x^='xj)/t(('[xtt)//***2)#'~$w5",
"-c]$$~]$)t[$)'1')/txx/x(x==/((xxxxx=/x(/xx((x/[/tt$$/[*')/1't$aq",
"#cz]$~$'~]$x//t/=/((xxx(//x((x/x(x/x((((xxxx/===]$(((*[[))~t$]a;",
"!c]]$'[#*2$t=)t)=)xxxx///xxxx)==,((x(/=2/xxx/)==)[##'*/*))~]]]a;",
"-c$$~~$#~)*t2t,$)//'xx)2,x/x(,'x=/xx(,(/=//xxx't)t'*)]*~[)~t~$a;",
"-3~]z$'#)]t#($/'(~)/x'/2x/x'/t't'/xt)/t))//t('x)z)'('[~~'~~]##a5",
"!c$~]~$~~[t't]])'xx~''t]1~'~/['tt)]/2)t)''~'tt$)])~~)$[']$$]t$a&",
"!c~~]~$[[[$)/xx$/[x'x[*t1tx')x('([)$)x#ttx[[))[/t//[)[~']$~]~tas",
"!c'#~~$))xx)x1,x)[x'''***)~'['(*#)[x[((*[*'((1,4(x[['''~*##~#~8+",
"-3'(['[*11(//(()**/*'('*)=*'**')*2)*)**==/*'*((,'*/*(('*)'#$'~aj",
"-c~*2)[~***/////*)=)/*/)/)*'/[/y/=/'//')))///)=)///*''*)[**)t)wp",
"bc~[2//*///**//*//=2===/*/*')//='*((//'((1('****==//*'*/[**2xxap",
"4c**)**'(**(*==/(((/==/*(***=/*/(***2=*('*=//(**///***'')[/='x8:",
"4c4*'1//**(*//**(**)=*(***///***/**/==//y/((/)*(((*(***/*1y*1)dp",
"b_(*'*/*(///=////'*//'(**/=)=)))=))**(('/'(1(*(,**//**//**)x(/87",
"4c'(,/(*xx//////=/*)///)/[/[))=)2yy)*(*)=)//*///*///**(*==*/[)8p",
"#c)t'^x=(xx///x**'''*~))2])))))*1'[[(()2[[*[[*((//////)/1$1t'(8=",
"~ct[~=,)==//////$$)$]]z+[#####1!#~$]]z^;]$$$)])x(x//***[tzt])~ws",
"bc$2]q]j=//xxxxxx$~[[$[~~t~~[$~t~~~~]$$$~t~$]$t'/=y^^yhz)=t/~$8q",
"o@vu<lrg}}r}}}l}9%%999%9<9999%9%%%%9%%uu9%%ll%%luulllulur%l%%u.s",
"-~>0ur>}l}rkkkr}{{{gg0{{r{000{{{r{rrggr0%r>0{rkk}kkkkr}}0l0k{gdo"};
