/* XPM */
static char * clock_background[] = {
"64 64 63 1",
" 	c None",
".	c #454220",
"+	c #4E492B",
"@	c #514E2E",
"#	c #5A543C",
"$	c #615C3F",
"%	c #706D55",
"&	c #7A7762",
"*	c #888570",
"=	c #9A9582",
"-	c #9D9D8C",
";	c #8D8C78",
">	c #7F7E6C",
",	c #545334",
"'	c #B6B5A5",
")	c #B9BCB0",
"!	c #C7C5B4",
"~	c #D3CEBC",
"{	c #D6D5C4",
"]	c #AFAEA0",
"^	c #A0A391",
"/	c #676550",
"(	c #B0B4A8",
"_	c #A7A695",
":	c #929484",
"<	c #BFC4BB",
"[	c #B1BBB8",
"}	c #A8AC9F",
"|	c #C9CDC2",
"1	c #C1CCCA",
"2	c #D0D4CC",
"3	c #9FABA4",
"4	c #DFDDD2",
"5	c #C9D4D2",
"6	c #B8C4C1",
"7	c #696B59",
"8	c #D0DCDD",
"9	c #DAE6EC",
"0	c #DDEAEC",
"a	c #A8B4AF",
"b	c #9FA49D",
"c	c #70746C",
"d	c #D8DCD3",
"e	c #E3E5DA",
"f	c #818376",
"g	c #8D9C96",
"h	c #969B8E",
"i	c #727E7C",
"j	c #566362",
"k	c #778784",
"l	c #606C6A",
"m	c #828A8C",
"n	c #E8ECE6",
"o	c #222224",
"p	c #050507",
"q	c #424A49",
"r	c #555B5C",
"s	c #68746C",
"t	c #4C5250",
"u	c #F3F4EC",
"v	c #FAFCF1",
"w	c #3A423C",
"x	c #3A3E3C",
"                                                                ",
"                                                                ",
"                                                                ",
"                           ..++@@@@+..                          ",
"                       +#$%&*=----=;>&%$++                      ",
"                    ,@$&;-')!~~{{~~~!!]^;&$$                    ",
"                  @,/*^)~{{~!)('']'''!~{~)_*%#                  ",
"                 @%:]!{~<[}<|<1)<2|<!!'3'!{!];%#                ",
"               #/*]~4~'(<5561115511166621[])~!_*7               ",
"              $%-){~)[|115589991690998816<|)}!!)-&/             ",
"             /&_!{<a6558999099988999909995<<<('!!_>%            ",
"            />]{{))2[5999999999999999999999|656()~]*%           ",
"           7*){|}1559b099999999999999999991691<~''!'*c          ",
"          %;'~!(|5890509999999999999d9999998095<|'(!}*>         ",
"         %*]~!]55809999999d9999d99999999999999986|)]<}>>        ",
"        c>]!~}|5d999999e9999d999999999999999999986|]'<^>        ",
"        &-)|(15899999989999999866199de9999e99999956~]')=>       ",
"       c;)!')59999999e999999909aa190999999999999991<1])'f:      ",
"      f>_!)(259999999999991a6683[3aag5d9999de9999996<)])hf      ",
"      &:')})19999d99999d90[ijk3ljkjbik899d9999999908[13'(mh     ",
"     **_)''681e9999999999089080n0080n899999d999999686<<^)-*     ",
"     f;')_159a9999ed999999880850808895999999949999889[|_a_;_    ",
"     f-(](189999999999999999999999909999999999999999966)_}=:    ",
"    ;;^'3<59999d99999999999999999999999999999994999905[<b}h;    ",
"    ;=_'^||999999999d999989999999999999e9999d999999999a|}_^:}   ",
"    ;-]_3|8999999d99999d0999d999999999999d9999999d9999[))^_:-   ",
"    :^_^)<9e99d9999999999d9999999d99d999999999d99999991()^_==   ",
"   -=^_-1199999999999999999999d9999e99d999999999999d9983)^^-=   ",
"   --_^h|1999999999d9999999d999999999999949e9999e999998-<_^b=   ",
"   ^-^-h1299999d9999999999999996(5999e99999d999d9999999h<_^-=   ",
"   -^_^h1999e9999999999d999999gopq2999999990d99999999993(^^_-   ",
"   -^__-[96999999d99d9999999e0rppp[999e999999999999d011h(^__-   ",
"   _}'}^(9[999d99e9999999d9990cppo1999999999999d9999955b]^__-   ",
"   }'']-!8999999999e99999999905sth999899d9999d999999992b]^}}-   ",
"   }')'^<899999999999e99999999900099999999d9999d9999998h(^]]-   ",
"   ])!)_!199e99d9999999d99d9999999999e99999999999999985:}_''^   ",
"   ''!!]!699999999d99999999999999d9999999999e999d999086h}^)]^   ",
"    '|{!)[9999999999d99999e99999999d9999e999999999d909ah}^!]}   ",
"    )!4|_68999d999999999999d9e999999d9998999999e9999983^_'!})   ",
"    )!44}1199999d999999d999999999999994099d99999999985g]:!!}!   ",
"    ]!4e[)6d9999e99999999998998988999999999d99d99999eah}^{)]    ",
"     )de2a)59998999d99999e9989166aa999999999999999895^^^!d''    ",
"     a~n43<68199999e9999989886[898998529999999d999[1[^]:e2]<    ",
"     (6en|})5a999999999991ag3[586[63[1[9999999999915g3^(e)(     ",
"      ({n4(aad999999d99999999990099999999d999999998[^3-n2()     ",
"      a<en{})<2999d999999999998aa5999999999d9999d813}h|e)(      ",
"       (2ee)(}5d9999999d999999rjlt699999e99999988533^(n{]6      ",
"        '4ne}6a58099999999999ig[g3j99999999999e85}_(^ne](       ",
"        (!nue_)a1d9e999899999l53gaq9999999999981a3a:4n)}        ",
"         }~uvd})a1289e0999899ms3gsl999999999d51}^}hdn!_<        ",
"          ]2uvd})a6|2199990998rwqx59d9999956563^}hdu|_(         ",
"           }2nve}(a(<-889999099ab9909999d56aah}}=du~3(          ",
"            _2uvn'](g(<|2588899999d9822|1<(:h}h3un|b]           ",
"             b!nvu2_a(b}[1155556[2|5116)a^h^}-!ne)h}            ",
"              b)euve)b(3^^3(())(3[['(}^ghb_-]eud(h]             ",
"               =}|nuve'h_]}h:::;:h:::h}3^h(eve!-h               ",
"                 ;_|euvv|(::3}}bb^3}h:=(2vue|^;m                ",
"                  f;-)2nuuun{)}}_}_)duuun2)b;;                  ",
"                    :;h])~4ennuuuuuned2)}h:;                    ",
"                       ^h-^}(())))((}-h=::                      ",
"                           ^h-hhh:-h-^                          ",
"                                                                ",
"                                                                ",
"                                                                "};
