/* XPM */
/* This file is a part of the NsCDE - Not so Common Desktop Environment */
static char *_8x48_media_playlist_repeat[] = {
/* columns rows colors chars-per-pixel */
"48 48 4 1 ",
"@ s foreground m white c NSCDE_FG_COLOR_5",
". s bottomShadowColor m black c NSCDE_BS_COLOR_5",
"X s background m black c NSCDE_BG_COLOR_5",
"o s topShadowColor m white c NSCDE_TS_COLOR_5",
/* pixels */
"oooooooooooooooooooooooooooooooooooooooooooooooo",
"ooooooooooooooooooooooooooooooooooooooooooooooo.",
"ooXXXXXXXXXXXXXXXXXXXXXXXXXXXXXXXXXXXXXXXXXXXX..",
"ooXXXXXXXXXXXXXXXXXXXXXXXXXXXXXXXXXXXXXXXXXXXX..",
"ooXXXXXXXXXXXXXXXXXXXXXXXXXXXXXXXXXXXXXXXXXXXX..",
"ooXXXXXXXXXXXXXXXXXXXXXXXXXXXXXXXXXXXXXXXXXXXX..",
"ooXXXXXXXXXXXXXXXXXXXXXXXXXXXXXXXXXXXXXXXXXXXX..",
"ooXXXXXXXXXXXXXXXXXXXXXXXXXXXXXXXXXXXXXXXXXXXX..",
"ooXXXXXXXXXXXXXXXXXXXXXXXXXXXXXXXXXXXXXXXXXXXX..",
"ooXXXXXXXX@@@@@@@@@@@@@@@@@@@@@@@@@@@@@XXXXXXX..",
"ooXXXXXXX@@@@@@@@@@@@@@@@@@@@@@@@@@@@@@@XXXXXX..",
"ooXXXXXX@@@@@@@@@@@@@@@@@@@@@@@@@@@@@@@@@XXXXX..",
"ooXXXXX@@@@@@@@@@@@@@@@@@@@@@@@@@@@@@@@@@@XXXX..",
"ooXXXX@@@@@@@@@@@@@@@@@@@@@@@@@@@@@@@@@@@@XXXX..",
"ooXXXX@@@@@@@@@@@@@@@@@@@@@@@@@@@@@@@@@@@@XXXX..",
"ooXXXX@@@@@XXXXXXXXXXXXXXXXXXXXXXXXXX@@@@@XXXX..",
"ooXXXX@@@@XXXXXXXXXXXXXXXXXXXXXXXXXXXX@@@@XXXX..",
"ooXXXX@@@@XXXXXXXXXXXXXXXXXXXXXXXXXXXX@@@@XXXX..",
"ooXXXX@@@@XXXXXXXXXXXXXXXXXXXXXXXXXXXX@@@@XXXX..",
"ooXXXX@@@@XXXXXXXXXXXXXXXXXXXXXXXXXXXX@@@@XXXX..",
"ooXXXX@@@@XXXXXXXXXXXXXXXXXXXXXXXXXXXX@@@@XXXX..",
"ooXXXX@@@@XXXXXXXXXXXXXXXXXXXXXXXXXXXX@@@@XXXX..",
"ooXXXX@@@@XXXXXXXXXXXXXXXXXXXXXXXXXXXX@@@@XXXX..",
"ooXXXX@@@@XXXXXXXXXXXXXXXXXXXXX@XXXXXX@@@@XXXX..",
"ooXXXX@@@@XXXXXXXXXXXXXXXXXXXX@@XXXXXX@@@@XXXX..",
"ooXXXX@@@@XXXXXXXXXXXXXXXXXXX@@@XXXXXX@@@@XXXX..",
"ooXXXX@@@@XXXXXXXXXXXXXXXXXX@@@@XXXXXX@@@@XXXX..",
"ooXXXX@@@@XXXXXXXXXXXXXXXXX@@@@@XXXXXX@@@@XXXX..",
"ooXXXX@@@@@XXXXXXXXXXXXXXX@@@@@@XXXXX@@@@@XXXX..",
"ooXXXX@@@@@@@@@@@@XXXXXXX@@@@@@@@@@@@@@@@@XXXX..",
"ooXXXX@@@@@@@@@@@@XXXXXX@@@@@@@@@@@@@@@@@@XXXX..",
"ooXXXXX@@@@@@@@@@@XXXXX@@@@@@@@@@@@@@@@@@@XXXX..",
"ooXXXXXX@@@@@@@@@@XXXXXX@@@@@@@@@@@@@@@@@XXXXX..",
"ooXXXXXXX@@@@@@@@@XXXXXXX@@@@@@@@@@@@@@@XXXXXX..",
"ooXXXXXXXX@@@@@@@@XXXXXXXX@@@@@@@@@@@@@XXXXXXX..",
"ooXXXXXXXXXXXXXXXXXXXXXXXXX@@@@@XXXXXXXXXXXXXX..",
"ooXXXXXXXXXXXXXXXXXXXXXXXXXX@@@@XXXXXXXXXXXXXX..",
"ooXXXXXXXXXXXXXXXXXXXXXXXXXXX@@@XXXXXXXXXXXXXX..",
"ooXXXXXXXXXXXXXXXXXXXXXXXXXXXX@@XXXXXXXXXXXXXX..",
"ooXXXXXXXXXXXXXXXXXXXXXXXXXXXXX@XXXXXXXXXXXXXX..",
"ooXXXXXXXXXXXXXXXXXXXXXXXXXXXXXXXXXXXXXXXXXXXX..",
"ooXXXXXXXXXXXXXXXXXXXXXXXXXXXXXXXXXXXXXXXXXXXX..",
"ooXXXXXXXXXXXXXXXXXXXXXXXXXXXXXXXXXXXXXXXXXXXX..",
"ooXXXXXXXXXXXXXXXXXXXXXXXXXXXXXXXXXXXXXXXXXXXX..",
"ooXXXXXXXXXXXXXXXXXXXXXXXXXXXXXXXXXXXXXXXXXXXX..",
"ooXXXXXXXXXXXXXXXXXXXXXXXXXXXXXXXXXXXXXXXXXXXX..",
"oo..............................................",
"o..............................................."
};
