<?xml version="1.0" encoding="UTF-8" standalone="no"?>
<!-- Created with Inkscape (http://www.inkscape.org/) -->

<svg
   xmlns:dc="http://purl.org/dc/elements/1.1/"
   xmlns:cc="http://creativecommons.org/ns#"
   xmlns:rdf="http://www.w3.org/1999/02/22-rdf-syntax-ns#"
   xmlns:svg="http://www.w3.org/2000/svg"
   xmlns="http://www.w3.org/2000/svg"
   xmlns:xlink="http://www.w3.org/1999/xlink"
   xmlns:sodipodi="http://sodipodi.sourceforge.net/DTD/sodipodi-0.dtd"
   xmlns:inkscape="http://www.inkscape.org/namespaces/inkscape"
   width="48"
   height="48"
   id="svg4908"
   sodipodi:version="0.32"
   inkscape:version="0.48.4 r9939"
   version="1.0"
   sodipodi:docname="mate.svg"
   inkscape:output_extension="org.inkscape.output.svg.inkscape"
   inkscape:export-xdpi="90"
   inkscape:export-ydpi="90">
  <defs
     id="defs4910">
    <linearGradient
       inkscape:collect="always"
       id="linearGradient5671">
      <stop
         style="stop-color:#729fcf;stop-opacity:1;"
         offset="0"
         id="stop5673" />
      <stop
         style="stop-color:#3465a4;stop-opacity:1"
         offset="1"
         id="stop5675" />
    </linearGradient>
    <linearGradient
       inkscape:collect="always"
       xlink:href="#linearGradient5671"
       id="linearGradient5677"
       x1="10.915961"
       y1="14.010388"
       x2="10.915961"
       y2="18.908218"
       gradientUnits="userSpaceOnUse"
       gradientTransform="matrix(2.3340955,0,0,2.0797356,-1.8209963,2.8226078)" />
    <filter
       inkscape:collect="always"
       id="filter5761"
       x="-0.077635549"
       width="1.1552711"
       y="-0.41717416"
       height="1.8343483">
      <feGaussianBlur
         inkscape:collect="always"
         stdDeviation="0.45085227"
         id="feGaussianBlur5763" />
    </filter>
    <linearGradient
       inkscape:collect="always"
       xlink:href="#linearGradient5671"
       id="linearGradient3022"
       gradientUnits="userSpaceOnUse"
       gradientTransform="matrix(2.3340955,0,0,2.0797356,-1.8209963,2.8226078)"
       x1="10.915961"
       y1="14.010388"
       x2="10.915961"
       y2="18.908218" />
  </defs>
  <sodipodi:namedview
     id="base"
     pagecolor="#ffffff"
     bordercolor="#666666"
     borderopacity="1.0"
     inkscape:pageopacity="0.0"
     inkscape:pageshadow="2"
     inkscape:zoom="8"
     inkscape:cx="6.747905"
     inkscape:cy="33.475858"
     inkscape:current-layer="layer1"
     showgrid="true"
     inkscape:grid-bbox="true"
     inkscape:document-units="px"
     width="48px"
     height="48px"
     inkscape:window-width="1278"
     inkscape:window-height="948"
     inkscape:window-x="0"
     inkscape:window-y="27"
     inkscape:window-maximized="0">
    <inkscape:grid
       type="xygrid"
       id="grid5068" />
  </sodipodi:namedview>
  <metadata
     id="metadata4913">
    <rdf:RDF>
      <cc:Work
         rdf:about="">
        <dc:format>image/svg+xml</dc:format>
        <dc:type
           rdf:resource="http://purl.org/dc/dcmitype/StillImage" />
      </cc:Work>
    </rdf:RDF>
  </metadata>
  <g
     id="layer1"
     inkscape:label="Layer 1"
     inkscape:groupmode="layer">
    <rect
       style="opacity:0.24074073;fill:#000000;fill-opacity:1;stroke:none;stroke-width:1;stroke-linecap:round;stroke-linejoin:miter;stroke-miterlimit:4;stroke-dasharray:none;stroke-dashoffset:0;stroke-opacity:1;filter:url(#filter5761)"
       id="rect5679"
       width="13.9375"
       height="2.59375"
       x="4.03125"
       y="18.96875"
       rx="0.4498865"
       ry="0.63501096"
       transform="matrix(2.0842678,0,0,1.4766422,0.6792651,15.488168)" />
    <path
       inkscape:connector-curvature="0"
       style="opacity:0.19444442;fill:none;stroke:#ffffff;stroke-width:1px;stroke-linecap:round;stroke-linejoin:miter;stroke-opacity:1"
       d="m 37.756513,11.747296 c 0,0 5.140615,5.035338 5.157002,12.720854 0.01653,7.751769 -5.355349,12.985871 -5.355349,12.985871"
       id="path5667"
       sodipodi:nodetypes="czc" />
    <path
       inkscape:connector-curvature="0"
       style="opacity:0.18981479;fill:none;stroke:#ffffff;stroke-width:1px;stroke-linecap:round;stroke-linejoin:miter;stroke-opacity:1"
       d="m 30.616047,16.915142 c 0,0 3.686577,2.501111 3.636349,7.685516 -0.04959,5.118158 -3.636349,7.28799 -3.636349,7.28799"
       id="path5669"
       sodipodi:nodetypes="czc" />
    <path
       inkscape:connector-curvature="0"
       style="fill:#87a556;fill-opacity:1;fill-rule:evenodd;stroke:#5a6943;stroke-width:0.99999987999999995px;stroke-linecap:butt;stroke-linejoin:miter;stroke-opacity:1"
       d="M 3.033391,11.648109 24.671136,24.418378 3.016816,37.198431 3.033391,11.648109 z"
       id="path5070" />
    <path
       inkscape:connector-curvature="0"
       style="opacity:0.18055558;fill:none;stroke:#eeeeec;stroke-width:0.99999988px;stroke-linecap:butt;stroke-linejoin:miter;stroke-opacity:1"
       d="M 4.04192,13.453223 22.5645,24.420891 4.027734,35.311401 4.04192,13.453223 z"
       id="path5665"
       sodipodi:nodetypes="cccc" />
    <path
       inkscape:connector-curvature="0"
       style="opacity:0.32407406;fill:none;stroke:#ffffff;stroke-width:1px;stroke-linecap:round;stroke-linejoin:miter;stroke-opacity:1"
       d="m 38.153525,11.23664 c 0,0 5.427094,5.46394 5.427094,13.24865 0,7.850944 -5.427094,13.182407 -5.427094,13.182407"
       id="path5689"
       sodipodi:nodetypes="czc" />
    <path
       inkscape:connector-curvature="0"
       style="opacity:0.32407406;fill:none;stroke:#ffffff;stroke-width:1px;stroke-linecap:round;stroke-linejoin:miter;stroke-opacity:1"
       d="m 33.305222,17.049165 c 0,0 2.779731,2.878431 2.779731,7.220514 0,4.27587 -2.514994,7.220514 -2.514994,7.220514"
       id="path5691"
       sodipodi:nodetypes="czc" />
    <path
       inkscape:connector-curvature="0"
       style="fill:#87a556;fill-opacity:1;stroke:#5a6943;stroke-width:1;stroke-linecap:round;stroke-linejoin:round;stroke-miterlimit:4;stroke-opacity:1;stroke-dasharray:none;stroke-dashoffset:0"
       d="m 44.983184,24.545684 c 0,-11.316001 -9.170001,-20.5 -20.46875,-20.5 -6.524212,0 -12.313471,3.0771446 -16.0625,7.84375 l 2.5625,1.625 c 3.198502,-3.9147617 8.085497,-6.40625 13.53125,-6.40625 9.625499,-10e-8 17.4375,7.812 17.4375,17.4375 0,9.6255 -7.812,17.4375 -17.4375,17.4375 -5.430049,0 -10.301145,-2.47967 -13.5,-6.375 l -2.5625,1.625 c 3.749919,4.746873 9.522794,7.8125 16.03125,7.8125 11.29875,0 20.46875,-9.183999 20.46875,-20.5 z"
       id="path5067" />
    <path
       inkscape:connector-curvature="0"
       style="fill:#87a556;fill-opacity:1;stroke:#5a6943;stroke-width:1;stroke-linecap:round;stroke-linejoin:round;stroke-miterlimit:4;stroke-opacity:1;stroke-dasharray:none;stroke-dashoffset:0"
       d="m 37.045684,24.576934 c 0,-6.91725 -5.614001,-12.53125 -12.53125,-12.53125 -3.682751,0 -6.987847,1.592947 -9.28125,4.125 l 2.65625,1.65625 c 1.708502,-1.687387 4.044211,-2.71875 6.625,-2.71875 5.226749,0 9.46875,4.27 9.46875,9.53125 0,5.261251 -4.242001,9.53125 -9.46875,9.53125 -2.628895,10e-7 -5.002549,-1.069255 -6.71875,-2.8125 l -2.5625,1.625 c 2.293403,2.532054 5.598499,4.125001 9.28125,4.125 6.91725,0 12.53125,-5.614 12.53125,-12.53125 z"
       id="path5648" />
    <path
       inkscape:connector-curvature="0"
       style="opacity:0.33333333;fill:none;stroke:#eeeeec;stroke-width:1.00000012;stroke-linecap:round;stroke-linejoin:round;stroke-miterlimit:4;stroke-opacity:1;stroke-dasharray:none;stroke-dashoffset:0"
       d="m 10.045238,37.420684 c 3.560547,4.071766 8.326523,6.5625 14.45318,6.5625 10.721091,0 19.422266,-8.721999 19.422266,-19.46875 0,-10.74675 -8.701175,-19.46875 -19.422266,-19.46875 -6.157926,0 -10.831105,2.5141711 -14.452732,6.6875"
       id="path5664"
       sodipodi:nodetypes="cscsc" />
    <path
       inkscape:connector-curvature="0"
       style="opacity:0.33333333;fill:none;stroke:#eeeeec;stroke-width:1;stroke-linecap:round;stroke-linejoin:round;stroke-miterlimit:4;stroke-opacity:1;stroke-dasharray:none;stroke-dashoffset:0"
       d="m 16.826934,33.201934 c 2.164413,1.898506 4.331161,2.843749 7.625,2.84375 6.36525,0 11.53125,-5.152 11.53125,-11.5 0,-6.348 -5.166,-11.5 -11.53125,-11.5 -3.309727,0 -5.552652,1.207783 -7.65625,3.125"
       id="path5677"
       sodipodi:nodetypes="cscsc" />
  </g>
</svg>
