/* XPM */
static char * bg_chart_xpm[] = {
"64 40 4 1",
" 	c None",
".	c NSCDE_BG_COLOR_5",
"#	c NSCDE_TS_COLOR_5",
"%	c NSCDE_BS_COLOR_5",
"################################################################",
"#..............................................................%",
"#..............................................................%",
"#..............................................................%",
"#..............................................................%",
"#..............................................................%",
"#..............................................................%",
"#..............................................................%",
"#..............................................................%",
"#..............................................................%",
"#..............................................................%",
"#..............................................................%",
"#..............................................................%",
"#..............................................................%",
"#..............................................................%",
"#..............................................................%",
"#..............................................................%",
"#..............................................................%",
"#..............................................................%",
"#..............................................................%",
"#..............................................................%",
"#..............................................................%",
"#..............................................................%",
"#..............................................................%",
"#..............................................................%",
"#..............................................................%",
"#..............................................................%",
"#..............................................................%",
"#..............................................................%",
"#..............................................................%",
"#..............................................................%",
"#..............................................................%",
"#..............................................................%",
"#..............................................................%",
"#..............................................................%",
"#..............................................................%",
"#..............................................................%",
"#..............................................................%",
"#..............................................................%",
"#%%%%%%%%%%%%%%%%%%%%%%%%%%%%%%%%%%%%%%%%%%%%%%%%%%%%%%%%%%%%%%%"};
