/* XPM */
/* This file is a part of the NsCDE - Not so Common Desktop Environment */
static char *bg_meter[] = {
/* columns rows colors chars-per-pixel */
"64 16 2 1",
"  c NSCDE_BS_COLOR_5",
". c NSCDE_BG_COLOR_5",
/* pixels */
"                                                                ",
" .............................................................. ",
" .............................................................. ",
" .............................................................. ",
" .............................................................. ",
" .............................................................. ",
" .............................................................. ",
" .............................................................. ",
" .............................................................. ",
" .............................................................. ",
" .............................................................. ",
" .............................................................. ",
" .............................................................. ",
" .............................................................. ",
" .............................................................. ",
"                                                                "
};
