/* XPM */
static char *bg_time[] = {
/* columns rows colors chars-per-pixel */
"64 16 2 1",
"  c NSCDE_BS_COLOR_6",
". c NSCDE_BG_COLOR_6",
/* pixels */
"                                                                ",
" .............................................................. ",
" .............................................................. ",
" .............................................................. ",
" .............................................................. ",
" .............................................................. ",
" .............................................................. ",
" .............................................................. ",
" .............................................................. ",
" .............................................................. ",
" .............................................................. ",
" .............................................................. ",
" .............................................................. ",
" .............................................................. ",
" .............................................................. ",
"                                                                "
};
