/* XPM */
static char * frame_bottom_xpm[] = {
"5 5 3 1",
".      c NSCDE_TS_COLOR_1",
"+      c NSCDE_BG_COLOR_1",
"@      c NSCDE_BS_COLOR_1",
".....",
"+++++",
"+++++",
"@@@@@",
"@@@@@"};
