/* XPM */
/* This file is a part of the NsCDE - Not so Common Desktop Environment */
static char *krell_meter[] = {
/* columns rows colors chars-per-pixel */
"16 16 3 1 ",
"  c NSCDE_FG_COLOR_5",
". c NSCDE_BG_COLOR_1",
"X c None",
/* pixels */
"X..  XXXXXX  ..X",
"XX..  XXXX  ..XX",
"XXX..  XX  ..XXX",
"XXXX..    ..XXXX",
"XXXXX..  ..XXXXX",
"XXXXXX.  .XXXXXX",
"XXXXXX.  .XXXXXX",
"XXXXXX.  .XXXXXX",
"XXXXXX.  .XXXXXX",
"XXXXXX.  .XXXXXX",
"XXXXXX.  .XXXXXX",
"XXXXXX.  .XXXXXX",
"XXXXXX.  .XXXXXX",
"XXXXXX.  .XXXXXX",
"XXXXXXX  XXXXXXX",
"XXXXXXXXXXXXXXXX"
};
